<svg xmlns="http://www.w3.org/2000/svg" xmlns:xlink="http://www.w3.org/1999/xlink" preserveAspectRatio="none" viewBox="0 0 1500 1500" fill="#2f1b12"><defs><path d="M778.9 240.35q4.5-.1 8.8 2.1 3.75 1.95 5.35 3.8-.3-1.65-3-4.4-2.7-2.75-8.35-4.95-5.7-2.2-11.4-1.5-1.6.1-3.15.5l-.7.2q-7.55 2.25-9.15 8.65 4.3-1.55 7.3-2.5 2.8-.9 6.3-1.4 3.45-.45 8-.5M717.75 114.6q.107-.18.2-.35-46.85 1.05-88.55 9.35-41.4 8.2-54.75 37.85-13.2 29.55-12 46.75 1.2 17.2-.1 32.75-1.3 15.5-16.85 28.45-15.45 12.9-17.3 34.7-1.7 21.65 11.4 38.35 13.25 16.6 16.3 22.5 3.1 5.85 4.75 13.3 1.7 7.35-3.75 14.25-5.25 6.65-13.3 9.35-11.35 3.7-23.7-2.15 8.85 11.65 18.1 17.6 9.4 6 10.7 7.35 1.45 6.75 12.55 12.7 11.15 6 40.55 9.8 29.4 3.7 57.25.95.25-.2.4-.25 25.25-3.2 38.4-18.8 14.35-8.95 21.1-22.3-4.75 4.25-15.9-.6-10.4-4.55-27.05-18.5-16.6-13.9-19.15-82.1-.155-.587-.3-1.2 14.667-5.2 21.9-22.3 7.45-17.7 9.35-33.8l.65-5.4q2.72-.856 5.3-1.1 6.3-.8 10.7-.35 4.5.5 8.1 1.4 3.85.95 9.35 2.5-2.05-6.4-11.75-8.65-.45-.1-.85-.2-2-.4-4.05-.5-7.3-.7-14.3 1.45-.95.285-1.9.6 1.495-11.362 3.25-23.2 2.3-15.9 12.4-44.85 7.15-20.45 24.35-19.5-2-.55 2.2-.05 2.2.25 4.9 2.25 2.75 1.7 5 4.75.487-1.61.85-3.15.247-.008.5-.05.3-.05.55-.15l.5-.2.3-.1q.3-.1.55-.25.25-.1.5-.3.2-.15.4-.35.25-.3.4-.65.15-.35.25-.7.2-.15.35-.25.2-.15.4-.25.2-.15.4-.25.15-.15.35-.25.15-.1.3-.25l.2-.1.2-.1q.2-.05.4-.15.3-.1.6-.3.25-.1.45-.2.3-.15.5-.3.25-.2.45-.4.1 0 .2-.05h.15q.1-.05.15-.05.1-.05.25-.1.1 0 .2-.05h.25q.1-.05.2-.05.15 0 .25-.05.15 0 .25-.05t.2-.05l.2-.1h.2q.1-.05.2-.05.1-.05.2-.05.05-.05.15-.05.05 0 .1-.05h.2q.2-.05.4-.05l.4-.1q.2-.05.45-.1.15-.05.35-.15H756.55q.25.05.5.05.2-.05.45-.05h.35l.2.1q.1 0 .2.05.1 0 .2.05h.2q.05 0 .15.05h.3l.2.1q.1 0 .2.05.05 0 .1.05.2.05.4.15.2.05.45.1.2.05.4.05.25.05.45.05.1.05.2.05.1.05.15.1l.2.1.2.2q.15.1.3.15.2.1.4.15.15.1.35.15.2.05.4.05l.2.1q.1.05.15.1l.2.1q.1 0 .15.05.1 0 .2.05.05 0 .15.05.05 0 .15.05h.2q.05.05.15.05.05.05.15.05.1.05.15.05.1.05.15.05l.2.1q.05.05.15.05.05.05.15.1.1.05.15.05l.15.15.2.1.3.2q.2.15.35.2l.4.2q.15.05.35.1h.15q.068.192.2.35.05.1.1.15l.1.2q.05.05.15.1l.1.2q.1.05.2.15.05.05.1.15.1.05.15.1.05.05.15.1l.1.1q.1.05.15.1.05.05.15.05.05.05.15.1.1 0 .15.05.1.05.25.05.3.1.65.1.163 0 .3-.05 3.334 3.672 6.1 7.4 5.173 6.987 9 17v.8q0 .097.05.15l-.05-.05q0 .1.05.25 0 .25.05.45 0 .2.05.4t.15.4q0 .1.05.2v.15q0 .1.05.2t.05.2l.1.2q-.05.1-.05.15-.05.1-.05.15 0 .1-.05.2v.3q.05.2.05.4.1.15.15.3l.2.7.2.6q.1.4.3.8v.35q.05.05.05.15 0 .1.05.2 0 .05.05.15 0 .05.05.15.05.05.1.15l.1.2q0 .05.05.1t.1.15l.1.1q.1.05.15.1.05.05.15.05v.5q0 .1.05.2 0 .2.05.4 0 .05.05.15 0 .05.05.15 0 .1.05.15v.2q.05.15.1.35 0 .1.05.15.05.1.05.2v.15q.05.1.05.2v.15q.05.15.05.35.05.1.1.15 0 .1.05.15.05.05.05.1.05.05.1.15 0 .05.05.15.05.05.1.15l.1.1q.05.05.1.15.05.05.05.15v.4q.05.1.05.15v.2q.05.1.05.15l.1.3v.25q.05.1.05.2t.05.2q0 .15.05.3V194.05q.05.2.05.4.05.2.05.4l.1.6V196.05q0 .2.05.4v.4q.05.2.05.4.05.3.15.55v.4q.05.1.05.2V202q.05.1.05.2.05.1.05.15.05.1.1.15.05.15.15.3.05.1.15.15 0 .05.05.05l.1.1q.05.05.15.1l.1.1q.1.05.15.1.1 0 .2.05.1 0 .2.05 0 .1.05.2 0 .1.05.2v.15q.05.1.05.2v.2q.05.05.05.15v.4q.05.05.05.15 0 .1.05.2 0 .05.05.1v.35q.05.35 0 .65v2.2q.05.1.05.2.05.1.05.2l.1.2q.05.05.05.15.1.05.15.15.05.1.15.15 0 .05.05.05 0 .1.05.25v.55q.05.1.05.2v.2q.05.35.1.65V213.05q.05.35.1.65.05.3.15.6v.4q0 .1.05.2v.4q.05.1.05.2v1.7q-.05.25-.05.5.05.35.15.7 0 .05.05.15.05.1.1.15l.1.2q-.05.05-.05.15 0 .1-.05.15v4.6q0 1.2-.05 2.4-.05 1.15.15 2.25.05.05.05.15.05.05.05.1.05.1.05.2.05.2.1.35.1.2.15.35.1.2.2.35.1.2.25.4V231.05q0 .1.05.2V231.7q.05.05.05.15.05.05.05.15.05.05.05.15.05.05.1.15v2.75q.05.1.05.2.05.1.05.15l.1.2q.05.05.1.15.05.05.1.15l.1.1q.05.1.15.15 0 .2.05.4 0 .2.05.4t.1.35l.1.4q.1.3.15.6v1.05q0 .2.05.4v.15q.05.1.05.2.05.1.05.2.05.1.05.2.05.1.1.15v.4q.05 0 .05.05v.05q-.001-.05-.05-.05v.1q.05.1.05.2v1q0 .1.05.2v.15q.05.05.1.15 0 .05.05.15l.1.1q.05.1.1.15l.1.1q.05.05.1.15.1.05.15.1.019.019.05 0 .082 2.17.15 4.35 17.65-28.2 19.65-45.65 2-17.55-.15-31.9-2.1-14.45-8.25-25.5-7.7-14.7-25.65-23-17.9-8.4-36.15-8.15-15.97.298-29.2.8m.3.3q-.168-.084-.35-.15.012-.026 0-.05.218.1.4.2h-.05Z" id="a_hair_38_fill_svg__a"></path></defs><use xlink:href="#a_hair_38_fill_svg__a"></use></svg>