<svg xmlns="http://www.w3.org/2000/svg" xmlns:xlink="http://www.w3.org/1999/xlink" preserveAspectRatio="none" viewBox="0 0 1500 1500" fill="#fee8d3"><defs><path d="M878.75 926.6q1.1-.85 2-2.1-.95.8-1.95 1.4l-.05.05v.65m-6-12.3q.65-.95 1.9-3.9-1.3 2.15-2.5 3.9h.6m22.15-36.15q-.362 1.123-.4 1.25.014.042 0 .05.049-.071.4-1.3m4.25-14.15q-.146.442-.3.85-.436 1.416-1 3.35-.652 2.216-.05.25.656-1.993 1.75-5.55-.184.482-.4 1.1m73.4 82.65q2.65 3.65 4.9 10.9 2.25 6.8 5.05 8.5 2.75 1.75 4.5 2 2 0 3.45-1.45 1.5-1.35-1.45-10.45-3.05-9.1-5.1-13.4-2.2-4.5-9.6-10.75-7.2-6.4-10.85-10.65-3.8-4.45-6.05-11.3-2.35-6.85-4.25-11.3-.77-2.146-1.35-4.35-.65-2.442-1.05-4.95.4 2.508 1.05 4.95l3.5-5.25q-4.7-7.05-22.25-16.55-17.15-8.15-33.5-9.7-1.094 3.557-1.75 5.55-.745 2.576-1.35 4.5-.225 1.2-.3 2.05-.308 3.62-1.25 3.2-2.4 8.7-5.45 11.8-2.7 2.55-5.15 5.35-1.85 2.05-3.75 4.6-2 3-3.2 5.7-1.4 2.55-2.7 4.75-1.25 2.95-1.9 3.9-2.35 3.1-4.25 4.55-4.2 3.3-2.55 5.75 1.7 2.45 5.55 3.05 3.75.55 7.25-1.7l.05-.05q1-.6 1.95-1.4 1.35-1.05 2.35-2.6 5.652-8.881 14.2-8.75.981.016 2 .15-1.019-.134-2-.15v.1q.224.066.45.1 1.2.9 4.1 7.25 1.6 3.5 5.35 13.1 3.85 9.75 2.05 16.25-1.7 6.5-2.8 10.8-.85 4.55-.45 7.2.6 2.8 2.55 3.9 2.05 1.25 4.9 1.1 2.9-.4 6.3-8.25 3.35-7.9 4.35-16.35 1.1-8.45.05-13.85l-1.1-5.9 1.1 5.9q5 10.3 6.55 16.35 1.5 5.55 2.35 18.55.8 8.35 1.55 11.25.75 2.65 4.25 4.35 4.2 1.3 6.1-1.3 1.8-2.65 1.5-7.5-.05-4.8-.55-14.85-.4-9.85-2.55-16.7-2.6-6.2-5.9-14.15 3.3 7.95 5.9 14.15 4.55 5.7 5.85 8.6 1.35 2.75 4.05 13.75 2.95 11.15 4.05 13.3.85 2.2 3.15 3.55 2.45 1.4 5.3.65 2.85-1.1 2.7-4.75-1.9-12.8-4.35-23.45-2.4-10.6-8.45-21.35-1.35-2.75-3.1-4.8 1.75 2.05 3.1 4.8 6 3.45 10.15 5.65 4.25 2 6.75 6.05M533.75 830.4q-.86-.701-1.75-1.45-3.5-2.95-5.9-3.95-2.5-1.25-6.8-1.85-4.5-1.25-16.6.05-.927-1.274-2-2.5l-.65-.65q-.15-.15-.2-.35-.6-.55-2.25-2.1-1.35-1.25-2.55-2.55-.4-.3-.75-.65-1.6-1.65-3.55-3.2-11.85 5.85-24.25 22.55-11.2 16.55-13 27.8 1.9 1.7 4.15 3.35.7.45 1.45 1 1.293.905 2.25 1.5-.354-1.038-.7-2.1.346 1.062.7 2.1 2.673 8.071 5.85 16.5 2.85 7.1 18.35 9.2l-7.95-12 7.95 12 3.5 4.85q3.15 3.05 17.6.95l-6.75-6q-6.8-9.75-10.35-17.1 3.55 7.35 10.35 17.1l6.75 6 14.85 9.95q6.1 2.25 9.4-.6 3.3-2.95-.55-7.1l-16.9-14.75q-4.35-9.25-5.7-15.85l-3.2-4.45 3.2 4.45q9.35 12.7 20.25 19 16.05 7.7 22.5 6.95 6.5-.65 6.15-5-.45-4.6-7.8-6.95-7.3-2.3-14.05-7.1-13.5-14.8-15.4-22.5-1.4-5.8 7.55-5.9 3.1.25 6.2 1 .302.08.6.15 1.73.503 3.35 1.1.05-.05.15.1 12.8 4.9 17.4 3.15 5.9-2.2 5.9-5.65-.3-3.85-6.55-5.05-5.897-1.557-20.25-13.45m196.8-458.25q.084-.013.15-.05l-4.55 39.55q19.72-5.99 37.15-14.65 10.7-99.95 11.2-144.2-1.35-41.1-57.65-44.9-82.9-9.4-88.15 23.7-4.914 53.122.35 151.95 73.696-29.593 97.1 28.1-4.511-37.519 4.4-39.5Z" id="style_07_outline_svg__a" fill="#855F48" fill-opacity="0"></path><path id="style_07_outline_svg__b" stroke="#000" stroke-width="2" stroke-linejoin="round" stroke-linecap="round" fill="none" d="m725.1 411.65-96.05-28.1q-5.264-98.828-.35-151.95 5.25-33.1 88.15-23.7 56.3 3.8 57.65 44.9-.5 44.25-11.2 144.2-17.43 8.66-37.15 14.65m-218.4 458.9q9.35 12.7 20.25 19 16.05 7.7 22.5 6.95 6.5-.65 6.15-5-.45-4.6-7.8-6.95-7.3-2.3-14.05-7.1-13.5-14.8-15.4-22.5-1.4-5.8 7.55-5.9 3.1.25 6.2 1 .302.08.6.175 1.73.478 3.35 1.075.05-.05.15.1 12.8 4.9 17.4 3.15 5.9-2.2 5.9-5.65-.3-3.85-6.55-5.05-5.897-1.557-20.25-13.45-.86-.701-1.75-1.45-3.5-2.95-5.9-3.95-2.5-1.25-6.8-1.85-4.5-1.25-16.6.05-.927-1.274-2-2.5l-.65-.65m-.2-.35q-.6-.55-2.25-2.1-1.35-1.25-2.55-2.55-.4-.3-.75-.65-1.6-1.65-3.55-3.2-11.85 5.85-24.25 22.55-11.2 16.55-13 27.8 1.9 1.7 4.15 3.35.7.45 1.45 1 1.293.905 2.25 1.525-.354-1.063-.7-2.125m43.9.8 3.2 4.45q1.35 6.6 5.7 15.85l16.9 14.75q3.85 4.15.55 7.1-3.3 2.85-9.4.6l-14.85-9.95q-14.45 2.1-17.6-.95l-3.5-4.85q-15.5-2.1-18.35-9.2-3.177-8.429-5.85-16.475m28.2 8.375q3.55 7.35 10.35 17.1l6.75 6m-29.05-17.8 7.95 12m410.925-20.125q.58-1.949 1.35-4.5-.627 1.941.025-.275.564-1.934 1-3.325.154-.433.3-.85.216-.643.4-1.125 16.35 1.55 33.5 9.7 17.55 9.5 22.25 16.55l-3.5 5.275q.58 2.18 1.35 4.325 1.9 4.45 4.25 11.3 2.25 6.85 6.05 11.3 3.65 4.25 10.85 10.65 7.4 6.25 9.6 10.75 2.05 4.3 5.1 13.4 2.95 9.1 1.45 10.45-1.45 1.45-3.45 1.45-1.75-.25-4.5-2-2.8-1.7-5.05-8.5-2.25-7.25-4.9-10.9-2.5-4.05-6.75-6.05-4.15-2.2-10.15-5.65 6.05 10.75 8.45 21.35 2.45 10.65 4.35 23.45.15 3.65-2.7 4.75-2.85.75-5.3-.65-2.3-1.35-3.15-3.55-1.1-2.15-4.05-13.3-2.7-11-4.05-13.75-1.3-2.9-5.85-8.6 2.15 6.85 2.55 16.7.5 10.05.55 14.85.3 4.85-1.5 7.5-1.9 2.6-6.1 1.3-3.5-1.7-4.25-4.35-.75-2.9-1.55-11.25-.85-13-2.35-18.55-1.55-6.05-6.55-16.35 1.05 5.4-.05 13.85-1 8.45-4.35 16.35-3.4 7.85-6.3 8.25-2.85.15-4.9-1.1-1.95-1.1-2.55-3.9-.4-2.65.45-7.2 1.1-4.3 2.8-10.8 1.8-6.5-2.05-16.25-3.75-9.6-5.35-13.1-2.9-6.35-4.1-7.25-.226-.034-.45-.075m0-.125q-8.548-.131-14.2 8.75-1 1.55-2.35 2.6m-2 1.45q-3.5 2.25-7.25 1.7-3.85-.6-5.55-3.05-1.65-2.45 2.55-5.75 1.9-1.45 4.25-4.55m1.9-3.9q1.3-2.2 2.7-4.75 1.2-2.7 3.2-5.7 1.9-2.55 3.75-4.6 2.45-2.8 5.15-5.35 3.05-3.1 5.45-11.8m1.575-5.225q-1.096 3.61-1.575 5.2m4.65-15.275q-1.094 3.557-1.725 5.575M872.75 914.3q.65-.95 1.9-3.9m6.1 14.1q-.95.8-1.95 1.4l-.05.05m73.8 4.2q1.75 2.05 3.1 4.8m-32.6-6.35 1.1 5.9m-24.85-21.2q-1.019-.134-2-.15m40.15 17.35q3.3 7.95 5.9 14.15m7.4-55.2q.4 2.508 1.05 4.975"></path></defs><g><use xlink:href="#style_07_outline_svg__a"></use><use xlink:href="#style_07_outline_svg__b"></use></g></svg>