<svg xmlns="http://www.w3.org/2000/svg" xmlns:xlink="http://www.w3.org/1999/xlink" preserveAspectRatio="none" viewBox="0 0 1500 1500" fill="#7f91bf"><defs><path fill="#C7D4C9" d="M1.6 6.05q2.627.029 7.4 5.25Q7.494-3.855.15-15.15-7.256-1.972-9.05 15.2-1.038 6.077 1.6 6.05Z" id="style_03_color_b_svg__h"></path><path fill="#FFF" d="m625.9 482 .45-.7-.2.05-67.1 6.75-1.6 2.7-2.65 4.85q1 1 59.25-4.65.3-.05.6-.05 2.4-.25 5.95-.75l5.3-8.2Z" id="style_03_color_b_svg__j"></path><path id="style_03_color_b_svg__b" fill="none" d="M680.65 394.4v.35M829.5 470.3l-.25-.75-.2-.6m-11.9-22.4.5.4M741.6 415.3l.85.35.25.1q-.59-.218-1.175-.425l-.1-.025m-1.025-.45.275.125M681.35 386.35l32.325 11.475L727.4 390.4m101.65 78.55q-.478-1.574-1.15-3.65-.775-2.4-1.95-5.95m-85.175-44.325q.194.094.375.175l.275.1m.175 0q-.564-.205-1.2-.45M714.15 398l-.475-.175m-44.725 13.55q-.25.093-.55.175M804.1 712.5q.2-.15.45-.3m59.525 654q.925 1.25.475 2.55m-247.4 88-.05-.4m-.2 4.2q-.1.4-.25.85m-35.1-374.3v-1.35m-19.15-503.2-.6 1m66 122.8 120.5 40.75q6.45-4.45 13.7-9.15 18.4-11.95 42.1-25.45M625.05 485.25l-.1.2q-.2.45-.35.65m-.95 1.3q.565-1.371 1.2-2.875m.4.325-.2.4m-89.65 977.1-.1.05h.1m324.4-159.9q-6.5 4.7-13.55 6.5-6.25 1.8-12.85 1.9-10.35.05-20.45-2.25" stroke="#000" stroke-width="1.5" stroke-linejoin="round" stroke-linecap="round"></path><path id="style_03_color_b_svg__c" fill="none" d="M680.65 394.75q-.1.5-.25 1.6-1.2 9.7-8.75 13.55-.6.3-1.2.65-.65.35-1.5.8m-.55.2q-.6.25-1.45.6-5.05 1.85-26.25 9.1-21.1 7.25-34.95 12.5l-5.6 2.05q-13.1 4.85-19.95 13.25-.5.45-.9.95-.15.15-.25.3l-.4.5m-6.05 9.35-.1.7q-3.4 4.9-3.8 5.85-.65 1.35-1.5 2.55-.35.7-3.4 6.45-3.05 5.65-3.45 6.4m.05 0q-2.45 4.85-3.15 6.3-1.1 2.6-3.5 7.05M842.4 514q-1.1-3.5-2.15-7.2-1.35-4.35-2.65-8.8-1.5-5-3-10.05l-5.1-17.65m-.45-1.35q-3.748-10.442-4.9-12.95-.148-.312-.25-.5-2.4-4.5-6.25-8.55m-21.825-10.525L757.75 420.75l-16.15-5.45m-1.2-.45q-.662-.304-1.4-.65l-.3-.15q-2.65-1.35-4.85-3.7-2.25-2.3-3.8-4.95-1.5-2.55-2.05-6.35m-46.65-12.7-.7 8.05m46.75-4q.2 4.65.6 8.5v.15m67.825 37.375q17.935 7.327 19.725 8.725.75.7 1.6 1.4m42.2 126.2q-6.7-23.6-13.95-48.05-.1-.5-.25-1.05m-43.45-34q3.25 58.35 3.75 64.75.35 6.05.7 14.1.05 1.65.15 3.45 0 .65.05 1.25l8.8 19.6q1.5 2.35 2 2.8.2.15.25.05.55-1.05 1.4-1.95.7-.8 2.4-2.3 1.6-1.6 8.8-6.65 7.1-5.15 19.6-9.5 4.9-1.8 8.45-2.35.65-.1 1.3-.15 2.15-.2 3.8.15 2.2 6.9 14.7 42.65.45 1.5-4.1 6.55m-35.15 15.55q-5.5-.15-6.8-3.5-.25-.5-.3-.95-11.45-24.45-13-28.35-1.55-4-1.75-5.05-.3-1.05-.15-2.1.05-.65-1.45-4.9M842.4 514q.85 3 2.6 9.5M740.775 415.025l.825.275m63.35 180.8q.8-4.6 1-6.5.7-6.95.4-16.4m-8.15 57.35q1.45-7.15 2.65-13.1m-2.3 12.7q-1.308 5.283-1.65 6.8-.097.528-.2 1.05-1.951 9.497-2.65 18.95-.95 13.7 2.65 26.9 3.95 14.1 7.85 28.35m-.45.3q1.85 5.55 2.95 11.35 1.45 7.75 2.15 15.5.85 9.9 1.8 20.25.75 8.4 2.55 16.05 1.7 7.45 2.9 22 .033.115.075.225 1.64 5.942 2.425 14.475.85 9.35 2.3 18.75 1.4 9.35 2.35 19.1.9 10.35 1.85 20.45.8 8.4 1.8 16.55 1.2 9.4 2.85 18.75 1.35 8.05 2.8 16.25 1.3 7.3 2.6 15.05 1.25 7.65 2.55 15.45l6.05 40.75q1.4 8.95 2.7 17.95.5 3.3.95 6.4m.05-.05q.127 1.014.275 2.025l.175 1.175q.05.5.15 1.05.65 4.8 1.3 9.15.65 4.3 1.2 8.15.3 2.3.6 4.85 1.2 8.85 2.2 16.5.3 2.5.6 4.7l.1.8q.275 1.916.4 3 9.45 52.25 6.9 121.45-2.7 69.15-1.75 111.8 0 1.8.2 3.5 0 4.8.15 9.25.902 33.88 3.775 51.05m.475 2.55q.05.3.1.65 3.3 12.55 6.75 19.6 1.15 2.35 2.7 4.65 1.25 1.4 2.2 2.95 1.85 2.25 4.1 4.45 7.9 5.85 16.3 10.2 9.4 4.85 24.05 12.85 6.7 3.3 11.05 7.1 2.95 2.55 4.85 5.35 1.5 2.3 2.3 4.75.7 2.2.8 4.5.2 3.4-1.1 7.25-3.2 8.15-16.65 9.6-36.9 3.75-78.75-10.25-8.9-3-14.7-5.6l-6.85-2.75q-6.2-2.15-5.9-7.4.3-3.3.5-5.35v-.5q.05-.9.1-1.5m.55-.75q-1.85-3.8 2.25-35.15-.85-28.4-2.45-48.6-1.8-20.4-2-22.25 0-.45-.1-.95-.25-1.55-.4-3.7-.2-.6-.2-1.1-.25-1.7-1.1-8.15-.25-1.6-.6-3.6-1.1-7.5-2.8-19.75-4.05-27.5-12.25-127.65-3.85-61.05-19.4-100.45-.428-.951-.875-1.925-3.218-7.187-6.875-15.425-27.8-63.2-53-132.2-10.95-30.1-18.15-48.95-5.4 21.45-14.05 56.05-1.85 7.9-3.8 15.65-2.05 7.6-3.8 14.5-1.7 6.95-4.45 17.4-2.75 10.55-7.95 29.5-16.8 62.5-17.85 65.95-1.05 3.45-1.45 5.05-3.623 12.73-5.95 21-1.232 4.408-2.1 7.55l-1.55 5.95-15.85 101.1q-11.25 90-17.55 132.15-.3 1.75-.5 3.45-.8 4.75-1.45 9.15-2 14.15-3.15 25.45-.65 5.5-1 13.75t1.1 26.45q.174 2.435.35 4.5l.05.6q3.1 12.05 7.3 17.85 1.95 2.85 3.7 5.6.3.5.65 1 1.127 1.722 2.175 3.55m5.225 14.45q-.057-.62-.15-1.225m-.3 6.275.5-4.65m-.25 3.85q0 1.5-.1 2.95-.5 14.25-13 19.35-.2.1-.4.15l-3.35 1.8-3.5.7q-.1.05-.3.05-2.8.95-5.7 1.5-20.05 3.15-39.65-3.1-2.5-.45-4.4-1m-9.15-9.8q-.05 4 3.25 5.65m-4-23.35q1.7-4.6 3.4-4.7l6.9-37.5q4.05-28.15 5.8-48.35 1.75-20.3 1.9-22.2.05-.4.1-.95 0-1.5.2-3.75-.05-.6.05-1.15.05-1.7.2-8.2.05-1.65.15-3.6.15-7.7.5-19.95.2-5.25.65-13 2.25-82.5 8.7-123.55 8.4-46.1 16.2-75.45.1-2 .15-3.9 0-.7.05-1.3v-.85m0-1.35q-.016-1.501-.025-3-.564-57.721 1.775-112.45 2.6-89.95 14.05-147.85 1.95-10 4.2-19 4.05-19.6 6-36.2 2.75-24.4 13.05-46.65 3.8-8.4 7.5-15.3m5.7-24.25q.75-3.65 1.6-7.3.35-1.55.75-3.1.35-1.5.65-3.05.25-1.4.4-2.85-.25-4.35-.25-9.9l-2.25-18.5-.6-4.4q-4.6-24.4-18.8-131.6l-52.9 82.2m-.6 1q.8 1 1.15 1.85 1 2.3-.75 5.15-1.8 2.8-6.5 10.2-4.65 7.2-8.25 13.25-.9 1.6-1.7 2.85-2.4 3.8-3.65 6.4-1.15 2.7-4.7 2.35-1.35-.2-3.35-.65m-34.9-21.7q-3.65-4.95-3.05-6.25 6.15-11.85 10.55-20.5l8.35-16.2q2.1-3.1 6.5-2.75m.5-.6q.45-.95 1-2.05 1.05-2.1 2.05-4.2 1.1-2.1 2.1-4.05.1-.3.25-.55 12.75-24.55 16.25-31.35.35-.65.65-1.35.8-1.5 1.5-2.8.6-1.15 1.3-2.25m0-.05.4-.55 1.55-3.15q2.9-5.65 3.8-7.3.5-1 .9-1.85m247.1 122q2.8-14.1 4.1-21.35m-8.05 40.85q.3-1.55.6-3.05m.65-3.25q0-.047.05-.1M578.65 450.8q-3.8 4.05-6.05 9.35m-10.8 123.4q-1.55-2.05-4.75-5.2-4.95-4.8-15.05-11.15-9.95-6.35-17-8.6-1.85-.65-3.5-1.05m112.3 123.5-.7 3.5q-1.55 7.5-3.35 15.15-.5 2.1-1.5 5.3-.2.65-.45 1.35m-46.275 376.4q.075 2.15.025 4.35m20.95 243.5q-7.25 3.55-14.5 4.1-6.45.75-12.95-.3-10.05-1.65-19.3-5.45-.35-.15-.6-.25m61.8 126.425q-.572-4.238-2.45-8.125-1.236-2.644-2.625-5.1m-71.275 36.95q2.2 2.85 5.9 4.15m-11.1-20.6 1.95 10.8M709.8 813q-.45 3.55-1.25 7.25-.35 1.5-.75 3.15-.4 1.75-8.8 35.3m150.7 172.45q.95 7.15 1.8 13m13.05 324.6q-.05 0-.05.05.1.3.15.6m-.575-3.2q.164.926.325 1.8.05.35.15.75m15.85 32.3q.75.75 1.55 1.5" stroke="#000" stroke-width="2" stroke-linejoin="round" stroke-linecap="round"></path><path id="style_03_color_b_svg__d" fill="none" d="m624.65 485.8.4-.6.2-.35m176.45 4.8q-.1-1.75-.2-3.55-.08-1.143-.15-2.3m-177.7 3.6 1-1.6m86.5 322.35q14-2.7 21.7-4.1 6.25-1.1 15.8-3.05l4.55-1" stroke="#000" stroke-width="3" stroke-linejoin="round" stroke-linecap="round"></path><path id="style_03_color_b_svg__e" fill="none" d="m536.6 1455.5-.15.85m0 .1-1.05 5.9" stroke="#000" stroke-width="2" stroke-linejoin="bevel" stroke-linecap="round"></path><path id="style_03_color_b_svg__f" fill="none" d="M536.45 1456.35v.1" stroke="#000" stroke-width="1.5" stroke-linejoin="bevel" stroke-linecap="round"></path><path id="style_03_color_b_svg__g" fill="none" d="M-114.15.25-.9-.1" stroke="#FFF" stroke-width="5" stroke-linejoin="miter" stroke-linecap="butt" stroke-miterlimit="3"></path><path id="style_03_color_b_svg__i" fill="none" d="M.15-15.15Q7.494-3.855 9 11.3 4.227 6.079 1.6 6.075q-2.638.002-10.65 9.125Q-7.256-1.972.15-15.15Z" stroke="#000" stroke-width="1.5" stroke-linejoin="round" stroke-linecap="round"></path><path id="style_03_color_b_svg__k" fill="none" d="M615.8 499.55 625.9 482" stroke="#000" stroke-width="2" stroke-linejoin="round" stroke-linecap="round"></path><path id="style_03_color_b_svg__n" fill="none" d="M-3.304-1.972q0 1.05-.58 1.83-.58.781-1.429.826Q-6.16.728-6.74.008q-.58-.72-.58-1.77t.58-1.83q.58-.78 1.428-.824.848-.045 1.428.675.58.72.58 1.77Z" stroke="#EFD16A" stroke-width="0.5" stroke-linejoin="round" stroke-linecap="round"></path><g id="style_03_color_b_svg__a"><path fill="#414448" d="m786.8 430.75 2.3.8-.6-.2q-.831-.297-1.7-.6m64.7 613.4q-.3-2.55-.6-4.85-.55-3.85-1.2-8.15.95 7.15 1.8 13m-269.95 41.6v1.35q.05-2.2-.05-4.35.034 1.499.05 3m43.4-600.3q.05-.15.1-.25l-.4.6-.2.4q.05 0 .15-.1.15-.2.35-.65m.35-.35-.05-.25-.2.4v.2l.2-.15-.1-.1.15-.1M570.9 463q-.15.25 1.6-2.15l.1-.7q-.8 1.3-1.7 2.85m236.15 260.85q-1.1-5.8-2.95-11.35-23.7 13.5-42.1 25.45-7.25 4.7-13.7 9.15l-120.5-40.75.3-1.05q-3.7 6.9-7.5 15.3-10.3 22.25-13.05 46.65-1.95 16.6-6 36.2-2.25 9-4.2 19-11.45 57.9-14.05 147.85-2.34 54.729-1.8 112.45.1 2.15.05 4.35v.85q-.05.6-.05 1.3-.05 1.9-.15 3.9-7.8 29.35-16.2 75.45-6.45 41.05-8.7 123.55-.45 7.75-.65 13-.35 12.25-.5 19.95-.1 1.95-.15 3.6.25.1.6.25 9.25 3.8 19.3 5.45 6.5 1.05 12.95.3 7.25-.55 14.5-4.1.05 0 .15-.05 6.3-42.15 17.55-132.15l15.85-101.1 1.55-5.95q.868-3.142 2.1-7.55 2.327-8.27 5.95-21 .4-1.6 1.45-5.05 1.05-3.45 17.85-65.95 5.2-18.95 7.95-29.5 2.75-10.45 4.45-17.4 1.75-6.9 3.8-14.5 1.95-7.75 3.8-15.65 8.65-34.6 14.05-56.05 8.4-33.55 8.8-35.3.4-1.65.75-3.15.8-3.7 1.25-7.25-.45 3.55-1.25 7.25-.35 1.5-.75 3.15-.4 1.75-8.8 35.3 7.2 18.85 18.15 48.95 25.2 69 53 132.2 3.657 8.238 6.85 15.4.472.999.9 1.95 15.55 39.4 19.4 100.45 8.2 100.15 12.25 127.65 1.7 12.25 2.8 19.75.35 2 .6 3.6 10.1 2.3 20.45 2.25 6.6-.1 12.85-1.9 7.05-1.8 13.55-6.5.1 0 .15-.1-.95-42.65 1.75-111.8 2.55-69.2-6.9-121.45-.125-1.084-.4-3l-.1-.8q-.3-2.2-.6-4.7-1-7.65-2.2-16.5-.85-5.85-1.8-13-.65-4.35-1.3-9.15-.1-.55-.15-1.05l-.2-1.2-.25-2-.05.05q-.45-3.1-.95-6.4-1.3-9-2.7-17.95l-6.05-40.75q-1.3-7.8-2.55-15.45-1.3-7.75-2.6-15.05-1.45-8.2-2.8-16.25-1.65-9.35-2.85-18.75-1-8.15-1.8-16.55-.95-10.1-1.85-20.45-.95-9.75-2.35-19.1-1.45-9.4-2.3-18.75-.785-8.533-2.45-14.5-.017-.085-.05-.2-1.2-14.55-2.9-22-1.8-7.65-2.55-16.05-.95-10.35-1.8-20.25-.7-7.75-2.15-15.5M748.65 801l4.55-1-4.55 1q-9.55 1.95-15.8 3.05-7.7 1.4-21.7 4.1 14-2.7 21.7-4.1 6.25-1.1 15.8-3.05m-7.05-385.7-.85-.3 1.7.65-.85-.35m82.3 40.2q-3.01-6.054-6.25-8.55 3.85 4.05 6.25 8.55m5.15 13.45q-.478-1.574-1.15-3.65-1.841-5.368-3.75-9.3 1.152 2.508 4.9 12.95m.35.95q-.05-.15-.15-.35l.25.75-.1-.4m-148.75-75.25v.1q-.1.5-.25 1.6-1.2 9.7-8.75 13.55-.6.3-1.2.65-.65.35-1.5.8.14.527.25 1l-.8-.8q-.6.25-1.45.6-5.05 1.85-26.25 9.1-21.1 7.25-34.95 12.5l-5.6 2.05q-13.1 4.85-19.95 13.25-.5.45-.9.95-.15.15-.25.3l-.4.5q-.45.5-.85 1.05-1.05 1.4-2.95 4.55-1 1.65-2.25 3.75l-.1.7q-3.4 4.9-3.8 5.85-.65 1.35-1.5 2.55-.35.7-3.4 6.45-3.05 5.65-3.45 6.4-.05.1.05 0-2.45 4.85-3.15 6.3-1.1 2.6-3.5 7.05l2-1.3q.5-.75.95-1.2l.1-.1 1.65-5 49.65-4.75q.093.752.2 1.5l15.65-.1-1.5 2.1.55.1.25-.05h.2l.1-.05q.257-.043 1.25-2.1h.1q-.306.882-.45 1.35l.5-1.35h.3l-.6 1.3.4-.6.2-.35-.1.1q.077-.206.15-.45l169.15-.7q.023.388.05.75 4.2 1.75 6.75 1.55v-2.3h.55q.099-1.303.15-2.6l4.35 3q.8-.25.45.3l31.9 21.75 2.05 6.9q.5 1.35 1.1 2.45.7 0 .6-1.6-1.1-3.5-2.15-7.2-1.35-4.35-2.65-8.8-1.5-5-3-10.05l-5.1-17.65-.25-.75-.2-.6q-3.748-10.442-4.9-12.95-.148-.312-.25-.5-2.4-4.5-6.25-8.55l-.5-.4q-1.9-1.4-4.1-2.5-2.35-1.2-4.75-1.9.1-.225-12.5-5.75l-38.05-15.65-16.15-5.45.85.35.25.1q-.59-.218-1.2-.45h-.1q-.125-.049-.3-.1-.147-.081-.35-.2-.025.001-.1-.05l-.25-.1q-.662-.304-1.4-.65l-.3-.15q-2.65-1.35-4.85-3.7-2.25-2.3-3.8-4.95-1.5-2.55-2.05-6.35l-13.85 6.85v-.05q-2.742-.767-5.5-1.6-13.792-4.142-28-9.85v.25Z"></path><path fill="#369CEB" d="M938.65 1453.05q1.3-3.85 1.1-7.25-4.75 3.3-13.65 4.2-47.8 4.25-100.7-16.75-.75-.25-1.35-.55-2.05-.8-4.05-1.65-.45-.35-1-.55-1.2-.5-2.25-1.05-.1-.05-.15-.05l-.2-.1q-.05.6-.1 1.5v.5q-.2 2.05-.5 5.35-.3 5.25 5.9 7.4l6.85 2.75q5.8 2.6 14.7 5.6 41.85 14 78.75 10.25 13.45-1.45 16.65-9.6m-78.7-150.65q-.05.1-.15.1-6.5 4.7-13.55 6.5-6.25 1.8-12.85 1.9-10.35.05-20.45-2.25.85 6.45 1.1 8.15 0 .5.2 1.1.15 2.15.4 3.7 7.65 1.8 17.5 1.7 8.4.35 15.75-1.95 6.5-1.75 12.25-6 .05-.1.15-.2-.15-4.45-.15-9.25-.2-1.7-.2-3.5M603.4 1483.05q.2-.05.4-.15 12.5-5.1 13-19.35.1-1.45.1-2.95v-.05q-.1.4-.25.85l-.3 1.05q-.05-.15-.05-.2-.35-1.95-.5-1.7-.1.4-.25.75-.1.2-.1.35-.45.95.1-.85 0-.25.15-.6l.25-1.05q-.35.95-.6 1.75-1.45 1.1-3.15 2.8-3.6 3.5-7.6 4.95-9.2 4.8-20.75 5.75l-13.25.1-1.05-.1q-1.35-.15-2.8-.35-14.15-1.65-22.3-5.1-5.65-2.4-8.35-5.65l-.2-.2q-.145-.097-.3-.1h.25q-.3-.3-.45-.6l1.95 10.8q-.05 4 3.25 5.65 2.2 2.85 5.9 4.15 1.9.55 4.4 1 19.6 6.25 39.65 3.1 2.9-.55 5.7-1.5.2 0 .3-.05l3.5-.7 3.35-1.8m-47.65-154.1q-.35-.15-.6-.25-.15 6.5-.2 8.2-.1.55-.05 1.15-.2 2.25-.2 3.75.4.25.9.35 6.85 2.85 15.95 4.3 8.25 1.8 16 .8 6.7-.65 13-3.9.1-.1.15-.2.65-4.4 1.45-9.15.2-1.7.5-3.45-.1.05-.15.05-7.25 3.55-14.5 4.1-6.45.75-12.95-.3-10.05-1.65-19.3-5.45m238.75-844.4q-.027-.362-.05-.75l-169.15.7q-.073.244-.15.45l.1-.1.05.25-.15.1.1.1-.2.15v-.2l-.1.2q-.2.45-.35.65-.1.1-.15.1l.2-.4-1 1.6q.565-1.371 1.2-2.9h-.05q-.993 2.057-1.25 2.1l-.1.05h-.2l-.25.05-.55-.1-2.85 3.85q-2.55.25-4.95.5-.3 0-.6.05-58.25 5.65-58.4 4.3l1.15-2.45-.1.1q-.45.45-.95 1.2-1.15 1.6-2.7 4l-.95 1.4q-.9 2.35-4.6 8.2l-.4.55v.05l-.4.7-1.2 2.3q-.7 1.3-1.5 2.8-.3.7-.65 1.35-3.5 6.8-16.25 31.35-.15.25-.25.55-1 1.95-2.1 4.05-1 2.1-2.05 4.2-.35.7-.7 1.3l-.5.6q1.65.4 3.5 1.05 7.05 2.25 17 8.6 10.1 6.35 15.05 11.15 3.2 3.15 4.75 5.2l.6-1 52.9-82.2.5-.8q13.7 99.95 18.3 132.4l.6 4.4q.85 6.05 1.3 8.9.85 5.7.95 9.6 0 5.55.25 9.9-.15 1.45-.4 2.85-.3 1.55-.65 3.05-.4 1.55-.75 3.1-.65 3.15-.35 4.7-.7 1.25-1.25 2.6l-.7 3.5q-1.55 7.5-3.35 15.15-.5 2.1-1.5 5.3-.2.65-.45 1.35l120.5 40.75q6.45-4.45 13.7-9.15 18.4-11.95 42.1-25.45.2-.15.45-.3-3.9-14.25-7.85-28.35-3.6-13.2-2.65-26.9.699-9.453 2.65-18.95.103-.522.2-1.05.3-1.55.6-3.05h-.25v-2.45q-.1.1-.2.15.1-.35.2-.75v-.2h.05q1.95-6.55 3.55-13.2 2.8-14.1 4.1-21.35 1.5-12.05 1.4-22.9-.05-.6-.05-1.25-.1-1.8-.15-3.45-.35-8.05-.7-14.1-.5-6.4-3.75-64.75l-.45-.35v-3.2q-2.55.2-6.75-1.55m50.9 40.15q-.1-.5-.25-1.05l-.15-.15-6.9-5.75-36.4-28.1q3.25 58.35 3.75 64.75.35 6.05.7 14.1.05 1.65.15 3.45 0 .65.05 1.25l8.8 19.6q1.5 2.35 2 2.8.2.15.25.05.55-1.05 1.4-1.95.7-.8 2.4-2.3 1.6-1.6 8.8-6.65 7.1-5.15 19.6-9.5 4.9-1.8 8.45-2.35.65-.1 1.3-.15-6.7-23.6-13.95-48.05M681.35 386.35l-.7 8.05q14.208 5.708 28 9.85 2.758.833 5.5 1.6v.05l13.85-6.85v-.15q-.4-3.85-.6-8.5l-13.75 7.4.5.2-.5-.2-32.3-11.45Z"></path><path fill="#161616" d="M864.65 1369.4q-.05-.35-.1-.65-.05 0-.05.05.1.3.15.6m-252.8 72.5q1.414 2.456 2.65 5.1 1.878 3.887 2.45 8.1.7-6.16-2.3-9.7-1.583-1.873-2.8-3.5Z"></path><path fill="#FFF" d="M860.3 1315.15q-.1.1-.15.2-5.75 4.25-12.25 6-7.35 2.3-15.75 1.95-9.85.1-17.5-1.7.1.5.1.95.2 1.85 2 22.25 1.6 20.2 2.45 48.6-4.1 31.35-2.25 35.15-.1.5-.2.9 1.05.55 2.25 1.05.55.2 1 .55 2 .85 4.05 1.65.6.3 1.35.55 52.9 21 100.7 16.75 8.9-.9 13.65-4.2-.1-2.3-.8-4.5-.8-2.45-2.3-4.75-1.9-2.8-4.85-5.35-4.35-3.8-11.05-7.1-14.65-8-24.05-12.85-8.4-4.35-16.3-10.2.75.75 1.55 1.5-.8-.75-1.55-1.5-2.25-2.2-4.1-4.45-.95-1.55-2.2-2.95-1.55-2.3-2.7-4.65-3.45-7.05-6.75-19.6-.05-.3-.15-.6 0-.05.05-.05-.1-.4-.15-.75-.16-.874-.35-1.8-2.848-17.17-3.75-51.05m-305.7 27.6q-.15 1.9-1.9 22.2-1.75 20.2-5.8 48.35l-6.9 37.5q-1.7.1-3.4 4.7-.85 6.25 0 7.6h-.35q.2.05.35.1h.4q-.1-.05-.15-.05-.102-.048-.2-.05h.1q.45 0 .95.1h-.25l.85.1h-.15l-.7-.1H537q-.155.003-.3.1-.35-.1-.6 0 2.7 3.25 8.35 5.65 8.15 3.45 22.3 5.1 1.45.2 2.8.35l1.05.1 13.25-.1q11.55-.95 20.75-5.75 4-1.45 7.6-4.95 1.7-1.7 3.15-2.8.25-.8.6-1.75l-.25 1.05q-.15.35-.15.6-.55 1.8-.1.85 0-.15.1-.35.15-.35.25-.75.88-2.934 1.15-5.45-.572-4.213-2.45-8.1-1.236-2.644-2.65-5.1-1.91-2.616-2.8-4.55-1.75-2.75-3.7-5.6-4.2-5.8-7.3-17.85l-.05-.6q-.176-2.065-.35-4.5-1.45-18.2-1.1-26.45.35-8.25 1-13.75 1.15-11.3 3.15-25.45-.05.1-.15.2-6.3 3.25-13 3.9-7.75 1-16-.8-9.1-1.45-15.95-4.3-.5-.1-.9-.35-.05.55-.1.95m53.7-858.15q-.107-.748-.2-1.5l-49.65 4.75-1.65 5-1.15 2.45q.15 1.35 58.4-4.3.3-.05.6-.05 2.4-.25 4.95-.5l2.85-3.85 1.5-2.1-15.65.1m192.95-.8v5.5l.45.35q-.1-1.75-.2-3.55-.08-1.143-.15-2.3h-.1m39.45 29.35-2.05-6.9-31.9-21.75-.45-.3-4.35-3q-.051 1.297-.15 2.6h-.45q.07 1.157.15 2.3.1 1.8.2 3.55l36.4 28.1 5.15 4-2.55-8.6Z"></path><path fill="#EC5657" d="M540.9 1479.65q.55 1.95 5.6 3.35-3.7-1.3-5.9-4.15.1.35.3.8m-4.3-16.55q-.346-.099-.6-.1.105.003.25.1h.35m-1.2-.7v-.05l-.1.05h.1m1.6.8H537.7q-.5-.1-.95-.1l.1.05q.05 0 .15.05m-.55-6.75q-.05.05-.1.15l-.25 1.3q-.6 3.05-.85 4.25l-.2.8v.05h.2q-.2.3-.2.35h-.1q-.25 2.75.2 3.1l.1.1.05 1.6q.55 2.75 2.05 5.05l-1.95-10.8h-.1l.1-.05 1.05-5.9m97.35-775.4q-2.25 5.35-2.5 11.55l-3.2 12.7-.3 1.05q.25-.7.45-1.35 1-3.2 1.5-5.3 1.8-7.65 3.35-15.15l.7-3.5m-8.9-196.55h-.05q-.635 1.529-1.2 2.9l1-1.6.6-1.3h-.3l-.5 1.35q.144-.468.45-1.35m.05.95.1-.2.2-.4-.2.35q-.05.1-.1.25M797.5 633.9q-.3 1.5-.6 3.05.342-1.517 1.65-6.8l-1.05 3.75m.6-3.25h.05q0-.047.05-.1l-.1.1m.3 0q.05-.25.15-.5-.2.2-.35.4-.05.053-.05.1h.25m6.55-34.55q-1.3 7.25-4.1 21.35 1.5-6.3 2.7-12.65.85-4.35 1.4-8.7m1.8-111.6q.35-.55-.45-.3l.45.3m9 109.65q.25.5.55 1-.4-.75-.9-1.9.15.4.35.9Z"></path><path fill="#9CF" d="m515 560.3-8.35 16.2q-4.4 8.65-10.55 20.5-.6 1.3 3.05 6.25 1.45-2.35 3.1-5.1 13.4 4.8 21.65 10.25 8.3 5.45 14.15 9.8-1.25 1.6-4 6.75 2 .45 3.35.65 3.55.35 4.7-2.35 1.25-2.6 3.65-6.4.8-1.25 1.7-2.85 3.6-6.05 8.25-13.25 4.7-7.4 6.5-10.2 1.75-2.85.75-5.15-.35-.85-1.15-1.85-1.55-2.05-4.75-5.2-4.95-4.8-15.05-11.15-9.95-6.35-17-8.6-1.85-.65-3.5-1.05-4.4-.35-6.5 2.75m306.2 31.1q-1.7 1.5-2.4 2.3-.85.9-1.4 1.95-.05.1-.25-.05-.5-.45-2-2.8 1.5 4.25 1.45 4.9-.15 1.05.15 2.1.2 1.05 1.75 5.05 1.55 3.9 13 28.35.05.45.3.95 1.3 3.35 6.8 3.5-1.65-5.1-1.75-5.35 6.2-4.65 14.45-8.85 8.2-4.3 20.4-7.8.95 3.2 2.05 6.45 4.55-5.05 4.1-6.55-12.5-35.75-14.7-42.65-1.65-.35-3.8-.15-.65.05-1.3.15-3.55.55-8.45 2.35-12.5 4.35-19.6 9.5-7.2 5.05-8.8 6.65m-4.9 3.75q-.3-.5-.55-1-.2-.5-.35-.9.5 1.15.9 1.9Z"></path></g><g id="style_03_color_b_svg__l"><path fill="#369CEB" d="m715.9 398.95.65 39.75-61.7 30.3.05.7q8.95 99.8 22.25 195l-.45 20.8 3.55.1.4-20.95.05-.2-.05-.2q-12.95-92.65-22.1-193.15l61.55-30.25-.7-41.15-3.5-.75Z"></path><path d="m716.55 438.7-.65-39.75-.05-2h-1.2l-.25.4.7 40.45-61.8 30.35.15 1.7q8.95 99.9 22.25 195l-1.1 50.55.3.45.55.4.6-.4.65-30.35.45-20.8q-13.3-95.2-22.25-195l-.05-.7 61.7-30.3Z"></path></g><g id="style_03_color_b_svg__m"><path fill="#202020" d="M-6.6-3.5q-.65.75-.65 1.8T-6.6.1q.65.75 1.6.75.95 0 1.6-.75.65-.75.65-1.8t-.65-1.8q-.65-.75-1.6-.75-.95 0-1.6.75Z"></path><path fill="#EFD16A" d="M2.5-1.45Q1.75-2.3.7-2.3t-1.75.85Q-1.8-.65-1.8.5t.75 2q.7.8 1.75.8t1.8-.8q.7-.85.7-2t-.7-1.95Z"></path></g></defs><g><use xlink:href="#style_03_color_b_svg__a"></use><use xlink:href="#style_03_color_b_svg__b"></use><use xlink:href="#style_03_color_b_svg__c"></use><use xlink:href="#style_03_color_b_svg__d"></use><use xlink:href="#style_03_color_b_svg__e"></use><use xlink:href="#style_03_color_b_svg__f"></use></g><use xlink:href="#style_03_color_b_svg__g" transform="matrix(1.5832 0 0 1.71228 802.2 485.55)"></use><g transform="matrix(1.7019 -.1876 .1876 1.7019 767.9 491.1)"><use xlink:href="#style_03_color_b_svg__h"></use><use xlink:href="#style_03_color_b_svg__i"></use></g><g><use xlink:href="#style_03_color_b_svg__j"></use><use xlink:href="#style_03_color_b_svg__k"></use></g><use xlink:href="#style_03_color_b_svg__l"></use><g transform="matrix(1.47311 -.07733 0 1.65515 704.947 409.938)"><use xlink:href="#style_03_color_b_svg__m"></use><use xlink:href="#style_03_color_b_svg__n" transform="matrix(1.12042 .05234 0 1 .95 .4)"></use></g></svg>