<svg xmlns="http://www.w3.org/2000/svg" xmlns:xlink="http://www.w3.org/1999/xlink" preserveAspectRatio="none" viewBox="0 0 1500 1500" fill="#fee8d3"><defs><path d="M697.1 392.8q4.3 1.7 10.65 3.9 6.3 2.2 6.9 1.75.6-.45 5.65-3.2 5.05-2.8 6.75-4.15-.05.05.25-7.7.117-2.841.4-10.35.2-35.3.45-42.95.7-18.55-17.5-25.15-35.75-13.6-31.95 4.9 3.3 16.45 3.3 63.2.007 2.147-.05 4.3-.25 8.95-.4 9.75 11.2 4 15.55 5.7Zm221.7 412.3q-3.25-6.85-4.5-9.7-2.25-4.95-5.3-11.5-1.75-3.8-14.85-29.65-13.1-25.95-42.8-80.05-5.35-10.5-9.4-22.1-.3-.6-.55-1.35l-1.65-7.15q-1.05-3.35-1.75-5.65-.5-1.6-.85-2.7-.75-2.35-.8-2.5 6.15-4.65 14.35-8.85 8.1-4.3 20.25-7.7.95 3.15 2 6.35.55 1.75 1.15 3.6l.4 1.2q1.9 5.55 3.45 9.7l.1.2q1.7 3.5 3.95 8.9 6.9 15.75 17.8 48.15 5.65 15.1 12.5 31.7 11.45 27.35 18.2 43.35 1.4 3.15 2.65 6 2.35 5.45 4.3 10 1.55 3.5 5.9 13.75 7.85 4.1 24.55 20.45 16.75 16.3 18.45 21.8 1.65 5.5 2.4 12.65.75 7.1 1.55 11.3.8 4.05-3.4 6.2-.05 4.35-3 4.55-2.85.25-4-3.2.15 4.95-2 5.6-2 .65-4.1-1.05-2.1-1.75-4.15-10.3.15 2.3-.1 4.9-.15 2.45-1.15 4.05-.95 1.55-2.85 1.2-1.85-.3-3.05-2.3-1.2-2.05-2.35-7.25-1.1-5.25-1.9-10.4-.9-5.05-2.3-6.85-1.35-1.8-4.6-4.15-3.25-2.3-5.6-3.8-3.75-2.3-11.75-6.1-.85 3.8 1.65 7.7 2.6 3.85 3.6 6.4 1.05 2.55 1.55 5.55.5 2.8-.35 6.65-.7 3.65-2.85 3.85-2.05.15-3.15-1.55-1.15-1.75-3.1-7.05-2.05-5.2-6.45-11.7-6.25-8.65-7.55-12.7-1.2-4.1-1-7.45.2-3.4.65-8.45.55-4.45 1.8-12.55l.3-1.9M503.7 596.9q-.75 1.1-7.2 12.65-6.5 11.55-7.75 13.55-1.15 2.1-2.55 5.25-.5 1.2-.85 2.4-7.15 8.2-6.8 20.85l3.35 88.2q2.05 39.65 2.8 55.4.2 3.9.3 6.3l-14.25 27.75q-2.15 5.2-3.95 8.95-1.85 3.7-4.2 10.05-2.35 6 3.7 15.65l2.35-12.6m22.75 3-.65 4.5q-.2 1.4-.55 5.9-.2 3.5-.15 7.2.05 3.45.4 6.8.35 3.15 1.2 5.4 1 2.05 1.2 2.6 1.55 3.65 3.95 8.75 2.35 5.05 3.6 5.45 1.2.4 3.25-1.15 2-1.6 1.6-5.2-.3-3.65-1.65-7.1-1.3-3.35-2.25-5.95-.8-2.05-.9-3.5.1-1.45.25-3.35.25-1.95 1.1-5.65.4-.9 1.15-3.45.7-2.6 1.25-4.9.6-2.35 2-5.3 1.35-3.05 3.3-2.9 1.8.15 3.9 2.15 2.05 1.9 2.9 3.05.75 1.15 1.6 5.65.85 4.4 3.65 6.95 2.75 2.4 4.6 3.5 1.75 1.05 4.2 1.25 2.3.2 3.7-1.2 1.25-1.55-.85-4.4-2.05-2.95-3.4-6.45-1.3-3.35-1.35-4.95-.25-1.5-.6-4.65-.2-1.35-.4-3.95-.25-2.55-.3-6.9-.15-4.35-2.1-7.95-2-3.65-4.6-7.95-2.6-4.3-5-7.05-2.45-2.75-2.8-3.9-.4-1.15-1.5-1.95.15-2.75.3-6.5.5-11.55 1.2-32.3 1.5-41.85 3.9-83.65 1.25-21.4 1.95-36.05 2.05-1.95 3.6-4.55 1.45-3.05 2.8-5.9 6.9-14.4 10.8-21.7 2.25-4.1 3.45-5.85.35-.55.55-.8-5.85-4.35-14.1-9.8-2.35-1.5-5.05-3-6.85-3.65-16.3-7.05m-26.05 257.2q-2 6.25-2.7 9.05-.3 1.15-.5 1.95-.45 3.55-.65 6.55-.1 1.15-.05 2.35.2 1.7.5 3.8.15.4.2.75.5 3.1.55 6.25.1 3.5 1.15 7.5.95 3.95 1.95 4.7 1 .65 2.1.7 1 0 2.65-1.4 1.55-1.6 1.85-4.45.3-2.9.4-3.35-.05-.5-.05-2.35-.1-2.05-.2-3.15l-.65-7.9q-.1-1.1-.05-2.5-.1-1.45 1.55-4.35 1.6-2.95 4.5-9.1m-24.45 5.1-.75 4.75q.85 6.15 9.45 9.55m482.55-51.75q8.15 6.9 12.15 11.45 4 4.5 4.95 7.35.95 2.75 2.05 9.75 1.15 6.95 2.55 14.6.3 1.6.65 3.25m-13.25-47.35q5.5 5.5 9.1 10 3.6 4.6 5.5 7.75 1.95 3.1 4.2 19.7l1.45 8.55m-37.7-40.8q8.25 5.55 11.95 9 3.7 3.3 4.5 5.35.95 2.05 1.65 6.25.85 4.05 1.4 8.65.55 4.6.95 7.15" id="style_03_outline_svg__a" fill="none" stroke="#000" stroke-width="2" stroke-linejoin="round" stroke-linecap="round"></path></defs><use xlink:href="#style_03_outline_svg__a"></use></svg>