<svg xmlns="http://www.w3.org/2000/svg" xmlns:xlink="http://www.w3.org/1999/xlink" preserveAspectRatio="none" viewBox="0 0 1500 1500" fill="#fee8d3"><defs><path fill="#79553C" d="M792 280.75q.215-1.161.45-1.55.277-.447.4-.9-.341.688-.9 1.65-.038.114-.1.2.063-.075.15.6Z" id="a_head_19_outline_svg__b"></path><path id="a_head_19_outline_svg__a" stroke="#000" stroke-width="3" stroke-linejoin="round" stroke-linecap="round" fill="none" d="M784.75 268.45q5.2 8.05 5.475 8.85.275.8 2.675 5.7t4.2 13.85q.55 3.9 1 7.7.2 1.25.3 2.55l.1 1.2q1 16.3-8.2 34-.65 1-1.2 2.15-.5.85-1.675 2.525-1.177 1.677-7.75 11.975-6.572 10.298-8.875 23.65-2.908 16.812-8.975 20.675-6.065 3.856-13.45 2.975-7.383-.877-13.45-2.175-6.072-1.292-11.7-2.75-5.626-1.47-11.4-3.425-5.775-1.95-16.625-7.15t-25.8-15.85q-7.8-5.7-12.35-10.35-4.55-4.75-7-9.65-.55-1.15-1-2.15-3.1-6.65-5.7-13.45-2.698-6.897-4.425-11.175-.66-1.632-1.425-2.975"></path><path id="a_head_19_outline_svg__c" stroke="#000" stroke-width="3" stroke-linejoin="round" stroke-linecap="round" fill="none" d="M784.45 267.1q1.658-7.869 2.975-10.9 1.322-3.021 2.775-5.825 1.452-2.803 4.525-11.05 3.068-8.258 2.675-14.45-.397-6.18-2.175-15.725-1.775-9.55-3.675-14.55-.95-5.5-2.85-10.75-3.1-8.5-8.6-16.45-9.8-14-24.55-22.7-13.9-8.3-31.05-11.25-14.6-2.6-29.95-1.25-.2 0-.45.1-1.15.1-2.3.15-22.25 2.5-40.6 12.7-19.7 10.95-30.15 28.35-2.9 4.9-5.05 10.35-3.4 8.25-5 17.7-2.4 14.35-.85 30.25 1.15 13.2 5.3 29.75.45 1.8 1.15 4.3"></path><path id="a_head_19_outline_svg__d" stroke="#000" stroke-width="3" stroke-linejoin="round" stroke-linecap="round" fill="none" d="M644.8 290.95q-2-2.8-4.9-6.8-4.65-6.5-7.7-9.6-4.85-4.75-10.8-6.6-.553-.194-8.6-2.325-8.04-2.146-13.125-8.125-5.09-5.972-4.425 4.425.665 10.403 2.35 22.9 1.695 12.48 7.55 22.175 5.75 9.7 15.5 14.45 9.7 4.65 21 3.05 1.05-.2 2.15-.55"></path><path id="a_head_19_outline_svg__e" stroke="#000" stroke-width="2" stroke-linejoin="round" stroke-linecap="round" fill="none" d="M615.75 279.7q6.95 2.6 12.8 7.25 2.6 2.05 4.75 4.4.35.55.95 1-2.35 2.9-2.7 5.5-.95 4.4 2.4 8.5.95 1 2.25 2.05"></path></defs><use xlink:href="#a_head_19_outline_svg__a"></use><g><use xlink:href="#a_head_19_outline_svg__b"></use><use xlink:href="#a_head_19_outline_svg__c"></use></g><g><use xlink:href="#a_head_19_outline_svg__d"></use><use xlink:href="#a_head_19_outline_svg__e"></use></g></svg>