<svg xmlns="http://www.w3.org/2000/svg" xmlns:xlink="http://www.w3.org/1999/xlink" preserveAspectRatio="none" viewBox="0 0 1500 1500" fill="#fee8d3"><defs><path fill="none" d="M602.6 278.8q.6.1 1.25.2 9.35 1.9 16.15 6.75 2.55 2.05 3.5 3.6-.6 4.9-.4 6.5.25 4.4 2.7 8.25.247.356.5.7 5.406 4.83 4.85 4.475-.581-.369-1.125-.775-2.095-1.56-3.725-3.7" id="a_head_20_outline_svg__a" stroke="#000" stroke-width="1.5" stroke-linejoin="miter" stroke-linecap="round" stroke-miterlimit="3"></path><path id="a_head_20_outline_svg__b" stroke="#000" stroke-width="3" stroke-linejoin="round" stroke-linecap="round" fill="none" d="M616.85 265.425q-8.891-29.45-9.6-33.425-1.7-9.55-2.25-18.15-1.75-24.05 10.15-45 1.39-2.461 2.9-4.8 12.393-19.04 33.5-29.95 9.3-4.95 18.05-8.1 9.5-2.3 19.3-3.5 19.2-2.8 38.2-.5 21.4 2.9 39.4 14.75 14.5 9.7 19.5 25.3.28.978.55 2 .306 1.171.6 2.4 1.05 4.55 1.65 9.25 1.45 14.15 2.15 35.95v1.7q.895 27.31.55 54.2"></path><path id="a_head_20_outline_svg__c" stroke="#000" stroke-width="3" stroke-linejoin="miter" stroke-linecap="round" fill="none" d="M791.5 267.55q4.248 4.395 7.725 10.1 3.473 5.702 3.15 15.725-.316 10.025-.975 15.925-.664 5.901-1.6 13.75-.938 7.843-9.325 35.65-8.388 27.809-23.6 29.475-15.217 1.665-33.675 2.975-18.453 1.312-43.55-3.55-15.083-3.04-27.675-8.85-10.441-4.812-16.225-15.2-.249-.47-.5-.95-.896-1.725-1.675-3.6-5.779-13.946-7.325-21.15-1.15-5.15-2.2-9.9-.135-.541-2.1-8.7-1.813 5.349-9.45 4.5-8.55-2.45-11.95-4.2-5.7-2.95-9.55-6.8-3.45-3.55-5.45-7.4-4.65-8.6-4.65-16.3-.15-8.15 3.8-14.45 4.2-6.65 12.1-8.95 3.45-.85 6.65-.8.45.1.8.1.8.1 1.4.25.61.092 1.2.225 1.99.497 3.8 1.575.25.2.7.45.2.1.35.25 1.75 1.3 2.8 2.3 1.7 1.65 3.15 4.1" stroke-miterlimit="3"></path></defs><g><use xlink:href="#a_head_20_outline_svg__a"></use><use xlink:href="#a_head_20_outline_svg__b"></use><use xlink:href="#a_head_20_outline_svg__c"></use></g></svg>