<svg xmlns="http://www.w3.org/2000/svg" xmlns:xlink="http://www.w3.org/1999/xlink" preserveAspectRatio="none" viewBox="0 0 1500 1500" fill="#fee8d3"><defs><path d="M727.1 122q-19-2.3-38.2.5-9.8 1.2-19.3 3.5-8.75 3.15-18.05 8.1-21.107 10.91-33.5 29.95-1.51 2.339-2.9 4.8-11.9 20.95-10.15 45 .55 8.6 2.25 18.15.709 3.975 9.6 33.4 1.99.522 3.8 1.6.25.2.7.45.2.1.35.25 1.75 1.3 2.8 2.3 1.7 1.65 3.15 4.1 8.25 12.55 10.35 26.55-2.1-14-10.35-26.55-1.45-2.45-3.15-4.1-1.05-1-2.8-2.3-.15-.15-.35-.25-.45-.25-.7-.45-1.81-1.078-3.8-1.6-.59-.108-1.2-.2-.6-.15-1.4-.25-.35 0-.8-.1-3.2-.05-6.65.8-7.9 2.3-12.1 8.95-3.95 6.3-3.8 14.45 0 7.7 4.65 16.3 2 3.85 5.45 7.4 3.85 3.85 9.55 6.8 3.4 1.75 7 2.85 4.85 1.75 10.2 1.95 2.387.249 5.65-.1.515 3.159.65 3.7 1.05 4.75 2.2 9.9 1.54 7.153 5.35 21.2.445.55.85 1.45.25.55.7 1.7 1.1 2.35 3.35 4.65 1.45 1.5 4.35 3.75.481.381.85.75.227.091.45.25.4.3 1.1 1.1 1.8 2.05 4.85 3.75 1.9 1 5.7 2.55 9.5 3.8 13.8 5.35 7.7 2.8 14.05 4.35 11.25 2.75 25.1 3.45 10.4.45 25.45-.2 9.45-.4 15.1-1.1 8.3-1 14.75-3.1 1.53-.495 2.65-.75.96-.892 1.95-2.1 3.2-4 4.2-4.85.45-.35 1.4-1.1.75-.65 1.2-1.2.8-1 1.45-3.15.75-2.35 1.25-3.25 1.6-2.1 2.1-3.3.05-.15.35-1.25.06-.18.1-.35-.022-.505.1-1.1.1-.8 1.1-2.75 2.9-5.8 5.7-16.2 2.19-8.215 3.55-12.75-.055-.108-.1-.25-.3-.75-.2-1.75.45-5.45 2.3-10.4.9-2.45 1-3.35.05-1.1.05-1.7.05-1 .3-1.65.107-.302.25-.55.088-.874.15-1.75.45-8.45.15-18.35-.45-11.15-6.95-22.6-1.05-1.75-2.2-3.6-.95.426-1.95.85-.105-27.89-1-55.2v-1.7q-.7-21.8-2.15-35.95-.6-4.7-1.65-9.25-.294-1.229-.6-2.4-.27-1.022-.55-2-5-15.6-19.5-25.3-18-11.85-39.4-14.75M602.6 278.8q.6.1 1.25.2 9.35 1.9 16.15 6.75 2.55 2.05 3.5 3.6-.6 4.9-.4 6.5.25 4.4 2.7 8.25 1.796 2.591 4.2 4.4.569.406 1.15.75.556.38 1.15.7-.594-.32-1.15-.7-.581-.344-1.15-.75-2.404-1.809-4.2-4.4-2.45-3.85-2.7-8.25-.2-1.6.4-6.5-.95-1.55-3.5-3.6-6.8-4.85-16.15-6.75-.65-.1-1.25-.2Z" id="a_head_20_fill_svg__a"></path><path id="a_head_20_fill_svg__b" d="M616.85 265.425q-8.891-29.45-9.6-33.425-1.7-9.55-2.25-18.15-1.75-24.05 10.15-45 1.39-2.461 2.9-4.8 12.393-19.04 33.5-29.95 9.3-4.95 18.05-8.1 9.5-2.3 19.3-3.5 19.2-2.8 38.2-.5 21.4 2.9 39.4 14.75 14.5 9.7 19.5 25.3.28.978.55 2 .306 1.171.6 2.4 1.05 4.55 1.65 9.25 1.45 14.15 2.15 35.95v1.7q.895 27.31 1.025 55.2" stroke="#000" stroke-opacity="0" stroke-width="3" stroke-linejoin="round" stroke-linecap="round" fill="none"></path><path id="a_head_20_fill_svg__c" d="M793.9 267.7q1.15 1.85 2.2 3.6 6.5 11.45 6.95 22.6.3 9.9-.15 18.35l-.125 1.75m-169.35 10.25q-3.288.349-5.675.1-5.35-.2-10.2-1.95-3.6-1.1-7-2.85-5.7-2.95-9.55-6.8-3.45-3.55-5.45-7.4-4.65-8.6-4.65-16.3-.15-8.15 3.8-14.45 4.2-6.65 12.1-8.95 3.45-.85 6.65-.8.45.1.8.1.8.1 1.4.25.61.092 1.2.225 1.99.497 3.8 1.575.25.2.7.45.2.1.35.25 1.75 1.3 2.8 2.3 1.7 1.65 3.15 4.1 8.25 12.55 10.35 26.55" stroke="#000" stroke-opacity="0" stroke-width="3" stroke-linejoin="miter" stroke-linecap="round" stroke-miterlimit="3" fill="none"></path><path id="a_head_20_fill_svg__d" stroke="#000" stroke-opacity="0" stroke-width="1.5" stroke-linejoin="miter" stroke-linecap="round" stroke-miterlimit="3" fill="none" d="M602.6 278.8q.6.1 1.25.2 9.35 1.9 16.15 6.75 2.55 2.05 3.5 3.6-.6 4.9-.4 6.5.25 4.4 2.7 8.25 1.796 2.591 4.225 4.4.544.406 1.125.775.556.355 1.15.675"></path></defs><g><use xlink:href="#a_head_20_fill_svg__a"></use><use xlink:href="#a_head_20_fill_svg__b"></use><use xlink:href="#a_head_20_fill_svg__c"></use><use xlink:href="#a_head_20_fill_svg__d"></use></g></svg>