<svg xmlns="http://www.w3.org/2000/svg" xmlns:xlink="http://www.w3.org/1999/xlink" preserveAspectRatio="none" viewBox="0 0 1500 1500" fill="#fee8d3"><defs><path d="M796.85 246.7q0-4.2.2-9.25-6.1-101.95-101.05-94.8-89.121 7.458-71.55 126.55 3.117 2.906 5.6 7.95 3.85 7.85 6.05 13.55 1 2.55 2 4.35-1-1.8-2-4.35-2.2-5.7-6.05-13.55-2.483-5.044-5.6-7.95-2.782-2.615-6.1-3.45-.6-.25-1.35-.35-3.3-.55-6.2-.3h-.1q-1.8.1-3.45.55-2.3.5-4.3 1.65-.1 0-.1.1-.355.175-.7.35-.1.083-.2.15-2.7 1.85-4.4 4.75-1.7 2.95-1.95 6.2-.1 1.3-.2 4-.2 2.3-1.1 3.65 1 10.4 7.65 19.15 6.6 8.7 16.35 12.5 7.2 2.75 11.2-.15.65-.45 2-1.55 1.15-.75 2.15-.55 2 .45 2.2 4.2.028.747-.05 1.35 2.919 9.045 5.9 16.25.65 1.7 1.45 3.45 1.75 4 3.6 7.4.25.45.55.9.35.75.8 1.55 1.3 2.3 2.85 4.3.679 1.031 1.45 2.05.563.315 1.2.8 3.48 2.732 5.65 6.4l22.2 15.75q1.196.148 2.8.95 5.45 2.55 8.1 4.4.867.567 1.95 1.4.228.1.45.2 4.35 2 9.2 3.75 1.2.35 2.65.9l6.2 2q2.1.75 4.3 1.3 1.8.45 3.55.8 4.95.9 9.85.8 3.3-.05 6.3-.6 9.25-1.2 16.8-6.5 1.582-1.031 3.1-2.1-.068-1.025.2-2.25.8-3.75 4.4-10.4 3.8-7.2 5.95-10.6 1.85-2.95 8.6-12.2 5.8-8.05 8.85-14 4.7-9.1 7.65-21.5.012-.051 0-.1l-.4-27.7q.344-3.078.85-7.2-.71-.623-1.1-1.6-1.25-2.9-1.05-7.9.464-11.896 6-22.25.186-2.032.2-3.2m-193.8 31.5q13.6 1.55 20.55 10.3-2.05 12.85 7.55 18.95-9.6-6.1-7.55-18.95-6.95-8.75-20.55-10.3Z" id="a_head_21_fill_svg__a"></path><path id="a_head_21_fill_svg__b" d="M602.15 267.775q.345-.2.7-.375 0-.1.1-.1 2-1.15 4.3-1.65 1.65-.45 3.45-.55h.1q2.9-.25 6.2.3.75.1 1.35.35 3.318.835 6.125 3.475Q606.879 150.108 696 142.65q94.95-7.15 101.05 94.8-.2 5.05-.2 9.25-.014 1.168-.175 3.225m-3.875 31.75q-.506 4.097-.85 7.175l.425 27.7m-35.65 71.05q-1.543 1.069-3.125 2.1-7.55 5.3-16.8 6.5-3 .55-6.3.6-4.9.1-9.85-.8-1.75-.35-3.55-.8-2.2-.55-4.3-1.3l-6.2-2q-1.45-.55-2.65-.9-4.85-1.75-9.2-3.75-.222-.1-.45-.2m-69.825-117.825q3.092 2.881 5.575 7.925 3.85 7.85 6.05 13.55 1 2.55 2 4.35" stroke="#000" stroke-opacity="0" stroke-width="3" stroke-linejoin="round" stroke-linecap="round" fill="none"></path><path id="a_head_21_fill_svg__c" d="M652.4 357.375q-.771-1.044-1.45-2.075-1.55-2-2.85-4.3-.45-.8-.8-1.55-.3-.45-.55-.9-1.85-3.4-3.6-7.4-.8-1.75-1.45-3.45-2.981-7.205-5.875-16.225M603.05 278.2q13.6 1.55 20.55 10.3-2.05 12.85 7.55 18.95" stroke="#000" stroke-opacity="0" stroke-width="1.5" stroke-linejoin="round" stroke-linecap="round" fill="none"></path></defs><g><use xlink:href="#a_head_21_fill_svg__a"></use><use xlink:href="#a_head_21_fill_svg__b"></use><use xlink:href="#a_head_21_fill_svg__c"></use></g></svg>