<svg xmlns="http://www.w3.org/2000/svg" xmlns:xlink="http://www.w3.org/1999/xlink" preserveAspectRatio="none" viewBox="0 0 1500 1500" fill="#fee8d3"><defs><path d="M694.85 137.65q-20.6 3.1-38.45 13.25-18.4 10.25-26.95 27.5-8.55 17.3-8.5 37.6 0 20.35 4.15 40.3 1.437 6.974 3.05 14.2-4.347.166-8.45 2.4-5.2 2.75-7.8 7.2-2.6 4.45-3 8.9-.45 4.4 1.85 11.6 2.15 7.2 6.7 12.65 4.55 5.4 10.35 8.25 2.65 1.25 5.2 2.1 4.397 1.493 9.2 1.65 2.844 8.64 7.15 20.75l3.65 6.2 3.75 4.35q3.836 4.105 6.45 4.95 2.609.908 4.8 4.1 2.247 3.187 3.9 3.05 1.7-.144 5.35 4.3 3.696 4.44 8.95 5.9 5.259 1.462 12.45 5.05 7.189 3.64 16.95 7.45 9.804 3.853 18.85 3.85 8.95 0 14.7-.1 5.7-.15 14.75-1.25 3.6-.4 11.85-1.5 8.15-1.2 11.05-6.05 2.85-4.95 8-31.45 4.95-26.55 7.3-43.6 2.35-17.1.3-25.5-1-4-3-8.3-1.6-3.35-3.8-6.95 6.25-61.95-3.6-92.1-5.35-15.25-18.1-25.4-16.55-13-38.05-15.7-20.35-2.8-41 .35Z" id="head_03_fill_svg__a"></path></defs><use xlink:href="#head_03_fill_svg__a"></use></svg>