<svg xmlns="http://www.w3.org/2000/svg" xmlns:xlink="http://www.w3.org/1999/xlink" preserveAspectRatio="none" viewBox="0 0 1500 1500" fill="#fee8d3"><defs><path d="M717.9 145.85q-29.95-.85-49.9 5.5-14.75 5.05-24.75 16.95-7.6 9.3-10.7 20.7-1.9 6.65-3 13.7-.3 1.75-.5 3.55-1.95 16.7-2.15 25.9-.25 9.1-.2 17.8 0 8.65.8 22.8.337 5.637 1 11.35-6.54-4.211-14.45-3.75-13.75.8-15.55 17-1.6 22.8 18.2 32.75 9.75 4.25 21.25 3.75 1.25-.1 2.65-.2.053-.01.1-.05 4.245 10.456 8.2 16.75 4.75 7.45 7.9 11.8 6 8.2 12.75 14.05.35.2.65.55l.1.1h.1q.144.002 1.85 1.2 1.77 1.195 1.9 1.5.17.356 2.1 2.3 1.931 1.997 11.05 7.15 4.543 3.328 5.8 2.9 1.304-.437 3.85 1.7l2.95 1.1q.85.45 2.1 1.05 1.1.45 2.3 1 1.25.55 1.9.8 20.35 7.3 35.3 7.3 5.8-.05 13.8-5.5 3.7-2.85 10.35-8.05 25.95-20.5 31.1-52.25 2.1-14.55.1-44.05-.3-8.1.25-13.8.029-.2.05-.4l.05-.15h-.05q.057-.235.1-.5.042-.292.05-.6.608-3.94 1.5-9.75 2.35-15.35 1.75-46.35-.05-2.15-.2-5.7-.1-3.6-.5-11.6-.35-8-1.3-20-1-11.95-11.8-21.2-19.1-14.85-68.85-19.1Z" id="head_02_fill_svg__a"></path></defs><use xlink:href="#head_02_fill_svg__a"></use></svg>