<svg xmlns="http://www.w3.org/2000/svg" xmlns:xlink="http://www.w3.org/1999/xlink" preserveAspectRatio="none" viewBox="0 0 1500 1500" fill="#2f1b12"><defs><path d="M728.05 239.65q-6.9.05-22.1-2.45-17.1-2.8-22.35-3.15-11.85 4.6-20.35 13.6 15.15-4.4 32.25-1.1 26.45 5.05 39.7 5.4-2.7-8.45-7.15-12.3m61.75 6.75q7.85-2.05 14.75-1.05.35-3.7.65-7.15-2.8-2.5-5.95-4.3-3.7.35-16 3.15-10.9 2.5-15.75 2.45-3.55 3.85-6.15 12.3 9.35-.35 28.45-5.4m-126.25-57.2q.8-4 1.7-8.4.25-1.5 1.45-2.7 1.15-1.05 2.5-1.35 4.3-1 32.65 5.45 10.2 2.3 18.55 3.75 16.9 2.95 26.75 2.5 1.05 0 2.15-.05 11.5-.65 19.45-3.2.35-.15.7-.25 5.95-1.95 11.6-5.65 18.2 21 22.25 42.25.35 1.9.6 3.8 4.721-19.962 2.6-29.4-2.121-9.438-6-18.55 7.781-18.266-3.15-28.75-10.893-10.445-37.45-19.95-26.553-9.5-52.25-10.15-25.69-.643-55.3 15.7-29.565 16.338-33 25.6-3.391 9.301-3.45 12.9-20.473 19.499-16.25 47.5 1.319 3.88.55 14.1-.719 10.27 5.45 40.55 6.4-3.65 10.75-2.75 6.55 1.35 11.4 6.45 4.5 9.1 6.15 19.35.1.5.2.9l12.35 5.75q-5.8-29.75-6.2-66.4 12.85-15 17.05-25.35 2.15-5.4 6.2-23.65Z" id="a_hair_30_fill_svg__a"></path></defs><use xlink:href="#a_hair_30_fill_svg__a"></use></svg>