<svg xmlns="http://www.w3.org/2000/svg" xmlns:xlink="http://www.w3.org/1999/xlink" preserveAspectRatio="none" viewBox="0 0 1500 1500" fill="#fee8d3"><defs><path fill="none" d="M630.6 297.15q9.8 4.1 16.2 10.15-.7.75-1.8 2.2-1.4 1.85-1.8 3.35-.2.85-.2 2.9.45 3.9.85 4.9.75 2.95 4.35 5.85" id="head_04_outline_svg__a" stroke="#000" stroke-width="1.5" stroke-linejoin="round" stroke-linecap="round"></path><path id="head_04_outline_svg__b" stroke="#000" stroke-width="3" stroke-linejoin="round" stroke-linecap="round" fill="none" d="M624.55 282.8q-1.25-5.7-2.75-12.85-4.55-21-5.65-35.25-1.5-18.4 1.95-34.35.05-.3.15-.55.1-.5.15-.95 2.55-11 7.3-19.9 3.4-6.35 7.85-11.75 7.05-8.35 16.95-14.4 4.5-2.8 9.7-5.15 12.1-5.25 26.7-7.55.75-.15 1.6-.25l3.2-.4q.5-.1 1-.15 17.3-2.3 32.05-.85.6 0 1.2.05 25.4 2.7 43.05 15.55 13.75 10.05 22.75 26.25 1.55 2.85 3 6 8.8 18.35 10.85 40.5 1.15 11.35.65 25.1-.25 7.65-1 16.05-.85 8.7-2.45 23 .1 12.8-.5 23.05-.5 7.9-1.4 15.2-3.45 29.8-19.5 55-.9 1.5-2 3-6.7 9.5-14.1 13.95-6.05 3.65-13.6 5-2.95.5-6.15.7-10.05.3-20.7-2.95-8.05-2.45-19.3-7.9-.35-.15-.7-.35-3.748-1.794-20.125-8.95-16.382-7.168-21.325-13.95-1.4-1.9-2.75-3.95-1.35-2.1-2.6-4.25-6.25-10.75-9.4-22.6-6.9.45-13.2-2.25-12.15-4.95-18.9-19.3-2.85-6.3-3.5-12.6-.65-6.9 1.45-12.75 2.25-6.45 7.6-10.65 1.2-.95 2.45-1.6 2.95-1.75 6.1-2.25 1.8-.3 3.55-.2 6.95.35 12.6 5.95 4.75 4.8 6.8 11.45"></path></defs><g><use xlink:href="#head_04_outline_svg__a"></use><use xlink:href="#head_04_outline_svg__b"></use></g></svg>