<svg xmlns="http://www.w3.org/2000/svg" xmlns:xlink="http://www.w3.org/1999/xlink" preserveAspectRatio="none" viewBox="0 0 1500 1500" fill="#2f1b12"><defs><path id="hair_06_outline_svg__a" stroke="#000" stroke-width="2" stroke-linejoin="round" stroke-linecap="round" fill="none" d="M808.1 164q1.926 8.06 3.9 13.275t8.15 13.075q-7.84.931-28.15-1.175-20.3-2.118-41.85-6.325-1.2-.25-2.3-.5.85 1.8 1.6 3.7 1.75 4.35 2.1 8.75-35.65-9.15-72.9-15.85 1.9 7.1 5.7 13.95-18.95-7.8-34.7-19.8 2.85 10.7 3.45 23.55.45 9.15-.35 23.2-1.35 5.8-4.4 12.2-1.2 2.6-2.95 5.55-3.55 29.6-1.9 60.15-25.45-16.55-32.65-36.9-.6-1.9-1.3-3.85-7.7-22.8-10.3-33.8-4.5-18.95-3-35.4 1.45-16.8 9.1-29.25-6.8 0-13.1-2.8 6-1.6 14.05-3.6-2-11.95-5.3-23.05 3.8 2.45 5.6 4.25 2.3 2.25 4.45 5.7.4.8 1.4 2.45 4.8-8.75 12.35-16.2 13.75-13.6 31.6-18.35 12.3-3.2 29.2-2.5 2.4.05 29.4 2.5 17.7 1.8 29.9.6 10.8-1.15 19.55-4.5-1.05 1.8-2.4 3.7-1.85 2.45-4.2 5.05 11.303.934 24.425 5.1 13.118 4.166 20.925 18.05 6.014 8.232 8.675 15.525 2.66 7.29 6.725 13.975-9.305-.596-10.5-.45-2.91.38-6.35.45m-7.35 72.75q-3.9-.45-9 0-4.4.35-9.6 1.3-7.55 1.3-13.1 2-.85 0-1.7.15-.55 0-.95.1-.6-.2-1.05-.5-.8-.35-1.2-1.15 0-.25-.1-.5 0-.6.1-1.3v-.1q.05-2.6 1.35-4.5.6-1.05 1.85-1.9 1.45-1.3 3.8-2.35 3.55-1.45 8.4-2.4 1.45-.2 8.55-1.3 6.85-1.9 10.15.95 1.4 1.2 2.5 3.25v8.25Zm-92.4 1.6q10.75 1.3 18.55 1.8 1.3 0 2.5.1.7 0 1.3.1.9-.2 1.5-.55 1.1-.4 1.8-1.25 0-.35.1-.65v-1.1q-.1-.2-.1-.35-.15-2.75-2-4.85-.85-1.2-2.6-2.15-2.05-1.3-5.45-2.35-5-1.45-11.95-2.45-2-.25-12.1-1.2-9.7-1.9-14.4 1.3-2.95 2-4.9 6.05-1.15 2.25-2.25 6-.3.6-.45 1.2 10.8-2 30.45.35Z"></path></defs><use xlink:href="#hair_06_outline_svg__a"></use></svg>