<svg xmlns="http://www.w3.org/2000/svg" xmlns:xlink="http://www.w3.org/1999/xlink" preserveAspectRatio="none" viewBox="0 0 1500 1500" fill="#2f1b12"><defs><path d="M797.4 202.05q.3-.28.55-.5-.267.029-.55.05v.45m-164.75 38.1q-1.438 1.669-1.45 1.8.008.036 0 .05.037-.124 1.45-1.85m167.55 52.6q.836-.618.9-1.3.008-.08 0-.15-.397.818-.9 1.45m-4.8-7.35q-.58.302-1.15.55v.05l1.15-.55v-.05m5.15-82.15.15-1.95q-.412.037-.8.05.45.573.65 1.9m28-22.25q-1.9-16.85-16.6-27.05-3.08-1.912-5.8-3.7-12.644-8.286-17.5-13.8-.2-.3-.4-.45-5.8-6.8-15.5-16.8-10.75-8.25-26.65-12.45-15.75-4.3-40.05-5.3-16.05-.45-26 .55-14.2 1.35-25.15 5.75-4.8 1.9-13.9 6.8-9.15 4.95-13.9 6.85-9.15 3.2-13.6 4.9-7.9 3.05-12.4 6.75-5.75 4.85-8.85 12.7-2.7 6.55-2.95 14.2-.1.55-.1 1.15-.1 7 1.15 14.35l.35 1.35q0 2.15-.1 4.1-.35 3.8-1.3 6.75-.4 1.05-1 2.4-1.8 3.95-5.5 10.05-4.8 8-6.15 11.2-1.35 3.15-2 9.8-.7 6.55 2.8 13.25 3.4 6.65 3.4 9.1-.1 2.3.45 7.85.55 5.5 1.6 8.2 1.467 3.807 6.6 8.9 3.084 3.067 7.5 6.6 2.843 2.359 15 1.1 12.164-1.216 16.1 10.65 3.983 11.87 9.5 10.65 5.516-1.173 6.6-10 .863-7.072-6.9-19-1.905-2.951-4.35-6.2-4.846-6.92-2.25-18.4-.01-.309-.05-.35-.517-1.43.55-1.5-.073-4.992.1-6.85.17-1.811.95-2.9.79-1.034 2.7-4.55v-6.05q-2.993-17.267 25.55-15.55-5.28-51.245 56.35-30.65 12.337 4.57 21.3-2.8 8.961-7.32 17.25-.25 8.335 7.118 27.65 2.9 16.645 6.348 17.65 26.05l-.15 1.95q.774 4.526-1.1 17.9l-4.05 64.25v.05l.05 9.25q3.434-.892 4.75-1.95.503-.632.9-1.45.221-1.744 1.2-3.25-1.275-5.197-.05-5.8.65-.25 1.2-.55 1.5-1.05 2.85-2.3 7.25-6.55 9.15-15.6.7-3.8.7-10.35-.1-6 .35-10.55.45-4.65 2.1-8.9.25-.8 1.15-2.5.8-1.8 3.85-6 3.05-4.15 4.95-9.6 1.8-5.55 1.8-11.75t-1.8-23.15m-27.85 46.05v.05l.25-.55-.25.5Z" id="hair_29_fill_svg__b"></path><path id="hair_29_fill_svg__c" stroke="#000" stroke-opacity="0" stroke-width="2" stroke-linejoin="round" stroke-linecap="round" fill="none" d="M802.3 288.05q-1.275-5.197-.05-5.8.65-.25 1.2-.55 1.5-1.05 2.85-2.3 7.25-6.55 9.15-15.6.7-3.8.7-10.35-.1-6 .35-10.55.45-4.65 2.1-8.9.25-.8 1.15-2.5.8-1.8 3.85-6 3.05-4.15 4.95-9.6 1.8-5.55 1.8-11.75t-1.8-23.15q-1.9-16.85-16.6-27.05-3.08-1.912-5.8-3.7-12.644-8.286-17.5-13.8-.2-.3-.4-.45-5.8-6.8-15.5-16.8-10.75-8.25-26.65-12.45-15.75-4.3-40.05-5.3-16.05-.45-26 .55-14.2 1.35-25.15 5.75-4.8 1.9-13.9 6.8-9.15 4.95-13.9 6.85-9.15 3.2-13.6 4.9-7.9 3.05-12.4 6.75-5.75 4.85-8.85 12.7-2.7 6.55-2.95 14.2-.1.55-.1 1.15-.1 7 1.15 14.35l.35 1.35q0 2.15-.1 4.1-.35 3.8-1.3 6.75-.4 1.05-1 2.4-1.8 3.95-5.5 10.05-4.8 8-6.15 11.2-1.35 3.15-2 9.8-.7 6.55 2.8 13.25 3.4 6.65 3.4 9.1-.1 2.3.45 7.85.55 5.5 1.6 8.2 1.467 3.807 6.6 8.9 3.084 3.067 7.5 6.6 2.843 2.359 15 1.125 12.164-1.241 16.125 10.625 3.958 11.87 9.475 10.675 5.516-1.198 6.6-10.025.863-7.072-6.875-19-1.93-2.951-4.375-6.2-4.846-6.92-2.225-18.4m.475-1.85q-.073-4.992.1-6.825.17-1.836.95-2.9.79-1.06 2.7-4.575v-6.05q-2.993-17.267 25.55-15.55-5.28-51.245 56.35-30.65 12.337 4.57 21.3-2.775 8.961-7.345 17.275-.25 8.31 7.093 27.625 2.875 16.645 6.348 17.65 26.05l-.125 1.975m-1.125 17.9-4.025 64.25v.025m4.8 7.3q.478-.632.9-1.45.67-1.367 1.175-3.25m-2.075 4.7q-2.154 2.895-5.625 1.75l.825-9.05m-6.775-149q-1.45-9-6.4-17.25-7.05-12-18.8-18m37.125 102.075-1.125 17.9M590.6 180.9q-.35.3-.7.55-4.55 4.4-5.9 5.4-3.6 2.7-7.1 3.15m53.825 53.8q.22-.912.475-1.85"></path><g id="hair_29_fill_svg__a"><path d="M719.75 318.15q-7.602 1.285-10.75 3.2-3.147 1.963-4.05 2.2-.855.279-2.25.3-1.396.085-2.45 1.4-1.051 1.304-2.75 1.65-1.1.15-2 .5-1.046.45-3.1 2.55-2.063 2.1-2.65 4.4-.538 2.35 1.15 1.65 1.746-.7 2.25-.7.5 0 1-.35.365-.274 1.05-1 .322.09.65 0 .65-.15 1.85-.85.9-.4 2.55-.4l2.65.05q1.3.1 2.65-.75 3.067-.728 9.15 1.8 2.25 1.95 3.65 2.1 4.4.5 9.8-.55 3.4-.7 9.6-2.6 1.116-.446 1.35-1 .186-.009.35-.05.582-.14 1.25-.4.831-.93 2.5-.9l-.4-.1q.064-.03.1-.05.044-.035.05-.1l.3.25q.72.036.9 1.3.22 1.26 2.95 1.95 2.738.697 5.15.4l4.05-1.7q2.919.067 3.9-.55.982-.572 4.1-1.25 3.17-.626 9.8.3 5.904.872 3.9 1.35.236.239.4.75l.05.05q.281.832.65 1.3h2.35v.75q.165.01.3 0 .862-.047 1-.15.186-.105.55-1.7.413-1.555-1.05-3.15-1.464-1.542-2.2-2.85-.737-1.25-2.5-2.55-1.773-1.294-4.05-1.65-2.266-.309-4.95-1-2.697-.649-7.05-2.3-4.351-1.643-5.35-1.95-.948-.304-1.65-.6-.704-.302-.95-.1-.194.204-.45 0-.212-.15-.7-.8-.48-.6-1.15-.3-.675.348-1.1-.65-.418-.994-.85.25-.444 1.246-1.9 1.45-.182.036-2 .5-.602-.112-2.65.75-2.043.86-2.7.15-.607-.706-1.25-.8-.604-.043-1.25-.25-1.44-.446-2-.6-.178-.205-.3-.45l-.5.1v.15q-.423-.751-.55-1.15-.133-.395-3-.05 1.492-2.202-1.15-.35-2.646 1.91-10.3 3.15m56.3 14.4h.9q.069-.098.15-.2-.6.117-1.05.2Z"></path><path fill="#462B33" d="M697.1 223.7q-3.5-.3-6.1.35-3.05.7-6.65 3.35-.9.6-1.85 1.35-5.2 4.2-6.9 5.5 4.8-1.3 8.75-2 4.85-.9 8.4-.65 3.35.45 8.15 1.8 2.6.7 7.95 2.3 3.8.9 7.75 1.15.6.15 1.35.25.35 0 .65.05 2.3.1 4.45 0h.9q.4-.5.9-.8 1.35-1.2 2-2.8.6-1.45.95-3 .9-3.05-.35-4-11.85 0-24.2-1.95-4.4-.75-6.15-.9m88.25 8.45q.05-2.6.15-5.2-1.55-2.4-3.35-3.05-1.7-.6-4.4-.45-1.35.05-4.85.8-9.9 1.65-18.6 1.6-1.2.7-1.75 3.7-.4 1.4-.45 2.75-.25 1.65.15 2.75.15.3.35.85.3-.1.65 0h3.35q.25-.1.55-.1.5-.05.95-.05 3-.25 6.2-1.15 4.5-1.35 6.75-1.9 4.1-1.35 6.8-1.65 3.35-.3 7.5 1.1Z"></path></g></defs><use xlink:href="#hair_29_fill_svg__a"></use><g><use xlink:href="#hair_29_fill_svg__b"></use><use xlink:href="#hair_29_fill_svg__c"></use></g></svg>