<svg xmlns="http://www.w3.org/2000/svg" xmlns:xlink="http://www.w3.org/1999/xlink" preserveAspectRatio="none" viewBox="0 0 1500 1500" fill="#2f1b12"><defs><path d="M815.2 67.5q-2.7.3-5.2 1.55-1.45.75-1.95 1.65-.15.25-.2.5-.55-.3-1.05-.05-.1.15-.15.35-.6-.75-1.3-1.35.45-.7.45-1.65.1-.15.15-.3.2-.55-.2-1.35-.5-1.15-1.3-2.35-.1-.35-.3-.65-.2-.25-.4-.35-.25-.35-.55-.65-.8-.85-2.95-3.05v-.05q1.1-2.8 1.15-4.4 0-1.75-.9-2.45-.4-.35-1.6-.65-2.3-.5-3.45-.5-.1 0-1.45.15-1.45.2-2.4.4-.5-.2-.95-.25-2.5-1.15-4.85-1.1-.65 0-1.1.15-.65-1.45-1.65-2-.3-.15-.8-.25-.05-.8-.55-1.7-.4-.85-1.35-1.8-.2-2.45-1.8-5.7-2.5-4.95-5.35-6.15-1.3-.5-2.8-.4-1.45.1-2.65.8-1 .55-1.15 1.3-3.55-1.95-6.5-2.4-3.1-.5-5.5.6-1.25-1.1-3.6-2.15.15-.4.15-.85 0-1.05-.85-1.5-.65-.3-2.05 0 0-.9-.65-1.7-.4-.55-1.5-1.25-.4-.25-.75-.45.4-.45.35-1.25-.1-.75-.65-1.3-.9-.8-2.65-1.1-4.9-1-9.9-.3-3.25.6-5.15.75l-6.05-5.8q-1-1-1.65-.5-.55.4-.15 1.15.05.1.85.9.75.6 2 2.05 1.25 1.4 1.95 2 .1.1.3.25-1.75-.1-4.55-.4-4.1-.4-6.5.15-1.25.3-1.55 1.05-.05.25-.05.45-.75.05-1.45.15-4.6-2.85-8.15-4.05-7.1-2.4-12.8-.15-1.65.65-5.4 3-.55.35-1.05.65-.9-.65-2.8-.15-.5.1-.95.25.2-.45.15-.9-.15-1-1.25-1.45-.6-.2-1.95-.3l-5.55-.25q-2.15-.1-3.05.45-.85.5-1.65 1.75-.05.05-.05.1-1.15-.5-1.7-.5-.7.05-1.7.6-1.1.6-2.1 1.3-2.2-.2-4.35.4-1.7.45-4.3 1.75l-4.5 2.4q-.7.4-1.15.8-1-.9-2.25-1.25-1.7-.5-3.55-.15-.7.15-1.35.4-.8-.65-.95-1.45 3.45-.9 6.95-.85.6 0 .9-.1.5-.3.35-.75-4.85-.65-8.7-1l-1.15.55q-1.35.6-1.7 1.35-.4.85.2 1.8.05.15.2.3l-4.3.7q-2.7.4-3.5 1.6-.2.35-.3.75-4.4-1.45-8.7-1.9-3-.3-4.8.25-2.6.7-3.7 2.7h-.05q-2.95-.4-4.55.15-.85.25-1.95.95-1.65 1-1.85 1.1-.95.5-1.45.8-.8.45-1.2 1l-.1.2-.45-.65-5.9 1.3q-1.1.2-1.9.4-.85-.15-1.85-.2.05.2-.35.2-.9.05-1.9.85-2.65-.6-6.05-.65-5.65 0-8.85 1.55-2.75 1.6-4.25 2.05-1.2.3-2.9.3-1.95-.05-2.9-.05-3.55 0-6.9 1.15-2.6.85-3.55 2.45-.6.95-.3 2.15.1.35.25.6-.65-.05-1.35-.05l-6.15-.15q-2.3-.05-3.55.2-1.95.35-3.05 1.45 5.65 3.85 12.4 3.3 2.3-.2 3.35-.1 1.85.2 2.55 1.4.6 1 .35 2.95-.25 2.35-.1 3.15.35 1.75 2.2 2.75-1.5.4-2.35.75l-.5.25q.15-.6.25-1.15.3-1.45-.25-2.25-.45-.7-1.95-1.1-2.8-.8-4.2-.65-.75.1-1.8.45l-1.8.6q-2.3.65-6.25.3-4.9-.4-6.35-.3-1.7.1-2.7.7-.65.4-1 1.05t-.25 1.35l13.4-.75q-1.45 1.3-1.3 3.2 0 .95.65 1.55.2.15.45.3-4.35.7-7.2 1.45-3.3.85-6.05 2.1-.8-.4-1.75-.65-2.1-.55-5.4-.35-6.4.2-9.9 2.1-2.35 1.25-3.8 3.4-1.55 2.3-1.45 4.75 0 .4.1.8-1.45.75-2.15 1.55-.9 1.25-1.5 1.75-.1.1-1.75 1.25-1.05.75-1.3 1.55.55.45 1.5-.2.55-.4 1.75-1.65 1.1-1.1 1.85-1.55.1-.05 1.25-.65.55-.3.9-.55.4.65 1.1 1.05.95.45 2.8.25-1.75 1.15-4.65 2.8-3.85 2.2-5.35 3.15-3.25 2.15-6.1 4.85-1.8-.35-2.75-.1-1.35.3-2.75 1.7-1.55 1.65-2.4 2.4-.8.7-2.55 1.8-1.85 1.15-2.6 1.8-2 1.7-3 4.2-1.05 2.55-.8 5.15.3 2.7 1.95 3.55 1.15-.55 1.55-2.3.3-2.1.45-3.1.4-2.25 1.9-4.1 1.55-1.85 3.7-2.65l.3.3q-1.5 2.4-2.7 5-.8 1.8-2.25 5.45-.35.75-.65 1.45l-8.75 2.75q-2.1.6-3.4 1.35-2.35 1.4-4 4.55-1.1 1.9-1.1 3.45-.35.35-.7.8-1.4 1.85-1.5 4.2v1.35q-.05.75-.4 1.2-.3.5-1.5 1.15-2.2 1.3-3.1 2.95-.85 1.5-.75 3.3.05 1 .4 1.9-.45.35-.9.75-2.85 2.7-3.65 8.15-.05.2-.05.4-1.7.3-2.85 1.2-1.45 1.2-2.2 3.8-.9.35-1.7.95-2.45 1.9-3.25 5.25-.75 3.2.2 6.35l.1.3q-.6 1.75-.75 3.7-.15 2.55.6 4.85-1 .05-2.05.25-5.15.85-8.55 4.2-3.55 3.45-4 8.7-.1 1.5.05 2.9l-.05.05q-1.15 1.45-1.55 2.45-.55 1.5-.45 3.95.1 3 .6 5l-.1.1q-2.5 2.7-4.2 4.75-1.45 1.75-1.8 2.8-.5 1.25-.4 3.65 0 2.9 1 3.95 1 1.05 3.7 1.2v.25q-.05.55-.2 1.65-.1 1 .05 1.65.25 1.35 2.25 3.35 1.9 1.9 3.1 2.55.5.3 1.05.5-.1.75-.1 1.6-.05 4.1 1.85 6.95-.55 1.9-.8 4.2-.8.05-1.55.35-2.5.85-3.9 3.4-1.25 2.1-1.65 5.05-.4 3.2.45 5.05.65 1.55 2.15 2.5t3.15.95q1.05 0 1.9-.5.45-.25.75-.6.6.5 1.4.8.5.2 1.05.3 0 .3.05.6-.25-.25-.6-.3-1.1-.25-2 1.75-1.7 3.9-2.15 6-.35 1.75-.15 3.1-.1.75-.05 1.5.15 1.8 1.35 5.2.15.5.35 1-.4.75-.65 1.15-.65 1.25-.95 2.15-.5 1.7-.5 5.3.1 2.8.45 3.85.25.6.8 1.5-.2.9-.3 1.6-.25 2.3.35 4.1.35 1.05 1.7 3.05 1.5 2.15 3.1 3.85-.3 1.35.05 2.7.5 2.1 2.75 4.65 2.95 3.45 6.6 6.35 1.35 1.05 2.6 1.7.2.35.35.75 2.35 5.15 5.35 8.85-2.4-.4-5.4-1-.95-.25-1.2-.45-.45-.35-.75-1.5-.75-3.25-2.25-3.95l3.2-.4q.4-.1.65-.35.3-.25.1-.5-3.2-1.25-4.75-1.85-2.85-1.15-4.3-2.6-1.6-2.1-2.5-3.1-1.6-1.8-3.35-1.8-1.05-.05-1.85.7-.8.8-.65 1.75.1.85 1.4 1.95 2.95 2.6 6.75 4.6 2.15 1.05 2.45 1.25 1.35.75 2.2 1.6 1.35 1.35 1.85 3.3.5 1.9-.05 3.75l6.8-.15q-2.1 1.05-3.2 2.4-1.4 1.9-.95 3.8.5 2 2.7 2.95 1.55.65 4.1.75 1.9 0 2.6-.85.5-.55.5-1.9.05-2.2-.45-4.6 1.5 1.3 3.15 2.2-.5.3-.75.8-.75 1.45.4 2.95.8 1.05 2.6 1.6 1.5.5 2.85.15 1.65-.45 2.1-1.8 2.3 1.15 4.05 3.1 1 1.1 1.7 2.3-.05.55-.05 1 0 2.9.9 5.15-.95 1.4-3.15 1.5-.9.1-1.65-.25-.85-.35-1.1-1.1-.35-.9.55-2.25 1.25-1.75 1.4-2.25l-.7-.65q-4.1 2.9-3.7 5.55.25 2.15 3.05 3.6 1.55.8 2.65.7 1.2-.1 2.8-1.4.65-.6 1.2-1.15 1.7 2.35 4.95 3.6 2.9 1.1 6.4 1.05.9 0 2.6-.15 1.55-.05 2.6.05.7.1 1.8.3-.2 1.6.4 3.25.65 1.85 2.15 3.35t2.9 1.55l.1-.25q-.4-.75-1.25-1.65-.95-1-1.45-1.55-1.7-2-1.3-3.8.15-.3.25-.6 1.1.15 2 0 .15.1.3.25 1.4 1.35 2.3 2 1.1.8 3.2 2-.2.05-.35.2-.35.3-.55 1.3-.45 2.95.55 5.75.9 2.45 2.8 3.95 2.1 1.65 4.55 1.2-.2-1.05-1.3-2.05-1.4-1.1-2-1.7-1.3-1.2-1.9-2.9-.55-1.7-.3-3.45.15-.9.05-1.4.45.25 1.1.75-.2 1.9.15 3.05.35 1.05 2.1 3.5 1.8 2.85 2.2 3.3 1.65 1.8 3.4 1.95 1 .1 1.9-.45.95-.55 1.2-1.45-1.9-.65-2.8-1.1-1.2-.65-2.85-2.8-1.2-1.5-1.75-2.6.75.4 1.6.75 2.75 1.75 7.15 3 .95.25 1.8.45.6.55 1.35 1.05.9.6 1.6.65 1.05.1 1.5-.65.35-.6.05-1.3 1.35-.5 2.55-1.65.6-.6 1.1-1.3.35.2.8.4l.3.1q0 .25.05.5.25 2.75 1.65 4.85 1.25 1.9 3.25 3.05 2.05 1.2 4.3 1.35.85.05 1.75-.05.75.6 1.85 1 2.15.7 3.9.05 2.15-.75 2.6-2.8-2.45.8-4.15.7-.3-.05-.6-.05 1.55-.85 2.7-2.15.2-.25.25-.55.05-.3-.2-.35-3 .85-5.15.95-.4-.25-.7-.5-.25-.75-.3-2-.1-3.5 1.2-5.2.3-.4.9-1.15.05-.15.1-.25.45-.1.95-.2v.2q.1 1.05 2 1.25l.9.1q.55 2.4 2.1 4.25 1.65 1.9 3.5 2.25 1.1.25 2.15-.1 1.05-.4 1.65-1.25.05-.1.15-.15.85-.1 1.4-.25 1.2-.35 1.8-1.15 3.8 2.4 6.05 2.75 1.75.3 3.35-.35 1.7-.65 2.45-2.1 1.95 3.85 9.85 2.4 2.65-.5 3.6-1.35 1.1-.95 1.25-2.35l3.75 1.7q1.6.7 2.45.85 1.5.2 2.4-.65.95-.85.85-2.55-.026-.568-.15-1.1 2.57.436 4.7.1 3.483-.484 5.55-2.75.406.09.8.1l-.3.3-3.1 3.1q-.8.8-.55 1.35.45.5 1.1.35.15 0 .65-.25.45-.35.95-.9l2.2-2.35q.75-.85.8-1.35l-.25-.25q.455-.039.9-.15.7-.15 1.35-.45 1.385 1.246 3.55 1.9l-.85 1.25q-.35.6-.4.8-.05.2-.05 1.05v.95q.1.6.5.8.2.1.7.1.6.1 1-.1.55-.15 1.35-1.4-.05-.45-.65-.75-.75-.35-.9-.5l1.15-1.7q.094.03.2.05 2.511.473 4.85.4-.567 1.376-.65 3.2-.2 2.8 1.2 3.8 1.1.75 3.1.25 1-.3 1.4-.75.7-.8.1-1.45-.3-.35-1.2-.4-.95-.1-1.25-.4-.3-.3-.4-1.25-.2-1.7.25-2.65.195-.39.5-.7 1.685-.349 3.25-1 .908.155 1.8.2.537.734 1 1.25.004.632-.05.9-.25 1.15-.2 1.35.1.4.5 1.05.2.35.55 1.1.65.7 2.3.3 1.2-.2 1.65-.8l-.25-.75h-2.25q-.57-.604-.75-1.8 1.256.77 2.7 1.05 1.8.3 3.5-.2 2.3-.65 2.75-2.35-1.169.303-3 .1-.032-.076-.05-.2 2.29-.117 3.5-.7.073-.035.15-.1 1.17 1.82 2.75 3.3.694.694 1.35 1.05.602.862 1.25 1.3.262.771.4 2.15.2 1.55.45 2.25.5 1.4 2.35 3.35 1.85 1.95 3.25 2.5 1.05.4 2.05.3 1.15-.05 1.9-.75-.25-1.05-1.9-1.35-.357-.022-.65-.05.01-.24 0-.5-.05-1.45.05-1.95l.35-1.15q.517.138 1 .2.49 2.248 2.35 4.7 1.65 2.1 3.15 2.75-.14.889.1 2.45.5 2.6 1.25 3.75.45.7 1.55 1.95.45.55 1.2 1.75.8 1 1.75 1l-1.6-2.2q.623.376 1.35.55 2.3.5 4.75-.9-.5-.95-2.35-1.35-1.95-.4-2.55-1.1-.8-.9-.5-3.05.182-1.048.4-2 .102.313.4 1.25.2.5.5 1.5.3.85.65 1.4.323.422.9.85.581 1.087 2.25 1.85.328.146.8.35.113 1.603.65 2.6.35.8 1.1 1.45.4.5 1.05.8.75.4 2.1.4.827 0 1.55-.1.038 1.963.55 2.8.01.222.05.5 0 .25-.1 1.2-.05.7 0 1.15.15.75.85 2.15.25.7.65 2.1.55 1.45 2 2.35 1.45.9 3.05.75-.35-.8-1.85-1.7-1.5-.9-1.85-1.65-.15-.35-.3-.9-.15-.75-.2-.95-.8-1.6-.9-2.45 0-.232.05-1.5.735.13 1.25-.3.65-.4.2-1.35-.65-.8-.8-1.25-.04-.12-.05-.3.415.212.85.35.112.1.2.15l.7.35.55.45q.076.062.15.1.473 1.085 1.2 2.1.222.304.45.6.596 1.946 1.95 2.95 1.46 1.117 4.35 1.1.537.262 1.05.4.203.608.4 1.05 1.35 3 3.55 4.55 1.7 1.25 5.55 2.35l.2-.2q2.139 2.463 4.85 2.9 1.4.2 1.7-.55.197-.592-.2-1 .703.118 1.4.15l.15.1q2.536 1.753 4.35 2 .288.638.65 1 .9.95 2.65.95 2.07-.033 3.85-1.2h.05q.25.1 1.45.2l2.35.1q.124.008.25 0 1.115 1.87 2.9 3.1 2.15 1.55 4.6 1.45 1.05 0 1.75-.5.95-.65.7-1.6-.2-1.05-1.85-1.35-1.65 0-2.4-.2-1.037-.32-2.1-1.65.268.045.5.05.678.45 1.35.8 1.5.85 2.6.9.866.054 1.5-.25.294.126.6.05.35-.2.65-.75-.186-.116-.35-.3l-.15-.45q-.098.006-.2 0-.15-.27-.25-.6 3.023-.36 5.4-1.35 1.063.43 1.95.4 1.524-.09 2.9-1.2.68.115 1.4.05h.05q.35.05.7.05.557.194 1.3.3 1.45.15 2.9.15 2.15 0 3.15-.9.236-.218.4-.5l1.35.1.5-.05q.15-.1.35-.5.35-.745.55-1.5 2.28.3 4.4-.5.685-.259 1.3-.65.044.169.1.3.45 1.05 2.35 1.05 3.45 0 6.45-1.7 1.264-.709 2.55-1.8.393.815 1.45 1.1.95.25 2.25-.2 1.95-.7 3.9-2.9 3.6-4.15 4.75-9.45.3-1.1.1-1.85-.35-1.1-1.3-1.2-.85-.1-1.4.8-.2.25-.55 1.5-.65 2.25-1.15 3.45-1.3 2.95-2.75 4.35-.6.55-1.55 1.15-.722.438-1.25.75 1.05-1.191 2.55-3.1 1.45-1.85 1.55-3.05.05-.9-.55-1.65-.294-.368-.65-.55.222-.358.45-.8.183-.348.35-.65.309-.352.35-.6.021-.069 0-.15.234-.364.35-.65.885-.217 1.7-.7 2.1-1.2 4.15-4.1.96-1.315 1.6-2.55.444.397.55.75.15.5-.2 1.2-.5.8-.7 1.15-.4.65-.35 1.45.1.8.65 1.25.85.7 2.25.15 1.65-.6 2.35-2.2.35-.75.4-1.4.45-2.5-.85-4.15-.844-1.004-2.95-1.75.17-.639.25-1.4 1.334-1.367 1.95-2.7 1.526-.591 2.4-1.6.035.083.05.15.3.9 1.1.75.4-.1.75-.9 1.55-3.6 2.2-7.3.35-1.75.15-3.05-.2-.85-.5-1.2-.45-.55-1.15-.4-.7.2-.8 1.2-.1.5.05 1.5 0 .7-.3 2l-.3 1.2q-.169-3.569-1-5.45-.156-.376-.4-.8.07-.976-.15-2.05.522-.392.95-.9.45-.6 1.15-1.9.761-1.428.9-2.3l.35.35q.8-.05 1.35-.85.5-.7.5-1.6 0-.75-.3-1.7l-.25-.75q.129-.052.2-.1.4-.35.85-1.15.5-.95.7-1.9.3-1.4.2-4.2-.1-1.15-.3-1.5-.283-.535-.7-.7 3.341.613 5.25-1.1 1.85-1.6 1.75-4.45 0-2-1.2-4.75 2.1-2.75 3.5-4.1.063-.06.1-.15.05.146.05.25-.05.25-.3.5l-.65.95q-.35.65-.4.75-.2.45.15.8.4.15.9-.15l.7-.7.6-.6q.35-.35.45-.65l.15-.9q0-.775-.1-1.45.043-.03.05-.05.132-.006.25-.05.148.373.45.6.356.285.8.35-.37.827-.45 1.5-.1.4-.25 1.25-.15.7-.45 1.1-.028.042-.05.05-.058-.904-.3-1.55-.4 0-.75.25 0 1.594-.05 2.35-.136.165-.2.25-.35.4-.4.9-.038.377.1.65-.012.05-.05.1-.2.25-.6.6-.45.35-.65.5-.9.8-.85 1.45 1.981-1.06 2.9-2.3.294.04.7-.05.65-.2 1.45-.8.6-.5.9-1.1.2-.35.45-1.1l.5-1.7q.35-1.4.05-2.6 1.403-.572 2.35-2.2.3-.517.5-1.15.428-.458.75-1.25.237-.194.3-.3 2-2.5 2.1-5.65.057-.708-.15-1.05.214-.144.4-.3.45-.4.65-.95.05 0 .15-.05 1.3-.45 3.65-1.8.8.6 1.4.8 1.2.35 3.45-.15 1.5-.3 2-.95.5-.65.15-1.5t-1.15-.95q-.45-.1-1.25.15-.9.25-1.3.2l-.4-.1q0-.25-.2-.4-.2-.2-.6-.2-.3-.25-.6-.6l-.35-.45q1-1.15 1.65-2.55.55-.05 1.05-.1.25.15.55.3 1.1.45 1.55.4.6-.05 1.4-.65.3-.2.55-.4 1.05-.15 2-.65 1.3 1.55 3 2.75 2.25 1.55 4.7 2.05 2.65.55 5-.2 2.5-.75 4.15-2.9 1.65-2.25 1.4-4.75-2 1.75-3.1 2.5-1.85 1.25-3.6 1.65-2.1.5-4.4-.15-2.15-.6-3.95-2.05-.45-.35-.9-.75.5-.4.9-.85.6-.65 1.05-1.55.6-.4 1.15-.85 1.6 1.6 3.55 2.3 2.2.85 4.15.2 2.05-.65 3.95-3.1 3.85-4.9 4.35-11.4.1-1.6.05-3.15.8-1.15 1.45-2.2 1-.1 1.5-.3 1.1-.4 2.05-2.05 1.8-2.95 1.8-6.3l-.75-.35q-1.1 2.1-1.95 4.35-.55 1.5-1.2 1.9-.05.05-.1.05 1.7-4.1.85-7.4-.2-.25-.4-.45.9-.85 1.5-2.05.15-.25.3-.6.6.15 1.2.05 1.3-.2 3.05-1.95 2.45-2.45 3.3-3.95 1.5-2.7 1.05-4.95-.65-.05-1.1.65-.15.25-.5 1.3-.75 2.1-3.5 5.25-1.7 1.95-3.1 2.25.25-.9.45-2.1.55-3.25.1-5.1h.35q1.2 0 1.75-.15 1.55-.4 2.5-2.05.7-1.1 1.15-3.05-1.45.4-2.55 1.35-1.1.9-1.4 1-.6.25-1.5.35-.5.05-.9.05-.35-1.25-1-2.3.5-.6.9-1.4 1.05.4 2 .3 1.6-.2 2.9-1.7.9-1 1.95-3.05 1.6-3.2 2.3-4.95 1.05-2.85 1.15-5.25-.2-3.05.1-4.55.2-.8.65-1.95.75-1.85.75-1.9 1.45-3.95-.05-7.05l-.2-.3v-.05q.8-1.3 1.3-4.4l-2.15 1.95-.1-.3-.6.05q.1.25.1.5-.2-.3-.35-.5.35-.05.65-.15 1.5-.5 1.95-3.5.1-.7-.15-1.25-.25-.65-.75-.55-.3.1-.55.45-.25.45-.4.65-.4.45-1.1.45-.6.05-1.1-.2l.5-.2q.6-.3 1.15-1.05.05-.05.1-.05.1-.1.2-.15 1.4-.6 1.85-2.4.25-1.35-.1-3v-.5q.05-.75.1-1.2l.1-.6q.35-.25.65-.65.85-1.3.35-4.4-.6-2.85-1.6-3.9.45-1.25.35-2.15-.1-.65-.9-2.25-.7-1.4-.55-2.3.1-.4.4-.95.35-.75.45-.95.55-1.65-.75-3.2-1.05-1.2-2.95-1.55h-.1q-.05-.35-.1-.65.85.5 2.15 1.15 1.85.85 3 .7 1.05-.2 1.8-1.1.7-.95.8-2.05.2-2-1.4-4.15-.9.05-1.4 1.45-.1.35-.3 1-.2.6-.5.95-1.75-.15-3.05-1.3.35-.65.65-1.3 1.1.1 1.6.1.95.1 1.35-.15.5-.35.8-1.35.4-1.3.4-1.9 0-1.15-.75-1.7-.4.1-.65.9-.25.9-.55 1.15-.35.2-.9.2h-.45q.2-1.25-.15-2.05-.2-.15-.4 0-.25.1-.3.35-.1.3-.05.95-.05.3-.25.6h-.05q-.25-.1-.95-.5.9-2 1.4-4.15.2.1.45.15.8.2 2.4.2 1.75 0 2.35-.6.35-.3.65-1.2.35-.9.65-1.25l-.55-.75q-.35.95-1.55 1.4-.5.2-2.15.3-.95.1-1.55-.1-.15-.05-.35-.15.1-.75.15-1.45.3-.8.5-1.6.45-1.4.5-2.4.4-3.55-1.7-7.2.75-1.9.35-5.6-.7-6.05-3.7-7.85.3-1.3.25-2.05-.25-2.65-2.8-4.2-1-.6-2.3-.9-.05-.55-.15-1.05.05-.05.1-.05 2.4-.3 3.7-2.7 1.05-1.9.85-4.6-.3-3.85-2.75-5.1-.55-.2-.8-.35-.5-.2-.7-.5-.35-.5-.35-1.6-.25-3.35-2.95-5.8-1.6-1.45-3.4-2.05-.35-.65-.75-1.2.95-.3 1.7-1 1.55-1.45 2.2-4.35.55-2.3-.2-3.7-1.25-2.3-6.15-2.2.3-1 .15-1.95 1.25-3.8-.7-5.75l-1.3 2.2q-.65-.55-1.45-.9-.5-.25-1-.35-1.5-2.3-3.6-4.3l-.05-.05q.05-.25.1-.4.35-1.25-.35-3.4-1.35.55-2 1.85-.3-.2-.55-.4.1-.8.15-2 .05-1.85.25-2.7-1.3 1.75-2.3 2.9-.05-1.2-.15-2.35h-.95l-.15 2.15q-1.25-.75-2.6-1.4.15-.8.15-1.55 0-.7-.05-1.35.15-.1.35-.15l-.25-.7-.25.2q-.15-.6-.4-1.1-.7-1.5-2-2.35-.5-.3-2.45-1.05-1.5-.6-2.15-1.35-.35-.4-1-1.75-.55-1.15-1.1-1.6-.9-.7-2.75-.8-3.85-.4-5.5.9-.85.65-1.25 1.8-1.5.5-2.35.6-.2 0-.45.05-.65-.8-.9-1.3-.15-.35-.2-.75.25-.25.35-.55l.05-.05q1.45-.65 1.85-1 1.05-.85 1.95-3.25-.6-.2-1.4.3l-1.15.95q-.7.55-1.7.85v-.2q0-.5-.15-.9.55-.25 1.1-.8.85-.9 1.2-2.15.8-2.3-.15-4.55-.75-1.9-2.2-2.3m-3.95 2.25q.75-.55 1.35-.75.8-.25 2-.15.35 0 .5.15.1.1.1.55l-.2 2.35q-.1 1.15-.45 1.6-.25.45-.8.65-.5.2-1.05.1l-.75-1.15-1.5.25-.45 1.2q-.55-.15-.75-.95.05-.85 0-1.3 0-.8.1-1 .1-.3.55-.55l1.35-1m12.9 15.2q-.5.25-1 1.1-.4.65-.6 1.35l-.3-.05q-.15-.2-.2-.4-.15-.35-.2-.8V84.4q0-.9.4-1.2.25-.2.9-.2h3.9l.75 1.2q-.25.05-1.9.25-1.15.1-1.75.5m-13.2-8.15v-.1q1.6.75 2.65.85-.2.55-.25 1.1-.35 0-.75-.05.05 0 .1-.05-1.05-.85-1.75-1.75m.55 1.75q-.15-.05-.3-.05v-.1q.15.05.3.15m2.4 3.5-.2-.2h.15q0 .05.05.2m-3.6 1.05.3.3q0 .05.05.15-.2-.25-.35-.45m1.55 1.55q-.05-.1-.05-.15.9.75 1.75 1.2 1.7.9 3.6.85l.05.05q.8.8 1.5 1.2v1.1q-1.9.15-3.6.65-.75-1.1-1.7-2.35-.75-1-1.4-1.9l-.15-.65m6.65 1.75q.1-.05.2-.05v.3q-.1-.15-.2-.25m17.3 4.8-.45.25q-.4.25-.7.5l-1.5-.6q-.45-.15-.85-.3 0-.4.05-.85.05-1.15-.1-2.5l2.7 1.05q.55.25.7.4.25.3.25 1.25-.05.45-.1.8m20.25 24.1q-.2.3-.3.35-.15.1-.3 0-.55-.05-1.65-.7.2-.4.3-1.35.1-.85.35-1.35.1-.3.3-.45.2-.15.55-.05l2.2.2q-.35.9-.4 1.7-.05.2-.15.65l-.9 1m4 14.1q0 .3-.05.6-.15-1.2-.4-2.35.2.3.3.55.15.4.15 1.2m.2 18.9q-.5-.6-.5-.95.85.05 1.55.1.1 1.3-.1 2.6v.05q-.65-1.4-.95-1.8m-.75-2.45q-.8-.5-1.05-1.8.1-.45.25-.8 1.05.85 2 1.35.25.8.4 1.55-1.1-.05-1.6-.3m3.7-9.4q.2.3.2.55l-.05.25q-.25.75-.15 1.95l-.5.25q-.75-.5-1.45-1.25l.9-1.35.25-.3q.15-.1.8-.1m1 11.3q.8.1 1.25.6-.5 1.45-.65 2.95l-.05-.05q-.5-.65-.55-1.8v-1.7m7.55 20.35q.1.25.25.55.15.4.1 1-.25-.7-.5-1.35.1-.1.15-.2m-6.6-8.85q-1.1-.9-2.25-1.65-.4-.3-.85-.55.25.1.55.2 2.35.75 2.85 1l-.3 1m3.1-1.35q-.15-1.05.45-3.15 0-.05.05-.1.5.35.95.9 1.3 1.45 1.6 3.4.6 3.35-1.2 6.2-.8-1.4-1.75-2.6.5-1 .45-2.1-.45-1.7-.55-2.55m-10-3.85q.75.4 1.75 1.85.046.046.15.1-.71-.354-1.4-.6-.5-.75-.5-1.35m12.15 34.7q-.15-.25-.25-.5.15.2.35.35-.05.1-.1.15m.6 7.25q1.6.2 1.95.95l-1.7 3.85q.044-2.256-.25-4.8M769.75 36.65q.75-.1 1.2-.05 1.85.25 3.4 3.3.1.2.25.45l-.6-.1q-2-1.85-4.7-3.5.2-.05.45-.1m.55 9.55q-.55.7-.15 1.7.15.5.5.9-.8.2-1.25.55-.65-.85-1-1.3-3.3-4-8.4-6.95.1-.1.2-.3.3-.55.2-1.2v-.15q.1.05.15.1.5.35 1.45 1.2.85.65 1.65.65 1 0 1.4-.85.8.45 1.7.9 2.65 1.15 5.05 1.85l1.6 1.1q1.1.8 1.85.9.25.05.5.05.25.25.55.6.45.5.85.9v.25q.1.6.25 1.1-1.7-1.6-3.85-2.4-2.35-.85-3.25.4m-34.25-22.5q0 .05.05.15.25.85 1.95 1.25 1.35.4 2.7 1.1-.45.15-.75.6-.4.55-.25 1.15.2.75 1.2 1.45-1.4-.05-2.9-.15-1.35-.1-2.55-.1-1.8-.5-3.15-.2-.35-.25-.65-.45-.1-.7-.4-1.35-1.5 0-2.15-.35-.5-.3-.65-.85-.15-.3-.1-.55l.15.15q.7.85 1.25 1.25.3-1.05-.45-2.3v-.05q.2-.1.5-.15 3.1-.7 6.2-.6m9.05 9.75q.1-.05.25 0v.1l-.25-.1m-8.65-.1q-1.6-.35-3-.65-.1-.05-.15-.1 1.45.05 3.15.75m18.95 5.5q-.05-.05-.05-.1l.15.15-.1-.05m41.8 14.65q2.1.1 2.55 1.35.3.7-.15 1.7-.25.55-.8 1.7v.1q-2.55-2.5-4.15-3.8.1-.45-.2-.9 1.35-.2 2.75-.15m-7.1 1.7q.05-.05.15-.05 2.45 1.25 4.85 3.5 1.05.95 2.2 2.25-.5.3-1.15.6-.1.05-.15.1-2.5-3.35-3.3-4.2-1.3-1.35-2.6-2.2m.55 4.9q.1.1.2.25-1-.55-2.05-1.15.05-.5.1-.95.9.8 1.75 1.85m.4 5.45q-.65-.3-1.25-.5-1.3-.45-2.75-.55-.15-1.6-.85-3.05-.05-.05-.05-.15h.1q1 1.3 1.45 1.75.45.45 3.35 2.5m6.1-2.5q.85-.25 1.4-.65.2.2.35.4.75.95 2.7 3.6-.35.5-.75.8-2-2.05-3.7-4.15m8.05 8.8q.4.3.95.95-.25.8-.3 1.7-.1 1.85.6 3.4.25.65.85 1.55-.25-.3-.5-.55-.9-1-2.4-2.45.6-.3 1-1.05.6-1.2.3-2.4-.15-.6-.5-1.15M781.5 53q-.3.05-.55.2l-.4-.9q.85 0 1.15.3.2.15.35.45-.3-.1-.55-.05m-.35 8.7q.05.05.1.15.2.25.7.35h.05q.2.55.3 1.1-.65-.45-1.45-1-.1-.05-.15-.1.25-.25.45-.5m5.4-5.4.1.1q-.15.65-.2 1.35-.8-.55-1.7-1.1.65-.55 1.5-.9.1.25.3.55m-11.25-3.85q.4.7.8 1.7.9 2.15 1.15 3.4.05.15.1.4-.5-.5-.85-.7-.75-.4-1.15 0l.75 1.25q-1.7-1.75-3.95-5.05-.35-.5-.6-.95l3.75-.05M720.9 29.5v-.3q-.05-.9-.35-1.7h.25q.15.05.25.15 1.25.65 1.9 1.5-.9.3-2.05.35m-48.1-4.85h1.9q-.9.4-1.65.85-.25.05-.45.2-1.3-.1-2.3-.1v-.05q-.1-.2-.2-.35.95-.55 2.7-.55m-8.1 1.3q-1.5.2-3.2.6-1 .25-1.9.5V27q1.35-1.1 2.85-2.1 1.65-1.05 2.75-.95-.4.75-.5 1.35-.05.3 0 .65m-8.1 1.8q-1.05.2-1.8.35-2.4.5-6.05 1 5.5-3.75 10.35-3.95-.8.65-1.55 1.4-.6.65-.95 1.2m20.8 170.05q-.05-.05-.1-.05.1-.2.15-.35.7.3 1.5.55 2.45.65 3.95.55 2.3-.25 3.55-1.65-1.25-1.1-2.65-1.85 2.15.75 4.05.5 1.5-.2 3.25-1.15 1.45-.7 2.15-1.8.3-.5.45-1.3h.3q2.2.05 3.35-.05 1.8-.15 3.15-.8 2.8-1.4 3.9-4.85.4-1.3.55-2.85 1.15-.3 2.4-.85 3.1-1.4 5.2-3.95.75-.95 2.2-3 .7-.85 2.2-2.3 1.55-1.55 2.2-2.3.2-.25.4-.45 1.4 0 2.95-.7l.8-.4q.45-.05.95-.05 4.4-.15 8.3-2.35 3.1-1.75 5.55-4.6.45-.3 1.05-.95.7 0 1.4-.05 1.6.75 3.55.65 2.1-.15 3.75-1.3.1-.1.25-.15 0 .25.15.5.45.95 1.4 1.3.55.2 1.85.4 1.2.15 1.8.4.55.25 1.35.9.95.75 1.35 1 1.45.8 3.25.55.9-.15 1.75-.45 1.5 2.8 3.8 2.8 1.35 0 3.1-1.3.15.15.35.25 1.6 1 3.3.8.85-.1 1.7-.5.35 1.9 1.5 3.45.15.2.35.4.5 1.3 1 1.7.6.55 1.7.9.65.25 1.2.4.187.528.4 1.05h2.25q.365.713.8 1.1.2.15 1.05.45l.6.2q.75 2.35 1.9 4.5-.6 1.2-.2 3.2.6 2.95 1.9 5.55-.25 0-.4-.05-.65-.55-1.7-1.85-1.95-2.3-2.55-3.7-.95-2.3-.35-5.05.25-.9.2-1.4-.05-.35-.35-.65-.3-.3-.65-.2-.5.65-.7 1.8l-.15 1.95-.35 2.35q-.25 1.3-.05 2.2.25 1.7 1.95 3.65.55.7 1.2 1.25-.1 0-.15.05-1.4.8-2.2 2.85-.6 1.65-.45 3.45.25 1.85 1.1 3.35 1.8 3.1 5.4 4.2.85.25 1.7.35-.55.85-.55 1.65-.1 1.1.5 2.2.25.4.6.95-1.85 3.1-2.05 3.55-1.1 2.65-.5 5.95.15.95.5 1.85l-1 3.3q-.2.3-.4.55l3.15.85q.18 1.767 1.05 3.3.434.781.95 1.45-.074 1.543-.15 4.05-.3 2.95.05 4.2.15.55.5 1.05-.05.25-.05.45 0 .55-.2 1.6-.1.75 0 1.3-.5-.25-1-.1l-.15.3v-.05h-.65l-.6 6.25q-.05 1 0 1.6v.3q-.05 1.1.45 3.1.25 1.1.6 1.95-.45.35-.6.95-.15.45-.05 1.2-1.1.85-1.45 3.2-.25 1.45-.35 2.5-.067.107-.1.25-.383-.012-.6.05-.55.1-1 .85-.85 1.4-.55 4.05.1.9.35 1.3.446.713 1.25.7-.288 2.037-.25 3.1.05 1.25.45 2.75h.65l-1 2.8q-.15 1.2.7 3.05l.95 1.7q.567.932 1.15 1.6.03.321.1.6-.2 0-.35.05-.35.25-.55 1.2-.1.7.05 1.25.1.45.8 1.35.65.85 1.35 1.45.125.156.25.25.02.042.05.05-.057.096-.1.2-.45 1.35-.4 2.65.012.121 0 .2l-.25.3q-.8 1.45-.85 1.95-.1.45-.15 1.4 0 1.45.05 1.7.2 1 .9 2.15l.55.9q.286.357.6.65v.05q-1.3 4.15-1.3 11.4 0 1.59.25 2.8-.026.02-.05.05-1.114 1.485-.9 3.55-.532 1.301-.65 2.05-.246 1.57.4 3.55-.03.197-.1.35-.31.333-.6.7-1.098 1.381-1.3 3-.142.13-.3.3-1.1 1.3-1.45 3.05-.35 1.7.15 3.3.166.299.3.35-.195.293-.4.55-.717-.014-1.55.25-2.104.582-3.55 2.6-.73-1.378-1.45-2.25-1.45-1.55-3.2-1.7-.25 0-1.1.1-.7.05-1.15 0-.85-.15-1.75-.9-.95-.95-1.45-1.4-2.05-1.95-3.6-1.15-.324-2.024-2.45-3.6.008-.24 0-.45h-2.7v-1h-1.25v-.6q-.421-.18-.8-.35-.601-1.071-1.3-1.75-1.144-1.048-2.25-1.05-.224-.072-.65-.15l-1.3-1.05q-1.788-1.408-3.4-1.8-.059-.05-.15-.1l-1.55-.7q-1.8-.9-2.8-.8h-.25q-.065-.091-.15-.2-.25-.45-.7-.7-.35-.2-.85-.2-.7 0-1.2.35-.517.388-.6.85-2.07-.647-4.25-.35-.632.101-1.1.25-.259-.014-.55-.05-.536-.057-1-.1-.058-.127-.15-.25-.6-.85-1.5-.95-.1.1-.55.2-.649.116-1.25.7l-1.5-.5q-3.8-1.25-5.65-.4-1.007.426-2.25 1.9-.323-.095-.7-.15-1.75-.25-3.1.7-1.1.75-1.7 2.3l-.15.4q-.824-.344-1.8-.1-.95.25-1.7.95-.6.5-1 1.25-.334.547-.65 1.4-1.147-.484-2.55-.25-1.35.233-2.3 1.1-1.236-.209-3 1.35-1.893 1.694-2.9 3-.294.069-.65.1-.135.017-.3 0-.14-.037-.35-.05-.479-.028-1 .3-.415.102-.75.2-1.9.65-4.7 3.3-1.46 1.46-2 2.3-.03-.29-.2-.6-.4-.7-1.4-.75-.85-.05-1.7.35-1.716.858-3.6 2.7-.853.238-2.2 1.2-1.428 1.047-2.55 2.3-.654.307-1.3.7-1.45.85-4.05 2.95-.103.085-.2.15-.387-.376-.9-.8-3.1-2.65-6.15-2.6h-.05q-.784-.951-1.4-1.35-.786-.471-1.8-.6.027-1.118-.3-2.2-.151-.496-.4-1.05.367-.632.4-1.35.067-.6-.25-1.6.8.55 1.45 1.75 1.3 2.35 1.3 5 1-1.35.65-3.4-.35-1.7-1.55-3.2-1.2-1.5-2.4-1.85-.09-.034-.2-.1l-.15-.3q-.3-.4-1.4-1.15-.7-.5-1.45-.7-.44-.126-1.35-.15-.493-.353-1-.55l-.05-.15-.35-.85q-.057-.092-.15-.2-.356-1.248-1.1-2.35-.373-.7-1-1.05.043-.026.05-.05.8-2.1 1.15-3.15.65-1.75.55-3.3-.15-1.85-1.3-2.85-.35-.35-1.1-.75-.95-.5-1.2-.65-.45-.35-1.55-1.55-2.25-2.35-4.9-3.8-1.1-.65-1.35-1.1-.4-.65-.2-2.4.25-2.7-.55-4.4-.5-1.05-1.45-1.75t-2.05-.7q-1.824-.05-3.35 1.8-.885-1.014-1.05-1.55-.053-.172-.1-.45.599-1.059 1.5-1.9 1.1-.95 1.4-1.3.65-.85.45-1.65-.1-.55-.6-.9-.29-.174-.65-.3.05-.078.05-.2.05-.75-.4-1.25-.504-.534-1.45-.6-.05-.982-.15-2l-.05-.45q.299-.056.6-.15 1.1-.35 1.6-1.1.3-.45.35-.95.2-.35.05-.7-.1-.4-.45-.45-.35.05-.8.45-.5.5-.75.6-.2.1-.65.1h-.25q-.127-.9-.3-2l.25-.5q.35.05.8 0 1.3-.15 2.4-1.15 1.05-.95 1.55-2.3.3-.8.45-1.75.2-.95.3-1.7 1.45-1.35 2-3.25.4-1.45-.3-2.05l-2.6 3.45q-.4.5-.7.6-.2.1-.45.05.5-1.7.65-3.25.05-.8.05-1.55 1.05-1.65 1.35-3.65.35.1.75.2 1.1.25 2.8.05.85 0 1.4-.25.65-.3 1.45-1.1 1.6-1.6 2-2.6.4-1.2-.2-1.75l-2.6 2.9q-.6.7-1 .8-.55.1-.8.15l-2.35.05q-.95 0-1.3-.25-.05 0-.05-.05-.05-1.5-.45-2.95.15-.25.55-.55.5-.35.65-.65l-.25-.2q-.7.15-1.25.55-.25-.65-.55-1.25-.05-.25-.1-.45.95.05 1.8 0 .3 1.3 1.3 2.25.9.8 2.1.85 1.25.05 2.05-.7.7-.7 1.1-2.45.4-2 .85-2.65.35-.5 1.2-1.5.65-.9.4-1.65 2.3-.55 3.45-1.75.7-.75.95-1.75.15-.55.1-1 2.3-2.65 3.5-6.35 1.05-3.15 1.05-6.1 2-.25 3.5-1.7 1-1 1.4-2.45.35-1.45-.1-2.8-.25-.85-.75-1.4 1.45-1.15 2.65-2.75.3-.4.55-.8.75.15 1.55.15 2.25.05 4.25-.8 2.1-.9 3.25-2.5t1.45-3.8q.4-2.2 0-4.15-.5-2.15-1.95-3.4-1.95-1.65-6-1.55-.5 0-.95.05 1.35-1.45 1.45-4.9.05-.85.05-1.7l.4-.2q.75.65 1.7 1.15 1.85 1.05 3.9 1.15.55.05 1.05 0 1.5.45 3.7.6 4.15.4 6.15-.85 1.25-.75 2.85-3.1 1.1-1.65.15-2.2-1.7 2.05-4.9 2.4-1.7.15-4.3-.15.05-1.05-.45-2.3-.95-2.4-3.5-3.65m10-8.2q-1.45.8-3.2.75-1.6-.05-2.95-.85.9-.1 2.6-.2 1.45-.15 2.8-.7.4.1.9.1.05.1.15.15 1.6 1.45 3.1 2-.25.4-.45.65-.75.85-2.05 1.15-.85.2-2.45.25-1.8 0-2.45-.2-.3-.05-.6-.2 2.1-.05 3.5-1.25.9-.7 1.1-1.65m-9 2.45q.65.4 1.7 1.05 1.25.75 2.25 1.25-.25-.1-.5-.15-1.15-.35-1.7-.6-.95-.35-1.5-.9-.15-.15-.25-.3-.05-.2 0-.35m38.55-22.9q-.8.85-1.75 1.65-.05-.45-.25-.8.75-1.2 1-2.5 0 .3.15.55.25.65.85 1.1m-11.85 4.5q1.35.35 2.8.35.4 0 .8-.05.4.5 1.05.85-1.6 1.8-4 2.65-1.6.55-3.2.55 1.5-1.8 2.55-4.35m-5.6 11.3q.1-1.2-.55-1.5-.2-.1-.4-.05.35-.6.6-1.2.1.05.25.1 1.55.6 3.2.65-.7 2-1.85 2.9-.6.5-1.65.85.25-.7.4-1.75m-7.95-1.75q.15-.85.1-1.7 3.15.85 6-.1.35.25.75.45-3.25.4-6.15 1.15-.4.1-.7.2M761 158.8q.75.2 1.4.3-.35.45-.75.85l-.65-1.15m2.15-3h-.3q.1-.1.25-.2.05.1.05.2m-12.75 1.3v-.05l.1-.2q.1 0 .2.05l-.3.2m6.95.35h.2q.1 0 .15.05-.1.65.8 1.85.55.7 1.05 1.9-.65.2-1.3.2-1.2 0-1.6-.6-.25-.35-.25-.75 0-.5.3-1.15.35-.7.5-1.05.1-.25.15-.45m8.35 5.75q-1.05.4-1.75.1-.25-.1-.55-.45.85-.85 1.7-2.05.1 1.25.6 2.4m11.4 3.45.25.25q.15.85.35 1.95l.1.5q-1.15-.45-1.55-.85-.4-.5-.85-2.15-.15-.65-.25-1.1.05-.1.1-.15l.35-.35q.6 1 1.5 1.9m6.45 7.85q.042.025.05.05l-.1-.05h.05m6.1 11.75q0 .35-.05.6-.25-.6-.5-1.3.2.25.45.5.1.1.1.2m-2.25 6.3q0 .1.1.1 1.5.95 2.75 1.15-.65 3.4-.9 6.85-1.8-.3-3-1.2-1.6-1.2-2.05-3.45-.4-2.15.75-3.95.8.25 2.35.5m4.95 12.25v-.05.05m-.95 39.6q-.4.4-.7 1.05l-.2-2.55q.45.6 1.05 1.1-.1.2-.15.4m-.8 17.5.25 1q-.19.126-.4.2.055-.58.15-1.2m.45 1.55q.074.246.15.45.2.6.45 1.05-.1.55-.15 1.15-.15.45-.4.95-.1.3-.15.65-.45-1.6-.5-3.25.076-.027.1-.1 0-.082-.1-.2-.003-.132 0-.3.262-.21.6-.4m-3.9 1.1h.45q-.009.139 0 .3.2 1.6-.25 4.5-.103.628-.2 1.15-.582-.526-.8-1.05-.2-.45-.2-1.65.1-2.35 1-3.25m1.5 12.2q.034-.103.05-.2h1.5q-.5 2.016-.45 3.3.088.905.35 1.6-.13.672-.2 2.1-.019.298-.05.55-.27-.422-.5-.9l-.4-.9q-.7-1.4-.75-1.6-.4-1.3.45-3.95m3.05-1.5q.04-.112.05-.25.168.121.3.2.242.565.55 1.1-.163-.058-.35-.15.04-.142 0-.3-.042-.21-.55-.6m-1.6-2.2q.313.511.6.9l-.5.2q-.576-.805-.85-1.65l-.1-1q.4.75.85 1.55m.35 1.45q.247-.126.5-.25.054.05.1.1-.127.257-.25.55-.177-.2-.35-.4m1.05 2.05q.22.156.4.25.29.831.65 1.7-.5.35-1.05.9-.077.085-.15.15v-.05q-.045-1.873.1-2.95h.05m-1.05-.85q-.191.157-.4.35-.1.1-.15.2-.134-.561-.25-1.25.075-.02.15-.1.304.427.65.8m2.95 4.6-.05.7q0 .714.1 1.15-.065-.024-.15-.05-.582-.186-1-.45.187-.587.55-.95l.55-.4m-1.2 3.85q-.045-.375-.05-.75.455.189.95.2-.337.904-.4 1.95v.4q-.1-.2-.15-.35-.25-.45-.35-1.45m.55 3.45.2.05q.265.836.85 1.6.7 1 1.8 1.55-.308.448-.5.95-.849.133-1.6-.25.05-.066.05-.15 0-.25-.2-.45-.3-.55-.95-1.2-.597-.597-.95-1.05-.052-.3-.1-.65.056.015.1 0 .258.058.55 0 .467-.047.75-.4m-.05 4.45q1.038.798 2.05.85-.104.838 0 1.8.143 1.534.8 3.05-.868-.25-1.6-.75-1.05-.7-1.55-1.9-.5-1.25-.05-2.4l.15-.6q.114.004.2-.05m-1.6 3.45q.121.493.3.85.3.6 1 1.3.615.546 1.25.9-.177.272-.25.6-.095.521 0 1.55-.107.163-.2.3-.673.972-1.1 2.2-.476-.595-1-1.5-.55-1-.6-1.45l-.1-2q-.09-1.036.7-2.75m-121.5-73.25q.2-1.4.05-2.85-.1-1.3-.5-2.5h3.4q.5 0 .65.2.1.1.1.45.1 2-.25 3.1-.25 1.05-1.05 1.35l-.75.15q-.9.05-1.65.1m-20.3 34.6v-.4h.1l-.1.4m-1 3.8q.2.2 0 .75-.45 1.1-.8 1.45-.3.3-.9.65-.85.4-1.35.25-.45-.15-.9-.65l-.5-.7q-.1-.15-.1-.3 2.2-.4 3.65-1.6h.3q.45 0 .6.15m60.3 70.3q-.04-.767-.5-1.2.63-.5 1.4-.7.4-.1 1.45-.2.76-.04 1.2-.2-.113.535-.25 1.15-1.03.807-2.1 1.65-.637.13-1.25.25.093-.367.05-.75m-17.8 10.8q.182-.177.3-.35-.036.212-.05.4-.113-.016-.25-.05m-1.8 2.35q-.052-.14-.15-.3.303-.1.7-.15-.025.114-.05.25-.246.105-.5.2m33.3-21.4-.55.75q-2.007.653-3.2 2.05-.26.097-.6.25-.024-.048-.1-.1.24-.746.9-1.5.6-.75 1.35-1.2 1.026-.513 2.2-.3v.05m-6.5 3.15q-.65.45-1.65 1.85-.4.533-.75.95-.266.235-.55.45.346-1.391 1-2.25 1.15-1.5 2.65-1.55.596 0 .8-.2.001.148-.05.25-.04.005-.1 0-.65.1-1.35.5m-3.85 18.6q.16.396.5.6.75.5 2.25.2.263-.042.5-.1-1.497 1.484-3.55 2.25-.85.35-1.6.35-.637-.067-1.05-.35.64-.709 1.75-2.05.44-.44 1.2-.9m1.25-.15q-.372 0-.6-.2 1.017-.44 2.4-.9 2.883-1.023 4-2.15l.7-.1q-.651.983-1.65 1.75-.518.43-1.1.75.086-.269-.05-.45-.225.373-.5.7-1.44.663-3.2.6m3 .55q.617-.174 1.1-.45 1.941-1.017 3.35-3.65l1.35-.2q.35-.1 1.2-.6 1.1-.6 1.8-1.1.61-.407 1.2-.9.58-.286 1.25-.65.5-.2 1.5-.55.9-.3 1.45-.7.7-.5 1-1.25.1-.227.15-.45.592.451 1.4.35.75-.05 1.75-.7.205-.115.35-.25.461.924 1.4 1.6 1.1.8 2.55 1.1 1.2.25 2.85.15.95-.05 2.8-.25.89-.07 1.75-.1.92 1.946 2.95 2.55 1.15.35 2.35-.05l.15-.05q.213.334.5.7 2.65 3.05 5.7 2.9h.1q.98.245 1.7.35 1.013.79 2.7 2.3 1.8 1.35 3.35 1.3.077.826.4 1.55-.912.009-1.85-.25-2.95-.75-4.3-3.45-.3-.6-.7-.65-.05.5.2 1.1.75 2 2.6 3.3.417.313.85.55-1.508.258-2.35 1.1-.45.45-.2.8.15.25.5.15l.55-.2q.343-.137.85-.2-1.093.836-1.75 1.95-1.422-1.798-3.15-2.1-1.329-.257-2.8.5-.635-.439-1.4-.6-.55-.1-2.5-.1-1.1 0-1.35.05l-1.05.3q-2.1.7-2.75 1.7l-.25.35q-.536-.202-1.15-.3-1.3-.25-2.45.25-1.2.45-1.9 1.55-.424.622-.6 1.25l-.25-1.15-.35-1q-.2-.3-.75-.75-.65-.65-1.3-1.05-1.6-1-4.7-.8 0 .1-.15.1-1.45 0-2.7.95-.788.713-1.4 1.65h-.3q-.13-.05-.25-.1-.75-.35-1.7-.6-.7-.15-2.8-.15-1.45.1-1.75.2l-1 .4q-.07-.033-.15-.1-1.65-1.45-4.25-1.2-1.822.174-3.65 1.3-.999-.164-2.25-.05-.752.08-1.55.2.19-.364.3-.75.444-.19.8-.4 2.09-1.236 3.2-3.45 1.05-.523 2.4-1.7.888-.787 1.4-1.55m4.05-7h.05q.254.212.5.35.015.105 0 .2-.203.896-.6 1.65l-.5.2q.418-.677.55-1.5.068-.46 0-.9m1.25.65q.864.356 1.7.35-.159.104-.35.2-.413.225-1.65.65.282-.63.3-1.2m-67.05-7.85q.228.122.45.3.763.625 1.15 1.1.03.24.05.45-.677.067-.95-.05-.55-.3-.65-1.25-.019-.261-.05-.55m.95-.6q.038.077.05.15-.457-.315-.9-.55.06-.268.1-.6.466.311.75 1m5.85 6.55q.483-.032.95.05l.65 1.8q.017.237-.05.5-.071-.123-.15-.25-.883-1.284-1.4-2.1m-.3-1.4.3.2q-.333.075-.7.2-.455-.647-.8-1.1.125.025.2.05.45.2 1 .65m4.25 10.6q-.81.202-1.5.45.09-.192.15-.4.186-.637.25-1.25l.85.1q.55.2 1.15.7.084.072.15.15-.483.097-1.05.25m17.8-1.75q-.538.124-1.1.25.755-.554 1.45-.95-.19.373-.35.7m-1.75 13.1q.043-.027.05-.1v.1h-.05m-3.3-9.05-.6.3q-1.2.7-1.75 1.15-.181.12-.35.25-.063-.1-.15-.2.081-.051.15-.1l3-2q.1-.061.2-.15-.272.464-.5.75m-4.15 3.45q.013.026 0 .05-1.098 1.83-1.45 3.1h-.25q-.113.007-.25 0 .208-.906.3-1.7.35-.929 1.05-1.75.124-.143.25-.3.209.28.35.6m2.3-.2q-.11-.304-.25-.6.292-.205.7-.45-.16.276-.25.5-.097.242-.2.55m-4.2-2q.593.466 1.05.95-.414.5-.7.9-.003-.364-.05-.7-.084-.59-.3-1.15m2.65 4.05-.65.65q-.259.259-.5.4.298-.805.9-1.8.132.353.25.75m-11.25-5.6q.309-.076.7-.2l1.4-.3q-.901.742-1.45 1.75-.025-.054-.05-.1-.29-.563-.6-1.15m-2.05 34q.241-.069.5-.2.276 1.41.9 2.95.204.47.4.9-.23-.04-.35-.1-.7-.25-1.45-1.8-.448-.945-.75-1.7.43.026.75-.05m-11.85-10q.019.187 0 .65-.057.118-.1.2-1.03-.395-1.85-.85-1.114-1.728-1.6-2.7-.016-.035-.05-.1 2.235.411 3.65-.4-.092 1.861-.05 3.15v.05m1.65 7.85q.25.85.7 1.3.4.45 1.4.85.471.157.95.3-.08.275-.2.65-.39 1.493-.3 2.95-.394-.096-.7-.3-.35-.2-.75-.6-.4-.5-.65-.75-1.5-1.1-2.05-1.85-.65-.85-.9-3.05-.062-.536-.15-1 .692.15 1.6.2.37.596 1.05 1.3m3.5.55-.1.15q-.64-.3-1.25-.65-.184-.331-.35-.65.538.465 1.15.85.256.154.55.3m.85.6q.02-.088 0-.2.264.102.5.2.02.128 0 .25-.236-.113-.5-.25m9.7 9.8q-.37-.093-.95-.2-.122-.017-.25-.05.604.047 1.3.05-.032.098-.1.2m-1.05 2.95q-.243.82-.3 1.5-.166-.615-.3-1.35-.247-1.605-.45-2.55.706.261 1.8.35-.238.728-.75 2.05m7.3-1q.178.093.3.15.796.398 1.5.55.075.079.1.1l-.45.85q-.138.29-.25.65-.755-.353-.85-.4-.11-.068-.25-.15-.05-.31-.05-.8l-.05-.95m39.85-43.95q-.762.997-1.9 1.7-.291.194-.65.35.05-.329.05-.7 0-.928-.25-1.75.125.117.25.2 1.05.685 2.5.2m80-29.05q.45 1.14 1.25 1.75-.576.893-1.1 1.9-.046-.17-.1-.35-.6-2.012-.05-3.3m-3.6 13.3q0 .346.15.4-.06 1.28.1 2.05.03.178.05.35.01.073 0 .15v.05q-.313.642-.5 1.6l-.35 1.75q-.168-.051-.35-.1.052-.042.1-.1.4-.5.25-.95-.179-.107-.4.1-.021-.095-.05-.2-.4-1.45-.05-2.95.294-1.26 1.05-2.25-.005.054 0 .1m-11.6 12.5q.067.012.1 0 .065.303.1.6l-.1-.35q-.032-.126-.1-.25m10.05-5.3q.386.028.7.1-.116.24-.25.5-.1-.1-.35-.1-.122.007-.25 0l.15-.5m-4.75 2.8-.1-.2q.199-.22.4-.45 1.61-1.847 3.65-2.1-.146.35-.25.65-1.002.319-1.6 1.15-.8 1-.8 3.5v.05l-1.3-2.6m2.3 2.25q0-1.45.35-2.35.367-.79.9-1.15-.1 1.05.2 2.55.041.268.1.45-.03.165-.05.3-.24 1.489-.5 1.95-.464.031-.95.1l-.05-1.85m2.6-3.95q-.174.396-.4.8-.011-.354 0-.7l.4-.1m3.9-17.9q.029.077.05.15.221.73.5 1.25-.276.696-.55 1.4-.253-1.354 0-2.8m-42.85 12.95q.325.02.6 0 .18.135.35.25 1 .7 1.65.8.32.092 1.35.1.074.292.2.6-.62.11-1.2.05-1.9-.15-2.85-1.65-.035-.062-.1-.15m7.8 2.45q.495.756 1.35 1.45.49.441 1.25 1-1.37-.211-2.2-.55-.262-.11-.55-.25-.851-.578-1.9-1.9-.101-.112-.2-.25.427-.29.7-.75.475.69 1.25 1.1.142.074.3.15m-3.1-2q-.028-.11-.05-.25.634.067 1.25.15-.646.09-1.2.1m-.85-.35q.021.198 0 .35-.541-.018-1-.1-.598-.12-1.15-.35 1.106.05 2.15.1m1.1 1.05q.865-.007 1.25-.05.044.067.05.1-.516.215-1.05.35-.12-.206-.25-.4m-2.7 15.05q.4-.1 1.25-.1.962.057 1.6.15-.233.305-.5.65-.162.198-.25.35-1.936.402-4 .2-.16-.18-.35-.35.398-.349.6-.45.05-.05.8-.15l.85-.3m-8.95 3.15q.016-.098.05-.2.213-.682 1.2-1.1-.378.51-.6 1.2-.053.152-.1.3-.28-.087-.55-.2m-9-2.75h-1.1l.25-.1q.631-.28 1.8-.35-.524.186-.95.45m2.9 1.65.2.1q.182.091.35.2h-.7q.08-.146.15-.3m66.7-3.15q-.131.018-.3.05-.379.067-.6.35-.27-.046-.5.3-.1.2-.1.7v4.8q-.067.16-.15.3h-.05q-.063-.238-.15-.45-.58-1.481-2.1-3.2.144-.129.25-.3.489-.904.65-2.05.384-.417.65-.55.733-.342 2.4.05m-4.05 6.45q-.088-.983-.35-2 1.096 1.286 1.4 2.35.095.378.2 1-.147.197-.35.4-.262.262-.45.5-.054-.087-.1-.2.401-1.028-.05-2l-.3-.05m2.05 3.7q.102.218.2.45.463 1.527-.55 3.15.028-.77-.3-2-.146-.583-.4-1.4.423.003.95-.15.058-.022.1-.05m-4.85 5.1.2-.1-.1.3q-.023-.09-.1-.2m-7.1 5.6q.419-.379.75-.7.084-.052.15-.1.064.248.1.5.119.711-.1 1.2-.412-.458-.9-.9m7.95 3.7q.032.489 0 1.1-.05.5-.15 1.6l-.05 1.65q-.05 1-.25 1.65-.157.612-.55 1.25-.164-1.525-.85-3.5-.09-.302-.2-.55.069-.09.15-.2 1.235-1.488 1.9-3M872 205.95l-.3.75q-.25-.05-.45-.05-.5-.05-.95-.05.35-1.1.55-2.25.8 0 1.3-.25.1 1.3-.15 1.85m-.1 7.25q0-.7-.2-1.65.65-.2 1.25-.65.3-.2.55-.5-.05.3-.15.65-.3 1.3-.2 2.2-.7.1-1.25-.05m.45 4.25q-.15.3-.25.6-.15.3-.25.6-1.05.5-2.3.3-.1 0-.2-.05-.3-.65-.55-1.65l-.1-.4q.1-.05.2-.05.45-.05.85-.25.45.25.95.45.8.35 1.65.45m-2.9-6.05q.25.1.55.15-.1.2-.15.4-.25-.25-.45-.55h.05m-3.4 1.9.1-.1q.1.15.25.35v.15q-.25-.05-.5 0v-.25l.15-.15m3.1 27.25q.8-3.05 1-5.85.5.2.9.25.25.05.5.05v.25q.2 1.4.05 3.1-.1 1.5-.9 2-.55.4-1.55.2m.8-11.15q-.1-.5-.2-.95.5.45 1 .8.25.15.5.35-.7-.15-1.3-.2m-1.6 20.55q.05.35.05 1.95 0 1.3-.1 1.65-.2.7-1.2 1.8-.7.6-.95.65-.4.1-.95-.1.05-.25.05-.35.2-2-.7-3.65 1-2.05 1.8-3.75.6 0 1 .2.8.4 1 1.6m-3.75 8.6q.75.45 1.85 1-1.15 1.25-2.35 1.2.2-.9.5-2.2m-6.55 24.8q-.4-.05-1.1-.45v-.2q.6-.1 1.2-.25 0 .5-.1.9m-12.2 20.2q-.4-.15-.65-.35.45-1 .6-2.1.75-1.15 1.25-1.9 1.6.45 3.05.3-.1.15-.2.35-.95 1.85-1.1 2.05-.95 1.2-2.65 1.75l-.3-.1M770.1 410.4h.45q2.2 0 3.3-.35.27-.08.5-.2-.494.518-.85.85-1.35 1.3-2.4 1.95-.85.55-2.35 1.2-.373.167-.7.3.89-1.225 1.6-2.8.25-.523.45-.95m-13.7 8.75v-.05q.543-.4 1-.9.154.065.3.1.304.073.6.1-.047.06-.1.1-.35.4-.6.5l-.45.1-.75.05m-21.9 4.4q.03.109.05.2.052.172.1.3-.405.005-.7-.05-.37-.092-.85-.35.06-.005.1-.05.377.017.7 0 .31-.014.6-.05m-25.65-6.15q.394.154.95.25.584.422 1.3.95.192.153.35.3.75 1.338 2.4 2.3.245.14.5.25.02.23.05.45.016.11 0 .2-.812-.3-1.65-.75-.348-.174-.75-.45-.033-.056-.1-.15-.122-.01-.25-.05-.908-.516-2.1-1.35-1.203-.86-2.05-1.4.86-.235 1.2-.65.072.066.15.1m-12.65-2.6q.703.655 1.5 1.3 1.89 1.546 3.55 2.1.327.55.65 1l-3.55-2.35q-1.273-.993-2.15-2.05m9.75.65q.508.243.9.45.065.036.1.05-.542-.112-1.2-.2.138-.133.2-.3m17.65 7.7q.848.1 1.75.15v.05l-1.5-.1q-.115-.033-.25-.1m-5.45-.85q-.298.033-.6.05v-.1q.194.01.4 0 .1.027.2.05m-41.3-25.75v.05q-.093-.014-.2-.05l-.25.5.65.7q.048.23.1.45.388 1.444 1.05 2.55l-.65-.05q-.8 0-1.2-.15-1-.45-1.35-1.75-.1-.5-.1-2.3 0-.89.1-1.4 1.002.89 1.85 1.45M615.4 36.9q-1.15-.35-1.7-1.05-.3-.4-.35-.95-.05-.55.25-.95 5.85-.65 11.4-.45-4.8 1.45-9.6 3.4m-6.1-1.95q0 .3.05.65.2 1.35 1.05 2.5-.6.15-1.1.4-.85.4-1.6 1.05-3.55-1.05-6.35-1-.35 0-.65.05.05-.2.1-.35.35-.85 1.65-1.65 2.35-1.4 5-1.65-1.65.8-3.25 1.7l.25.55q1.7-.65 4.85-2.25m26.85-5.45q.25.3.5.55-.4.4-.75.9-3.25.55-6.55 1.35.15-.25.35-.45.15-.1 1-.35l3.55-.55q1.2-.2 1.65-.7.3-.35.25-.75M573.4 49.45q3.3-1.3 6.75-.9-1.05.75-2.05 1.6l-2.3 2.35q-1-1.05-2.35-1.7-.9-.4-2-.55.75-.3 1.95-.8m20.4-9.35-.15-.3q-.6-1.25-1.1-1.55 3.25-.7 6.1-1.55-.4.8-.45 2.25-1.8.4-3.3 1.3-.6-.1-1.1-.15m-3.6-.05q-.5-.3-1.05-.55.1-.05.2-.05.95-.2 2.95-.25.25.25.5.8-1.3-.1-2.6.05m5.85 3.45q.5-.4 1.2-.65.65.05.8.05 1 0 1.7-.3.35.1.75.2 1.2.25 1.75.45-.65.35-1.25.7-1.65-.25-2.7-.35-1.15-.1-2.25-.1m8.15-1.3q-.8.4-1.5.8 0-.1-.05-.25-.15-.3-.35-.55.95-.05 1.9 0m-30.85 12.7-1 1q-2.95 3-5.55 4.35.4-2-.4-5.1 4.65-1.5 6.95-.25m-18.75-6.2q-.05-.05-.15-.05.25-.1.55-.25 5.05-2.15 10.6-1.6-.05 1.45.95 2.55.4.45.85.75-1.25.05-2.7.3-2.1.4-2.8.45-1.55.2-2.75-.15-.85-.2-2.25-.95-1.6-.8-2.3-1.05m-33.5 26.05h.5q-1.75 1.35-3.9 3.2-3.85 3.35-5.85 4.85-.95 0-1.55-1.05-.2-.4-.2-.95l3.55-.25q.4 0 .7-.15.5-.3.2-.65-.85.1-3-.15-.7-.1-1.3-.05.45-1.45 1.7-2.55 1.15-1.1 2.75-1.6 2.2-.75 6.4-.65m39.5-17.7 1-1.3q.4.1.65.5l.45.75.1.45q0 .3-.2.75h-2.25q-.05-.5 0-.7l.25-.45m-8.95 5.3q1.25.5 1.45 1.35.1.35.1 1.05-.95.5-2.15 1.25-2.1.15-5 .55l.1-.1q.75-.75.8-1.8.1-1.1-.55-1.8 2.5-1.55 5.25-.5m-81.8 59.8q.85-.75 3.35-1.8l7.35-2.9q-.45.65-.9 1.25-1.25 1.65-3.95 4.1-2.6 2.35-3.75 3.65l-.4-.2q-2.1-.9-3.9-.65-.1 0-.15.05l.2-.4q1.25-2.3 2.15-3.1m-5.65 8.6q.65-.8 1.45-1.3.85.8 1.85.65-.6-.5-.75-1.25.25-.1.6-.2 1.4-.35 3.1-.3-1.95 2.8-3 6.35-.3-.05-.6-.05-2.4-.05-3.55-.4-.4-1.8.9-3.5m-5.1 9.2q.45-1.2 1.4-2.05 1.05-.9 2.25-.85 2.2 1.3 3.8 2-.15.6-.2 1.25-.05.6-.1 1.3-1.1.3-2.65 1.2-1.55-.6-3.35-.2-.85.15-1.6.5.05-2.1.45-3.15m-1.95 8.15q1.1-2.2 3-2.85.05 0 .15-.05-.8.7-1.3 1.35-1.4 1.9-1.95 4.75-.15.8-.25 1.9-.65-.1-1.15-.1l.1-.7q.6-2.75 1.4-4.3m8.95-11.65h.9q-.15.65-.25 1.3-1.5-.6-3-1.05.75-.25 2.35-.25m-3.3 17.2q.05-2.3.65-3.45.7-1.25 2.8-2.65.1 2 .3 4.25-1.6.7-2.75 2.2h-.1q-.2-.1-.45-.2t-.45-.15m-6.15 2.25q-.05.35-.05.75v1.5q-.05.2-.05.4-.1 0-.15-.05-.3-.15-.6-.25-.4-.9-.45-2.2.6-.15 1.3-.15m-6.9 24.45q.25.2.55.45-.05 0-.1-.05-.25-.2-.45-.4m-18.95 21.4q.7.75 1.5 1.4.05.85.3 1.45.25.55.7 1.15-.25.55-.4 1.1-.3.95-.45 3-.15-.2-.25-.35-2.15-2.95-2.2-6.85 0-.9.1-1.75.3.4.7.85m1.3 15.4q0 3.85.65 5.45.35.9 1.15 1.95l-.85 1.05q-1.85 2.55-1.95 4.1 0 .2.05.45-.95-.3-1.8-1.05-1.6-1.35-1.9-3.6-.05-.35-.05-2.05 2.45-.4 3.5-1.85-1.35-1.2-3.2-1.75-.3-.1-.55-.15-.2-.55-.45-1h-1.3q-.2.35-.3.75-.5 0-1 .05-.2-2.8.95-5.5.95-2.35 2.75-4.05 1.25 2.15 3.35 3 .65.25 1.1.2l-.15 4m.35 37.4q.8 2.3 2.55 4.05.65.65 1.35 1.2-.2.65-.3 1.3-.7-.4-1.1-.7-.95-.75-1.35-2.8-.3-1.2-.65-1.7-.8-.9-1.6-.55-.55.7-.2 2.55.15.55.3 1.05-.85-.25-2.05-.35-.45-2.9.1-5.95.55-3.1 2.35-3.95-.2 3.5.6 5.85m2.45 17.25q.05-.75.15-1.5.8-1.4 2.05-2.95.5.6 1.2 1.1 1.4 1.05 3.2 1.5l.25-.55q-1.2-.8-2.6-3.25-.8-1.4-.85-2.25-.05-.7.45-2 .15-.35.25-.7 2.05.7 4.1.5l-.2.9q-.9 4.8.3 9.05 0 .1.05.15-.2 1.4-.4 2.95l-.2 1.7q-.35-.05-.75-.15-2.2-.55-3.3-.75h-.1q.15-.85.4-1.7.4-1.2.3-1.85-.1-.45-.4-.8-.35-.4-.8-.4-1 0-1.55 1.7l-.7 2.2-.1-.1q-.85-.85-.75-2.8m1.5-5.55q-.2.1-.35.25.1-.4.2-.6.05.15.15.35m2.55 16.2q-.75-.7-.9-2.1 2 .2 4.3-.55-.15 1.85-.25 3.65-.2 0-.4-.05-2-.2-2.75-.95m-5.1-3.75q.15.05.3.15.1.05.2.15-.1.35-.2.75-.15-.45-.25-.85-.05-.1-.05-.2m.15 6.75q.15.25.35.45.85 1 2 1.45.7.3 1.4.3 1.85.8 4.2.75-.2 17.35 4.8 31.35-.25-.25-.4-.45-.65-.7-2.65-2.5-1.7-1.5-2.55-2.6-.8-1.05-1.2-2.2 1.2.9 2.5 1.6.3-.4-.35-1.15l-2.55-2.55q0-1.35.65-2.4.2-.35.9-1.2.6-.7.8-1.2.3-.7.05-1.45-.3-.8-1-.85-2.35 1.5-3.55 3.9-.2.35-.3.7-1.9-2.05-3-3.7-1.3-1.8-1.4-3.35-.05-.65.25-2.2 1 1.3 1.95 1 .6-.2.8-.9.15-.65-.15-1.35-.2-.45-.7-1.1-.55-.7-.75-1.05-.65-1.2-.65-3.6-.1-3.6.55-5.7m22.05-2.9h.35v.7q-.2-.35-.35-.7m-2.45 55h.7l1.85.2q.4.15.6.45.65.85.65 2.45 0 1.4-.3 2.05-2.15.05-4.5-.65-.85-.35-1.15-.65-.65-.8-.1-1.9.3-.65 1.35-1.45.55-.45.9-.5m18.4 5.85q.75.55 1.4 1.6.2.3.7 1.2-1.8-1.9-4.45-3.7h.05q1.4.3 2.3.9m163.2-72.85q-.4.15-.9.25-.2 0-.4.05l-.1-.4q-.1-.5-.2-.95.9.35 1.6 1.05m4.45 11.5q-.3.95-.65 1.4-.5.7-1.4 1-.3.1-.6.15l.3-.7q1.05-2.3 1.65-3.75.4.15.75.15t.7-.15q-.15.25-.25.4-.15.35-.5 1.5m-4.8-1.6-.05.05q.017-.08 0-.15.033-.083.1-.15 0 .1-.05.25m-147.4 51.25q.2-.3.45-.6l.4.1q-.45.25-.85.5m21.7 28.95q-.15-.05-.3-.05.15-.1.35-.2-.05.1-.05.25m16.05 8.8q-1.4 1.05-2.95 1.3-.55.1-1.05.05-.3-.7-.4-1.5 1.4-1.05 2.4-2.8 1.6 1 3.25 1.85-.9.8-1.25 1.1m14.05 7.75q-.35-.6-.55-1.15-.4-1.05-.3-2.05.85-.4 1.6-.95l.1.1q-.65 1.75-.85 4.05m-4.2-.25q-.8-1.15-1.1-2.45.7.05 1.3.1v.4q.05 1.65.65 2.95-.45-.45-.85-1m22.15-4.3q-.25.45-.3.75h-3.95q-.4-.5-.75-1.05-.1-.15-.2-.35.1-.15.3-.3.5-.3 1.05-.65 1.45 1.6 3.15 1.6h.7m69.45-60.5q-.132.039-.3.05.065-.215.1-.45.14.202.2.35.011.03 0 .05m.2 28.65q-.308.02-.6.05.025-.053.05-.15.097.008.2 0h.4q-.02.052-.05.1m-21.6 29.6q.148-.057.3-.15.179.06.35.1-.329.044-.65.05m-23.35 1.55.3-.3q.15.35.35.65.4.55 1.3 1.15.2.6-.1 1.1-.4.85-2.2 1.05-3.4.35-4.65.25-1.05-.1-1.8-.4.5-.1 1-.25 3.5-.9 5.8-3.25m11.1.35q.1.557.1 1.15-1.4.3-4.05-.7-1.85-.75-3-1.45 0-.05-.05-.1 1.2.1 2.95.2 1.227.082 3.1.3.398.336.95.6m32.2-6.3q.3-.153.55-.35.052.084.05.15-.27.099-.6.2m-7.3.7q.05-.1.15-.2l.25.25q-.2-.05-.4-.05m18.85 6.05q-.413-.02-.8-.1.385.043.75.05.035.033.05.05M708.2 228.3q-4.75-.2-9.3.6-2.2.35-4.35.95-1.2.35-2.1.65-1.45.2-3.6.55-1.6.3-2.25.65-.25.1-.4.25-1.4.3-2.3.5-3.75.95-7.55 3.2-.3-.1-.6-.1-1.15 0-1.8.9-.3.45-.45 1-.15.1-.25.2h.2q-.1.6 0 1.35.2 1.8 1.25 2.6.7.5 1.6.4.95-.1 1.5-.75.25-.3.45-.7 1.85-.4 4.65-.85 1.2-.25 4.35-1.1 2.7-.75 4.35-1 2-.3 6.05-.45.45-.05 1.25-.1 1.85-.2 5.5-.7.95-.15 1.7-.35.65.25 1.4.3.8.05 2.35.05 1.35 0 2.25.35.85.3 2.3 1.45l3.3 2.6q3.45 2.6 5.45 1.65.85-.4 1.6-1.6.4-.7 1.25-2.05l1.05-1.35h-1.35q0-.65-.2-1.35l-.55-1.3q-1.85-3.35-5.15-4.85-.55-.25-1.5-.55v-.3q-2.55-.4-5.55-.25l-.2-.4q-.4-.7-1.25-1.05-.8-.3-1.55 0-.25.1-1.15.75l-.25.2h-.15m68.5 4.7q-1.75-.7-3.4-1.15-1.65-.35-5.05-.55-1-.05-1.85-.1-.25-.5-.75-.95-.6-.45-1.15-.55-.15-.05-1-.05-.55 0-.95.05-1.25-.75-2.85-.6-1.2.1-2.8 1-2.75 1.4-5.2 3.4-1.65 1.3-2.2 2.55l-.4 1.6h-.05v.1q-.35 1.8-.1 2.65.3 1.05 1.35 1.75.1.05.2.15.15.35.2.5.65 1.05 1.85 1.15 1.25 0 1.95-.95l.05-.05q1.15-.25 1.95-1.1.5-.45 1.3-1.5.7-.65 2.15-1.15 1.85-.6 2.25-.85.7-.4 1.25-.9.6-.1 1.2-.1.7.35 2.1.35H768q1 .1 1.7-.1.15-.05.35-.1.4.05.85.15.2.1.45.25 4.9 2.3 7.6 2.55.65.05 1.95.1.4 0 .75.05 1.1.5 2.15.9.45.2.85.3.2.3.6.55.45.35 1.3.9.5.35.8.65v-5.15q-.15-.05-.25-.05-.6-.7-1.8-1.45-3.9-2.35-8.6-4.25m-.4-59.2q0 .372-.25.7h1.65q-.179-.257-.35-.4-.55-.45-1.05-.3m-86.35 243.45q.75.15 1.6.15l2.95.1q.45.1.75-.1.4-.3.15-.65-3.8 0-6-.75-3.4-1.15-4.55-3.8-.55-1.85-1-2.75-.35-.5-.5-.55-.45-.25-.7.15 1.1 4.55 4.95 7.15 1.35.9 2.35 1.05m59.45 11.3q1.8.3 2.65.2l1-.15q1.35-.15 1.4-.15.8-.35.95-1.05.25-1-.7-1.5-.7-.35-2 .15-2.15.9-3.55 1.75l.25.75m9.9-7q-1.1.5-1.15 1.25.95.65 2.75.35 1-.15 3.15-.75.75-.2 1.2-.5.65-.45.65-1.1l-.75-.75q-1.55.55-3.7.95-1.75.35-2.15.55m61.4-349.7q-.4 0-.8.25.05.4-.05 4.15-.05 2.5.5 4l.5-.25q.15-5.45-.15-8.15Z" id="hair_27_fill_svg__a"></path></defs><use xlink:href="#hair_27_fill_svg__a"></use></svg>