<svg xmlns="http://www.w3.org/2000/svg" xmlns:xlink="http://www.w3.org/1999/xlink" preserveAspectRatio="none" viewBox="0 0 1500 1500" fill="#2f1b12"><defs><path id="hair_27_outline_svg__a" d="M610.7 366.45q-.5-.5-.7-.5-.5.1-.5.6.05.3.35.8.95 1.1 2.4 1.35l1.25.05q.9 0 1.05-.05 1-.25 1.35-1.2.25-.7-.1-1.15-.15-.25-.5-.25-.3-.05-.5.15-.2.65-.45.85l-.35.05q-1.15.1-1.75 0-1.05-.2-1.55-.7m-10.75 1.7q-.9-.45-1.25-.25-.45.2-.35.85.05.35.5.8.85.85 2.4 1.2 1.9.45 3.35.1 1.8-.4 2.85-1.7.55-.85.5-1.45-.05-.4-.35-.65t-.7-.2q-.35.05-.7.55-.45.7-.55.8-.4.5-1.5.7-2.15.4-4.2-.75m42.4-37.8q-.2-.45-.45-.65-.3-.15-1-.05-.4 0-.45.25-.25.25.2.55.15.1.6.1l1.15 2.4q.3.7.6 1 .15.15.25.1.15 0 .25-.25.3-.85-.5-2.25l-.65-1.2m-1.6-13.25q-.95-.2-1.25.35-.2.55.2.95.25.25.85.6 1.1.6 1.8 1.75.65 1.1.7 2.35 0 1.6.35 2.05.4.4 1 .4.6-.05.9-.55.2-.3.2-1.15 0-2.4-1.2-4.2-1.35-2.1-3.55-2.55m6.05-8.95q-.5-.85-2-1.7-1-.5-1.6-.35-.4.1-.65.5-.2.4.05.75.9-.25 1-.25.5 0 1.1.5 1.15 1 1.6 2.55.4 1.6-.15 3-.3.75-.1 1.05.35.4.85.1.2-.1.55-.7.6-1.4 0-3.85-.3-1.05-.65-1.6m33.9 91.7q-.35-.75-.6-.85-.6-.25-.9.45-.15.35.05 1.1.35 1.5 1.55 2.95 1.1 1.55 2.5 2.35 1.55 1 3.25.75 1.2-.2 1.25-1 .05-.45-.35-.8-.35-.3-.85-.4-.25-.05-.95-.05-.6 0-.95-.1-.6-.15-1.55-1.1-1.95-1.85-2.45-3.3m12.85 6.45v-.65q-.1-.35-.45-.45-.35-.15-.7 0-.55.3-.65 1.1-.2 1.15 1 3 .9 1.35 1.6 1.85 1.75 1.25 4.35.45 1.05-.25 1.55-.95.3-.4.25-.9-.05-.5-.4-.75-.6-.4-1.5 0-.95.55-1.45.6-1.35.25-2.8-1.5-.85-1.05-.8-1.8m20.2 10.6q-.65.6 0 1.8.75 1.2 2.1 1.9 1.3.7 2.8.7 1.25 0 2.1-.45 1.1-.65 1.3-1.7.1-.65-.2-1.15-.3-.55-1-.55-.35.05-.75.35-.65.5-.7.55-.7.45-1.65.3-.85-.2-1.55-.8-.7-.7-1.1-.95-.8-.5-1.35 0m-3.65-.4q.3-.6.3-1-.1-.65-.65-.75-.5 0-.8.6-.2.7-.4 1-.4.65-1.35.8-1.25.3-2.55-.25-1.3-.55-2-1.7-.6-1.1-.8-1.3-.3-.4-.6-.25-.35.15-.2.8.8 2.65 2.8 3.75 1.05.55 2.25.6 1.15.1 1.95-.25 1.25-.55 2.05-2.05m.75-9.3q.05-.4-.2-.75-.25-.4-.65-.4-.35-.05-1.3.8-1.1 1.1-2.85 1.25-1.75.1-3.05-.9-.85-.75-1.3-.4-.5.35.2 1.3 1.55 1.8 4.05 1.95 2.4.15 4.25-1.45.8-.8.85-1.4m3.7-5.8q-.4-.25-1.6.2-1.75.65-3.75-.55-1.25-.75-2.7-2.75-.45-.7-.9-.4-.3.15-.05.85.8 1.7 1.75 2.65 1.35 1.5 2.95 2 1.9.65 3.55-.1.7-.25.95-.8.3-.7-.2-1.1m12.4 6q-.1-.95-.6-1.4-.6-.7-1.45-.35-.35.2-.5.6-.2.4 0 .75.15.25.55.7.05.15-.1.6-.35.7-1.65 1.5-1.4.85-1.95 1.1-1.35.5-3.45.4-1.4-.1-2.05-.35-.55-.2-1.3-.65-.95-.55-1.35-1.1-.25-.3-.35-.45-.25-.25-.45-.3-.3-.05-.6.1-.25.2-.3.5.95 1.5 1.5 1.9l1.1.7q.45.45.7.6l.75.35q2.4.8 4.6.45l2.95-.9q.3-.15 1.3-.8 1.7-1.15 2.2-1.95.6-1 .45-2m22.1 12.05q-.4-.1-.65.15t-.35.7q-.3.85-1.3 1.55-.8.55-1.4.65-.75.1-1.5-.35-.5-.3-.7-.35-.5-.1-.65.25-.15.35.1.6l.5.4q1.8 1 2.9.85.7-.15 1.35-.55 1.75-1.1 2.25-2.05.35-.8.05-1.4-.2-.35-.6-.45m-15.8 1.25q.1-.4-.05-.6-.25-.25-.6-.05l-.45.45q-.9 1-2.25 1.25-1.4.25-2.6-.35-.7-.35-1.35-1-.35-.2-.45-.25-.3-.1-.45.15-.05.15.1.45 1 1.7 2.95 2.2 1.8.55 3.6-.45 1.35-.7 1.55-1.8m26.3-1.1q.8 1.2 2.35 1.1 1.3 0 2.45-1 1.15-.9 1.35-2.05.1-.6-.15-1.2-.25-.65-.8-.9-.7.1-.9.6l-.2.95q-.15 1-1.15 1.45-1 .4-1.9.05-.85-.25-1.1-.05-.4.4.05 1.05m-10.05-14.1q.05-.4-.2-.75t-.6-.4q-.35 0-.5.25-.05.05-.5.8-.45.85-1.8 1.4-1.05.45-1.55.1-.6-.45-.65-.45-.2-.05-.35.1-.15.15-.15.35-.05.35.2.7.7.9 2 .9.9 0 2.1-.65l1.25-1q.7-.8.75-1.35m29.35 2.75q-.15-1.05-.95-1.35-.4-.2-.85 0-.45.2-.55.6-.05.35.1 1.05 0 .75-.9 1.65-.85.95-1.7 1.2l-.8.25q-.45.2-.45.65t.8.7q1.85.35 3.7-1.3 1.9-1.6 1.6-3.45m-7.75-5q-.55-.55-1.15-.2-.35.2-.5.75-.05.35-.2 1.05-.15.55-.75 1.1-1.4 1.4-3.5 1.3-2.05-.1-3.35-1.55-.35-.35-.55-.4-.45 0-.55.55-.2.8.65 1.65.814.89 1.9 1.3-.002.425-.05 1.15-.15 1.45-1.65 2.5-1.05.65-2.95 1-1.5.3-3.7.4-1.2 0-1.8-.25-.65-.4-1.05-.55-.7-.3-1.15.1-.25.2-.35.8-.1.7-.25.9-.25.35-1.35.55-2.95.35-4.5.3-2.5-.1-4.2-1.15-1.05-.5-1.15-.55-.8-.2-1.1.4-.1.15-.15.45-.05.4-.1.45-.2.55-1.2.95-2.85 1-5.95.45-3.05-.55-5.35-2.5-.9-.7-1.3-.55-.6.25-.5.95.05.55.5 1.05 1.95 2.35 6.35 3.15 4.8.9 7.85-1 1.05-.65 1.3-.7.4-.1 1.45.15 3.6.95 7.5.4 2.7-.35 3.85-1.7 2 .5 6.15-.2 1.75-.3 2.7-.6 1.45-.45 2.35-1.3 1-.9 1.85-2.85.393-1.047.4-1.75 2.39-.035 4.3-1.7 1.75-1.4 1.7-3.15-.1-.8-.45-1.15m10-5.3q-.1.2-.15.7-.1.25-.45.6-.8.9-1.6 1.2-1 .5-1.95.1-.4-.2-.6-.2-.25 0-.4.3-.15.25-.05.5.15.45.75.75 1.15.6 2.5.3 1-.25 2.65-1.6.9-.75 1.1-1.45.05-.45-.1-1-.2-.75-.7-.9-.3-.1-.65.15-.25.2-.35.55m38.75-68.85q0-1.55-.55-2.4-.2-.4-.5-.35-.3 0-.4.5-.15.55-.2 1.55-.05 1.1-.15 1.55-.55 2.75-4 4.25-.55.3-.95.15-.6-.3-.9-.3-.4-.05-.7.3-.3.35-.35.85 0 .65.3.95.3.3 1.15.3 3-.15 5.05-2.3 2.05-2.05 2.2-5.05m6.9-7.65q.75-1 .9-2.25.15-1.35-.45-2.35-.2-.4-.5-.4-.55-.15-.75.75-.1.5-.2 1.5-.15.9-.45 1.4-.55.9-2 1.55-1.75.9-3.1.65-1.3-.25-1.55.2-.3.5.2 1 1.2 1.35 3.85.55 2.65-.75 4.05-2.6m4.05-6.2q1-.45 1.5-.9.75-.75.8-1.55 0-.5-.2-.75-.3-.35-.65-.3-.25.05-.6.5-1.05 1.3-2.7 1.75-1.35.25-2.95-.15-.95-.3-1.25.1-.35.35.05.9.25.25.85.55 1.45.55 2.05.6 1.4.15 3.1-.75m-37.05 77.35q-.1-.6-.6-.5-.25 0-.4.15-.2.15-.4.45-.25.5-.3.55-.2.45-1.35 1.45-1.9 1.65-3.05 3.05 1 .2 2.2-.4.6-.3 1.85-1.35 1.55-1.45 2-2.55.2-.55.05-.85m-6.3-1.1q.25.65 1.05.45.4-.1 1.1-.6 1.75-1.55 2.45-2.7 1.15-1.65 1-3.45-.15-1.4-1.15-2.85-.4-.65-.75-.35-.3.25-.05.8.75 1.9-.05 4-.65 1.9-2.55 3.1-.7.45-.85.65-.4.5-.2.95m-3.05 3q-.45.3-.8.95-.2.3-.05.6.05.3.55.4.45.1.7 0 .2-.05.55-.4l.5-.55q.4-.4.5-.65.15-.35.15-.8-.1-1.05-.8-1.25 0 .05-.25.15-.3 0-.4.45l-.2.65q-.1.25-.45.45m13.9-26.05-.75-.7q-.55-.55-.95-.25-.35.2-.25.7l.45.75q2.1 2.55 2.1 4.95 0 .4-.25 2-.6 3.1-1.25 4.5l-.75 1.55-.4 1.25q-.25.9-.25 1.05 0 .5.2.65.2.1.55 0 1-.4 1.85-1.95 1.85-3.5 2.3-7.15.3-2.4-.25-3.85-.5-1.45-2.35-3.5m-2.7-16.2q-.3-.35-.7-.6-.55-.25-.9-.15-.25.65.6 1.6l1.65 2q.15.2.5 1.05l.4 1.25q.1.55.1 1.65 0 1.05-.2 1.9-.1.4-.65 1.85-.45 1.15-.5 1.9l.1.5q.2.25.55.35.5.05 1-.45.3-.3.6-1l.5-1.25q.3-.6.45-1.25.1-.45.1-1.35v-1.75l-.1-.95q-.1-.75-1-2.5l-.5-.8-2-2m5.5-4.85q.1.8-.3 1.55-.1.3-1 1.55l-1 1.05-.75.6q-.4.5-.15 1.1.15.65.85.75.65.15 1.25-.35.55-.4 1.2-1.4 1-1.5 1.3-2.35.6-1.45.1-2.65-.15-.5-.55-.75-.6-.3-.85.2-.1.15-.1.7m-50.4 7.45q1.95-.05 3.6 1.6 1.15 1.15 2.15 3.35.2.4.4.45.3.1.55-.4.4-1-.25-2.3-.8-1.45-2.7-3-1.3-1-2.3-1.25-1.45-.35-3.1.45-1.25.65-2.55 1.95-.45.35-.6.8-.01.059 0 .1-.226-.211-.45-.4l-1.8-1.05q-.9-.35-2.55-.05-.8.1-.9.6 0 .45.35.6.1.1.7.2.9 0 1.3.1.6.1 1.5.8l.6.45.5.7q1.1 1.85 1.25 2.7.1.35.1 1.15.1 1.2-.2 2.2l-.1.25v.2h1.85q.272-.956.35-2.4 0-1.55-.35-2.5-.25-.75-.85-1.7-.386-.699-.8-1.25h.05q.15 0 .5-.35 1.65-1.95 3.75-2m11.3-.1q-.9-.9-1.9-1.05-.6-.05-1.1.2-.6.3-.8.75-.1.45 0 .6.15.2.5.15.2-.05.55-.15.85-.15 1.65 1 2.3 3.05 1.8 6.85-.1.6.2.8.2.15.5-.05 1.6-.65 1.6-2.8-.05-1.25-1.05-3.25-1.1-2.2-1.95-3.05m-3.1-15.9q-.15-1.9-.35-2.85-.2-.65-.55-.5-.7 2.05-.15 4.3.55 2.25 2.15 3.8 2.3 2.2 4.6 1.5.124-.028.2-.1.116.712.3 1.3.7 2.1 2.4 2.9.75.4 2.4.6 2 .2 2.95-.4.146-.104.2-.2-.06 1.65.2 3.3l.2.9q.2.6.75 1.35 1.25 1.9 2.5 2.7.55.35 1.75.85 2.95 1.15 4.8.6.7-.2.85-.6.15-.3-.05-.65-.2-.35-.55-.5-.15-.05-1.45-.2-.75-.05-2.75-.6l-1.5-.6q-.85-.5-2.1-2.05l-.55-.85-.35-.95q-.5-1.65-.55-3.25l-.1-.55q-.15-.35-.45-.35-.3.1-.45.3-.15.3-.15.65v.05q-.088-.09-.3-.15-.6-.25-1.55-.45-1.05-.2-1.6-.35-2-.45-2.65-1.75-.3-.55-.4-1.75-.15-1.75-.1-3.1 0-1-.6-1-.3 0-.5.4-.45.75-.55 1.85-.095.854-.1 1.6-1.025-.22-1.6-.4-1.65-.5-2.8-1.8-1.2-1.35-1.45-3m3.7-7.85q-.35.45-.05.8.2.25.9.15 1-.05 1.95.5.9.5 1.45 1.35.45.75.7 2 .2.8.15 1.2-.1.75-.1.9.05.45.55.65.55.15.9-.15.6-.5.4-1.9-.45-2.7-1.85-4.25-.8-.9-1.95-1.35-1.2-.45-2.3-.25-.5.1-.75.35m-2.65 1.25q.2.3.65.25.4-.1.65-.4.4-.55.2-1.55-.55-3.35-3.4-5.35-1.3-.95-2.95-1.25-1.65-.3-3.25.05-.6.1-.8.3-.4.4-.15.8.2.35 1.1.25 3.05-.5 5.3 1.15 1.2.8 1.85 2.1.7 1.3.6 2.65 0 .8.2 1m-11.65-.6q-.35-.65-.5-.8-.55-.35-.85.05-.15.2-.05.75.6 2.5 1.3 3.45 1.25 1.95 4.7 3.2 2.9 1 4.45-.1-.95-.85-3.2-1.5-2.45-.7-3.35-1.35-1.3-.95-2.5-3.7m-6.8-1.95q0-.5-.3-.6-.5.05-.8.65 0 .1-.15 1.1 0 .25-.1.8-.1.45 0 .8.05.5.65 1.1 1.7 1.75 4.95 1.85.75 0 1.2-.25.25-.15.4-.45.1-.35-.05-.6-.2-.3-.9-.4l-1.8-.3q-1-.1-1.7-.4-.65-.3-1.1-.9l-.3-2.4m.15-9.7q-1.55.1-2.5.5-1.3.5-1.85 1.65l-.1.6q.1.4.35.45.2.05.5-.05.45-.2 1.25-.75.85-.45 2.1-.55 1.1-.1 3.25-.1h2.5q.85 0 1.25.1.5.05 1.1.4 1.1.5 1.65 1.35.25.25.35.25l-.35-1.1-.35-.75q-.4-.6-.9-1-.8-.7-1.15-.85-.45-.2-1.85-.2-3.5-.05-5.25.05m66.9 17.4q-.3.1-.4.8-.1 1.25-.85 2.3-.75 1-1.85 1.5-.7.3-1.1.3-1.1-.1-1.35-.05-.45.15-.6.7-.1.55.15.95.55.85 1.8.75 1.2-.05 2.8-1.35 1.2-1 1.65-1.65.75-1.05.7-2.15-.2-.85-.3-1.3-.1-.85-.65-.8M784.2 342q-.85.55-1.8 2.05-.15.25-.1.35.1.3.55.2.5-.05 2.2-.65 1.3-.45 2.15-.25.2.2.55.9.35.55.8.6.75.15 1.05-.65.15-.45-.05-1.3-.4-1.15-1.35-1.6-.55-.3-1.7-.3-1.5.1-2.3.65m-7.2-1.35q1.6 1.25 2.35 2.45.8 1.05.45 1.85-.15.3-.55.85-.05.35.2.7t.65.4q.85.1 1.35-.7.85-1.15.25-2.65-.35-1.1-1.55-2.3-1.8-1.95-3.65-2.75-2.45-1-4.5-.05-.55.35-.45.7.15.35.75.25 1.7-.1 2.75.2.9.25 1.95 1.05m11.9-12.25q.1.45.6.95.35.35.75.55.5.25 1.35.15.65 0 1.05-.2.6-.35.65-.85.05-.25-.15-.5-.15-.25-.45-.3-.2 0-.6.2-.25.05-.8.05-.55.1-.85-.15-.4-.25-.4-.7l-.15-.85q-.25-.55-.65-.4-.3.15-.3.6-.2 1-.05 1.45m5.7-8q-.5-.15-.85-.55-.55-.65-.8-1.9-.2-1-.75-1.1l-.35.2q-.5.3-.5 1.1-.15 1.45.75 2.75t2.3 1.6q1.1.25 2-.2 1-.5 1.1-1.6 0-.8-.55-.95-.3-.1-.7.15l-.65.45q-.45.2-1 .05m1-8q-.05-.15-.2-1.05-.2-.75-.7-.75-.35-.05-.65.4-.15.4-.15.8 0 1 .2 1.45.25.7 1.1 1.35 1.85 1.3 3.9 1.2.6 0 .95-.25.35-.2.65-.85.35-.75-.15-1.05-.3-.2-.85 0-1.5.4-3-.25-.9-.4-1.1-1m1.05-10.75q.1-.55-.4-.75-.65-.35-1.3.3-.35.45-.55 1.25-.4 1.95.15 4 .55 1.95 1.8 3.55 1.15 1.4 2.15 1.75.75.2 1.1.05.25-.1.4-.35.15-.25.1-.5-.05-.4-.6-.7-1.55-1.1-2.45-2.8-.95-1.65-1.05-3.55 0-1.05.35-1.65l.3-.6m-72.95 52.8q-1.55-.6-2.7.25-.05.1-.15.25-.05.15.05.3.15.15.35.15l.7-.15q.9-.25 1.7.55.5.5.95 1.6.41 1.193.5 2.4h.05v4.9q1-.3 1.45-1.45.3-.8.3-2 0-3.1-1.15-4.95-.07-.112-.15-.25.072.05.15.05l.45-.1q1.35-.5 2.65-.55h1.65q.3.05.95.1l.6.35q.95.6 1.2.85.7.7 1.2 2.5l.25 1.2q.15.95.1 1.7 0 .35-.55 2.6-.038.172-.05.3h1.6q.427-.67.6-1.75.15-.8.15-1.65 0-.05-.15-1.55l-.25-1.25q0-.1-.45-1.4l-.4-.85q-.55-.95-2-1.75-1-.6-1.6-.7-.65-.2-2-.1-2.15.1-3.2.65-.6.35-.9.65-.22.22-.25.35-.717-.861-1.65-1.25m-46.95 34.5q-.25-.65-.3-.7-.35-.35-.65-.25-.5.15-.4.85 0 .55.55 1.75.75 1.5 1.3 1.95.5.4 1.8.95 2.7 1.05 4.05.5.4-.15.55 0 .1.05.2.35.1.55.65 1.25 2.55 3.55 6.65 4.8 1.9.55 3.25.3 1.05-.2 2.3-1 .85-.6 1.2-1.35.45-.9-.1-1.65-.3-.35-.8-.45-.5-.05-.8.25-.3.55-.5.85-.65 1-2.75.8-1.6-.15-2.8-.8-.75-.35-1.95-1.45-1.75-1.55-2.15-2.65-.25-1.15-.5-1.65-.5-1-1.4-.85-.35.1-.7.55-.5.55-.65.65-.55.4-1.5.3-1.5-.05-2.75-1-1.25-.9-1.8-2.3m-11.05-8.6q-.35-.55-.5-.65-.3-.15-.6.05-.35.15-.45.45-.2.5.1 1.25.85 1.75 2.85 2.3 1.7.5 3.7-.1 1.95-.55 3.35-1.9.9-.9.6-1.5-.1-.3-.45-.45-.35-.15-.7-.05-.4.05-1.2.55-2.1 1.3-3.4 1.4-2.2.25-3.3-1.35m-6.45 3.05-.65-.8q-.3-.4-.35-.6-.1-.25-.1-1.05-.1-.65-.5-.8-.5-.15-.8.4-.1.15-.25.9-.1 1.2.25 1.7l.5.6q.25.65.3.7.1.25.5.55 2.15 1.95 3.75 2.35l.85.2q.6.2 1.6 1.1.95.65 2.7.85.51.044.95 0 .032.417.2.95.5 1.7 2 3 1.45 1.25 3.3 1.65.85.25 1.55.05.9-.3.9-1.15-.05-.75-.95-1.15l-1.55-.3q-2.15-.4-3.4-2.35-.25-.5-.2-.7.2-.4.2-.6.017-.059 0-.15.385-.27.6-.7.15-.35.1-.6-.05-.3-.55-.6-.55-.2-1.5-.05-1.2.2-1.6.15-.85-.05-2.05-.95-.45-.25-.65-.6l-.35-.65q-.25-.35-.75-.45-.45-.05-.8.2l-.55.4q-.2.05-.85-.15l-1.05-.65-.8-.7m.6-14.05q-.45-.1-.75.3-.25.4-.15.85.15 1.55 1.85 2.45 1 .55 3.1.75 1.35.1 2.4-.05 1.25-.2 1.75-.75.3-.35.35-.85 0-.55-.35-.85-.45-.35-1.65-.15-1.85.35-3.25.35-2.15 0-2.65-1.1-.15-.35-.25-.55-.2-.3-.4-.4m-9 1.2q-.4.45-.65.6-.2.1-.65.1h-1.65q-1.2 0-1.7-.2-.5-.15-.7-.45l-.25-.7q-.2-.45-.75-.6-.55-.2-.95.05-.6.65-1 .95-.35.25-1.3.35-2.85.4-4.2-.35-.95-.75-1.4-1.05-.4-.2-.6-.2-.4 0-.5.3-.1.25.25.7 1.6 1.8 2.55 2.25 1 .45 2.85.45 1.65 0 2.5-.25.3-.1.55-.05.3 0 .6.3 1.7 1.2 2.85 1.35.6.05 1.85-.05l1.3.1q.75 0 1.25-.25.3-.1 1.05-.75.6-.7.75-1.15.022-.137 0-.3.448 1.912 1.9 3.5.227.258.45.5-.29.07-.65.25-.5.35-.8.45-1.05.55-1.8.15-.1-.05-.75-.85-.5-.6-.95-.55-.55 0-.75.65-.1.45.05 1.05.25.8.65 1.25 1.15 1.4 2.85 1.3 1.3 0 2.65-1 .8-.55 1.05-1.15.065-.163.1-.3.728.413 1.55.7 1.6.55 2.65.2.65-.25 1-.8.45-.65.25-1.25-.1-.35-.35-.6-.3-.25-.65-.2-.65.35-1 .45-.5.15-1.45-.25-1.95-.85-2.7-1.75-.25-.3-1.6-2.55-.7-1.2-1.4-.8-.459.292-.4.95-.138-.305-.45-.55-.8-.6-1.5.05m6.4-5.95q.1-.65-.35-1.2-.5-.5-1.15-.45-.5.1-1.5.85-2.65 1.9-6.4 1.5-2.9-.35-6.3-2.15-.75-.35-.95-.8-.2-.75-.4-1.1-.5-.85-1.5-.6-.85.15-1.2 1.1-.1.4-.3 1.25-.45 1-2.4 1.4-6.7 1.2-10.8-.7-.7-.25-.9.05-.15.25.2.7 1.15 1.25 4.15 1.75 3.25.55 5.5.45 2.95-.1 5.15-1.25.6-.3.85-.3.2 0 .6.2.4.2 2.05 1.05 1.25.65 2.1.95 3 1.15 6.3.85 3.3-.35 6-2.05 1.15-.7 1.25-1.5m7.35-18.35 1.5-.2q1.2-.1 1.9.2 1.6.6 2.65 3.6.4.75.25 1.35-.05.45-.45 1.25-.1.35.15.6.2.15.65-.05.9-.5 1-1.8.05-.8-.4-2.1-1.15-3.2-3.2-3.95-1.05-.35-2.8-.15-.8.1-1.05.3-.25.15-.3.45-.1.3.1.5m-8.05-6.55q-.35.25-.25.4.1.25.4.15l1.65-.05q1.1.1 1.55.7.2.25.4.95.4 1.35.5 3 0 .9-.2 1.35-.1.2-.35.6-.15.4-.1.7.05.45.6.6.55.1.95-.15.65-.5.75-1.7.3-2.4-.65-4.7-.75-1.85-2-2.2-.5-.15-1.65-.05-1.1.1-1.6.4m-4.95-7.3-1.3.05q-.6 0-.8.2-.2.15-.2.4-.05.25.15.35 2.65-.4 3.8.45.55.4 1 1.35.3.6.35.9.1.55-.05 1.65-.5.05-.8.45-.3.4-.2.9.1.45.55.75.45.25.9.1.75-.3 1-1.25.4-1.2 0-2.65-.4-1.25-1.3-2.35-.7-.85-1.5-1.2-.65-.2-1.6-.1m7.25.8q.55-.35.75-1.25.15-.6-.05-1.45-.35-2.7-2.05-3.85-1.25-.9-2.45-.2-.45.25-.45.7-.1.6.45.6.1.05.7-.2.75-.2 1.5.85 1.3 1.95.75 4.2-.1.4 0 .55.25.5.85.05m-7.25-14.6q-.4-.6-.95-1.15l-.7-.7q-.5-.5-.95-.75-.3-.25-1-.55-.95-.25-2.1.05-.45.1-.6.35-.1.2.05.5.2.2.45.3.4.1 1.15.1.45.05 1.15.55l.55.45q.3.35.7 1.15.25.3.7.8l.25.6q.3.8.35 1.2.1.45.1 1.3 0 1.15-.2 1.7-.15.45-.7 1.35-.3.6-.45 1.25 0 .65.65.95.65.25 1.15-.15.3-.25.55-.75 1.1-2 1.2-3.25.05-.55-.05-1.65l-.15-1-.25-.85q-.55-1.3-.9-1.8m76.95 12.4q-.45.95-.7 1.45l-.65 1.4q-.25.6-.8 1.3-.65.8-.95 1.2l-.55.6q-.45.3-.65.45l-2.2 1q.52-1.227.8-2.55-.15-.25-.15-.85.1-.5-.05-.85-.2-.55-.7-.4-.25.05-.35.45v.6q0 .65-.65 2.15-.7 1.45-1 1.9l-.8.95q-.95.95-4.15 3.05-1.528 1.07-2.55 1.65.09-.155.15-.3.2-.45.4-1.35.15-.6.1-1.1 0-.6-.4-1.7-.2-.5-.45-.55-.35-.1-.55.2l-.2.6q.35.55.15 1.35l-.95 2.55q-.2.45-.8 1.25-1.2 1.7-1.85 2.4l-3.7 3.6q-.25.4-.1.5.224.01.45 0-1.15 1.165-2.15 1.7-.85.45-1.45.35-.85-.25-1-.2-.35.1-.85 1.15-.35.95-2.05 1.9-1.85 1.05-3.25 1.55-1.65.45-2.45.8-.5.2-.5.5t.25.45q.85.7 2.25.55.75-.1 2.25-.7 3.85-1.7 5.2-3.5.1-.3.3-.35.1-.1.6-.3 2.75-.85 4.65-4.3.054-.087.1-.2.025.013.05 0 .8-.45 1.9-1.55l1.9-2.15q1.131-1.433 1.75-2.7 1.23.322 2.7-.2 1.15-.45 2.5-1.35 1.9-1.35 3.3-2.75l.35-.4q1.233.06 2.6-.3l.85-.35.7-.45q.75-.35.9-.5.35-.3.75-.9l.9-1.1q.174-.237.35-.6.282.114.95.3 1.65.2 2.25.1.55-.1 1.55-.5l1.5-.7q.65-.4 1.85-1.35l2-1.6q.5-.45.55-.6l.35-.8.2-.65q.2-.45.05-.75-.35-.4-.85-.1-.15.1-.65.7-.2.25-1.45 1.25l-1.1.8q-2.1 1.45-3.2 1.9-.9.3-2.6.6l-.7.1q.167-.342.35-.75.5-1.2.7-2.35v-.6q-.1-.35-.4-.5-.5-.15-.9.45m-32.1 9.2q1.3-.65 1.95-.75.5-.1 1.5-.2 1-.4.85-1.15-.1-.55-.9-.85-1.5-.5-3.65.35-4.1 1.45-5.5 4.35-.15.4-.45.7-.25.2-1 .3-4 .45-7 3.1-1.4 1.3-1.5 2.35-.05.6.1 1.3.1.5.25.7.035.047.05.05-2.543-.138-3.8.2-2.6.65-4 2.9-.65.95-.7 1.95-.1 1.2.65 1.85.7.7 1.2.2.2-.2.1-1.2-.1-1.1.7-2.1.75-.9 1.9-1.25.9-.3 2.2-.4h2.3q1.15 0 1.35-.5.2-.3.05-.65-.15-.35-.45-.55-.234-.2-.75-.3.26-.28.45-1.15.1-.7.55-1.25.4-.45.95-.85 1.2-.9 1.85-1.25 1.95-1.05 4.2-.9 0 .45.4.75.35.3.85.35.5.05.95-.25.45-.35.5-.8-.05-.55-.05-.85-.05-.6.4-1.45.75-1.35 3.5-2.75m11.25-7.1q-.034.134 0 .5-.9-.6-2-.55-1.15 0-2 .65-.45.3-1.35 1.4-.95 1.15-1 1.8-.1.6.4.85.6.25 1.15-.65 1.05-1.5 1.6-1.9 1.05-.95 2.25-.65.5.2.7.2.329.066.5-.1.07.2.15.3.55-.15.8-.85.2-.8.3-1.15.25-.9 1.2-1.85.5-.6 1.4-1.2.8-.55 2-1.15.85-.45 1.7-.75.6-.15 1.85-.25 1.1-.1 1.6.05l.6.15q.4 0 .45-.3.05-.3-.4-.6-2.05-1.2-4.3-.55-.8.2-1.75.7-3.2 1.6-4.8 3.5-1.05 1.35-1.05 2.4m17.3-14.25q-.85.3-1.95 1.2-2.6 2.15-3.15 4.2 0 .4.05.45.2.15.45.05.5-.15 1.35-.9l2.5-2.25q.8-.8 1.45-.95l3.7-.1.5.05q.25 0 .65.2 1.45.7 3.05 1.65.55.35.85.15.45-.3.05-1-.5-.85-2-1.75l-1.05-.65q-.7-.4-1.1-.5-.35-.1-1-.1h-2q-1.6 0-2.35.25Z"></path><path id="hair_27_outline_svg__b" stroke="#000" stroke-width="2" stroke-linejoin="round" stroke-linecap="round" fill="none" d="M804.8 84.15q3.9 0 6.65 2.75 2.75 2.8 2.75 6.7m6.65-13.6q4.95-1.4 4.25 3m-3.45 8.1q5.55 0 9.45 2.15 3.9 2.2 3.9 5.3 4.3 0 7.35 2.3 3.05 2.35 3.05 5.6M832.25 87.7q5.1-1.05 6.2 2.65m18.5 31.15q0-4.6-2.8-7.85t-6.75-3.25m10.1 1.55q4.05.9 3.1 5.25m-1.9 26.05q4.7-8.7.9-15.6m8.1 2.65q3.85 3.75.95 9.4m3.5 11.85q3.55 4.4 0 7m-10.95-8.5q2.95 0 5.05 3.65 2.1 3.65 2.1 8.85m3.4 5.55q3 4.05 1.5 10.45-.15.6-.35 1.2m6.15-.7q3.15 5.65-2 9.45m-30.4-89.85q5-2.5 7.3 3.9m-83.3-53.75q6.25-4.25 11.6.05M754.6 33.4q7.4-1.85 8.1 3.75m-119.95.35q13.6-10.8 23.85-.85 10.6-11.2 19.8 1.95 2.45-13.7 12.85-5.9 11.65-12.3 16.9 0 7.35-5.05 11.85 2.45 11.4-6.35 18.85 3.95 4.95 0 8.4 3.9 3.5 3.95 3.5 9.5m-24.3-28.85q6.4-2.85 10.9 1.85m50.55 42.8q3.25 0 5.55 3.45 2.35 3.5 2.35 8.45m-21.8-18q3.75 0 6.4.95 2.65 1 2.65 2.4m-23.9-10.6q3.9 0 6.65 2.15 2.75 2.2 2.75 5.3m9.9-4.65q7.4-5.35 10.85 3.15m-86.8-37.15q3.85-5.3 8.7-1.9m-62 3.55q-.65-5.95 5.2-2.5m23.1-1.2q1.5-6.4 6.95-2.95m-3.55 161.3q4.3-.6 7.55-3 4.35-3.2 5.35-13.65 7 7.25 12.9 3.4t3.4-13.8q4.2 8.8 8.4 6.45 3.55-2.4 6.95-9.4-1.1 9.1 9.6-.7 2.5 11.65 9.2 2.65-.45 2.25.5 4.85.95 2.6 3 3.55 2.1 1 4.05-.25 2-1.2 3.05-4.35 4.25 14 16.15 7.1.05.3-.1.65-1.276 5.702.35 9.2-.452-1.572-.2-3.4M692.9 188.2q4.75.95 5.65-4.8m4-5.4q4.5 1.1 7.2-3.2m39.95-13.05q3.15 5.95 7.15 3.1m26.85 5.7q1.8 4 8.2 6.15-1.65 10.1-.65 13.4.5 1.65 1.3 2.6.95 1.1 2.3 1.5-3.15 5.25-2.1 8.95 1.05 3.75 1.45 5.65.35 1.9 1.85 2.3m-15.675-36.6q-.666-.792-1.125-1.75.65 2.169 2.65 3.85m-6.3-5.1q-.18 1.624 0 3m-49.8-5.95q5.9 2.25 9.05-3.7m50.25 55.6q0 1.8 1.6 3.05m.25-7.5q-.65.9-1.1 1.75m-27.4 12.4q.7-.15 1.45-.25 13.95 0 23.3 5.25 1.95 1.1 3.45 2.25m8.75-8.45q-3.05 9.45-1.75 14.7.75 3.25 3.2 4.85-8.2 13.7 2.4 13.8-9.55 5.4-6 13.95.05.15.15.3m-6.75-32.9q-10.35-6.4-27.55-5.25l-7.3 5.85q-2.9-3.05-3.5-7.7v-.3m49.575 40.3q.422 1.012 1.075 2.1-2.85 1.8-4.25 3.55-2.8 3.35 0 6.35.65.7 1.65 1.35-2.65 4.2.6 10.25 1.7 5.55 8.45 1.6-1.281.951-2.05 2.3m-86.2-75.45q-2.25-.45-5-.8-2 0-3.9.05-4.85.15-9.35.7-11 1.35-19.7 5.05-2.65 1.15-4.8 2.35m0 6.6q10.35-4.55 24.5-5.35 4.5-.25 9.35-.15 1.9.05 3.9.15l9.4 6.45q3.3-2.5 4.95-6m-52.05-25.55q3.05-1.15.65-4.6-.3-.4-.65-.85m.65.85q4.95 1 6.25-3.75m-27.45 42.9q.35-.5.65-1.05 1.6-3.45-.2-8.8-.25-.8-.6-1.6 5.35-1.25 7.55-3.4 2.85-2.8.25-7.1 3-6.45-.25-8.25-.4-.25-.9-.4.45 0 .9.05 4.1-.05 5.75-1.85 2.9-3.15-1.7-11.65 3.15-.55 5.35-1.6 6.95-3.35 5-11.8m-6.9 38.5q1.15-.15 1.9-.55m-16.2 27.7q5.4-1.3 4.45-8.2M879.1 204.5q3.6 3.95 0 6.95m-7.55 14.6q6.4-5.9 1.35-11.8-.45-.5-1-1.05m7.7 13.1q.3 7.95-4.15 8.25m-7.75 10.1q7.65 1.85 3.85-9.65m.1 20.65q4.75 4.15 0 8.3m-10.05 17.2q1.75-2.65 2.7-4.9 2.55-6.15-.95-9.25 9.5-8.85.6-13.95m2.8 30.7q.85 6.15-3.75 5.15m-5.75 11.75-3.4 6.9m-6.875-3.5q.025-.37.025-.75m3.1-3.8q8.6-3.7 3.75-11.25M784.8 197.6q-2.2 5.45 1.85 5.8m85.15-12.8q3.15 5-.55 10.2m-63.4-129.6q6.8 1 5.75 6.35M683.95 200.6q3.75.1 2.5-3.75M630.7 31.5q3.7-7.1 8.35-3.05m1.8 9.35q-6.65-3.2-19.3 6.75-10.9-4.1-17.9 5.3m-18.8-4.25q0-1.25 1.6-2.15 1.6-.85 3.85-.85m2.05 13.35Q589.6 51 584.5 54.2q-5.05 3.2-5.05 7.7M567.4 50.1q2.6-7.35 9.05-6m27.75-1.9q3.9-10.45 11.2-5.3M498.8 90.85q-.8-5 4.6-6.45m33.95-9.1q-5.3-.9-9.4 1.55-4.15 2.45-6.95 9.8-6.35 0-10.85 2.9t-5 13.45q-11.7.6-14.45 5.75t-2.4 12.05q-3.25 0-5.7 3.25-.7.85-1.3 1.95-2.9 5.25-2.9 12.65-5.65 0-9.65 4.5-4 4.55-4 10.95-7.75-3.65-5.9 9.85-10.9 1.15-3.5 8.4-5.05-1.25-5.6 8-6.45 3.15-3.5 8.5-6.35 1.55-7.85 7.15-2.8 13.1 4.35 15.8-2.05 1.15-3.5 2.45-8.2 7.5 2.8 21.25-11.75 14.6 1.05 26.2m74.3-186.85q.6-6.7 5.7-5.1m43-3.85q-8.15-6.6-14.15 3.9m-5.2-10.55q.9-6.05 6.5-6.4M476.4 122.2q-.8-7.45 3.2-7.25m-16 27.85q-.75-7.1 3.4-6.35m-24.35 43.2q-4.45-2.4-.6-4.85m5.4-16.55q.6-5.9 5.05-5m-21.35 76.9q-4.35-3.3-.25-8.55m7.15 58.75q-5.3-2.45-1.6-7.85m-6.95-25.45q-2.95 7.05 1.85 8.3m17.2 24.15q-13.9 19.35.85 27.65-6.95 14.4-1.35 20 5.6 5.65 13.5 5.65 0 7 5.8 11.9 5.8 4.95 14 4.95 5.3 14.25 17.05 13.05 6.45-1.35 10.45-2.1 4.9 10.6 17.6 7.75 10.4 13.65 18.1 2.35 19.8 7.25 29.45-5.25 10.919 8.507 19.1 3.625m-156-61.675q-3.5-2.6-1.4-9.05m42.7 57.75q-2.15 2.25 1.55 4.5l2.2.85m-39.7-34.35q.55 5.25 4.8 4.9m9.85 10.7q3.3 7.95 8.4 5.95m162.75-62.95q12.3-.05 4.15-14.8 10.5-.65 7.85-8.7.75 0 1.45-.2m-4.45 28.65q4.05-.35 2.2-5.65m1.4-7.6q7.1-3.25 6.5-10.35M512 372.75q3.6 5.6 8.95 3.45m28.6 5.25q6.7 3.3 6.85-3.5m78.25-72.85q2.485 3.816 2.35 6.95m-7.975 0q3.335-4.344-1.825-12.65 6.6-3.3 2.05-13.15m-54.15 89.2q3.65 4.5 7.3 0m35.15-2.9q.33-.235.65-.5m-185.9-168.9q-3.4-4.75 0-7m53.55-90.1q-2.75-4.25.75-7.6"></path><path id="hair_27_outline_svg__c" stroke="#000" stroke-width="1" stroke-linejoin="round" stroke-linecap="round" fill="none" d="M785.85 217.75q-.7 1.5-.75 2.7m3.45 19.55v2.8m1.85-.45v3.25m-39.9-13.15 1.85 3.8m-.45-5.2 3.3 4.7m-.95-5.15q.85.25 1.3 1.45.95.95 1.5 1.6m-6.55 3.5q-1.15-1.15-1.35-2.8m-31.05-2.8 2.35-2.85m-.95 4.7 2.35-3.3m-.5 5.65 2.35-4.2m-.45 5.15 2.35-3.3m-54.9-6.25q2.3-1.3.55-5m-1.1 17.85v2.8m1.9-4.25v3.8"></path></defs><g><use xlink:href="#hair_27_outline_svg__a"></use><use xlink:href="#hair_27_outline_svg__b"></use><use xlink:href="#hair_27_outline_svg__c"></use></g></svg>