<svg xmlns="http://www.w3.org/2000/svg" xmlns:xlink="http://www.w3.org/1999/xlink" preserveAspectRatio="none" viewBox="0 0 1500 1500" fill="#2f1b12"><defs><path id="hair_25_outline_svg__c" d="M675.9 145.2q-4.033-.718-9.7.95-5.059 1.527-5.45 1.6-.06.104-1.4 1.1-1.618 1.267-3.65 3.1-.863-.317-1.85-.5-.2-.05-.4 0v.15q1.194.265 2 .5l-.15.1q-.85.6-1.45 1.2-.6.65-1.25 1.65l-1.15 1.8q-1.102 1.705-2.05 3.35-.896 1.637.3 2.95 1.2 1.31 2.35 1.8 1.194.55 2.05-.15.906-.697 1.7-.6.782.136 2.4-2.6 1.434-2.413 1.8-2.45-.293.537-.8 1.5l4.6-4.35q.25-.064.55-.2 1.718-.61 2.8-1.55 1.14-.894 2.6-1.35 1.466-.46 5.35-1.15 3.926-.627 4.4-3.4.487-2.725-3.6-3.45Z" fill="#FFF"></path><path id="hair_25_outline_svg__f" fill="#FFF" d="M675.9 145.2q-4.033-.718-9.7.95-5.059 1.527-5.45 1.6-.06.104-1.4 1.1-1.618 1.267-3.65 3.1-.863-.317-1.85-.5-.2-.05-.4 0v.15q1.194.265 2 .5l-.15.1q-.85.6-1.45 1.2-.6.65-1.25 1.65l-1.15 1.8q-1.102 1.705-2.05 3.35-.896 1.637.3 2.95 1.2 1.31 2.35 1.8 1.194.55 2.05-.15.906-.697 1.7-.6.782.136 2.4-2.6 1.434-2.413 1.8-2.45-.293.537-.8 1.5l4.6-4.35q.25-.064.55-.2 1.718-.61 2.8-1.55 1.14-.894 2.6-1.35 1.466-.46 5.35-1.15 3.926-.627 4.4-3.4.487-2.725-3.6-3.45Z"></path><path fill="#FFF" d="M675.9 145.2q-4.033-.718-9.7.95-5.059 1.527-5.45 1.6-.06.104-1.4 1.1-1.618 1.267-3.65 3.1-.863-.317-1.85-.5-.2-.05-.4 0v.15q1.194.265 2 .5l-.15.1q-.85.6-1.45 1.2-.6.65-1.25 1.65l-1.15 1.8q-1.102 1.705-2.05 3.35-.896 1.637.3 2.95 1.2 1.31 2.35 1.8 1.194.55 2.05-.15.906-.697 1.7-.6.782.136 2.4-2.6 1.434-2.413 1.8-2.45-.293.537-.8 1.5l4.6-4.35q.25-.064.55-.2 1.718-.61 2.8-1.55 1.14-.894 2.6-1.35 1.466-.46 5.35-1.15 3.926-.627 4.4-3.4.487-2.725-3.6-3.45Z" id="hair_25_outline_svg__h"></path><path fill="#FFF" d="M675.9 145.2q-4.033-.718-9.7.95-5.059 1.527-5.45 1.6-.06.104-1.4 1.1-1.618 1.267-3.65 3.1-.863-.317-1.85-.5-.2-.05-.4 0v.15q1.194.265 2 .5l-.15.1q-.85.6-1.45 1.2-.6.65-1.25 1.65l-1.15 1.8q-1.102 1.705-2.05 3.35-.896 1.637.3 2.95 1.2 1.31 2.35 1.8 1.194.55 2.05-.15.906-.697 1.7-.6.782.136 2.4-2.6 1.434-2.413 1.8-2.45-.293.537-.8 1.5l4.6-4.35q.25-.064.55-.2 1.718-.61 2.8-1.55 1.14-.894 2.6-1.35 1.466-.46 5.35-1.15 3.926-.627 4.4-3.4.487-2.725-3.6-3.45Z" id="hair_25_outline_svg__k"></path><path id="hair_25_outline_svg__a" stroke="#000" stroke-width="2" stroke-linejoin="round" stroke-linecap="round" fill="none" d="m789.55 243.8 2.6 2.7m0-9.6-2.6-5.9q-11.55-1.5-31.7 13.35v8.75q16.75-10.9 31.7-9.3m2.6 2.7 2.55 2.5v-9.1q-1.15-.2-2.55-3m-111.2 8.75q19.95-2.55 40.75 7.45v-9.2q-31.756-16.123-40.75-12.55l-6.8 6.35m1.55 10.7 5.25-2.75m-9.3-5.9q-1.727 1.75-2.1 1.95-.373.2 1.4 9.2l2.35-1.25m.85-11.95-2.5 2.05m1.65 9.9 2.4-1.25"></path><path id="hair_25_outline_svg__b" stroke="#000" stroke-width="1" stroke-linejoin="round" stroke-linecap="round" fill="none" d="M789.55 231v12.8m2.6-6.9v9.6m-111.2-15.15v14.3m-6.8-7.95 1.55 10.7m-4.05-8.65 1.65 9.9"></path><path id="hair_25_outline_svg__d" stroke="#FFF" stroke-width="1" stroke-linejoin="round" stroke-linecap="round" fill="none" d="M678.825 147.7q-1.535-3.25-8.75-2.1-7.204 1.148-11.975 4.3-4.775 3.15-6.925 6.45-2.158 3.302-1.9 5.6.254 2.29 3.25 3.225 2.999.938 6.675-4.55 3.68-5.489 12.425-7.575 8.736-2.09 7.2-5.35Z"></path><path id="hair_25_outline_svg__e" stroke="#FFF" stroke-width="1" stroke-linejoin="round" stroke-linecap="round" fill="none" d="M663.65 123.85q.011 5.194.025 10.4-.003.863 0 1.725-.002.216 0 .425v2.5q.017.581.025 1.175.02 3.563.05 7.125l7.85-12.5m-30.75 12.5h22.9l-10-10.5m34.65 10.5h-24.65l10.8 13.3m-10.75 19.8-.05-33.1-3.7 12m3.7-12 11.45 4.95"></path><path id="hair_25_outline_svg__g" stroke="#FFF" stroke-width="1" stroke-linejoin="round" stroke-linecap="round" fill="none" d="M678.825 147.7q-1.535-3.25-8.75-2.1-7.204 1.148-11.975 4.3-4.775 3.15-6.925 6.45-2.158 3.302-1.9 5.6.254 2.29 3.25 3.225 2.999.938 6.675-4.55 3.68-5.489 12.425-7.575 8.736-2.09 7.2-5.35Z"></path><path id="hair_25_outline_svg__i" stroke="#FFF" stroke-width="1" stroke-linejoin="round" stroke-linecap="round" fill="none" d="M678.825 147.7q-1.535-3.25-8.75-2.1-7.204 1.148-11.975 4.3-4.775 3.15-6.925 6.45-2.158 3.302-1.9 5.6.254 2.29 3.25 3.225 2.999.938 6.675-4.55 3.68-5.489 12.425-7.575 8.736-2.09 7.2-5.35Z"></path><path id="hair_25_outline_svg__j" stroke="#FFF" stroke-width="1" stroke-linejoin="round" stroke-linecap="round" fill="none" d="M663.65 123.85q.011 5.194.025 10.4-.003.863 0 1.725-.002.216 0 .425v2.5q.017.581.025 1.175.02 3.563.05 7.125l7.85-12.5m-30.75 12.5h22.9l-10-10.5m34.65 10.5h-24.65l10.8 13.3m-10.75 19.8-.05-33.1-3.7 12m3.7-12 11.45 4.95"></path><path id="hair_25_outline_svg__l" stroke="#FFF" stroke-width="1" stroke-linejoin="round" stroke-linecap="round" fill="none" d="M678.825 147.7q-1.535-3.25-8.75-2.1-7.204 1.148-11.975 4.3-4.775 3.15-6.925 6.45-2.158 3.302-1.9 5.6.254 2.29 3.25 3.225 2.999.938 6.675-4.55 3.68-5.489 12.425-7.575 8.736-2.09 7.2-5.35Z"></path></defs><g><use xlink:href="#hair_25_outline_svg__a"></use><use xlink:href="#hair_25_outline_svg__b"></use></g><use xlink:href="#hair_25_outline_svg__c" transform="translate(1 4)"></use><use xlink:href="#hair_25_outline_svg__d" transform="translate(1 4)"></use><use xlink:href="#hair_25_outline_svg__e" transform="translate(1 4)"></use><use xlink:href="#hair_25_outline_svg__f" transform="translate(1 4)"></use><use xlink:href="#hair_25_outline_svg__g" transform="translate(1 4)"></use><use xlink:href="#hair_25_outline_svg__h" transform="translate(1 4)"></use><use xlink:href="#hair_25_outline_svg__i" transform="translate(1 4)"></use><use xlink:href="#hair_25_outline_svg__j" transform="translate(1 4)"></use><use xlink:href="#hair_25_outline_svg__k" transform="translate(1 4)"></use><use xlink:href="#hair_25_outline_svg__l" transform="translate(1 4)"></use></svg>