<svg xmlns="http://www.w3.org/2000/svg" xmlns:xlink="http://www.w3.org/1999/xlink" preserveAspectRatio="none" viewBox="0 0 1500 1500" fill="#2f1b12"><defs><path d="M636.2 222.5q-1.537-6.614-1.9-9.55h-34.1q-1.554 14.033 1.4 24.6 2.334 7.884 2.9 9.95.62 2.058 1.8 6.55l27.25-1q.345-1.007.65-2 1.253-3.991 2.2-7.75 2.58-9.026-.2-20.8m82.8 11.35v-10.3q-20.9-2.3-49.2 3.05-.4.15-.75.35l1.3 5.9q4.25-1.35 8.95 1H719m71-8.95q-1.35.5-2.25-.35-14.05-3.3-32.6.3v8.5l34.85-2.4v-6.05Z" id="hair_24_fill_svg__a"></path></defs><use xlink:href="#hair_24_fill_svg__a"></use></svg>