<svg xmlns="http://www.w3.org/2000/svg" xmlns:xlink="http://www.w3.org/1999/xlink" preserveAspectRatio="none" viewBox="0 0 1500 1500" fill="#2f1b12"><defs><path d="M708.2 228.3q-4.75-.2-9.3.6-2.2.35-4.35.95-1.2.35-2.1.65-1.45.2-3.6.55-1.6.3-2.25.65-.25.1-.4.25-1.4.3-2.3.5-3.75.95-7.55 3.2-.3-.1-.6-.1-1.15 0-1.8.9-.3.45-.45 1-.15.1-.25.2h.2q-.1.6 0 1.35.2 1.8 1.25 2.6.7.5 1.6.4.95-.1 1.5-.75.25-.3.45-.7 1.85-.4 4.65-.85 1.2-.25 4.35-1.1 2.7-.75 4.35-1 2-.3 6.05-.45.45-.05 1.25-.1 1.85-.2 5.5-.7.95-.15 1.7-.35.65.25 1.4.3.8.05 2.35.05 1.35 0 2.25.35.85.3 2.3 1.45l3.3 2.6q3.45 2.6 5.45 1.65.85-.4 1.6-1.6.4-.7 1.25-2.05l1.05-1.35h-1.35q0-.65-.2-1.35l-.55-1.3q-1.85-3.35-5.15-4.85-.55-.25-1.5-.55v-.3q-2.55-.4-5.55-.25l-.2-.4q-.4-.7-1.25-1.05-.8-.3-1.55 0-.25.1-1.15.75l-.25.2h-.15m68.5 4.7q-1.75-.7-3.4-1.15-1.65-.35-5.05-.55-1-.05-1.85-.1-.25-.5-.75-.95-.6-.45-1.15-.55-.15-.05-1-.05-.55 0-.95.05-1.25-.75-2.85-.6-1.2.1-2.8 1-2.75 1.4-5.2 3.4-1.65 1.3-2.2 2.55l-.4 1.6h-.05v.1q-.35 1.8-.1 2.65.3 1.05 1.35 1.75.1.05.2.15.15.35.2.5.65 1.05 1.85 1.15 1.25 0 1.95-.95l.05-.05q1.15-.25 1.95-1.1.5-.45 1.3-1.5.7-.65 2.15-1.15 1.85-.6 2.25-.85.7-.4 1.25-.9.6-.1 1.2-.1.7.35 2.1.35H768q1 .1 1.7-.1.15-.05.35-.1.4.05.85.15.2.1.45.25 4.9 2.3 7.6 2.55.65.05 1.95.1.4 0 .75.05 1.1.5 2.15.9.45.2.85.3.2.3.6.55.45.35 1.3.9.5.35.8.65v-5.15q-.15-.05-.25-.05-.6-.7-1.8-1.45-3.9-2.35-8.6-4.25m-.4-59.2q0 .372-.25.7h1.65q-.179-.257-.35-.4-.55-.45-1.05-.3m44.4-101.95q-.4 0-.8.25.05.4-.05 4.15-.05 2.5.5 4l.5-.25q.15-5.45-.15-8.15m-3.3-2.05q-.75-1.9-2.2-2.3-2.7.3-5.2 1.55-1.45.75-1.95 1.65-.15.25-.2.5-.55-.3-1.05-.05-.1.15-.15.35-.6-.75-1.3-1.35.45-.7.45-1.65.1-.15.15-.3.2-.55-.2-1.35-.5-1.15-1.3-2.35-.1-.35-.3-.65-.2-.25-.4-.35-.25-.35-.55-.65-.8-.85-2.95-3.05v-.05q1.1-2.8 1.15-4.4 0-1.75-.9-2.45-.4-.35-1.6-.65-2.3-.5-3.45-.5-.1 0-1.45.15-1.45.2-2.4.4-.5-.2-.95-.25-2.5-1.15-4.85-1.1-.65 0-1.1.15-.65-1.45-1.65-2-.3-.15-.8-.25-.05-.8-.55-1.7-.4-.85-1.35-1.8-.2-2.45-1.8-5.7-2.5-4.95-5.35-6.15-1.3-.5-2.8-.4-1.45.1-2.65.8-1 .55-1.15 1.3-3.55-1.95-6.5-2.4-3.1-.5-5.5.6-1.25-1.1-3.6-2.15.15-.4.15-.85 0-1.05-.85-1.5-.65-.3-2.05 0 0-.9-.65-1.7-.4-.55-1.5-1.25-.4-.25-.75-.45.4-.45.35-1.25-.1-.75-.65-1.3-.9-.8-2.65-1.1-4.9-1-9.9-.3-3.25.6-5.15.75l-6.05-5.8q-1-1-1.65-.5-.55.4-.15 1.15.05.1.85.9.75.6 2 2.05 1.25 1.4 1.95 2 .1.1.3.25-1.75-.1-4.55-.4-4.1-.4-6.5.15-1.25.3-1.55 1.05-.05.25-.05.45-.75.05-1.45.15-4.6-2.85-8.15-4.05-7.1-2.4-12.8-.15-1.65.65-5.4 3-.55.35-1.05.65-.9-.65-2.8-.15-.5.1-.95.25.2-.45.15-.9-.15-1-1.25-1.45-.6-.2-1.95-.3l-5.55-.25q-2.15-.1-3.05.45-.85.5-1.65 1.75-.05.05-.05.1-1.15-.5-1.7-.5-.7.05-1.7.6-1.1.6-2.1 1.3-2.2-.2-4.35.4-1.7.45-4.3 1.75l-4.5 2.4q-.7.4-1.15.8-1-.9-2.25-1.25-1.7-.5-3.55-.15-.7.15-1.35.4-.8-.65-.95-1.45 3.45-.9 6.95-.85.6 0 .9-.1.5-.3.35-.75-4.85-.65-8.7-1l-1.15.55q-1.35.6-1.7 1.35-.4.85.2 1.8.05.15.2.3l-4.3.7q-2.7.4-3.5 1.6-.2.35-.3.75-4.4-1.45-8.7-1.9-3-.3-4.8.25-2.6.7-3.7 2.7h-.05q-2.95-.4-4.55.15-.85.25-1.95.95-1.65 1-1.85 1.1-.95.5-1.45.8-.8.45-1.2 1l-.1.2-.45-.65-5.9 1.3q-1.1.2-1.9.4-.85-.15-1.85-.2.05.2-.35.2-.9.05-1.9.85-2.65-.6-6.05-.65-5.65 0-8.85 1.55-2.75 1.6-4.25 2.05-1.2.3-2.9.3-1.95-.05-2.9-.05-3.55 0-6.9 1.15-2.6.85-3.55 2.45-.6.95-.3 2.15.1.35.25.6-.65-.05-1.35-.05l-6.15-.15q-2.3-.05-3.55.2-1.95.35-3.05 1.45 5.65 3.85 12.4 3.3 2.3-.2 3.35-.1 1.85.2 2.55 1.4.6 1 .35 2.95-.25 2.35-.1 3.15.35 1.75 2.2 2.75-1.5.4-2.35.75l-.5.25q.15-.6.25-1.15.3-1.45-.25-2.25-.45-.7-1.95-1.1-2.8-.8-4.2-.65-.75.1-1.8.45l-1.8.6q-2.3.65-6.25.3-4.9-.4-6.35-.3-1.7.1-2.7.7-.65.4-1 1.05t-.25 1.35l13.4-.75q-1.45 1.3-1.3 3.2 0 .95.65 1.55.2.15.45.3-4.35.7-7.2 1.45-3.3.85-6.05 2.1-.8-.4-1.75-.65-2.1-.55-5.4-.35-6.4.2-9.9 2.1-2.35 1.25-3.8 3.4-1.55 2.3-1.45 4.75 0 .4.1.8-1.45.75-2.15 1.55-.9 1.25-1.5 1.75-.1.1-1.75 1.25-1.05.75-1.3 1.55.55.45 1.5-.2.55-.4 1.75-1.65 1.1-1.1 1.85-1.55.1-.05 1.25-.65.55-.3.9-.55.4.65 1.1 1.05.95.45 2.8.25-1.75 1.15-4.65 2.8-3.85 2.2-5.35 3.15-3.25 2.15-6.1 4.85-1.8-.35-2.75-.1-1.35.3-2.75 1.7-1.55 1.65-2.4 2.4-.8.7-2.55 1.8-1.85 1.15-2.6 1.8-2 1.7-3 4.2-1.05 2.55-.8 5.15.3 2.7 1.95 3.55 1.15-.55 1.55-2.3.3-2.1.45-3.1.4-2.25 1.9-4.1 1.55-1.85 3.7-2.65l.3.3q-1.5 2.4-2.7 5-.8 1.8-2.25 5.45-.35.75-.65 1.45l-8.75 2.75q-2.1.6-3.4 1.35-2.35 1.4-4 4.55-1.1 1.9-1.1 3.45-.35.35-.7.8-1.4 1.85-1.5 4.2v1.35q-.05.75-.4 1.2-.3.5-1.5 1.15-2.2 1.3-3.1 2.95-.85 1.5-.75 3.3.05 1 .4 1.9-.45.35-.9.75-2.85 2.7-3.65 8.15-.05.2-.05.4-1.7.3-2.85 1.2-1.45 1.2-2.2 3.8-.9.35-1.7.95-2.45 1.9-3.25 5.25-.75 3.2.2 6.35l.1.3q-.6 1.75-.75 3.7-.15 2.55.6 4.85-1 .05-2.05.25-5.15.85-8.55 4.2-3.55 3.45-4 8.7-.1 1.5.05 2.9l-.05.05q-1.15 1.45-1.55 2.45-.55 1.5-.45 3.95.1 3 .6 5l-.1.1q-2.5 2.7-4.2 4.75-1.45 1.75-1.8 2.8-.5 1.25-.4 3.65 0 2.9 1 3.95 1 1.05 3.7 1.2v.25q-.05.55-.2 1.65-.1 1 .05 1.65.25 1.35 2.25 3.35 1.9 1.9 3.1 2.55.5.3 1.05.5-.1.75-.1 1.6-.05 4.1 1.85 6.95-.55 1.9-.8 4.2-.8.05-1.55.35-2.5.85-3.9 3.4-1.25 2.1-1.65 5.05-.4 3.2.45 5.05.65 1.55 2.15 2.5t3.15.95q1.05 0 1.9-.5.45-.25.75-.6.6.5 1.4.8.5.2 1.05.3 0 .3.05.6-.25-.25-.6-.3-1.1-.25-2 1.75-1.7 3.9-2.15 6-.35 1.75-.15 3.1-.1.75-.05 1.5.15 1.8 1.35 5.2.15.5.35 1-.4.75-.65 1.15-.65 1.25-.95 2.15-.5 1.7-.5 5.3.1 2.8.45 3.85.25.6.8 1.5-.2.9-.3 1.6-.25 2.3.35 4.1.35 1.05 1.7 3.05 1.5 2.15 3.1 3.85-.3 1.35.05 2.7.5 2.1 2.75 4.65 2.95 3.45 6.6 6.35 1.35 1.05 2.6 1.7.2.35.35.75 2.35 5.15 5.35 8.85-2.4-.4-5.4-1-.95-.25-1.2-.45-.45-.35-.75-1.5-.75-3.25-2.25-3.95l3.2-.4q.4-.1.65-.35.3-.25.1-.5-3.2-1.25-4.75-1.85-2.85-1.15-4.3-2.6-1.6-2.1-2.5-3.1-1.6-1.8-3.35-1.8-1.05-.05-1.85.7-.8.8-.65 1.75.1.85 1.4 1.95 2.95 2.6 6.75 4.6 2.15 1.05 2.45 1.25 1.35.75 2.2 1.6 1.35 1.35 1.85 3.3.5 1.9-.05 3.75l6.8-.15q-2.1 1.05-3.2 2.4-1.4 1.9-.95 3.8.5 2 2.7 2.95 1.55.65 4.1.75 1.9 0 2.6-.85.5-.55.5-1.9.05-2.2-.45-4.6 1.5 1.3 3.15 2.2-.5.3-.75.8-.75 1.45.4 2.95.8 1.05 2.6 1.6 1.5.5 2.85.15 1.65-.45 2.1-1.8 2.3 1.15 4.05 3.1 1 1.1 1.7 2.3-.05.55-.05 1 0 2.9.9 5.15-.95 1.4-3.15 1.5-.9.1-1.65-.25-.85-.35-1.1-1.1-.35-.9.55-2.25 1.25-1.75 1.4-2.25l-.7-.65q-4.1 2.9-3.7 5.55.25 2.15 3.05 3.6 1.55.8 2.65.7 1.2-.1 2.8-1.4.65-.6 1.2-1.15 1.7 2.35 4.95 3.6 2.9 1.1 6.4 1.05.9 0 2.6-.15 1.55-.05 2.6.05.7.1 1.8.3-.2 1.6.4 3.25.65 1.85 2.15 3.35t2.9 1.55l.1-.25q-.4-.75-1.25-1.65-.95-1-1.45-1.55-1.7-2-1.3-3.8.15-.3.25-.6 1.1.15 2 0 .15.1.3.25 1.4 1.35 2.3 2 1.1.8 3.2 2-.2.05-.35.2-.35.3-.55 1.3-.45 2.95.55 5.75.9 2.45 2.8 3.95 2.1 1.65 4.55 1.2-.2-1.05-1.3-2.05-1.4-1.1-2-1.7-1.3-1.2-1.9-2.9-.55-1.7-.3-3.45.15-.9.05-1.4.45.25 1.1.75-.2 1.9.15 3.05.35 1.05 2.1 3.5 1.8 2.85 2.2 3.3 1.65 1.8 3.4 1.95 1 .1 1.9-.45.95-.55 1.2-1.45-1.9-.65-2.8-1.1-1.2-.65-2.85-2.8-1.2-1.5-1.75-2.6.75.4 1.6.75 2.75 1.75 7.15 3 .95.25 1.8.45.6.55 1.35 1.05.9.6 1.6.65 1.05.1 1.5-.65.35-.6.05-1.3 1.35-.5 2.55-1.65.6-.6 1.1-1.3.35.2.8.4l.3.1q0 .25.05.5.25 2.75 1.65 4.85 1.25 1.9 3.25 3.05 2.05 1.2 4.3 1.35.85.05 1.75-.05.75.6 1.85 1 2.15.7 3.9.05 2.15-.75 2.6-2.8-2.45.8-4.15.7-.3-.05-.6-.05 1.55-.85 2.7-2.15.2-.25.25-.55.05-.3-.2-.35-3 .85-5.15.95-.4-.25-.7-.5-.25-.75-.3-2-.1-3.5 1.2-5.2.3-.4.9-1.15.05-.15.1-.25.45-.1.95-.2v.2q.1 1.05 2 1.25l.9.1q.55 2.4 2.1 4.25 1.65 1.9 3.5 2.25 1.1.25 2.15-.1 1.05-.4 1.65-1.25.05-.1.15-.15.85-.1 1.4-.25 1.2-.35 1.8-1.15 3.8 2.4 6.05 2.75 1.75.3 3.35-.35 1.7-.65 2.45-2.1 1.95 3.85 9.85 2.4 2.65-.5 3.6-1.35 1.1-.95 1.25-2.35l3.75 1.7q1.6.7 2.45.85 1.5.2 2.4-.65.95-.85.85-2.55-.05-1.1-.5-2.1.4.05.85.1 4.35.25 7.25-1 .85-.4 1.75-.95 1.95.65 3.95.15.7-.15 1.35-.45 2 1.8 5.6 2.45 6.1 1.15 11.15-.95 2.05.35 4.05.15.8.45 1.6.7 1.25.4 4 .4 2.7-.1 4.05-.75 1.35-.65 2.85-2.75.1-.15.25-.3 1.85 0 3.7-.8 2.1-.95 3.4-2.75.35-.5 1-1.55.6-.85 1.25-1.25l-.5-.7q-1.15.15-2.7.75-1.7.85-2.6 1.2-.9.4-1.7.65.2-2.05-.9-3.95-.8.1-1.35 1.7-.5 1.4-1 2.45-.25-.05-.5-.15-.2-.1-.4-.15 1.1-1.6 2.4-3.8-2.3.55-4.15 2.05l-.15.15q-.15-.15-.25-.3-.2-.25-.35-.5 1.1-1.5 1.4-3.3.2-1.75-.6-2.55-1.1.05-2.3 1.5l-.05.05.3-1.2h.15q.1-.25-.05-.5l.1-.8.5.2q1.6.65 2.7.65 2.8.1 4.7-2.45 1.5-1.9 1.85-5.05.1-.85-.1-1.25-.3-.7-1-.55-.5.1-.7.9-.15.7-.35 2.05-.2 1.25-.7 1.9-.5.6-1.35 1.05-1.75.9-3.15.75-.2 0-.45-.05l-.3-.2q-.95-.5-1.45-.9 0-.45-.05-.85-.1-1.15-.35-2.15 1.4-.35 2.55-1.5 1.15-1.2 1.65-2.85.55-1.75.4-3.95.1-.1.2-.25.8-1 1.25-2.8.6-2.2.1-3.85-.3-.95-1.05-1.65-.8-.75-1.75-.8-.55 0-.75.25-.2.3 0 .95.95 2.85-.45 5.7-.65-.05-1.5-.35.3-.8.3-1.3 0-1.15-.9-1.5-.75.05-1.5.75-.4.4-.65.75-.15-.1-.3-.15 1.9-1.95 3.45-5.3 2-4.35 1.75-7.75-.15-2.1-1.1-3.85-1.05-1.85-2.75-2.8-1-.45-1.45-.75-.15-.05-.25-.15-.1-2.25-1.35-4.1-.05-.35-.1-.6.25-.55.45-1.1.6-1.7.4-3.45-.1-.9-.35-1.7.2-.3.35-.65.85-1.5.65-2.6-.45-.1-1 .3-.55.55-.85.75-.55.35-1.35.35h-.1l-.2-.3q-.2-.35-.45-.65v-1.55q0-.65-.1-1.15.55-.55.95-1.25.75.1 1.1-.1.3-.15.5-.7l.5-.95q.3-.65.2-1.05-.2-.4-.55-.35-.2.05-.5.45l-.4.8q.3-1.2.45-2.6.05-.3.05-.6.55-.3.7-.9l.1-.65q0-.4.35-.5l-.15-.4q-.35.1-.7.15 0-.2.05-.3 0-.1.05-.15 1.45.65 2.9.2 1.1-.35 1.6-1.1.3-.45.35-.95.2-.35.05-.7-.1-.4-.45-.45-.35.05-.8.45-.5.5-.75.6-.2.1-.65.1l-.55.05q-.55 0-.8-.05h-.15l.1-.3 1.1-2.2q.35.05.8 0 1.3-.15 2.4-1.15 1.05-.95 1.55-2.3.3-.8.45-1.75.2-.95.3-1.7 1.45-1.35 2-3.25.4-1.45-.3-2.05l-2.6 3.45q-.4.5-.7.6-.2.1-.45.05.5-1.7.65-3.25.05-.8.05-1.55 1.05-1.65 1.35-3.65.35.1.75.2 1.1.25 2.8.05.85 0 1.4-.25.65-.3 1.45-1.1 1.6-1.6 2-2.6.4-1.2-.2-1.75l-2.6 2.9q-.6.7-1 .8-.55.1-.8.15l-2.35.05q-.95 0-1.3-.25-.05 0-.05-.05-.05-1.5-.45-2.95.15-.25.55-.55.5-.35.65-.65l-.25-.2q-.7.15-1.25.55-.25-.65-.55-1.25-.05-.25-.1-.45.95.05 1.8 0 .3 1.3 1.3 2.25.9.8 2.1.85 1.25.05 2.05-.7.7-.7 1.1-2.45.4-2 .85-2.65.35-.5 1.2-1.5.65-.9.4-1.65 2.3-.55 3.45-1.75.7-.75.95-1.75.15-.55.1-1 2.3-2.65 3.5-6.35 1.05-3.15 1.05-6.1 2-.25 3.5-1.7 1-1 1.4-2.45.35-1.45-.1-2.8-.25-.85-.75-1.4 1.45-1.15 2.65-2.75.3-.4.55-.8.75.15 1.55.15 2.25.05 4.25-.8 2.1-.9 3.25-2.5t1.45-3.8q.4-2.2 0-4.15-.5-2.15-1.95-3.4-1.95-1.65-6-1.55-.5 0-.95.05 1.35-1.45 1.45-4.9.05-.85.05-1.7l.4-.2q.75.65 1.7 1.15 1.85 1.05 3.9 1.15.55.05 1.05 0 1.5.45 3.7.6 4.15.4 6.15-.85 1.25-.75 2.85-3.1 1.1-1.65.15-2.2-1.7 2.05-4.9 2.4-1.7.15-4.3-.15.05-1.05-.45-2.3-.95-2.4-3.5-3.65-.05-.05-.1-.05.1-.2.15-.35.7.3 1.5.55 2.45.65 3.95.55 2.3-.25 3.55-1.65-1.25-1.1-2.65-1.85 2.15.75 4.05.5 1.5-.2 3.25-1.15 1.45-.7 2.15-1.8.3-.5.45-1.3h.3q2.2.05 3.35-.05 1.8-.15 3.15-.8 2.8-1.4 3.9-4.85.4-1.3.55-2.85 1.15-.3 2.4-.85 3.1-1.4 5.2-3.95.75-.95 2.2-3 .7-.85 2.2-2.3 1.55-1.55 2.2-2.3.2-.25.4-.45 1.4 0 2.95-.7l.8-.4q.45-.05.95-.05 4.4-.15 8.3-2.35 3.1-1.75 5.55-4.6.45-.3 1.05-.95.7 0 1.4-.05 1.6.75 3.55.65 2.1-.15 3.75-1.3.1-.1.25-.15 0 .25.15.5.45.95 1.4 1.3.55.2 1.85.4 1.2.15 1.8.4.55.25 1.35.9.95.75 1.35 1 1.45.8 3.25.55.9-.15 1.75-.45 1.5 2.8 3.8 2.8 1.35 0 3.1-1.3.15.15.35.25 1.6 1 3.3.8.85-.1 1.7-.5.35 1.9 1.5 3.45.15.2.35.4.5 1.3 1 1.7.6.55 1.7.9.65.25 1.2.4.187.528.4 1.05h2.25q.365.713.8 1.1.2.15 1.05.45l.6.2q.75 2.35 1.9 4.5-.6 1.2-.2 3.2.6 2.95 1.9 5.55-.25 0-.4-.05-.65-.55-1.7-1.85-1.95-2.3-2.55-3.7-.95-2.3-.35-5.05.25-.9.2-1.4-.05-.35-.35-.65-.3-.3-.65-.2-.5.65-.7 1.8l-.15 1.95-.35 2.35q-.25 1.3-.05 2.2.25 1.7 1.95 3.65.55.7 1.2 1.25-.1 0-.15.05-1.4.8-2.2 2.85-.6 1.65-.45 3.45.25 1.85 1.1 3.35 1.8 3.1 5.4 4.2.85.25 1.7.35-.55.85-.55 1.65-.1 1.1.5 2.2.25.4.6.95-1.85 3.1-2.05 3.55-1.1 2.65-.5 5.95.15.95.5 1.85l-1 3.3q-.2.3-.4.55l3.15.85q.18 1.767 1.05 3.3.434.781.95 1.45-.074 1.543-.15 4.05-.3 2.95.05 4.2.15.55.5 1.05-.05.25-.05.45 0 .55-.2 1.6-.1.75 0 1.3-.5-.25-1-.1l-.15.3v-.05h-.65l-.6 6.25q-.05 1 0 1.6v.3q-.05 1.1.45 3.1.25 1.1.6 1.95-.45.35-.6.95-.15.45-.05 1.2-1.1.85-1.45 3.2-.25 1.45-.35 2.5-.25.4-.2 1.35.2 1.6-.25 4.5-.5 3.05-.45 4.45.05 1.25.45 2.75h4.5q.277.93.7 1.95-.5.35-1.05.9-1.05 1.15-1.25 1.6-.25.5-.35 2.55-.1 1.6-.1 1.9 0 .45.1.85-.2 0-.35.05-.35.25-.55 1.2-.1.7.05 1.25.1.45.8 1.35.65.85 1.35 1.45.4.5.8.55.4.05.8-.1.75-.2.75-.7 0-.25-.2-.45-.3-.55-.95-1.2-1.15-1.15-1.3-1.65v-.15q.4.2.9.1.5-.05.8-.45l.1-.1q.25.95.9 1.8.7 1 1.8 1.55-1.1 1.6-.85 3.9.2 2.15 1.45 4.25.35.6.75 1.2-.25.1-.4.3-.25.4-.05 1.35l.8 3.7q-1.1-2.05-1.3-3.5-.1-1.95-.4-2.85-.4-1.05-1.1-1.05-.4-.05-.7.3-.3.3-.4.75-.1.55 0 1.7 0 .4-.25 1.35-.2.85-.2 1.3-.05 1.05.75 2.75l1.95 3.75q1.25 2.15 2.5 3.2-.05.55-.05 1.25.05 2.65.85 4.3.85 1.85 2.7 2.9 1.9 1.1 3.9.95 1.7-.1 2.6-1.05l.05-.05q.1.05.2.15.9.65 2.7.85.2 0 .35.05 1.45 1.65 3.3 2.3 1.65.65 4.55.35 1.9-.1 2.85-.9.45-.4.65-.95.05 0 .15-.05 1.3-.45 3.65-1.8.8.6 1.4.8 1.2.35 3.45-.15 1.5-.3 2-.95.5-.65.15-1.5t-1.15-.95q-.45-.1-1.25.15-.9.25-1.3.2l-.4-.1q0-.25-.2-.4-.2-.2-.6-.2-.3-.25-.6-.6l-.35-.45q1-1.15 1.65-2.55.55-.05 1.05-.1.25.15.55.3 1.1.45 1.55.4.6-.05 1.4-.65.3-.2.55-.4 1.05-.15 2-.65 1.3 1.55 3 2.75 2.25 1.55 4.7 2.05 2.65.55 5-.2 2.5-.75 4.15-2.9 1.65-2.25 1.4-4.75-2 1.75-3.1 2.5-1.85 1.25-3.6 1.65-2.1.5-4.4-.15-2.15-.6-3.95-2.05-.45-.35-.9-.75.5-.4.9-.85.6-.65 1.05-1.55.6-.4 1.15-.85 1.6 1.6 3.55 2.3 2.2.85 4.15.2 2.05-.65 3.95-3.1 3.85-4.9 4.35-11.4.1-1.6.05-3.15.8-1.15 1.45-2.2 1-.1 1.5-.3 1.1-.4 2.05-2.05 1.8-2.95 1.8-6.3l-.75-.35q-1.1 2.1-1.95 4.35-.55 1.5-1.2 1.9-.05.05-.1.05 1.7-4.1.85-7.4-.2-.25-.4-.45.9-.85 1.5-2.05.15-.25.3-.6.6.15 1.2.05 1.3-.2 3.05-1.95 2.45-2.45 3.3-3.95 1.5-2.7 1.05-4.95-.65-.05-1.1.65-.15.25-.5 1.3-.75 2.1-3.5 5.25-1.7 1.95-3.1 2.25.25-.9.45-2.1.55-3.25.1-5.1h.35q1.2 0 1.75-.15 1.55-.4 2.5-2.05.7-1.1 1.15-3.05-1.45.4-2.55 1.35-1.1.9-1.4 1-.6.25-1.5.35-.5.05-.9.05-.35-1.25-1-2.3.5-.6.9-1.4 1.05.4 2 .3 1.6-.2 2.9-1.7.9-1 1.95-3.05 1.6-3.2 2.3-4.95 1.05-2.85 1.15-5.25-.2-3.05.1-4.55.2-.8.65-1.95.75-1.85.75-1.9 1.45-3.95-.05-7.05l-.2-.3v-.05q.8-1.3 1.3-4.4l-2.15 1.95-.1-.3-.6.05q.1.25.1.5-.2-.3-.35-.5.35-.05.65-.15 1.5-.5 1.95-3.5.1-.7-.15-1.25-.25-.65-.75-.55-.3.1-.55.45-.25.45-.4.65-.4.45-1.1.45-.6.05-1.1-.2l.5-.2q.6-.3 1.15-1.05.05-.05.1-.05.1-.1.2-.15 1.4-.6 1.85-2.4.25-1.35-.1-3v-.5q.05-.75.1-1.2l.1-.6q.35-.25.65-.65.85-1.3.35-4.4-.6-2.85-1.6-3.9.45-1.25.35-2.15-.1-.65-.9-2.25-.7-1.4-.55-2.3.1-.4.4-.95.35-.75.45-.95.55-1.65-.75-3.2-1.05-1.2-2.95-1.55h-.1q-.05-.35-.1-.65.85.5 2.15 1.15 1.85.85 3 .7 1.05-.2 1.8-1.1.7-.95.8-2.05.2-2-1.4-4.15-.9.05-1.4 1.45-.1.35-.3 1-.2.6-.5.95-1.75-.15-3.05-1.3.35-.65.65-1.3 1.1.1 1.6.1.95.1 1.35-.15.5-.35.8-1.35.4-1.3.4-1.9 0-1.15-.75-1.7-.4.1-.65.9-.25.9-.55 1.15-.35.2-.9.2h-.45q.2-1.25-.15-2.05-.2-.15-.4 0-.25.1-.3.35-.1.3-.05.95-.05.3-.25.6h-.05q-.25-.1-.95-.5.9-2 1.4-4.15.2.1.45.15.8.2 2.4.2 1.75 0 2.35-.6.35-.3.65-1.2.35-.9.65-1.25l-.55-.75q-.35.95-1.55 1.4-.5.2-2.15.3-.95.1-1.55-.1-.15-.05-.35-.15.1-.75.15-1.45.3-.8.5-1.6.45-1.4.5-2.4.4-3.55-1.7-7.2.75-1.9.35-5.6-.7-6.05-3.7-7.85.3-1.3.25-2.05-.25-2.65-2.8-4.2-1-.6-2.3-.9-.05-.55-.15-1.05.05-.05.1-.05 2.4-.3 3.7-2.7 1.05-1.9.85-4.6-.3-3.85-2.75-5.1-.55-.2-.8-.35-.5-.2-.7-.5-.35-.5-.35-1.6-.25-3.35-2.95-5.8-1.6-1.45-3.4-2.05-.35-.65-.75-1.2.95-.3 1.7-1 1.55-1.45 2.2-4.35.55-2.3-.2-3.7-1.25-2.3-6.15-2.2.3-1 .15-1.95 1.25-3.8-.7-5.75l-1.3 2.2q-.65-.55-1.45-.9-.5-.25-1-.35-1.5-2.3-3.6-4.3l-.05-.05q.05-.25.1-.4.35-1.25-.35-3.4-1.35.55-2 1.85-.3-.2-.55-.4.1-.8.15-2 .05-1.85.25-2.7-1.3 1.75-2.3 2.9-.05-1.2-.15-2.35h-.95l-.15 2.15q-1.25-.75-2.6-1.4.15-.8.15-1.55 0-.7-.05-1.35.15-.1.35-.15l-.25-.7-.25.2q-.15-.6-.4-1.1-.7-1.5-2-2.35-.5-.3-2.45-1.05-1.5-.6-2.15-1.35-.35-.4-1-1.75-.55-1.15-1.1-1.6-.9-.7-2.75-.8-3.85-.4-5.5.9-.85.65-1.25 1.8-1.5.5-2.35.6-.2 0-.45.05-.65-.8-.9-1.3-.15-.35-.2-.75.25-.25.35-.55l.05-.05q1.45-.65 1.85-1 1.05-.85 1.95-3.25-.6-.2-1.4.3l-1.15.95q-.7.55-1.7.85v-.2q0-.5-.15-.9.55-.25 1.1-.8.85-.9 1.2-2.15.8-2.3-.15-4.55m-5.45 3.3-1.5.25-.45 1.2q-.55-.15-.75-.95.05-.85 0-1.3 0-.8.1-1 .1-.3.55-.55l1.35-1q.75-.55 1.35-.75.8-.25 2-.15.35 0 .5.15.1.1.1.55l-.2 2.35q-.1 1.15-.45 1.6-.25.45-.8.65-.5.2-1.05.1l-.75-1.15m9.9 13.05V84.4q0-.9.4-1.2.25-.2.9-.2h3.9l.75 1.2q-.25.05-1.9.25-1.15.1-1.75.5-.5.25-1 1.1-.4.65-.6 1.35l-.3-.05q-.15-.2-.2-.4-.15-.35-.2-.8m-10.9-9.35v-.1q1.6.75 2.65.85-.2.55-.25 1.1-.35 0-.75-.05.05 0 .1-.05-1.05-.85-1.75-1.75m.55 1.75q-.15-.05-.3-.05v-.1q.15.05.3.15m2.4 3.5-.2-.2h.15q0 .05.05.2m-3.6 1.05.3.3q0 .05.05.15-.2-.25-.35-.45m1.55 1.55q-.05-.1-.05-.15.9.75 1.75 1.2 1.7.9 3.6.85l.05.05q.8.8 1.5 1.2v1.1q-1.9.15-3.6.65-.75-1.1-1.7-2.35-.75-1-1.4-1.9l-.15-.65m6.65 1.75q.1-.05.2-.05v.3q-.1-.15-.2-.25m17.15 2.75q.25.3.25 1.25-.05.45-.1.8l-.45.25q-.4.25-.7.5l-1.5-.6q-.45-.15-.85-.3 0-.4.05-.85.05-1.15-.1-2.5l2.7 1.05q.55.25.7.4m20.4 26.15q-.2.3-.3.35-.15.1-.3 0-.55-.05-1.65-.7.2-.4.3-1.35.1-.85.35-1.35.1-.3.3-.45.2-.15.55-.05l2.2.2q-.35.9-.4 1.7-.05.2-.15.65l-.9 1m4 14.1q0 .3-.05.6-.15-1.2-.4-2.35.2.3.3.55.15.4.15 1.2m.2 18.9q-.5-.6-.5-.95.85.05 1.55.1.1 1.3-.1 2.6v.05q-.65-1.4-.95-1.8m-.75-2.45q-.8-.5-1.05-1.8.1-.45.25-.8 1.05.85 2 1.35.25.8.4 1.55-1.1-.05-1.6-.3m3.7-9.4q.2.3.2.55l-.05.25q-.25.75-.15 1.95l-.5.25q-.75-.5-1.45-1.25l.9-1.35.25-.3q.15-.1.8-.1m1 11.3q.8.1 1.25.6-.5 1.45-.65 2.95l-.05-.05q-.5-.65-.55-1.8v-1.7m7.8 20.9q.15.4.1 1-.25-.7-.5-1.35.1-.1.15-.2.1.25.25.55m-9.1-11.05q-.4-.3-.85-.55.25.1.55.2 2.35.75 2.85 1l-.3 1q-1.1-.9-2.25-1.65m5.9 2.85q-.45-1.7-.55-2.55-.15-1.05.45-3.15 0-.05.05-.1.5.35.95.9 1.3 1.45 1.6 3.4.6 3.35-1.2 6.2-.8-1.4-1.75-2.6.5-1 .45-2.1m-8.8-4.55q.046.046.15.1-.71-.354-1.4-.6-.5-.75-.5-1.35.75.4 1.75 1.85m10.15 32.35q.15.2.35.35-.05.1-.1.15-.15-.25-.25-.5M871 196q1.6.2 1.95.95l-1.7 3.85q.044-2.256-.25-4.8M769.75 36.65q.75-.1 1.2-.05 1.85.25 3.4 3.3.1.2.25.45l-.6-.1q-2-1.85-4.7-3.5.2-.05.45-.1m.4 11.25q.15.5.5.9-.8.2-1.25.55-.65-.85-1-1.3-3.3-4-8.4-6.95.1-.1.2-.3.3-.55.2-1.2v-.15q.1.05.15.1.5.35 1.45 1.2.85.65 1.65.65 1 0 1.4-.85.8.45 1.7.9 2.65 1.15 5.05 1.85l1.6 1.1q1.1.8 1.85.9.25.05.5.05.25.25.55.6.45.5.85.9v.25q.1.6.25 1.1-1.7-1.6-3.85-2.4-2.35-.85-3.25.4-.55.7-.15 1.7m-40.8-23.4v-.05q.2-.1.5-.15 3.1-.7 6.2-.6 0 .05.05.15.25.85 1.95 1.25 1.35.4 2.7 1.1-.45.15-.75.6-.4.55-.25 1.15.2.75 1.2 1.45-1.4-.05-2.9-.15-1.35-.1-2.55-.1-1.8-.5-3.15-.2-.35-.25-.65-.45-.1-.7-.4-1.35-1.5 0-2.15-.35-.5-.3-.65-.85-.15-.3-.1-.55l.15.15q.7.85 1.25 1.25.3-1.05-.45-2.3m16 9.05-.25-.1q.1-.05.25 0v.1m-11.9-.85q-.1-.05-.15-.1 1.45.05 3.15.75-1.6-.35-3-.65m21.95 6.15q-.05-.05-.05-.1l.15.15-.1-.05m41.8 14.65q2.1.1 2.55 1.35.3.7-.15 1.7-.25.55-.8 1.7v.1q-2.55-2.5-4.15-3.8.1-.45-.2-.9 1.35-.2 2.75-.15m-7.1 1.7q.05-.05.15-.05 2.45 1.25 4.85 3.5 1.05.95 2.2 2.25-.5.3-1.15.6-.1.05-.15.1-2.5-3.35-3.3-4.2-1.3-1.35-2.6-2.2m.55 4.9q.1.1.2.25-1-.55-2.05-1.15.05-.5.1-.95.9.8 1.75 1.85m.4 5.45q-.65-.3-1.25-.5-1.3-.45-2.75-.55-.15-1.6-.85-3.05-.05-.05-.05-.15h.1q1 1.3 1.45 1.75.45.45 3.35 2.5m6.1-2.5q.85-.25 1.4-.65.2.2.35.4.75.95 2.7 3.6-.35.5-.75.8-2-2.05-3.7-4.15M805.7 73q-.15-.6-.5-1.15.4.3.95.95-.25.8-.3 1.7-.1 1.85.6 3.4.25.65.85 1.55-.25-.3-.5-.55-.9-1-2.4-2.45.6-.3 1-1.05.6-1.2.3-2.4m-25.15-20.7q.85 0 1.15.3.2.15.35.45-.3-.1-.55-.05-.3.05-.55.2l-.4-.9m.6 9.4q.05.05.1.15.2.25.7.35h.05q.2.55.3 1.1-.65-.45-1.45-1-.1-.05-.15-.1.25-.25.45-.5m5.4-5.4.1.1q-.15.65-.2 1.35-.8-.55-1.7-1.1.65-.55 1.5-.9.1.25.3.55m-11.25-3.85q.4.7.8 1.7.9 2.15 1.15 3.4.05.15.1.4-.5-.5-.85-.7-.75-.4-1.15 0l.75 1.25q-1.7-1.75-3.95-5.05-.35-.5-.6-.95l3.75-.05M720.9 29.2q-.05-.9-.35-1.7h.25q.15.05.25.15 1.25.65 1.9 1.5-.9.3-2.05.35v-.3m-48.1-4.55h1.9q-.9.4-1.65.85-.25.05-.45.2-1.3-.1-2.3-.1v-.05q-.1-.2-.2-.35.95-.55 2.7-.55m-8.1 1.3q-1.5.2-3.2.6-1 .25-1.9.5V27q1.35-1.1 2.85-2.1 1.65-1.05 2.75-.95-.4.75-.5 1.35-.05.3 0 .65m-9.9 2.15q-2.4.5-6.05 1 5.5-3.75 10.35-3.95-.8.65-1.55 1.4-.6.65-.95 1.2-1.05.2-1.8.35m29.05 161.2q1.45-.15 2.8-.7.4.1.9.1.05.1.15.15 1.6 1.45 3.1 2-.25.4-.45.65-.75.85-2.05 1.15-.85.2-2.45.25-1.8 0-2.45-.2-.3-.05-.6-.2 2.1-.05 3.5-1.25.9-.7 1.1-1.65-1.45.8-3.2.75-1.6-.05-2.95-.85.9-.1 2.6-.2m-5.2 3.4q-.15-.15-.25-.3-.05-.2 0-.35.65.4 1.7 1.05 1.25.75 2.25 1.25-.25-.1-.5-.15-1.15-.35-1.7-.6-.95-.35-1.5-.9m36.55-21.9q-.05-.45-.25-.8.75-1.2 1-2.5 0 .3.15.55.25.65.85 1.1-.8.85-1.75 1.65m-10.1 2.85q1.35.35 2.8.35.4 0 .8-.05.4.5 1.05.85-1.6 1.8-4 2.65-1.6.55-3.2.55 1.5-1.8 2.55-4.35m-5.6 11.3q.1-1.2-.55-1.5-.2-.1-.4-.05.35-.6.6-1.2.1.05.25.1 1.55.6 3.2.65-.7 2-1.85 2.9-.6.5-1.65.85.25-.7.4-1.75m-7.85-3.45q3.15.85 6-.1.35.25.75.45-3.25.4-6.15 1.15-.4.1-.7.2.15-.85.1-1.7m71.2-25.7q.1-.1.25-.2.05.1.05.2h-.3m-1.85 3q.75.2 1.4.3-.35.45-.75.85l-.65-1.15m-10.6-1.7v-.05l.1-.2q.1 0 .2.05l-.3.2m7.15.35q.1 0 .15.05-.1.65.8 1.85.55.7 1.05 1.9-.65.2-1.3.2-1.2 0-1.6-.6-.25-.35-.25-.75 0-.5.3-1.15.35-.7.5-1.05.1-.25.15-.45h.2m6.4 5.85q-.25-.1-.55-.45.85-.85 1.7-2.05.1 1.25.6 2.4-1.05.4-1.75.1m11.45 3.05q-.15-.65-.25-1.1.05-.1.1-.15l.35-.35q.6 1 1.5 1.9l.25.25q.15.85.35 1.95l.1.5q-1.15-.45-1.55-.85-.4-.5-.85-2.15m8.2 8.2-.1-.05h.05q.042.025.05.05m6.05 11.7q0 .35-.05.6-.25-.6-.5-1.3.2.25.45.5.1.1.1.2m-4.6 5.8q.8.25 2.35.5 0 .1.1.1 1.5.95 2.75 1.15-.65 3.4-.9 6.85-1.8-.3-3-1.2-1.6-1.2-2.05-3.45-.4-2.15.75-3.95m7.3 12.75v-.05.05m-1.65 40.65-.2-2.55q.45.6 1.05 1.1-.1.2-.15.4-.4.4-.7 1.05m.5 18.45q.2.6.45 1.05-.1.55-.15 1.15-.15.45-.4.95-.1.3-.15.65-.8-2.85-.35-5.8.3 1.2.6 2m6.5 13.35q.05.05.1.15-.35.35-.7.9-.15.3-.3.8-.15.15-.2.45l-.3.3q-.45-.5-.8-1v-.05q0-1.05.25-1.5l.65-.65q.063-.049.1-.1h.7q.241.367.5.7m-5.65-2.05q.3.7.7 1.35h-.7q.3-.3.2-.7-.05-.25-.75-.75-.8.35-1.45.95-.1.1-.15.2-.25-1.05-.4-2.45l-.25-2.3q.4.75.85 1.55.95 1.55 1.95 2.15m.15 8.95q-.3-2.5.65-3.45l.55-.4-.05.7q0 1.05.25 1.5 0 .05.05.1-.85 1.3-.95 2.95v.4q-.1-.2-.15-.35-.25-.45-.35-1.45M669.65 219.4q-.1-1.3-.5-2.5h3.4q.5 0 .65.2.1.1.1.45.1 2-.25 3.1-.25 1.05-1.05 1.35l-.75.15q-.9.05-1.65.1.2-1.4.05-2.85m-20.35 37.05h.1l-.1.4v-.4m-1 4.2q.2.2 0 .75-.45 1.1-.8 1.45-.3.3-.9.65-.85.4-1.35.25-.45-.15-.9-.65l-.5-.7q-.1-.15-.1-.3 2.2-.4 3.65-1.6h.3q.45 0 .6.15m151.55 45.4-.2-.9q-.283-1.463-.45-2.3.467 1.237 1.35 3.15-.4-.05-.7.05m71.85-99.35q-.25-.05-.45-.05-.5-.05-.95-.05.35-1.1.55-2.25.8 0 1.3-.25.1 1.3-.15 1.85l-.3.75m1.25 4.2q.3-.2.55-.5-.05.3-.15.65-.3 1.3-.2 2.2-.7.1-1.25-.05 0-.7-.2-1.65.65-.2 1.25-.65m-.6 6.55q-.15.3-.25.6-.15.3-.25.6-1.05.5-2.3.3-.1 0-.2-.05-.3-.65-.55-1.65l-.1-.4q.1-.05.2-.05.45-.05.85-.25.45.25.95.45.8.35 1.65.45m-2.95-6.05h.05q.25.1.55.15-.1.2-.15.4-.25-.25-.45-.55m-3.35 1.9.1-.1q.1.15.25.35v.15q-.25-.05-.5 0v-.25l.15-.15m3.9 16.1q-.1-.5-.2-.95.5.45 1 .8.25.15.5.35-.7-.15-1.3-.2m.75 10.95q-.55.4-1.55.2.8-3.05 1-5.85.5.2.9.25.25.05.5.05v.25q.2 1.4.05 3.1-.1 1.5-.9 2m-2.3 11.55q0 1.3-.1 1.65-.2.7-1.2 1.8-.7.6-.95.65-.4.1-.95-.1.05-.25.05-.35.2-2-.7-3.65 1-2.05 1.8-3.75.6 0 1 .2.8.4 1 1.6.05.35.05 1.95m-3.8 6.65q.75.45 1.85 1-1.15 1.25-2.35 1.2.2-.9.5-2.2m-6.55 24.8q-.4-.05-1.1-.45v-.2q.6-.1 1.2-.25 0 .5-.1.9m-12.2 20.2q-.4-.15-.65-.35.45-1 .6-2.1.75-1.15 1.25-1.9 1.6.45 3.05.3-.1.15-.2.35-.95 1.85-1.1 2.05-.95 1.2-2.65 1.75l-.3-.1m-29.5 16.65q.75-.05 1.55-.15.3.1.6.15 3.25.75 6.2-.65l.1.1q-.45.15-.9.35-2.75 1.2-4.4 1.4-1.9.25-3.75-.45.3-.35.6-.75M615.4 36.9q-1.15-.35-1.7-1.05-.3-.4-.35-.95-.05-.55.25-.95 5.85-.65 11.4-.45-4.8 1.45-9.6 3.4m-6.1-1.95q0 .3.05.65.2 1.35 1.05 2.5-.6.15-1.1.4-.85.4-1.6 1.05-3.55-1.05-6.35-1-.35 0-.65.05.05-.2.1-.35.35-.85 1.65-1.65 2.35-1.4 5-1.65-1.65.8-3.25 1.7l.25.55q1.7-.65 4.85-2.25m26.85-5.45q.25.3.5.55-.4.4-.75.9-3.25.55-6.55 1.35.15-.25.35-.45.15-.1 1-.35l3.55-.55q1.2-.2 1.65-.7.3-.35.25-.75M573.4 49.45q3.3-1.3 6.75-.9-1.05.75-2.05 1.6l-2.3 2.35q-1-1.05-2.35-1.7-.9-.4-2-.55.75-.3 1.95-.8m20.25-9.65q-.6-1.25-1.1-1.55 3.25-.7 6.1-1.55-.4.8-.45 2.25-1.8.4-3.3 1.3-.6-.1-1.1-.15l-.15-.3m-3.45.25q-.5-.3-1.05-.55.1-.05.2-.05.95-.2 2.95-.25.25.25.5.8-1.3-.1-2.6.05m5.85 3.45q.5-.4 1.2-.65.65.05.8.05 1 0 1.7-.3.35.1.75.2 1.2.25 1.75.45-.65.35-1.25.7-1.65-.25-2.7-.35-1.15-.1-2.25-.1m8.15-1.3q-.8.4-1.5.8 0-.1-.05-.25-.15-.3-.35-.55.95-.05 1.9 0m-30.85 12.7-1 1q-2.95 3-5.55 4.35.4-2-.4-5.1 4.65-1.5 6.95-.25m-18.75-6.2q-.05-.05-.15-.05.25-.1.55-.25 5.05-2.15 10.6-1.6-.05 1.45.95 2.55.4.45.85.75-1.25.05-2.7.3-2.1.4-2.8.45-1.55.2-2.75-.15-.85-.2-2.25-.95-1.6-.8-2.3-1.05m-33 26.05q-1.75 1.35-3.9 3.2-3.85 3.35-5.85 4.85-.95 0-1.55-1.05-.2-.4-.2-.95l3.55-.25q.4 0 .7-.15.5-.3.2-.65-.85.1-3-.15-.7-.1-1.3-.05.45-1.45 1.7-2.55 1.15-1.1 2.75-1.6 2.2-.75 6.4-.65h.5m38.75-16.55q-.05-.5 0-.7l.25-.45 1-1.3q.4.1.65.5l.45.75.1.45q0 .3-.2.75h-2.25m-8.7 4.15q1.25.5 1.45 1.35.1.35.1 1.05-.95.5-2.15 1.25-2.1.15-5 .55l.1-.1q.75-.75.8-1.8.1-1.1-.55-1.8 2.5-1.55 5.25-.5m-81.8 59.8q.85-.75 3.35-1.8l7.35-2.9q-.45.65-.9 1.25-1.25 1.65-3.95 4.1-2.6 2.35-3.75 3.65l-.4-.2q-2.1-.9-3.9-.65-.1 0-.15.05l.2-.4q1.25-2.3 2.15-3.1m-6.55 12.1q-.4-1.8.9-3.5.65-.8 1.45-1.3.85.8 1.85.65-.6-.5-.75-1.25.25-.1.6-.2 1.4-.35 3.1-.3-1.95 2.8-3 6.35-.3-.05-.6-.05-2.4-.05-3.55-.4m-4.2 5.7q.45-1.2 1.4-2.05 1.05-.9 2.25-.85 2.2 1.3 3.8 2-.15.6-.2 1.25-.05.6-.1 1.3-1.1.3-2.65 1.2-1.55-.6-3.35-.2-.85.15-1.6.5.05-2.1.45-3.15m1.05 5.3q.05 0 .15-.05-.8.7-1.3 1.35-1.4 1.9-1.95 4.75-.15.8-.25 1.9-.65-.1-1.15-.1l.1-.7q.6-2.75 1.4-4.3 1.1-2.2 3-2.85m5.95-8.8h.9q-.15.65-.25 1.3-1.5-.6-3-1.05.75-.25 2.35-.25M463.8 154h-.1q-.2-.1-.45-.2t-.45-.15q.05-2.3.65-3.45.7-1.25 2.8-2.65.1 2 .3 4.25-1.6.7-2.75 2.2m-7.4 4.5q-.3-.15-.6-.25-.4-.9-.45-2.2.6-.15 1.3-.15-.05.35-.05.75v1.5q-.05.2-.05.4-.1 0-.15-.05m-6.1 22.3q-.05 0-.1-.05-.25-.2-.45-.4.25.2.55.45m-19.5 20.95q.7.75 1.5 1.4.05.85.3 1.45.25.55.7 1.15-.25.55-.4 1.1-.3.95-.45 3-.15-.2-.25-.35-2.15-2.95-2.2-6.85 0-.9.1-1.75.3.4.7.85m.1 19.85q-1.35-1.2-3.2-1.75-.3-.1-.55-.15-.2-.55-.45-1h-1.3q-.2.35-.3.75-.5 0-1 .05-.2-2.8.95-5.5.95-2.35 2.75-4.05 1.25 2.15 3.35 3 .65.25 1.1.2l-.15 4q0 3.85.65 5.45.35.9 1.15 1.95l-.85 1.05q-1.85 2.55-1.95 4.1 0 .2.05.45-.95-.3-1.8-1.05-1.6-1.35-1.9-3.6-.05-.35-.05-2.05 2.45-.4 3.5-1.85m1.55 32.95q.8 2.3 2.55 4.05.65.65 1.35 1.2-.2.65-.3 1.3-.7-.4-1.1-.7-.95-.75-1.35-2.8-.3-1.2-.65-1.7-.8-.9-1.6-.55-.55.7-.2 2.55.15.55.3 1.05-.85-.25-2.05-.35-.45-2.9.1-5.95.55-3.1 2.35-3.95-.2 3.5.6 5.85m2.45 17.25q.05-.75.15-1.5.8-1.4 2.05-2.95.5.6 1.2 1.1 1.4 1.05 3.2 1.5l.25-.55q-1.2-.8-2.6-3.25-.8-1.4-.85-2.25-.05-.7.45-2 .15-.35.25-.7 2.05.7 4.1.5l-.2.9q-.9 4.8.3 9.05 0 .1.05.15-.2 1.4-.4 2.95l-.2 1.7q-.35-.05-.75-.15-2.2-.55-3.3-.75h-.1q.15-.85.4-1.7.4-1.2.3-1.85-.1-.45-.4-.8-.35-.4-.8-.4-1 0-1.55 1.7l-.7 2.2-.1-.1q-.85-.85-.75-2.8m1.5-5.55q-.2.1-.35.25.1-.4.2-.6.05.15.15.35m2.55 16.2q-.75-.7-.9-2.1 2 .2 4.3-.55-.15 1.85-.25 3.65-.2 0-.4-.05-2-.2-2.75-.95m-5.1-3.75q.15.05.3.15.1.05.2.15-.1.35-.2.75-.15-.45-.25-.85-.05-.1-.05-.2m1 17.1q-.55-.7-.75-1.05-.65-1.2-.65-3.6-.1-3.6.55-5.7.15.25.35.45.85 1 2 1.45.7.3 1.4.3 1.85.8 4.2.75-.2 17.35 4.8 31.35-.25-.25-.4-.45-.65-.7-2.65-2.5-1.7-1.5-2.55-2.6-.8-1.05-1.2-2.2 1.2.9 2.5 1.6.3-.4-.35-1.15l-2.55-2.55q0-1.35.65-2.4.2-.35.9-1.2.6-.7.8-1.2.3-.7.05-1.45-.3-.8-1-.85-2.35 1.5-3.55 3.9-.2.35-.3.7-1.9-2.05-3-3.7-1.3-1.8-1.4-3.35-.05-.65.25-2.2 1 1.3 1.95 1 .6-.2.8-.9.15-.65-.15-1.35-.2-.45-.7-1.1m21.55-13.25v.7q-.2-.35-.35-.7h.35m-2.8 55h.7l1.85.2q.4.15.6.45.65.85.65 2.45 0 1.4-.3 2.05-2.15.05-4.5-.65-.85-.35-1.15-.65-.65-.8-.1-1.9.3-.65 1.35-1.45.55-.45.9-.5m19.8 7.45q.2.3.7 1.2-1.8-1.9-4.45-3.7h.05q1.4.3 2.3.9.75.55 1.4 1.6m160.9-74.2q-.2 0-.4.05l-.1-.4q-.1-.5-.2-.95.9.35 1.6 1.05-.4.15-.9.25m4.65 9.35q.4.15.75.15t.7-.15q-.15.25-.25.4-.15.35-.5 1.5-.3.95-.65 1.4-.5.7-1.4 1-.3.1-.6.15l.3-.7q1.05-2.3 1.65-3.75m-4.2.3q.05-.15.15-.25 0 .1-.05.25-.1.3-.5.95-.35.5-.4.9H633.5q.9-1.2 1.25-1.85m-2.8 7.85q-.8-.4-1.4-.85.25-.45.5-1 .6.05 1.3.15-.1.25-.2.8-.1.6.05 1.05-.15-.05-.25-.15m-3.65 4.45q.15-.3.25-.55h.15q.4 1.15.4 1.25v.35q-.4.15-.9.3.1-.75.1-1.35M487.9 331.1l.4.1q-.45.25-.85.5.2-.3.45-.6m21.25 29.55q-.15-.05-.3-.05.15-.1.35-.2-.05.1-.05.25m16.05 8.8q-1.4 1.05-2.95 1.3-.55.1-1.05.05-.3-.7-.4-1.5 1.4-1.05 2.4-2.8 1.6 1 3.25 1.85-.9.8-1.25 1.1m13.5 6.6q-.4-1.05-.3-2.05.85-.4 1.6-.95l.1.1q-.65 1.75-.85 4.05-.35-.6-.55-1.15m-3.45-1.45v.4q.05 1.65.65 2.95-.45-.45-.85-1-.8-1.15-1.1-2.45.7.05 1.3.1m21.95-1.95q-.25.45-.3.75h-3.95q-.4-.5-.75-1.05-.1-.15-.2-.35.1-.15.3-.3.5-.3 1.05-.65 1.45 1.6 3.15 1.6h.7m71.65-64.75q.05.05.15.05 0 1.05-.05 1.75v.15q-.4 1.45-1.35 2-.5.3-1.25.35l.3-1q.35-1.15.6-1.95 1.05-.35 1.6-1.35m2.35 9q-1.15 2.45-3 4.25l-.15-2.35q-.05-1.2-.2-2 .4-.05.8-.2 1.25.1 2.55.3m3.4 4.4q-.05-.1-.1-.15.55-1.25.85-2.55 0-.05.05-.1 1.05.9 1.6 2.5.75 2.05.5 4.6-.45 4.9-3.05 7.8-.6.7-1.3 1.2-1.05-1.05-1.4-2.15.55-.6 1.1-1.3-.1.4.15.7.4.3.85.05.35-.2.6-.65 2.3-3.65 1.2-7.65-.35-1.5-1.05-2.3m-8.25 13.7q-.3.25-.55.55-1-.45-1.85-1.25 1.35.5 2.7.5l-.3.2m-4.1 2.35q-.15-.4-.35-.7l.7.6q-.15.1-.25.25-.05-.1-.1-.15m4.25 3.35h.4q0 .05.05.1-1.25.05-2.15.7.4-.7 1.7-.8m7.75-15.5q-.05 0-.05-.05-.35-1.35-.55-2.05.45 1.05.6 2.1m-5.9 1q.55.15 1.1.05 1.1-.15 2.5-1.55.2-.2.4-.45-.25 1.9-1.2 3.5-.4.45-.85 1.1-.2.25-.35.5-.7.7-1.55 1.15-.6.3-1.15.45.65-1.2.9-2.8.15-.8.2-1.95m5.05 12.4q-.05 0-.05-.05l.2-.1q.05.05.15.1-.2 0-.3.05m3.05 3.2q.55-.35 1.1-1 .15.05.3.15 1.7 1 2.65 1 .75.05 1.45-.3 0 .55-.05 1.35-.2 3.15-2.05 4-.9.5-2.2.25-.15-.25-.25-.5.5-.95.3-1.7l-.8.9q-.35-.45-.7-.85-.95-1.05-2.45-1.95v-.45q1.8-.25 2.7-.9m-54.55 30.15.3-.3q.15.35.35.65.4.55 1.3 1.15.2.6-.1 1.1-.4.85-2.2 1.05-3.4.35-4.65.25-1.05-.1-1.8-.4.5-.1 1-.25 3.5-.9 5.8-3.25m7.05-.55q1.5.1 4 .4.15.8.15 1.65-1.4.3-4.05-.7-1.85-.75-3-1.45 0-.05-.05-.1 1.2.1 2.95.2m41.9-15.15q1.25.2 1.9-.15.45-.2.75-.6.05-.05.05-.1.1-.05.25-.05-.15 1-.6 2.05-1.55.55-3.15-1.25l-.05-.05q.4.1.85.15m4.55 8.55q.6-.15 1.2-.4.35.6.85 1.15-.7.6-1.3.95-1.15.7-3.05 1 .25-.35.55-.7.7-.9 1.25-1.9l.5-.1m3.4 3.45.8-.8h.05q.25.15.55.35-.6.25-1.4.45m-23.55-8.4q-.15-.3-.3-.5 0-.05.05-.15.15.05.3.15-.05.25-.05.5m9.15 4.85q.6-.3 1.15-.75l.2.1q.05 0 .05.05-.15.4-.05.9.05.3.25.75-1.2.4-2.4.7-.8-.5-1.65-1.1 1.3-.1 2.45-.65m-6.5 2q.05-.1.15-.2l.25.25q-.2-.05-.4-.05Z" id="hair_23_fill_svg__a"></path></defs><use xlink:href="#hair_23_fill_svg__a"></use></svg>