<svg xmlns="http://www.w3.org/2000/svg" xmlns:xlink="http://www.w3.org/1999/xlink" preserveAspectRatio="none" viewBox="0 0 1500 1500" fill="#2f1b12"><defs><path d="M613.6 285.8h.1q-.05-.253-.1-.55v.55m110.95-39.45-1.55-10.3q-25.743-5.018-49.2 3.05l-1.7 7.9q.297-.987 24.65-4.3 4.635-2.393 27.8 3.65m69.15-3.95q.543-2.719-11.15-5.25-11.68-2.531-31.4.2v8.5l35.85-2.6q3.018.786 6.5 2.35-.306-.427.2-3.2m6-16.9q.014.573 0 1.15.077-.575.15-1.15h-.15M688.1 96.9q-4.289 1.615-20.6 1.8-47.812 9.454-54.3 17.1-14.454 8.893-17.55 21.9-3.05 13.06-1.2 24.1-.777 14.948 5.65 48.95-.203.577-.25 1.4-.15 2.4.05 4.55l.35 2.5q1.1 7.2 1.75 9.95.85 3.45.95 4.3.094 1.17.3 1.75-.15.62-.15 1.45-.05 2.65.7 6.6 1 5.9 1.1 6.6.2 2.05.5 3 .2.7.65 1.65.252.588.55 1-.102.122-.2.25-.85 1-.85 2.1.05.6.25 1.75-.05.5-.25 1.45 0 .5.25 1.15.15.35.45 1.1.15.4.3 1.35.15.85.35 1.3.65 1.5 2.25 1.85-.1 2.9 1.9 5.2l.65.75.45 1.05 2.5 7.3q.4 1.35.8 1.75.247.288.55.45.034.074.05.15v.1q.012.078 0 .15 0 .729.4 1.65.256.758.55 1.15.098.128.2.2.992 1.756 2.4 3.75l.8 1.05q.1.1.95.7.305.928.6 1.85 9.546 10.957 15.1 11.95l-.4-1.8q.026-.016.05-.05.25-.3.35-1.15.6-3.65-1.2-8.55-.45-1.4-.5-1.9l.05-1.5q0-1.15-.8-3.35-.95-2.65-2.55-8.05l-1.4-4.6q-.553-2.102-.75-3l-.05-.15q-.014-.162-.05-.35-.07-.36-.15-.75-.494-2.607-.95-5-2.696-15.107 1.2-27.2 3.89-12.096 5.95-16.7 2.056-4.62 2.8-8.6.734-3.919 4-13.85 3.271-9.885 2.25-17.85-.244-2.129 1.05-2.95 2.565-3.664 32.1-.35l30.2.05q15.281.293 23.1.25 18.999-.148 29.4-.9 10.453-.757 15.1-1.3 3.08-.312 21.65-6.5 4.101-16.732 2.8-32.55-1.31-15.77-3.6-16-4.195-6.85-21.5-13.7-31.03-13.395-37.85-10.9-28.105-3.1-36.55-2.8-8.406.342-12.7 1.95Z" id="hair_19_fill_svg__a"></path></defs><use xlink:href="#hair_19_fill_svg__a"></use></svg>