<svg xmlns="http://www.w3.org/2000/svg" xmlns:xlink="http://www.w3.org/1999/xlink" preserveAspectRatio="none" viewBox="0 0 1500 1500" fill="#2f1b12"><defs><path d="M628.1 136.95q31.1-19.75 58.8-17.25 8.95 1 16.6 5.45 21.5 12.4 32.85 52.45m-2.45-90.1q38.75 6.55 47.55 33.85 2.05 6.4 2.9 13.45 1.15 10.9-.55 23.15-1.05 7.2-3.15 14.85m-138.9 46.6q-1.4 2.7-2.8 5.35-12.3 22.3-35.85 40.8-.65.5-1.3 1.1-10.65 7.55-21.1 8.95m71.9-93.95q-5.75 17.75-27.75 30.05L598.5 228q-1.4.9-2.65 1.85-23.4 16.45-19.8 35.65" id="hair_17_fill_svg__b" stroke="#A66A2B" stroke-width="2" stroke-linejoin="round" stroke-linecap="round" fill="none"></path><g id="hair_17_fill_svg__a"><path d="M681.95 238.4q-17.65-.45-24.85 13.3 10.45-7.75 26.2-5.35l42.15 7.55-.9-9.3-42.6-6.2m69.35 5.2-.15 2.25q-.35 3.55-.8 7.2v.95l34.6-8.05q6.85-1.45 12.9 1.85-4.1-8.35-14.65-8.95l-31.9 4.75Z"></path><path d="m656.5 171.7 1.05.1q37.101 8 64.95 8.25 27.844.3 40.2-.15 12.362-.446 16.7-.55 4.383-.061 7.1 6.9 3.096 8.129 4.05 10.15 1.003 2.016 1.5 5.15.546 3.198 1.75 9.1 1.21 5.892 2.9 16.7 1.688 10.862 3.55-2.25 10.766-30.699 1.4-64.65 22.4-36.6-21.1-67.25-35.35-23.55-76.8-28.4 12.4 6.65 27.5 19.95Q701.7 82.1 674 95.85q-23.45 11.05-53.3 13.35 1.95 8.8 20.15 12.6l-48.1 46.45Q559.95 202 565.2 239.3q2.6 14.35 9.4 28.3 2.75 5.8 5.15 9.7 5.6 8.95 11.2 16.15 20.15 24.95 37.2 16.4v-2.2q-.1-13.75.7-26.1.9-13.05 2.8-24.4 1.2-7.55 2.9-14.3 3.3-9.1 7.45-19 1.25-3.05 2.6-6.25 1.5-3.65 3.2-7.35 3.8-8.45 5.95-17.7 1.6-6.8 2.3-14.1.25-3.3.45-6.75m30.4-52q8.95 1 16.6 5.45 21.5 12.4 32.85 52.45-11.35-40.05-32.85-52.45-7.65-4.45-16.6-5.45-27.7-2.5-58.8 17.25 31.1-19.75 58.8-17.25m94.55 1.65q2.05 6.4 2.9 13.45 1.15 10.9-.55 23.15-1.05 7.2-3.15 14.85 2.1-7.65 3.15-14.85 1.7-12.25.55-23.15-.85-7.05-2.9-13.45-8.8-27.3-47.55-33.85 38.75 6.55 47.55 33.85m17.85 85.45q.025.262.05.5v.1q-.029-.288-.05-.6m-157.55 12.6q-1.4 2.7-2.8 5.35-12.3 22.3-35.85 40.8-.65.5-1.3 1.1-10.65 7.55-21.1 8.95 10.45-1.4 21.1-8.95.65-.6 1.3-1.1 23.55-18.5 35.85-40.8 1.4-2.65 2.8-5.35M598.5 228q-1.4.9-2.65 1.85-23.4 16.45-19.8 35.65-3.6-19.2 19.8-35.65 1.25-.95 2.65-1.85l26.35-16.3q22-12.3 27.75-30.05-5.75 17.75-27.75 30.05L598.5 228Z"></path><path d="M799.35 207.3q-.025-.238-.05-.5.021.312.05.6v-.1Z"></path></g></defs><g><use xlink:href="#hair_17_fill_svg__a"></use><use xlink:href="#hair_17_fill_svg__b"></use></g></svg>