<svg xmlns="http://www.w3.org/2000/svg" xmlns:xlink="http://www.w3.org/1999/xlink" preserveAspectRatio="none" viewBox="0 0 1500 1500" fill="#2f1b12"><defs><path id="hair_17_outline_svg__a" d="m645.1 117.65-4.25 4.15-48.1 46.45Q559.95 202 565.2 239.3q2.6 14.35 9.4 28.3 2.75 5.8 5.15 9.7 5.6 8.95 11.2 16.15 20.15 24.95 37.2 16.4v-2.2q-.1-13.75.7-26.1.9-13.05 2.8-24.4 1.2-7.55 2.9-14.3 3.3-9.1 7.45-19 1.25-3.05 2.6-6.25 1.5-3.65 3.2-7.35 3.8-8.45 5.95-17.7 1.6-6.8 2.3-14.1.25-3.3.45-6.75m1.05.1q37.1 8 73.8 7.8 19-.146 31.325-.625 12.312-.484 18.375-.925.298-.203.575-.4l.025-.025v.025q14.647-9.972 20-17.2 22.4-36.6-21.1-67.25-35.35-23.55-76.8-28.4 12.4 6.65 27.5 19.95Q701.7 82.1 674 95.85q-23.45 11.05-53.3 13.35 1.95 8.8 20.15 12.6m140.775 55.85h.025q5.934 9.926 9.95 24.675 4.028 14.752 6.35 27.925 13.3-35 3.7-69.8m-3.7 69.8q.031.152.05.3m-13.05 15.4q6.85-1.45 12.9 1.85-4.1-8.35-14.65-8.95l-31.9 4.75-.15 2.25q-.35 3.55-.8 7.2v.95l34.6-8.05ZM657.1 251.7q10.45-7.75 26.2-5.35l42.15 7.55-.9-9.3-42.6-6.2q-17.65-.45-24.85 13.3Z" fill="none" stroke="#000" stroke-width="2" stroke-linejoin="round" stroke-linecap="round"></path></defs><use xlink:href="#hair_17_outline_svg__a"></use></svg>