<svg xmlns="http://www.w3.org/2000/svg" xmlns:xlink="http://www.w3.org/1999/xlink" preserveAspectRatio="none" viewBox="0 0 1500 1500" fill="#2f1b12"><defs><path id="hair_14_outline_svg__a" d="M718.15 205.75q-1.75-2.6-6.65-2.9-8.65-.6-14.45 2.5-2.25 1.25-2.75 2.6-.3 1 .35 1.95.45.85 1.25 1 0-.1.15 0 4.75.55 13.1.55 3.75 0 6.8-.8 2.2-.85 2.6-1.8.5-1.3-.4-3.1m54.75 4.7q1.35-.35 1.55-.55 1.2-1.1 0-3-1.05-2.35-5.85-3.1-3.25-.4-4.3-.4-3.8-.3-6 1-.25.1-2.55 1.75-1.5 1.6-1.75 2.15-.45 1.5.5 2.75.6.95 1.55 1.25.15-.1.3-.1.3 0 .55.1 5.25.4 11.7-.85 1.95-.3 4.3-1M647.8 360.5q-.078.056-.2.1h.05l.15-.1m-24.85-97.05q-.019-.29-.05-.6-6.999-5.214-9.65-9 .221 3.603 1.05 7.65 1.65 8.3 8.1 15.5.833.924 1.65 1.7-.437-5.966-.8-12-.2-1.6-.3-3.25m34.35 91.3q-3.033 2.315-6.25 4.1-1.554.886-3.2 1.6l-.05.05-.15.1h-.05q-5.04 2.348-10.5 3.45-11 2.15-19.1.05 2.35-3.65 4.5-7.55 4.85-8.9 5.85-19.2 1.1-10.7-.7-21.45-2.197-18.412-3.6-37.2-.817-.776-1.65-1.7-6.45-7.2-8.1-15.5-.829-4.047-1.05-7.65-.539-.777-.9-1.5-5.3-10.45-8.85-20.1-.109-.28-.25-.55-3.444 1.158-6.95 3.05-3.95 1.8-7.55 4.6-6.85 5.4-13.65 17.3-6.75 11.9-9.6 29.85-2.75 16.3-.9 34.3.95 9.75 3.15 20.4.6 2.85 1.35 5.75 1.7 10.65 7.1 30.8 5.5 20.2 7.5 33 1.85 12.7-6.8 28.75 6.8-.55 18.95-1.45 12.05-1.1 26.6-5.5 14.4-4.4 25.4-11.35 11-7.05 15.05-19.2 3.3-10.1 3.25-27.85l-.1-3.7q-.1-1.95-.1-3.85-.43-10.393-1.05-20.25-2.649 4-7.6 8.4m94.8-195.1q6.72-1.54 12.9.55 6.185 2.08 17.35 18.8 11.208 16.776 13.2 34 2.001 17.223 1.75 38-.204 20.79 2 38.05 2.196 17.31 3.05 27.05.904 9.783 4.9 24.05 3.604 12.898 14.95 17.95-20.13-59.562-10.6-126.25 9.532-66.699-34-87.85-25.2-1.5-33.8 17.3.773-.025 2.8-.4 2.032-.415 5.3-1.2.095 0 .2-.05m-78.5 14.9q7.403-11.496 14.45-15.4 7.09-3.854 10.4-5.1 3.315-1.248 12.8-2.75 9.474-1.447 23.8 2.95 3.35 2.25 8.05 6.6.146-.33.3-.65-22.25-29-55.35-16.6-30.7 16.3-36.4 49.55-4 23.35-1.5 50.85 3.15 25.75 6.4 55.15 3.647 33.125-5.5 59.7 3.217-1.785 6.25-4.1 4.951-4.4 7.6-8.4 2.426-3.615 2.95-6.9.95-7.05.45-9.65-5.35-92.2-3.9-114.7 1.801-29.053 9.2-40.55M699 105.5q7.5.9 14.25 3.8 18.057 7.554 28.05 20.9 1.179 1.584 2.25 3.25.745-1.6 1.6-3.25 2.64-5.001 6.85-9.55 5.231-5.85 12.6-10.55-39.044-13.59-70.6-12.3-15.7.65-29.05 4-20.702 12.04-35.6 28.4-8.493 9.323-15.1 20.05-12.7 20.4-18.75 45.25.8 15.95 6.2 32 .672 1.838 1.55 4.2.141.27.25.55 3.55 9.65 8.85 20.1.361.723.9 1.5 2.651 3.786 9.65 9-.846-13.922-.65-40.85-2.65 11.65-7.3 22.55 4.65-10.9 7.3-22.55 0-15.95.35-36.3 3.8-15.85 11.55-29.65 8.404-14.718 20.85-25.85.381-.327.75-.65 13-11.45 24-16.75 10.9-5.3 19.25-7.3m119.85 35.15q-4.122-5.619-8.5-10.45-9.065-9.993-19.25-16.65-.862-.551-1.75-1.1l-1.35-.85q-7.367-4.608-10.7-5.65-3.95-1.15-11.9 3.7-.386.237-.8.45-7.369 4.7-12.6 10.55-4.21 4.549-6.85 9.55-.855 1.65-1.6 3.25-1.071-1.666-2.25-3.25-9.993-13.346-28.05-20.9-6.75-2.9-14.25-3.8-8.35 2-19.25 7.3-11 5.3-24 16.75-.369.323-.75.65-12.446 11.132-20.85 25.85-7.75 13.8-11.55 29.65-.35 20.35-.35 36.3-.196 26.928.65 40.85.031.31.05.6.1 1.65.3 3.25.363 6.034.8 12 1.403 18.788 3.6 37.2 1.8 10.75.7 21.45-1 10.3-5.85 19.2-2.15 3.9-4.5 7.55 8.1 2.1 19.1-.05 5.46-1.102 10.5-3.45.122-.044.2-.1l.05-.05q1.646-.714 3.2-1.6 9.147-26.575 5.5-59.7-3.25-29.4-6.4-55.15-2.5-27.5 1.5-50.85 5.7-33.25 36.4-49.55 33.1-12.4 55.35 16.6v-.05q.186.592.4 1.15 8.6-18.8 33.8-17.3 43.532 21.151 34 87.85-9.53 66.688 10.6 126.25 1.25.561 2.6 1 13.544 4.686 13.45 4.4-2.45-5.6-4-12-2.15-9-2.85-23.05-.1-1.55-.2-3.15-.111-2.534-.15-5.35.003-.496 0-1-.077-10.415.85-24.55.062-.547.1-1.1.4-5.65.9-11.9 2.25-27.75 3.8-60.7.097-2.217.15-4.4.504-18.46-1.75-34.55-1.414-10.423-4-19.85-4.85-11.15-12.25-21.25Z" fill="#764840" fill-opacity="0"></path><path id="hair_14_outline_svg__b" stroke="#000" stroke-width="2" stroke-linejoin="round" stroke-linecap="round" fill="none" d="M743.1 160.85q-4.7-4.35-8.05-6.6-14.326-4.397-23.8-2.925-9.485 1.477-12.8 2.725-3.31 1.246-10.375 5.125-7.072 3.88-14.475 15.375-7.399 11.497-9.2 40.55-1.45 22.5 3.9 114.7.5 2.6-.45 9.65-.524 3.285-2.95 6.9.62 9.857 1.05 20.25 0 1.9.1 3.85l.1 3.7q.05 17.75-3.25 27.85-4.05 12.15-15.05 19.2-11 6.95-25.4 11.35-14.55 4.4-26.6 5.5-12.15.9-18.95 1.45 8.65-16.05 6.8-28.75-2-12.8-7.5-33-5.4-20.15-7.1-30.8-.75-2.9-1.35-5.75-2.2-10.65-3.15-20.4-1.85-18 .9-34.3 2.85-17.95 9.6-29.85 6.8-11.9 13.65-17.3 3.6-2.8 7.55-4.6 3.506-1.892 6.975-3.05-.903-2.362-1.575-4.2-5.4-16.05-6.2-32 6.05-24.85 18.75-45.25 6.607-10.727 15.1-20.05 14.898-16.36 35.6-28.4 13.35-3.35 29.05-4 31.556-1.29 70.625 12.325l.775-.475q7.95-4.85 11.9-3.7 3.333 1.042 10.7 5.675l1.35.825q.888.549 1.775 1.125 10.16 6.632 19.225 16.625 4.378 4.831 8.5 10.45 7.4 10.1 12.25 21.25 2.586 9.427 4.025 19.85 2.23 16.09 1.725 34.55-.053 2.183-.15 4.4-1.55 32.95-3.8 60.7-.5 6.25-.9 11.9.088.526.2 1.1.874 4.934 2.8 13.4 1.211 5.353 3.925 11.15.231.498.475 1 1.941 4.02 4.6 8.25m-229.05-83.65q4.65-10.9 7.3-22.55 0-15.95.35-36.3 3.8-15.85 11.55-29.65 8.404-14.718 20.875-25.85.356-.327.725-.65 13-11.45 24-16.75 10.9-5.3 19.25-7.3 7.5.9 14.25 3.8 18.057 7.554 28.05 20.9 1.179 1.584 2.25 3.25.745-1.6 1.6-3.25 2.64-5.001 6.85-9.55 5.231-5.85 12.625-10.525M743.4 160.2q-22.25-29-55.35-16.6-30.7 16.3-36.4 49.55-4 23.35-1.5 50.85 3.15 25.75 6.4 55.15 3.647 33.125-5.475 59.7 3.192-1.785 6.225-4.1 4.951-4.4 7.6-8.4M832 293.3l-.075 1.1q-.952 14.135-.875 24.55.003.504 0 1 .039 2.816.15 5.35.1 1.6.2 3.15.7 14.05 2.85 23.05 1.55 6.4 4 12 .094.286-13.45-4.375-1.35-.464-2.6-1.025-11.346-5.052-14.95-17.925-3.996-14.292-4.875-24.05-.879-9.765-3.075-27.05-2.204-17.285-1.975-38.075.226-20.777-1.775-38-1.992-17.224-13.175-33.975Q771.185 162.28 765 160.2q-6.18-2.09-12.9-.525-.105.025-.2.05-3.268.76-5.3 1.175-2.06.425-2.875.5-.348-.273-.625-.55m.7.45q8.6-18.8 33.8-17.3 43.532 21.151 34 87.85-9.53 66.688 10.6 126.25M603.275 231.7q.116.27.225.55 3.55 9.65 8.85 20.1.361.723.9 1.5 2.651 3.786 9.675 9.025-.87-13.947-.675-40.875m-9 31.85q.221 3.603 1.05 7.65 1.65 8.3 8.1 15.5.833.924 1.65 1.725-.437-5.991-.8-12.025-.2-1.6-.3-3.25-.019-.29-.025-.575m28.15 95.975q-1.58.886-3.2 1.625l-.05.025-.175.1h-.025q-5.065 2.348-10.525 3.45-11 2.15-19.1.05 2.35-3.65 4.5-7.55 4.85-8.9 5.85-19.2 1.1-10.7-.7-21.45-2.197-18.412-3.6-37.175m23.775 81.775q-.103.056-.2.1"></path><path id="hair_14_outline_svg__c" stroke="#000" stroke-width="2" stroke-linejoin="miter" stroke-linecap="round" fill="none" d="M756.05 212.3q-.95-.3-1.55-1.25-.95-1.25-.5-2.75.25-.55 1.75-2.15 2.3-1.65 2.55-1.75 2.2-1.3 6-1 1.05 0 4.3.4 4.8.75 5.85 3.1 1.2 1.9 0 3-.2.2-1.55.55-2.35.7-4.3 1-6.45 1.25-11.7.85-.45.1-.85 0 .15-.1.3-.1.3 0 .55.1m-62.25-2.4q-.65-.95-.35-1.95.5-1.35 2.75-2.6 5.8-3.1 14.45-2.5 4.9.3 6.65 2.9.9 1.8.4 3.1-.4.95-2.6 1.8-3.05.8-6.8.8-8.35 0-13.1-.55-.15-.1-.15 0-.8-.15-1.25-1Z" stroke-miterlimit="3"></path></defs><g><use xlink:href="#hair_14_outline_svg__a"></use><use xlink:href="#hair_14_outline_svg__b"></use><use xlink:href="#hair_14_outline_svg__c"></use></g></svg>