<svg xmlns="http://www.w3.org/2000/svg" xmlns:xlink="http://www.w3.org/1999/xlink" preserveAspectRatio="none" viewBox="0 0 1500 1500" fill="#2f1b12"><defs><path d="M802.3 288.05q-1.275-5.197-.05-5.8.65-.25 1.2-.55 1.5-1.05 2.85-2.3 7.25-6.55 9.15-15.6.7-3.8.7-10.35-.1-6 .35-10.55.45-4.65 2.1-8.9.25-.8 1.15-2.5.8-1.8 3.85-6 3.05-4.15 4.95-9.6 1.8-5.55 1.8-11.75t-1.8-23.15q-1.9-16.85-16.6-27.05-3.08-1.912-5.8-3.7-12.644-8.286-17.5-13.8-.2-.3-.4-.45-5.8-6.8-15.5-16.8-10.75-8.25-26.65-12.45-15.75-4.3-40.05-5.3-16.05-.45-26 .55-14.2 1.35-25.15 5.75-4.8 1.9-13.9 6.8-9.15 4.95-13.9 6.85-9.15 3.2-13.6 4.9-7.9 3.05-12.4 6.75-5.75 4.85-8.85 12.7-2.7 6.55-2.95 14.2-.1.55-.1 1.15-.1 7 1.15 14.35l.35 1.35q0 2.15-.1 4.1-.35 3.8-1.3 6.75-.4 1.05-1 2.4-1.8 3.95-5.5 10.05-4.8 8-6.15 11.2-1.35 3.15-2 9.8-.7 6.55 2.8 13.25 3.4 6.65 3.4 9.1-.1 2.3.45 7.85.55 5.5 1.6 8.2 1.467 3.807 6.6 8.9 3.084 3.067 7.5 6.6 2.843 2.359 15 1.125 12.164-1.241 16.125 10.625 3.958 11.87 9.475 10.675 5.516-1.198 6.6-10.025.863-7.072-6.875-19-1.93-2.951-4.375-6.2-4.846-6.92-2.225-18.4m.475-1.85q-.073-4.992.1-6.825.17-1.836.95-2.9.79-1.06 2.7-4.575v-6.05q-2.993-17.267 25.55-15.55-5.28-51.245 56.35-30.65 12.337 4.57 21.3-2.775 8.961-7.345 17.275-.25 8.31 7.093 24.275 3.475 5.766 16.848 12.95 27.875m5.425 39.125-.925 14.85m4.775 31.6q.199-.592.375-1.25m-13.65-151.6q-1.45-9-6.4-17.25-7.05-12-18.8-18M590.6 180.9q-.35.3-.7.55-4.55 4.4-5.9 5.4-3.6 2.7-7.1 3.15m53.825 53.8q.22-.912.475-1.85" id="hair_11_fill_svg__b" stroke="#000" stroke-opacity="0" stroke-width="2" stroke-linejoin="round" stroke-linecap="round" fill="none"></path><g id="hair_11_fill_svg__a"><path d="M697.1 223.7q-3.5-.3-6.1.35-3.05.7-6.65 3.35-.9.6-1.85 1.35-5.2 4.2-6.9 5.5 4.8-1.3 8.75-2 4.85-.9 8.4-.65 3.35.45 8.15 1.8 2.6.7 7.95 2.3 3.8.9 7.75 1.15.6.15 1.35.25.35 0 .65.05 2.3.1 4.45 0h.9q.4-.5.9-.8 1.35-1.2 2-2.8.6-1.45.95-3 .9-3.05-.35-4-11.85 0-24.2-1.95-4.4-.75-6.15-.9m88.25 8.45q.05-2.6.15-5.2-1.55-2.4-3.35-3.05-1.7-.6-4.4-.45-1.35.05-4.85.8-9.9 1.65-18.6 1.6-1.2.7-1.75 3.7-.4 1.4-.45 2.75-.25 1.65.15 2.75.15.3.35.85.3-.1.65 0h3.35q.25-.1.55-.1.5-.05.95-.05 3-.25 6.2-1.15 4.5-1.35 6.75-1.9 4.1-1.35 6.8-1.65 3.35-.3 7.5 1.1Z"></path><path d="M631.2 242q.037-.124 1.45-1.85-1.438 1.669-1.45 1.8.008.036 0 .05m197.35-61q-1.9-16.85-16.6-27.05-3.08-1.912-5.8-3.7-12.644-8.286-17.5-13.8-.2-.3-.4-.45-5.8-6.8-15.5-16.8-10.75-8.25-26.65-12.45-15.75-4.3-40.05-5.3-16.05-.45-26 .55-14.2 1.35-25.15 5.75-4.8 1.9-13.9 6.8-9.15 4.95-13.9 6.85-9.15 3.2-13.6 4.9-7.9 3.05-12.4 6.75-5.75 4.85-8.85 12.7-2.7 6.55-2.95 14.2-.1.55-.1 1.15-.1 7 1.15 14.35l.35 1.35q0 2.15-.1 4.1-.35 3.8-1.3 6.75-.4 1.05-1 2.4-1.8 3.95-5.5 10.05-4.8 8-6.15 11.2-1.35 3.15-2 9.8-.7 6.55 2.8 13.25 3.4 6.65 3.4 9.1-.1 2.3.45 7.85.55 5.5 1.6 8.2 1.467 3.807 6.6 8.9 3.084 3.067 7.5 6.6 2.843 2.359 15 1.1 12.164-1.216 16.1 10.65 3.983 11.87 9.5 10.65 5.516-1.173 6.6-10 .863-7.072-6.9-19-1.905-2.951-4.35-6.2-4.846-6.92-2.25-18.4-.01-.309-.05-.35-.517-1.43.55-1.5-.073-4.992.1-6.85.17-1.811.95-2.9.79-1.034 2.7-4.55v-6.05q-2.993-17.267 25.55-15.55-5.28-51.245 56.35-30.65 12.337 4.57 21.3-2.8 8.961-7.32 17.25-.25 8.335 7.118 24.3 3.5 5.766 16.848 12.95 27.85-.013 1.133.3 2.45.15.69.55 1.85v.35q0 2.55.3 3.8.2.9 1.05 2.85 1.3 3.35 2.4 10.55.25 1.4.25 2.6l-.05 1.25q-.05.75.05 1.25.094.586.35 1.1v.05q-.2 2.75-.2 4.15 0 1.65.25 4.45.111 1.426.15 2.45l-.9 14.85q-.163 1.16-.35 2.4-.464 3.167-.75 5.85-.461.496-.8 1.2-.3.75-.45 1.9-.05.7-.2 2l-.25 1.95q-.05.8.05 2.35.15 1.55.05 2.3-.1 1.15-.55 3.45l.05 2.05 2.1-15.15q2.113-15.204.15 1.6-1.917 16.845-2.1 20.55-.182 3.709.05 4.6.292.887 2.15.85 1.85-.046 3.45-1.3 1.6-1.3 2-3.15.196-.785.15-1.85.022-.273 0-.6.182-.314.4-.65-1.275-5.197-.05-5.8.65-.25 1.2-.55 1.5-1.05 2.85-2.3 7.25-6.55 9.15-15.6.7-3.8.7-10.35-.1-6 .35-10.55.45-4.65 2.1-8.9.25-.8 1.15-2.5.8-1.8 3.85-6 3.05-4.15 4.95-9.6 1.8-5.55 1.8-11.75t-1.8-23.15Z"></path></g></defs><g><use xlink:href="#hair_11_fill_svg__a"></use><use xlink:href="#hair_11_fill_svg__b"></use></g></svg>