<svg xmlns="http://www.w3.org/2000/svg" xmlns:xlink="http://www.w3.org/1999/xlink" preserveAspectRatio="none" viewBox="0 0 1500 1500" fill="#2f1b12"><defs><path id="hair_10_outline_svg__a" d="M626.3 231.2q-.127-.41-.25-.9.109.49.2.95l.05-.05Z" fill="#34232A"></path><path id="hair_10_outline_svg__b" stroke="#000" stroke-width="2" stroke-linejoin="round" stroke-linecap="round" fill="none" d="M637.7 105.6q-10.95-5.95-15.3-15.45 22.9 4.5 55.55 4.25-.9-.35-1.85-.85-7.85-3.8-14.15-9.9m16 10.75q15.85-.1 34-1.4 45.65-.55 69.05 21.85 67.05 41.469 24.65 84.75 8.44-28.39-7.65-38-86.317 10.703-155.075-2.625-.16.386-.325.775 1 29.35-18.8 59.9.96 5.21 2.25 10.675.123.464.25.9 3.276 11.08 9.1 12.775m76.15-30.15q-2.45 1.9-5.05 2.5-2.85.35-5.7-.7-3.4-1.15-16.45-4.7-13.5-3.75-24.05-3.8-8.35.05-14.35.7 3.5-3.5 8-7.05 6.25-5 13.8-6.7h.1q7.65-1.6 23.35 6.55 15 7.75 21.8 10.65-.45 1.5-1.45 2.55Zm38.3 2.55q-2.3-.7-4.3-2.7-.85-.9-1.15-2.55 6.05-2.65 21.3-10.25 16.15-7.65 20.05-6.95 3.5.85 6.8 5.8 2.75 4 6.1 9.55-3.45-.95-8.8-1-9.2-.15-20.8 3.2-11.5 3.25-14.4 4.25-2.45 1.05-4.8.65ZM632.3 299.2q1.129 23.32 13.5 52.65Q659.912 376.745 678 397q.05-.05 2.425 3.625Q601.5 407.351 541.9 382.45q14.85-12.35 24.55-26.15-24.75 8.3-37.5 5 15.7-2.7 23.95-28.4-3.35 4.1-7.2 6.65-6.5 4.9-13.65 4.35m110.875-184.925q-.311-.064-.625-.125M552.9 332.9q7.8-23.95 9-68 .033-1.144.175-2.25-6.447-89.37 23.625-125.3 25.174-29.715 51.475-30.825m-10.9 124.725q4.974 20.895 14.625 45.45-6.775-3.387-11.425-8.85Q641.507 287.21 645 304.2q-19.794-6.31-36.05-32.825-.279-.454-.55-.925-6.35-10.493-12.15-24.1m29.8-16.025q.109.465.225.925M624.6 260.4q2.044 4.106 4.875 7.45-2.284-3.688-4.875-7.45Zm-62.3 5.1q-.112-1.433-.225-2.85m58.325 26.2q-1.85 6.6-.7 16.2 1.55 12.95 8.65 31.35.8 2.25 1.75 4.55 5.05 12.6 12.5 27.55"></path></defs><g><use xlink:href="#hair_10_outline_svg__a"></use><use xlink:href="#hair_10_outline_svg__b"></use></g></svg>