<svg xmlns="http://www.w3.org/2000/svg" xmlns:xlink="http://www.w3.org/1999/xlink" preserveAspectRatio="none" viewBox="0 0 1500 1500" fill="#2f1b12"><defs><path id="hair_09_outline_svg__a" d="M814.65 179.25q-3.055-4.5-4.625-16.5-1.56-12-15.15-25.55t-35.05-20.775q-21.47-7.225-46.925-5.575-17.6 1.1-45.5 7.9-12.4 3.1-19.05 5.6-10.2 3.9-17.1 9.6-7.95 6.6-11.35 16.05-2.945 8.386-1 15.825l-.05.025q-3.15 1.9-5.8 4.6-5 4.95-7.15 11.25-2.349 6.658-5.35 25.3-3.003 18.632 1.35 36.4 4.353 17.78 10.15 23.175 5.798 5.385 9.65 11.425 6.85 10.8 23.5 18.45-1.85-12.65-2.85-25.7l-.3-19.1q.9-5.7 2.45-11.35 1.7-6.5.6-12.4-2.4-5.5-4.4-11.1-7.75-21.3-9.95-44.55 6.55 4.15 12.95 11.55 2.75 2.9 8.1 9.3.45.6.9 1.15 13.55 5.75 32.9 9.3.75-10.05-.25-21 5.3 8.65 9.2 22.6 21.95 2.65 54.9 1.5 16.85-.65 30.5-2.65-.4-17.8-5.05-28.4 7.6 8.3 12.25 26.9l5.9-1.5q1.6-.4 3.1-.85 7.05-2.25 13.1-5.3 2.697-13.526-.6-17.525-1.012-1.23-1.525-1.85h.1l-.025-.025-.05-.025q-.032-.038-.05-.075l-.025-.025-.1-.025q-.03-.074-.05-.15l.1.025.35-.825q.738.978 1.5 1.775 1.939 1.018 5.775 3.125-3.091-.419-5.775-3.125-1.331-.73-1.75-.925-.024.074-.025.125v.025m0-.025h-.025q-.046-.041-.075-.075l-.025.05m.15.175.125.025-.025-.025m-.1-.275q-.051-.021-.1-.025l-.025.075q-.04-.056-.075-.1m.45-.8q-.216.576-.25.85m.025.225.375.025h-.325m-9.4 40.4q-4.2 6.65-10.8 11.55-6.1 4.8-15.45 8.3-3.9 1.45-11.05 3.65-.45-2.35.15-5.45.95-3.55 1.95-5.75 2.45-.75 5.05-1.55 12.35-3.8 19-7.35 3.1-1.55 5.85-3.35 2.75-2.05 5.1-4.2.1 2 .2 4.15Zm-127.55-.05q5.35 2.85 12.25 5.1 10.45 3.3 36.55 8.1 2 2.25 4.65 6.15 1.7 2.95 1.9 4.2.05 1.35.05 1.95-4-.65-7.25-1.3-5.65-1-9.15-1.75-14.2-3.35-24.4-8.2-11.95-5.7-20.45-14.05-3.85-3.9-6.3-6.95 1.7 1.15 12.15 6.75Z" fill="none" stroke="#000" stroke-width="2" stroke-linejoin="round" stroke-linecap="round"></path></defs><use xlink:href="#hair_09_outline_svg__a"></use></svg>