<svg xmlns="http://www.w3.org/2000/svg" xmlns:xlink="http://www.w3.org/1999/xlink" preserveAspectRatio="none" viewBox="0 0 1500 1500" fill="#2f1b12"><defs><path d="M698 228.85q-4.95-.8-6.95-1-3.9-.3-6.8.45-3.4.75-7.4 3.7-1 .7-2.1 1.5-5.8 4.7-7.7 6.2 5.4-1.5 9.8-2.25 5.4-1 9.4-.75 3.75.5 9.05 2 2.95.8 8.9 2.55 4.25 1 8.7 1.35.65.15 1.45.25.45 0 .75.05 2.6.1 5 0h1q.45-.55 1-.9 1.5-1.3 2.25-3.15.65-1.6 1.1-3.35 1-3.4-.45-4.5-13.2 0-27-2.15m91.75 8.5q.1-2.9.15-5.85-1.75-2.65-3.7-3.4-1.95-.65-4.95-.5-1.5.1-5.4.95-11.05 1.8-20.8 1.7-1.3.85-2 4.2-.4 1.55-.5 3.05-.25 1.85.2 3.1.15.3.4.9.35-.1.75 0h3.75q.25-.1.55-.1.6-.05 1.1-.05 3.35-.25 6.9-1.25 5.1-1.5 7.6-2.15 4.55-1.5 7.55-1.85 3.75-.35 8.4 1.25m-65.8-131.55q-2.15.1-4.2.35-1.95.25-4 .5-9.9 1.4-26.4 5.75-10.5 2.75-17.2 4.5-1.75.05-3.75.15-8.1-.15-12.25-.25-7.25-.1-12.2.85-8.95 1.75-16.4 7-7.6 5.2-12.35 12.8-4.7 7.8-5.95 16.95-.95 7 .4 13.75-2.35 2.65-6.75 8-5.6 6.55-8 11.8-5 10.8-2.35 23.9 1.35 6.8 4.6 12.95.15.35.35.75.3.6.65 1.2 1.35 2.65 1.9 6.3.5 2.65.75 8.9.95 11.4 2.6 16.65 1 3.35 2.5 6.15 9.15 16.15 34.35 34.95-3.5-15.7-4.15-31.8-.65-10.8.25-21.8l7.15-17.6q1.85-4.6 2.35-7.35.3-1.9.3-3.55-5.03-9.614-6.85-21-1.82-11.386 13.8-15.9.908-12.83 13.15-13.7 12.244-.864 29.4 3.6 17.152 4.455 24.1 5.85 2.15.35 4.2.75 1.6.25 3.1.5 1 .1 1.85.25 6.2-1.55 11.3-5.05 5.9-4.35 8.75-11.15.9-2.2 1.4-4.35-.5 2.15-1.4 4.35-2.85 6.8-8.75 11.15-5.1 3.5-11.3 5.05 1.5.1 2.8.25 1.25.1 2.6.25h.15q13.55.85 23.3-3.3.1 0 .15-.1 6.25-3 10.6-8.05 4.55-5.35 5.65-11.6-1.1 6.25-5.65 11.6-4.35 5.05-10.6 8.05-.05.1-.15.1 2.4.15 5.35.4 10.65 1 16.95-.65 2.05-.541 4-1.45.584-.255 1.15-.55 1.85-.95 3.6-2.1 3.15-2.25 5.8-5.5-2.65 3.25-5.8 5.5-1.75 1.15-3.6 2.1-.566.295-1.15.55 13.259.984 15.4-2.8 8.342-4.094 11.7-13.1 3.354-9.002-5.75-15.35-9.1-6.306-13.1-9.2-8.45-8.154-9.55-8.35-1.1-.146-6.15-7.6-7.224-4.414-11.05-6.8-.384.18-2.6-.35-5.556-1.345-20.1-3.4-8.9-1.35-18.9-.7Z" id="hair_08_fill_svg__a"></path><path id="hair_08_fill_svg__b" stroke="#000" stroke-opacity="0" stroke-width="2" stroke-linejoin="round" stroke-linecap="round" fill="none" d="M728.9 177.95q-.85-.15-1.85-.25-1.5-.25-3.1-.5-2.05-.4-4.2-.75-6.948-1.395-24.1-5.85-17.156-4.464-29.4-3.6-12.242.87-13.15 13.7-15.62 4.514-13.8 15.9 1.82 11.386 6.85 21 0 1.65-.3 3.55-.5 2.75-2.35 7.35l-7.15 17.6q-.9 11-.25 21.8.65 16.1 4.15 31.8-25.2-18.8-34.35-34.95-1.5-2.8-2.5-6.15-1.65-5.25-2.6-16.65-.25-6.25-.75-8.9-.55-3.65-1.9-6.3-.35-.6-.65-1.2-.2-.4-.35-.75-3.25-6.15-4.6-12.95-2.65-13.1 2.35-23.9 2.4-5.25 8-11.8 4.4-5.35 6.75-8-1.35-6.75-.4-13.75 1.25-9.15 5.95-16.95 4.75-7.6 12.35-12.8 7.45-5.25 16.4-7 4.95-.95 12.2-.85 4.15.1 12.25.25 2-.1 3.75-.15 6.7-1.75 17.2-4.5 16.5-4.35 26.4-5.75 2.05-.25 4-.5 2.05-.25 4.2-.35 10-.65 18.9.7 14.544 2.055 20.1 3.4 2.216.53 2.625.35 3.8 2.386 11.025 6.8 5.05 7.454 6.15 7.625 1.1.17 9.55 8.325 4 2.894 13.1 9.225 9.104 6.323 5.75 15.325-3.358 9.006-11.7 13.1-2.141 3.784-15.4 2.8-1.95.909-4 1.45-6.3 1.65-16.95.65-2.95-.25-5.35-.4-9.75 4.15-23.3 3.3h-.15q-1.35-.15-2.6-.25-1.3-.15-2.8-.25 6.2-1.55 11.3-5.05 5.9-4.35 8.75-11.15.9-2.2 1.4-4.35m7.4 17.75q.1 0 .15-.1 6.25-3 10.6-8.05 4.55-5.35 5.65-11.6m9.9 18.05q.584-.255 1.15-.55 1.85-.95 3.6-2.1 3.15-2.25 5.8-5.5m-4.85 72.05q-4.65-1.6-8.4-1.25-3 .35-7.55 1.85-2.5.65-7.6 2.15-3.55 1-6.9 1.25-.5 0-1.1.05-.3 0-.55.1h-3.75q-.4-.1-.75 0-.25-.6-.4-.9-.45-1.25-.2-3.1.1-1.5.5-3.05.7-3.35 2-4.2 9.75.1 20.8-1.7 3.9-.85 5.4-.95 3-.15 4.95.5 1.95.75 3.7 3.4-.05 2.95-.15 5.85Zm-122.7 2.35q5.4-1.5 9.8-2.25 5.4-1 9.4-.75 3.75.5 9.05 2 2.95.8 8.9 2.55 4.25 1 8.7 1.35.65.15 1.45.25.45 0 .75.05 2.6.1 5 0h1q.45-.55 1-.9 1.5-1.3 2.25-3.15.65-1.6 1.1-3.35 1-3.4-.45-4.5-13.2 0-27-2.15-4.95-.8-6.95-1-3.9-.3-6.8.45-3.4.75-7.4 3.7-1 .7-2.1 1.5-5.8 4.7-7.7 6.2Z"></path></defs><g><use xlink:href="#hair_08_fill_svg__a"></use><use xlink:href="#hair_08_fill_svg__b"></use></g></svg>