<svg xmlns="http://www.w3.org/2000/svg" xmlns:xlink="http://www.w3.org/1999/xlink" preserveAspectRatio="none" viewBox="0 0 1500 1500" fill="#2f1b12"><defs><path d="M689.825 153.925q2.519 2.877 9.35 9.275-4.74-4.666-9.45-9.9-.683-.767-1.375-1.55-.082.416 1.475 2.175ZM702.7 166.55q-.704-.682-1.375-1.325.305.316.625.625.369.348.75.7.288.255.575.525.858.788 1.775 1.625 9.756 8.827 19.7 15.25 15.1 9.85 31.65 15.15 17.5 5.75 34.65 5.7 4.164 0 15.75-2.8m-4.55 32.25q37.4-41.406 14.05-66.45-23.35-25.048-43.9-42.2-22.05-18.5-47.55-24.1-27.15-5.75-53.2 4.8-21.95 8.8-33.9 25.7-19.05 1.05-36.65 13.75-16.15 11.75-27.85 31.25-23.65 37.85-27.5 92.95-.75 10.7-.65 22.65.1.95.1 2.05 0 1.95.1 4.05 1.15 16.8 19.05 33.8 3.5 3.3 7.55 6.7 4.75 3.8 9.6 7.5-.8-3.9-1.35-7.95-.7-7.35 0-14.55 2.15 11 6.5 21.4 1.35 3.4 2.95 6.65 3.4 2.35 7 4.6 11.05 6.75 23.1 12.3 1.25.55 2.7 1.1-1.1-6.05-.9-12.25 2.6 5.75 7.1 12.15 1.25 1.8 3.05 4.1l.9.4q5.15 1.85 10.25 3.65 3.95 1.25 8 2.55.55.15 1 .25.35.1.7.25 15 4.114 25.1 2.35m-47.05-95.225q-14.798-2.832-22.225-19.65-2.217-4.988-3.775-11.225m94.625-94.4q.992.953 2.025 1.925.056.054.125.1M678.9 140.55q4.7 5.8 9.45 11.2m103.25 70.3q-1.6.35-3.35.75-3.3.7-6.95 1.65-1.65.45-3.35 1.05-9.75 3.2-18.6 7.85-.55.2-1.7.7-.95.35-1.75.3-.95.05-1.75-.75-.8-.6-.8-1.7-.25-1.8 1.9-3.75 8.35-7 20.7-8.7 2.1-.2 4.1-.3 2.4 0 4.65.1 3.95.45 7 1.15-.1.25-.05.5v.65q-.05.25-.05.5ZM806.8 202q-2.6 1-5.6 1.7m-75.85 29.5q.65.25 2.3.8 1.15.4 2.2.35 1.2 0 2.15-.85 1.1-.8 1.2-2 .15-1.95-2.7-3.9-11.2-7.2-27.25-8.7-2.6-.25-5.15-.25-3.1.15-6.05.4-8.2.9-13.4 2.5 4.15.6 8.8 1.35 4.5.65 9.15 1.5 2.25.4 4.5 1 12.55 3.25 24.25 7.8Zm-20.3-64.5q-12.304 20.762-30.4 31.975-18.102 11.212-37.25 16.625-3.95 19.579-4.4 39.95-.3 16 1.7 31.75-2.14-.129-4.15-.525m6.85-71.175q-5.6 2.6-11.7 4.45" id="hair_07_fill_svg__b" stroke="#000" stroke-opacity="0" stroke-width="2" stroke-linejoin="round" stroke-linecap="round" fill="none"></path><g id="hair_07_fill_svg__a"><path d="M733.2 231.5q.15-1.95-2.7-3.9-11.2-7.2-27.25-8.7-2.6-.25-5.15-.25-3.1.15-6.05.4-8.2.9-13.4 2.5 4.15.6 8.8 1.35 4.5.65 9.15 1.5 2.25.4 4.5 1 12.55 3.25 24.25 7.8.65.25 2.3.8 1.15.4 2.2.35 1.2 0 2.15-.85 1.1-.8 1.2-2m58.4-9.45q0-.25.05-.5v-.65q-.05-.25.05-.5-3.05-.7-7-1.15-2.25-.1-4.65-.1-2 .1-4.1.3-12.35 1.7-20.7 8.7-2.15 1.95-1.9 3.75 0 1.1.8 1.7.8.8 1.75.75.8.05 1.75-.3 1.15-.5 1.7-.7 8.85-4.65 18.6-7.85 1.7-.6 3.35-1.05 3.65-.95 6.95-1.65 1.75-.4 3.35-.75Z"></path><path d="M702.7 166.55q-.381-.352-.75-.7-.32-.309-.65-.65-.044-.021-.1-.1-1.033-.947-2.05-1.9-6.806-6.398-9.35-9.3-1.532-1.734-1.45-2.15-4.75-5.4-9.45-11.2 4.7 5.8 9.45 11.2.692.783 1.35 1.55 4.734 5.234 9.45 9.9 1.017.953 2.05 1.9.056.079.1.1.696.668 1.4 1.35.288.255.55.5.883.813 1.8 1.65 9.756 8.827 19.7 15.25 15.1 9.85 31.65 15.15 17.5 5.75 34.65 5.7 4.164 0 15.75-2.8 1.772 11.59 1.75 14.1.03 2.554-.5 4.85-.49 2.304-3.95 8.55-3.406 6.241-1.85 4.75 37.4-41.406 14.05-66.45-23.35-25.048-43.9-42.2-22.05-18.5-47.55-24.1-27.15-5.75-53.2 4.8-21.95 8.8-33.9 25.7-19.05 1.05-36.65 13.75-16.15 11.75-27.85 31.25-23.65 37.85-27.5 92.95-.75 10.7-.65 22.65.1.95.1 2.05 0 1.95.1 4.05 1.15 16.8 19.05 33.8 3.5 3.3 7.55 6.7 4.75 3.8 9.6 7.5-.8-3.9-1.35-7.95-.7-7.35 0-14.55 2.15 11 6.5 21.4 1.35 3.4 2.95 6.65 3.4 2.35 7 4.6 11.05 6.75 23.1 12.3 1.25.55 2.7 1.1-1.1-6.05-.9-12.25 2.6 5.75 7.1 12.15 1.25 1.8 3.05 4.1l.9.4q5.15 1.85 10.25 3.65 3.95 1.25 8 2.55.55.15 1 .25.35.1.7.25 15 4.114 25.1 2.35 3.801-2.267.8-12.9-22.635-.57-30.25-15.5-7.624-14.92-12.85-26.3-.946-2.127-1.45-7.8-.502-5.68-1.4-11.15-.857-5.409-1.9-21.6-14.798-2.807-22.25-19.65-2.192-4.963-3.75-11.2 1.558 6.237 3.75 11.2 7.452 16.843 22.25 19.65 2.01.421 4.15.55-2-15.75-1.7-31.75.45-20.371 4.4-39.95-5.6 2.6-11.7 4.45 6.1-1.85 11.7-4.45 19.148-5.413 37.25-16.65 18.096-11.188 30.4-31.95-.917-.837-1.8-1.65-.262-.245-.55-.5m-.75-.7q.369.348.75.7-.704-.682-1.4-1.35.33.341.65.65M689.8 153.9q-.309-.459-.15-.55.042-.024.05-.05-.658-.767-1.35-1.55-.082.416 1.45 2.15Z"></path></g></defs><g><use xlink:href="#hair_07_fill_svg__a"></use><use xlink:href="#hair_07_fill_svg__b"></use></g></svg>