<svg xmlns="http://www.w3.org/2000/svg" xmlns:xlink="http://www.w3.org/1999/xlink" preserveAspectRatio="none" viewBox="0 0 1500 1500" fill="#2f1b12"><defs><path id="hair_07_outline_svg__a" d="M689.8 153.9q-.309-.459-.15-.55.042-.024.05-.05-.658-.767-1.35-1.55-.082.416 1.45 2.15Z" fill="#6A3D15"></path><path id="hair_07_outline_svg__b" stroke="#000" stroke-width="2" stroke-linejoin="round" stroke-linecap="round" fill="none" d="M689.825 153.925q2.519 2.877 9.35 9.275-4.74-4.666-9.45-9.9-.683-.767-1.375-1.55-.082.416 1.475 2.175ZM702.7 166.55q-.704-.682-1.375-1.325.305.316.625.625.369.348.75.7.288.255.575.525.858.788 1.775 1.625 9.756 8.827 19.7 15.25 15.1 9.85 31.65 15.15 17.515 5.741 27.525 6.225 10.002.493 13.225-.25 3.222-.741 5.125-1.4 1.912-.671 4.525-1.675 5.172 12.403-4.55 32.25 37.399-39.95 14.05-65.725-23.35-25.774-43.9-42.925-22.05-18.5-47.55-24.1-27.15-5.75-53.2 4.8-21.95 8.8-33.9 25.7-19.05 1.05-36.65 13.75-16.15 11.75-27.85 31.25-23.65 37.85-27.5 92.95-.75 10.7-.65 22.65.1.95.1 2.05 0 1.95.1 4.05 1.15 16.8 19.05 33.8 3.5 3.3 7.55 6.7 4.75 3.8 9.6 7.5-.8-3.9-1.35-7.95-.7-7.35 0-14.55 2.15 11 6.5 21.4 1.35 3.4 2.95 6.65 3.4 2.35 7 4.6 11.05 6.75 23.1 12.3 1.25.55 2.7 1.1-1.1-6.05-.9-12.25 2.6 5.75 7.1 12.15 1.25 1.8 3.05 4.1l.9.4q5.15 1.85 10.25 3.65 3.95 1.25 8 2.55.55.15 1 .25.35.1.7.25 11.89 3.261 20.7 2.825 10.49-1.953 5.2-13.375-4.35 1.65-9.5-.25-15.1-5.45-23.9-19.6-7.197-13.28-11.3-28.6-4.103-15.32-3.15-33.875-14.8-2.834-22.225-19.65-2.217-4.988-3.775-11.225m94.625-94.4q.992.953 2.025 1.925.056.054.125.1m3.725 3.475q-2.172 8.014-22 24.375-19.84 16.36-45.65 24.225-3.95 19.579-4.4 39.95-.3 16 1.7 31.75-2.141-.129-4.15-.525M678.9 140.55q4.7 5.8 9.45 11.2m103.25 70.3q-1.6.35-3.35.75-3.3.7-6.95 1.65-1.65.45-3.35 1.05-9.75 3.2-18.6 7.85-.55.2-1.7.7-.95.35-1.75.3-.95.05-1.75-.75-.8-.6-.8-1.7-.25-1.8 1.9-3.75 8.35-7 20.7-8.7 2.1-.2 4.1-.3 2.4 0 4.65.1 3.95.45 7 1.15-.1.25-.05.5v.65q-.05.25-.05.5Zm-66.25 11.15q.65.25 2.3.8 1.15.4 2.2.35 1.2 0 2.15-.85 1.1-.8 1.2-2 .15-1.95-2.7-3.9-11.2-7.2-27.25-8.7-2.6-.25-5.15-.25-3.1.15-6.05.4-8.2.9-13.4 2.5 4.15.6 8.8 1.35 4.5.65 9.15 1.5 2.25.4 4.5 1 12.55 3.25 24.25 7.8ZM677.6 383.7q-2.094.366-4.4.475M637.4 217.3q-5.6 2.6-11.7 4.45"></path></defs><g><use xlink:href="#hair_07_outline_svg__a"></use><use xlink:href="#hair_07_outline_svg__b"></use></g></svg>