<svg xmlns="http://www.w3.org/2000/svg" xmlns:xlink="http://www.w3.org/1999/xlink" preserveAspectRatio="none" viewBox="0 0 1500 1500" fill="#2f1b12"><defs><path d="M705.65 225.1q-2-.25-12.1-1.2-9.7-1.9-14.4 1.3-2.95 2-4.9 6.05-1.15 2.25-2.25 6-.3.6-.45 1.2 10.8-2 30.45.35 10.75 1.3 18.55 1.8 1.3 0 2.5.1.7 0 1.3.1.9-.2 1.5-.55 1.1-.4 1.8-1.25 0-.35.1-.65v-1.1q-.1-.2-.1-.35-.15-2.75-2-4.85-.85-1.2-2.6-2.15-2.05-1.3-5.45-2.35-5-1.45-11.95-2.45m88.75 12.1v-8.25q-1.1-2.05-2.5-3.25-3.3-2.85-10.15-.95-7.1 1.1-8.55 1.3-4.85.95-8.4 2.4-2.35 1.05-3.8 2.35-1.25.85-1.85 1.9-1.3 1.9-1.35 4.5v.1q-.1.7-.1 1.3.1.25.1.5.4.8 1.2 1.15.45.3 1.05.5.4-.1.95-.1.85-.15 1.7-.15 5.55-.7 13.1-2 5.2-.95 9.6-1.3 5.1-.45 9 0m24.2-72.75q-3.674-3.89-6.6-13.65-2.87-9.71-14-21.85-5.645-9.646-18.55-12.4-12.852-2.701-21.6-4.75 2.35-2.6 4.2-5.05 1.35-1.9 2.4-3.7-8.75 3.35-19.55 4.5-12.2 1.2-29.9-.6-27-2.45-29.4-2.5-16.9-.7-29.2 2.5-17.85 4.75-31.6 18.35-7.55 7.45-12.35 16.2-1-1.65-1.4-2.45-2.15-3.45-4.45-5.7-1.8-1.8-5.6-4.25 3.3 11.1 5.3 23.05-8.05 2-14.05 3.6 6.3 2.8 13.1 2.8-7.65 12.45-9.1 29.25-1.5 16.45 3 35.4 2.6 11 10.3 33.8.7 1.95 1.3 3.85 7.2 20.35 32.65 36.9-1.65-30.55 1.9-60.15 1.75-2.95 2.95-5.55 3.05-6.4 4.4-12.2.8-14.05.35-23.2-.6-12.85-3.45-23.55 15.75 12 34.7 19.8-3.8-6.85-5.7-13.95 37.25 6.7 72.9 15.85-.35-4.4-2.1-8.75-.75-1.9-1.6-3.7 1.1.25 2.3.5 21.55 4.2 43.05 5.8 9.85.7 26.95 1.7-5.204-6.547-7.55-11.1-2.346-4.503-4.5-15.25-2.91.38-6.35.45 3.44-.07 6.35-.45 1.195-.146 10.5.45Z" id="hair_06_fill_svg__a"></path><path d="M808.1 164q2.154 10.747 4.5 15.275 2.346 4.528 7.55 11.075-17.1-1-26.95-1.7-21.5-1.6-43.05-5.8-1.2-.25-2.3-.5.85 1.8 1.6 3.7 1.75 4.35 2.1 8.75-35.65-9.15-72.9-15.85 1.9 7.1 5.7 13.95-18.95-7.8-34.7-19.8 2.85 10.7 3.45 23.55.45 9.15-.35 23.2-1.35 5.8-4.4 12.2-1.2 2.6-2.95 5.55-3.55 29.6-1.9 60.15-25.45-16.55-32.65-36.9-.6-1.9-1.3-3.85-7.7-22.8-10.3-33.8-4.5-18.95-3-35.4 1.45-16.8 9.1-29.25-6.8 0-13.1-2.8 6-1.6 14.05-3.6-2-11.95-5.3-23.05 3.8 2.45 5.6 4.25 2.3 2.25 4.45 5.7.4.8 1.4 2.45 4.8-8.75 12.35-16.2 13.75-13.6 31.6-18.35 12.3-3.2 29.2-2.5 2.4.05 29.4 2.5 17.7 1.8 29.9.6 10.8-1.15 19.55-4.5-1.05 1.8-2.4 3.7-1.85 2.45-4.2 5.05 8.748 2.049 21.625 4.775 12.88 2.729 18.525 12.375 11.13 12.14 14.025 21.875 2.9 9.734 6.575 13.625-9.305-.596-10.5-.45-2.91.38-6.35.45m-7.35 72.75q-3.9-.45-9 0-4.4.35-9.6 1.3-7.55 1.3-13.1 2-.85 0-1.7.15-.55 0-.95.1-.6-.2-1.05-.5-.8-.35-1.2-1.15 0-.25-.1-.5 0-.6.1-1.3v-.1q.05-2.6 1.35-4.5.6-1.05 1.85-1.9 1.45-1.3 3.8-2.35 3.55-1.45 8.4-2.4 1.45-.2 8.55-1.3 6.85-1.9 10.15.95 1.4 1.2 2.5 3.25v8.25Zm-92.4 1.6q10.75 1.3 18.55 1.8 1.3 0 2.5.1.7 0 1.3.1.9-.2 1.5-.55 1.1-.4 1.8-1.25 0-.35.1-.65v-1.1q-.1-.2-.1-.35-.15-2.75-2-4.85-.85-1.2-2.6-2.15-2.05-1.3-5.45-2.35-5-1.45-11.95-2.45-2-.25-12.1-1.2-9.7-1.9-14.4 1.3-2.95 2-4.9 6.05-1.15 2.25-2.25 6-.3.6-.45 1.2 10.8-2 30.45.35Z" id="hair_06_fill_svg__b" stroke="#000" stroke-opacity="0" stroke-width="2" stroke-linejoin="round" stroke-linecap="round" fill="none"></path></defs><g><use xlink:href="#hair_06_fill_svg__a"></use><use xlink:href="#hair_06_fill_svg__b"></use></g></svg>