<svg xmlns="http://www.w3.org/2000/svg" xmlns:xlink="http://www.w3.org/1999/xlink" preserveAspectRatio="none" viewBox="0 0 1500 1500" fill="#2f1b12"><defs><g id="hair_03_fill_svg__a"><path d="M691.75 233.5q14.7 6.15 26.4 10.55 5.05 2.05 7.95 2.55 2.75.55 3.05-.3.75-1.35-1.45-3.3-14.8-12.1-34.1-16.3-15.4-3.2-34.35 1.1 16.4-.8 32.5 5.7m108.05-3.95q-6.05-.85-12.95.85-7.1 1.7-11.45 3.7-4.65 2.1-9.9 6.35-5.4 4.4-4.25 7.7 2.55-1.45 20.35-9 16.7-6.95 29-5.65h.2l-.2-.15q-5.15-3.1-10.8-3.8ZM583.55 196.1q2.65-9.85 3.45-13.15-2.3 5.2-6.75 16.35-.5 1.15-1.35 3.25-6.9 17.7-10.25 31.9-3.5 15.15-.95 32.05 1.1 7.4 7.9 13.55 4.1 3.75 10.9 7.25 3.2 1.7 11.7.8 11.7-1.25 15.75-1.05 7.4.4 14.95 6.05 5.3 3.85 11.55 11.2-6.3-16.1-6.75-24.45-5.8.45-11.7-.55-14.9-2.7-26.7-13.9-11.65-11-16-25.85-3.7-12.5 2.25-36.25l2-7.2m224.9-57.35q-9.61-7.843-10.45-9.85.347 9.78.25 10.95-.75 10.7-8.55 21.25-2.9 4.15-6.75 8 .75.4 2.2 1.35 11.25 7.75 18.4 23.9 3.75 8.5 5.5 16.9 1.552-2.645 7.7-10.8 6.193-8.115 4.5-23.9-1.503-28.524-12.8-37.8Z"></path><path d="m678.15 165.3-1.2-1.15Q664.9 153.6 652.8 148.4q-11.45-5-23.8-4.95-12.95 0-22.75 5.6 3.6-4.55 7.95-8.45 9.6-8.75 22.55-15.65-5.85-5.85-15-7.65-16.5-3.5-28.85 1.25-12.25 4.5-22.45 17.4-10.25 12.85-11.5 28.4-.9 10.1 2.45 19.15 3.55 9.6 10.95 15.35 2.95 2.4 6.55 3.7.85-2.1 1.35-3.25 4.45-11.15 6.75-16.35-.8 3.3-3.45 13.15l-2 7.2q-5.95 23.75-2.25 36.25 4.35 14.85 16 25.85 11.8 11.2 26.7 13.9 5.9 1 11.7.55-1.5-34.55 4.25-58.8 5.55-23.75 11.5-33 5.7-9.1 12.3-14.15 6.5-5.15 16.4-8.6m21.5-59.3q14.15 4.5 21.8 14.65 6.55 8.85 7.7 20.95.95 10.1-1.95 20.15 11-.15 21.1.2 23.4.65 34.65 7.15 3.85-3.85 6.75-8 7.8-10.55 8.55-21.25.097-1.17-.25-10.95.009-.238 0-.5-10.75-5.95-25.75-13.85-16.8-9-39.5-10.2-15.75-1-33.1 1.65Z" stroke="#000"></path><path stroke="#000" d="M721.45 120.65q-7.65-10.15-21.8-14.65-8.5 1.25-16.6 3.15-26.9 6.2-42.15 13.7-2.2.95-4.15 2.1-12.95 6.9-22.55 15.65-4.35 3.9-7.95 8.45 9.8-5.6 22.75-5.6 12.35-.05 23.8 4.95 12.1 5.2 24.15 15.75l1.2 1.15q7.4-1.6 18.15-2.35 15.3-1.05 30.9-1.2 2.9-10.05 1.95-20.15-1.15-12.1-7.7-20.95Z"></path></g></defs><use xlink:href="#hair_03_fill_svg__a"></use></svg>