<svg xmlns="http://www.w3.org/2000/svg" xmlns:xlink="http://www.w3.org/1999/xlink" preserveAspectRatio="none" viewBox="0 0 1500 1500" fill="#2f1b12"><defs><path id="hair_02_outline_svg__a" d="M663.85 342.85q-12.9-9.25-21.25-27-1.75 21.55-9.15 41.95 1.85-25.55 1.2-51-.2-6.5-1.3-15.15-1.75-14.25-4.75-21.6-2.95-7.2-10.25-10.25-2.3-.9-4.7-1.35l-8-2.75q-.2-7.55-4.15-18.95-.7 4.5-1.45 9.55-2.5 18.05-7.7 31.75-5.25 13.5-13.3 20.5-8.1 6.95-17.9 11.6-9.8 4.65-14.25 9.2-4.6 4.45-2.6 11.65.3 1.05.7 1.85-7-1-11.25-7.25-6.15-9.25-5.65-19.6.6-10.4 8.6-31.2 8-20.85 8.75-42.95.7-22.15-2.2-46.35-2.85-24.25-.3-46 2.6-21.7 12.55-41.65 10.15-20.1 27.85-28.75 17.8-8.85 39.45-4.3 21.7 4.45 31.05 15.55.7.85 1.45 1.8 6.4 10.25 4.7 24.1 26.05-8.25 52.75-6.1 31.25 2.45 42.2 10.4 5.1 3.65 8.75 6.85 27.995 4.55 43.8 23.2 15.816 18.651 15.05 45.45-.185 6.715-3.375 14.075-3.186 7.364-8.5 9.525-5.321 2.154-8.575-.2l-2.15-2.7q11.595-2.406 7.875-12.325-3.721-9.919-10.25-13.8-6.529-3.882-15.925-1.675-18.364-21.879-32.525-25.525-14.17-3.65-35.875-4.025-21.693-.373-37.825 17.175-16.13 17.531-27.875 46.025-8.35 20.15-12.05 40.25 7.85 24.2 7.7 50.3 0 6.4-.6 12.7M615.7 135.3q13.65-17.55 35.15-25.8 3.4-1.4 6.9-2.55-7.2-2-14.4-1.45-9.1.65-15.95 5.3-7.3 4.75-10.4 13.25-2.1 5.85-1.3 11.25-5.75 7.3-10 16.3-14.75 30.2-9.65 63.2 1.75 11.5 5.45 21.95m56.25-129.8q.9-.3 1.85-.6l.4-.1m23.25 87.3q5.2-.55 11.35-.15 13.45.8 18.65 8.1.9 1.2.55 2.2-.25.8-1.35 1.1-1 .35-2.05.1-17-1.65-25.5-2.6-10.85-1.05-16.6-.8-4.3.15-7.95.95 10.2-7.35 22.9-8.9ZM796.9 205.8q-10.45-3.05-21.15-2.8-10.9.2-20.65 4.2-1.6.65-3.05.75-1.95-.1-2.5-1.6-.05-.85.85-2.5 3.75-5.95 11-8.65 6.8-2.65 14.2-1.35 11.35 1.75 21.3 11.95Z" fill="none" stroke="#000" stroke-width="2" stroke-linejoin="round" stroke-linecap="round"></path></defs><use xlink:href="#hair_02_outline_svg__a"></use></svg>