<svg xmlns="http://www.w3.org/2000/svg" xmlns:xlink="http://www.w3.org/1999/xlink" preserveAspectRatio="none" viewBox="0 0 1500 1500" fill="#2f1b12"><defs><path id="a_hair_39_outline_svg__a" d="M716.25 115.85q-.7.1-1.2.6-.41.373-.6.8.724.177 1.7.6 3.05 1.35 5.45 3.2 2.05 1.4 3.45 3.1.6.7 1.6 2.1 3.2 4.4 5.6 6.6 1.5 1.4 1.65 2.3.03.211 0 .75.05.1.15.15l.15.15q.05.1.15.15l.2.2q.15.1.3.25.15.1.35.15.15.1.35.15.15.05.35.05.2.05.35 0h.35q0 .05.05.15 0 .05.05.1.05.1.1.15v.15q-.05.1-.05.2v.7q.05.15.05.25 0 .15.05.25v.25l.1.2q0 .05.05.15v.2q.05.1.05.15.05.1.05.2l.1.2q0 .1.05.2 0 .1.05.2 0 .1.05.2 0 .1.05.2 0 .1.05.15v.2l.1.2q.05.1.05.2.05.1.05.2.05.1.05.2l.1.2q0 .1.05.2 0 .1.05.2 0 .1.05.2 0 .1.05.2t.05.2q.05.05.05.15v.1q.05.1.05.15l.1.2q.035.07.05.15l-.05-.1q.038.081.05.15 2.107 3.203 3.25 7.5.99 3.827 1.3 9.1.116.182.2.35.05.2.15.4l.2.4q.05.1.05.15.05.1.05.15.05.1.1.15v.4q.05.1.05.2.05.1.05.2.05.1.05.2.05.1.05.2t.05.2v.45l.1.4q0 .25.05.45l.1.3q.315-.095.7-.15 2-.298 4-.3-.2-.3-.3-.9-.2-1.15.15-1.9.38-.76.95-.95l-.45-1.5q-.2-1-.1-1.35l.05-.15q-.006-.062-.05-.15 0-.05-.05-.15-.05-.1-.05-.2-.05-.1-.05-.2-.05-.1-.05-.2 0-.15-.05-.25 0-.05-.05-.15 0-.05-.05-.15-.05-.1-.05-.15-.05-.1-.05-.15 0-.05-.05-.15 0-.1-.05-.2l-.1-.2q0-.1-.05-.2v-.2l-.1-.2q0-.1-.05-.2t-.05-.2q-.05-.05-.05-.15 0-.1-.05-.2 0-.05-.05-.15 0-.05-.05-.15-.05-.1-.05-.15-.05-.1-.05-.15 0-.05-.05-.15 0-.05-.05-.15v-.75q-.05-.2-.05-.4-.05-.25-.1-.45-.05-.25-.15-.45v-.2q0-.1-.05-.2v-.2q-.05-.1-.05-.15-.05-.1-.05-.2-.05-.1-.05-.15l-.1-.2q0-.05-.05-.15 0-.05-.05-.15v-.15q-.05-.1-.05-.2-.05-.1-.1-.15 0-.1-.05-.2l-.1-.2q0-.1-.05-.2t-.05-.2-.05-.2-.05-.2-.05-.2-.05-.2q0-.05-.05-.15-.05-.1-.05-.15l-.1-.2q-.05-.1-.05-.15-.05-.1-.05-.2-.05-.1-.05-.2-.05-.1-.05-.25l-.1-.2q0-.1-.05-.15 0-.1-.05-.15 0-.1-.05-.2l-.1-.3q-.1-.2-.15-.4-.1-.2-.2-.35-.1-.2-.15-.4-.15-.2-.25-.4 0-.1-.05-.2 0-.1-.05-.2-.05-.05-.05-.15l-.1-.2q-.05-.1-.05-.2-.05-.1-.05-.15l-.1-.2q-.05-.1-.05-.2l-.1-.2q0-.05-.05-.15 0-.05-.05-.15 0-.05-.05-.15 0-.05-.05-.15l-.1-.3q-.05-.2-.15-.4-.05-.2-.1-.35l-.2-.4q-.05-.2-.15-.4-.05-.05-.05-.1-.05-.05-.05-.1-.05-.1-.05-.15 0-.1-.05-.15 0-.1-.05-.15 0-.1-.05-.2l-.1-.2q0-.1-.05-.15l-.1-.2q-.05-.1-.1-.15v-.05q-.05-.1-.05-.2-.05-.1-.05-.15-.05-.1-.05-.2-.05-.1-.1-.15 0-.1-.05-.2v-.15q0-.15-.05-.35l-.1-.7q0-.3-.1-.5-.1-.3-.25-.55l-.3-.5-.1-.2q-.05-.2-.15-.4l-.2-.3q-.1-.2-.2-.35l-.2-.4q-.1-.15-.15-.25l-.2-.3v-.05q-.073-.054-.15-.15l-2.65-3.2-.8-.8q-.232-.37-.2-.8-.136-.059-.3-.1-.05-.05-.1-.15l-.2-.1q-.05-.05-.15-.1-.05-.05-.15-.1l-.2-.1q-.05-.05-.15-.1-.1-.05-.15-.15-.1-.05-.15-.05l-.1-.1-.2-.1-.2-.1q-.1-.05-.15-.1l-.2-.1v-.2q0-.3-.1-.55-.05-.3-.2-.55-.1-.25-.3-.45-.15-.2-.4-.4-.25-.15-.5-.25l-.1-.1q-.1-.05-.2-.05l-.2-.1q-.1-.05-.15-.1-.1 0-.2-.05t-.2-.05l-.2-.1-.05-.05q-.1-.1-.2-.15l-.15-.15-.2-.1q-.05-.1-.15-.15l-.2-.1-.2-.1q-.05-.1-.15-.15l-.1-.1q-.05-.1-.15-.15l-.15-.15q-.1-.05-.15-.1l-.2-.1q-.05-.1-.15-.15l-.2-.1-.25-.25q-.15-.15-.3-.25-.15-.15-.3-.25t-.35-.2l-.3-.2q-.2-.05-.35-.15-.2-.1-.35-.15l-.2-.1q-.1-.1-.2-.1-.05-.05-.15-.1l-.2-.1-.2-.1q-.1 0-.2-.05t-.2-.05q-.05-.05-.15-.1-.1-.05-.15-.1-.1-.05-.2-.05l-.2-.1-.2-.1-.2-.1q-.1-.05-.2-.05-.05-.05-.15-.1-.1-.05-.2-.05l-.2-.1q-.1-.05-.2-.05l-.2-.1-.2-.1q-.45-.2-.85-.45-.35-.15-.7-.4t-.75-.4q-.45-.2-.9-.35l-.8-.2q-.05-.05-.15-.1-.05 0-.15-.05-.1-.05-.2-.05-.05-.05-.15-.05-.1-.05-.15-.1-.1-.05-.2-.05-.1-.05-.15-.1h-.2q-.05 0-.1-.05h-.25q-.05-.05-.15-.05-.1 0-.2-.05-.4-.05-.85 0Z" fill="#FDE7D3"></path><path id="a_hair_39_outline_svg__b" fill="#222525" d="M638 383.75q-.45.45-1.1 1 .55 1.05 1.1-1m-33.85-9.85q.6-3.6 3.6-6.35-3.3 1.15-3.6 6.35m35.15-3.1q1.8 2.65 1.7 5.6.6-3.8-1.7-5.6m-33.5 10.5q-1.15-1.7-1.55-3.6.3 2.65 1.55 3.6m19.95-9.75q-2.35-.5-5.1-.5 2.6 1.15 5.1.5Z"></path><path id="a_hair_39_outline_svg__c" stroke="#000" stroke-width="1.5" stroke-linejoin="round" stroke-linecap="round" fill="none" d="M673.45 542.35q3 9.35 4.85 23.75.8 6.2 2.1 17m-43.5-198.35-.5-.1q-.4-3.35-.4-3.45-.1-.2-.15-.45m-25.8 174.95q.6 11 2.3 22.35m-5.9-195.9q-.15-.15-.25-.3-.2-.3-.4-.55m-1.55-3.6q-.35-1.5-.2-3.1l.1-.7m3.6-6.35q1.05-1.05 2.55-2 5.85-3.4 13.5-2.9 7.7.65 12.5 4.85 1.85 1.55 3 3.3m1.7 5.6q0 .45-.05.9-.35 2.95-2.05 5.35l-.9 1.1q-.45.45-1.1 1m-31.1-3.45q-1.15-1.7-1.55-3.6m33.025 3.4q.968.276-.875 3.55m2.9-13.85q1.8 2.65 1.7 5.6m-36.85-2.5q.6-3.6 3.6-6.35"></path><path id="a_hair_39_outline_svg__d" stroke="#000" stroke-width="3" stroke-linejoin="round" stroke-linecap="round" fill="none" d="M680.4 583.1q5-25.65 3-51.5-2.45-31.3-15.1-57.9-19.6-40.35-26.7-65.15-3.25-11.25-4.7-23.8m43.5 198.35q.3 3.4.75 7.1 3.55 21.05 12.2 34.15-10.3-3.2-19.95-8.05-19.75-9.65-36.55-25.9-16.6-15.9-26.8-34.7m2.3 22.35q-12.25-17.1-19.7-38.7-11.85-34.2-9.1-71.9 3.4-42.8 25.25-88.5.7-1.35 1.4-2.45 1.889-2.88 4-4.2.125-.078.25-.15 1.4-.85 2.9-.95 1.7-.2 3.3-.15 2.75 0 5.1.5m1 .25q3.7 1.1 6.45 3.75 2.45 2.5 3.65 5.45"></path><path id="a_hair_39_outline_svg__e" stroke="#000" stroke-width="1.5" stroke-linejoin="round" stroke-linecap="round" fill="none" d="M621.05 136.05q2.5-2.15 5.4-4.15 10.2-6.9 23.1-10.2 14.65-3.4 29.55-1.35 15.5 2.2 28.2 9.6 7.5 4.15 13.6 9.8 4.85 4.45 8.8 9.85 5.372 7.163 8.55 14.925.096.017.2.025 2.688.249 5.575.55-.472-8.851-3.875-17.7-1.5-4-3.5-7.65-5.9-10.9-15.85-18.65-3.7-2.8-7.7-5m-.4-.7q.2.1.3.2h.1q9.85.95 17.25 6.95 2.7 2.15 5.15 4.75 6.95 7.45 9.85 17.25 1.9 6.2 2.9 12.7.65 3.7 1 7.65 2.187-.41 4.7-.525 1.3-6.225 1.7-11.675.6-7.05-.4-13.45-.9-5.55-3.05-10.7-2.85-7.35-7.45-12.3m-42.95-5.4h-.1m.1.5q5.6 1.9 10.8 4.55m32.65.25v.1m54.4 86.1q2.05-8.75-1.25-14.55-4.1-7.65-10.35-13.3-5.15-4.75-10.95-7.45-1.7-.5-3.3-.95-3.55-.9-7.05-1.3-5.9-.85-11.7-.55-.3 0-.6.1-.249.009-.5.025m-15.7.15q-21.85-1.604-43.05 2.825-20.8 4.55-31.5 14.25-2.1 1.95-6.6 7.9t-.5 12.25q3.95 6.3 4.9 12.5m116.35-79q1.5 1.95 2.65 4.1 2.95 5.3 4 10.85m-40.45 15.4q-.011-.251-.025-.5M661.1 214.4q-.15.1-.25.2-.7.55-1.35 1.2-.2.15-.4.35m-53.65-50.65q-.3 3.65-.1 7.45.75 10.75 6.1 19.2m-14 23.85q1 2.9 2.25 5.55 3.45 7.45 8.95 12.95m50.25-18.2q-31.45 28.6-25.1 77.75"></path><path id="a_hair_39_outline_svg__f" stroke="#000" stroke-width="3" stroke-linejoin="round" stroke-linecap="round" fill="none" d="M701.7 110.85Q696 109 689.8 108q-17.1-2.7-34.15 2.05-16.55 4.25-27.1 15.05-4.7 4.65-7.5 10.45-7.2 6-11.4 13.75-4.35 7.85-5.2 16.7-4.3 6.95-6.85 14.25-3.7 10.55-3.25 20.65.1 7.85 2.6 15.1-11.55 22.3-9.9 40.1 1.6 17.8 6.8 39.95 5.2 22.1 11.85 29.9 6.343 7.505 7.7 37.2m88.4-252.3q7.4-4.3 16.15-4.95 11.1-.8 19.9 4.45 4.1 2.4 7.4 5.8m0 .1q14.5 2.8 24.65 10.3 4.95 3.85 8.45 8.7 7.7 4.25 13.4 12.5 12.35 17.45 12.65 42.65.15 4.75-4.75 11.95"></path><path id="a_hair_39_outline_svg__g" stroke="#000" stroke-width="2" stroke-linejoin="round" stroke-linecap="round" fill="none" d="M634.05 294.05q2.9 6.05 4.95 12.25 9.3 29.5-3.4 60.1"></path><path id="a_hair_39_outline_svg__h" stroke="#000" stroke-width="1.5" stroke-linejoin="round" stroke-linecap="round" fill="none" d="M673.2 244.9h.5q8.3.1 18.2 1.65.5 0 1.15.1 1.35.2 24.5 4.05 2.5.5 4.85.8-.75-1.2-1.35-2.05l-1.6-1.25q-1.25-.9-3.5-1.95-1.7-.85-3.9-1.65-6.25-2.25-12.55-4.35-3.9-1.15-7.6-2.05-1.3-.3-2.55-.6-3.45-1.05-6.85-1.7-4-.3-7.8.55l-.45.1q-.65.1-1.25.3-1.3.3-2.55.75-1.05.3-2.25.6-9.05 3.1-15.8 8.15 9-1.65 20.8-1.45Z"></path><path id="a_hair_39_outline_svg__i" stroke="#000" stroke-width="1.5" stroke-linejoin="round" stroke-linecap="round" fill="none" d="M802.2 244.5h-.5q-6.9.1-15.2 1.65-.45 0-.95.1-1.15.2-20.6 4.05-2.1.5-4.1.8.6-1.25 1.1-2.05l1.4-1.25q1.1-.95 3-1.95 1.35-.85 3.25-1.65 5.15-2.3 10.55-4.35 3.3-1.15 6.35-2.05 1.05-.35 2.1-.65 2.95-1 5.8-1.65 3.4-.3 6.55.55l.35.1q.5.1 1 .3 1.1.3 2.1.7 1 .3 1.9.65.9.3 1.7.7-.1 2.9-.2 6.1-2.7-.2-5.6-.1Z"></path></defs><use xlink:href="#a_hair_39_outline_svg__a"></use><g><use xlink:href="#a_hair_39_outline_svg__b"></use><use xlink:href="#a_hair_39_outline_svg__c"></use><use xlink:href="#a_hair_39_outline_svg__d"></use></g><g><use xlink:href="#a_hair_39_outline_svg__e"></use><use xlink:href="#a_hair_39_outline_svg__f"></use><use xlink:href="#a_hair_39_outline_svg__g"></use></g><use xlink:href="#a_hair_39_outline_svg__h"></use><use xlink:href="#a_hair_39_outline_svg__i"></use></svg>