<svg xmlns="http://www.w3.org/2000/svg" xmlns:xlink="http://www.w3.org/1999/xlink" preserveAspectRatio="none" viewBox="0 0 1500 1500" fill="#2f1b12"><defs><path id="a_hair_36_outline_svg__a" d="M655.85 217.85q.2-.4.2-.7-.75-.1-1.55-.1h-1.75q-7.2-.4-14.55-1.5-2.1-.3-3.75-.5-4.55-.5-6.65-.2-8.3 1.3-15.55 11-2.3 3.5-4.15 7.85-2.1 4.8-4.25 12.2 2.9 9.2 6.3 18.55.65 1.9 1.35 3.7 1.15 3.2 2.4 6.4l5.4 2.7q9.65 4.95 25.65 13.05.8.4 1.65.8-.85-.4-1.65-.8 0 .4.1 1t.6 1q.45.4 1.15.3.65-.1 1.05-.5.4-.5.3-1.1-.2-2-.3-3.8-.1-.7-.1-1.2v-.2q-.2-1.5-.3-3-.75-9.55-.85-16.05-.2-7.4.2-14.35.1-3.9.55-7.6v-.1q.3-4.4.9-8.6.45-2.2 1.15-4.65.85-3 2.4-6.2 1.35-2.9 4.05-7.4Z"></path><path id="a_hair_36_outline_svg__b" stroke="#000" stroke-width="3" stroke-linejoin="round" stroke-linecap="round" fill="none" d="M801.7 199.2q.15-1.6.35-3.2 1.95-18.85 1-29.6-.7-8-4.45-22.85-1.15 2.15-1.85 3.45-1.15 1.9-2.3 3.5-.4-12.25-4.9-22.35-2.55-5.3-9.2-14.45-3.65-4.9-6.05-8.6-.5 1.6-1.25 3.4-.4 1.1-1.15 2.8-.8-2.6-2.05-5.3-1.85-4.2-6.45-11.95-12.45 3.8-24.4 8.15l4.35-7.55q-6.1 2.7-14.1 4.9-14.95 4.15-22.95 7.35.85-2.6 1.45-5.3-10.05 4.4-22.75 8.9-35.6 12.45-44.95 16.85-12.75 5.9-20.05 13-1.1 1.1-2.15 2.2-4.35 5.75-6.15 13.65-.5 2.3-.8 5.4-.2-.2-.35-.4l-.6-.8q-2.5-3.5-5.3-5.7.95 5.7 2.5 11.2H606q-1.45.2-2.7.4-4.75.85-7.8 2.75 3.85.6 7.8 1 1.15 0 2.3.1-1.15 1.5-2.3 3.1-2.4 3.4-4.55 6.9-1.05 1.6-1.9 3.3-1.65 3.3-2.6 6.85-.1.3-.1.7-.8 3.5-1.35 7v.3q-.2 7.4 2.95 19.25 3.4 13.9 8.1 28.35 2.9 9.2 6.3 18.55.65 1.9 1.35 3.7 1.15 3.2 2.4 6.4"></path><path id="a_hair_36_outline_svg__c" stroke="#000" stroke-width="1.5" stroke-linejoin="round" stroke-linecap="round" fill="none" d="M603.85 245.9q2.15-7.4 4.25-12.2 1.85-4.35 4.15-7.85 7.25-9.7 15.55-11 2.1-.3 6.65.2 1.65.2 3.75.5 7.35 1.1 14.55 1.5h1.75q.8 0 1.55.1h4.55q.25-.8.55-1.6.8-3.1 1.75-6.05 3.35-10.7 6.25-18.5.8-2.15 1.55-4.05 2.15-7.1 6.2-11 2.5-2.4 5.65-3.4.6-.2 1.2-.3l2.1-.2q3.55-.2 7.35-.1 3.65.1 9.25.6 4.8.4 10.9 1.1 2.5-5.6 3.55-12.05 1.35-9.2-.75-18.05m-2.8 30.1q2.9.3 6.15.7 3.5.4 6.85.8 3.3.3 6.35.6 5.6.7 9.55.9.3 0 .7.1 7.25-7.3 10.3-18.55 3.1-11.5 1.75-26.95m46.7 67.95q-6-20.15-18.65-28.75-5-1.5-11.85.6-.5.1-.95.2-1.05.3-2.4.8-1.65.5-3.8 1.3-4.15 1.5-6.35 2.1-2.1.5-4.35.9-4.25.5-9.25.4h-1.15m28.25-5.7q3.95-3.8 6.85-8.95 4.25-7.5 4.8-15.6M613.9 274.55l5.4 2.7q9.65 4.95 25.65 13.05.8.4 1.65.8"></path><path id="a_hair_36_outline_svg__d" stroke="#000" stroke-width="1.5" stroke-linejoin="round" stroke-linecap="round" fill="none" d="M676.6 230.45q6.2-2.2 12.65-3.5 9.15 1.6 24 7.55 1.85.7 3.6 1.4 4.05 1.5 7.6 2.8.3 0 .5.1 1.7 1.8 2.9 5.6.75 2.4 1.35 4.9-6.3-1.6-12.35-3.7-8.5-3-16.7-7-6.35-2.9-8.4-3.6-2.6-.8-4.8-1-1.95.1-3.95.3-10.8 1.1-21.25 4.1-1.05.2-2 .5.45-.2.85-.5 7.35-4.7 16-7.95Z"></path><path id="a_hair_36_outline_svg__e" stroke="#000" stroke-width="1.5" stroke-linejoin="round" stroke-linecap="round" fill="none" d="M803.15 228.85q-5.1-2-10.2-3.2-7.35 1.8-19.4 8.05-1.45.7-2.9 1.5-3.3 1.6-6.15 2.9-.2 0-.4.1-1.35 1.9-2.5 5.7-.6 2.4-1.15 4.9 5-1.7 10-3.9 6.85-3.2 13.5-7.4 5.2-3 6.95-3.8 1.95-.85 3.75-1.15 1.55.1 3.2.3 3.85.4 7.6 1.15 0-2.05-.1-4.05-1.05-.6-2.2-1.1Z"></path></defs><g><use xlink:href="#a_hair_36_outline_svg__a"></use><use xlink:href="#a_hair_36_outline_svg__b"></use><use xlink:href="#a_hair_36_outline_svg__c"></use></g><use xlink:href="#a_hair_36_outline_svg__d"></use><use xlink:href="#a_hair_36_outline_svg__e"></use></svg>