<svg xmlns="http://www.w3.org/2000/svg" xmlns:xlink="http://www.w3.org/1999/xlink" preserveAspectRatio="none" viewBox="0 0 1500 1500" fill="#2f1b12"><defs><path d="M715.05 241.85q8.8.6 11.95-.25 4.95-1.55 8.55-7.4-15.75-2.5-33.4-3.05-2.8-.1-5.6-.15-27.95.15-34.15 8.4l52.65 2.45m79.85-9.15q-.25-3.2-2.7-3.8-.7-.2-1.65-.1-14.9.8-33.7 5.65-2.6 5.25-4 9.25l37.25-7.05q4.35-1.5 4.8-3.95m-78-128.5q-15.6-.75-43.5 4.3-27.85 5-55.4 27.55-27.5 22.5-30.55 54.35-.35 4.95-.25 10.2.25 28.65 1.4 53.3 1.25 24.6 3.05 46.45 1.8 21.8 2.3 49.55.55 27.65-28.75 37.55 38.55 28.7 74.2 8.15 3.05-1.75 6.1-3.45-14.1 15.05-33.95 21.4 37.8 6.65 60.6-1.25 22.85-8 17.15-26.8-22.6-16.35-28.6-29.65-6.05-13.35-8.1-22.7-2.05-9.4-6.65-69.65-1.9-38.25-1.3-58.35.6-20.15 30.75-38t95.1-2.85l8.4 1.35q2.55-2.8 4.55-6.55t3.3-11.05q1.25-7.35-3.75-15.5-8-13.35-29-20.85-18-6.6-37.1-7.5Z" id="a_hair_32_fill_svg__a"></path></defs><use xlink:href="#a_hair_32_fill_svg__a"></use></svg>