<svg 
 xmlns="http://www.w3.org/2000/svg"
 xmlns:xlink="http://www.w3.org/1999/xlink"
 width="117px" height="117px">
<path fill-rule="evenodd"  fill="rgb(58, 190, 17)"
 d="M58.500,116.1000 C26.191,116.1000 0.000,90.809 0.000,58.500 C0.000,26.191 26.191,0.000 58.500,0.000 C90.809,0.000 116.1000,26.191 116.1000,58.500 C116.1000,90.809 90.809,116.1000 58.500,116.1000 ZM46.750,70.137 C46.750,70.137 38.900,58.612 30.826,50.538 C30.459,51.272 16.126,61.562 16.126,61.562 C16.126,61.562 37.251,84.687 38.176,94.636 C38.917,94.859 50.425,95.861 50.425,95.861 C50.425,95.861 74.544,37.704 101.874,21.139 C65.709,24.025 46.750,70.137 46.750,70.137 Z"/>
</svg>