<svg 
 xmlns="http://www.w3.org/2000/svg"
 xmlns:xlink="http://www.w3.org/1999/xlink"
 width="1285px" height="1657px">
<path fill-rule="evenodd"  fill="#74d6e7"
 d="M908.268,667.233 C1057.180,762.676 1155.884,929.657 1155.884,1119.716 C1155.884,1416.301 915.558,1656.730 619.102,1656.730 C486.315,1656.730 364.795,1608.488 271.084,1528.573 L190.201,1637.911 L0.581,1497.638 L376.251,989.810 C226.981,894.427 128.000,727.281 128.000,536.1000 C128.000,240.423 368.423,-0.000 664.1000,-0.000 C797.988,-0.000 919.679,48.350 1013.470,128.422 L1094.479,18.914 L1284.099,159.187 L908.268,667.233 ZM282.500,1513.141 C339.054,1533.368 399.977,1544.399 463.479,1544.399 C760.388,1544.399 1001.080,1303.602 1001.080,1006.565 C1001.080,886.201 961.549,775.080 894.780,685.466 L282.500,1513.141 ZM820.686,112.329 C523.657,112.329 282.867,353.119 282.867,650.148 C282.867,770.744 322.566,882.062 389.600,971.765 L1002.145,143.730 C945.454,123.411 884.367,112.329 820.686,112.329 Z"/>
</svg>