<svg 
 xmlns="http://www.w3.org/2000/svg"
 xmlns:xlink="http://www.w3.org/1999/xlink"
 width="1121px" height="1465px">
<path fill-rule="evenodd"  fill="#74d6e7"
 d="M814.690,176.563 C845.494,245.699 826.462,375.485 590.820,430.538 C268.985,505.727 109.164,624.556 560.591,631.608 L560.591,631.624 C1252.655,632.064 1095.691,1026.292 683.186,1109.856 C472.968,1152.442 469.143,1234.436 494.852,1289.069 L1119.150,1289.069 L1119.150,1465.000 L-0.009,1465.000 L-0.009,1289.069 L309.692,1289.069 C277.259,1208.781 285.029,1044.268 530.012,987.062 C852.014,911.873 1011.917,793.044 560.256,785.992 L560.256,785.976 C-131.450,785.536 25.433,391.308 437.725,307.744 C623.715,270.047 648.058,216.476 633.373,176.563 L0.934,176.563 L0.934,0.632 L1120.093,0.632 L1120.093,176.563 L814.690,176.563 Z"/>
</svg>