<svg 
 xmlns="http://www.w3.org/2000/svg"
 xmlns:xlink="http://www.w3.org/1999/xlink"
 width="1156px" height="1664px">
<path fill-rule="evenodd"  fill="#74d6e7"
 d="M803.000,1110.571 L803.000,1663.1000 L674.000,1663.1000 L674.000,1148.059 C642.776,1153.279 610.706,1155.1000 578.000,1155.1000 C545.643,1155.1000 513.908,1153.340 483.000,1148.229 L483.000,1663.1000 L354.000,1663.1000 L354.000,1110.987 C146.025,1023.475 -0.000,817.793 -0.000,577.1000 C-0.000,258.780 258.780,0.000 578.000,0.000 C897.220,0.000 1156.000,258.780 1156.000,577.1000 C1156.000,817.409 1010.444,1022.822 803.000,1110.571 ZM578.000,147.562 C340.276,147.562 147.562,340.276 147.562,577.1000 C147.562,815.724 340.276,1008.438 578.000,1008.438 C815.724,1008.438 1008.438,815.724 1008.438,577.1000 C1008.438,340.276 815.724,147.562 578.000,147.562 Z"/>
</svg>