<?xml version="1.0" encoding="utf-8"?>
<!-- Generator: Adobe Illustrator 19.0.0, SVG Export Plug-In . SVG Version: 6.00 Build 0)  -->
<svg version="1.2" baseProfile="tiny" id="Layer_1" xmlns="http://www.w3.org/2000/svg" xmlns:xlink="http://www.w3.org/1999/xlink"
	 x="0px" y="0px" viewBox="-369 171.6 219.6 219.4" xml:space="preserve">
<path d="M-164.9,272.3c2.7,0,4.7-2.1,4.9-4.7c0-2.7-2.2-4.9-4.9-4.9h-21.7v-17.9h21.7c2.7,0,4.9-2.2,4.9-4.9s-2.2-4.9-4.9-4.9l0,0
	h-22.1c-1-6.6-4.2-12.6-8.9-17.2c-4.7-4.7-10.8-7.7-17.2-8.9v-22.1c0-2.7-2.1-4.7-4.7-4.7c-2.7,0-4.7,2.1-4.7,4.7l0,0v22h-18v-22
	c0-2.5-2.1-4.6-4.6-4.7h-0.1c-2.7,0-4.7,2.1-4.7,4.7v22h-18.2v-22c0-2.7-2.2-4.7-4.7-4.7c-2.7,0-4.7,2.1-4.9,4.7v22h-18v-22
	c0-2.7-2.2-4.7-4.9-4.7c-2.5,0-4.7,2.1-4.7,4.6l0,0v22.2c-13.4,2.2-23.9,12.7-26.1,26.1h-22.1c-2.7,0-4.7,2.1-4.9,4.7c0,0,0,0,0,0.1
	c0,2.7,2.2,4.7,4.9,4.9h21.9v17.9h-21.9c-2.7,0-4.7,2.2-4.9,4.9c0.1,2.7,2.2,4.6,4.9,4.7h21.9v18h-21.9c-2.7,0-4.7,2.2-4.9,4.9
	c0,2.5,2.1,4.7,4.7,4.7c0,0,0,0,0.1,0h21.9V318h-21.9c-2.7,0-4.7,2.1-4.9,4.7l0,0c0,2.7,2.2,4.9,4.9,4.9h22.2
	c0.9,6.6,4,12.6,8.8,17.2c4.6,4.7,10.8,7.9,17.2,8.9v22.1c-0.1,2.7,2,4.7,4.6,4.9h0.1c2.7,0,4.9-2.2,4.9-4.9l0,0v-21.7h18v21.7
	c-0.1,2.7,2,4.9,4.6,5c2.7,0.1,4.9-2,5-4.6c0-0.1,0-0.2,0-0.5V354h18v21.7c0,2.7,2.1,4.9,4.6,4.9c0,0,0,0,0.1,0
	c2.5,0,4.7-2.1,4.7-4.6c0-0.1,0-0.1,0-0.2V354h18v21.7c0,2.7,2.1,4.7,4.7,4.7c2.7,0,4.7-2.1,4.7-4.7v-22.1c6.6-1,12.6-4.2,17.2-8.9
	c4.7-4.6,7.9-10.6,8.8-17.2h22.1c2.7,0,4.9-2.1,4.9-4.9c0-2.7-2.2-4.7-4.9-4.7h-21.7v-18.2h21.7c2.7,0.1,4.9-2,4.9-4.6l0,0
	c0-2.7-2.2-4.7-4.9-4.9h-21.7v-18H-164.9L-164.9,272.3z M-209,317.9c0,3.6-1.5,7.1-4,9.5c-2.5,2.5-5.9,4-9.5,3.9h-73.3
	c-3.6,0-7.1-1.4-9.5-3.9c-2.5-2.5-3.9-5.9-3.9-9.5v-73.3c0-3.6,1.4-7.1,3.9-9.6c2.5-2.5,5.9-3.9,9.5-3.9h73.3c3.6,0,7.1,1.4,9.5,3.9
	c2.5,2.5,4,6,4,9.6V317.9L-209,317.9z M-230.1,252c-0.6-0.6-1.4-0.9-2.1-0.9h-54.1c-0.8,0-1.6,0.3-2.1,0.9c-0.6,0.6-0.9,1.4-0.9,2.2
	v54.1c0,0.8,0.3,1.6,0.8,2.2h0.1c0.6,0.6,1.3,0.9,2.1,0.9h54.1c0.8,0,1.6-0.3,2.1-0.9c0.6-0.6,0.9-1.4,0.9-2.2v-54
	C-229.1,253.5-229.4,252.7-230.1,252L-230.1,252L-230.1,252z"/>
</svg>
