<svg xmlns="http://www.w3.org/2000/svg" xmlns:xlink="http://www.w3.org/1999/xlink" preserveAspectRatio="none" viewBox="0 0 1500 1500" fill="#fee8d3"><defs><path d="M730.45 263.5v-.1q-.35-4-2.6-7.8.6-.55 1.15-1.65 1.35-3.2-.7-6.45-1.05-1.55-2.05-2.25-1.05-.95-4-2.15l-9.65-4.15q-4.95-2.05-8.25-2.9-4.3-1.05-7.2-.45-2.25.55-4.35 1.9-1.7 1.3-2.9 2.95-1.3 1.95-1.4 3.45-.05.95.25 1.7-.25.1-.4.15-3.1 1.55-5.15 3.75-.7.6-1.25 1.25 1.4-.15 2.85 0 2.15-.25 4.25-.25 1.2-.1 2.5-.1 12.55 0 23.3 4.05 8.6 3.1 15.6 9.05Z" id="a_face_19_fill_svg__a"></path><path d="M747.65 289.95q-2.65.25-6 1.1-8.45 2.15-13.45 6.4-1.35 1.25-1.8 2.3-.35 1.1-.1 2.95.6 2.2 2 3.15.25.2.6.35-.25 1.4.7 2.35 1.3 1.8 5.25 1.45 1.95-.2 5.05-.8.55.35 1.2.8 2.8 2.05 4.85 3.2 6.35 3.25 10.95.65 2.5-1.2 4.7-4.9.2-.25.35-.5h2.5q1.1 0 2.35-.1 1.2 0 2.5-.7 1.25-.6 1.6-2.05.1-.75-.6-2.05v-.1q.1-.1.2-.15 1.7-.95 2.2-2.25.9-1.9-.5-4.15-.7-1.2-3-3-3.9-2.75-7.15-3.6-2.95-.8-8.25-.6-4.05 0-6.15.25Z" id="a_face_19_fill_svg__c"></path><path d="M783.2 233.9q-8.5-.9-13.7 1.65-3.35 1.55-6.5 5-1.9 2.1-5.1 6.6-1.9 2.95-1.8 4.55.05 1.3 1.15 2.2.5.4 1 .6-2.9 4.2-3.15 8.95v.1q6.35-5.95 14.1-9.05 9.8-4.05 21.25-4.05 1.1 0 2.25.1 1.8 0 3.75.25 1.35-.2 2.65 0-.55-.7-1.15-1.35-1.9-2.15-4.7-3.7-.3-.15-.55-.3-.25-.1-.45-.2.2-.4.35-.8.75-2.05.15-4.3-.5-2.2-2.15-3.6-2.35-2.15-7.4-2.65Z" id="a_face_19_fill_svg__d"></path><path id="a_face_19_fill_svg__b" stroke="#000" stroke-width="1.5" stroke-linejoin="round" stroke-linecap="round" fill="none" d="M730.45 263.4v.1"></path></defs><g><use xlink:href="#a_face_19_fill_svg__a"></use><use xlink:href="#a_face_19_fill_svg__b"></use></g><use xlink:href="#a_face_19_fill_svg__c"></use><use xlink:href="#a_face_19_fill_svg__d"></use></svg>