<svg xmlns="http://www.w3.org/2000/svg" xmlns:xlink="http://www.w3.org/1999/xlink" preserveAspectRatio="none" viewBox="0 0 1500 1500" fill="#fee8d3"><defs><path d="M724.65 323.7q-6.75-6.9-17.65-7.65-10.9-.6-21.3 3.85-9.6 4.25-8.9 52.05h-.05q.07 1.525.2 3.15.95 11.65 1.25 20.75h.1q-.1-1.45-.15-3.05 4.45 1.2 19.45 6.15 14.8 4.85 23.25 8.05 7.65-5.15 15.1-9.25-1-11.85-2.65-23.5-.175-1.175-.4-2.3h.05l-2.45-28.45q.2-13.6-5.85-19.8M516.3 810.6q-7.85-5-20.1-6.55-12.6-2.25-20.55.85l-1.1 12.2q-.05.6-.1 1.4l-.1-.05q-4.85 16.2-8.5 39.1-.85 6.2 8.6 13.5l.45 4.85q.9 3.35 11.55 7.2l5.95 12.75q3.1 3.9 6.5 3 3.3-.95 2.4-5.3l-5.6-16.85q.8-8.5 2.6-13.75 1.15 12.6 5.95 21.15 7.8 11.75 12.4 13.55 4.55 1.8 6.1-1.5 1.5-3.4-2.55-7.8-4-4.4-6.65-10.4-3.1-15.7-1.4-22 1.35-4.8 7.35-1.55 1.95 1.35 3.7 3.05 1.2 1.05 2.2 2.35.05.05.15.1 6.5 8.35 10.2 8.75 4.9.65 6.25-2.05 1.3-2.75-2.4-6.1-3.6-3.4-8.85-18.9-1.25-3.4-2.4-5.05-1.2-1.65-3.8-3.9-2.55-2.3-10.75-5 .4-1.45.7-3.2.5-3.25 1.2-8.45.25-2.55.6-5.4m418.15-19.1-2.95-7.5q-23.45 2.35-38.3 16.45 1.45 4.3 2.7 7.4.15.25.25.5 1.3 2.95 3.3 5.3-.05 3.25.2 6.2.4 3.55 1.65 7.75 1.25 4.1 3.05 7 .2.3.35.6 1.6 2.5 2.7 5.2 1.35 2.95 2.9 6.85 1.45 3.75 2.65 7.85.35 1.15.6 2.25.45 2.25.7 4.3.2 1.5.25 2.85v1.55q-.05 3.95 0 8.6.15 4.55 3.65 6.15 3.65 1.6 4.9-4 1.25-5.65.45-13.7 2.05 8.85 2.15 14.55.05 5.7 1.8 7.65 1.8 1.85 3.9 1.8 2.1-.05 3.45-4.4 1.35-4.4 0-14.85 1.1 5.8 1.75 10.8.75 4.95 4.5 5.7 3.8.6 4.55-2.65.8-3.4.55-6.85-.05-.75-.1-1.35-.2-2.4-.3-3.25 1.35 6.95 4.75 7.65 3.3.65 4-2.05.8-2.75.1-10.5-.6-7.85-2.95-16.3.5.2 2.3-.35 1.9-.5 2.6-2.65.7-2.25-1.75-6.2-2.4-4.05-4.8-15.25-2.3-11.25-6-15-3.6-3.9-5.15-6.2-1.5-2.25-2.25-3.55l-.05.05q-.1-2.7-.95-5.4-.4-1-1.15-3Z" id="style_01_fill_svg__a"></path></defs><use xlink:href="#style_01_fill_svg__a"></use></svg>