<svg xmlns="http://www.w3.org/2000/svg" xmlns:xlink="http://www.w3.org/1999/xlink" preserveAspectRatio="none" viewBox="0 0 1500 1500" fill="#fee8d3"><defs><path d="M705.25 123.7q-.85 0-1.65-.05h-1.25q-1 0-2-.05h-.4q-.15.05-.35.1-.2.05-.35.15-.2.05-.4.15-.15.1-.35.2l-.3.2q-.15.1-.3.25-.7-.05-1.4-.05h-2.45q-.7-.05-1.35 0-.85.1-1.7.4h-.25q-.15.05-.3.05-.2 0-.4.05h-.35q-.2.05-.4.05-.2.05-.4.05l-.4.1-.6.2h-.75q-.25 0-.45.05h-.45q-.25.05-.45.1-.25 0-.45.05-.45.15-.85.25h-1.05q-.2.05-.35.05-.2 0-.4.05h-.35q-.15.05-.3.05-.1.05-.2.05-.15 0-.25.05t-.2.05q-.15.05-.25.1-.2.05-.35.1-.2.05-.45.05-.2.05-.45.1-.2.05-.45.1-.15.05-.35.1-.15.05-.35.15-.15 0-.35.05h-.35q-.15.05-.35.1l-.3.1q-.2.05-.35.1-.15.05-.35.15-.15.05-.35.1l-.4.1q-.15.05-.35.15-.2.05-.35.15-.2.05-.35.15-.05.05-.1.05l-.3.1q-.15.05-.3.15l-.3.1q-.1.05-.25.05-.1.05-.25.05-.2.1-.45.15l-.4.2q-.25.05-.45.1-.2.1-.4.15l-.4.2q-.2.05-.4.2-.1 0-.15.1l-.3.1q-.2.05-.35.15-.15.05-.35.15-.15.1-.35.25-.15.1-.35.2-.1.1-.25.2-.1.1-.25.15-.25.2-.55.35-.15.1-.35.15l-.7.3q-.35.2-.7.35l-.6.3q-.25.1-.45.15-.35.15-.65.25-.4.15-.75.35-.2.1-.4.15-.15.05-.35.15-.2.05-.4.15-2.05.65-3 2.55-.266.517-.4 1.05-.52.388-1.05.8l-.3.1q-.15.1-.3.15l-.3.2q-.15.05-.3.15l-.3.2q-.25.15-.55.3-.35.25-.65.45l-.7.5q-.3.3-.6.55-.3.25-.6.55-.15.1-.3.25-.2.1-.35.25-.15.1-.3.25t-.3.25q-.2.15-.35.3l-.25.25-.25.25q-.1.1-.25.2t-.3.25q-.2.1-.35.2l-.3.2-.3.2q-.2.1-.3.25-.15.1-.3.25-.3.25-.55.5l-.5.6q-.15.1-.3.25-.15.05-.3.15-.1.05-.25.1-.15.1-.3.25l-.3.2q-.15.1-.3.25-.2.1-.35.2-.1.1-.2.15-.2.1-.35.2-.15.15-.3.25l-.1.05q-.138.088-.25.2-.15.05-.3.15-.1.05-.25.1-.15.15-.3.25l-.3.2-.3.2q-.1.1-.25.15-.15.1-.35.25l-.3.2q-.15.1-.3.25-.15.1-.3.25t-.3.25q-.05.1-.15.2-.15.15-.35.25-.15.15-.3.25-.15.15-.35.25-.15.15-.3.25l-.4.2q-.2.15-.35.3-.2.1-.4.25-.15.15-.35.3-.2.1-.35.25-.15.15-.3.25-.5.3-.95.65-.9.65-1.65 1.4-.5.45-.9.95-.4.45-.75 1-.45.7-.7 1.5-.3.35-.6.75l-.7.9-.8 1q-.4.5-.65 1.05-.3.55-.45 1.15l-.2.3-.2.4q-.1.2-.2.35-.1.2-.15.35-.05.15-.1.25l-.1.3q-.05.15-.1.25v.1q-.15.15-.25.35-.1.15-.2.35-.1.15-.2.35-.1.2-.15.4-.1.2-.15.4-.05.2-.15.4 0 .2-.05.4-.05.25-.05.45-.05.2-.05.4-.05.25-.05.45-.05.15-.05.35v.35l-.2.3-.2.3-.2.3q-.1.15-.15.35-.1.15-.15.3l-.1.1q-.1.15-.15.35-.1.15-.2.35-.05.15-.1.35-.1.15-.1.35-.05.15-.1.35-.05.2-.1.35 0 .15-.05.35 0 .1-.05.25 0 .1-.05.15-.15.35-.35.65-.5.9-.7 1.85-.3 1.4-.35 2.8v4.55q-.05.15-.15.25-.05.15-.1.25-.1.15-.15.3l-.2.3q-.05.2-.1.35-.1.2-.15.35-.05.15-.05.3-.05.1-.1.25-.05.2-.15.35-.15.4-.25.75-.1.4-.15.8-.05.4-.05.8-.05.4-.05.8t-.05.8q-.1.35-.2.75-.25 1-.25 2.05-.05.75-.05 1.45v3.55q-.05.15-.15.3l-.2.3q-.05.15-.15.3-.1.15-.25.3l-.1.2q-.3.55-.45 1.2-.3 1.35-.25 2.75.05 2.1 0 4.2 0 2.4-.15 4.85-.1 2.1.4 4.15-.05.2-.15.35-.1.2-.15.4-.05.15-.15.35-.05.2-.05.35-.05.2-.1.35-.05.2-.05.35-.1.2-.15.35-.05.2-.15.35-.05.2-.05.35-.043.171-.1.35.14.881.4 2.35.35 2.1.35 3.35 0 1.287-.35 2.1.409.54.95.9 0 .75-.05 1.5v2.4q-.05 1.5-.05 3 0 1.2.05 2.35.05 1.25.55 2.4 0 .15.05.35 0 .15.05.3.05.2.1.35.05.15.1.35v1.8q-.241.518-.4 1.05.136.543.05 1.45.05.55.65 2.3.55 1.4.3 2.25.197.264.4.5v.45q.05 1.1 0 2.25 0 .85-.05 1.7v1.85q.05.9.4 1.7.05.1.1.25.1.1.15.2.05.1.1.25l.1.2q.1.2.15.35h.05q0 .2.05.35l.1.3q.05.15.15.3.05.15.15.3.1.15.15.25.1.15.25.25.05.2.1.3l.2.3q.05.15.15.3l.25.25.2.2q.1.1.2.15.15.1.25.15.05.15.05.3.05.15.1.25l.1.3q.05.1.15.25.05.1.15.2.1.15.2.25t.25.2l.2.2.3.1q.1.1.25.15.15.05.3.05.1.05.25.05.15.05.3.05h.3q.15-.05.3-.05.15-.05.25-.1l.3-.1q.15-.05.25-.15.15-.05.25-.15.15-.1.25-.2l.2-.2q.1-.1.15-.25.1-.1.15-.2.1-.15.15-.3.05-.1.1-.25 0-.2.05-.4.05-.35.05-.65.046-.323.05-.6.174.03.35.05.9.1 1.75-.2 1-.3 1.8-1 .65-.55 1.05-1.3.35-.65.5-1.3.1-.15.2-.25.15-.15.25-.3l.2-.3.2-.3q.1-.2.2-.35.1-.15.15-.35.15-.35.2-.7.1-.35.15-.7v-.4q0-.15-.05-.3v-.3q0-.2-.05-.35V254.4q.7-.1 1.4-.4.55-.2 1-.5.45-.35.8-.75.4-.4.65-.9t.4-1q.05-.2.05-.4.05-.15.1-.35 0-.15.05-.35.8-.05 1.65-.25 1.4-.4 2.45-1.4.95-1 1.55-2.25.75-1.55 1.15-3.25.35-1.55.65-3.15l.2-.2q.2 0 .4-.05.2 0 .35-.05l.4-.1q.2-.1.4-.15.15-.1.35-.15.15-.1.35-.2.15-.1.35-.2.15-.15.3-.25.6.2 1.2.3.6.1 1.15 0 .4-.05.8-.15.35-.05.65-.2.35-.15.65-.35.45-.25.85-.65l.3-.3q.65-.85 1.25-1.75.85-1.35 1.5-2.8.55-1.3 1.1-2.65.45-1.15.9-2.35l.5.6q.25.25.55.5.3.25.6.45.35.2.75.35.4.15.8.25.45.05.85.1.85-.05 1.65-.25 2.2-.5 3.65-2.25 1.75-2.2 3.4-4.5 1.5-2.1 2.7-4.35l3-5.6q.25-.35.5-.75 1.25-1.8 2.25-3.8 1-2.1 1.8-4.35.9-2.6 1.7-5.25.7-2.1 1.3-4.25.15-.05.25-.1.95-.5 1.85-1.1.75-.5 1.45-1.05t1.3-1.2q.6-.65 1.15-1.3.1-.1.2-.25.15-.1.25-.25.05-.1.15-.25.05-.15.15-.3 0-.2.05-.35-.05-.2-.05-.35-.05-.2-.1-.35-.05-.15-.15-.35-.1-.1-.2-.25t-.25-.3q-.1-.1-.25-.2t-.35-.15l-.3-.1q-.2-.05-.35-.1h-.4q-.15 0-.35.05l.1-.4q.1-.2.1-.4.05-.25.1-.45V183.75q-.05-.2-.05-.4.15-.1.35-.2.55-.3 1.1-.65l.8-.5q.35-.2.75-.45.35-.3.7-.55l.9-.6q.15.4.35.8l.4.7q.2.35.45.6l.5.6.6.5q.45.35.95.65.05.15.05.35.05.15.1.35 0 .15.05.35.1.2.15.4l.2.4q.05.2.15.4.05.2.15.4.3.5.65.95.35.45.8.8.3.25.6.45.35.2.65.4.35.2.7.35.5.2 1.1.3-.25.4-.45.75-1.25 2.05-1.9 4.35-.55 1.95-.05 3.95.5 2.05 2.05 3.45 1.75 1.6 4.1 1.85 2.65.3 5.2-.7.15.4.3.75.2.6.55 1.1l.5.6q.25.3.55.55.25.3.55.5.35.25.65.5v.4q.05.65.2 1.25.25 1 .8 1.85.3.5.65.9.4.4.8.7.5.4 1.05.65.15.35.3.65.5 1.15 1.4 2 1.05 1 2.4 1.5 1.35.45 2.8.35 1.8-.15 3.35-1.2 1.3-.85 2.25-2.1.4.1.75.25.6.2 1.3.3.55.05 1.05.1.55 0 1.05-.05t.9-.2q.55-.2 1.15-.4l.3.1q.15.05.35.1l.4.1q.05.15.1.25.35 1.05 1.05 1.9.75.9 1.7 1.55.95.7 2.1.95 1.5.35 3-.05 1.4-.35 2.5-1.35.05.2.15.35.05.2.1.35.05.15.15.35.05.2.15.4.05.2.15.4.15.35.35.75.15.35.35.75l.3.4q.1.15.25.35l.3.4q.15.2.3.35.7.65 1.45 1.15.9.65 1.95.9 1.25.35 2.5.2 1.65-.2 3.1-1 1.25-.7 2.1-1.85.1.4.2.75.85 3.45 1.75 6.85.479 1.864 1.05 3.7.01.03 0 .05l.05.05.05.1v.1q.51 1.667 1.1 3.3 1.2 3.4 3.55 6.15 1.6 1.85 3.85 2.95 3.59 1.795 7.15 0l.15.1q.15.15.3.25l.2.05q-.021.057-.05.1-.1.15-.15.35l-.1.3q-.05.2-.05.35-.05.2-.05.35v.35q0 .2.05.35 0 .2.05.35l.1.3.1.3q.1.15.15.25-.05.2-.15.35l-.1.4q-.05.1-.1.25t-.1.25q-.1.15-.15.3l-.1.3-.1.2q0 .1-.05.2 0 .2-.05.4t-.05.4v.4q0 .2.05.4 0 .2.05.4t.15.4q.05.2.15.35.1.2.2.35.1.2.2.35l.3.3q.15.15.3.25.15.15.3.25t.35.2q.15.1.35.15.2.1.35.15.2.05.35.05.2.05.35.05.2.05.35.05.2.05.35.05h.9q.25 0 .5-.05.25 0 .5-.05.2-.05.45-.1l.4-.1q.15-.05.3-.15.15-.1.35-.2l.6-.4q.35-.25.65-.45l.6-.5q.3-.25.6-.55.3-.3.65-.7l.5-.6.2-.4q.05-.1.15-.15l.25-.25q.15-.15.25-.3t.2-.35q.15-.15.25-.35l.2-.4q.1-.15.2-.35.1-.2.15-.4.1-.2.15-.4l.1-.4q.1-.15.25-.35.1-.15.2-.35.1-.15.2-.35.1-.15.15-.35l.1-.4q.05-.05.05-.1l.1-.2q.012-.037 0-.1.164-.055.3-.15.3-.25.55-.6.25-.3.45-.7.15-.3.3-.7.2-.55.15-1.15 0-.45.1-.9l.1-.1q.05-.1.15-.15.1-.05.15-.1.1-.15.2-.25.1-.15.2-.25l.2-.2q.1-.1.15-.2.1-.1.15-.2.1-.1.15-.25.05-.1.1-.25.05-.1.1-.25t.05-.3q.05-.1.1-.25v-.25q.05-.15.15-.3.05-.15.1-.25 0-.2.05-.35.05-.15.05-.35v-.3q-.05-.2-.05-.35.05-.1.05-.2l.1-.2q0-.15.05-.3 0-.15.05-.3 0-.15.05-.3-.05-.15-.05-.3t-.05-.35l-.1-.3v-.05q0-.2.05-.35v-.35q0-.15-.05-.35-.05-.1-.05-.25-.1-.1-.15-.2-.05-.1-.15-.2-.05-.1-.15-.2-.1-.1-.2-.15-.1-.05-.2-.15h-.05q-.116-.44-.35-.85l-.1-.3-.1-.3q-.05-.15-.1-.25-.05-.15-.15-.25-.05-.2-.1-.45-.05-.2-.15-.4-.05-.2-.15-.4 0-.2-.05-.4 0-.2-.05-.4-.05-.15-.1-.35 0-.2-.05-.35-.05-.2-.15-.35-.05-.15-.15-.3 0-.15-.05-.3 0-.15-.05-.3l-.1-.3-.1-.3q-.05-.15-.15-.3-.05-.25-.1-.45t-.15-.4q-.1-.25-.15-.45-.1-.2-.25-.35 0-.2-.05-.35-.05-.15-.1-.35l-.1-.3q0-.2-.05-.4-.05-.15-.1-.35 0-.15-.05-.35-.1-.2-.15-.4.35-1.05.4-2.15 0-1.5.05-2.95 0-1.4.05-2.75.05-1.2 0-2.45-.05-1.45-.4-2.85v-.35q0-.2-.05-.4v-.4q0-.2-.05-.4 0-.2-.05-.4 0-.2-.05-.4-.05-.3-.1-.55-.05-.25-.15-.45-.1-.25-.2-.45-.05-.2-.15-.45l-.2-.4q.05-.1.1-.25.1-.2.15-.4l.1-.4q.05-.2.05-.45.05-.2.05-.4t.05-.4l.1-.4q.3-.85.4-1.7.1-.85.05-1.7 0-.75-.2-1.5t-.55-1.4q-.35-.5-.8-.95 0-.15-.05-.3l-.1-.4-.1-.4q-.05-.2-.15-.4.05-.2.05-.4v-1.25q0-.4-.05-.8-.05-.35-.15-.7-.15-.35-.25-.7v-3.1q.05-.4.05-.85 0-.6-.15-1.15-.1-.6-.35-1.15v-.7q0-.25-.05-.5-.05-.2-.05-.45l-.1-.5q-.05-.2-.1-.35-.05-.2-.15-.35v-.05q.05-.45.1-.95 0-.4.05-.75v-.8l-.1-.8-.1-.7q-.15-.5-.4-1 0-.25-.05-.5-.05-.45-.15-.9-.1-.35-.25-.7l-.3-.6-.4-.6q-.3-.5-.7-.95-.1-.2-.15-.35-.1-.2-.2-.35-.1-.2-.2-.35-.1-.2-.2-.35-.1-.15-.25-.3-.1-.15-.25-.3l-.6-.6q-.1-.2-.2-.35-.05-.45-.05-.85-.05-.6-.25-1.2-.15-.55-.45-1.1-.25-.55-.65-1.05-.35-.45-.8-.85l-.6-.6q-.15-.15-.25-.3-.15-.15-.25-.3-.15-.15-.25-.3l-.3-.3q-.15-.15-.3-.35-.2-.15-.35-.35-.1-.05-.15-.15l-.3-.3q-.1-.15-.2-.25-.05-.2-.1-.35-.05-.15-.15-.35-.05-.15-.15-.3-.05-.2-.15-.35l-.2-.3q-.1-.2-.2-.35l-.5-.6q-.15-.1-.25-.2l-.2-.2-.2-.3q0-.1-.05-.15-.05-.15-.15-.35-.05-.15-.15-.3-.05-.15-.15-.3-.25-.35-.5-.75-.2-.3-.45-.6-.2-.3-.45-.6t-.55-.55q-.3-.3-.6-.55-.4-.25-.75-.55-.1-.1-.2-.25-.15-.1-.25-.25l-.05-.05q-.1-.15-.15-.35-.1-.1-.15-.2-.1-.15-.15-.25-.1-.15-.2-.35l-.2-.3q-.1-.15-.25-.3-.1-.2-.25-.3-.05-.2-.15-.35-.1-.15-.2-.35l-.2-.3-.2-.3q-.15-.1-.25-.25-.15-.15-.3-.25l-.25-.25q-.15-.15-.35-.25l-.3-.2q-.15-.1-.35-.2-.15-.15-.3-.25-.1-.15-.3-.25l-.3-.2q-.15-.15-.3-.2-.2-.1-.35-.2-.2-.1-.35-.15-.2-.1-.35-.2l-.4-.2q-.2-.1-.4-.15-.2-.1-.4-.15l-.4-.1q-.1-.15-.15-.35l-.3-.7q-.15-.3-.35-.6-.2-.3-.45-.6-.2-.25-.45-.5-.2-.25-.45-.45-.45-.35-.95-.75-.1-.05-.25-.15-.15-.05-.25-.15-.15-.1-.3-.25-.2-.1-.35-.25-.15-.1-.3-.25-.15-.05-.25-.1-.1-.1-.25-.15-.15-.15-.35-.3-.15-.15-.35-.3-.2-.15-.35-.3-.2-.15-.35-.3-.35-.3-.7-.55-.2-.15-.35-.3-.15-.15-.3-.25-.2-.15-.35-.25l-.4-.2q-.15-.1-.35-.2-.2-.1-.4-.25-.2-.05-.4-.15-.2-.05-.4-.15l-.4-.1-.2-.1q-.199-.116-.4-.25l-.6-.3-.6-.3q-.3-.15-.65-.35-.4-.2-.75-.4-.6-.3-1.25-.65-.05-.1-.15-.15l-.2-.3-.2-.3q-.1-.15-.25-.3-.1-.15-.25-.25-.1-.15-.25-.25l-.3-.2-.3-.2q-.15-.1-.35-.15-.3-.15-.65-.3-.15-.1-.3-.15-.15-.1-.35-.15-.15-.05-.35-.1-.2-.05-.45-.1-.2-.05-.45-.1-.2-.05-.45-.05-.2 0-.45-.05h-.65q-.2-.05-.35-.1l-.4-.1q-.15-.05-.35-.1-.2-.05-.4-.05l-.4-.1q-.35 0-.7-.05t-.75-.05q-.3-.05-.6-.05-.15-.05-.35-.1l-.3-.1q-.1-.15-.25-.3t-.25-.3q-.15-.1-.3-.25-.15-.1-.3-.25-.1-.05-.25-.15-.15-.05-.3-.15l-.3-.2-.3-.2-.3-.2q-.35-.25-.75-.45l-.3-.2-.3-.2q-.15-.1-.35-.15-.15-.1-.35-.15-.15-.05-.35-.1-.2-.05-.35-.1-.2-.05-.4-.05-.2-.05-.45-.05-.2-.1-.4-.15-.15-.05-.35-.1-.2-.1-.4-.15-.15 0-.35-.05-.2-.05-.4-.05l-.4-.2-.4-.1q-.15-.05-.35-.1-.2-.05-.35-.1-.2 0-.35-.05h-.4l-.4-.2q-.25-.05-.45-.1t-.45-.1q-.2-.05-.45-.05-.2-.05-.45-.05-.3 0-.6-.05-1.4-.55-2.9-.55-2.1 0-4.2-.05-2.5 0-5-.05-2.3-.05-4.6-.15-2.3-.1-4.6.3h-.3q-.15-.05-.3-.05t-.3-.05q-.15-.05-.35-.15-.2-.1-.4-.15-.15-.05-.35-.1l-.4-.1h-1.15q-.75-.05-1.5-.05-.9 0-1.75-.05m-33.85 5.8h-.05.05m19.8 60.75q0-.05.05-.1v-.05q.05-.05.05-.1.05-.05.1-.05.1-.05.15-.1l.2-.1q.1 0 .15-.05l.2-.1q.25-.1.1 0l-.1.1-.2.2q-.1.05-.2.15l-.2.2q-.15.05-.25.15-.05.1-.15.15.05-.05.05-.1t.05-.1v-.1m78.6 44 .05.05v.15-.05q0-.078-.05-.15m.2.4v.15-.05q0-.078-.05-.15l.05.05M622.35 198.6h-.05q.048-.001.05-.05v.05Z" id="a_head_17_fill_svg__a"></path><path id="a_head_17_fill_svg__b" d="M686.95 181.25q-3.15.65-5.5 2.85-2.15 2-2.2 4.9-.1 3 2 5.15-.05.2-.1.45l-.1.5q0 .2-.05.45v.45q0 .25.05.5v.45q-.4.2-.8.35-.65.3-1.25.55-.85.35-1.7.75-.75.3-1.5.7l-1.1.6q-.55.2-1.1.45-.9.35-1.75.75t-1.6.95q-.7.6-1.3 1.35-.7.9-1.05 2-.35 1.2-.45 2.5 0 .4.05.8t.15.8q.1.4.2.75l.3.8q.1.15.2.35.15.2.25.35.15.2.3.35.1.2.25.35.15.2.25.35.3.3.6.55.3.2.65.45.3.2.65.4.5.25 1.1.45.7.2 1.5.25.65.05 1.3 0l.1.4q.05.25.15.45.05.2.15.4.05.2.15.4l.2.4.15.2q-3.922 1.57-7.6 3.4-11.6 5.8-20.5 14-9.55 8.8-15 19.4-2.7 5.45-2.9 9.3-1.4 3.05-2.1 5.9-.85 4-.7 9.8 0 4.6.55 7.6l1.05 5.2q.7 2.05 1.85 3.7 1.05 1.5 2.25 2.3 2.65 9.65 5.35 22.2.15 1 .45 2.1 1.55 7.35 3.4 14.7 2.3 9.75 5.1 19.4.4 1.45.85 3 2.2 5.35 7.35 10.65.3.25.45.45 4.65 4.6 11.65 9.05 20.65 12.7 49.05 23.3 13.05 3.9 26.8 3 3.5-.3 6.9-.8 2.1-.35 4.2-.75.7-.2 1.4-.35 8.35-2.05 13.4-8.9 3.25-4.35 5.1-9.1 2.7-5.55 6.2-15.9 1.75-5.2 3.8-11.6 1.05-3.25 2-6.15l1.2-3.1q7.8-20.3 12.9-41.25 2.1-8.55 1.4-18.05l-.35-3.45q-1.15-4.5-2.45-8.95-2.9-9.3-6.55-18.45.6-.6.15-2.2-3.05-10.85-9.7-20.45-6.6-9.45-15.8-16.3-10.25-7.5-21.45-10.3-4.105-1.092-8.95-1.6-1.443-.998-3.05-1.65-2.45-1.05-5-1.9.1-.2.15-.35.1-.4.15-.75.1-.4.15-.75.05-.35.1-.75.05-.2.05-.35v-.4q-.05-.2-.05-.35l-.3-.8q-.15-.4-.25-.8-.25-.55-.5-1.05-.3-.5-.65-.95-.35-.4-.75-.7-.4-.35-.9-.6.35-.7.55-1.5.5-1.65.55-3.4.05-1.55 0-3.05 0-1.6-.5-3.15-.35-1.2-1.15-2.25-1.1-1.45-2.7-2.4-.25-.25-.55-.5-.3-.3-.6-.5-.45-.35-1-.65-.55-.25-1.1-.45-.75-.25-1.5-.35-.6-.05-1.2-.05-.1-.6-.3-1.2-.3-.75-.7-1.4-.45-.75-1-1.4-.65-.9-1.45-1.7-.75-.75-1.6-1.45-.15-.15-.25-.3-.25-.3-.55-.55l-.55-.55q-.4-.4-.95-.7-.5-.35-1.05-.55-.35-.15-.75-.3-.2 0-.45-.05-.2-.05-.45-.05-.25-.05-.45-.1-.25 0-.45-.05-.4 0-.8.05-1.35.1-2.55.75-1.25.65-2.1 1.75-.75.9-1.15 2-.5 1.3-.4 2.7.05 1.65.85 3.05.1.1.15.2-2.8.9-5.65 1.75-3.55 1.05-7.25 1.8Z"></path><path id="a_head_17_fill_svg__c" d="M602.9 270q-3.7 8.1-1.4 19.8 3.5 15.6 13.45 23.05 7.1 5.3 18.05 6.65 1.5.2 3.25.35.95 0 2.2.1l2.6-3q3.6-4.25 4.5-5.8l-1.4.65q1.3-1.85 2-3.65 1.4-3.4.85-6.9l-.95-3.25q-1.05-2.4-.85-3.75 0-.25.7-1.8.25-.5.5-.95-.8-1.45-1.55-3.05-1-2.15-2.05-4.7-3.05-7.6-5-11.05-3.4-5.8-8.05-9.45-5.4-4.2-11.3-4.2h-.25q-4.9.1-9.1 3.25-4.1 3-6.2 7.7Z"></path></defs><use xlink:href="#a_head_17_fill_svg__a"></use><use xlink:href="#a_head_17_fill_svg__b"></use><use xlink:href="#a_head_17_fill_svg__c"></use></svg>