<svg xmlns="http://www.w3.org/2000/svg" xmlns:xlink="http://www.w3.org/1999/xlink" preserveAspectRatio="none" viewBox="0 0 1500 1500" fill="#7f91bf"><defs><path fill="#414448" d="M.45-1.1q-.05-.05-.1-.05l-.4-.1q-.25-.05-.45-.1h-.45q-.25-.05-.5 0H-2.7q-.15.05-.3.05h-.3q-.2 0-.4.05h-.55q-.05 0-.05.05h-.75q-.1 0-.15-.05h-.1q-.05-.05-.15-.05-.05 0-.1-.05h-.25q-.05-.05-.1-.05H-6q-.05 0-.15-.05h-.15q-.1-.05-.15-.05H-7.05q-.15-.05-.3-.05t-.3-.05h-.6q-.15 0-.3.05h-.25q-.05 0-.05.05h-.05q-.1-.05-.2-.05h-.5q-.1.05-.2.05H-10.4q-.1.05-.2.05h-.25q-.1 0-.25.05-.15 0-.3.05-.05 0-.1.05-.2 0-.4.05-.15 0-.3.05-.2.1-.35.15-.2.1-.4.15-.2.1-.45.2-.05.05-.15.05-.55.3-1 .7-.55.5-.95 1.15-.4.65-.6 1.35-.2.75-.25 1.5 0 .75.2 1.45t.6 1.35q.35.6.9 1.15.55.5 1.2.85.6.35 1.25.5.35.05.75.1.15.05.35.1.15.05.35.1.2 0 .35.05h.8q.1.05.2 0l.05.05H-8.9q.1 0 .2.05h.2q.1 0 .15.05h.55q.25 0 .55.05.25 0 .5.05H-5.8q.1-.05.25-.1t.35-.1l.5-.1h.25q.1.05.2.05h.35q.05-.05.1-.05H-3.65q.05 0 .1-.05h1q.15-.05.25-.05t.25-.05H-.9q.15 0 .25-.05h.25q.15-.05.25-.05l.3-.1H.2q.1-.05.25-.1.1-.05.25-.1.1-.05.25-.1.1-.05.25-.1.1-.05.25-.1.05 0 .1-.05.55-.3 1-.7.55-.5.95-1.15.4-.6.6-1.35.2-.7.2-1.4.05-.75-.15-1.5-.2-.7-.6-1.35Q3.2.7 2.65.15q-.45-.4-1-.75-.1-.05-.25-.1-.1-.05-.25-.1-.1-.05-.25-.1Q.8-.95.65-1l-.2-.1Z" id="style_01_color_b_svg__d"></path><path fill="#414448" d="m72.65-183.1-.2.2h.05q0 .05.15-.2M60.1-198.45H60q-.05.05-.1.05l-.1.05q-.4.15-.65.4-.3.3-.45.7-.2.45-.1.95.05.45.3.85.15.35.5.55l.05.05q0 .05.05.05v.05q0 .05.1.1v.05l.05.05.05-.05v.1q0 .05.1.1v.1q.1 0 .1.1.05 0 .1.05l.1.1.1.1q.1.05.1.1l.1.1q.05.05.1.05.1.1.2.15.05.05.1.15.15 0 .2.1.1.1.2.15 0 .05.05.1l.05.05q.05.1.15.15 0 .05.05.05l.1.1q.05.05.05.1.1 0 .1.05t.1.05h.05v.05l.1.1h.05v.05q0 .05.05.05l.05.05h.05q0 .05.05.05l.05.05q0 .05.05.05l.15.15q.05 0 .15.05l.05.05.1.1.1.1h.05v.05q0 .05.05.05l.05.05h.05q0 .05.05.05l.05.05.15.15q0 .05.05.1.05.1.15.15.05 0 .1.05l.15.15q.05.05.1.05l.1.1h.05v.05q0 .05.05.05l.1.1.05.05q.05.05.1 0 0 .05.05.15.05.05.05.1h.05q.05.05.1 0v.05q0 .05.05.05l.05.05q0 .05.05.05v.05q0 .05.1.05l.1.1v.1q.05.05.15.05 0 .05.05.05l.15.1v.05h.05l.05.05q0 .05.05.05v.05l.05.05q.05-.05.05 0v.05h.05l.05.05q0 .05.05.05v.05l.1.1.05-.05v.05h.05l.05.05v.05l.05-.05v.05l.1.1q0 .05.05.05t.1.05h.05q0 .05.05.1l.1.1v.05q.1 0 .1.05l.1.1h.1v.05q0 .05.05.05l.05.05h.05q0 .05.05.05l.05.05v.05l.15.15.1.05q.1.05.2.15.05 0 .05.1.1 0 .15.05h.05l.1.1q0 .05.05.05v.05H68v.05l.05.05q0 .05.05.05v.1h.1v.05h.1l.05.05q0 .05.05 0v.05l.05.05q.05.05.05.1t.05.1q.05 0 .05.05h.1l.1.1q.05.05.05.1.05-.05.1 0H69v.05l.05.05V-186h.1v.05h.05l.1.1v.05l.1.1h.05v.05l.1.05h.05q0 .1.05.1.1.15.15.2l.15.15.15.15q.1.1.1.15.1.1.2.1l.05.05.15.15q0 .05.1.15l.05.05.1.2q.1 0 .15.1l.55-.35-.4.4v.05l.1.05q0 .05.05.05v.05h.1l.05.05q.05.05.25-.1.2-.15.3-.1l-.1.25q-.15.2-.1.25.1 0 .1.05.05.05.3-.2.3-.25.3-.15 0 .05-.3.55l.05.05v.1q.1 0 .1.05.05 0 .5-.3l-.2.2-.05.3.05.05.05.15h.05q0 .05.7-.3l-.2.2q-.271.316-.35.4l.2-.2q.65-.45.3.05-.3.5.05.15.4-.25.65-.4.35-.15-.15.55-.5.65-.15.35.3-.35.35-.05l-.2.25q-.05.15.05 0 .15-.05.1 0h.05l.1-.15-.05.2v.05l.05-.1v.35q0 .25.65.35.7.2 1.5.95t1.4 1.35q.7.5-.05-1.55-.65-2.1-.7-2.55-.05-.5-.3-.95v-.1q-.05-.05-.05-.1l-.05-.15q-.05-.1-.05-.15v-.05q-.05-.05-.05-.15-.05-.05-.05-.1v-.1q-.05 0-.05-.05v-.1q-.05-.05-.05-.1t-.05-.1v-.25q0-.05-.05-.1v-.1h-.1v-.1q-.05-.05 0-.15 0-.1-.05-.15-.05-.1-.05-.25-.05-.1 0-.15-.05-.05-.05-.15-.1-.1-.1-.15-.05-.15-.15-.2l-.05-.15v-.05l-.05-.2q-.05-.1-.05-.15-.05-.1-.15-.2 0-.1-.1-.15-.05-.15-.1-.25-.05 0-.1-.05l-.1-.1q-.1-.05-.2-.15 0-.05-.05-.1-.05-.1-.05-.15-.1-.05-.15-.1-.05-.05-.05-.1-.1-.05-.1-.1-.05-.05-.05-.1l-.1-.05-.1-.1q-.05 0-.05-.05v-.05q-.05 0-.1-.05h-.05l-.05-.15q0-.1-.05-.25-.1-.25-.25-.45-.1-.25-.3-.4l-.4-.3q-.2-.15-.4-.25-.25-.05-.45-.05l-.1-.05v-.05q0-.05-.05 0v-.05q-.05-.05-.1-.05v-.1l-.05-.05-.8-.9-.95-.95-.5-.6q-.6-.55-1.15-1.15-.3-.3-.6-.65-.45-.5-1-1.05-.05 0-.15-.1-.25-.25-.45-.55l-.4-.6q-.2-.25-.4-.45t-.45-.35q-.3-.05-.55-.15h-.15v-.05q-.05 0-.1.05l-.15-.1q-.2-.15-.45-.25-.25 0-.55-.05h-.45q-.25.1-.5.15-.2.15-.45.3-.15.2-.25.3h-.15q-.05-.05-.15-.05-.1-.05-.15-.05-.05-.05-.15-.05h-.2q-.05 0-.15.05H60.3l-.05.05v-.05h-.05q-.05.05-.1.05Z" id="style_01_color_b_svg__e"></path><path id="style_01_color_b_svg__f" fill="#369CEB" d="M83.35-99.4q-.05-.05-.15-.1-.15-.15-.4-.1-.15.05-.25.15v.05l-.05.15.05.1L66.2-94.5q0 .15.1.35.1.45.3.9.4 1.3 1 2.4 21 53 34.4 85.4.875 1.919 3.15 2.3-.774-1.78-1.6-4.35 8.85-8.4 22.8-9.8l1.5 3.8q1.073-1.556.95-3L105-86.4q-2.6-8.35-4.95-16.45-.05-.05-.05-.1-.15-.5-.25-1.05l-16.4 4.6Z"></path><path id="style_01_color_b_svg__i" fill="#414448" d="M75.2 113.7q3.35 17.4 7.4 38.95-1.5-21.75-7.4-38.95M53.95 11.3Q51.6 6.2 48.3 4.05q3.5 3.1 5.65 7.25M48.3 4.05Q46.1 2.2 43.45.65q-9.85-5.5-21.05-2.6Q14.65 0 9.45 5.25q-2.4 2.3-4.25 5.3-3.3 5.5-3.85 11.3Q2 27.4 3.15 34.2q5.15 15.65 14 45.3 10.45 35.25 26.05 90.35.1.35.2.75 2.1 8.1 9.55 12.3 7.45 4.25 15.9 2.05t11.55-7.25q2.75-4.55 2.7-12.5-.05-.95-.05-1.9-.009-.152-.05-.3v-.05q.019-.089 0-.2-.006-.27 0-.55-.26-4.53-.35-8.95-.05-.3-.05-.6-4.05-21.55-7.4-38.95l-4.4-23.2q-.55-2.85-1-5.4-5.1-25.7-7.6-36.5-5.45-23-6.65-28.75-.1-.2-.1-.3-.4-1.55-.6-2.3-.8-3-2.2-5.65 1.4 2.65 2.2 5.65.2.75.6 2.3 0 .1.1.3 1.2 5.75 6.65 28.75 2.5 10.8 7.6 36.5-4.65-25.85-6.95-36.65-5-23.1-6.1-28.9-.1-.15-.1-.3-.35-1.55-.55-2.3-.75-3-2.15-5.65-2.15-4.15-5.65-7.25Z"></path><path id="style_01_color_b_svg__r" fill="#414448" d="M.6 37.9q1.3-6.7 1.35-9.3 0-2.6.1-2.7.8-8.9-5.95-16.4-7.15-8.15-18.9-9.95-11.65-1.8-21 3.75-8.25 4.85-10.35 12.95-.1.2-.15.45-.15.8-.3 1.65-.2 1.25-.2 2.5-3.05 34.05-8 69.1l-13.9 90.7q-.95 7.8 5 14.3 6.1 6.85 16 8.4 9.95 1.5 17.85-3.15 6.85-4.05 7.7-9.6l1-3.05Q-9.95 112.35.6 37.9Z"></path><path id="style_01_color_b_svg__A" fill="#414448" d="M59.1-20q.05-.4.1-.7.1-.9.2-1.75v-.35q2.15-22.95-12.6-40.8Q32.05-81.55 8.85-83.8-14.4-86-32.35-71.25q-12.25 10.1-17.2 24.15-.15.4-.3.85Q-57.55-25.3-58-6.8q-.45 18.05 4.4 33.05 33.55-5.6 108.85-9.45Q56.85 4 59.1-20Z"></path><path id="style_01_color_b_svg__C" fill="#414448" d="M3.05 32.6q12.809-1.888 14-2.3 6.6-2.05 5.35-9.85-1.35-8-9.3-10.95Q2 5.4-8.5 10.75q-5.5 2.8-8.3 8.1-5.75 10.7 4.55 14.9l2.5.55 3.9-.15-.5-.3 5.05-.65q.5-.05.95-.1.5-.1 1-.15.802-.117 1.55-.25.45-.04.85-.1Z"></path><path id="style_01_color_b_svg__H" fill="#414448" d="M18.2-213.2q8.5 4.65 20.65 8.75 4.75 1.6 7.4 2.1 12.45 2.45 15.65-13.8-4.9-2.6-14.1-6-10.7-3.85-28.2-9.8-4.4-1.45-7.25-3.3-4.9 1.95-3.8 9.65 1.2 7.7 9.65 12.4Z"></path><path id="style_01_color_b_svg__J" fill="#414448" d="M57.6-210.8q-21.444-16.499-45.35-19.7-23.9-3.25-40.75 1-16.8 4.2-29.05 9.8-12.3 5.65-16.95 13.85-4.6 8.15 2.25 15.2l29.5-.45q-.203.041-.45.05 11.9-.1 14.65-.05 28.95-.3 37.85-.4 19.15-.15 51.6-.6 18.132-2.154-3.3-18.7Z"></path><path id="style_01_color_b_svg__Q" fill="#C7D4CA" d="M40.75-182.8q2.25-1.5 8.75 3.4-4.8-16.8-12.55-24.3-5.2 14.7-4.4 31.25 5.9-9.45 8.2-10.35Z"></path><path id="style_01_color_b_svg__V" fill="#FFF" d="M62.4-193.9v4.9l15.9 12.2-2.1-6.8-13.8-10.3Z"></path><path id="style_01_color_b_svg__W" fill="#369CEB" d="M-141-106.45q-.3 2.4-.4 4.3l-1.15 21.8q-1.1 19.9-2.15 36.5-1.15 17.6-2.65 39.85 0 1.1 1.95 2.2l.25-3.05q4.75-1.85 12.25-.5 7.3.9 11.95 3.9-.2 1.7-.35 3.2 1.65-.6 2.3-1.85 2.9-48.9 16.7-103.15l-17.5 3.35q-3.3-1.1-5.8-1.9-7.5-2.2-15.4-4.65Z"></path><path id="style_01_color_b_svg__Y" fill="#414448" d="M-58.95-198.4q4.3-1.5 9.6-3.75 5.3-2.35 12-5.65 6.75-3.3 13.55-7.7 6.9-4.45 3.75-10.35-3.15-5.85-7.7-10.05-12.7 5-22.5 8.55-15.3 5.5-23.75 8.3-7.9 2.7-12.2 4.6-.4 24.6 21.95 17.85 2.6-.95 5.3-1.8Z"></path><path id="style_01_color_b_svg__ab" fill="#FFF" d="M-57.1-192.55q-.85-.3-1.95-.1-1 .15-1.15.2l-32.65 15.25q-6.35 2.9-6.75 8.2l41.3-18.8q1 0 1.55-.25.5-.35.4-1.05 0-.7.05-1.05.1-.65.15-1.35.05-.75-.95-1.05Z"></path><path id="style_01_color_b_svg__b" stroke="#000" stroke-width="1.5" stroke-linejoin="round" stroke-linecap="round" fill="none" d="M79.675-174.125v.025q.025.022.025.05m20.35 70.95q.25.85.3.95.05.4.15.6 1.1 5.9-1.65 11.4-3.4 6.45-10.3 8.55-6.8 2.15-13.25-1.15-4.8-2.6-7.25-7.1Q67.5-91 67-92.35q-.15-.35-.25-.8-.1-.1-.15-.25l-.3-.75q-16.25-43.6-31.05-90.9"></path><path id="style_01_color_b_svg__c" stroke="#000" stroke-width="2" stroke-linejoin="round" stroke-linecap="round" fill="none" d="M35.25-185.05q-1.15-3.45-2.15-7-.25-.65-.5-1.35-.05-.25-.15-.6-2.25-7.65 1.4-14.7 3.8-7.35 11.65-9.85 7.9-2.45 15.15 1.4 5.6 3.05 8.45 8.35.95 2.05 1.7 4.2l.75 2.2q1.45 4.2 2.75 9.4l2.95 10.3 2.425 8.575m.025.075 20.35 70.95"></path><path id="style_01_color_b_svg__g" stroke="#000" stroke-width="1.5" stroke-linejoin="round" stroke-linecap="round" fill="none" d="M67.6-90.85q-.6-1.1-1-2.4-.2-.45-.3-.9-.1-.2-.1-.35"></path><path id="style_01_color_b_svg__h" stroke="#000" stroke-width="2" stroke-linejoin="round" stroke-linecap="round" fill="none" d="M99.75-104q.1.55.25 1.05 0 .05.05.1 2.35 8.1 4.95 16.45l23.8 69.9q.123 1.444-.95 3m-22.7 10.375q-2.275-.406-3.15-2.325-13.4-32.4-34.4-85.4"></path><path id="style_01_color_b_svg__j" stroke="#000" stroke-width="1.5" stroke-linejoin="round" stroke-linecap="round" fill="none" d="M1.35 21.85q.55-5.8 3.85-11.3 1.85-3 4.25-5.3Q14.65 0 22.4-1.95q11.2-2.9 21.05 2.6 2.65 1.55 4.85 3.4m34.35 149.2q.09 4.42.35 8.95l.025.775V163M3.15 34.2q-.25-.6-.45-1.25-.35-.95-.6-2-1.2-4.6-.75-9.1M48.3 4.05q3.5 3.1 5.65 7.25M46.4 196.7q-.2-.6-.35-1.2-.1-.4-.2-.9.3 1.05.55 2.1ZM83 162.75q.019.111.025.225M75.2 113.7q3.35 17.4 7.4 38.95"></path><path id="style_01_color_b_svg__k" stroke="#000" stroke-width="2" stroke-linejoin="round" stroke-linecap="round" fill="none" d="M69.8 85.1q.45 2.55 1 5.4l4.4 23.2m7.825 49.3q.016.148.025.3 0 .95.05 1.9.05 7.95-2.7 12.5-3.1 5.05-11.55 7.25-8.45 2.2-15.9-2.05-7.45-4.2-9.55-12.3-.1-.4-.2-.75-15.6-55.1-26.05-90.35-8.85-29.65-14-45.3m49.5-22.6q1.4 2.65 2.2 5.65.2.75.6 2.3 0 .1.1.3 1.2 5.75 6.65 28.75 2.5 10.8 7.6 36.5"></path><path id="style_01_color_b_svg__m" stroke="#000" stroke-width="1.5" stroke-linejoin="round" stroke-linecap="round" fill="none" d="M51 293.05q9.25 8.05 23.3 6.3 6.95-1 12.7-4.35m1.15 44.5v.05M87.1 300.2q.05.65.1 1.35"></path><path id="style_01_color_b_svg__n" stroke="#000" stroke-width="2" stroke-linejoin="round" stroke-linecap="round" fill="none" d="M38.85 154.5q6.9 23.4 6.25 41.1-.7 17.6-.05 26.55 1 13.8 1.65 22.35.123 1.556.275 3.25.039.37.075.75l1.3 17.1q.95 12.05 2.65 27.45m36-2.35q-.3-22.4.1-77.2-.1-26.5-3.05-50.9-3.15-26.15-9.55-50.1M87 295q0 2.6.1 5.2m-35.45-1.25q.15 1.35.35 2.75 2.35 20.75 1.95 36.65-.15 1.5-.1 3.05-.05 1.85-.2 4.55-.4 11.55.25 18.5.7 5.65 8.35 5.3 7.65-.35 14.9-4.95 7.2-4.7 9.3-11.45 2.1-6.7 1.7-13.8m0-.05q-.45-16.5-.9-34.05l-.05-3.9q-.15-4.85-.2-10.85m-36 2.35q.35 2.9.65 5.9"></path><path id="style_01_color_b_svg__p" stroke="#000" stroke-width="1.5" stroke-linejoin="round" stroke-linecap="round" fill="none" d="m138.45 373.9-.75-1.7m-83.95-11.4v1.3"></path><path id="style_01_color_b_svg__q" stroke="#000" stroke-width="2" stroke-linejoin="round" stroke-linecap="round" fill="none" d="M53.75 362.1q.35 3.15.5 3.7.45 1.8 1.65 2.5 2.35 1.4 14.15 6.3 7.1 2.7 15.1 5.05 8.3 2.6 20.05 4.1 11.85 1.6 21.4.45 9.7-1.2 11.45-4.7 1.3-2.55.4-5.6m-.75-1.7q-2.1-3.85-8.15-7.85-6-4.05-16.4-9.1-10.25-4.85-15.15-7.8l-9.85-7.9m-34.6 17.3.2 3.95"></path><path id="style_01_color_b_svg__s" stroke="#000" stroke-width="1.5" stroke-linejoin="round" stroke-linecap="round" fill="none" d="m-29.15 187.55-1 3.05q-.85 5.55-7.7 9.6-7.9 4.65-17.85 3.15-9.9-1.55-16-8.4-5.95-6.5-5-14.3"></path><path id="style_01_color_b_svg__t" stroke="#000" stroke-width="2" stroke-linejoin="round" stroke-linecap="round" fill="none" d="m-76.7 180.65 13.9-90.7q4.95-35.05 8-69.1 0-1.25.2-2.5.15-.85.3-1.65.05-.25.15-.45 2.1-8.1 10.35-12.95 9.35-5.55 21-3.75 11.75 1.8 18.9 9.95Q2.85 17 2.05 25.9q-.1.1-.1 2.7Q1.9 31.2.6 37.9q-10.55 74.45-29.75 149.65"></path><path id="style_01_color_b_svg__v" stroke="#000" stroke-width="1.5" stroke-linejoin="round" stroke-linecap="round" fill="none" d="M-46.6 288.6q.05-.5.2-1m-41.1 97.35q-5.55.35-9.35-.55H-97q-1.7-.4-2.8-1.25-.2-.15-.35-.3l-1.7-3.15M-91 304.9l.975-8.475m1.325-13.375.05-1 .4-3m-.375 3.675.025.325-.3 2.45m42.5 2.1q-.15.35-.2.7v.3m-42.025-5.875-.025.325m-2.2 22.05-.55 5.85-1.15 10.3m-7.25 61.9q6.1.9 12.3 1.8m-3.35-79.85q5.95 5.55 14.8 8.45Q-62 317.3-50.7 313"></path><path id="style_01_color_b_svg__w" stroke="#000" stroke-width="2" stroke-linejoin="round" stroke-linecap="round" fill="none" d="m-88.25 279.05 4.6-45.3q.285-2.827.575-5.575 2.158-20.292 4.625-35.625 3.65-22.9 3.9-25.4m48.7 6.5q-4.25 18.85-6.65 32.55-2.95 16.95-5.5 32-.1.3-.15.55l-4.5 26.45q-2.05 11.8-3.7 22 0 .2-.05.4m-.2 1q-2.2 13.1-4.1 24.4-.45 2.8-.85 5.55-3.85 22.95-6.35 38.3v.25q-.05.35-.8 8.1-.7 7.7-6.2 12.45-5.55 4.7-15.75 6.4-3.65.6-6.85.9m-14.35-5.25q-.05-.5-.05-.95v-.1q-.05-.2-.05-.3V377.75l.2-1.2q1.05-6.4 3.6-15.85 2.45-9.45 3.05-13l2.55-26.45.9-10.5.65-5.85m.975-8.475L-88.9 285.5l.25-2.45m.4-4-.375 3.675-.025-.675M-91 304.9q.05.1.15.2l.825-8.675"></path><path id="style_01_color_b_svg__y" stroke="#000" stroke-width="1.5" stroke-linejoin="round" stroke-linecap="round" fill="none" d="M-102.25 375.1q-2.5 3.35-3.15 5.95m3.15-5.9-.05.2m2.15 20.3.05.025m8.95 3.525v.05"></path><path id="style_01_color_b_svg__z" stroke="#000" stroke-width="2" stroke-linejoin="round" stroke-linecap="round" fill="none" d="M-102.3 375.35q-1.65 2.8-3.1 5.7l-.2.3q-.35.8-.4 1.55.15 3.55 1.25 6.2.85 1.8 1.75 3.2 1.7 1.6 2.85 3.35m.05.025q.529.34 1.05.625.45.3 1 .55m.8.4 6.1 1.95m-9.05-27.3-2.05 3.25m44.75-24.8q4.55 13.25 7.45 18.35 2.9 5.05 3.45 8.2.6 3.2-.15 6.9-.7 3.6-2.3 6.4m-2.5 3.65-.95.85q-.529.458-1.225.95m-37.425 3.6 17.35 1.475m22.25-6.875 2.4-3.55"></path><path id="style_01_color_b_svg__B" stroke="#000" stroke-width="2" stroke-linejoin="round" stroke-linecap="round" fill="none" d="M-53.6 26.25q-4.85-15-4.4-33.05.45-18.5 8.15-39.45.15-.45.3-.85 4.95-14.05 17.2-24.15Q-14.4-86 8.85-83.8q23.2 2.25 37.95 20.2 14.75 17.85 12.6 40.8v.35q-.1.85-.2 1.75-.05.3-.1.7-2.25 24-3.85 36.8"></path><path id="style_01_color_b_svg__D" stroke="#000" stroke-width="1.5" stroke-linejoin="round" stroke-linecap="round" fill="none" d="m10.75 32.1-7.675.5-.875.125"></path><path id="style_01_color_b_svg__F" stroke="#000" stroke-width="1.5" stroke-linejoin="round" stroke-linecap="round" fill="none" d="M66.8-165.7q-5.1 48.25-6.35 79.4-1 25.25-1.6 44.35m.45 7.7q-.35.25-.75.55v.25Q39-19.6 19.9-8.2q-.15-.05-.25-.1l-.2.1q-3.55-1.45-7-2.85l-20.6-7.75-38.8-12.95q-2.65-.75-5.2-1.5v-.1q-1.1-.35-2.15-.6M-64.4-159.1q-5.7-19.7-5.65-35 1.6-20.2 27.55-25.65 9.75-1.9 18.65-3.1m.45-.05q-8.7 1.25-18.2 3.15-25.4 5.4-26.95 25.65-.05 15.1 4.15 35M58.55-33.7Q37.9-19.45 19.65-8.3m-66.6-23.45-5.2-1.6"></path><path id="style_01_color_b_svg__G" stroke="#000" stroke-width="2" stroke-linejoin="round" stroke-linecap="round" fill="none" d="m67.6-169.45-.8 3.75M58.85-41.95q.1 3.95.45 7.7m-113.6.3q3.5-28.95 1.35-50.5-2.2-21.55-4.6-37.8-2.45-16.25-6.75-36.4-.05-.25-.1-.45m130.45-5.85q-4.35 53.7-6.35 82.25-1.65 23.25-.85 40.75"></path><path id="style_01_color_b_svg__I" stroke="#000" stroke-width="2" stroke-linejoin="round" stroke-linecap="round" fill="none" d="M61.9-216.15q-4.9-2.6-14.1-6-10.7-3.85-28.2-9.8-4.4-1.45-7.25-3.3"></path><path id="style_01_color_b_svg__K" stroke="#FFF" stroke-width="5" stroke-linejoin="round" stroke-linecap="square" fill="none" d="M-68.2-190.2q108.15-.9 128.15-1.2"></path><path id="style_01_color_b_svg__M" stroke="#000" stroke-width="2" stroke-linejoin="round" stroke-linecap="round" fill="none" d="M10.425-241.15q.185 1.431.425 2.35.65 2.5 2.95 4.2 1.35 1.1 5.05 2.4"></path><path id="style_01_color_b_svg__O" stroke="#000" stroke-width="2" stroke-linejoin="round" stroke-linecap="round" fill="none" d="M-29.7-234.15q1.591-1.252 3-2.75 1.407-1.499 1.85-3.625.448-2.125.45-4.425 0-2.037-.125-4.55"></path><path id="style_01_color_b_svg__R" stroke="#000" stroke-width="1.5" stroke-linejoin="round" stroke-linecap="round" fill="none" d="M32.55-172.45q5.9-9.45 8.2-10.35 2.25-1.5 8.75 3.4-4.8-16.8-12.55-24.3-5.2 14.7-4.4 31.25Z"></path><path id="style_01_color_b_svg__T" stroke="#000" stroke-width="1.5" stroke-linejoin="round" stroke-linecap="round" fill="none" d="m-58.25-210.6-.25-.4.65.9m-38.75 12.4.05-.05"></path><path id="style_01_color_b_svg__U" stroke="#000" stroke-width="2" stroke-linejoin="round" stroke-linecap="round" fill="none" d="M-96.55-197.75q2.65-4.7 3.45-6.6.75-1.9 1-2.4.15-.55 2.7-4.5 2.5-3.95 9.75-5.55 7.2-1.65 15.2 2 3.4 1.5 5.9 3.85.15.15.3.35m-8.35 44.4q2.05-3.85 4.3-7.75l4.45-8.15m-8.75 15.9-.1.2q-17.25 31.1-27.9 49.7L-107.55-94q-.15.25-.2.4-.2.3-.25.55-3.2 5.25-9.25 7.55-6.95 2.55-13.75-.5-6.8-3.1-9-9.75-2.15-6.65-.95-10.75t1.45-4.35q18.6-39 38.05-78l.5-.9q1.1-2.15 2.2-4.1l1.5-2.7q.05-.15.1-.2.2-.4.4-.65.1-.15.15-.3"></path><path id="style_01_color_b_svg__X" stroke="#000" stroke-width="2" stroke-linejoin="round" stroke-linecap="round" fill="none" d="M-141-106.45q-.3 2.4-.4 4.3l-1.15 21.8q-1.1 19.9-2.15 36.5-1.15 17.6-2.65 39.85 0 1.1 1.95 2.2m24.1 3.55q1.65-.6 2.3-1.85 2.9-48.9 16.7-103.15"></path><path id="style_01_color_b_svg__Z" stroke="#000" stroke-width="1.5" stroke-linejoin="round" stroke-linecap="round" fill="none" d="m-27.45-236-.3.1"></path><path id="style_01_color_b_svg__aa" stroke="#000" stroke-width="2" stroke-linejoin="round" stroke-linecap="round" fill="none" d="M-27.75-235.9q-12.7 5-22.5 8.55-15.3 5.5-23.75 8.3-7.9 2.7-12.2 4.6"></path><path id="style_01_color_b_svg__ad" stroke="#EFD16A" stroke-width="0.5" stroke-linejoin="round" stroke-linecap="round" fill="none" d="M-3.304-1.972q0 1.05-.58 1.83-.58.781-1.429.826Q-6.16.728-6.74.008q-.58-.72-.58-1.77t.58-1.83q.58-.78 1.428-.824.848-.045 1.428.675.58.72.58 1.77Z"></path><g id="style_01_color_b_svg__a"><path fill="#369CEB" d="M100.5-101.55q-.1-.2-.15-.6-.05-.1-.3-.95L79.7-174.05q0-.028-.05-.05v-.05q-.15-.1-.35-.35l-.05.05q.1-.25.1-.5.1-.5-1.05-2v-.05l-.1-.2.05-.05-.1-.1-.1-.15h.05l-.1-.2h-.05l.05-.05h-.05l-.1-.05.05-.05v-.05l-.05.05q-.05-.2-.2-.2h-.1v-.1l-.1-.1-.05-.1-.05.05h-.05l-.3-.3h.05l-.15-.1.05-.05-.35-.25q-.05-.05-.1-.05-.02-.024-.05-.05-.476-.576-1.1-1.2-4.05-4.45-15.55-12.3l-.4.3q0-.2.1-.25l-24.25 7.5q14.8 47.3 31.05 90.9l.3.75q.05.15.15.25.1.45.25.8.5 1.35 1.05 2.5 2.45 4.5 7.25 7.1 6.45 3.3 13.25 1.15 6.9-2.1 10.3-8.55 2.75-5.5 1.65-11.4Z"></path><path fill="#414448" d="m71.55-202.4-.75-2.2q-.75-2.15-1.7-4.2-2.85-5.3-8.45-8.35-7.25-3.85-15.15-1.4-7.85 2.5-11.65 9.85-3.65 7.05-1.4 14.7.1.35.15.6.25.7.5 1.35 1 3.55 2.15 7l24.25-7.5q.05-.25.1-.45l-.65-.65q.4-2 2.65-3.95l.95 1 .05-.05 14.65 13.95L74.3-193q-1.3-5.2-2.75-9.4Z"></path></g><g id="style_01_color_b_svg__l"><path fill="#FFF" d="M65.7 304.7q-10.05-1.4-14.05-5.75.15 1.35.35 2.75 2.35 20.75 1.95 36.65-.15 1.5-.1 3.05-.05 1.85-.2 4.55-.4 11.55.25 18.5.7 5.65 8.35 5.3 7.65-.35 14.9-4.95 7.2-4.7 9.3-11.45 2.1-6.7 1.7-13.8v-.05q-.45-16.5-.9-34.05l-.05-3.9q-.05-.7-.1-1.35-11.3 5.95-21.4 4.5Z"></path><path fill="#369CEB" d="M51.65 298.95q4 4.35 14.05 5.75 10.1 1.45 21.4-4.5-.1-2.6-.1-5.2-5.75 3.35-12.7 4.35-14.05 1.75-23.3-6.3.35 2.9.65 5.9Z"></path><path fill="#414448" d="M84.1 162.7v-.05l-.05-.05Q87 187 87.1 213.5q2.75-1.4-2.7-48.25-.05-.35-.05-.7-.09-.408-.1-.8v.35q-.05-.7-.15-1.4m-45.25-8.2q6.9 23.4 6.25 41.1-.7 17.6-.05 26.55 1 13.8 1.65 22.35.123 1.556.25 3.25.064.37.1.75l1.3 17.1q.95 12.05 2.65 27.45 9.25 8.05 23.3 6.3 6.95-1 12.7-4.35-.05-1.75 0-4.3-.3-22.4.1-77.2-.1-26.5-3.05-50.9l-.3-.3h-.15v-.75l.15.4-.05-1.95-.2-.15-.5.25q-.25-3.85-1.1-7.85-21.35-.75-43.05 2.25Z"></path></g><g id="style_01_color_b_svg__o"><path fill="#FFF" d="M69.45 368.6q2.2.8 6.95 2.5 7.7 2.7 16.4 4.65 9.45 2.05 17.7 3 6.45.8 11.15.55 4.65-.3 9-1.3 4.45-1.15 7.8-4.1l-.75-1.7q-2.1-3.85-8.15-7.85-6-4.05-16.4-9.1-10.25-4.85-15.15-7.8l-9.85-7.9q-7.95.35-19.1 10-4.3 3.7-10.3 5.3-4.95 1.3-5.2 2l.2 3.95v1.3q1.95 1.05 5.6 2.4 3.8 1.4 3.9 1.45 2.45 1.2 6.2 2.65Z"></path><path fill="#369CEB" d="M76.4 371.1q-4.75-1.7-6.95-2.5-3.75-1.45-6.2-2.65-.1-.05-3.9-1.45-3.65-1.35-5.6-2.4.35 3.15.5 3.7.45 1.8 1.65 2.5 2.35 1.4 14.15 6.3 7.1 2.7 15.1 5.05 8.3 2.6 20.05 4.1 11.85 1.6 21.4.45 9.7-1.2 11.45-4.7 1.3-2.55.4-5.6-3.35 2.95-7.8 4.1-4.35 1-9 1.3-4.7.25-11.15-.55-8.25-.95-17.7-3-8.7-1.95-16.4-4.65Z"></path></g><g id="style_01_color_b_svg__u"><path fill="#161616" d="M-99.8 383.15q1.1.85 2.8 1.25h.15q3.8.9 9.35.55-6.2-.9-12.3-1.8m7.25-61.9 1.15-10.3q-.1-.1-.25-.2l-.9 10.5Z"></path><path fill="#414448" d="M-91 304.9q.05.1.15.2l.8-8.7-.95 8.5m2.75-25.85-.4 3v.65l.4-3.65m-.4 4v-1l-.05 1h.05m0-.35v.35h.05l-.05-.35m42.05 5.9q.05-.5.2-1-.15.35-.2.7v.3m-27.95-121.45q-.25 2.5-3.9 25.4-2.467 15.333-4.65 35.6-.265 2.773-.55 5.6l-4.6 45.3-.4 3.65.05.35-.3 2.45-1.15 10.9-.8 8.7q5.95 5.55 14.8 8.45Q-62 317.3-50.7 313q1.9-11.3 4.1-24.4v-.3q.05-.35.2-.7.05-.2.05-.4 1.65-10.2 3.7-22l4.5-26.45q.05-.25.15-.55 2.55-15.05 5.5-32 2.4-13.7 6.65-32.55l-1.6 3.35q.05-.3.1-.55.05-.3.05-.6.05-.05.05-.1l-27.15-3.6-20.15-5Z"></path><path fill="#FFF" d="m-91.4 310.95-1.15 10.3-2.55 26.45q-.6 3.55-3.05 13-2.55 9.45-3.6 15.85l-.2 1.2V378.35q0 .1.05.3v.1q0 .45.05.95l1.7 3.15q.15.15.35.3 6.1.9 12.3 1.8 3.2-.3 6.85-.9 10.2-1.7 15.75-6.4 5.5-4.75 6.2-12.45.75-7.75.8-8.1v-.25q2.5-15.35 6.35-38.3-23.15 6.75-39.85-7.6Z"></path><path fill="#369CEB" d="m-90.85 305.1-.55 5.85q16.7 14.35 39.85 7.6.4-2.75.85-5.55-11.3 4.3-25.35.55-8.85-2.9-14.8-8.45Z"></path><path fill="#EC5657" d="m-91.4 310.95.55-5.85q-.1-.1-.15-.2l-.65 5.85q.15.1.25.2Z"></path></g><g id="style_01_color_b_svg__x"><path fill="#EC5657" d="m-49.05 390.2-.1.1-2.4 3.55q1.3-1.35 2.15-3l.35-.65Z"></path><path d="M-54.2 395.3q-.295-.042-.55.1-4.434 2.895-8.6 3.8-2.949.705-5.85.8-1.95.05-3.85 0-.291-.01-.55.2-.196.215-.2.5-.011.342.2.55.214.246.5.25 1.95.05 3.95 0 3.049-.105 6.15-.85 4.384-.945 9.05-4 .26-.146.3-.45.092-.296-.1-.55-.146-.26-.45-.35Z"></path><path fill="#369CEB" d="M-105.6 381.35q-.35.8-.4 1.55.15 3.55 1.25 6.2.85 1.8 1.75 3.2 1.7 1.6 2.85 3.35h.05q.529.366 1.05.65.45.3 1 .55-.55-.25-1-.55-.521-.284-1.05-.65.066.081.1.15.5.65 1.7 1.4l.7.35q.05 0 .05.05h.05l1.75.75q1.1.4 2.6.6.9.1 2 .25l-6.1-1.95 6.1 1.95v.05l17.35 1.45q.004-.285.2-.5.259-.21.55-.2 1.9.05 3.85 0 2.901-.095 5.85-.8 4.166-.905 8.6-3.8.255-.142.55-.1.304.09.45.35.721-.492 1.25-.95l.95-.85 2.4-3.55q-1.6 1.45-6.95 3.3-5.55 1.85-22.5 1.7-17-.2-22.05-5.75-4.9-5.6-1.65-14.2-1.65 2.8-3.1 5.7l-.2.3Z"></path><path fill="#FFF" d="m-102.25 375.15-.05.2q-3.25 8.6 1.65 14.2 5.05 5.55 22.05 5.75 16.95.15 22.5-1.7 5.35-1.85 6.95-3.3l.1-.1q1.6-2.8 2.3-6.4.75-3.7.15-6.9-.55-3.15-3.45-8.2-2.9-5.1-7.45-18.35-34 22.6-43.2 24.55l-1.55.25Z"></path><path fill="#161616" d="M-102.25 375.1q-.1.2-.05.25l.05-.2v-.05Z"></path><path fill="#939" fill-opacity="0.498" d="M-102.3 375.35q-.05-.05.05-.25-2.5 3.35-3.15 5.95 1.45-2.9 3.1-5.7Z"></path></g><g id="style_01_color_b_svg__E"><path fill="#EC5657" d="M-52.15-33.35v.1q2.55.75 5.2 1.5l-5.2-1.6M-23.4-222.9q-.229.02-.45.05-8.9 1.2-18.65 3.1-25.95 5.45-27.55 25.65-.05 15.3 5.65 35-4.2-19.9-4.15-35 1.55-20.25 26.95-25.65 9.5-1.9 18.2-3.15M19.65-8.3q.1.05.25.1Q39-19.6 58.55-33.45v-.25Q37.9-19.45 19.65-8.3Z"></path><path fill="#369CEB" d="m67.6-169.45-1.95-15.05q-7.13-49.467-89.05-38.4-8.7 1.25-18.2 3.15-25.4 5.4-26.95 25.65-.05 15.1 4.15 35 .05.2.1.45 4.3 20.15 6.75 36.4 2.4 16.25 4.6 37.8 2.15 21.55-1.35 50.5 1.05.25 2.15.6l5.2 1.6 38.8 12.95 20.6 7.75q3.45 1.4 7 2.85l.2-.1q18.25-11.15 38.9-25.4.4-.3.75-.55-.35-3.75-.45-7.7-.8-17.5.85-40.75 2-28.55 6.35-82.25-4.35 53.7-6.35 82.25-1.65 23.25-.85 40.75.6-19.1 1.6-44.35 1.25-31.15 6.35-79.4l.8-3.75Z"></path></g><g id="style_01_color_b_svg__L"><path fill="#369CEB" d="m1.1-236.3 8.6-5.2q-.075-.139-.1-.3-.007-.05-.05-.1-.197-1.77-.35-4.2-.187.119-.4.2-.15.118-.3.2-5.188 2.96-10.45 6.65L-2-239q-.046.059-.15.1-.128.06-.25.15.23.304.45.55 1.036 1.275 1.85 1.7.7.35 1.2.2Z"></path><path fill="#414448" d="M10.85-238.8q-.24-.919-.45-2.35-.26.035-.5-.15-.12-.091-.2-.2l-8.6 5.2q-.5.15-1.2-.2.408 1.156.8 2.2 4.049 10.336 8 9.7l10.15-7.6q-3.7-1.3-5.05-2.4-2.3-1.7-2.95-4.2Z"></path><path d="M8.8-247.6q-.15.097-.3.15-5.186 2.948-10.45 6.65l-.75.5q-.322.14-.6.35-.252.19-.3.5-.04.304.15.55.19.252.5.3.303.04.55-.15.122-.09.25-.15.104-.041.15-.1l.05-.05q5.263-3.69 10.45-6.65.15-.082.3-.2.213-.081.4-.2.153 2.43.35 4.2.043.05.05.1.025.161.1.3.08.109.2.2.24.185.5.15h.05q.242-.037.4-.2.058-.045.1-.1.158-.205.15-.45.007-.049 0-.1-.299-2.169-.45-5.4-.007-.102-.05-.2-.062-.173-.2-.3-.223-.212-.55-.2-.287.017-.5.25-.067.07-.1.15-.225-.013-.45.1Z"></path></g><g id="style_01_color_b_svg__N"><path fill="#414448" d="m1.6-235.85-.35.05q.05-.05.15-.1l-25.8-9.05q-.002 2.3-.45 4.4-.443 2.151-1.85 3.65-1.409 1.498-3 2.75 1.9 17.2 22.4 20.95 11.244-2.306 9.1-21.1-.091-.762-.2-1.55Z"></path><path fill="#369CEB" d="M1.4-235.9q.3-.4.35-1.25v-.3q.043-1.344-.5-3.65-.186.082-.4 0-1.279-.478-2.8-1.05-4.535-1.592-11.25-3.8-8.52-2.808-11.35-3.55.15 2.513.15 4.55l25.8 9.05Z"></path><path d="M1.8-241.55q.107-.279-.05-.55-.108-.287-.4-.4-1.486-.553-3.3-1.2-4.417-1.558-10.8-3.65-8.95-2.967-11.6-3.7-.302-.055-.6.1-.244.154-.35.45-.056.303.1.55.153.294.45.35.113.054.2.1 2.83.742 11.35 3.55 6.715 2.208 11.25 3.8 1.521.572 2.8 1.05.214.082.4 0 .087.006.15-.05.287-.107.4-.4Z"></path></g><g id="style_01_color_b_svg__P"><path fill="#369CEB" d="m1.7-240.95 1.4 20.2L-35.8-199l4.9 150.8h3.5v-8.9L-32.2-197l39-21.75-1.55-21.9-3.55-.3Z"></path><path d="m3.1-220.75-1.4-20.2-.1-1.3-1.2.1-.25.25 1.45 20.3-38.9 21.75L-32.4-55v26.6l.25.25.6.25.6-.25.05-20.05-4.9-150.8 38.9-21.75Z"></path></g><g id="style_01_color_b_svg__S"><path fill="#FFF" d="m-96.55-197.75-.05.05q-.05.15-.15.3-.2.25-.4.65-.05.05-.1.2l-1.5 2.7q-1.1 1.95-2.2 4.1l1.05 21.15q4-2.4 4.4-5.3l.05-.4-.05.05-.05-1.35h.05l-.95-21.5q-.05-.35-.1-.65Z"></path><path fill="#369CEB" d="m-66.7-166 .1-.2q3.05-6.95 8.05-16.4 1.95-7.7.3-10.1-4.65 2.35-6.45 3.1-1.8.65-3.1 1.35l-27.65 13.95-.05.4q-.4 2.9-4.4 5.3l-1.05-21.15-.5.9q-19.45 39-38.05 78-.25.25-1.45 4.35t.95 10.75q2.2 6.65 9 9.75 6.8 3.05 13.75.5 6.05-2.3 9.25-7.55.05-.25.25-.55.05-.15.2-.4l12.95-22.3q10.65-18.6 27.9-49.7Z"></path><path fill="#414448" d="M-89.4-211.25q-2.55 3.95-2.7 4.5-.25.5-1 2.4-.8 1.9-3.45 6.6.05.3.1.65l.95 21.5h-.05l.05 1.35.05-.05 27.65-13.95q1.3-.7 3.1-1.35 1.8-.75 6.45-3.1 5.9-4.15.4-17.4l-.65-.9.25.4q-.15-.2-.3-.35-2.5-2.35-5.9-3.85-8-3.65-15.2-2-7.25 1.6-9.75 5.55Z"></path></g><g id="style_01_color_b_svg__ac"><path fill="#202020" d="M-6.6-3.5q-.65.75-.65 1.8T-6.6.1q.65.75 1.6.75.95 0 1.6-.75.65-.75.65-1.8t-.65-1.8q-.65-.75-1.6-.75-.95 0-1.6.75Z"></path><path fill="#EFD16A" d="M2.5-1.45Q1.75-2.3.7-2.3t-1.75.85Q-1.8-.65-1.8.5t.75 2q.7.8 1.75.8t1.8-.8q.7-.85.7-2t-.7-1.95Z"></path></g></defs><g transform="matrix(1.67896 0 0 1.67896 719.4 813.65)"><use xlink:href="#style_01_color_b_svg__a"></use><use xlink:href="#style_01_color_b_svg__b"></use><use xlink:href="#style_01_color_b_svg__c"></use></g><use xlink:href="#style_01_color_b_svg__d" transform="matrix(-1.46291 .46672 .47154 1.4781 806.454 478.53)"></use><use xlink:href="#style_01_color_b_svg__e" transform="matrix(1.67896 0 0 1.67896 718.728 813.65)"></use><g transform="matrix(1.67896 0 0 1.67896 719.4 813.65)"><use xlink:href="#style_01_color_b_svg__f"></use><use xlink:href="#style_01_color_b_svg__g"></use><use xlink:href="#style_01_color_b_svg__h"></use></g><g transform="matrix(1.67896 0 0 1.67896 719.4 813.65)"><use xlink:href="#style_01_color_b_svg__i"></use><use xlink:href="#style_01_color_b_svg__j"></use><use xlink:href="#style_01_color_b_svg__k"></use></g><g transform="matrix(1.67896 0 0 1.67896 719.4 813.65)"><use xlink:href="#style_01_color_b_svg__l"></use><use xlink:href="#style_01_color_b_svg__m"></use><use xlink:href="#style_01_color_b_svg__n"></use></g><g transform="matrix(1.67896 0 0 1.67896 719.4 813.65)"><use xlink:href="#style_01_color_b_svg__o"></use><use xlink:href="#style_01_color_b_svg__p"></use><use xlink:href="#style_01_color_b_svg__q"></use></g><g transform="matrix(1.67896 0 0 1.67896 719.4 813.65)"><use xlink:href="#style_01_color_b_svg__r"></use><use xlink:href="#style_01_color_b_svg__s"></use><use xlink:href="#style_01_color_b_svg__t"></use></g><g transform="matrix(1.67896 0 0 1.67896 719.4 813.65)"><use xlink:href="#style_01_color_b_svg__u"></use><use xlink:href="#style_01_color_b_svg__v"></use><use xlink:href="#style_01_color_b_svg__w"></use></g><g transform="matrix(1.67896 0 0 1.67896 719.4 813.65)"><use xlink:href="#style_01_color_b_svg__x"></use><use xlink:href="#style_01_color_b_svg__y"></use><use xlink:href="#style_01_color_b_svg__z"></use></g><g transform="matrix(1.67896 0 0 1.67896 719.4 813.65)"><use xlink:href="#style_01_color_b_svg__A"></use><use xlink:href="#style_01_color_b_svg__B"></use></g><g transform="matrix(1.67896 0 0 1.67896 719.4 813.65)"><use xlink:href="#style_01_color_b_svg__C"></use><use xlink:href="#style_01_color_b_svg__D"></use></g><g transform="matrix(1.67896 0 0 1.67896 719.4 813.65)"><use xlink:href="#style_01_color_b_svg__E"></use><use xlink:href="#style_01_color_b_svg__F"></use><use xlink:href="#style_01_color_b_svg__G"></use></g><g transform="matrix(1.67896 0 0 1.67896 719.4 813.65)"><use xlink:href="#style_01_color_b_svg__H"></use><use xlink:href="#style_01_color_b_svg__I"></use></g><use xlink:href="#style_01_color_b_svg__J" transform="matrix(1.67896 0 0 1.67896 719.4 813.65)"></use><use xlink:href="#style_01_color_b_svg__K" transform="matrix(1.67896 0 0 1.67896 719.4 813.65)"></use><g transform="matrix(1.67896 0 0 1.67896 719.4 813.65)"><use xlink:href="#style_01_color_b_svg__L"></use><use xlink:href="#style_01_color_b_svg__M"></use></g><g transform="matrix(1.67896 0 0 1.67896 719.4 813.65)"><use xlink:href="#style_01_color_b_svg__N"></use><use xlink:href="#style_01_color_b_svg__O"></use></g><use xlink:href="#style_01_color_b_svg__P" transform="matrix(1.67896 0 0 1.67896 719.4 813.65)"></use><g transform="matrix(1.67896 0 0 1.67896 719.4 813.65)"><use xlink:href="#style_01_color_b_svg__Q"></use><use xlink:href="#style_01_color_b_svg__R"></use></g><g transform="matrix(1.67896 0 0 1.67896 719.4 813.65)"><use xlink:href="#style_01_color_b_svg__S"></use><use xlink:href="#style_01_color_b_svg__T"></use><use xlink:href="#style_01_color_b_svg__U"></use></g><use xlink:href="#style_01_color_b_svg__V" transform="matrix(1.67896 0 0 1.67896 719.4 813.65)"></use><g transform="matrix(1.67896 0 0 1.67896 719.4 813.65)"><use xlink:href="#style_01_color_b_svg__W"></use><use xlink:href="#style_01_color_b_svg__X"></use></g><g transform="matrix(1.67896 0 0 1.67896 719.4 813.65)"><use xlink:href="#style_01_color_b_svg__Y"></use><use xlink:href="#style_01_color_b_svg__Z"></use><use xlink:href="#style_01_color_b_svg__aa"></use></g><use xlink:href="#style_01_color_b_svg__ab" transform="matrix(1.67896 0 0 1.67896 719.4 813.65)"></use><g transform="matrix(1.47311 -.07733 0 1.65515 712.197 421.438)"><use xlink:href="#style_01_color_b_svg__ac"></use><use xlink:href="#style_01_color_b_svg__ad" transform="matrix(1.12042 .05234 0 1 .95 .4)"></use></g></svg>