<svg xmlns="http://www.w3.org/2000/svg" xmlns:xlink="http://www.w3.org/1999/xlink" preserveAspectRatio="none" viewBox="0 0 1500 1500" fill="#7f91bf"><defs><path fill="#414448" d="M727.45 748.6q-25.75 7.3-37.25 29.4-11.5 22.2-8.95 36.35 2.65 14.3 7.85 24.2 5.2 9.8 30.25 78.55 25.05 68.65 52.75 131.55 27.75 62.7 30.9 64.9 3 2.05 8.6 5.6 9.95 6.5 22.15 4.35 12.1-1.95 19.25-11.3 7.15-9.15 5.1-20.2-.05-.5-2.1-16.35-2.05-15.95-3.6-27.55-1.6-11.65-4.1-27.75-1.25-8.95-2.6-17.9l-6.05-40.55q-.55-2.1-.8-4.4-.6-3.35-.9-5.45-2-11.25-3.6-20.45-1.55-9.3-3.75-22.75-2.4-13.4-7.5-40.5-5.2-27.05-9.45-47.75-4.45-20.8-5.6-25.75-.1-.45-.2-.7l-2.2-8.05q-7.5-21.9-29.4-33-23.15-11.85-48.8-4.5Z" id="style_02_color_b_svg__d"></path><path fill="#FFF" d="M884.15 1409.8q-8.3-5.95-12.9-13.25-4.25-6.75-5.2-20.1-8.85 5.7-14.85 14.05-6.05 8.35-7.75 16.95-1.75 8.45-.65 16 1.2 9.15 16.85 2.15 15.7-7 24.5-15.8Z" id="style_02_color_b_svg__l"></path><path id="style_02_color_b_svg__n" fill="#414448" d="M705.45 785.05q-11.5-19.5-33.15-24.55-21.6-5.1-40.45 6.6-7.3 4.5-12.45 10.55-3.3 3.85-5.6 8.45-3.6 6.9-5.9 14.1-18.3 62.45-21.8 179.25-2.4 55.8-1.7 114.85l-.1 8q.1 1.1.3 2.15.5 5.85 3.9 11.15 5.95 9.6 16.95 12.15 11 2.6 20.45-3.4 9.55-5.8 12.1-16.75.15-.7 10.2-36.15.35-1.6 1.4-5 1.1-3.35 17.8-65.7 5.1-18.8 7.9-29.2 2.75-10.5 4.45-17.4 1.7-6.8 3.75-14.4 1.95-7.75 3.8-15.6 22.1-88.05 22.75-90.9.35-1.7.7-3.15 5.7-26.65-5.3-45.05Z"></path><path id="style_02_color_b_svg__B" fill="#414448" d="M758.85 778.85q-3.9-8.55-23.55-10.25-15.25-1.35-26.6 8.85-5.55 7.85-3.4 28.65 1.25 14.05 8.1 12 13.85-2.65 21.55-4.1 6.2-1.1 15.75-3.05l4.5-.95 1.1-2.8q7.5-16.8 2.55-28.35Z"></path><path id="style_02_color_b_svg__D" fill="#369CEB" d="M778.65 454.85q-.8-.65-1.55-1.25-50.5-30-110.65-17.05-61.25 13.05-53.25 51 30.6 134.6 34.75 153.85 4.5 21 6.15 28.2 59.1 23.1 122.85 2.15 1.25-9.45 4.35-28.8 2.95-19.5 7.2-48.15 15.25-13.5 20.45-31.4.2-.6.35-1.3v-.05q4.25-14.75-3.9-32.75-2.25-4.65-5.2-8.85-2.8-3.9-6.3-7.4-1.3-1.3-2.75-2.55 1.45 1.25 2.75 2.55 2.45-42.1-15.25-58.2Z"></path><path id="style_02_color_b_svg__H" fill="#414448" d="M761.6 434.5q-16.7-6.55-25.15-10.15-3.55 5.55-2.2 19.2 1.3 13.5 14.85 18.8 13.45 5.1 33.8 7 20.55 1.85 25.05-10.75-4.25-6.55-16.45-11.75-12.95-5.55-29.9-12.35Z"></path><path id="style_02_color_b_svg__M" fill="#414448" d="M793.4 459.8q-34.45-21.8-76.6-22.3-47.8 1.1-81.1 14.95-28.4 11.35-23.7 44l192.55-.8q2.05-26.8-11.15-35.85Z"></path><path id="style_02_color_b_svg__O" fill="#FFF" d="m834.9 523.6-5.8-14.2-26.1-16.8v8.5l31.9 22.5Z"></path><path id="style_02_color_b_svg__T" fill="#C7D4C9" d="M773.7 512.6q4.45-.4 13.55 7.5-5.35-25.35-19.95-43.1-10.05 23.7-9.95 53.1 11.85-16.95 16.35-17.5Z"></path><path id="style_02_color_b_svg__Y" fill="#FFF" d="m626.45 493.05-.4 1.15-2 4.4H624l-1.85 3.2h8.15v-8.7l-3.85-.05m-27.75-.45-.6-.1.45-.15q-19.25 3.9-39.3 7.55l-4.3 8.35q-.037.105-.15.25-.638.982-1.9 3.85 1.04-1.91 1.55-2.95.19-.083.5-.35l-2.05 3.3q6.55-2.1 16.35-4.15l30.5-6.4h22.4l1.85-3.2h.05l2-4.4.4-1.15-27.75-.45Z"></path><path id="style_02_color_b_svg__aa" fill="#414448" d="M670.85 423.5q-.55.25-1.45.6-5 1.9-26.15 9.05-20.95 7.25-34.75 12.4l-5.6 2.15q-13.05 4.75-18.85 10.8 1.05 2.85 5.15 11.85 4.25 9.05 22.8 9.2 18.65.2 44.75-10.2 26.05-10.5 26.5-23.7.3-8.85-6.95-16.8l-5.45-5.35Z"></path><path id="style_02_color_b_svg__b" fill="none" d="M757.45 470q.65-3.75 2.6-7.75 5.2-10.45 16.2-14.2 10.9-3.75 21.4 1.35 9.8 4.85 17.6 21.15.6 1 1.15 2.2m.05.15q0 .1.1.25m.4 1.05q.1.25.3.7 0 .05.65 1.5l5.05 13.2q1.85 4.8 3.75 9.65 1.5 4.35 3.2 8.6 1.3 3.55 2.65 7.05 1.05 2.85 3.4 9.4.2.5.35.9 9.45 25.5 18.35 50.05.05.25.15.5m5.1-.25q2.4 6.8 16 42 .55 1.45-3.8 6.65m-34.45 16.6q-5.5.1-6.9-3.25-.25-.4-.3-.95-12.2-23.9-13.9-27.75-1.7-3.9-1.95-4.95-.25-1-.2-2.15 0-.55.35-1.15m40.05-24.8q-3.6.65-8.35 2.55-12.25 4.85-19.15 10.15-7.1 5.25-8.55 6.9-1.6 1.6-2.3 2.35-.85.95-1.25 2-.25.4-.45.85" stroke="#000" stroke-width="2" stroke-linejoin="round" stroke-linecap="round"></path><path id="style_02_color_b_svg__c" fill="none" d="m816.4 472.75.05.15m.1.25.4 1.05m37.85 101.55q3-.6 5.1-.25m-45.15 25.05q-.1-.1-.15-.2-.6-1-1.2-2.1-.25-.7-.5-1.3L760.65 490.8q-2.2-4.95-3.2-9.45-1.45-5.3 0-11.35" stroke="#000" stroke-width="1.5" stroke-linejoin="round" stroke-linecap="round"></path><path id="style_02_color_b_svg__e" fill="none" d="M807.85 794.15q.1.25.2.7 1.15 4.95 5.6 25.75 4.25 20.7 9.45 47.75 5.1 27.1 7.5 40.5 2.2 13.45 3.75 22.75 1.6 9.2 3.6 20.45.3 2.1.9 5.45.25 2.3.8 4.4l6.05 40.55q1.35 8.95 2.6 17.9 2.5 16.1 4.1 27.75 1.55 11.6 3.6 27.55 2.05 15.85 2.1 16.35 2.05 11.05-5.1 20.2-7.15 9.35-19.25 11.3-12.2 2.15-22.15-4.35-5.6-3.55-8.6-5.6-3.15-2.2-30.9-64.9-27.7-62.9-52.75-131.55-25.05-68.75-30.25-78.55-5.2-9.9-7.85-24.2-2.55-14.15 8.95-36.35 11.5-22.1 37.25-29.4 25.65-7.35 48.8 4.5 21.9 11.1 29.4 33" stroke="#000" stroke-width="2" stroke-linejoin="round" stroke-linecap="round"></path><path id="style_02_color_b_svg__f" stroke="#000" stroke-width="1.5" stroke-linejoin="round" stroke-linecap="round" fill="none" d="m805.65 786.1 2.2 8.05"></path><path id="style_02_color_b_svg__h" stroke="#000" stroke-width="2" stroke-linejoin="round" stroke-linecap="round" fill="none" d="M814.65 1316.15q-.25-1.65-.55-3.6-1.15-7.5-2.85-19.7-4-27.35-12.15-127-3.95-62.25-20.1-101.9m70.35-37.3q6.15 44.15 6.65 49 9.7 54.15 7.15 123-2.65 68.85-1.7 111.25 0 1.8.15 3.5 0 4.75.2 9.2.9 35.55 4.05 52.55 3.5 19.1 9.2 25.05 5.65 5.95 5.45 14.4-.05 8.35-10.95 16.1-11 7.65-24.2 9.4-13.196 1.596-18.6 1.35-5.413-.238-5.2-8.35l-.65-32.65q-.85-28.25-2.5-48.35-1.75-20.3-1.95-22.15 0-.45-.05-.95-.3-1.55-.45-3.65-.15-.6-.15-1.15-.3-1.7-1.15-8.05"></path><path id="style_02_color_b_svg__i" stroke="#000" stroke-width="1.5" stroke-linejoin="round" stroke-linecap="round" fill="none" d="M814.65 1316.15q10.1 2.3 20.4 2.2 6.55-.1 12.75-1.9 7-1.75 13.45-6.45"></path><path id="style_02_color_b_svg__k" stroke="#000" stroke-width="2" stroke-linejoin="round" stroke-linecap="round" fill="none" d="M861.6 1391.7q10.75 9.2 18.4 15 8.7 6.7 18 11.55 9.35 4.8 24 12.7 14.9 7.5 18.05 17.2.7 2.15.85 4.45.1 3.4-1.15 7.25-3.15 8.15-16.65 9.6-36.7 3.6-78.35-10.3-8.85-2.95-14.55-5.55l-3.45-1.35q-6.2-2.2-5.85-7.3l.6-7.15"></path><path id="style_02_color_b_svg__m" stroke="#000" stroke-width="2" stroke-linejoin="round" stroke-linecap="round" fill="none" d="M866.05 1376.45q.95 13.35 5.2 20.1 4.6 7.3 12.9 13.25"></path><path id="style_02_color_b_svg__o" stroke="#000" stroke-width="2" stroke-linejoin="round" stroke-linecap="round" fill="none" d="M584.4 1094.3q-.7-59.05 1.7-114.85 3.5-116.8 21.8-179.25 2.3-7.2 5.9-14.1 2.3-4.6 5.6-8.45 5.15-6.05 12.45-10.55 18.85-11.7 40.45-6.6 21.65 5.05 33.15 24.55 11 18.4 5.3 45.05-.35 1.45-.7 3.15-.65 2.85-22.75 90.9-1.85 7.85-3.8 15.6-2.05 7.6-3.75 14.4-1.7 6.9-4.45 17.4-2.8 10.4-7.9 29.2-16.7 62.35-17.8 65.7-1.05 3.4-1.4 5-10.05 35.45-10.2 36.15-2.55 10.95-12.1 16.75"></path><path id="style_02_color_b_svg__p" stroke="#000" stroke-width="1.5" stroke-linejoin="round" stroke-linecap="round" fill="none" d="M625.9 1124.35q-9.45 6-20.45 3.4-11-2.55-16.95-12.15-3.4-5.3-3.9-11.15-.2-1.05-.3-2.15l.1-8"></path><path id="style_02_color_b_svg__r" stroke="#000" stroke-width="2" stroke-linejoin="round" stroke-linecap="round" fill="none" d="m642.1 1092.4-3.45 13.5-15.75 100.6q-11.15 89.5-17.55 131.45-.25 1.75-.4 3.5-.85 4.65-1.45 9-2.05 14.15-3.15 25.3-.6 5.55-1.05 10.4-.75 9.95-.75 16.85.15 19 4.7 26 .05.1.15.25 4.45 6.9 2.9 15.1-.6 3.4-3.05 6.45-3.45 4.2-10.6 7.6-12 5.7-25.3 5.1-13-.6-17.7-2.9m34.85-369.2q0 5-.25 10.3-1.8 33.65-14.35 84.5-8.4 80.2-10.45 113.5-.45 7.75-.6 13-.35 12.2-.6 19.8v3.55m-.5 13.15q-.1.5-.1.9-.15 1.9-1.85 22.1-1.8 20.1-5.8 48.1l-4.95 32.3m13.2-116.55q-.25 6.55-.25 8.2-.1.5-.1 1.1-.15 2.3-.15 3.85"></path><path id="style_02_color_b_svg__s" stroke="#000" stroke-width="1.5" stroke-linejoin="round" stroke-linecap="round" fill="none" d="m546.15 1486 3.5-25.4m8.6-124.55q.25.2.5.25 9.2 3.85 19.2 5.55 6.55.95 12.95.25 7.15-.6 14.3-4.1m-60.15 114.6q-.5 5.35 4.25 7.85.2.05.35.15"></path><path id="style_02_color_b_svg__u" stroke="#000" stroke-width="1.5" stroke-linejoin="round" stroke-linecap="round" fill="none" d="M600.7 1420.25q-.6-2.25-1.15-4.55m20.3 47.8-.1-.4m-.15 4.15q-.1.45-.25.85m-80.85 1.05h-.1l.1-.1"></path><path id="style_02_color_b_svg__v" stroke="#000" stroke-width="2" stroke-linejoin="round" stroke-linecap="round" fill="none" d="M543.1 1457.55q-2.538 1.763-3.4 4.7m72.05-18.1q-1.7-2.7-3.65-5.5-4.25-6-7.4-18.4m-1.15-4.55q-1.5-2.55-3.05-5.25m23.25 52.65q-.4-4.9-2.55-9.3-2.15-4.6-4.75-8.6-.35-.5-.7-1.05m-5.6 45.5q12.85-5 13.35-19.4.1-1.45.1-2.9m-.25.75.5-4.6m-81.35 5.65q-.479 5.544 1.95 10.7m13.45 10.75q-4.96-1.216-10.2-5.1-2.12-2.33-3.25-5.65m65.7 9.8-3.35 1.8-3.5.7q-.05.05-.25.05-2.8.95-5.7 1.45-19.95 3.15-39.45-3.05"></path><path id="style_02_color_b_svg__w" stroke="#000" stroke-width="1.5" stroke-linejoin="bevel" stroke-linecap="round" fill="none" d="m539.7 1462.25-.2.85v.025"></path><path id="style_02_color_b_svg__x" stroke="#000" stroke-width="2" stroke-linejoin="bevel" stroke-linecap="round" fill="none" d="m539.5 1463.125-1 5.925"></path><path id="style_02_color_b_svg__z" stroke="#000" stroke-width="1.5" stroke-linejoin="round" stroke-linecap="round" fill="none" d="M777.1 672.25q-.95-2.05-1.85-3.9-12.1-23.25-31.7-24.3-24.65-1.2-34.95-.65-44.35 1.75-55.8 28.7m-16.75 37.65q-.45.75-.7 1.6-.1.1-.15.25-.1.2-.1.35l-.1.1 110.25 36.55q22.8-15.85 46.4-34.4-.044-.306-.125-.625l-.025-.075"></path><path id="style_02_color_b_svg__A" stroke="#000" stroke-width="2" stroke-linejoin="round" stroke-linecap="round" fill="none" d="M652.8 672.1q-6.05 13.05-16.75 37.65m155.45 3.75q-.15-.6-.35-1.2-.05-.4-.25-.85-3.15-11.25-6.45-20.35-2.4-6.4-4-10.65-.8-2.05-1.4-3.6l-1.95-4.6m29.55 121.9q-3.65-36.6-11.15-65.05-1.938-8.25-3.975-15.525M635 712.05q-15.25 33.65-22.65 61.85-4.7 17.45-5.65 42.35"></path><path id="style_02_color_b_svg__C" stroke="#000" stroke-width="1.5" stroke-linejoin="round" stroke-linecap="round" fill="none" d="m755.2 810-4.5.95q-9.55 1.95-15.75 3.05-7.7 1.45-21.55 4.1"></path><path id="style_02_color_b_svg__E" stroke="#000" stroke-width="2" stroke-linejoin="round" stroke-linecap="round" fill="none" d="M793.9 513.05q3.5 3.5 6.3 7.4 2.95 4.2 5.2 8.85 8.15 18 3.9 32.75m0 .05q-.15.7-.35 1.3-5.2 17.9-20.45 31.4-4.25 28.65-7.2 48.15-3.1 19.35-4.35 28.8M654.1 669.6q-1.65-7.2-6.15-28.2-4.15-19.25-34.75-153.85m180.7 25.5q-1.3-1.3-2.75-2.55"></path><path id="style_02_color_b_svg__F" stroke="#000" stroke-width="1.5" stroke-linejoin="round" stroke-linecap="round" fill="none" d="M809.3 562.1v-.05m-196.1-74.5q-8-37.95 53.25-51Q726.6 423.6 777.1 453.6"></path><path id="style_02_color_b_svg__G" stroke="#000" stroke-width="2" stroke-linejoin="round" stroke-linecap="square" fill="none" d="M543.15 1456.95q3-11 3.85-16.95"></path><path id="style_02_color_b_svg__I" stroke="#000" stroke-width="2" stroke-linejoin="round" stroke-linecap="round" fill="none" d="M736.45 424.35q8.45 3.6 25.15 10.15 16.95 6.8 29.9 12.35 12.2 5.2 16.45 11.75"></path><path id="style_02_color_b_svg__J" stroke="#000" stroke-width="1.5" stroke-linejoin="round" stroke-linecap="round" fill="none" d="M736.15 424.1q.15.1.3.25m71.5 34.25q.25.25.4.75"></path><path id="style_02_color_b_svg__L" stroke="#000" stroke-width="2" stroke-linejoin="round" stroke-linecap="round" fill="none" d="M729.65 403.9q.15 3.75.5 7v.15q.55 3.75 2.05 6.3 1.55 2.65 3.75 4.95 2.2 2.3 4.85 3.7.2.05.25.15 2.5 1.1 4.1 1.85"></path><path id="style_02_color_b_svg__N" stroke="#FFF" stroke-width="9" stroke-linejoin="miter" stroke-linecap="butt" fill="none" d="m610.4 497.55 192.95-.6" stroke-miterlimit="3"></path><path id="style_02_color_b_svg__Q" stroke="#000" stroke-width="2" stroke-linejoin="round" stroke-linecap="round" fill="none" d="M671.4 423.25q.85-.4 1.5-.75l1.2-.7q7.5-3.85 8.7-13.45.15-1.1.25-1.6m0-.35.7-8 32.6 11.55"></path><path id="style_02_color_b_svg__R" stroke="#000" stroke-width="1.5" stroke-linejoin="round" stroke-linecap="round" fill="none" d="M683.05 406.75v-.35"></path><path id="style_02_color_b_svg__U" stroke="#000" stroke-width="1.5" stroke-linejoin="round" stroke-linecap="round" fill="none" d="M767.3 477q14.6 17.75 19.95 43.1-9.1-7.9-13.55-7.5-4.5.55-16.35 17.5-.1-29.4 9.95-53.1Z"></path><path id="style_02_color_b_svg__W" stroke="#000" stroke-width="2" stroke-linejoin="round" stroke-linecap="round" fill="none" d="M623.4 454.45q-1.25-1.65-6.3-6.3-5-4.7-10.7-.7-5.8 4-10.4 5.3-4.6 1.15-9.7 4.25-4.1 2.35-12.65 14.4m-4.65 6.8q-.35.7-3.4 6.4-3 5.7-3.35 6.55m-.25.75q-1.95 4-2.65 5.45-1.2 2.65-3.4 7.1m17.7-33.05-4.65 6.8m-13.05 26.25q-.4.85-.95 1.85-1.5 2.972-3.7 7.325-1.557 3.022-3.45 6.725-.6 1.3-1.35 2.85-.35.65-.7 1.35-3.4 6.8-15.75 31.45-.1.25-.15.5l-2.05 4q-1.05 2.1-2.05 4.35l-1.05 2.1q1.65.2 3.45.7 6.95 2.2 17 8.25 10.05 6.3 15.1 10.9 3.25 3.15 4.75 5.2m.6-.9 56.4-88.95m-97.3 64.8q-4.5-.5-6.45 2.55l-8.2 16.2q-4.25 8.7-10.1 20.55-.6 1.35 2.95 6.2m35.1 21.15q2.05.4 3.4.6 3.5.25 4.6-2.4 1.2-2.65 3.5-6.4.8-1.35 1.65-2.9 3.55-6.05 8.05-13.35 4.6-7.35 6.4-10.25 1.7-2.8.6-5.1-.35-.75-1.2-1.8"></path><path id="style_02_color_b_svg__X" stroke="#000" stroke-width="1.5" stroke-linejoin="round" stroke-linecap="round" fill="none" d="m628.625 487.4.525-1.3m.05-.65q2.75-8.1 2.15-12.6 0-.35-.1-.6-1.5-10.4-7.85-17.8m3.6 37.3q0-.087 1.625-4.35M565.05 592q.25-.5.6-.9m56.4-88.95q.5-.7.85-1.3 1.7-3.4 3-6.4"></path><path id="style_02_color_b_svg__Z" stroke="#000" stroke-width="2" stroke-linejoin="round" stroke-linecap="square" fill="none" d="m626.85 491.85-.4 1.2-.4 1.15-2 4.4H624l-1.825 3.2-.775 1.35"></path><path id="style_02_color_b_svg__ab" stroke="#000" stroke-width="1.5" stroke-linejoin="round" stroke-linecap="round" fill="none" d="M671.8 423.15q-.4.2-.95.35"></path><path id="style_02_color_b_svg__ac" stroke="#000" stroke-width="2" stroke-linejoin="round" stroke-linecap="round" fill="none" d="M670.85 423.5q-.55.25-1.45.6-5 1.9-26.15 9.05-20.95 7.25-34.75 12.4l-5.6 2.15q-13.05 4.75-18.85 10.8"></path><path id="style_02_color_b_svg__ae" stroke="#EFD16A" stroke-width="0.5" stroke-linejoin="round" stroke-linecap="round" fill="none" d="M-3.304-1.972q0 1.05-.58 1.83-.58.781-1.429.826Q-6.16.728-6.74.008q-.58-.72-.58-1.77t.58-1.83q.58-.78 1.428-.824.848-.045 1.428.675.58.72.58 1.77Z"></path><g id="style_02_color_b_svg__a"><path fill="#369CEB" d="M846.45 578.3q-12.25 4.85-19.15 10.15-7.1 5.25-8.55 6.9-1.6 1.6-2.3 2.35-.85.95-1.25 2-.25.4-.45.85-.35.6-.35 1.15-.05 1.15.2 2.15.25 1.05 1.95 4.95 1.7 3.85 13.9 27.75.05.55.3.95 1.4 3.35 6.9 3.25-1.75-5.05-1.85-5.3 5.95-4.75 13.95-9.3 8.05-4.6 20.05-8.4 1.1 3.15 2.3 6.4 4.35-5.2 3.8-6.65-13.6-35.2-16-42-2.1-.35-5.1.25-3.6.65-8.35 2.55m-10.15-53.1q-.15-.4-.35-.9l-34.25-24.65q-.25-.05-.4-.3-1.2-1.2-1.45-2.4-.35-1.3 1.1-2.3.2-.1.25-.2.1-.15.6-.3.1 0 .25-.2.95-.5 1.7-1-.05 0-.05-.1-.25-.15-.35-.5-.5-1.35.4-2.55l.2-.2q0-.05.05-.05.1-2.85.8-2.5l-.25-.25q-.7-.6 0-1.1.75-.6-1.3.5l-.5-.35q3-.9 1.2-1.95-12-11-46.5-13.9-1.45 6.05 0 11.35 1 4.5 3.2 9.45l52.25 106.15q.25.6.5 1.3.6 1.1 1.2 2.1.05.1.15.2.2-.45.45-.85.4-1.05 1.25-2 .7-.75 2.3-2.35 1.45-1.65 8.55-6.9 6.9-5.3 19.15-10.15 4.75-1.9 8.35-2.55-.1-.25-.15-.5-8.9-24.55-18.35-50.05Z"></path><path fill="#414448" d="M816.4 472.75q-.55-1.2-1.15-2.2-7.8-16.3-17.6-21.15-10.5-5.1-21.4-1.35-11 3.75-16.2 14.2-1.95 4-2.6 7.75 34.5 2.9 46.5 13.9 1.8 1.05-1.2 1.95l.5.35q2.05-1.1 1.3-.5-.7.5 0 1.1l.25.25q-.7-.35-.8 2.5-.05 0-.05.05l-.2.2q-.9 1.2-.4 2.55.1.35.35.5 0 .1.05.1.1.05.2.15 1.85 1.45 2.8 2.3.85.95 5.3 3.15l4.35 2.9q.85.5 1.6.95 1.35.85 2.4 1.6 1.45 1.1 1.85 1.45.25.45.7.7.35.15.75.5.25.35.85.6.45.25 1.35.85.95.7 2.65 2.65 1.3 1.25.95.15.1.1.1.25 1.1 3.1 2.35 5.2.8 0 .6-1.45-1.35-3.5-2.65-7.05-1.7-4.25-3.2-8.6-1.9-4.85-3.75-9.65l-5.05-13.2q-.65-1.45-.65-1.5-.2-.45-.3-.7l-.4-1.05q-.1-.15-.1-.25l-.05-.15Z"></path></g><g id="style_02_color_b_svg__g"><path fill="#FFF" d="M861.8 1322.6q-.1.1-.2.15-5.7 4.3-12.15 6-7.35 2.3-15.7 1.95-9.8.1-17.35-1.7.05.5.05.95.2 1.85 1.95 22.15 1.65 20.1 2.5 48.35l.65 32.65q-.213 8.112 5.2 8.35 5.404.246 18.6-1.35 13.2-1.75 24.2-9.4 10.9-7.75 10.95-16.1.2-8.45-5.45-14.4-5.7-5.95-9.2-25.05-3.15-17-4.05-52.55Z"></path><path fill="#369CEB" d="M861.45 1309.9q-.1.1-.2.1-6.45 4.7-13.45 6.45-6.2 1.8-12.75 1.9-10.3.1-20.4-2.2.85 6.35 1.15 8.05 0 .55.15 1.15.15 2.1.45 3.65 7.55 1.8 17.35 1.7 8.35.35 15.7-1.95 6.45-1.7 12.15-6 .1-.05.2-.15-.2-4.45-.2-9.2-.15-1.7-.15-3.5Z"></path><path fill="#414448" d="M779 1063.95q16.15 39.65 20.1 101.9 8.15 99.65 12.15 127 1.7 12.2 2.85 19.7.3 1.95.55 3.6 10.1 2.3 20.4 2.2 6.55-.1 12.75-1.9 7-1.75 13.45-6.45.1 0 .2-.1-.95-42.4 1.7-111.25 2.55-68.85-7.15-123-.5-4.85-6.65-49l-70.35 37.3Z"></path></g><g id="style_02_color_b_svg__j"><path fill="#369CEB" d="M939.75 1459.85q1.25-3.85 1.15-7.25-4.75 3.3-13.6 4.2-50.1 4.4-105.55-18.85-.2-.1-.25-.15l-.6 7.15q-.35 5.1 5.85 7.3l3.45 1.35q5.7 2.6 14.55 5.55 41.65 13.9 78.35 10.3 13.5-1.45 16.65-9.6Z"></path><path fill="#FFF" d="M922 1430.95q-14.65-7.9-24-12.7-9.3-4.85-18-11.55-7.65-5.8-18.4-15-9.8.95-20.85 4.1-10.9 3.05-13.8 7.5-2.65 4.3-3.5 11.8-.75 7.35-1.7 22.85 55.45 23.25 105.55 18.85 8.85-.9 13.6-4.2-.15-2.3-.85-4.45-3.15-9.7-18.05-17.2Z"></path></g><g id="style_02_color_b_svg__q"><path fill="#FFF" d="M558.7 1349.5q-.55-.15-.95-.3-.1.5-.1.9-.15 1.9-1.85 22.1-1.8 20.1-5.8 48.1l-4.95 32.3q-.5 5.35 4.25 7.85.2.05.35.15 4.7 2.3 17.7 2.9 13.3.6 25.3-5.1 7.15-3.4 10.6-7.6 2.45-3.05 3.05-6.45 1.55-8.2-2.9-15.1-.1-.15-.15-.25-4.55-7-4.7-26 0-6.9.75-16.85.45-4.85 1.05-10.4 1.1-11.15 3.15-25.3l-.2.2q-6.2 3.3-12.95 3.9-7.65 1-15.75-.75-9.2-1.45-15.9-4.3Z"></path><path d="M558.75 1336.3q-.25-.05-.5-.25-.25 6.55-.25 8.2-.1.5-.1 1.1-.15 2.3-.15 3.85.4.15.95.3 6.7 2.85 15.9 4.3 8.1 1.75 15.75.75 6.75-.6 12.95-3.9l.2-.2q.6-4.35 1.45-9 .15-1.75.4-3.5-.05.05-.15.05-7.15 3.5-14.3 4.1-6.4.7-12.95-.25-10-1.7-19.2-5.55Z" fill="#369CEB"></path><path fill="#414448" d="m638.65 1105.9 3.45-13.5-57.6-1q0 5-.25 10.3-1.8 33.65-14.35 84.5-8.4 80.2-10.45 113.5-.45 7.75-.6 13-.35 12.2-.6 19.8v3.55q.25.2.5.25 9.2 3.85 19.2 5.55 6.55.95 12.95.25 7.15-.6 14.3-4.1.1 0 .15-.05 6.4-41.95 17.55-131.45l15.75-100.6Z"></path></g><g id="style_02_color_b_svg__t"><path fill="#EC5657" d="M543.95 1486.25q.75 2.65 9.95 4.35-4.96-1.216-10.2-5.1.05.3.25.75m-5.1-16.55q.106.04.15.05.18.025.3.05h.1l.8.1h.35l-.65-.1h-.05q-.1 0-.25-1.8l.05 1.75q-.031-.07-.1-.2.003.208-.05.2-.215-.05-.4-.05h.1q.026.038.05.05l-.45-.05h-.05q.046.007.1 0m-.35-.55v-.1l-.1.1h.1m1-6.05q-.022.094-.1.25l-.25 1.25q-.6 3.1-.85 4.25l-.15.8v.05h.15q-.15.3-.15.35h-.1q-.25 2.75.2 3.1l.05.05.1 1.65q.5 2.7 2.05 5-2.429-5.156-1.95-10.7h-.1l.1-.1 1-5.95Z"></path><path fill="#FFF" d="M539.25 1469.75q-.024-.012-.05-.05-.178.019-.4 0l.45.05m59.2-54.1q-1.8-2.5-3.55-5.2-50 21.7-51.8 47.1-2.538 1.763-3.4 4.7-.784 5.72-.15 7.3.069.13.1.2l-.05-1.75q.15 1.8.25 1.8h.05l.65.1h-.35l-.8-.1h-.05q.243.06.35.1.148.06.05.1-.35-.1-.6 0 6.65 7.9 30.5 10.7 1.45.2 2.85.35l1 .1 13.2-.1q11.5-.95 20.6-5.7 4-1.45 7.6-4.95 1.7-1.7 3.15-2.8.25-.75.6-1.7l-.25 1q.076-.03.15-.05 1.02-5.55-4.05-16.8-1.3-2.75-2.75-5.9-1.7-2.7-3.65-5.5-4.25-6-7.4-18.4-1.15-2.3-2.25-4.6Z"></path><path fill="#161616" d="m538.85 1469.7.15.1q.1.1.15.2.25-.1.6 0 .098-.04-.05-.1-.107-.04-.35-.1h-.05q-.12-.025-.3-.05-.044-.01-.15-.05Z"></path><path fill="#369CEB" d="M607.3 1475.35q-9.1 4.75-20.6 5.7l-13.2.1-1-.1q-1.4-.15-2.85-.35-23.85-2.8-30.5-10.7-.05-.1-.15-.2l-.15-.1q-.054.007-.1 0H538.9q-.25-.3-.4-.55-.479 5.544 1.95 10.7 1.13 3.32 3.25 5.65 5.24 3.884 10.2 5.1 19.5 6.2 39.45 3.05 2.9-.5 5.7-1.45.2 0 .25-.05l3.5-.7q.598-.93 4.15-2.75 3.552-1.82-.8.95 12.85-5 13.35-19.4.1-1.45.1-2.9v-.1q-.1.45-.25.85v.2q-.25 1.7-.25 1.1-.1-.25-.1-.45-.139-.773-.25-1.2.083-.057.15-.15.803-.553.25-.7-.341-.059-.6-.05-.074.02-.15.05l.25-1q-.35.95-.6 1.7-1.45 1.1-3.15 2.8-3.6 3.5-7.6 4.95Z"></path></g><g id="style_02_color_b_svg__y"><path fill="#414448" d="M791.5 713.55q.106.344.15.65-23.6 18.55-46.4 34.4L635 712.05q-15.25 33.65-22.65 61.85-4.7 17.45-5.65 42.35 20.65 8.4 102.25-2.4 79.65-12.25 97.7-19.7-3.65-36.6-11.15-65.05-1.938-8.25-4-15.55Z"></path><path fill="#369CEB" d="M777.1 672.25q-.95-2.05-1.85-3.9-12.1-23.25-31.7-24.3-24.65-1.2-34.95-.65-44.35 1.75-55.8 28.7-6.05 13.05-16.75 37.65-.45.75-.7 1.6-.1.1-.15.25-.1.2-.1.35l-.1.1 110.25 36.55q22.8-15.85 46.4-34.4-.044-.306-.15-.65v-.05q-.15-.6-.35-1.2-.05-.4-.25-.85-3.15-11.25-6.45-20.35-2.4-6.4-4-10.65-.8-2.05-1.4-3.6l-1.95-4.6Z"></path></g><g id="style_02_color_b_svg__K"><path fill="#414448" d="M732.2 417.35q-1.5-2.55-2.05-6.3l-19.25 9.55-.5 22.5q-.85 9.7 11.6 6.55 20.5-7.25 23.15-21.65-1.6-.75-4.1-1.85-.05-.1-.25-.15-2.65-1.4-4.85-3.7-2.2-2.3-3.75-4.95Z"></path><path fill="#369CEB" d="M730.15 410.9q-.35-3.25-.5-7l-18.15 9.75q-.25.15-.6.15v6.8l19.25-9.55v-.15Z"></path><path d="m729.65 403.9.5-.35q.55-.25.7-.65.1-.5-.15-1.05-.3-.5-.7-.6-.5-.15-1.05.1L710.3 411.4q-.5.25-.6.8-.15.4.1.9.25.55.75.7h.35q.35 0 .6-.15l18.15-9.75Z"></path></g><g id="style_02_color_b_svg__P"><path fill="#414448" d="m716.55 444.55-.2-26.75q-16.35-4.6-33.3-11.4v.35q-.1.5-.25 1.6-1.2 9.6-8.7 13.45l-1.2.7q-.65.35-1.5.75 5.6 21.2 25.7 28.35 5.45 2.4 12.55 2.25 7.05-.2 6.9-9.3Z"></path><path d="M716.35 417.8v-7.85l-32.6-11.55-.7 8q16.95 6.8 33.3 11.4Z" fill="#369CEB"></path></g><g id="style_02_color_b_svg__S"><path fill="#369CEB" d="m684.6 675.75-6-.25-1 46.7 6.05.15.95-46.6m38.5-264.4-6.05-.6.7 39.35-61.35 30.15 8.5 85.35q2.3 20.7 4.85 42 2.65 21.9 5.4 42l5.95-.85q-2.75-20.45-5.35-41.85-2.6-21.3-4.9-42l-8.05-81.1 61-30.05-.7-42.4Z"></path><path d="m715 409.05-.4.3.65 39.2-61.5 30.25.25 2.9q4.6 50.75 9.8 96.85 2.75 23.75 5.9 48.4l6.35 48.2.2.1h-.2l-1 51.2.4.1h2.05l.1-4.35 1-46.7v-.25h-.15l.15-.1-3.45-25.55q-2.75-20.1-5.4-42-2.55-21.3-4.85-42l-8.5-85.35 61.35-30.15-.7-39.35v-1.7H715Z"></path></g><g id="style_02_color_b_svg__V"><path fill="#414448" d="m626.25 494.2-.1.1q.15 0 .5-.7l-.4.6m.65-.9v-.35l-.15.15v.45l.15-.1-.05-.15h.05m-20.5-45.85q-5.8 4-10.4 5.3-4.6 1.15-9.7 4.25-4.1 2.35-12.65 14.4-1.25 2.05-2.55 5-.25.6-.6 1.55-.25.15-.4.35v.05l-.35.35.1.2-.35.05-.5-.75q-.35.7-3.4 6.4-3 5.7-3.35 6.55-.25.7 4.85-8.6l.2.6-1.05 1.7-2.55 5.55q-.15.3 0 .5l-.35.6q-.6.85-.75 1.35l-.6-.95q-1.95 4-2.65 5.45-1.2 2.65-3.4 7.1l1.9-1.35q.5-.7 1-1.15 1.1-1.15 3.4-2.2.45-.25.85-.35l.45-.35h.15q1.05.2 1.95-.3.6-.35.85-.2l6.65-.65q8-3.45 12.35-1.75 4.25 1.75 7-.3 2.7-2.15 3.15-1.55 2.4-2.9 5.3 3 2.8 5.8 5.6-.6 2.75-6.5 4.75-.25 2.05-2 3.75-2.85.3.35.7.45l2.9.35q2.2.15 3.4.15l.85-.1q.1-.05.25-.25l.2-.05.6.5 1.1.15h.1l.05-.05q.35-.1.7-.3.1-.05.1-.15l.05-.1.7-1.75.1-.6v.4l.15-.5h-.15l1.75-4.35.55-1.3-1.7 5.2.5-.65.05-.25q0-.2.2-.25l.25-.7q.1-.75.35-1.45l.25-.35q-.1-.15.15-.35l.1-.9q.1-.55-.1-.95 2.75-8.1 2.15-12.6 0-.35-.1-.6-1.5-10.4-7.85-17.8-1.25-1.65-6.3-6.3-5-4.7-10.7-.7Z"></path><path fill="#369CEB" d="m518.3 569.5-8.2 16.2q-4.25 8.7-10.1 20.55-.6 1.35 2.95 6.2 1.55-2.4 3.1-5.1 13.45 4.6 21.6 9.9 8.35 5.25 14.25 9.6-1.2 1.55-3.85 6.75 2.05.4 3.4.6 3.5.25 4.6-2.4 1.2-2.65 3.5-6.4.8-1.35 1.65-2.9 3.55-6.05 8.05-13.35 4.6-7.35 6.4-10.25 1.7-2.8.6-5.1-.35-.75-1.2-1.8-1.5-2.05-4.75-5.2-5.05-4.6-15.1-10.9-10.05-6.05-17-8.25-1.8-.5-3.45-.7-4.5-.5-6.45 2.55m33-55.9q-1.156 1.364-2.35 4.5l-1.1 2.25 3.45-6.75m64.45-19.55q-.4-.1-.7-.45-1.7.85-3.75 2.85-2-6.25-4.75.25-2.8 6.4-5.6.6-2.9-5.9-5.3-3-.45-.6-3.15 1.55-2.75 2.05-7 .3-4.35-1.7-12.35 1.75l-6.65.65q-.25-.15-.85.2-.9.5-1.95.3-.25.2-.6.35-.4.1-.85.35-2.3 1.05-3.4 2.2-.5.45-1 1.15-1.15 1.7-2.3 4.5l-1.2 2.8q-.546 1.544-2.15 2.4-.44.254-.9.8l-3.45 6.75q-.6 1.3-1.35 2.85-.35.65-.7 1.35-3.4 6.8-15.75 31.45-.1.25-.15.5l-2.05 4q-1.05 2.1-2.05 4.35l-1.05 2.1q1.65.2 3.45.7 6.95 2.2 17 8.25 10.05 6.3 15.1 10.9 3.25 3.15 4.75 5.2.25-.5.6-.9l56.4-88.95q.5-.7.85-1.3l-2.1 1.1q2.05-2.9 2.8-5.7.4-.95.35-1.6l-.6-.5-.2.05q-.15.2-.25.25l-.85.1q-1.2 0-3.4-.15l-2.9-.35m-21.1 16.1h-.2l.1-.1.1.1.05.1.2.05h-.2l-.05-.15Z"></path></g><g id="style_02_color_b_svg__ad"><path fill="#202020" d="M-6.6-3.5q-.65.75-.65 1.8T-6.6.1q.65.75 1.6.75.95 0 1.6-.75.65-.75.65-1.8t-.65-1.8q-.65-.75-1.6-.75-.95 0-1.6.75Z"></path><path fill="#EFD16A" d="M2.5-1.45Q1.75-2.3.7-2.3t-1.75.85Q-1.8-.65-1.8.5t.75 2q.7.8 1.75.8t1.8-.8q.7-.85.7-2t-.7-1.95Z"></path></g></defs><g><use xlink:href="#style_02_color_b_svg__a"></use><use xlink:href="#style_02_color_b_svg__b"></use><use xlink:href="#style_02_color_b_svg__c"></use></g><g><use xlink:href="#style_02_color_b_svg__d"></use><use xlink:href="#style_02_color_b_svg__e"></use><use xlink:href="#style_02_color_b_svg__f"></use></g><g><use xlink:href="#style_02_color_b_svg__g"></use><use xlink:href="#style_02_color_b_svg__h"></use><use xlink:href="#style_02_color_b_svg__i"></use></g><g><use xlink:href="#style_02_color_b_svg__j"></use><use xlink:href="#style_02_color_b_svg__k"></use></g><g><use xlink:href="#style_02_color_b_svg__l"></use><use xlink:href="#style_02_color_b_svg__m"></use></g><g><use xlink:href="#style_02_color_b_svg__n"></use><use xlink:href="#style_02_color_b_svg__o"></use><use xlink:href="#style_02_color_b_svg__p"></use></g><g><use xlink:href="#style_02_color_b_svg__q"></use><use xlink:href="#style_02_color_b_svg__r"></use><use xlink:href="#style_02_color_b_svg__s"></use></g><g><use xlink:href="#style_02_color_b_svg__t"></use><use xlink:href="#style_02_color_b_svg__u"></use><use xlink:href="#style_02_color_b_svg__v"></use><use xlink:href="#style_02_color_b_svg__w"></use><use xlink:href="#style_02_color_b_svg__x"></use></g><g><use xlink:href="#style_02_color_b_svg__y"></use><use xlink:href="#style_02_color_b_svg__z"></use><use xlink:href="#style_02_color_b_svg__A"></use></g><g><use xlink:href="#style_02_color_b_svg__B"></use><use xlink:href="#style_02_color_b_svg__C"></use></g><g><use xlink:href="#style_02_color_b_svg__D"></use><use xlink:href="#style_02_color_b_svg__E"></use><use xlink:href="#style_02_color_b_svg__F"></use><use xlink:href="#style_02_color_b_svg__G"></use></g><g><use xlink:href="#style_02_color_b_svg__H"></use><use xlink:href="#style_02_color_b_svg__I"></use><use xlink:href="#style_02_color_b_svg__J"></use></g><g><use xlink:href="#style_02_color_b_svg__K"></use><use xlink:href="#style_02_color_b_svg__L"></use></g><use xlink:href="#style_02_color_b_svg__M"></use><use xlink:href="#style_02_color_b_svg__N"></use><use xlink:href="#style_02_color_b_svg__O"></use><g><use xlink:href="#style_02_color_b_svg__P"></use><use xlink:href="#style_02_color_b_svg__Q"></use><use xlink:href="#style_02_color_b_svg__R"></use></g><use xlink:href="#style_02_color_b_svg__S"></use><g><use xlink:href="#style_02_color_b_svg__T"></use><use xlink:href="#style_02_color_b_svg__U"></use></g><g><use xlink:href="#style_02_color_b_svg__V"></use><use xlink:href="#style_02_color_b_svg__W"></use><use xlink:href="#style_02_color_b_svg__X"></use></g><g><use xlink:href="#style_02_color_b_svg__Y"></use><use xlink:href="#style_02_color_b_svg__Z"></use></g><g><use xlink:href="#style_02_color_b_svg__aa"></use><use xlink:href="#style_02_color_b_svg__ab"></use><use xlink:href="#style_02_color_b_svg__ac"></use></g><g transform="matrix(1.47311 -.07733 0 1.65515 706.547 421.738)"><use xlink:href="#style_02_color_b_svg__ad"></use><use xlink:href="#style_02_color_b_svg__ae" transform="matrix(1.12042 .05234 0 1 .95 .4)"></use></g></svg>