<svg xmlns="http://www.w3.org/2000/svg" xmlns:xlink="http://www.w3.org/1999/xlink" preserveAspectRatio="none" viewBox="0 0 1500 1500" fill="#7f91bf"><defs><path fill="#45484A" d="M29.4-7.9q.923-12.314-17.7-11.9-18.746.415-18.2 14.95Q-6.279.686 0 .05L23 .2q5.742.345 6.4-8.1Z" id="style_05_color_b_svg__e"></path><path fill="#45484A" d="M-91.95 40.35q23.32 14.365 57.9-.15Q14.563 21.445 1.1-.5l-73.65 29.35q-12.712 5.105-19.4 11.5Z" id="style_05_color_b_svg__g"></path><path id="style_05_color_b_svg__i" fill="#C7D4C9" d="M1.35 5.35q2.677.083 7.25 4.35Q5.734-4.599-2.95-15.45-8.86-.448-8.55 15.3q6.52-10.05 9.9-9.95Z"></path><path id="style_05_color_b_svg__k" fill="#45484A" d="M-95.05 35.35q8.499 20.77 76-2.3Q21.682 21.523.1.05l-79.3 27.6q-9.764 3.577-15.85 7.7Z"></path><path id="style_05_color_b_svg__b" fill="none" d="m658.45 387.15-.2 8.1m-3.6 366.825 58 18.825 89.75-33.05m.075-.5q5.334-31.826 12.925-60.75 10.35-34 14.45-64.75 11.575-13.284 18.675-31.325 8.263-21.352 10.175-49.375.137-2.036.25-4.1.053-1.075.1-2.15m-5.35-75.15q7.282.099 14.75 2.45 11.1 3.55 19 10.95 1.55 1.3 2.9 2.9 10.5 10.55 20.35 34.8.4.8.7 1.75 1.6 3.55 5.05 12.3 12.65 31.5 50.1 130.4 1.305 3.902 4.125 12.475 2.81 8.57-2.3 22.8-.424 1.181-.925 2.325l-42.3 138.6q-1.3 3.35-7.05 4.7m-43.6-8.05q-4.2-3.2-4.5-7 7.159-73.538 14.75-136.125-21.907-39.938-42.3-80.95M802.5 748.1l-4.65 97.825L857.8 1049.6q.5 1.55.95 3.1 1.041 4.295.95 8.525m.55.175 9.65 215.2q.05.75.1 1.6.3 4.85.5 9.65.5 10.4 1 20.75.35 5.7.6 11.5.4 9.3.9 18.75.9 21.05 2 37.65.164 1.638 1.05 8.275 2.192 3.538 5.25 6.325m.325.3q.844.711 1.775 1.45 6.165 4.953 15.9 10.65 2.85 1.65 6.15 3.45.35.25.95.6 3.3 2 8.35 5 2.6 1.55 5.8 3.4.3.15.6.35 2.3 1.3 4.15 2.45 1.55.9 2.95 1.75 2.2 1.3 3.55 2.25 4.85 3.2 8.15 6.55.6.6 1.15 1.05 3.9 4.45 5.65 9.15m.3.7q1.85 5.45 1.2 10.5-.95 1.85-2.55 3.8-.75.9-2.05 1.9m-2.25 1.8q-.05.15-.15.15-.55.3-.8.55m-3.05 1.3q-.4.1-.8.3-3.15.95-6.35 1.8-2.45.6-4.9 1-6.4 1-13.25 1.05l-2.5-.2q-16.7-.4-30.7-5.5-.3-.1-.55-.15-24.6-8-41.55-17.25-4.65-2.65-8.75-5.45-5.45-3.8-7.75-6.55-2-2.4-3.05-4.7-.35-.85-.6-1.55-.25-.6-.4-1.15-.194-2.965-.4-5.7m-.25-.85q10.8-22.25 10.7-22.35-.4-9.2-1.15-18.65-.1-1.1-.3-2.3-.1-.45-.05-.85-.25-1.6-.45-3.15-3.3-22.7-6.15-43.15-.85-6-1.6-11.8-1.4-9.95-2.75-19.35-1.7-11.7-3.25-22.55-1.15-8.25-2.1-15-1.25-8.75-2.05-14.85-.35-2.3-.65-4.2-1.3-9.55-1.3-9.65m-.05-.1q-.6-4.25-1.25-8.35-12.15-79.15-11.1-113.2.745-28.238.9-34.45L714.8 872.3m-19.475-21.925q.292 2.658.275 5.425 0 .4-.05.9 0 2.65-.25 5.4-.15 2.5-.5 5.1l-27.95 219.25m-.2 2L623.9 1299.7q-.2.8-.35 1.6-.85 4.75-1.8 9.5-.739 3.675-1.475 7.35-1.314 6.525-2.625 13.05-.402 2.146-.825 4.3-.666 3.465-1.375 6.95-1.8 9.15-3.7 18.4-2.85 14-5.15 26l-1.9 13.6q-1.5 14.7-5.1 26.5-.027.09-.05.175 2.566 1.94 5 3.875 17.1 13.2 28.95 25.2 5.8 6.55 5 13.5-.35 3.35-2.25 6.9-5.9 10.7-39.5 8.8-33.7-1.8-47.4-10.75-11.05-7.2-12.4-13.95-.3-1.65 0-3.2.15-1.294.4-2.725m.35-1.925q2.27-6.605 4.175-12.25.106-.274.2-.55l1.925-5.75q1.351-4.055 2.3-7.025.31-.933.6-1.825 4.317-13.053 5.1-16.7.25-1.35.5-2.75 2.25-11 4.2-22.35.15-1.1.3-2.3.05-.4.15-.85.15-1.6.35-3.15 2.35-22.9 4.5-43.35.65-6 1.25-11.85 1.05-9.95 2.1-19.4 1.15-11.75 2.35-22.6.85-8.35 1.55-15.2.9-8.75 1.55-14.85.25-2.3.4-4.2 1.1-9.6 1.15-9.75m-.1-.05q.45-4.3.85-8.45 7.4-79.75 16.6-112.55 9.18-32.673 9.75-34.8l1.25-43.9.1-3.85q.05-3 .15-5.95 0-.65.2-6.3.45-14.3 1.85-60.45 1.9-64.5 2.95-83.8.5-7.85.8-19.35.033-.602.05-1.2.023-.264-6.95-30.55-6.982-30.281-.15-54.475 6.733-23.843 6.375-24.15h-.025m-.55-.175q-2.95-26.1-44.25-112.25-9.722-23.32-17.25-43.55-11.9 12-22.85 22.45l-53.7 54.225 52.1 121.525q.45 2.8-2.3 6.45m-36.55 22.95q-4.3 1-6.15-.45-76.7-101.85-98.75-153.05-2.215-16.378 5.4-30.25 1.4-2.35 2.75-4.5 13.7-22.25 22.95-35.95 26.2-38.1 49.65-68.1 4.3-5.5 8.4-10.65 5.85-7.35 11.5-14.1 4.4-5.25 8.65-10.2 2.35-2.7 4.6-5.25 16.75-17 32.55-23.85 5.9-2.55 11.55-3.85 2.983-.634 5.9-.925M650.45 415.2q7.6-3.9 7.6-14.5l.2-5.45m91.1-2.6.25 7.9m0 1.25q0 2.3.35 4.3 1.3 7.15 7.25 10.15m127.55 268.775q1.367-11.293 2.75-22.225m-317-99.45L544 589q-.272.85 0 1.35m-85.3 56.25 8.75 20.425m138.625 79.3L653 761.55" stroke="#000" stroke-width="2" stroke-linejoin="round" stroke-linecap="round"></path><path id="style_05_color_b_svg__c" fill="none" d="M802.4 747.85q.041-.248.075-.5m39.975-143.275q-5.423 10.086-12.6 18.325-4.05 30.7-14.35 64.6-7.7 29.1-13 61.1m78.8 643 .325.3m65.425 48.8q-.25-.4-.3-.7m-5.35 18.7 2.25-1.8m-3.2 2.5q-1.2.6-2 .95l-.7.2-.25.15h-.1m-121.55-44.05q-.119-.412-.25-.85m-11.15-187.95.05.1M714.8 872.3q-.2-.65-1.3-3.7-.55-1.55-1.3-3.65-2.467-7.587-2.2-15.025m-43.15 236.525q-.05.5-.05.95-.09.522-.2 1.025M537.7 1452.85q-.13.648-.25 1.275m34.8-218.025.1.05m33.15-490 .55.175m-66.35-289.5q1.86-.883 3.875-1.625.736-.317 1.5-.625M650.45 415.2l-.7.25m66.1-12.45 33.5-10.35m-33.5 10.3-57.4-15.8m91.15 13.4v1.25m7.6 14.45 1.55.65m43.725 330.45q.018.351.025.7v.05m167.3-62.9-2.35 7.7m-125-88.825q3.44-6.386 6.075-13.55M522.7 473.65q.584-1.263 1.25-2.45 1.928-3.424 4.55-6.275 4.554-4.91 11.2-8.1m23.55 865.325q7.649 4.43 16.4 6.9 16.935 4.754 38 2.15m-18.1 95.925q-1.818-1.36-3.7-2.725m-58.4 29.725q-.047.326-.1.65M918.6 835.55q-.1.3-.2.45 0-.25.05-.5.05.05.15.05Zm-120.75 10.375-.35 7.225m-4.2 218.95-.3-.75m77.95 298.2q1.15 8.83 5.1 15.225m-59.45-71.725q24.9 7.15 54.9-4.45M815.85 1416q.006.078 0 .15" stroke="#000" stroke-width="1.5" stroke-linejoin="round" stroke-linecap="round"></path><path id="style_05_color_b_svg__d" fill="none" d="m886.65 514.25-258.7.15m-18.1-.025-85.05.025h-2.3" stroke="#FFF" stroke-width="7" stroke-linejoin="round" stroke-linecap="square"></path><path id="style_05_color_b_svg__f" fill="none" d="M0 .05 23 .2" stroke="#000" stroke-width="1.5" stroke-linejoin="round" stroke-linecap="round"></path><path id="style_05_color_b_svg__h" fill="none" d="M1.125-.5-72.55 28.85q-12.712 5.105-19.375 11.525" stroke="#000" stroke-width="1.5" stroke-linejoin="round" stroke-linecap="round"></path><path id="style_05_color_b_svg__j" fill="none" d="M1.375 5.35q2.652.083 7.25 4.375Q5.735-4.599-2.925-15.45-8.86-.448-8.55 15.325-2.03 5.249 1.375 5.35Z" stroke="#000" stroke-width="1.5" stroke-linejoin="round" stroke-linecap="round"></path><path id="style_05_color_b_svg__l" fill="none" d="m.125.05-79.3 27.6q-9.79 3.577-15.85 7.725" stroke="#000" stroke-width="1.5" stroke-linejoin="round" stroke-linecap="round"></path><path id="style_05_color_b_svg__o" stroke="#EFD16A" stroke-width="0.5" stroke-linejoin="round" stroke-linecap="round" fill="none" d="M-3.304-1.972q0 1.05-.58 1.83-.58.781-1.429.826Q-6.16.728-6.74.008q-.58-.72-.58-1.77t.58-1.83q.58-.78 1.428-.824.848-.045 1.428.675.58.72.58 1.77Z"></path><g id="style_05_color_b_svg__a"><path fill="#369CEB" d="M925.35 1463.3q2.45-.4 4.9-1 3.2-.85 6.35-1.8.4-.2.8-.3h.1l.25-.15 2.7-1.15q.25-.25.8-.55.1 0 .15-.15l2.25-1.8q1.3-1 2.05-1.9 1.6-1.95 2.55-3.8.65-5.05-1.2-10.5-.25-.4-.3-.7-1.85 4.65-6.75 8.5-2.4 1.95-5.35 3.25-1.1.55-2.3 1.1-1.85.7-3.95 1.25-1.25.35-2.7.65-1 .1-2.15.3-6.05.8-13.4.55-.3-.05-.65-.1-6.6-.45-16.4-2.3-46.53-9.14-70.2-29.65-.518-.472-1.05-.95-3.2-3-6-6.1.006.078 0 .15.206 2.735.4 5.7.15.55.4 1.15.25.7.6 1.55 1.05 2.3 3.05 4.7 2.3 2.75 7.75 6.55 4.1 2.8 8.75 5.45 16.95 9.25 41.55 17.25.25.05.55.15 14 5.1 30.7 5.5l2.5.2q6.85-.05 13.25-1.05m-53.25-143.2q-.25-5.8-.6-11.5-30 11.6-54.9 4.45.75 5.8 1.6 11.8 13.3 2.95 27.15 1.7 14.05-1.25 26.75-6.45m-235.85 156.5q1.9-3.55 2.25-6.9-8.5 9.05-57.1 4.6-20.85-2.368-32.3-9.35-4.728-2.906-7.85-6.6-1.42-1.685-2.55-3.55v-.05q-.897-.762-1.25-.65-.047.35-.1.65-.25 1.456-.4 2.75-.3 1.55 0 3.2 1.35 6.75 12.4 13.95 13.7 8.95 47.4 10.75 33.6 1.9 39.5-8.8m-73-154.45q-.6 5.85-1.25 11.85 12.15 6.15 25.85 8.25 13.95 2.2 27.6.2.71-3.485 1.35-6.95.448-2.154.85-4.3-21.065 2.604-38-2.15-8.751-2.47-16.4-6.9M614.7 514.4V514.55q.046.127.1.25-.044-.184-.1-.4M653 761.55 650.75 728l-3.25-34.25q-3.7-34.85-9.35-68.25-8.86-54.158-22.65-107.9v.05q.03.146-1.1.2-1.082.1-1.9-.05-.764-.15-.9-.4-.145-.2-.4-.7-.3-.5-.3-.95.05-.4.4-.7.35-.3.8-.25-.096-.226-.2-.45h-2.05l-85.05.05h-2.3 2.3q-2.337-3.672-4.35-3.05l-.05-.05q.74 3.992 4.3 6.45l-52.9 16.45q.068-.173.1-.35-.13.103-.3.2l4.85-33.15q-5.65 6.75-11.5 14.1-4.1 5.15-8.4 10.65-23.45 30-49.65 68.1-9.25 13.7-22.95 35.95-1.35 2.15-2.75 4.5-7.615 13.872-5.4 30.25 22.05 51.2 98.75 153.05 1.85 1.45 6.15.45-1.2-1.8-2.45-4.1 8.8-16.35 36.65-23.35 1.3 2.4 2.35 4.5 2.75-3.65 2.3-6.45L467.45 667l-8.75-20.4 8.75 20.4 53.7-54.2q10.95-10.45 22.85-22.45-.272-.5 0-1.35l26.5-25.65L544 589q-.272.85 0 1.35 7.528 20.23 17.25 43.55 41.3 86.15 44.25 112.25l.55.15L653 761.55m5.45-374.4-.2 8.1 56.05 15.35v-7.3h1.55l.35.95v48.6L609.85 489.1l.45 1.4q3.282 11.813 6.35 23.85.031.025.05.05 4.278 16.732 8.2 33.9l6.05 27.35 5.95 31q5.4 30.35 9.2 58.95l6.35 59.2 2.45 36.45-.25.8 58 18.85 89.75-33.05q.041-.248.05-.5 5.36-31.826 12.95-60.75 10.35-34 14.45-64.75 11.575-13.284 18.65-31.35 8.288-21.327 10.2-49.35.137-2.036.25-4.1.053-1.075.1-2.15-.047 1.075-.1 2.15-.113 2.064-.25 4.1-1.912 28.023-10.2 49.35-2.61 7.19-6.05 13.55 20.393 41.037 42.3 80.95 1.367-11.268 2.75-22.2-1.383 10.932-2.75 22.2-7.591 62.612-14.75 136.15.3 3.8 4.5 7 .5-3 1.25-6.45 24.1-4.25 44.15 7.9l-1.8 6.6q5.75-1.35 7.05-4.7l42.3-138.6 2.35-7.7-2.35 7.7q.501-1.144.9-2.35 5.134-14.206 2.3-22.8-2.795-8.548-4.1-12.45-37.45-98.9-50.1-130.4l2.15 7.7q1.6 3.55 5.05 12.3l-35.3-28.5 2.6-1.35q-.619-.986-1.2-2.1.027.656.05 1.3h-3.15l-258.7.15h-2.7q.005.17.05.35.05.55.15 1.55 0 .95-.65 1.3-.322.188-.65.15-.246-.015-.5-.2-.4-.3-.7-1.15l-.7-2h-.15l-.65-2.35-.15-.45q-2.602-9.576-5.2-19.2l105.2-35.9v-47.1l28.3-8.85-.25-7.9-33.5 10.35v-.05l-57.4-15.8m260 448.35q.05.05.15.05-.1.3-.2.45 0-.25.05-.5Z"></path><path fill="#FFF" d="M845.35 1326.55q-13.85 1.25-27.15-1.7 2.85 20.45 6.15 43.15.2 1.55.45 3.15-.05.4.05.85.2 1.2.3 2.3.75 9.45 1.15 18.65.1.1-10.7 22.35.131.438.25.85.006-.072 0-.15 2.8 3.1 6 6.1.532.478 1.05.95 23.67 20.51 70.2 29.65 9.8 1.85 16.4 2.3.35.05.65.1 7.35.25 13.4-.55 1.15-.2 2.15-.3 1.45-.3 2.7-.65 2.1-.55 3.95-1.25 1.2-.55 2.3-1.1 2.95-1.3 5.35-3.25 4.9-3.85 6.75-8.5-1.75-4.7-5.65-9.15-.55-.45-1.15-1.05-3.3-3.35-8.15-6.55-1.35-.95-3.55-2.25-1.4-.85-2.95-1.75-1.85-1.15-4.15-2.45-.3-.2-.6-.35-3.2-1.85-5.8-3.4-5.05-3-8.35-5-.6-.35-.95-.6-3.3-1.8-6.15-3.45-9.735-5.697-15.9-10.65-.931-.739-1.8-1.45l-.3-.3q-3.058-2.787-5.25-6.35-3.95-6.37-5.1-15.2 1.15 8.83 5.1 15.2-.886-6.612-1.05-8.25-1.1-16.6-2-37.65-.5-9.45-.9-18.75-12.7 5.2-26.75 6.45m-19.85 85.9q.006.034-.05.05.069-.19.1-.4-.008.168-.05.35m-288.25 42.2q.046.068.1.1.053-.3.1-.65-.206.1-.2.55m19.75-73.3q-.15 1.2-.3 2.3-1.95 11.35-4.2 22.35-.25 1.4-.5 2.75-.783 3.647-5.1 16.7-.29.892-.6 1.8-.949 2.995-2.3 7.05-.914 2.732-1.95 5.75-.069.276-.2.55-1.88 5.645-4.15 12.25.475 1 1 1.95 1.13 1.865 2.55 3.55 3.122 3.694 7.85 6.6 11.45 6.982 32.3 9.35 48.6 4.45 57.1-4.6.8-6.95-5-13.5-11.85-12-28.95-25.2-2.434-1.935-5-3.9-1.818-1.335-3.7-2.7 1.882 1.365 3.7 2.7.023-.06.05-.15 3.6-11.8 5.1-26.5l1.9-13.6q2.3-12 5.15-26 1.9-9.25 3.7-18.4-13.65 2-27.6-.2-13.7-2.1-25.85-8.25-2.15 20.45-4.5 43.35-.2 1.55-.35 3.15-.1.45-.15.85m68.1-868.7-.1-.9q.3-.55-.9-.8-.26-.054-.5-.1h-.15q-.076.003-.15 0-.637.014-1.05.3-.35.25-.5.45l1.35 4.8q.2.85.55 1.15.254.185.5.2.202-.011.4-.15.5-.35.5-1.3-.05-1-.1-1.55-.05-.2-.05-.35 0-.2.1-.4.25-.45.25-.65.05-.2-.15-.7m-11.05-.65q-.079-.396-.2-.8-.212-.456-.65-.25-.641.316-1.05.7-.402.446-.5 1.05-.083.66.25 1.65.104.224.2.45-.45-.05-.8.25-.35.3-.4.7 0 .45.3.95.255.5.4.7.136.25.9.4.818.15 1.9.05 1.13-.054 1.1-.2v-.05q-.014-.134-.05-.3-.087-.024-.35-.9-.205-.868-.3-1.6-.054-.123-.1-.25v-.05q-.487-1.898-.6-2.35l-.05-.15m-104.3 3.25q-.039.024-.1.05l-29.4 9.4 4.85-34q-4.25 4.95-8.65 10.2l-4.85 33.15q.17-.097.3-.2-.032.177-.1.35l52.9-16.45q-3.56-2.458-4.3-6.45-1.022.217-3.4 1.05l-.5.75q-2.998.96-6 1.9-.107.058-.25.1l-.5.15m381.2-.2-2.6 1.35 35.3 28.5q-3.45-8.75-5.05-12.3-.175-.553-.4-1.05-.133-.365-.3-.7l-26.95-19.65v3.85Z"></path><path fill="#45484A" d="M622.1 514.4h.15l-.8-2.35.65 2.35m-100.15-42.75q.1-.1.2-.1.61-.237 1.7-.35.046.005.1 0 1.928-3.424 4.55-6.3 4.554-4.885 11.2-8.1-2.917.316-5.9.95-5.65 1.3-11.55 3.85-15.8 6.85-32.55 23.85-2.25 2.55-4.6 5.25l-4.85 34 29.4-9.4h-.05l.15-.05.5-.15q.143-.042.25-.1 3.002-.94 6-1.9l.5-.75.95-1.3q-.55-.25-2.7-.25-1.7 0-2.35-.6-.5-.55-.35-1.7.05-.75.35-1.9.45-1.45.5-1.95.45-2.3-.55-3.7-.7-.7-1-1.15-.55-.6-.5-1.2.05-.55.75-1.2.95-.95 1.15-1.25.25-.3.3-.95.1-.8.2-.9.25-.8 1.75-2.5-.8-.45-1-1.35-.2-.9.25-1.7.529-1.106 2.55-2.5l.15-.1-.15-.1q-1.039-.764-.85-1.85-.7.2-1.35-.25-.6-.4-.6-1-.1-1 1.1-2.15 1.6-1.6 1.8-1.95.25-1.4.4-2 .25-.75.9-1.6.35-.45 1.2-1.45.3-.35.85-1.2.6-.65 1.2-.95m132.7 290.4-.05.2-1.55.05-.05-.75-46.95-15.25q.383.332-6.35 24.15-6.832 24.219.15 54.5 6.973 30.286 6.95 30.55-.017.598-.05 1.2-.3 11.5-.8 19.35-1.05 19.3-2.95 83.8-1.4 46.15-1.85 60.45-.2 5.65-.2 6.3-.1 2.95-.15 5.95l-.1 3.85-1.25 43.9q-.57 2.127-9.75 34.8-9.2 32.8-16.6 112.55-.4 4.15-.85 8.45l.1.05q-.05.15-1.15 9.75-.15 1.9-.4 4.2-.65 6.1-1.55 14.85-.7 6.85-1.55 15.2-1.2 10.85-2.35 22.6-1.05 9.45-2.1 19.4 7.649 4.43 16.4 6.9 16.935 4.754 38 2.15 1.311-6.525 2.6-13.05.761-3.675 1.5-7.35.95-4.75 1.8-9.5.15-.8.35-1.6l42.75-211.25-.05-.05q.11-.478.2-1 0-.45.05-.95L694.8 867.2q.35-2.6.5-5.1.25-2.75.25-5.4.05-.5.05-.9.017-2.767-.3-5.45 7.592-.25 14.7-.45-.267 7.463 2.2 15.05.75 2.1 1.3 3.65 1.1 3.05 1.3 3.7l78.2 199.05.3.75-.3-.75q-.155 6.212-.9 34.45-1.05 34.05 11.1 113.2.65 4.1 1.25 8.35l.05.1q0 .1 1.3 9.65.3 1.9.65 4.2.8 6.1 2.05 14.85.95 6.75 2.1 15 1.55 10.85 3.25 22.55 1.35 9.4 2.75 19.35 24.9 7.15 54.9-4.45-.5-10.35-1-20.75-.2-4.8-.5-9.65-.05-.85-.1-1.6l-9.65-215.2q-.269-.087-.55-.2.091-4.205-.95-8.5-.45-1.55-.95-3.1l-59.95-203.7-.35 7.25.35-7.25 4.65-97.8v-.05q-.007-.349-.05-.7-.009.252-.05.5l-89.75 33.05-58-18.85m-4.2-346.85-.7.25q1.77 6.231 3.9 11.65-1.459.31-2.95.6-6.398 1.317-12.5 2.7l-84.15 21.1q-4.83 1.396-9 3.05-.74.333-1.5.65-9.509 4.084-15.05 9.7-2.622 2.876-4.55 6.3-.666 1.187-1.25 2.45-5.467 11.812-4.75 37.4 1.609-4.83 2.1-1.9.106.627.4 2.2 2.013-.622 4.35 3.05l85.05-.05h2.05q-.333-.99-.25-1.65.098-.604.5-1.05.409-.384 1.05-.7.438-.206.65.25-2.635-10.08-5.45-20.15l-.85-3.2 106.75-36.4V410.6l-56.05-15.35-.2 5.45q0 10.6-7.6 14.5m239.9 60.85q-1.35-1.6-2.9-2.9-7.9-7.4-19-10.95-7.468-2.351-14.75-2.45-31.235-19.968-89.5-32.05-4.18-.81-8.35-1.5 1.88-4.41 2.9-9.3l-1.55-.65q-5.95-3-7.25-10.15-.35-2-.35-4.3v-1.25l-28.3 8.85v47.1l-105.2 35.9q2.598 9.624 5.2 19.2.149-.21.6-.45.554-.297 1.4-.3.074.003.15 0h.15q.31.044.65.1 1.516.25 1.1.8l.15.9q.25.5.2.7 0 .2-.35.65-.082.192-.1.4h2.7l258.7-.15h3.15q-.023-.644-.05-1.3.581 1.114 1.2 2.1v-3.85l26.95 19.65q.167.335.3.7l-7.5-20.7q-9.85-24.25-20.35-34.8Z"></path><path fill="#46484A" d="m520.4 511.3.05.05q-.294-1.573-.4-2.2-.491-2.93-2.1 1.9l-.95 1.3q2.378-.833 3.4-1.05m-10.75 4q.061-.026.1-.05l-.15.05h.05m13.05-41.65q.584-1.263 1.25-2.45-.054.005-.1 0-1.09.113-1.7.35-.1 0-.2.1-.6.3-1.2.95-.55.85-.85 1.2-.85 1-1.2 1.45-.65.85-.9 1.6-.15.6-.4 2-.2.35-1.8 1.95-1.2 1.15-1.1 2.15 0 .6.6 1 .65.45 1.35.25-.189 1.086.85 1.85l.15.1-.15.1q-2.021 1.394-2.55 2.5-.45.8-.25 1.7.2.9 1 1.35-1.5 1.7-1.75 2.5-.1.1-.2.9-.05.65-.3.95-.2.3-1.15 1.25-.7.65-.75 1.2-.05.6.5 1.2.3.45 1 1.15 1 1.4.55 3.7-.05.5-.5 1.95-.3 1.15-.35 1.9-.15 1.15.35 1.7.65.6 2.35.6 2.15 0 2.7.25-.717-25.588 4.75-37.4Z"></path><path fill="#FCD13F" d="M802.5 748.05v.05q5.3-32 13-61.1 10.3-33.9 14.35-64.6 7.177-8.239 12.6-18.35 3.44-6.36 6.05-13.55-7.075 18.066-18.65 31.35-4.1 30.75-14.45 64.75-7.59 28.924-12.95 60.75.043.351.05.7Z"></path><path d="M714.3 403.3v48.15l-106.75 36.4.85 3.2q2.815 10.07 5.45 20.15.121.404.2.8l.05.15q.113.452.6 2.35v-.1q.056.216.1.4.095.732.3 1.6.263.876.35.9.036.166.05.3 13.79 53.742 22.65 107.9 5.65 33.4 9.35 68.25l3.25 34.25 2.25 33.55.05.75 1.55-.05.05-.2.25-.8-2.45-36.45-6.35-59.2q-3.8-28.6-9.2-58.95l-5.95-31-6.05-27.35q-3.922-17.168-8.2-33.9-.019-.025-.05-.05-3.068-12.037-6.35-23.85l-.45-1.4 106.35-36.25v-48.6l-.35-.95h-1.55Z"></path><path fill="#855F48" d="M918.6 835.55q-.1 0-.15-.05-.05.25-.05.5.1-.15.2-.45Z"></path></g><g id="style_05_color_b_svg__m"><path fill="#46484A" d="M524.9 470.1q-.85-.5-1.75-.4-1.45.25-2.2 1.6-.65 1.1-.65 2.75.1 1.85.9 2.8.7.8 1.6 1 1.5.35 2.65-.5.3.25.95.8.7.35 1.2.05.5-.35.5-1.55-.1-2.2-.85-2.9-.65-.5-.75-.65-.2-.25-.3-.75-.1-.55-.2-.85-.25-.85-1.1-1.4Z"></path><path fill="#FFF" d="M889.4 511.45q-.35.25-.45.65-.15.5.05 1.55l.3 1.4q-.15.15-.15.4v.05l-.15.25q-.25.35-.2.6.1.7.85.6.45 0 .95-.6l.7-.95q.55-.65.6-.8.25-.65-.05-1.75-.4-1.05-.5-1.2-.45-.6-1.1-.55-.2 0-.15.15-.35-.05-.7.2Z"></path></g><g id="style_05_color_b_svg__n"><path fill="#202020" d="M-6.6-3.5q-.65.75-.65 1.8T-6.6.1q.65.75 1.6.75.95 0 1.6-.75.65-.75.65-1.8t-.65-1.8q-.65-.75-1.6-.75-.95 0-1.6.75Z"></path><path fill="#EFD16A" d="M2.5-1.45Q1.75-2.3.7-2.3t-1.75.85Q-1.8-.65-1.8.5t.75 2q.7.8 1.75.8t1.8-.8q.7-.85.7-2t-.7-1.95Z"></path></g></defs><g><use xlink:href="#style_05_color_b_svg__a"></use><use xlink:href="#style_05_color_b_svg__b"></use><use xlink:href="#style_05_color_b_svg__c"></use><use xlink:href="#style_05_color_b_svg__d"></use></g><g transform="matrix(1.38916 -.20732 .20732 1.38916 695.8 860.05)"><use xlink:href="#style_05_color_b_svg__e"></use><use xlink:href="#style_05_color_b_svg__f"></use></g><g transform="matrix(-1.40459 0 0 1.40459 758.8 416.95)"><use xlink:href="#style_05_color_b_svg__g"></use><use xlink:href="#style_05_color_b_svg__h"></use></g><g transform="matrix(1.40459 0 0 1.40459 809.1 518.2)"><use xlink:href="#style_05_color_b_svg__i"></use><use xlink:href="#style_05_color_b_svg__j"></use></g><g transform="matrix(1.40459 0 0 1.40459 649.9 415.25)"><use xlink:href="#style_05_color_b_svg__k"></use><use xlink:href="#style_05_color_b_svg__l"></use></g><use xlink:href="#style_05_color_b_svg__m"></use><g transform="matrix(1.47311 -.07733 0 1.65515 704.547 416.338)"><use xlink:href="#style_05_color_b_svg__n"></use><use xlink:href="#style_05_color_b_svg__o" transform="matrix(1.12042 .05234 0 1 .95 .4)"></use></g></svg>