<svg xmlns:xlink="http://www.w3.org/1999/xlink"  xmlns="http://www.w3.org/2000/svg" viewBox="0 0 1500 1500" fill="#fee8d3" id="a_face_23_outline_svg__Layer_1" x="0" y="0" xml:space="preserve"><style>.a_face_23_outline_svg__st0{fill:#fff}.a_face_23_outline_svg__st1,.a_face_23_outline_svg__st2{fill:none;stroke:#000;stroke-width:1.7322;stroke-linecap:round;stroke-linejoin:round;stroke-miterlimit:6.9287}.a_face_23_outline_svg__st2{stroke-width:2.5983}</style><g transform="matrix(1.73218 0 0 1.73169 -64.9 -64.5)"><path class="a_face_23_outline_svg__st0" d="M454.2 199.9c.6-.2 1-.4 1.2-.6l.3-.4v.1c-.9.3-1.6.5-2 .7l-1.3.7c.6-.2 1.2-.4 1.8-.5m.3-12.2c-.2-.1-.4-.2-.7-.3l-2.1-.6c-1.7-.5-2.6-.7-2.6-.8l-1.6-.6c-.2-.1-1-.2-2.2-.5l-2.1-.6c-.4-.1-.7-.1-1.1-.2-.4.2-.9.3-1.4.4-1.4 0-2.5.1-3.2.1h-.9c-.3 0-.5-.1-.6-.3-.8.4-1.6.9-2.2 1.4l-.1-.1-.1-.1-.1-.1s-.1-.1-.2-.1l-.1-.1h-.1l-.1-.1s-.1 0-.1-.1h-1c-.1 0-.1.1-.1.1-.1 0-.1 0-.2.1h-.1s-.1 0-.1.1h-.1l-.1.1h-.1c-.1 0-.1.1-.2.1h-.2c-.1 0-.1.1-.1.1-.1 0-.1.1-.2.1 0 0-.1.1-.2.1s-.1.1-.1.1c-.1 0-.1.1-.1.1-.1 0-.1.1-.1.1v.1l-.1.1c0 .1-.1.1-.1.1s-.1.1-.1.2l-.1.1s0 .1-.1.1v1s.1.1.1.2v.1c0 .1.1.1.2.1 0 .1.1.1.1.2s.1.1.1.2l.1.1v.7s0 .1.1.1v.2s0 .1.1.2v.1c0 .1.1.1.1.2s.1.1.1.1c0 .1.1.1.1.1s.1.1.1.2l.1.1s.1.1.1.2v.2c0 .1.1.1.1.1 0 .1.1.1.1.2s0 .1.1.1c0 .1.1.1.1.2V192c0 .1.1.1.1.1 0 .1.1.1.1.2.1.1.1.2.2.3.1.1.1.2.2.2.1.1.2.2.3.2l.1.1.1.1c0 .1.1.1.1.1l.1.1v.1s.1.1.1.2l.1.1.1.1c0 .1.1.1.1.1.1 0 .1.1.1.1s.1.1.2.1l.1.1c.1 0 .1.1.2.1s.1.1.2.1l.1.1c0 .1.1.1.1.1 0 .1.1.1.1.2s.1.1.1.1c.1 0 .1.1.1.1l.1.1s.1.1.2.1l.1.1c0 .1.1.1.1.1l.1.1.1.1c.1 0 .1.1.1.1s.1 0 .1.1c.1 0 .1.1.2.1s.1.1.1.1c.1 0 .1.1.2.1s.1.1.1.1c.1 0 .1.1.2.1h.2c0 .1.1.1.2.2l.1.1.1.1.1.1.1.1c0 .1.1.1.1.1l.1.1c.1 0 .1.1.1.1l.1.1c.1 0 .1.1.2.1s.1.1.1.1h.2l.1.1.1.1c.1 0 .1.1.1.1l.1.1v.1s.1 0 .1.1l.1.1.1.1.1.1c.1 0 .1.1.1.1l.1.1s.1 0 .1.1h.1l.1.1.1.1s.1 0 .1.1c.1 0 .1.1.1.1.1 0 .1 0 .1.1.1 0 .1 0 .2.1.1 0 .2 0 .3.1h.5c.1 0 .1.1.2.1 0 0 .1.1.2.1h.2s.1 0 .2.1H441.4c.1 0 .1.1.2.1 0 0 .1 0 .1.1.1 0 .2.1.4.1.1 0 .3 0 .4.1H444.3c.1 0 .1 0 .2.1 0 0 .1 0 .2.1H445l.1.1h4.5c.4 0 .7-.1 1-.3H450.9c.1 0 .1-.1.2-.1s.1-.1.2-.1.1-.1.1-.1.1-.1.1 0h.2c.1 0 .1 0 .2-.1 0 0 .1 0 .1-.1.1 0 .1 0 .2-.1.1 0 .1 0 .1-.1.1 0 .1-.1.1-.1h.2c.1 0 .1-.1.1-.1.1 0 .1-.1.2-.1 0 0 .1-.1.2-.1l.1-.1s.1 0 .1-.1c.1 0 .1 0 .2-.1h.1c.1 0 .1 0 .2-.1 0 0 .1-.1.2 0 .1 0 .1-.1.1-.1.1 0 .1 0 .1-.1.1 0 .1-.1.1-.1.1 0 .1-.1.1-.2h.1c.1 0 .1-.1.1-.1.1 0 .1-.1.1-.2.1 0 .1-.1.1-.1.1 0 .1-.1.2-.2l.1-.1s0-.1.1-.1v-.1l.1-.1.1-.1.1-.1v-.1s.1 0 .2-.1l.1-.1.1-.1c.1 0 .1-.1.1-.1l.1-.1s.1-.1.1-.2l.1-.1c0-.1.1-.1.1-.2v-.1c0-.1.1-.1.1-.1v-.2l.1-.1.1-.1s.1-.1.1-.2l.1-.1.1-.1s.1-.1.1-.2l.1-.1c.1 0 .1-.1.2-.2l.1-.1.1-.1c.1-.3.2-.6.2-1 0-.3 0-.7-.1-1 0-.1-.1-.3-.2-.4v-.3c-.3-.7-.7-1.4-1.2-2.2-.3-.1-.7-.2-1.1-.3-.7-.3-1.2-.7-1.4-1 .9 0 .8-.2.7-.3z" id="a_face_23_outline_svg__Symbol_5_0_Layer0_0_MEMBER_0_FILL"></path></g><g transform="matrix(1.69502 0 0 1.86695 -19.69 -40.343)"><path d="M435.7 162.8c0-1.1-.4-2-1.2-2.8-.7-.7-1.6-1.1-2.6-1.1-1.1 0-2 .4-2.8 1.1-.7.8-1.1 1.7-1.1 2.8 0 1 .4 1.9 1.1 2.7.8.8 1.7 1.2 2.8 1.2 1 0 1.9-.4 2.6-1.2.8-.7 1.2-1.6 1.2-2.7z" id="a_face_23_outline_svg__C_Boimler_L2_C_Boimler_L2_Pupil_CC000_0_Layer0_0_FILL" fill="#000"></path></g><g transform="matrix(1.73218 0 0 1.73169 -64.9 -64.5)"><path id="a_face_23_outline_svg__Symbol_5_0_Layer0_0_MEMBER_2_2_STROKES" class="a_face_23_outline_svg__st1" d="M453.8 183c.2.1.4.3.5.4.4.4.9.8 1.3 1.2.3.3.6.6.8.9 1.4 1.6 2.1 3.3 2.2 5.1m.1 1.8v.2c0 .1 0 .1-.1.2-.6 2.7-2.4 4.8-5.6 6.1-3.2 1.5-6.8 1.8-10.8 1.1-4-.8-7.3-2.4-9.9-4.9-.4-.5-.8-.9-1.1-1.4-1.4-1.8-2-3.7-1.8-5.7"></path></g><g transform="matrix(1.73218 0 0 1.73169 -64.9 -64.5)"><path d="M458.7 192.4c.1-.6.1-1.2 0-1.8-3.4-2.6-7.2-4.7-11.4-6.1-3.5-1.2-6.9-1.8-10.3-2h-1.2c-1.2 0-2.4 0-3.6.1H431.9c-1.1 0-2.2 0-3.2-.1-2-.1-4-.4-5.9-.7 1 1.9 2.5 3.6 4.4 4.9.7.5 1.4.9 2.2 1.3 0-.3 0-.6.1-.9 0-.4.1-.8.3-1.2 2.4-.4 4.8-.5 7.2-.4 3.5.2 7.1.8 10.7 1.8 3.9 1.2 7.6 2.9 11 5.1z" id="a_face_23_outline_svg__Symbol_5_0_Layer0_0_MEMBER_2_FILL"></path></g><g transform="matrix(1.73218 0 0 1.73169 -64.9 -64.5)"><path id="a_face_23_outline_svg__Symbol_5_0_Layer0_0_MEMBER_2_1_STROKES" class="a_face_23_outline_svg__st2" d="M458.8 190.6v1.8m-29.4-4.4c-.8-.4-1.5-.8-2.2-1.3-1.9-1.3-3.4-3-4.4-4.9 1.9.3 3.9.6 5.9.7 1 .1 2.1.1 3.2.1H432.2c1.2-.1 2.4-.2 3.6-.1h1.2c3.4.2 6.8.8 10.3 2 4.2 1.5 8 3.5 11.4 6.1m-29.3-2.6c0-.3 0-.6.1-.9 0-.4.1-.8.3-1.2 2.4-.4 4.8-.5 7.2-.4 3.5.2 7.1.8 10.7 1.8 4 1.2 7.6 2.8 11 5"></path></g><g transform="matrix(1.73218 0 0 1.73169 -64.9 -64.5)"><path class="a_face_23_outline_svg__st0" d="M486.9 200.4c.2-.1.5-.3 1-.4 1-.3 3-1.2 6-2.5l.8-.6c.5-.5.9-.8 1-.9.2-.2.4-.5.6-.9.2-.3.6-.7 1.2-1.2l.2-.2c.4-.8.7-1.6.8-2.2.1-.9.2-1.5.3-1.9 0-.1.1-.2.1-.3-.7-2.2-2.1-3.9-4.2-5.2-2.7-1.6-5.8-1.9-9.2-1.1-3.4.8-6.2 2.6-8.2 5.3-.9 1.1-1.5 2.3-2 3.4 0 0-.1 0-.1.1 0 0-.1 0-.1.1l-.1.1-.1.1-.1.1v.1l-.1.1s-.1 0-.1.1l-.1.1s-.1 0-.1.1l-.1.1v.1l-.1.1v.2s0 .1-.1.1v.6l-.1.1v.6l.1.1.1.1s0 .1.1.1l.1.1.1.1s.1 0 .1.1h.2v.1s0 .1.1.1v.2l.2.2s.1 0 .1.1c.3.9.7 1.6 1.4 2.1.1.1.2.2.3.2.2.1.5.2.8.4 2.2 1.5 5.2 2.2 9 2.2-.1-.3 0-.3.2-.4z" id="a_face_23_outline_svg__Symbol_5_0_Layer0_0_MEMBER_3_FILL"></path></g><g transform="matrix(-1.69502 0 0 1.86695 42.841 -43.72)"><path d="M-428.4 162.8c0-1.1-.4-2-1.2-2.8-.7-.7-1.6-1.1-2.6-1.1-1.1 0-2 .4-2.8 1.1-.7.8-1.1 1.7-1.1 2.8 0 1 .4 1.9 1.1 2.7.8.8 1.7 1.2 2.8 1.2 1 0 1.9-.4 2.6-1.2.8-.7 1.2-1.6 1.2-2.7z" fill="#000" id="a_face_23_outline_svg__C_Boimler_L2_C_Boimler_L2_Pupil_CC000_0_Layer0_0_FILL_00000159448536119035328110000017513624159970142089_"></path></g><g transform="matrix(1.73218 0 0 1.73169 -64.9 -64.5)"><path id="a_face_23_outline_svg__Symbol_5_0_Layer0_0_MEMBER_5_2_STROKES" class="a_face_23_outline_svg__st1" d="M473.5 192.4v.2s0 .1.1.2c.5 2.7 2 4.8 4.8 6.2 2.7 1.5 5.8 1.8 9.2 1.1 3.5-.7 6.3-2.4 8.5-4.9.4-.4.7-.9.9-1.3 1.2-1.8 1.7-3.7 1.6-5.7m-20.3-5.6c-.2.2-.5.4-.7.6-.6.4-1.1.9-1.5 1.4l-.1.1c-1.6 1.9-2.4 3.8-2.5 5.8"></path></g><g transform="matrix(1.73218 0 0 1.73169 -64.9 -64.5)"><path d="M498.5 187.2c.1.3.1.6.1.8.6-.4 1.2-.8 1.9-1.3 1.7-1.3 2.9-3 3.8-5-2.5.6-5.2.9-8 .9-.1 0-.3-.1-.4-.1-.4 0-.8-.1-1.2-.1-.5-.1-1-.1-1.5-.1h-1.1c-2.9.2-5.8.8-8.8 2-3.6 1.4-6.9 3.5-9.8 6.1v1.8c2.9-2.2 6.1-3.8 9.4-5 3.1-1.1 6.1-1.7 9.1-1.8 2.1-.1 4.2 0 6.2.3.1.6.2 1.1.3 1.5z" id="a_face_23_outline_svg__Symbol_5_0_Layer0_0_MEMBER_5_FILL"></path></g><g transform="matrix(1.73218 0 0 1.73169 -64.9 -64.5)"><path id="a_face_23_outline_svg__Symbol_5_0_Layer0_0_MEMBER_5_1_STROKES" class="a_face_23_outline_svg__st2" d="M498.6 188.1c0-.3 0-.6-.1-.8-.1-.4-.2-.9-.3-1.3-2-.3-4.1-.4-6.2-.3-3 .1-6 .7-9.1 1.8-3.4 1.2-6.5 2.8-9.4 5m25.1-4.4c.6-.4 1.2-.8 1.9-1.3 1.7-1.3 2.9-3 3.8-5-2.5.6-5.2.9-8 .9h0c-.1 0-.3-.1-.4-.1-.4 0-.8-.1-1.2-.1-.5-.1-1-.1-1.5-.1h-1.1c-2.9.2-5.8.8-8.8 2-3.6 1.4-6.9 3.5-9.8 6.1v1.8"></path></g><g transform="matrix(1.73218 0 0 1.73169 -64.9 -64.5)"><path id="a_face_23_outline_svg__Symbol_5_0_Layer0_0_MEMBER_6_1_STROKES" class="a_face_23_outline_svg__st1" d="M469.6 193.5c.3 3.6 1 7.1 2.4 10.4 1.2 3.1 2.7 5.9 4.6 8.5.4.6.7 1.1.9 1.7.2.4.3.8.4 1.2v.6c-.1.9-.6 1.7-1.5 2.5-1.1 1.1-2.4 1.9-3.9 2.4-1.1.4-2.2.6-3.3.7"></path></g><g transform="matrix(1.69502 0 0 1.86695 .923 31.782)"><path d="M444.6 162.5c0-.1.1-.2.1-.3 0-.1-.1-.2-.1-.3-.4-2.3-1.5-4-3.2-5.2-.8-.5-1.7-.8-2.8-.9-.7-.1-1.7-.1-3-.1-4.8.1-9.8 1.1-15.1 2.8l-.1.1.6.9c1 1.7 1.8 3.1 2.5 4.2 2.4 3.2 5 5.3 7.5 6.2 1.9.7 3.9.8 6 .2 2.1-.5 3.7-1.5 5-3 1.2-1.2 2-2.7 2.6-4.6z" id="a_face_23_outline_svg__Symbol_7_0_Layer4_0_FILL" style="fill: rgb(159, 68, 55);"></path></g><g transform="matrix(1.69502 0 0 1.86695 .923 31.782)"><path id="a_face_23_outline_svg__Symbol_7_0_Layer3_0_1_STROKES" d="M418.4 157.3c.6.4 1.3.8 2 1.2 3.5 1.9 7.2 3.3 11.2 4 4.4.8 8.7.8 12.9.1.4-.1.7-.1 1.1-.2" style="fill: none; stroke: rgb(0, 0, 0); stroke-width: 1.5; stroke-linecap: round; stroke-linejoin: round;"></path></g></svg>