<svg xmlns="http://www.w3.org/2000/svg" xmlns:xlink="http://www.w3.org/1999/xlink" preserveAspectRatio="none" viewBox="0 0 1500 1500" fill="#fee8d3"><defs><path d="M678.15 392.8q-.25-6.05-1.2-17.7-.13-1.625-.175-3.15-.675-47.8 8.925-52.05 10.4-4.45 21.3-3.85 10.9.75 17.65 7.65 6.05 6.2 5.85 19.8 3.131 29.818 4.05 36.225.906 6.419 1.4 18.025-7.45 4.1-15.1 9.25-8.45-3.2-23.25-8.05-15-4.95-19.45-6.15Zm221.3 420.85q-2-2.35-3.3-5.3-.1-.25-.25-.5-1.25-3.1-2.7-7.4 14.85-14.1 38.3-16.45l2.95 7.5q.75 2 1.15 3 .85 2.7 1 5.35.75 1.3 2.25 3.55 1.55 2.3 5.15 6.2 3.7 3.75 6 15 2.4 11.2 4.8 15.25 2.45 3.95 1.75 6.2-.7 2.15-2.6 2.65-1.8.55-2.3.35 2.35 8.45 2.95 16.3.7 7.75-.1 10.5-.7 2.7-4 2.05-3.4-.7-4.75-7.65.1.85.3 3.25.05.6.1 1.35.25 3.45-.55 6.85-.75 3.25-4.55 2.65-3.75-.75-4.5-5.7-.65-5-1.75-10.8 1.35 10.45 0 14.85-1.35 4.35-3.45 4.4-2.1.05-3.9-1.8-1.75-1.95-1.8-7.65-.1-5.7-2.15-14.55.8 8.05-.45 13.7-1.25 5.6-4.9 4-3.5-1.6-3.65-6.15-.05-4.65 0-8.6v-1.55q-.05-1.35-.25-2.85-.25-2.05-.7-4.3-.25-1.1-.6-2.25-1.2-4.1-2.65-7.85-1.55-3.9-2.9-6.85-1.1-2.7-2.7-5.2-.15-.3-.35-.6-1.8-2.9-3.05-7-1.25-4.2-1.65-7.75-.25-2.95-.2-6.2 0-.75.05-1.55 0-.45.05-.85m-401.7 47.3.45 4.4q1.15 12.6 5.95 21.15 7.8 11.75 12.4 13.55 4.55 1.8 6.1-1.5 1.5-3.4-2.55-7.8-4-4.4-6.65-10.4-3.1-15.7-1.4-22 1.35-4.8 7.35-1.55 1.95 1.35 3.7 3.05 1.2 1.05 2.2 2.35.05.05.15.1 6.5 8.35 10.2 8.75 4.9.65 6.25-2.05 1.3-2.75-2.4-6.1-3.6-3.4-8.85-18.9-1.25-3.4-2.4-5.05-1.2-1.65-3.8-3.9-2.55-2.3-10.75-5-.2-.1-.4-.15m.4.15q.4-1.45.7-3.2.5-3.25 1.2-8.45.25-2.55.6-5.4-7.85-5-20.1-6.55-12.6-2.25-20.55.85l-1.1 12.2q-.05.6-.2 1.35-4.85 16.2-8.5 39.1-.85 6.2 8.6 13.5l-.55-11.6m10 .45q-.45 6.8.3 16.35l2.25 6.85 5.95 12.75q3.1 3.9 6.5 3 3.3-.95 2.4-5.3l-5.6-16.85q.8-8.5 2.6-13.75m-23.85 8.1.45 4.85q.9 3.35 11.55 7.2m465.2-34.05q-4.1 0-6.4-6-2.3-6.05-4.2-9.55-1.8-3.4-2.45-3.7-3.65-1.35-6.35-2.65-2.45-1.05-4.15-2.1-1.65-1-2.65-1.9-1.15-1.05-2.15-2.85-1.9-3.35-3.2-9.3m14.7 56.85q-1.3-5.3-2.9-10.85-.4-1.3-.8-2.55-.95-3.15-2.1-6.25-.8-2.55-1.75-5.05m-3.75 19.95q-.25-1-.55-2.25-.35-1.25-.65-2.6-.85-2.8-1.85-6.4-1.1-3.6-2.45-6.9m27.75 25.3q-2.3-10.4-4.35-17.35-1.45-5.5-2.8-8.8-.6-1.55-2.4-4.75" id="style_01_outline_svg__a" stroke="#000" stroke-width="1.5" stroke-linejoin="round" stroke-linecap="round" fill="none"></path></defs><use xlink:href="#style_01_outline_svg__a"></use></svg>