<svg xmlns="http://www.w3.org/2000/svg" xmlns:xlink="http://www.w3.org/1999/xlink" preserveAspectRatio="none" viewBox="0 0 1500 1500" fill="#fee8d3"><defs><path d="M485.7 631.15q-7.15 8.2-6.8 20.85l3.35 88.2q2.05 39.65 2.8 55.4.2 4.85.35 7.45-.4.35-.85.85-1.35 1.35-1.5 1.6-.6.8-.8 2.3-.1.5-.1 1.15-1.15.85-1.55 1.55-.494.945-1.15 2.25-.669 1.366-1 2.6-.269 1.284-3 4.75-2.694 3.505-6.05 12.45-1.85 4.95-5.55 15-.8 1.8-1.1 2.7-.456 1.498-.35 2.7.118 1.255.6 3.65.482 2.445 1.05 2.3.606-.148.85 1.3.15.95.4 1.5.35.75 1.1 1.15.75.4.7.8-1.205 2.714-.85 4.8.352 2.095 1.4 4.05.8 1.5 3.45 3.65 1.4 1.1 2.25 1.1.85.05 1.6-.6.25 1.75.7 3.5.244.906.5 2.6.317 1.733-.05 3.05-.367 1.367.35 2.85.706 1.494 1.1 4.5.45 3.1 1.8 3.9 1.35.8 2.9-.05 1.25-.65 2.1-2.15 1.1-1.85 1.4-4.55.15-1.6.05-4.9l-.6-14.75q-.1-.85.15-1.25.05-.1 1.05-.95.4-.35.55-.75.15-.4 1.9-3.4t1.85-.75v.85q.413.103-.45.6.292-.094.2.8-.055 1.016.05 1.95l.25 2.35q.136 1.357-.05 3.2-.187 1.894.3 5.05.496 3.152 1.65 6.75.75 2.25 2.45 6.3 2 4.6 3.35 6.75 1.7 2.6 3.45 2.5 1.1-.05 1.95-1 .7-.85 1.05-2.1.9-3.25-.35-7.35-.35-1.35-1.15-3.55-1-2.65-1.25-3.5-1.45-4.3-1.3-7.95.1-2.05 1-5.3 1.15-4.1 1.35-5.25.066-.365.1-.7.297-.021.45-.05.8-.15.45-.9-.35-.8 1.1-4.3 2.15-5.3 5.15-5.8 4.95 3.4 6.75 4.75.196 1.401.7 6.15.562 4.797 4.15 7.35 3.588 2.603 6.9 3.65 3.304 1.049 4.55-.05.9-.75.8-2.4-.15-1.5-1.4-3.3-1.55-2-2.2-3.05-1.1-1.75-1.75-4.2-.4-1.45-.9-4.55-1-6.8-1.2-10.25-.05-2.3-.1-3.45-.1-2.05-.3-3.45-.8-5.25-5.1-12.25-1.05-1.65-2-2.25-.6-.4-.4-1.5-1.35-2.7-5.2-6.1-4-3.55-2.05-8 .05-1.15.1-2.4.5-11.55 1.2-32.3 1.5-41.85 3.9-83.65 1.25-21.4 1.95-36.05 2.05-1.95 3.6-4.55 1.45-3.05 2.8-5.9 6.9-14.4 10.8-21.7 2.25-4.1 3.45-5.85.35-.55.55-.8-5.85-4.35-14.1-9.8-2.35-1.5-5.05-3-6.85-3.65-16.3-7.05-.05-.05-.15-.1.35-.65-.4.45t-7.2 12.65q-6.5 11.55-7.75 13.55-1.15 2.1-2.55 5.25-.5 1.2-.85 2.4m385.6-14.55q-12.15 3.4-20.25 7.7-8.2 4.2-14.35 8.85.05.15.8 2.5.35 1.1.85 2.7.7 2.3 1.75 5.65l1.65 7.15q.25.75.55 1.35 4.05 11.6 9.4 22.1 29.7 54.1 42.8 80.05 13.1 25.85 14.85 29.65 3.05 6.55 5.3 11.5 1.5 3.35 5.8 12.35-2.55 4.8-2.8 8.35-.25 4.15 2.05 7.55 2.25 3.35 5.05 7.1-.45.05-.5.1-.1 0 .9.7.05-.1.1-.25.35.45.85.85-.65-.1-1.25-.1-3.8-.65-4.05 2.55-.2 3.2 1.4 6.45 1.6 3.2 2.45 5.25.8 2.05 1.75 2.85.35 1.35.9 2.4.5.95 1.2 1.3.317.099.75.15l5.05 9.25q.05.25.2 1.65.2 1.25.6 1.85.6.75 1.55 1 1.05.25 2.05-.25 1-.5 1.35-1.5.2-.5.2-1.6l.2-7.75q0-1-.1-1.5-.1-.3-.55-1.2-.604-3.052-2.8-8.05-2.14-4.945-3-7.7-.81-2.755 13.6 6.55 14.453 9.352 16.3 4.55 1.8-4.8 2.85-7.45 1.1-2.6-.55-5.95-1.7-3.4-5.6-11.85-3.95-8.5-16.9-23.95-4.35-10.25-5.9-13.75-1.95-4.55-4.3-10-1.25-2.85-2.65-6-6.75-16-18.2-43.35-6.85-16.6-12.5-31.7-10.9-32.4-17.8-48.15-2.25-5.4-3.95-8.9l-.1-.2q-1.55-4.15-3.45-9.7l-.4-1.2q-.6-1.85-1.15-3.6-1.05-3.2-2-6.35m58.05 236.8q.437.082.95.1.14.465.4 1 1.05 1.95 1.3 2.55.55 1.55.85 2.1.2.4.65 1.2l-4.15-6.95M728.5 330.5q.7-18.55-17.5-25.15-35.75-13.6-31.95 4.9 3.3 16.25 3.3 62.8.012 2.347-.05 4.7-.25 8.95-.4 9.75 11.2 4 15.55 5.7 4.3 1.7 10.65 3.9 6.3 2.2 6.9 1.75.6-.45 5.65-3.2 5.05-2.8 6.75-4.15-.05.05.25-7.7.12-2.916.4-10.75.2-35.2.45-42.55Z" id="style_03_fill_svg__a"></path><path d="M936.8 802q-.85-1.05-1.45-1.4-.7-.4-3-.4-3.05-.15-3.5-.05-1.55.3-2.65 1.55-1.05 1.3-1.15 2.85-.05.8.05 2.35-.05.75-.45 2.15-.25 1.15-.85 5.05-.7 6.3-.4 9.45.3 3 1.65 7.2.65 2.05 1.35 2.7.55.55 1.35.65.8.1 1.4-.35.6-.5.7-1.65 0-1.3.1-1.95.45.05 1-.2.35-.15 1-.45 1.05-.5 1.15-.6.75-.65.65-1.85 0-.3-.4-1.95-.55-1.9-.55-3.7 0-1.7-.85-1.85-.55.05-.85.05-1-.1-1.5 0-.55.15-1.2 1.1-.7 1-1.15 1.2-.25-1.5.1-3.75.6-3.45.6-3.75l.2-2.3q.65-2.45.95-3.7.35-1.4.5-3.2 0-.6.25-.8.25-.25.75-.15l1.6.05q.6 0 .85.15.25.1.45.4.15.2.35.5 1 1.2 2.3.95.65-.05 1.15-.55.5-.45.6-1.1.15-1-1.1-2.65Z" id="style_03_fill_svg__b"></path><path d="M930.55 821.85q-.2-.4-.2-.65-.05-.2.3-.9.3-.65.1-1.45-.2-.75-.75-1.25-1.2-1.05-2.8-.55-1.5.45-2.15 1.95-.85 1.7 0 3.2.25.45.8.9.3.3.9.8.55.6 1.55 1.85.95 1.05 1.85 1.4.4.2.65 0 .15-.15.15-.55l-.15-3.15q0-1.1-.25-1.6Z" id="style_03_fill_svg__c"></path><path d="M991.5 834.95q-1.35-2.6-4.8-5.95-2.05-2.05-3.95-3.6-2.8-2.2-8.4-5.1-2.7-1.4-4.35-1.45-1.2-.1-2.25.45-1.15.6-1.55 1.6-.7 1.8 1.15 4.9l2.3 4q.55.85.45 1.45-.05.3-.5 1.1-1.15 1.75-.4 3.85-.8-.85-2.05-1.15-1.2-.25-2.3.2-.85.4-1.3.5-.55.1-1.35-.1-.85-.3-1.3-.45-1.8-.6-2.5.5-.6.95.5 2.3.25.35.85.95.45.55.65 1.05.2.6.25 1.8.15.65.55 1.35.3.45.85 1.25 1.2 1.8 1.95 4.4.5 1.75 1 4.75l1.55 8.2q.9 5.05 2.15 7.55.65 1.3 1.6 2.05 1.1.9 2.25.75 1.15-.15 1.95-1.3.7-1 .9-2.35.05-.4.2-2.5.1-1.55.4-2.45.75 1.05 1.4 2.8.35 1 1.05 2.95 1.6 3.85 4.4 4 1.3.1 2.4-.8 1.1-.9 1.3-2.2 1.3 1.15 3.2.65 1.85-.5 2.5-2.1.2-.55.55-1.6.4-.6 1.6-1.45 1.7-1.65 1.5-5.75-.25-7.95-2.3-18.05-.85-4.55-2.1-7Z" id="style_03_fill_svg__d"></path><path d="M977.4 829.2q1.4 1.3 2.55 1.85 1.65.7 3.05.05 1.1-.5 1.55-1.75.45-1.15.15-2.4-.35-1.8-2.45-4.1-.95-1.1-4.7-4.6l-16.15-14.7q-2.55-2.25-3.55-2.8-1.8-1-1.85-1-.3-.2-1.75-1.65-1.8-2-3.6-2.45-1.15-.25-2.25.1-1.15.35-1.65 1.3-.85 1.6.3 3.5.5.95 2.55 2.65l6.95 5.5q-.85.1-1.45.95-.55.75-.5 1.7.05 1.5 1.65 3.1.9.8 2.7 2.35.5.55 1.45 1.7.85 1 1.65 1.4 1.65.7 1.75.75.25.2 1.1 1.4 1.4 2.05 3.25 2.55 1.05.3 2.1-.05 1.1-.35 1.65-1.25 2.55 3.25 5.5 5.9Z" id="style_03_fill_svg__e"></path></defs><use xlink:href="#style_03_fill_svg__a"></use><use xlink:href="#style_03_fill_svg__b" transform="translate(-6.95 5.15)"></use><use xlink:href="#style_03_fill_svg__c" transform="translate(-5.85 5.15)"></use><use xlink:href="#style_03_fill_svg__d" transform="translate(-5.85 5.15)"></use><use xlink:href="#style_03_fill_svg__e" transform="translate(-5.85 5.15)"></use></svg>