<svg xmlns="http://www.w3.org/2000/svg" xmlns:xlink="http://www.w3.org/1999/xlink" preserveAspectRatio="none" viewBox="0 0 1500 1500" fill="#fee8d3"><defs><path d="M875.55 855.1q-1.7.55-2.9.95-1.5.65-1.7.75-.95.6-1.25 1.5-.3.5-.3 2.85l.25 2.1q1.05-.75 2.8-1.35 2.2-.3 4-.5-.6-1.2-.8-2.25-.35-1.65-.1-4.05m43.05-19.7q-.1-.05-.25-.1l1.75-6.2q-19.85-12.1-43.85-7.9-.65 3.45-1.15 6.45-1.2 6.15-1.35 9.85-.05.4-.05.85 2.5-3.8 3.8-6.7-1.3 2.9-3.8 6.7-1 1.4-2.1 2.95-4.3 5.75-5.2 8.45-1 2.85-1.75 9.05-.9 6.25-.45 7.95.45 1.5 1.65 2.45.25.25.6.35-.1-2.1.4-3.25.85-1.8 2.8-3.05l-.25-2.1q0-2.35.3-2.85.3-.9 1.25-1.5.2-.1 1.7-.75 1.2-.4 2.9-.95.1-1.9.6-4.5-.5 2.6-.6 4.5-.25 2.4.1 4.05.2 1.05.8 2.25.3.85.85 1.75 1.55 3.15 1.9 3.85 3.25 6.75 2.75 13.95-.1 1.3-.45 2.85.35-1.55.45-2.85-1.45.05-2.6-.45-2.3-1-3.55-4.65-.8-4-1.45-6 .65 2 1.45 6 1.25 3.65 3.55 4.65 1.15.5 2.6.45.5-7.2-2.75-13.95-.35-.7-1.9-3.85-.55-.9-.85-1.75-1.8.2-4 .5-1.75.6-2.8 1.35-1.95 1.25-2.8 3.05-.5 1.15-.4 3.25.05 1.05.25 2.55.1 1.65 1.6 14.35.2 3.3 1.35 4.2.95.8 3.35 1.25 11.45 1.2 16.95 1.3 2.3 0 3.65-.95.3-.05.45-.2 1.3-1.2 1.7-3.85l.85-5.3-.85 5.3q-.4 2.65-1.7 3.85 3.35.35 6.35-.6 1.15-.15 1.65-.5.8-.6.95-2.5-.1-.2 0-.4.5-5.95.35-8 .15 2.05-.35 8-.1.2 0 .4l.1.05q3.6-1.05 5.05-2.2 1.1-.85 1.45-1.85.15-.6.05-1.05.05-5.2.2-7.85-.15 2.65-.2 7.85.6-.4 1.2-1 2.4-1.85 3.35-4.75.55-2.35.7-5.6 0-1.25.75-9.15.5-7.95 2.95-27.5m0 0q.15-.2.2-.45-.05 0-.1-.05 0 .25-.1.5m-440.2-22.85q-.1.1-.15.25.188.376.2.6l1.65-3.45q-.9 1.25-1.7 2.6m51.9 24.75q4.55 1.55 5.35 2.55.95 1 2.9 3.8 1.75 2.65 6.3 5.2 4.3 2.55 7.05 2 2.75-.55 4.25-1.75 1.5-1.3 1.45-3.1-.2-1.85-3.35-3.75-3.25-1.85-5.9-4.2-3.75-3.9-7.05-8.65-2.95-4.15-6.25-7.75-1.65-1.8-3.4-3.5-.4-.25-.65-.6-1.4-1.05-2.55-1.9-1.05-.75-1.95-1.45-1.1-.65-2.2-5.3l-.7-1.75h-1.65l-.7-1.75q.191.888.3 1.75-.109-.862-.3-1.75.007-.066 0-.15-.038 1.006-.1 1.9.062-.894.1-1.9-.382-1.801-1.05-3.6-.05-.35-.2-.7-1-2.5-2.6-5.95-.95-2.15-2.2-4.55-21.19 7.744-32.9 16.7h-1.7v2.1q-.152.195-.3.4h-.15l-.05.3-1.65 3.45q.012.317-.2.45 3.706 3.072 3.85 8.7v-3.4l-1.5-3.6 1.5 3.6.4.95.55 16.5q.2 5.15.95 7.85.95 2.45 2.4 4.4 1.6 2 3.65 4.5-.1-1.1-.4-3.1-.2-2.35-1.4-6.3 1.2 3.95 1.4 6.3.3 2 .4 3.1.05.2.1.35l-.05.05q1.1 11.75 2.5 13.8 1.55 2.05 6.55 4.95 3.05 1.35 5.95 3.15l-1.65-2.25q-2.35-3.55-2.75-4.95-.4-1.5-.45-2.85-.3-1.4-.45-7.55-.05-6.1-1.3-9.65 1.25 3.55 1.3 9.65.15 6.15.45 7.55.05 1.35.45 2.85.4 1.4 2.75 4.95l1.65 2.25q1.2 1.45 2.9 3.4 1.35 1.4 2.5 3.4l1.7 2.95q1.55 2.8 4.35 7.25 3.4 5.7 6.35.75 2.35-3.75 1.2-7.8-.4-1.25-1-2.45-2.95-5.45-5.95-9.4-2.15-2.8-3.65-5.7-.7-1.3-1.35-2.45-1.95-4.1-.25-11.5-.55-.85-2.3-3.1 1.75 2.25 2.3 3.1 1.35 2.7 3.2 6.85.8 2.55 2.35 5.4 1.4 3.45 3.75 7.3 2.4 3.8 7.15 7.3 4.8 3.65 7.55 5.5 2.8 1.9 3.85 1.45 1.15-.3 1.6-2.65.45-2.4-.65-5.05-1.1-2.5-3.6-4.85-2.65-2.5-3.7-3.4-1.15-1.05-1.85-1.8-.85-.9-1.4-1.8-.7-.85-1.2-2-.65-1.2-1.3-3.6-.7-2.5-1.05-4.75-.45-2.3-1.15-8.3-.6-6-.65-8.15-.2-3.5-.5-6.35 1.5.7 6 2.1m173.1-560.2q-45.05-4.8-44.4 19.75l-.55 90.3 57.4 15.8 33.5-10.3-1.05-77.55q.1-33.2-44.9-38Z" id="style_05_fill_svg__a"></path><path d="m749.35 392.65-1.05-77.55q.1-33.2-44.9-38-45.05-4.8-44.4 19.75l-.55 90.3 57.4 15.8 33.5-10.3ZM524.3 808.9q1.1 4.65 2.2 5.3.9.7 1.95 1.45 1.15.85 2.55 1.9.25.35.65.6 1.75 1.7 3.4 3.5 3.3 3.6 6.25 7.75 3.3 4.75 7.05 8.65 2.65 2.35 5.9 4.2 3.15 1.9 3.35 3.75.05 1.8-1.45 3.1-1.5 1.2-4.25 1.75t-7.05-2q-4.55-2.55-6.3-5.2-1.95-2.8-2.9-3.8-.8-1-5.35-2.55-4.5-1.4-6-2.1.3 2.85.5 6.35.05 2.15.65 8.15.7 6 1.15 8.3.35 2.25 1.05 4.75.65 2.4 1.3 3.6.5 1.15 1.2 2 .55.9 1.4 1.8.7.75 1.85 1.8 1.05.9 3.7 3.4 2.5 2.35 3.6 4.85 1.1 2.65.65 5.05-.45 2.35-1.6 2.65-1.05.45-3.85-1.45-2.75-1.85-7.55-5.5-4.75-3.5-7.15-7.3-2.35-3.85-3.75-7.3-1.55-2.85-2.35-5.4-1.85-4.15-3.2-6.85-1.7 7.4.25 11.5.65 1.15 1.35 2.45 1.5 2.9 3.65 5.7 3 3.95 5.95 9.4.6 1.2 1 2.45 1.15 4.05-1.2 7.8-2.95 4.95-6.35-.75-2.8-4.45-4.35-7.25l-1.7-2.95q-1.15-2-2.5-3.4-1.7-1.95-2.9-3.4-2.9-1.8-5.95-3.15-5-2.9-6.55-4.95-1.4-2.05-2.5-13.8l.05-.05q-.05-.15-.1-.35-2.05-2.5-3.65-4.5-1.45-1.95-2.4-4.4-.75-2.7-.95-7.85l-.55-16.5-.4-.95m0 3.425v.475m.2-15.9q11.71-8.956 32.9-16.7 1.25 2.4 2.2 4.55 1.6 3.45 2.6 5.95.15.35.2.7.668 1.799 1.05 3.6.007.084.025.175m-.1 1.725q.037-.894.075-1.9m.025.175q.166.863.275 1.725M509.6 851q1.75 2.25 2.3 3.1m-23.65-10.15q1.2 3.95 1.4 6.3.3 2 .4 3.1m8.45-4.95q1.25 3.55 1.3 9.65.15 6.15.45 7.55.05 1.35.45 2.85.4 1.4 2.75 4.95l1.65 2.25m-24.95-66-.05.3-1.65 3.475q.012.292-.2.425 3.706 3.072 3.85 8.725m-1.8-12.925q.148-.205.3-.4m-2.15 4.175q-.012-.25-.2-.625.05-.15.15-.25.8-1.35 1.7-2.6m.5 5.6 1.5 3.6m436.5 16.25q-2.45 19.55-2.95 27.5-.75 7.9-.75 9.15-.15 3.25-.7 5.6-.95 2.9-3.35 4.75-.6.6-1.2 1 .1.45-.05 1.05-.35 1-1.45 1.85-1.45 1.15-5.05 2.2l-.1-.05q-.15 1.9-.95 2.5-.5.35-1.65.5-3 .95-6.35.6-.15.15-.45.2-1.35.95-3.65.95-5.5-.1-16.95-1.3-2.4-.45-3.35-1.25-1.15-.9-1.35-4.2-1.5-12.7-1.6-14.35-.2-1.5-.25-2.55-.35-.1-.6-.35-1.2-.95-1.65-2.45-.45-1.7.45-7.95.75-6.2 1.75-9.05.9-2.7 5.2-8.45 1.1-1.55 2.1-2.95 0-.45.05-.85.15-3.7 1.35-9.85.5-3 1.15-6.45 24-4.2 43.85 7.9l-1.75 6.2m-24.3 56.75q1.3-1.2 1.7-3.85l.85-5.3m6.4 5.55q-.1-.2 0-.4.5-5.95.35-8m6.3 3.35q.05-5.2.2-7.85m-36.15-37.2q2.5-3.8 3.8-6.7m-11.05 37.9q-.1-2.1.4-3.25.85-1.8 2.8-3.05l-.25-2.1q0-2.35.3-2.85.3-.9 1.25-1.5.2-.1 1.7-.75 1.2-.4 2.9-.95.1-1.9.6-4.5m-.6 4.5q-.25 2.4.1 4.05.2 1.05.8 2.25.3.85.85 1.75 1.55 3.15 1.9 3.85 3.25 6.75 2.75 13.95-.1 1.3-.45 2.85m-5.05-22.4q-1.8.2-4 .5-1.75.6-2.8 1.35m12.3 17.7q-1.45.05-2.6-.45-2.3-1-3.55-4.65-.8-4-1.45-6" id="style_05_fill_svg__b" stroke="#000" stroke-opacity="0" stroke-width="2" stroke-linejoin="round" stroke-linecap="round" fill="none"></path></defs><g><use xlink:href="#style_05_fill_svg__a"></use><use xlink:href="#style_05_fill_svg__b"></use></g></svg>