<svg xmlns="http://www.w3.org/2000/svg" xmlns:xlink="http://www.w3.org/1999/xlink" preserveAspectRatio="none" viewBox="0 0 1500 1500" fill="#fee8d3"><defs><path d="M541.2 627.45q-4.5-3.95-9.7-7.1-5.3-3.2-6.45-3.85-1.15-.75-1.75-1-1.6-.95-3.45-1.8-5.65-2.8-12.75-5.4-.1-.05-.15-.05-.7 1.15-1.35 2.2-.9 1.4-1.6 2.55-.05 0-.05.05-6.1 10.55-8.2 14.4-1.8 3.45-2.9 5.35-4.55 7.35-6.2 19.2l-10.8 83.1q-6.7 58.3-7.25 61.85-.45 3.05-2.2 8.4h-.05l-.1.4q-.05.05-.05.15-.2.4-.3.75-.4 1.2-.55 2.3v.1q-.1.75-.1 1.4 0 .7.1 1.35v.05l-6.55 20.65q-1.35 5.65-2.55 9.8-1.3 4.1-2.7 10.95-1.3 6.55 6.5 15.45v4.9q1.95 6.15 11.3 8.2 1.05 3.1 1.65 6.25.65 3.6 2.35 7.45 1.7 3.9 2.8 4.5 1.15.5 2.2.35 1.05-.1 2.5-1.85 1.4-1.85 1.2-4.8-.2-3-.15-3.45-.1-.6-.45-2.5-.5-2-.75-3.2l-2-7.85q-.25-1.15-.45-2.6-.4-1.5.85-4.7 1.2-3.3 3.05-10.05.05 1.45.45 6.15.4 3.55 1.05 7.3.65 3.55 1.55 6.95.9 3.1 2.1 5.3 1.35 1.95 1.65 2.5 2.25 3.4 5.5 8.25 3.3 4.7 4.65 4.95 1.3.25 3.1-1.75 1.75-1.9.75-5.55-.9-3.7-2.8-6.95t-3.4-5.7q-1.05-2-1.4-3.5-.25-1.5-.4-3.45 0-2 .2-6 .25-.95.6-3.65.3-2.8.45-5.2.25-2.5 1.25-5.8.8-3.3 2.85-3.45 1.85-.15 4.35 1.55 2.4 1.55 3.5 2.6.9 1 2.5 5.45 1.65 4.4 5 6.55 3.15 1.95 5.25 2.8 1.95.7 4.45.55 2.4-.2 3.55-1.85 1.1-1.75-1.6-4.35-2.6-2.7-4.55-6-1.85-3.2-2.15-4.9-.6-1.45-1.45-4.6-.35-1.35-1.1-3.95-.6-2.6-1.45-7-.8-4.45-3.5-7.65-2.6-3.25-6.2-4.6-3.65-1.35-5.7-2.3-1.95-.95-2.6-1.25-6-3.45-7.4-6.5l-.35-.15q0-.15.05-.25l.1-1q2.15-9.05 8.6-39.65 8.25-38.95 15.35-72.9 7.1-34.05 12.75-51.25 1.7-2.6 2.3-3.95.55-1.3 1.45-3.65 2.25-4.5 3.9-7.6 2.15-4 3.3-5.7.4-.5.55-.75m330-10.55q-12.4 3.95-20.6 8.75-8.45 4.6-14.65 9.65.1.25 2 5.35.8 2.35 2 5.75l4.05 11q.35 1.05.65 1.9.2.6.4 1.1.05.2.15.45l.05.1q2.55 10.6 6.45 20.4 22.5 50.15 32.15 74.05 9.6 23.95 10.85 27.45 2.15 6 3.7 10.6v.05q.45 1.15 1.1 3l-1.15.65q-.85 6.5-.8 11.2-.05 4.65.25 9.25.25 4.65 2.7 10.35 2 5.05 4.6 8.65.2.4.5.8 2.8 3.7 4.2 8.6 1.45 4.8 1.7 7.95.3 3.1-.8 9.75-.15.35-.15.85-1.05 5.8-1 9.05 0 3.45 2.2 4.25.6.25 1.3.25 1.4 0 2.8-1.4 2.3-3.85 3.45-7.5 2.6-10.1 3.5 1.1.9 11.2 1.05 11.65.15.5 1.1 4 .9 3.45 5.1 3.6l.1-.05q1.4.45 2.9-.1.9 2.5 2.35 3.6 1.6.95 3.3.7 1.65-.35 2.35-1.65.65-1.3 1-3.55.15-2.2.6-4.45 1.85.2 2.75-2.05.75-2.2.65-4.85-.15-2.75-.15-4.7-.05-.3-.05-.65.05-.3.05-.65.2-3.8-.15-9.05v-5.9q-.05-4.2-.5-8.5-.05-.7-.2-1.35-.1-1.1-.25-2.2-.95-6.2-2.2-12.15 1.6-8.8-3.5-18.55-4.8-9.15-14.3-23.4-.3-.85-.5-1.6v-.1l-.3-.9q-.2-.6-.3-1.05-.2-.55-.4-1.05-1.35-4.15-2.95-9.2-.9-2.65-1.85-5.5-4.65-14.8-12.35-39.95-4.65-15.3-8.15-29.15-6.55-29.75-11.35-44.15-.05-.15-.05-.25l-2.6-7.6q-1.15-3.15-2-4.8-.1.05-.15.05-1-2.3-2.65-6.55-1.75-4.2-3.85-9.95-1-2.4-1.85-4.85-1.15-3.3-2.3-6.55M689.6 296.95h-.25q-11.1.1-8.85 11.05 2.45 11.95 3.65 64.1h-.5q.438 7.315.25 14.7-.25 6.35-.5 11.3l32.4 11.75h.1l.55.2q-.25-.4.25-.75.25-.15.45-.25l.1-.1q.25-.15.55-.3.05-.05.1-.05 0-.05.05-.05 1.6-1.05 2.6-1.45 1.35-.6 3.8-1.95 2.35-1.35 3.3-1.85.85-.55 1.95-.95.1-.05.25-.1.8-.35.8-.5-.1-1.35.2-8.7.183-4.569.75-20.95h-.75q.8-41.55.85-43.2.75-18.95-17.65-25.8-.2-.1-.4-.15 0-.05-.05-.05-.35-.1-.65-.2-14.9-5.65-23.1-5.75h-.25Z" id="style_02_fill_svg__a"></path></defs><use xlink:href="#style_02_fill_svg__a"></use></svg>