<svg xmlns="http://www.w3.org/2000/svg" xmlns:xlink="http://www.w3.org/1999/xlink" preserveAspectRatio="none" viewBox="0 0 1500 1500" fill="#fee8d3"><defs><path d="M465.35 811.8q-.05-.55 0-2.75-.1.75-.1 1.4 0 .7.1 1.35m.85-5.9q-.2.4-.3.75-.4 1.2-.55 2.3l.85-3.05m63.5-156.8q1.7-2.6 2.3-3.95.55-1.3 1.45-3.65-1.7 3.4-3.75 7.6m416.15 218.3q-.05 2.1.05 3.75.2-3.8-.15-9.05.1 2.65.1 5.3M882 644.75q-.1.05-.15.05.95 1.65 2.15 4.75-1.15-3.15-2-4.8m-37.35 14.55q.2.6.4 1.1.05.2.15.45-.15-.5-.25-1.1-.05-.2-.3-.45m-128.2-249.25q-.25-.4.25-.7-.4.2-.8.45l-.05.05.6.2m-32.8-37.95q.438 7.315.25 14.7-.25 6.35-.5 11.3l.5.15q.3-5.1.5-11.45.188-7.385-.25-14.7h-.5M680.5 308q1.08 5.268 1.8 10.55-.54-7.018-1.25-10.55-2.25-10.7 8.3-11.05-11.1.1-8.85 11.05m32.35-5.15q.3.2.7.3l-.5-.25q-.1-.05-.2-.05Z" id="style_02_outline_svg__a" fill="#A5795B"></path><path id="style_02_outline_svg__b" stroke="#000" stroke-width="2" stroke-linejoin="round" stroke-linecap="round" fill="none" d="M712.85 302.85q-14.8-5.65-23-5.9h-.5q-10.55.35-8.3 11.05.71 3.532 1.275 10.575.827 10.42 1.425 28.525.053 2.465.1 5 .164 9.563.3 20 .438 7.315.25 14.7-.2 6.35-.5 11.45l31.7 11.5.25.1.05-.05q.4-.25.8-.45.2-.2.45-.3l.1-.1q.25-.15.55-.3.05-.05.1-.05 0-.05.05-.05 1.1-.7 1.85-1 1.3-.6 3.75-1.95 2.4-1.35 3.3-1.85.9-.55 1.95-.95.95-.35 1.05-.55v-.05q-.1-1.35.2-8.7.186-4.637.8-21.4.05-41.3.1-42.7.7-18.8-17.4-26.25-.4-.1-.7-.3.1 0 .2.05l.5.25M683.4 398.1l.5.15m31.7 11.5q0 .15.1.3.05-.1.15-.2l.6.2m128.2 249.25q-.3-.85-.65-1.9l-4.05-11q-1.2-3.4-2-5.75-1.9-5.1-2-5.35 6.2-5.05 14.65-9.65 8.2-4.8 20.6-8.75 1.15 3.25 2.3 6.55.85 2.45 1.85 4.85 2.1 5.75 3.85 9.95 1.65 4.25 2.65 6.55m.15-.05q.85 1.65 2 4.8l2.6 7.6q0 .1.05.25 4.8 14.4 11.35 44.15 3.5 13.85 8.15 29.15 7.7 25.15 12.35 39.95.95 2.85 1.85 5.5 1.6 5.05 2.95 9.2.2.5.4 1.05.25.85.6 2.05.2.75.5 1.6 9.5 14.25 14.3 23.4 5.1 9.75 3.5 18.55 1.25 5.95 2.2 12.15.15 1.1.25 2.2.15.65.2 1.35.45 4.3.5 8.5v5.9q.35 5.25.15 9.05 0 .35-.05.65 0 .35.05.65 0 1.95.15 4.7.1 2.65-.65 4.85-.9 2.25-2.75 2.05-.45 2.25-.6 4.45-.35 2.25-1 3.55-.7 1.3-2.35 1.65-1.7.25-3.3-.7-1.45-1.1-2.35-3.6-1.5.55-2.9.1-.65-.15-1.2-.5-2.3-1.2-3.55-4.1-1.4-3-2.1-11.55-.7-8.4-2.9-17.2 0 3.95-.35 9.25-.2 1.85-.75 3.8-1.15 3.65-3.45 7.5-1.4 1.4-2.8 1.4-.7 0-1.3-.25-2.2-.8-2.2-4.25-.05-3.25 1-9.05 0-.5.15-.85 1.1-6.65.8-9.75-.25-3.15-1.7-7.95-1.4-4.9-4.2-8.6-.3-.4-.5-.8-2.6-3.6-4.6-8.65-2.45-5.7-2.7-10.35-.3-4.6-.25-9.25-.05-4.7.8-11.2.35-2.8.05-3.65v-.05q-1.55-4.6-3.7-10.6-1.25-3.5-10.85-27.45-9.65-23.9-32.15-74.05-3.9-9.8-6.45-20.4l-.05-.1q-.1-.25-.15-.45-.2-.5-.4-1.1.25.25.3.45.1.6.25 1.1m36.65-16.05q.95 1.65 2.15 4.75m-350.55-8.05q2.25-4.5 3.9-7.6 2.15-4 3.3-5.7.4-.5.55-.75-4.5-3.95-9.7-7.1-5.3-3.2-6.45-3.85-1.15-.75-1.75-1-1.6-.95-3.45-1.8-5.65-2.8-12.75-5.4-.1-.05-.15-.05-.7 1.15-1.35 2.2-.9 1.4-1.6 2.55-.05 0-.05.05-6.1 10.55-8.2 14.4-1.8 3.45-2.9 5.35-4.55 7.35-6.2 19.2l-10.8 83.1q-6.7 58.3-7.25 61.85-.45 3.05-2.2 8.4m63.3-156.25q1.7-2.6 2.3-3.95.55-1.3 1.45-3.65-1.7 3.4-3.75 7.6-5.65 17.2-12.75 51.25-7.1 33.95-15.35 72.9-6.45 30.6-8.6 39.65l-.1 1m.3.4q1.4 3.05 7.4 6.5.65.3 2.6 1.25 2.05.95 5.7 2.3 3.6 1.35 6.2 4.6 2.7 3.2 3.5 7.65.85 4.4 1.45 7 .75 2.6 1.1 3.95.85 3.15 1.45 4.6.3 1.7 2.15 4.9 1.95 3.3 4.55 6 2.7 2.6 1.6 4.35-1.15 1.65-3.55 1.85-2.5.15-4.45-.55-2.1-.85-5.25-2.8-3.35-2.15-5-6.55-1.6-4.45-2.5-5.45-1.1-1.05-3.5-2.6-2.5-1.7-4.35-1.55-2.05.15-2.85 3.45-1 3.3-1.25 5.8-.15 2.4-.45 5.2-.35 2.7-.6 3.65-.2 4-.2 6 .15 1.95.4 3.45.35 1.5 1.4 3.5 1.5 2.45 3.4 5.7t2.8 6.95q1 3.65-.75 5.55-1.8 2-3.1 1.75-1.35-.25-4.65-4.95-3.25-4.85-5.5-8.25-.3-.55-1.65-2.5-1.2-2.2-2.1-5.3-.9-3.4-1.55-6.95-.65-3.75-1.05-7.3-.4-4.7-.45-6.15-1.85 6.75-3.05 10.05-1.25 3.2-.85 4.7.2 1.45.45 2.6l2 7.85q.25 1.2.75 3.2.35 1.9.45 2.5-.05.45.15 3.45.2 2.95-1.2 4.8-1.45 1.75-2.5 1.85-1.05.15-2.2-.35-1.1-.6-2.8-4.5-1.7-3.85-2.35-7.45-.6-3.15-1.65-6.25-9.35-2.05-11.3-8.2v-4.9q-7.8-8.9-6.5-15.45 1.4-6.85 2.7-10.95 1.2-4.15 2.55-9.8l6.55-20.65v-.05q-.1-.65-.1-1.35 0-.65.1-1.4v-.1q.15-1.1.55-2.3.1-.35.3-.75l-.85 3.05m0 .1q-.05 2.2 0 2.75m18.75 42.85.05 4.7m-13.65-3.1q-.95 6.8-1.2 9.7-.2 1.25-.25 2.05.15 3.75.5 6.9.05 1.15.3 2.35.45 1.7 1.2 3.85l.3.7m-11-26.45-.3 13.35m450.8-61.7q-1.35 7.7.35 12.95v.1q.15.4.3.85 2.15 5.5 4.8 7.85 2.55 2.35 5.2 4.15 2.7 1.8 3.9 3.5 3 4.8 1.9 13.7-.1.7-.15 1.3-.6 8.55-.05 11.4.5 2.95 3.05 4.8.8.5 2.5.7 1.7.1 3.05-1.8.05-.15.15-.25 1.25-1.8 1.25-4.35l.8-5.5q.35-3.6 1.2-6.8.1-.75.3-1.35.55-2.9 1.1-6.2.25-1.55.6-3.25.5-3.05 1.5-6.8m-43.1-35.5q-.65-1.85-1.1-3m47.5 77.65q-.1-1.65-.05-3.75 0-2.65-.1-5.3m-9.9 4.15q.65 4.5 1.1 7.7.6 3.35.9 5.2.6 3.2 2 4.4l.2.1q1.45 1.1 2.6.4m-12.5-16.45q.7 9.45 1.45 15.1.15 1.8.35 3.35.3 1.5.85 2.6.15.4.25.75m-9.45-50.6q1.8 5.05 3.55 12.6m-10.9-10.35q1.95 6.4 4.15 15.1"></path></defs><g><use xlink:href="#style_02_outline_svg__a"></use><use xlink:href="#style_02_outline_svg__b"></use></g></svg>