<svg xmlns="http://www.w3.org/2000/svg" xmlns:xlink="http://www.w3.org/1999/xlink" preserveAspectRatio="none" viewBox="0 0 1500 1500" fill="#fee8d3"><defs><path d="M900.9 837.45q-.45.85-.3 1.7 0 .5 1 2.3l1.15 1.5q.45-1 1.5-2.3 1.6-1.2 2.85-2.15-.95-.65-1.6-1.35-1-1.1-1.8-3.05-1.1 1.15-1.85 2.05-.85 1.1-.95 1.3m40.45-7.7-3.5-7.35q-2.65-5.45-12.05-28.15l-3.25-7.9q-15.65-.35-28.2 10.1.8 2.25 1.5 4.15l.7 2q-5.45 16.1-4.15 22.55 1.35 6.45 1.85 8.9.5 2.6 2.65 7.7 2.1 5.2 3.15 6.3 1.05.95 2.35 1.15.4.1.7.05-1-1.65-1.15-2.7-.15-1.75.8-3.6l-1.15-1.5q-1-1.8-1-2.3-.15-.85.3-1.7.1-.2.95-1.3.75-.9 1.85-2.05-.8-1.5-1.55-3.7.75 2.2 1.55 3.7.8 1.95 1.8 3.05.65.7 1.6 1.35.7.6 1.45 1.05 2.6 1.7 3.2 2.1 5.45 3.7 8.3 9.4.45 1.1.85 2.45-.4-1.35-.85-2.45-1.15.75-2.25.85-2.2.25-4.75-2.05-2.4-2.65-3.8-3.9 1.4 1.25 3.8 3.9 2.55 2.3 4.75 2.05 1.1-.1 2.25-.85-2.85-5.7-8.3-9.4-.6-.4-3.2-2.1-.75-.45-1.45-1.05-1.25.95-2.85 2.15-1.05 1.3-1.5 2.3-.95 1.85-.8 3.6.15 1.05 1.15 2.7.45.75 1.3 1.8.8 1.2 7.55 10.3 1.65 2.45 2.9 2.65 1.1.2 3.1-.55 9.35-4.15 13.55-6.55 1.8-.95 2.4-2.25.15-.25.25-.4.5-1.55-.4-3.7l-1.65-4.4 1.65 4.4q.9 2.15.4 3.7 2.75-1.25 4.65-3.2.85-.7 1.05-1.2.3-.8-.35-2.35-.2-.05-.2-.25-2.25-4.8-3.3-6.35 1.05 1.55 3.3 6.35 0 .2.2.25h.1q2.25-2.35 2.85-3.85.45-1.15.3-2.05-.1-.55-.4-.85-2.3-4.05-3.35-6.15 1.05 2.1 3.35 6.15.25-.6.5-1.3.95-2.45.4-5.15-.6-2.05-1.9-4.55M527.8 833.4q-.4-.3-.55-.65-1.1-1-2-1.95-.85-.85-1.55-1.45-1.75-1.6-10.15-14.1.15-.55.25-1.15.05-.2.05-.45.25-1.7.5-4.2.15-1.5.2-3.3-17.75-5.55-28.1.55l-3.8 37.15q-.45 4.55-.1 7.05.5 2.2 1.55 4.15 1.1 1.95 2.7 4.4.05-.95.05-2.75.1-2.15-.55-5.7.65 3.55.55 5.7 0 1.8-.05 2.75V859.85q-.4 10.5.55 12.45 1.05 1.95 5.15 5.1 2.55 1.6 4.9 3.55-1.2-2.2-1.1-2.15-1.7-3.45-1.95-4.7-.15-1.4 0-2.65-.1-1.2.5-6.65.65-5.4.05-8.7.6 3.3-.05 8.7-.6 5.45-.5 6.65-.15 1.25 0 2.65.25 1.25 1.95 4.7-.1-.05 1.1 2.15.85 1.45 2.15 3.35 1 1.4 1.8 3.35l1.15 2.8q1.05 2.65 2.9 7 2.35 5.3 5.6 1.35 2.5-3.05 2-6.8l-.6-2.2q-2-5.2-4.1-9.1-1.6-2.7-2.6-5.4-.5-1.25-.85-2.3-1.25-3.9 1.2-10.25-.5-.85-1.65-3 1.15 2.15 1.65 3 .8 2.5 1.85 6.5.55 2.3 1.5 5.05.8 3.15 2.45 6.8 1.65 3.6 5.45 7.4 3.8 3.75 6.05 5.7 2.2 2 3.15 1.8 1.05-.15 1.75-2.2.65-2.05.05-4.5-.65-2.35-2.6-4.75-2.1-2.55-2.85-3.45-.9-1.05-1.4-1.8-.65-.85-1.1-1.7-.4-.9-.75-1.95-.45-1.15-.75-3.4-.35-2.3-.35-4.2-.1-2.15 0-7.5.2-5.45.35-7.3.3-3.1.35-5.7 1.3.85 5.05 2.65 3.85 1.85 4.5 2.85.6 1 2.05 3.65 1.25 2.6 4.95 5.4 3.5 2.75 5.95 2.55 2.5-.1 3.95-.95 1.5-1.05 1.65-2.55.05-1.7-2.5-3.75-2.65-2.05-4.7-4.45-2.75-3.85-5.15-8.45-3.15-6.05-7.15-11.1m154.1-530.5q-3.15 5.15-3 13.95l.8 80.15q19.75 6.062 39.5 9.45l14.05-4.7-.75-66q.1-23-12-32.85-6.05-4.9-14.9-6.55-17.85-3.25-23.7 6.55Z" id="style_09_fill_svg__a"></path><path id="style_09_fill_svg__b" stroke="#000" stroke-opacity="0" stroke-width="2" stroke-linejoin="round" stroke-linecap="round" fill="none" d="m733.25 401.75-.75-66q.1-23-12-32.85-6.05-4.9-14.9-6.55-17.85-3.25-23.7 6.55-3.15 5.15-3 13.95l.8 80.15q19.75 6.062 39.5 9.45l14.05-4.7ZM486.8 859.45q-1.6-2.45-2.7-4.4-1.05-1.95-1.55-4.15-.35-2.5.1-7.05l3.8-37.15q10.35-6.1 28.1-.55-.05 1.8-.2 3.3-.25 2.5-.5 4.2 0 .25-.05.45-.1.6-.25 1.15 8.4 12.5 10.15 14.1.7.6 1.55 1.45.9.95 2 1.95.15.35.55.65 4 5.05 7.15 11.1 2.4 4.6 5.15 8.45 2.05 2.4 4.7 4.45 2.55 2.05 2.5 3.75-.15 1.5-1.65 2.55-1.45.85-3.95.95-2.45.2-5.95-2.55-3.7-2.8-4.95-5.4-1.45-2.65-2.05-3.65-.65-1-4.5-2.85-3.75-1.8-5.05-2.65-.05 2.6-.35 5.7-.15 1.85-.35 7.3-.1 5.35 0 7.5 0 1.9.35 4.2.3 2.25.75 3.4.35 1.05.75 1.95.45.85 1.1 1.7.5.75 1.4 1.8.75.9 2.85 3.45 1.95 2.4 2.6 4.75.6 2.45-.05 4.5-.7 2.05-1.75 2.2-.95.2-3.15-1.8-2.25-1.95-6.05-5.7-3.8-3.8-5.45-7.4-1.65-3.65-2.45-6.8-.95-2.75-1.5-5.05-1.05-4-1.85-6.5-2.45 6.35-1.2 10.25.35 1.05.85 2.3 1 2.7 2.6 5.4 2.1 3.9 4.1 9.1l.6 2.2q.5 3.75-2 6.8-3.25 3.95-5.6-1.35-1.85-4.35-2.9-7l-1.15-2.8q-.8-1.95-1.8-3.35-1.3-1.9-2.15-3.35-2.35-1.95-4.9-3.55-4.1-3.15-5.15-5.1-.95-1.95-.55-12.45V859.45q.05-.95.05-2.75.1-2.15-.55-5.7m18.1 8.75q1.15 2.15 1.65 3m-11.15-6.65q.6 3.3-.05 8.7-.6 5.45-.5 6.65-.15 1.25 0 2.65.25 1.25 1.95 4.7-.1-.05 1.1 2.15m444.95-40.2q.25-.6.5-1.3.95-2.45.4-5.15-.6-2.05-1.9-4.55l-3.5-7.35q-2.65-5.45-12.05-28.15l-3.25-7.9q-15.65-.35-28.2 10.1.8 2.25 1.5 4.15l.7 2q-5.45 16.1-4.15 22.55 1.35 6.45 1.85 8.9.5 2.6 2.65 7.7 2.1 5.2 3.15 6.3 1.05.95 2.35 1.15.4.1.7.05-1-1.65-1.15-2.7-.15-1.75.8-3.6l-1.15-1.5q-1-1.8-1-2.3-.15-.85.3-1.7.1-.2.95-1.3.75-.9 1.85-2.05-.8-1.5-1.55-3.7m40.2 10.35q-2.3-4.05-3.35-6.15m-35.3-.5q.8 1.95 1.8 3.05.65.7 1.6 1.35.7.6 1.45 1.05 2.6 1.7 3.2 2.1 5.45 3.7 8.3 9.4.45 1.1.85 2.45m-13.8-15q-1.25.95-2.85 2.15-1.05 1.3-1.5 2.3m17.3 8.1q-1.15.75-2.25.85-2.2.25-4.75-2.05-2.4-2.65-3.8-3.9m-6.15 3.3q.45.75 1.3 1.8.8 1.2 7.55 10.3 1.65 2.45 2.9 2.65 1.1.2 3.1-.55 9.35-4.15 13.55-6.55 1.8-.95 2.4-2.25.15-.25.25-.4.5-1.55-.4-3.7l-1.65-4.4m7.4 1.35h.1q2.25-2.35 2.85-3.85.45-1.15.3-2.05-.1-.55-.4-.85m-2.85 6.75q-.2-.05-.2-.25-2.25-4.8-3.3-6.35m-1.85 13.35q2.75-1.25 4.65-3.2.85-.7 1.05-1.2.3-.8-.35-2.35"></path></defs><g><use xlink:href="#style_09_fill_svg__a"></use><use xlink:href="#style_09_fill_svg__b"></use></g></svg>