<svg xmlns="http://www.w3.org/2000/svg" xmlns:xlink="http://www.w3.org/1999/xlink" preserveAspectRatio="none" viewBox="0 0 1500 1500" fill="#fee8d3"><defs><g id="style_08_fill_svg__a"><path d="M742 292.35q-4.85-1.05-7.25-1.6-11.35-2.95-17.05-4.25-9.222-2.075-16.15-2.15-56.872-14.262-55.8 7.5 1.25 24.25 2.35 31.55 1.05 7.25 1.7 13.25.25 2.6 1.1 13.35 1.055.844 2.1 1.65.026.22.05.45l2 14.95h-.4q1.038 9.94 2.95 29.95 30.062 9.786 38.8 11.9 8.792 2.11 19.05 5.6 10.299 3.5 15.85-.7 5.61-4.16 8.9-3.95 3.327.216 17.4-5.55 2.25-30.15 2-35.95-.015-.313-.05-.65.086-.272.15-.55l.55-2.75q.2-1.3.15-3.95 0-2.65.15-3.95.25-1.35.3-2 .15-1.1 0-1.95-.127-.656-.45-1.2.78-.667 1.55-1.35-.15-6.05-.05-18.25.05-5.8.1-13 .025-2.108-.3-4.1.273-.188.45-.4 1.05-1.3 1.05-4.4l.05-4.1q.1-3.65-1.2-5.05-.6-.7-1.75-1.2-1.35-.5-2.05-.8l-3.15-1.65q-2.95-1.55-5.95-2.65-2.95-1.05-7.15-2.05M454.75 835.4q0-.7.05-1.4-.1-.05-.2-.2-1.4-1.95-1.15-.85.2 1.1.9 2.05l.4.4m-21.5-156.15q-8.6-7.3-16.75-13.45-8.2-6.2-12.2-8.75-2.85 2.65-2.95 2.85-.1.2-6.75 9.9-6.7 9.65-9.75 13.5-3.5 4.6-5.25 6.4-1.7 2-3.6 5.15-1.8 3.3-2.45 7.05-.7 3.7-.4 6.5 0 .15.1.9.1.7.85 3.85.75 3.1 5.15 8.75t10.3 12.1l30.5 46.6q8.478 13.238 21.5 29.8 4.95 5.65 8.5 9.65l5.05 6.75 50 2.25q5.4 1.2 8.85 2.8-1.9-1.35-3.45-3.3-3-3.8-3.75-5.35-.8-1.6-1.25-2-2.3-4.65-4.15-9 .2.35.4.65h.25q-.05-.05-.05-.1-.216-.395-.75-1.45-7.734-16.16-9.45-19.25-1.686-3.053-6.95-15-5.203-11.937-10.8-24.05-5.554-12.064-10.35-22.65-4.798-10.545-5.05-11l-3.1-6.05q-.55-.7-.95-1.05-.2-.15-.35-.3.25-.75.95-1.65l.1-.1q.35-.55.85-1.1 2.1-2.4 4.35-3.3-18.6-19.3-27.2-26.55m532.2 18.05q-9.25 4.25-19.9 11.2-10.65 6.95-29.5 21.45 5.2 7 7.95 10.55 1.15 4.2-.9 9.7-1.55 4.1-6.55 13.9-5.05 9.8-10.15 20.65-5.15 10.8-6.85 13.75-12.75 22.15-16.8 26.85-4.05 4.65-4.35 5.35-.05 0-.05.05l2.3.2q.75-.1 1.05.05l40.5 17.8v7.55q.25-.55.45-1.1.25-.95.55-1.8 1.3-4.1 2.7-5.95 1.65-2.35 33.2-38.05l33.95-40.95q6.05-8.05 7.1-10.15 1.05-2.15 1.25-2.85.15-.7.4-1.2.2-.55.45-2.85.2-2.3-.05-5.25-.3-3-.95-5.45-.65-2.5-2.05-6.45-1.4-3.9-3.6-8.45-2.2-4.6-7.75-16.15-5.55-11.55-6.1-13.7-.6-2.2-2.6-5.35-4.45 2.4-13.7 6.65Z"></path><path fill="#A5795B" d="M371.45 709.5q-.35-.1-.7-.15.55.85.95 1.2.2-.8-.25-1.05m.4 1.2.05.05q.8.5.95-1.05h-.1q-.15-.05-.3-.05-.25.4-.6 1.05Z"></path><path d="M515.9 832.85q-.9-.55-1.95-1-3.45-1.6-8.85-2.8l-50-2.25q-.25 3.55-.3 7.2-.05.7-.05 1.4v.45q-.4 17.4 1.65 37.4.75 6.8 13.7 12.35l1.9 5.05q2 3.4 15.05 5l10.5 12.1q4.8 3.45 8.3 1.7 3.6-1.75 1.3-6.3L495.9 886.4q-1.7-9.1-1.2-15.15 5.15 13.25 13.05 21.35 12.25 10.45 17.9 11.25 5.9.9 6.6-2.8.6-4.15-5.2-7.95-5.75-3.7-10.45-9.45-8.25-16.05-8.05-23.15.1-5.5 7.85-3.4 2.7.95 5.15 2.35 1.6.9 3.2 1.95l.15.15q9.85 7.25 14.25 6.85 5.7-.5 6.45-3.6.7-3.35-4.4-5.8-5.1-2.95-15.65-18.1-2.35-3.45-4.15-4.85-1.3-1.2-3.55-2.3-.85-.5-1.95-.9m406.3 23.5v-7.55L881.7 831q-.3-.15-1.05-.05l-2.3-.2h-.05q-5.15 4-8.05 7.5-3 3.5-4.55 6.95-1.2 2.75-1.5 8.25-.05.65-.1 1.35-.05 6.45-1.65 9.4-1.6 2.8-2 3.95-.55 1 0 2.05.35 1.2 2.55 1.65 2.35.4 4.75-.25 6-1.85 7.35-7.85.9-4.1 1.7-6.45.25-.8.5-1.4.05-.25.15-.45.95-2.35 1.1 1.7.15 1.05.25 2.05.2 1.6.35 3.1.3 3.2.4 6.05.65 8.35-.7 14.95-.45 2.7-1.55 8.3-.6 4.6.3 8 .25 1.65 1.85 2.95 1.45 1.5 3.15 1 1.95-.45 2.6-2.7 5.45-11.25 6.5-23.6.75 8.75-1 16.75-1.7 7.85-1.85 12.1-.05 4.1 1.6 6.6 1.7 2.3 4.7 2.25 3-.2 3.55-3.7.75 0 1.45-.35 1.25-.55 2.15-1.45.65-.95 2.15-4.05.95-2.95 4.4-7.25 2.3-1 6.15-2.25 2.8-1 4.7-1.95 2.3-1.2 3.2-2.35 1.55-2 1.8-3.95.1-1.8-.4-7.4l-2.1-23.9Z"></path></g></defs><use xlink:href="#style_08_fill_svg__a"></use></svg>