<svg xmlns="http://www.w3.org/2000/svg" xmlns:xlink="http://www.w3.org/1999/xlink" preserveAspectRatio="none" viewBox="0 0 1500 1500" fill="#7f91bf"><defs><path fill="#414448" d="M28.85-1.6Q6.186-1.362-.2.3l29.05-1.9m0 0h.05l4.35-1.2q8.363-18.14-9.5-25-21.831-7.632-34.3 3.55Q-31.537.729-.4.35L-.2.3q6.386-1.662 29.05-1.9Z" id="style_07_color_b_svg__f"></path><path fill="#C7D4C9" d="M1.45 5.85q2.45-.2 7.45 5.05Q7.05-4.9-.25-15-7.4-1.3-8.9 15q6.85-8.5 10.35-9.15Z" id="style_07_color_b_svg__i"></path><path id="style_07_color_b_svg__b" fill="none" d="M674.2 158.35q.25 1.45.45 3m15.95 26.6q.05.05.1.15m-20.65 323.2q6.1.4 8.75-2.5m-67.45-30.05q-.1 3 3.55 6.8m-33.65 6.35-.8.3v2.65q0 6.55-.4 12.75-.15.8-.15 1.65l-.25 1.95m.9 270.75q.4 6.75-.95 13.1l-7.15 98.5-.15 2.4q-.6 8.2-1.05 16.75-.25 5.45-.5 11.05-.3 6.15-.5 12.55-.45 15.15-.5 31.2v.9q.05 1.075.125 2.125l.175 2.075 1.95 10.8 1.4 4.25q.25.6.55 1.25.3.7.65 1.35l1.15 2q1.35 2.25 3.1 4.05l2.85 2.5q1.25.9 2.7 1.6l42.45 19.7.85.4q15.2 8.3 18.75 18.65.35 1 .65 1.95 2.65 9.1-.85 15.9-.55 1.15-1.45 2.2l-2.05 1.9q-4.15 3.25-12.25 5.3l-5.6 1.2q-.45.1-.9.15-18.5 3.1-55.65-1.85-3.55-.5-7.15-1.1l-54.25-13.6q-5.65-1.8-11.4-3.85l-1.7-.6q-10.65-2.8-12.5-7.55-.4-1.45-.65-3-.95-4.85-1.05-11.05h.05m.15 0q-.1-.8-.1-1.65v-4.75l.25-31.95q.45-17.55-.8-32.8l-.85-15.05q-.2-2.55-.35-5.1-.35-6.1-.65-12.25-1.1-20.95-1.75-42.35-1.6-49.15 6.7-93.5m-109.45 46.1q-.15 1.6-.25 3.2l-.2 3.2-.85 14.45m-6.25 81.15-.3 3.4M362.65 986l-.05 1.95v.5q.043.875.1 1.725l.2 2.225 1.95 9.6 2.05 5 .8 1.5q4.85 8.25 12.85 16.05m1.1.9q-.55-.45-1.1-.85m-112.45 28.35q.15-.3.2-.55.15.25.3.45m1.2-11.5q-1.9 6.65-.05 10.7m2.95-36.7q-.15 2.7-.4 4.85m-.6-82.25-.1-4.15m-1.35-27 .1 1.1m10.15-282.05q-1.9-8.85-2.9-16m-108.05-126.4q2.3.7 5.75-1.1M32.4 397.2q-4.5-2.25-8.8-5.45-1.7-1.25-3.25-2.55-1.15-.8-1.8-1.3-.65-.5-1.1-.9M673.9 157.15q.15.5.3 1.2M508.1 61.3q15.2 5.55 34.35 11.05m-35.35-11.5q-.15-.05-.25-.1-6.15-2.45-10.5-4.9-1.6-.85-2.9-1.75m-5.5 123.25-.2-.85M507.1 60.85q.1.05.25.1l.05.05h.05q.1.05.25.1l.4.2M346.55 1q72 22.05 97.1 28.1 16.1-4.5 38.4-14.65M310.4 55.35q.55-.25 1.05-.5-.55.2-1.1.45m.05.05q-.55.25-1.15.5l-.525.225-.175.075M151.5 135.1q1.95-2.25.85-1.9m-1.05 2.35q-1.4 3.2-2.5 6.7l-2.9 20.9M312 54.6l-.55.25m-1.1.45q-.55.3-1.15.55-.225.112-.475.225M144.55 143.1h-.025q-.08.06-.125.15m-6.7 7.65q.1-.15.2-.25l.1-.1q.25-.3.5-.55M13.15 312.6l.75-1.05m219.25-87.8.05 2.6m49.4 50.05q12.2 15.35 24.85 21.3M271.7 492.45l.1 3.3m301.6 96.85q-.95 10.85-1.95 21.5-.15 1.4-.3 2.75m-93.8 304.75q.05 0 .05.05.6.15 1.25.35l3.65 1.05 30.65 6q1.8.2 3.6.35l11.45.35q22.95-.4 42.7-6.05.6-14.35 1.55-27.8l.2-2.35m-1.75 30.15v.1q-.25 6.1-.5 12.45v.1m-.325 34.175q-.121-1.215-.175-2.475v-.6q.05-16 .5-31.1m-204.95-2.45v-.15q-20.25 8.75-43.3 10l-7.8.15q-2.2 0-4.35-.05l-3.3-.15q-9.45-.7-13.1-1.2-9.8-1.3-18.9-3.85-1.4-.4-2.75-.8m90.9 48.15q-.127 1.184-.075 2.375 0-.223.025-.425m.1 2.225q-.063-.681-.1-1.375-.025-.222-.025-.425M371.55 852.7q-2.55 40.55-6.3 81.05m15.15 90.9q.6.4 1.25.8m265.4 15.6q-.25-.95-.65-1.9-3.55-10.4-18.75-18.65l-.8-.4m20.25 21.15q2.5 9-.95 15.8-.55 1.1-1.35 2.15m2.3-17.95q-.05-.1-.05-.2m-85.85 23.75q3.6.5 7.1 1 37.15 5 55.6 1.95.5-.1 1-.15m-352.15-98.95.1 3.2q.05 1.85.05 3.7m-4.3 77.3-.5.1m312.1-266.5-.6 8.6" stroke="#000" stroke-width="1.5" stroke-linejoin="round" stroke-linecap="round"></path><path id="style_07_color_b_svg__c" fill="none" d="m674.5 161.3 16.1 26.65m.1.15 71 117.55q11.95 18.15 8.35 39.95-.55 3.4-1.45 6.65m-.25.75q-2.95 9.9-9.15 17.8-1.5 1.9-3.2 3.75L678.8 508.8m-67.45-30.05q17.35-61 37.75-121.45-28.05-21.4-54.35-43.9-5.25 94.1-13.5 178.5m-1.6 19.3q-2.8 42.35-6.25 81.4 7.1 103.25 7.15 189.35m-98.05 3.8q-19.05-88.75-40.65-165.3m-23.15 1.15-44.55 172.95-1.3 37.3m-1.3 20.85v.5q-2.55 40.3-6.25 80.65m-.3 3.4-.6 6.65-.3 3.3q0 .05-.05.15-.85 13.05-1.15 25.15l-.25 13.5m19 39.45q2.85 1.9 6 3.85 6.4 4 16.2 9.35 17.55 9.85 22.3 21.05 1.8 4.25 1.85 8.45.05.65 0 1.35-.3 5.2-3.5 9.25-3.15 3.95-8.95 5.65-5.75 1.75-27.95 4.4-22.1 2.55-40.4 2.1-18.3-.6-20.8-.8-26.25-2-38.85-6.5-12.6-4.65-17.05-9.85-4.45-5.15-4.3-11.2.3-5.05 1.9-9.6m4.2-32.7-2.5 21.1m2.9-26 .2-39.8-.1-3.65q-.05-1.65-.05-3.25l-.4-14.45q-.1-1.85-.15-3.65l-.1-4.45-.35-8.25m-.15-4.05-.95-21.6q-.1-1.65-.2-3.25-.05-.55-.1-1.05m1.75-91.45q-5.75 47.1-1.85 90.35m1.85-90.4q1.4-12.05 1.95-20.5-1.8-8.2-.75-17.15l7.2-152.9m-2.9-16q-14.55-53.85-5.9-117.4-1.85-44.6-18.45-113.9-12.6-52.45-17.5-110.75m-.65 3.45q-36.75 32.7-64.4 55.45-16.5 13.25-33.25 26.6 37 37.9 72.65 71.8 2.7 2.65 2.05 7.6m-42.6 50.75Q110.9 447.8 67.6 419.95 44.75 405.3 32.4 397.2m641.5-240.05q-7.4-35.3-41.8-51.75-38.5-16.8-89.65-33.05m-49-18.25q-1.05-.65-2-1.45-4.9-4.05-6.8-11.55-.9-5.9-1.55-12.5M668 303q-9.75 27.1-18.9 54.3M482.05 14.45q.55 9.5 1.05 14.15M344.95 14.9q.5-3.2 1.6-13.9M312 54.6q.35-.15.75-.35.6-.3 1.25-.6 1.05-.5 2.05-1 22.3-11.1 25.15-20.15 1.65-4.45 3.75-17.6M614.9 208.05q5.8 29.75-1.15 52.25-7 22.55-18.05 35.55-.5 8.8-.95 17.55M308.55 56.15q-17.4 8.1-46.55 18.15-48.1 18.45-68.2 27.15-2.55 1-4.95 2.15-3.15 1.4-5.25 2.45-22 9-30.3 25.1-.5 1-.95 2.05m-.85 1.9q-.1.2-.2.45m-10.85 12.4q1.95-2.4 3.95-4.7m.15-.15 2.15-2.5q3.15-3.7 4.8-5.5.4-.95.85-1.9M13.9 311.55q48.55-67.15 109-142.8 3.15-4.1 6.35-7.9l8.45-9.95q2.3-2.45 2.75-2.95M18.65 387.7Q4.6 374.8 1.7 355.25q-3.5-22.65 10.3-41.2.55-.8 1.15-1.45m124.3 40.7q-19.25-19.7-38.85-40.5m134.6-86.45q.1 1.3.15 2.6.8 19.75 2.4 38.85m36.05 227.95q33.85 4.3 67.95 9.2m-62.15 104.9q2.5 9.3 5.7 18.35m58.45-122.95Q407.3 514.6 473.8 526q42.65-11.35 106.65-33.8m-560.1-103q3.6 2.45 12.05 8m239.2 536.6q.1 2 .15 4.05m93.25-.6q.1-1.7.25-3.35M274.4 787.8q-.05 3.55-.35 8.1" stroke="#000" stroke-width="2" stroke-linejoin="round" stroke-linecap="round"></path><path id="style_07_color_b_svg__d" fill="none" d="M271.75 937.85q0 .8-.05.1m299-14.15q.002-.05.05-.05m-205.5 10.15.05-.05" stroke="#192414" stroke-width="1.5" stroke-linejoin="round" stroke-linecap="round"></path><path id="style_07_color_b_svg__e" fill="none" d="M482.348 785.8q-8.289 44.354-6.689 93.507.654 21.377 1.745 42.317.29 6.18.654 12.289.582 10.107 1.164 20.068 1.236 15.27.8 32.865-.364 17.597-.218 36.72v1.745q0 8.216 1.6 13.887 1.817 4.727 12.505 7.562 40.573 14.47 74.457 19.123 37.155 4.945 55.624 1.891 18.468-3.127 22.25-10.761 3.49-6.835.872-15.924-.29-.945-.654-1.963-3.563-10.325-18.76-18.614l-43.917-20.36q-6.254-3.49-9.817-11.197-3.49-7.853-4.217-20.577v-.873q.073-16.069.51-31.193.217-6.398.508-12.579.582-14.324 1.527-27.776l7.926-109.503" stroke="#000" stroke-width="1.5" stroke-linejoin="round" stroke-linecap="round"></path><path id="style_07_color_b_svg__g" fill="none" d="M-.2.325Q6.186-1.362 28.875-1.6" stroke="#000" stroke-width="1.5" stroke-linejoin="round" stroke-linecap="round"></path><path id="style_07_color_b_svg__h" fill="none" d="M-283.25 0H-.05" stroke="#FFF" stroke-width="5" stroke-linejoin="round" stroke-linecap="square"></path><path id="style_07_color_b_svg__j" fill="none" d="M-8.9 15q6.85-8.5 10.35-9.15 2.45-.2 7.45 5.05Q7.05-4.9-.25-15-7.4-1.3-8.9 15Z" stroke="#000" stroke-width="1.5" stroke-linejoin="round" stroke-linecap="round"></path><path id="style_07_color_b_svg__m" fill="none" d="m725.1 411.65.65 18.25" stroke="#000" stroke-width="2" stroke-linejoin="round" stroke-linecap="round"></path><path id="style_07_color_b_svg__n" stroke="#369CEB" stroke-width="2" stroke-linejoin="round" stroke-linecap="round" fill="none" d="M727.65 426.65q-.023 1.496-.05 2.35l.7 1.2v-3.8l.9 2.75v-3.1l1 4.75v-5.15m0 4.05.6-4.3-.6 5.4m-1.9-4.4.9 4.1v-1.35m1.7 2.9v-8.1m-3.325 4.975.025.075q-.032 3.074-.025-.075Z"></path><path id="style_07_color_b_svg__p" stroke="#EFD16A" stroke-width="0.5" stroke-linejoin="round" stroke-linecap="round" fill="none" d="M-3.304-1.972q0 1.05-.58 1.83-.58.781-1.429.826Q-6.16.728-6.74.008q-.58-.72-.58-1.77t.58-1.83q.58-.78 1.428-.824.848-.045 1.428.675.58.72.58 1.77Z"></path><g id="style_07_color_b_svg__a"><path d="M608.3 395.95q0-.1-.15-.25l-.45-.2-.2.05-.35.25-.15.2-.1.2.1.3.15.3q.55.45.9 0l.15-.05.25-.3-.15-.5m-336.55 541.9q-.05-2.05-.15-4.05l.1 4.15q.05.7.05-.1m99.8-84.65v-.5q-2.55 40.55-6.3 81.05v.15l.05-.05q3.7-40.35 6.25-80.65m200.75 42.75.15-2.4-.2 2.35q-.95 13.45-1.55 27.8v.1q.002-.05.05-.05.25-5.6.5-11.05.45-8.55 1.05-16.75m-300.5-400.2-.1-3.3q-8.65 63.55 5.9 117.4 2.5 9.3 5.7 18.35-3.2-9.05-5.7-18.35 1 7.15 2.9 16l-7.2 152.9q-1.05 8.95.75 17.15.3-4.55.35-8.1-.05 3.55-.35 8.1-.55 8.45-1.95 20.5v.05q-5.75 47.1-1.85 90.35l.1 1.1q.05.5.1 1.05.1 1.6.2 3.25l.95 21.6q.1 2 .15 4.05 1.35.4 2.75.8 9.1 2.55 18.9 3.85 3.65.5 13.1 1.2l3.3.15q2.15.05 4.35.05l7.8-.15q23.05-1.25 43.3-10 3.75-40.5 6.3-81.05l.85-14.45.2-3.2q.1-1.6.25-3.2l1.3-37.3L418.7 621.6l23.15-1.15q21.6 76.55 40.65 165.3h-.2q-8.3 44.35-6.7 93.5.65 21.4 1.75 42.35.05 0 .05.05.6.15 1.25.35l3.65 1.05 30.65 6q1.8.2 3.6.35l11.45.35q22.95-.4 42.7-6.05.6-14.35 1.55-27.8l.2-2.35 7.15-98.5.6-8.6-.6 8.6q1.35-6.35.95-13.1-.05-86.1-7.15-189.35-.95 10.85-1.95 21.5-.15 1.4-.3 2.75.15-1.35.3-2.75 1-10.65 1.95-21.5 3.45-39.05 6.25-81.4l.25-1.95q0-.85.15-1.65.4-6.2.4-12.75v-2.65q-64 22.45-106.65 33.8-66.5-11.4-132.05-20.75l.05.6-.3 1.3-1.6.1-.15-2.3q-34.1-4.9-67.95-9.2M151.5 135.1q1.95-2.25.85-1.9-.45.95-.85 1.9m-7 8q-.055.06-.1.15l.1-.1v-.05m-.1.15q.045-.09.1-.15.768-.964-.9.9.4-.4.8-.75m5.1-4.9-.7 3.9q1.1-3.5 2.5-6.7-1.55 1.65-4.6 5.05l-2.15 2.5q2.8-2.7 4.95-4.75m160.9-83-.05-.05q-.55.3-1.15.55-.225.112-.5.2.286-.087.55-.2.6-.25 1.15-.5m131.7-6.4-.05-4.35h2L345.4 14.9v.2q-2.1 13-3.75 17.4-2.85 9.05-25.15 20.15-1 .5-2.05 1-.65.3-1.25.6-.4.2-.75.35l-.55.25q-.5.25-1.05.5t-1.15.5l-.7.3q-17.4 8.1-46.55 18.15-48.1 18.45-68.2 27.15-2.55 1-4.95 2.15-3.15 1.4-5.25 2.45-22 9-30.3 25.1-.5 1-.95 2.05 1.1-.35-.85 1.9-.1.2-.2.45-1.4 3.2-2.5 6.7l-2.9 20.9q-.25 2.45-.45 4.9-.55 6.5-.8 13-.2 5.15-.15 10.25v.15q.35-.15.75-.25l86.65-18.7.35-.1q2 1.8 1.95 4.35l80.95-.25h.45l-3.25-44.35L442.75 95.1l-.1-21.6h-.1l-.2-20.55q-.15-.05-.25-.05V48.95m232.55 112.4q-.2-1.55-.45-3-2.1-1.55-.3-1.2-7.4-35.3-41.8-51.75-38.5-16.8-89.65-33.05-19.15-5.5-34.35-11.05-.6.2-1.2.5.1-.5.2-.95-.15-.05-.25-.1-6.15-2.45-10.5-4.9-1.6-.85-2.9-1.75-1.05-.65-2-1.45-4.9-4.05-6.8-11.55-.9-5.9-1.55-12.5l-39.05 16v3.9l5.5 52.05L320 137.5l2.9 39.05 118.95.25 45.9-.3.2.85 70.45.45 1.95-1.4 80.2-.1q.85 0 1.8.1-1.95-4.4 8.1-3.6l38.05 14.15.5.6q.85.25 1.7.55-.05-.1-.1-.15l-16.1-26.65q.05 0 .15.05Z" fill="#414448"></path><path fill="#FDD040" d="m268.1 1052.95.5-.1q-.15-.2-.3-.45-.05.25-.2.55M20.35 389.2q1.55 1.3 3.25 2.55 4.3 3.2 8.8 5.45-8.45-5.55-12.05-8m120.1-241.25v-.25q-.4.45-1.95 2.3-.25.25-.5.55l-.1.1q-.1.1-.2.25 2.3-2.45 2.75-2.95Z"></path><path fill="#192414" d="M624 1067.75q.45-.05.9-.15-.5.05-1 .15-18.45 3.05-55.6-1.95-3.5-.5-7.1-1 3.6.6 7.15 1.1 37.15 4.95 55.65 1.85m23.1-26.65v.15q2.5 9-.95 15.8-.55 1.1-1.35 2.15.9-1.05 1.45-2.2 3.5-6.8.85-15.9M365.25 933.9q-.15 1.65-.25 3.35l.3-3.4-.05.05m205.45-10.1q-.25 6.1-.5 12.45v.1q.002-.05.05-.05.2-6.4.5-12.55-.048 0-.05.05Z"></path><path fill="#161616" d="m626.85 1020.1.8.4q15.2 8.25 18.75 18.65.4.95.65 1.9 0 .1.05.2v-.15q-.3-.95-.65-1.95-3.55-10.35-18.75-18.65l-.85-.4m-56.6-83.8q-.048 0-.05.05-.45 15.1-.5 31.1v.6q.054 1.26.15 2.45-.05-1.025-.1-2.1v-.9q.05-16.05.5-31.2Z"></path><path fill="#369CEB" d="M428 1068.15q-1.5 1.2-3.95 2.3-16.05 7.05-71.8 7.85-47.65-.25-70.45-12.55-8.95-5.65-13.2-12.9l-.5.1q-1.6 4.55-1.9 9.6-.15 6.05 4.3 11.2 4.45 5.2 17.05 9.85 12.6 4.5 38.85 6.5 2.5.2 20.8.8 18.3.45 40.4-2.1 22.2-2.65 27.95-4.4 5.8-1.7 8.95-5.65 3.2-4.05 3.5-9.25.05-.7 0-1.35m51.8-42.9-.1-.1h-.05q.1 6.2 1.05 11.05.25 1.55.65 3 1.85 4.75 12.5 7.55l1.7.6q5.75 2.05 11.4 3.85l54.25 13.6q3.6.5 7.1 1 37.15 5 55.6 1.95.5-.1 1-.15l5.6-1.2q8.1-2.05 12.25-5.3l2.05-1.9q.8-1.05 1.35-2.15 3.45-6.8.95-15.8-.05-.1-.05-.2-.05 2.4-1.4 4.6l-3.95 3.95-3.6 2.2q-.75.4-1.5.75-31.35 11.8-97.05-4.85-1.2-.35-2.4-.65-8.3-2.35-15.4-4.5-.1-.05-.15-.05-37.25-11.2-41.7-17.05-.05-.05-.1-.15v-.05M365.25 933.9v-.15q-20.25 8.75-43.3 10l-7.8.15q-2.2 0-4.35-.05l-3.3-.15q-9.45-.7-13.1-1.2-9.8-1.3-18.9-3.85-1.4-.4-2.75-.8l.35 8.25.1 4.45q.05 0 .05.05 2.75.8 5.5 1.5l39.35 4.7 2.95-.1q.2 0 4.05.4l35.05-7.85q2.5-.95 4.9-2l.05-.05.3-3.3.6-6.65q.1-1.7.25-3.35m151.3-4.5q-1.8-.15-3.6-.35l-30.65-6-3.65-1.05q-.65-.2-1.25-.35 0-.05-.05-.05.3 6.15.65 12.25l.05.05q27.35 9.35 58.85 8.2 16.65-.65 33.3-5.85.25-6.35.5-12.45v-.1q-19.75 5.65-42.7 6.05l-11.45-.35M234.2 176.75q-.05 1.4-.75 3.05-.65.15-1.25.25l-1.55.8-1.1.2q-.2 0-.4.05-.25 0-.5.05-2.95.45-5.95.9l-85.5 17.6q-.15-1.95 0-3.8-.45-23.75 3.25-47.9-.45.5-2.75 2.95l-8.45 9.95q-3.2 3.8-6.35 7.9-60.45 75.65-109 142.8l-.75 1.05q-.6.65-1.15 1.45-13.8 18.55-10.3 41.2 2.9 19.55 16.95 32.45l-.1.2q.65.5 1.8 1.3 3.6 2.45 12.05 8 12.35 8.1 35.2 22.75 43.3 27.85 101.95 63.5 2.3.7 5.75-1.1-2.25-1.6-4.15-3.3 1.75-11.2 12.75-27.7 12.25-16.65 23.95-22.5 1.95 1.5 3.5 3.1.4.45.8.75.65-4.95-2.05-7.6-35.65-33.9-72.65-71.8-19.25-19.7-38.85-40.5 19.6 20.8 38.85 40.5 16.75-13.35 33.25-26.6 27.65-22.75 64.4-55.45.35-1.7.65-3.45-1.6-19.1-2.4-38.85-.05-1.3-.15-2.6l-.05-2.6.05 2.6q.1 1.3.15 2.6.8 19.75 2.4 38.85 4.9 58.3 17.5 110.75 16.6 69.3 18.45 113.9l.1 3.3q33.85 4.3 67.95 9.2L315.6 176.5l-80.95.25h-.45m48.4 99.65q12.2 15.35 24.85 21.3-12.65-5.95-24.85-21.3M483.1 28.6q-.5-4.65-1.05-14.15-22.3 10.15-38.4 14.65-25.1-6.05-97.1-28.1-1.1 10.7-1.6 13.9.2.1.45.2v-.2l98.65 29.7 39.05-16m207.6 159.5q-.85-.3-1.7-.55 3.45 4.35 5 8.65l-50-16.5q-1.05-1.9-1.65-3.3-.95-.1-1.8-.1l-80.2.1-1.95 1.4-70.45-.45-46.1-.55-118.95-.25 20.7 282.25-5.2.4 3.35 46.05Q407.3 514.6 473.8 526q42.65-11.35 106.65-33.8l.8-.3q8.25-84.4 13.5-178.5.45-8.75.95-17.55 11.05-13 18.05-35.55 6.95-22.5 1.15-52.25 5.8 29.75-1.15 52.25-7 22.55-18.05 35.55-.5 8.8-.95 17.55 26.3 22.5 54.35 43.9 9.15-27.2 18.9-54.3-9.75 27.1-18.9 54.3-20.4 60.45-37.75 121.45-.1 3 3.55 6.8 1-3.7 1.65-5.45 16.65 1.4 34.15 9.45 17.95 9.35 22.85 16.45l-3.5 5.3q6.1.4 8.75-2.5L756 374.55q1.7-1.85 3.2-3.75 6.2-7.9 9.15-17.8l.4-.7-.15-.05q.9-3.25 1.45-6.65 3.6-21.8-8.35-39.95l-71-117.55Z"></path><path fill="#FFF" d="M362.65 986q-.127 1.184-.1 2.35l.05-.4.05-1.95m1.4-38.65q.05-.1.05-.15l-.05.05q-2.4 1.05-4.9 2l-35.05 7.85q-3.85-.4-4.05-.4l-2.95.1-39.35-4.7q-2.75-.7-5.5-1.5 0-.05-.05-.05.05 1.8.15 3.65l.4 14.45.1 3.2q.05 1.85.05 3.7l-.2 39.8q-.15 2.7-.4 4.85v.05l-2.5 21.1q-1.9 6.65-.05 10.7-.6.4-1.15.8 4.25 7.25 13.2 12.9 22.8 12.3 70.45 12.55 55.75-.8 71.8-7.85 2.45-1.1 3.95-2.3-.05-4.2-1.85-8.45-4.75-11.2-22.3-21.05-9.8-5.35-16.2-9.35-3.15-1.95-6-3.85-.65-.4-1.25-.8.05-.05.15-.05v-.05q-8-7.8-12.85-16.05l-.8-1.5-2.05-5-1.95-9.6-.2-2.25q-.063-.656-.1-1.35l-.05-.45q-.027-1.166.1-2.35l.25-13.5q.3-12.1 1.15-25.15m206.15-11v-.1q-16.65 5.2-33.3 5.85-31.5 1.15-58.85-8.2l-.05-.05q.15 2.55.35 5.1l.85 15.05q1.25 15.25.8 32.8l-.25 31.95v4.75q0 .85.1 1.65h-.15l.1.1v.05q.05.1.1.15 4.45 5.85 41.7 17.05.05 0 .15.05 7.1 2.15 15.4 4.5 1.2.3 2.4.65 65.7 16.65 97.05 4.85.75-.35 1.5-.75l3.6-2.2 3.95-3.95q1.35-2.2 1.4-4.6-.25-.95-.65-1.9-3.55-10.4-18.75-18.65l-.8-.4-42.45-19.7q-1.45-.7-2.7-1.6l-2.85-2.5q-1.75-1.8-3.1-4.05l-1.15-2q-.35-.65-.65-1.35-.3-.65-.55-1.25l-1.4-4.25-1.95-10.8-.2-2.1q-.096-1.19-.15-2.45v-.6q.05-16 .5-31.1M140.4 147.6q.1.05.05.1v.25q1.95-2.4 3.95-4.7-.4.35-.8.75-1.4 1.35-3 2.9-.1.3-.2.7m93.05 32.2q.7-1.65.75-3.05.05-2.5-1.85-4.25l-86.65 18.7q-.4.1-.75.25v-.15q-.25.05-.45.15-.05-5.15.15-10.4.25-6.5.8-13 .2-2.45.45-4.9l2.9-20.9.7-3.9q-2.15 2.05-4.95 4.75h-.05v.05l-.1.1q-2 2.3-3.95 4.7-3.7 24.15-3.25 47.9-.15 1.85 0 3.8l85.5-17.6q3-.45 5.95-.9.25-.05.5-.05.2-.05.4-.05l1.1-.2 1.55-.8q.6-.1 1.25-.25M689 187.55l-.5-.6-38.05-14.15q-10.05-.8-8.1 3.6.6 1.4 1.65 3.3l50 16.5q-1.55-4.3-5-8.65Z"></path><path fill="#EC5657" d="m444.05 44.6-1.95 4.35v3.8q.002-.052.05-.1.15-1.1 1.9-8.05Z"></path><path d="m442.05 44.6.05 4.35 1.95-4.35h-2m2 3.9v-3.9q-1.75 6.95-1.9 8.05-.048.048-.05.1v.15q.1 0 .25.05l.2 20.55h.1l.1 21.6-129.95 37.05 3.25 44.35h-.45l24.15 328.45.15 2.3 1.6-.1.3-1.3-.05-.6-3.35-46.05-23.95-325.6 129.8-36.95-.2-48.15Z"></path></g><g id="style_07_color_b_svg__k"><path d="M727.1 427.2h-1.6l.25 50.5-129.95 37.05 27.55 375.1 1.6-.1.3-1.3-3.4-46.65-23.95-325.6 129.8-36.95-.2-49.6v-1.25l-.4-1.2Z"></path><path fill="#EC5657" d="m733 483.15-.2-51.65-5.3-1.85.2 49.6-129.8 36.95 23.95 325.6 5.2-.4-23.6-321.3L733 483.15Z"></path></g><g id="style_07_color_b_svg__l"><path fill="#369CEB" d="m444.05 47.05.2 49.6-129.8 36.95 23.95 325.6 5.2-.4L320 137.5l129.55-36.95-.2-51.65-5.3-1.85Z"></path><path d="M443.65 44.6h-1.6l.25 50.5-129.95 37.05 27.55 375.1 1.6-.1.3-1.3-3.4-46.65-23.95-325.6 129.8-36.95-.2-49.6V45.8l-.4-1.2Z"></path></g><g id="style_07_color_b_svg__o"><path fill="#202020" d="M-6.6-3.5q-.65.75-.65 1.8T-6.6.1q.65.75 1.6.75.95 0 1.6-.75.65-.75.65-1.8t-.65-1.8q-.65-.75-1.6-.75-.95 0-1.6.75Z"></path><path fill="#EFD16A" d="M2.5-1.45Q1.75-2.3.7-2.3t-1.75.85Q-1.8-.65-1.8.5t.75 2q.7.8 1.75.8t1.8-.8q.7-.85.7-2t-.7-1.95Z"></path></g></defs><g transform="translate(282.5 382.55)"><use xlink:href="#style_07_color_b_svg__a"></use><use xlink:href="#style_07_color_b_svg__b"></use><use xlink:href="#style_07_color_b_svg__c"></use><use xlink:href="#style_07_color_b_svg__d"></use></g><use xlink:href="#style_07_color_b_svg__e" transform="matrix(.99998 0 0 .99998 282.555 382.56)"></use><g transform="matrix(1.45422 0 0 1.45422 703.4 1009.55)"><use xlink:href="#style_07_color_b_svg__f"></use><use xlink:href="#style_07_color_b_svg__g"></use></g><use xlink:href="#style_07_color_b_svg__h" transform="matrix(1.45422 0 0 1.45422 928.15 558.85)"></use><g transform="matrix(1.45422 0 0 1.45422 840.1 561.25)"><use xlink:href="#style_07_color_b_svg__i"></use><use xlink:href="#style_07_color_b_svg__j"></use></g><use xlink:href="#style_07_color_b_svg__k" transform="translate(-.95 -.05)"></use><use xlink:href="#style_07_color_b_svg__l" transform="translate(282.5 382.55)"></use><use xlink:href="#style_07_color_b_svg__m"></use><use xlink:href="#style_07_color_b_svg__n"></use><g transform="matrix(1.47311 -.07733 0 1.65515 714.247 440.138)"><use xlink:href="#style_07_color_b_svg__o"></use><use xlink:href="#style_07_color_b_svg__p" transform="matrix(1.12042 .05234 0 1 .95 .4)"></use></g></svg>