<svg xmlns="http://www.w3.org/2000/svg" xmlns:xlink="http://www.w3.org/1999/xlink" preserveAspectRatio="none" viewBox="0 0 1500 1500" fill="#e5b"><defs><path fill="#C7D4C9" d="M1.3 5.6q3.155-.355 8.85 4.3Q5.624-6.644-3.3-16.3-9.459-2.294-9.35 16.75-1.852 6.002 1.3 5.6Z" id="style_09_color_b_svg__g"></path><path fill="#3F4348" d="M2.65-.5q-.25-1.15-1.2-1.85-.95-.75-2-.5-1.1.25-1.7 1.2-.65 1.05-.4 2.2.25 1.15 1.2 1.85.9.75 2.05.45 1.05-.2 1.65-1.15.65-1.05.4-2.2Z" id="style_09_color_b_svg__i"></path><path d="M606.4 1348.45q-3.15.1-4.7-.05-1.3-.1-3.9-.6l-7.1-1.35q-3.9-.75-5.7-1.25-3.1-.85-5.35-2.1-1.95-1.1-2.75-.3 3.05 3 9.05 4.55 1.75.45 5 1 3.45.6 5 1 4.2.95 4.6 1 1.2.15 4.5.05 7.6-.3 11.35-.65 6.3-.55 11.15-1.75 1-.2 1.55-.6.8-.55.65-1.4-.05-.5-.55-.8-.4-.3-.95-.3-.6-.05-2 .5-4.2 1.65-9.75 2.35-3.45.45-10.1.7Z" id="style_09_color_b_svg__k"></path><path d="M606.4 1348.45q-3.15.1-4.7-.05-1.3-.1-3.9-.6l-7.1-1.35q-3.9-.75-5.7-1.25-3.1-.85-5.35-2.1-1.95-1.1-2.75-.3 3.05 3 9.05 4.55 1.75.45 5 1 3.45.6 5 1 4.2.95 4.6 1 1.2.15 4.5.05 7.6-.3 11.35-.65 6.3-.55 11.15-1.75 1-.2 1.55-.6.8-.55.65-1.4-.05-.5-.55-.8-.4-.3-.95-.3-.6-.05-2 .5-4.2 1.65-9.75 2.35-3.45.45-10.1.7Z" id="style_09_color_b_svg__s"></path><path fill="none" d="M802.93 452.498q14.957 5.615 24.452 17.969m-57.379-29.914q18.02 6.278 32.926 11.945m-56.459-20.215q5.922 2.246 23.533 8.27m-27.566-9.802q2.093.817 4.033 1.532m-4.748-1.838q.307.153.715.306m-6.075-3.828q1.532 1.94 3.676 2.858m-5.054-4.951q.562 1.123 1.378 2.093m-2.144-4.544q.205 1.328.766 2.45m-1.123-4.287q.102.561.357 1.837m-.408-3.216q.051.817.051 1.379m-.153-3.216q0 .97.102 1.837m-.255-7.249.153 5.412m-.153-6.484v1.072m0-1.786v.714m76.725 177.393q10.874-12.098 12.865-26.902 3.675-19.5-12.66-50.895-.256-.766-.613-1.379m82.239 149.419q-6.33-23.89-7.25-27.21m43.035 157.791q-17.663-62.687-35.785-130.581m-52.937-9.904q26.596 82.596 52.835 153.656m-85.915-209.707q2.247-2.093 4.186-4.288m-16.488 77.95 12.302-73.662m-12.2 74.02q-.051-.204-.102-.357m5.156 21.134q-2.247-10.516-5.054-20.777m5.717 23.84q-.306-1.532-.663-3.063m9.188 91.58q.256-45.943-8.576-88.517m8.576 88.518 1.532 6.227q4.339 15.774 5.666 26.8 21.645 104.599 33.947 225.124m5.513 45.433q1.991 30.067 2.502 56.612.561 40.073 1.225 99.544.561 59.42.97 73.101.204 4.901.408 9.342 0 .46.051 1.225.102 1.175.153 2.502.562 8.831 1.124 16.182l4.032 53.141q.153 3.165.102 6.126 8.372 5.105 15.927 9.189 9.087 4.9 20.42 9.597 11.435 4.645 27.362 10.516 16.182 5.411 19.806 13.272.664 1.787.868 3.83 0 .765-.05 1.786-.154 1.889-.92 3.982-3.369 6.993-17.51 8.882-3.828.561-10.413.664-39.818 1.684-86.986-7.505-16.336-2.041-16.132-16.692-.408-1.736.307-3.216.765-1.43.765-9.648-.05-8.22-.663-21.747-.562-13.528-1.072-26.086-.51-12.507-3.216-49.363l-1.379-12.252q-.97-7.606-9.137-63.453-8.219-56.051-12.762-100.718-3.982-38.338-1.225-74.276m-45.689-140.995-34.1-113.48-57.174 273.619m-.357 1.837q-1.072 9.138-1.634 15.366-2.144 20.879-3.777 35.376l-.766 6.228q-2.604 22.41-3.829 33.13-.408 3.574-.919 7.964-1.735 14.855-4.339 38.031m-.05.102q-1.481 12.762-3.37 28.587l-10.516 82.954-1.072 7.963-5.207 37.316-2.808 27.107q1.991 2.604 4.033 4.952 11.946 12.15 32.773 29.76 6.84 7.199 5.36 17.102m-.561 1.48q-2.4 8.985-13.936 9.598-19.807 2.96-30.323 4.186-26.75 3.165-42.217-2.093-15.774-5.82-13.12-19.348 10.874-37.724 10.925-46.811-.102-11.537.715-15.315.765-3.93 1.48-11.792.715-7.963 1.021-15.161.306-7.249.255-11.486v-12.762l.102-8.627q-.102-1.787 0-4.543 0-2.808.102-5.412.103-2.654.154-4.134m0-.154q.05-.663.05-1.327.103-5.003.205-10.26l.102-5.31q.306-13.476.868-28.076.561-14.753 1.174-30.578.46-12.047 1.02-23.227m2.655-38.286q-1.429 17.969-2.603 38.184m6.075-74.582q-1.89 16.744-3.472 36.398m3.982-41.196q-.255 2.348-.51 4.798m10.362-74.581q-6.074 36.397-9.852 69.783m21.134-295.212q-10.005 94.643-11.282 225.429m20.47-284.798q-6.176 27.361-9.188 59.369m25.065-160.547q-13.834 54.315-15.876 101.178m16.795-104.598-.92 3.42m1.175-4.697q-.153.664-.255 1.277m4.594-17.153q-2.297 7.964-4.34 15.876m-25.778-98.523q5.666 19.603 30.118 82.647m-43.034-124.66q9.24 29.608 12.916 42.013m-50.794 32.773 37.878-74.786m-60.85 124.558 22.972-49.772m-31.7 187.143q3.42-70.497 8.729-137.37m-48.24.867q-2.145 64.066 1.377 137.473m-.918-148.959q-.051 1.379-.46 11.486m.46-11.894v.408m47.832-138.545q-34.152 83.158-47.832 138.137m56.459-158.658q-4.288 9.29-8.627 20.521m14.038-32.11q-2.603 5.36-5.411 11.589m5.768-12.354q-.153.408-.357.766m16.744-26.29q-7.606 8.27-16.387 25.524m20.624-29.761q-2.297 1.889-4.237 4.237m8.014-6.892q-2.041 1.226-3.777 2.655m4.441-3.063q-.306.204-.664.408m1.634-.918q-.51.255-.97.51m.919-.561q8.423-4.748 22.563-9.495 31.19-9.495 62.534-17.51 12.15-3.063 18.531-6.79.715-.459 1.276-.867.46-.307.97-.664 3.88-2.603 4.34-7.402.152-2.297.254-4.186v-5.258l-.102-8.32m54.214 4.9q.05 4.798.153 8.27m-20.522 392.408q-.153 3.675-.867 7.504-.103.664-.205 1.225-.204.664-.306 1.327l-2.093 9.955m98.472-38.542q.051-2.603.102-5.104" id="style_09_color_b_svg__b" stroke="#000" stroke-width="2" stroke-linejoin="round" stroke-linecap="round"></path><path fill="none" d="M847.495 511.357q0 .05.153.51m-.358-1.021.205.51m-20.318-40.685q9.342 12.252 20.113 40.175m.97 2.859 36.602 117.564m-45.688 17.305-28.894-60.339" id="style_09_color_b_svg__c" stroke="#000" stroke-width="2" stroke-linejoin="round" stroke-linecap="square"></path><path id="style_09_color_b_svg__d" stroke="#000" stroke-width="1.5" stroke-linejoin="round" stroke-linecap="round" fill="none" d="m740.804 430.088.918.357m-1.48-.562q.255.103.562.205m-.766-.307.204.102m184.131 364.383q3.012-2.603 3.523-5.207m-35.887 13.17q1.99 2.4 6.687 2.298M799.56 690.383h.051m49.67 346.669q.868 5.207 2.042 14.6 2.348 14.446 3.318 28.331l.051.664q.102.868.102 1.633m-65.443-5.258-45.689-140.995m-91.274 160.139q-.153.918-.357 1.837m-15.264 136.095-.05.102m18.632 237.221q.306-.765.561-1.48m-85.403-142.22v-.154m3.42-98.778.05-.102m-59.215-414.818q3.624-1.43 4.9-3.625m-38.133.97q1.123 2.808 5.616 4.135m219.814-410.888q-12.252-2.91-27.77-7.504m33.742 8.883q-3.012-.664-5.972-1.379m8.627 1.94q-1.379-.306-2.655-.561m5.616 1.123q-1.48-.307-2.961-.562m5.564.153 12.252-4.696m7.402 28.23q-.409-.153-.766-.307m-18.99-23.176.102-.05m-94.388 286.993q8.219 3.063 20.827 7.963 10.567 3.931 24.453 8.78m2.399.766q27.974 9.546 69.068 22.257 24.708-17.203 56.051-42.931M574.284 499.82q.102.561.255 1.225m28.843 19.245-14.14 28.025m-60.85 124.558q.255-3.471.561-6.891m81.933 128.744q-.204 4.594-.255 9.188m-1.277 599.664q.153 8.27 2.859 12.303.715 1.123 1.531 2.246m99.29-615.591q17.203-3.88 26.698-6.075 6.023-1.378 14.446-3.318m36.296 272.036q-.664 5.87-1.123 11.843m65.29 2.961q.051 1.276.153 2.502m-42.319 232.984q23.534 14.345 47.016-3.727m0 72.591q.05 3.165.05 4.033.716 8.117 5.259 12.15.306.306.612.51 5.616 4.033 13.477 7.606"></path><path id="style_09_color_b_svg__e" stroke="#000" stroke-width="1.5" stroke-linejoin="round" stroke-linecap="square" fill="none" d="M854.794 1082.28v.205"></path><path id="style_09_color_b_svg__f" stroke="#FFF" stroke-width="5" stroke-linejoin="round" stroke-linecap="square" fill="none" d="M-156.75.2-.05 0"></path><path id="style_09_color_b_svg__h" stroke="#000" stroke-width="1.5" stroke-linejoin="round" stroke-linecap="round" fill="none" d="M-3.3-16.3Q5.624-6.644 10.15 9.9 4.455 5.245 1.3 5.625q-3.152.377-10.65 11.125Q-9.459-2.294-3.3-16.3Z"></path><path id="style_09_color_b_svg__o" stroke="#000" stroke-width="2" stroke-linejoin="round" stroke-linecap="round" fill="none" d="M827.4 470.45q-9.5-12.35-24.45-17.95Q788 446.85 770 440.55q-17.6-6-23.55-8.25-1.9-.75-4-1.55-.4-.15-.75-.3m-1.65-.65q-2.15-.95-3.7-2.9-.8-.95-1.35-2.05-.6-1.15-.8-2.45-.25-1.3-.35-1.85 0-.55-.05-1.4-.1-.85-.1-1.8l-.15-5.45v-1.75m151.3 221.1q.95 3.35 7.25 27.25 18.15 67.85 35.8 130.55m-88.75-140.5q26.6 82.6 52.85 153.7m-81.7-214q-1.95 2.2-4.2 4.25l-12.3 73.7q.05.15.1.35 2.8 10.25 5.05 20.75.35 1.55.65 3.1m-.05 0q8.85 42.55 8.6 88.5l1.5 6.25q4.35 15.75 5.7 26.8 21.65 104.6 33.95 225.1m5.5 45.45q2 30.05 2.5 56.6.55 40.05 1.2 99.55.6 59.4 1 73.1.2 4.9.4 9.35 0 .45.05 1.2.1 1.2.15 2.5.55 8.85 1.15 16.2l4 53.15q.15 3.15.1 6.1 8.4 5.1 15.95 9.2 9.1 4.9 20.4 9.6 11.45 4.65 27.35 10.5 16.2 5.4 19.85 13.3.65 1.75.85 3.8 0 .8-.05 1.8-.15 1.9-.95 4-3.35 7-17.5 8.85-3.8.6-10.4.7-39.8 1.65-87-7.55-16.3-2-16.1-16.65-.4-1.75.3-3.25.75-1.4.75-9.65-.05-8.2-.65-21.75-.55-13.5-1.1-26.05-.5-12.5-3.2-49.4l-1.35-12.25q-1-7.6-9.15-63.45-8.25-56.05-12.75-100.7-4-38.35-1.25-74.3m-45.7-140.95-34.1-113.5-57.15 273.6m-.35 1.85q-1.1 9.15-1.65 15.35-2.15 20.9-3.8 35.4l-.75 6.2q-2.6 22.45-3.8 33.15-.45 3.6-.95 7.95-1.75 14.85-4.35 38.05m-.05.1q-1.45 12.75-3.35 28.6l-10.5 82.95-1.1 7.95-5.2 37.3-2.8 27.15q2 2.6 4.05 4.95 11.9 12.15 32.75 29.75 6.85 7.2 5.35 17.1m-.55 1.45q-2.4 9-13.95 9.6-19.8 3-30.3 4.2-26.75 3.15-42.25-2.1-15.75-5.8-13.1-19.35 10.9-37.7 10.95-46.8-.1-11.55.7-15.3.75-3.95 1.45-11.8.75-7.95 1.05-15.15.3-7.25.25-11.5v-12.75l.1-8.65q-.1-1.8 0-4.55 0-2.8.1-5.4.1-2.65.15-4.15m0-.15q.05-.65.05-1.3.1-5 .2-10.25l.1-5.35q.3-13.45.9-28.05.55-14.75 1.15-30.6.45-12.05 1.05-23.2m.05-.1q1.15-20.25 2.6-38.2 1.55-19.65 3.45-36.4.25-2.45.5-4.8 3.8-33.4 9.85-69.8 1.3-130.75 11.3-225.4 3-32 9.2-59.35 2.05-46.9 15.85-101.2l.95-3.4q.1-.65.25-1.3 2.05-7.9 4.3-15.85-24.45-63.05-30.1-82.65-3.65-12.45-12.9-42.05l-37.9 74.8-22.95 49.75q-5.3 66.9-8.75 137.4m-38.1.95q-3.55-73.4-1.4-137.45.4-10.1.45-11.5v-.4q13.7-55 47.85-138.15 4.35-11.2 8.6-20.5 2.85-6.25 5.45-11.6.2-.35.35-.75 8.75-17.25 16.35-25.55 1.95-2.35 4.25-4.25 1.75-1.4 3.8-2.65.35-.2.65-.4.45-.25.95-.5m-.05-.05q8.45-4.75 22.6-9.5 31.2-9.5 62.5-17.5 12.15-3.05 18.55-6.8.7-.45 1.3-.85.45-.3.95-.7 3.9-2.6 4.35-7.4.15-2.3.25-4.15v-5.25l-.1-8.35m54.2 4.9q.05 4.8.15 8.3m76.75 178.1q10.85-12.1 12.85-26.9 3.65-19.5-12.65-50.9-.25-.8-.65-1.4M808.05 784l.1-5.1m-95.1 23.65q-.15 3.65-.9 7.5-.1.65-.2 1.2-.2.7-.3 1.35l-2.1 9.95"></path><path id="style_09_color_b_svg__p" stroke="#000" stroke-width="2" stroke-linejoin="round" stroke-linecap="square" fill="none" d="M847.65 511.85q-.15-.45-.15-.5l-.2-.5q-10.8-27.95-20.1-40.2m21.05 43.05 36.6 117.55m-45.7 17.3-28.85-60.3"></path><path id="style_09_color_b_svg__q" stroke="#000" stroke-width="1.5" stroke-linejoin="round" stroke-linecap="round" fill="none" d="m741.7 430.45-.9-.35q-.3-.1-.55-.2l-.2-.1m184.3 364.45q3.05-2.6 3.55-5.2m-35.9 13.2q2 2.4 6.7 2.3M799.55 690.4h.05m49.7 346.65q.85 5.2 2 14.6 2.35 14.45 3.35 28.35l.05.65q.1.85.1 1.65m-65.45-5.3-45.7-140.95m-91.25 160.1q-.15.95-.35 1.85m-15.3 136.1-.05.1m18.65 237.2q.3-.75.55-1.45m-85.4-142.25v-.15m3.45-98.75.05-.1m-59.25-414.85q3.65-1.4 4.9-3.6m-38.1.95q1.1 2.8 5.6 4.15m192.05-418.4q15.5 4.6 27.75 7.5 2.95.75 6 1.4 1.25.25 2.65.55 1.45.25 2.95.55m2.6-.4 12.25-4.7m7.4 28.25q-.4-.15-.75-.3m-19-23.2.1-.05m-46.7 304.5q27.95 9.55 69.05 22.25 24.7-17.2 56.05-42.9M603.4 520.3l-14.15 28M528.4 672.85q.25-3.45.55-6.85m97.8 27.55q8.25 3.05 20.85 7.95 10.55 3.95 24.45 8.8m-61.15 84.45q-.2 4.55-.25 9.15m-1.3 599.7q.15 8.25 2.85 12.3.75 1.1 1.55 2.25m99.3-615.6q17.2-3.9 26.7-6.1 6-1.35 14.45-3.3m36.25 272.05q-.65 5.85-1.1 11.8m65.3 3q.05 1.25.15 2.5m-42.3 232.95q23.5 14.35 47-3.7m0 72.6q.05 3.15.05 4 .7 8.15 5.25 12.15.3.3.6.55 5.65 4 13.5 7.6"></path><path id="style_09_color_b_svg__r" stroke="#000" stroke-width="1.5" stroke-linejoin="round" stroke-linecap="square" fill="none" d="M854.8 1082.3v.2"></path><path id="style_09_color_b_svg__w" stroke="#EFD16A" stroke-width="0.5" stroke-linejoin="round" stroke-linecap="round" fill="none" d="M-3.304-1.972q0 1.05-.58 1.83-.58.781-1.429.826Q-6.16.728-6.74.008q-.58-.72-.58-1.77t.58-1.83q.58-.78 1.428-.824.848-.045 1.428.675.58.72.58 1.77Z"></path><g id="style_09_color_b_svg__a"><path fill="#369CEB" d="M920.6 1460.85q6.45-.1 10.2-.65 13.85-1.85 17.15-8.7.75-2.05.9-3.9-2.1 5.55-46.2 3.95-46.7-2.2-70.65-9.5-10-1.8-12.4-4.9-.2 14.35 15.8 16.35 46.2 9 85.2 7.35m-62.6-132.4q2-1 3.1-1.95-.05-1.3-.15-2.45-.05-.75-.05-1.2-.2-4.35-.4-9.15-23 17.7-46.05 3.65l1.35 12q1.65 1.1 4.85 2.6 8.35 4.05 19.2 2.2 10.85-1.9 18.15-5.7M574.15 1470.8q-3.3-1.55-5.7-3.1-5.2-2.5-5.45-5.1-2.6 13.25 12.85 18.95 15.15 5.15 41.35 2.05 10.3-1.2 29.7-4.1 11.3-.6 13.65-9.4-28.25 5.2-47.65 5.55-25.55 1.35-38.75-4.85m3.05-127.65-.1 8.45 1.15.55q7.9 3.05 21.1 5.05 14.2 2.15 28.3-2.4l1.05-7.8q-3.35.8-6.35 1.5-11.8 2.35-21.95 1.1-10.55-1.4-19.2-4.8-1.15-.35-2.25-.9l-1.75-.75M652.95 716q10.35 3.85 23.95 8.6l3.25-47.9q-13.4-78.5-19.95-160.65l-77.2.5-1.85 1.9q.1.55.25 1.2l-.9-.6-21.9 22.05q1 5.05-6.05 10.95l-7.85-30.3q-4.2 9.1-8.45 20.1-33.45 81.45-46.85 135.3v.4q-.05 1.35-.45 11.25-2.1 62.75 1.35 134.65 1.1 2.75 5.5 4.05l-.3-7.3q5.15-4.4 12.1-4.95 8.25-.4 15.05 5.15l.2 5.65q3.55-1.4 4.8-3.55 3.35-69.05 8.55-134.55.25-3.4.55-6.75-.3 3.35-.55 6.75l22.5-48.75 37.1-73.25 13.85-27.45-13.85 27.45q9.05 29 12.65 41.15 5.55 19.2 29.5 80.95-2.25 7.8-4.25 15.55-.15.65-.25 1.25l-.9 3.35q8.05 3 20.4 7.8m69.5-288.5q-1.45-.3-2.9-.55-1.35-.3-2.6-.55-2.95-.65-5.85-1.35-12-2.85-27.2-7.35l.1 8.15q14.8 4.2 27.1 7.2 2.6.6 5.2 1.3.35.05.65.15 1.25.25 2.6.6 1.45.35 2.85.65l.05-8.25m14.7 3.1q-.1-3.4-.15-8.1l-12 4.6-.1.05v1.7h.1l5.4.85v3.45l6.75-2.55M820.9 515q-.05 0-.05-.05l-14.6.1-1.2.45q-.15-.25-.2-.45l-136.6.95q6.6 81.5 19.85 159.4l.1.5-.1.45-1.35 20.85h-.1v.15l-5.45-.4h-.05l-1.9 28.2v.2q27.4 9.35 67.65 21.8 24.2-16.85 54.9-42.05h.05q-.3-1.5-.65-3-2.2-10.3-4.95-20.35-.05-.2-.1-.35l12.05-72.15q2.2-2.05 4.1-4.2 10.65-11.85 12.6-26.35 3.6-19.1-12.4-49.85-.25-.75-.6-1.35.35.6.6 1.35 16 30.75 12.4 49.85-1.95 14.5-12.6 26.35l28.3 59.1q26.05 80.9 51.75 150.5 1.95 2.35 6.55 2.25l-2.75-7.25q3.55-6 9.95-8.7 7.6-3.05 15.95.3l2 5.6q2.95-2.55 3.45-5.1-17.3-61.4-35.05-127.9-6.2-23.4-7.1-26.65L849.5 532.05q-.3-.85-.6-1.8-.25-.7-.4-1.05l-.2-.15q.15.45.35.95 1.1 3.4 2.25 7.05-5.95-4.95-12.8-10.85-6.95-5.95-12.25-9.1-2.45-1.25-4.95-2.1Z"></path><path fill="#FFF" d="M861.1 1326.5q-1.1.95-3.1 1.95-7.3 3.8-18.15 5.7-10.85 1.85-19.2-2.2-3.2-1.5-4.85-2.6 2.65 36.1 3.15 48.35.5 12.3 1.05 25.55.6 13.25.65 21.3 0 8.05-.75 9.45-.7 1.45-.3 3.15 2.4 3.1 12.4 4.9 23.95 7.3 70.65 9.5 44.1 1.6 46.2-3.95.05-1 .05-1.75-.2-2-.85-3.75-3.55-7.7-19.4-13-15.6-5.75-26.8-10.3-11.1-4.6-20-9.4-7.4-4-15.6-9 .05-2.9-.1-6l-3.95-52.05q-.55-7.2-1.1-15.85m5.2 74.65q5.5 3.95 13.2 7.45-7.7-3.5-13.2-7.45-.3-.2-.6-.5-4.45-3.95-5.15-11.9 0-.85-.05-3.95.05 3.1.05 3.95.7 7.95 5.15 11.9.3.3.6.5m-289.2-49.55v12.5q.05 4.15-.25 11.25-.3 7.05-1 14.85-.7 7.7-1.45 11.55-.8 3.7-.7 15-.05 8.9-10.7 45.85.25 2.6 5.45 5.1 2.4 1.55 5.7 3.1 13.2 6.2 38.75 4.85 19.4-.35 47.65-5.55.3-.75.55-1.45 1.45-9.7-5.25-16.75-20.4-17.25-32.1-29.15-2-2.3-3.95-4.85-.8-1.1-1.5-2.2-2.65-3.95-2.8-12.05.15 8.1 2.8 12.05.7 1.1 1.5 2.2l2.75-26.55 5.1-36.55q-14.1 4.55-28.3 2.4-13.2-2-21.1-5.05l-1.15-.55m-18.5-810.5.05-.1-8.3-31.35q-.15.4-.35.75-2.55 5.25-5.3 11.35l7.85 30.3q7.05-5.9 6.05-10.95m270.95-29.95q.15 1.1.2 2.2v1.6h-6.6q.052.002.1.05l2.6 2.1q5.3 3.15 12.25 9.1 6.85 5.9 12.8 10.85-1.15-3.65-2.25-7.05l-18.45-18.7-.65-.15Z"></path><path fill="#414448" d="M855.9 1088.95q0-.75-.1-1.6l-.05-.65q.05 1.25.15 2.45v-.2m-176.65-363.6v.15l-.1.05v.1l-.95.3-.85-.4-.5-.35.05-.6q-13.6-4.75-23.95-8.6-12.35-4.8-20.4-7.8Q619 761.4 617 807.3q-.2 4.5-.25 9 .05-4.5.25-9-6.05 26.8-9 58.15-9.8 92.7-11.05 220.8-5.95 35.65-9.65 68.35-.25 2.3-.5 4.7-1.85 16.4-3.4 35.65-1.4 17.6-2.55 37.4l-.05.1q-.55 10.95-1 22.75-.6 15.5-1.15 29.95-.55 14.3-.85 27.5l-.1 5.2q-.1 5.15-.2 10.05 0 .65-.05 1.3v.15q-.05 1.45-.15 4.05-.1 2.55-.1 5.3-.1 2.7 0 4.45l1.75.75q1.1.55 2.25.9 8.65 3.4 19.2 4.8 10.15 1.25 21.95-1.1 3-.7 6.35-1.5l10.3-81.25q1.85-15.5 3.3-28l.05-.1q2.55-22.7 4.25-37.25.5-4.3.9-7.8 1.2-10.5 3.75-32.45l.75-6.1q1.6-14.2 3.7-34.65.55-6.1 1.6-15.05.2-.9.35-1.8l56-268 2.05-9.75q.1-.65.3-1.3.1-.55.2-1.2.7-3.75.85-7.35 16.85-3.8 26.15-5.95 5.9-1.35 14.15-3.25-8.25 1.9-14.15 3.25-9.3 2.15-26.15 5.95-.15 3.6-.85 7.35-.1.65-.2 1.2-.2.65-.3 1.3l-2.05 9.75 33.4 111.15 44.75 138.1q.45-5.85 1.1-11.6-.65 5.75-1.1 11.6-2.7 35.2 1.2 72.75 4.45 43.75 12.5 98.65 8 54.7 8.95 62.15 23.05 14.05 46.05-3.65-.4-13.4-.95-71.6-.65-58.25-1.2-97.5-.5-26-2.45-55.45-.1-1.2-.15-2.45-.95-13.6-3.25-27.75-1.15-9.2-2-14.3-12.05-118.05-33.25-220.5-1.3-10.8-5.55-26.25l-1.5-6.1-.1 5 .1-5q.25-45-8.4-86.7-30.7 25.2-54.9 42.05-40.25-12.45-67.65-21.8m37.7-290.85q-.3-.1-.65-.15-2.6-.7-5.2-1.3-12.3-3-27.1-7.2V431q-.1 1.85-.25 4.1-.45 4.7-4.25 7.25-.5.35-.95.65-.55.4-1.25.85-6.25 3.65-18.15 6.65-30.7 7.85-61.25 17.15-13.85 4.65-22.1 9.3l.05.05q-.5.25-.95.5-.3.2-.65.4-2 1.2-3.7 2.6-2.25 1.85-4.15 4.15-7.45 8.1-16.05 25l8.3 31.35-.05.1 21.9-22.05.65-.6 1.85-1.9 77.2-.5q-.75-9.95-1.45-19.85l-.25-2.8.1-.05v-.1l63.6-28.2.2-29.3q-1.4-.3-2.85-.65-1.35-.35-2.6-.6m27.3 15.65q-.4-.15-.75-.3l.2.1q.25.1.55.2m84.6 39.75q.15-.1.2-.2-9.3-12.1-23.95-17.6-14.6-5.55-32.25-11.7-17.25-5.9-23.05-8.1-1.9-.7-3.95-1.5-.4-.15-.7-.3l-.9-.35q-.3-.1-.55-.2l-.2-.1q-2.1-.9-3.6-2.8-.8-.95-1.35-2.05-.55-1.1-.75-2.4-.25-1.25-.35-1.8 0-.55-.05-1.35-.1-.85-.1-1.8l-.15-5.3v-1.75l-6.75 2.55-.25 37.05-.1.05v.05l-63.15 28q.6 8.8 1.35 17.55v.15l136.6-.95q.05.2.2.45l1.2-.45 14.6-.1H829.75v-1.6q-.05-1.1-.2-2.2l.65.15 18.45 18.7q-.2-.5-.35-.95-.5-1.35-.95-2.65-.8-2.15 1.15 2.8.15.35.4 1.05-.15-.45-.15-.5l-.2-.5Q838 501.9 828.85 489.9Z"></path><path d="M722.65 427v.25l-.1.1v.1h-.1v.05l-.05 8.25-.2 29.3-63.6 28.2v.1l-.1.05.25 2.8q.7 9.9 1.45 19.85 6.55 82.15 19.95 160.65l-3.25 47.9-.05.6.5.35.85.4.95-.3v-.1l.1-.05v-.35l1.9-28.2v-.15l1.4-20.45v-.05q-13.25-78.35-19.9-160.45-.8-9.95-1.5-19.95l-.1-1.05v-.1l63.55-28.2.3-37.7v-1.7l.1-.05v-.5h-1.9l-.45.4Z"></path></g><g id="style_09_color_b_svg__j"><path fill="#414448" d="M-2.15-1.3q.543-.867 1.55-1.15.325-.059.65-.05-.162-3.205-4.1-4.3-3.327-.917-6.9 1.8-9.453 7.788-4.7 16.95 1.197 2.149 2.85 4.05.123.082.2.15L-2.15-1.3Z"></path><path fill="#FFF" d="M-.6-2.45q-1.007.283-1.55 1.15L-12.6 16.15l-2.15 3.6q-2.29 3.932.75 8.6L2.15 1.25Q2.68.392 2.4-.6q-.232-1.009-1.15-1.55-.4-.256-.85-.35-.179-.005-.35 0-.325-.009-.65.05Z"></path></g><g id="style_09_color_b_svg__l"><path d="m723.1 427.2-.45.4-.25 37.65-63.7 28.25.25 2.8q.7 9.9 1.45 19.85 6.55 82.15 19.95 160.65l-3.3 48.5.5.35.8.4 1-.3 1.95-28.9 1.35-19.85v-.15q-13.25-78.25-19.9-160.15-.8-9.95-1.5-19.95l-.1-1.15h.05l-.05-.6h.05l63.5-28.2v-.8l.3-32.95V427.2h-1.9Z"></path><path fill="#FCD13E" d="m730.25 470.25.25-40.5-5.5-.85v4.15l-.3 32.95v.8L661.2 495l.05.95q.7 10 1.5 19.95 6.65 82 19.9 160.3v.8l-1.35 19.85 5.55.4 1.35-20.85.1-.45-.1-.5q-13.25-77.95-19.85-159.55-.75-8.8-1.35-17.65l63.25-28Z"></path></g><g id="style_09_color_b_svg__m"><path d="m723.1 427.2-.45.4-.25 37.65-63.7 28.25.25 2.8q.7 9.9 1.45 19.85 6.55 82.15 19.95 160.65l-3.3 48.5.5.35.8.4 1-.3 1.9-28.7 1.4-20.45v-.05q-13.25-78.35-19.9-160.45-.8-9.95-1.5-19.95l-.1-1.15 63.55-28.2.3-37.7v-1.9h-1.9Z"></path><path fill="#369CEB" d="m730.25 470.45.25-40.5-5.5-.85-.3 37.7-63.55 28.2.1 1.15q.7 10 1.5 19.95 6.65 82.1 19.9 160.45v.05l-1.4 20.45 5.6.4 1.35-20.85.1-.45-.1-.5q-13.25-77.95-19.85-159.55-.75-8.8-1.35-17.65l63.25-28Z"></path></g><g id="style_09_color_b_svg__n"><path fill="#369CEB" d="M920.85 1462q6.6-.1 10.4-.7 14.15-1.85 17.5-8.85.8-2.1.95-4-2.15 5.65-47.2 4.05-47.65-2.25-72.1-9.7-10.2-1.85-12.65-5-.2 14.65 16.1 16.65 47.2 9.2 87 7.55m-63.9-135.2q2.05-1 3.15-2-.05-1.3-.15-2.5-.05-.75-.05-1.2-.2-4.45-.4-9.35-23.5 18.05-47 3.7l1.35 12.25q1.7 1.15 4.95 2.7 8.55 4.1 19.6 2.2 11.1-1.9 18.55-5.8M606.7 1477.1q-26.1 1.35-39.55-4.95-3.4-1.6-5.85-3.2-5.3-2.55-5.55-5.2-2.65 13.55 13.1 19.35 15.5 5.25 42.25 2.1 10.5-1.2 30.3-4.2 11.55-.6 13.95-9.6-28.85 5.35-48.65 5.7m-36.45-135.3-.1 8.65 1.15.55q8.1 3.1 21.55 5.15 14.5 2.2 28.9-2.45l1.1-7.95q-3.45.8-6.5 1.5-12.05 2.4-22.4 1.15-10.8-1.45-19.6-4.9-1.2-.35-2.3-.9l-1.8-.8m101.8-631.5 3.3-48.9Q661.7 581.25 655 497.35l-78.85.55-1.85 1.9q.1.6-.7.65l-22.35 22.5q1.05 5.15-6.15 11.15l-8.05-30.9q-4.25 9.3-8.6 20.5-34.15 83.15-47.85 138.15v.4q-.05 1.4-.45 11.5-2.15 64.05 1.4 137.45 1.1 2.8 5.6 4.15l-.3-7.45q5.25-4.5 12.35-5.05 8.4-.4 15.35 5.25l.2 5.75q3.65-1.4 4.9-3.6 3.45-70.5 8.75-137.4.25-3.45.55-6.85-.3 3.4-.55 6.85l22.95-49.75 37.9-74.8 14.15-28-14.15 28q9.25 29.6 12.9 42.05 5.65 19.6 30.1 82.65-2.25 7.95-4.3 15.85-.15.65-.25 1.3l-.95 3.4q8.25 3.05 20.85 7.95 10.55 3.95 24.45 8.8m43.55-303.9q-1.4-.3-2.65-.55-3.05-.65-6-1.4-12.25-2.9-27.75-7.5l.1 8.35q15.1 4.25 27.65 7.35 2.65.6 5.3 1.3.35.05.7.15 1.25.25 2.65.6 1.45.4 2.9.7l.05-8.45q-1.5-.3-2.95-.55m17.95 3.75q-.1-3.5-.15-8.3l-12.25 4.7-.1.05v1.75l.1.05 5.5.8v3.55l6.9-2.6m114.7 103.55q-.3-.85-.6-1.85-.25-.7-.4-1.05l-.2-.15q.15.45.35.95 1.1 3.5 2.3 7.2-6.1-5.05-13.1-11.05-7.05-6.1-12.5-9.3-2.5-1.3-5.05-2.15-.05 0-.05-.05l-14.9.1-1.2.45q-.15-.25-.25-.45l-139.45.95q6.75 83.25 20.3 162.75l.1.5-.1.5-1.4 21.25h-.1v.15l-5.5-.4h-.1l-1.95 28.85v.15q27.95 9.55 69.05 22.25 24.7-17.2 56.05-42.9h.05q-.3-1.55-.65-3.1-2.25-10.5-5.05-20.75-.05-.2-.1-.35l12.3-73.7q2.25-2.05 4.2-4.25 10.85-12.1 12.85-26.9 3.65-19.5-12.65-50.9-.25-.8-.65-1.4.4.6.65 1.4 16.3 31.4 12.65 50.9-2 14.8-12.85 26.9l28.85 60.3q26.6 82.6 52.85 153.7 2 2.4 6.7 2.3l-2.8-7.45q3.6-6.1 10.15-8.85 7.75-3.1 16.3.3l2 5.7q3.05-2.6 3.55-5.2-17.65-62.7-35.8-130.55-6.3-23.9-7.25-27.25l-36.6-117.55Z"></path><path fill="#FFF" d="M860.1 1324.8q-1.1 1-3.15 2-7.45 3.9-18.55 5.8-11.05 1.9-19.6-2.2-3.25-1.55-4.95-2.7 2.7 36.9 3.2 49.4.55 12.55 1.1 26.05.6 13.55.65 21.75 0 8.25-.75 9.65-.7 1.5-.3 3.25 2.45 3.15 12.65 5 24.45 7.45 72.1 9.7 45.05 1.6 47.2-4.05.05-1 .05-1.8-.2-2.05-.85-3.8-3.65-7.9-19.85-13.3-15.9-5.85-27.35-10.5-11.3-4.7-20.4-9.6-7.55-4.1-15.95-9.2.05-2.95-.1-6.1l-4-53.15q-.6-7.35-1.15-16.2m5.3 76.25q5.65 4 13.5 7.6-7.85-3.6-13.5-7.6-.3-.25-.6-.55-4.55-4-5.25-12.15 0-.85-.05-4 .05 3.15.05 4 .7 8.15 5.25 12.15.3.3.6.55m-295.25-50.6v12.75q.05 4.25-.25 11.5-.3 7.2-1.05 15.15-.7 7.85-1.45 11.8-.8 3.75-.7 15.3-.05 9.1-10.95 46.8.25 2.65 5.55 5.2 2.45 1.6 5.85 3.2 13.45 6.3 39.55 4.95 19.8-.35 48.65-5.7.3-.75.55-1.45 1.5-9.9-5.35-17.1-20.85-17.6-32.75-29.75-2.05-2.35-4.05-4.95-.8-1.15-1.55-2.25-2.7-4.05-2.85-12.3.15 8.25 2.85 12.3.75 1.1 1.55 2.25l2.8-27.15 5.2-37.3q-14.4 4.65-28.9 2.45-13.45-2.05-21.55-5.15l-1.15-.55m-27.3-859.6q-.15.4-.35.75-2.6 5.35-5.45 11.6l8.05 30.9q7.2-6 6.15-11.15l.05-.1-8.45-32m285.7 1.65-.65-.15q.15 1.15.2 2.25v1.65h-6.75q.052.002.1.05l2.65 2.15q5.45 3.2 12.5 9.3 7 6 13.1 11.05-1.2-3.7-2.3-7.2l-18.85-19.1Z"></path><path fill="#414448" d="M854.65 1080q.05 1.25.15 2.5v-.2q0-.8-.1-1.65l-.05-.65m-180.2-368.95v.15l-.1.05v.1l-1 .3-.85-.4-.5-.35.05-.6q-13.9-4.85-24.45-8.8-12.6-4.9-20.85-7.95-13.8 54.3-15.85 101.2-.2 4.55-.25 9.15.05-4.6.25-9.15-6.2 27.35-9.2 59.35-10 94.65-11.3 225.4-6.05 36.4-9.85 69.8-.25 2.35-.5 4.8-1.9 16.75-3.45 36.4-1.45 17.95-2.6 38.2l-.05.1q-.6 11.15-1.05 23.2-.6 15.85-1.15 30.6-.6 14.6-.9 28.05l-.1 5.35q-.1 5.25-.2 10.25 0 .65-.05 1.3v.15q-.05 1.5-.15 4.15-.1 2.6-.1 5.4-.1 2.75 0 4.55l1.8.8q1.1.55 2.3.9 8.8 3.45 19.6 4.9 10.35 1.25 22.4-1.15 3.05-.7 6.5-1.5l10.5-82.95q1.9-15.85 3.35-28.6l.05-.1q2.6-23.2 4.35-38.05.5-4.35.95-7.95 1.2-10.7 3.8-33.15l.75-6.2q1.65-14.5 3.8-35.4.55-6.2 1.65-15.35.2-.9.35-1.85l57.15-273.6 2.1-9.95q.1-.65.3-1.35.1-.55.2-1.2.75-3.85.9-7.5 17.2-3.9 26.7-6.1 6-1.35 14.45-3.3-8.45 1.95-14.45 3.3-9.5 2.2-26.7 6.1-.15 3.65-.9 7.5-.1.65-.2 1.2-.2.7-.3 1.35l-2.1 9.95 34.1 113.5 45.7 140.95q.45-5.95 1.1-11.8-.65 5.85-1.1 11.8-2.75 35.95 1.25 74.3 4.5 44.65 12.75 100.7 8.15 55.85 9.15 63.45 23.5 14.35 47-3.7-.4-13.7-1-73.1-.65-59.5-1.2-99.55-.5-26.55-2.5-56.6-.1-1.25-.15-2.5-1-13.9-3.35-28.35-1.15-9.4-2-14.6-12.3-120.5-33.95-225.1-1.35-11.05-5.7-26.8l-1.5-6.25-.1 5.1.1-5.1q.25-45.95-8.6-88.5-31.35 25.7-56.05 42.9-41.1-12.7-69.05-22.25m38.5-296.95q-.35-.1-.7-.15-2.65-.7-5.3-1.3-12.55-3.1-27.65-7.35v5.25q-.1 1.85-.25 4.15-.45 4.8-4.35 7.4-.5.4-.95.7-.6.4-1.3.85-6.4 3.75-18.55 6.8-31.3 8-62.5 17.5-14.15 4.75-22.6 9.5l.05.05q-.5.25-.95.5-.3.2-.65.4-2.05 1.25-3.8 2.65-2.3 1.9-4.25 4.25-7.6 8.3-16.35 25.55l8.45 32-.05.1 22.35-22.5.7-.65 1.85-1.9 78.85-.55q-.75-10.15-1.5-20.25l-.25-2.85.1-.05v-.1l64.95-28.8.2-29.9q-1.45-.3-2.9-.7-1.4-.35-2.65-.6m27.85 16q-.4-.15-.75-.3l.2.1q.25.1.55.2m87.1 62.25.65.15 18.85 19.1q-.2-.5-.35-.95-.55-1.4-1-2.7-.8-2.2 1.2 2.85.15.35.4 1.05-.15-.45-.15-.5l-.2-.5q-10.8-27.95-20.1-40.2.15-.1.2-.2-9.5-12.35-24.45-17.95Q788 446.85 770 440.55q-17.6-6-23.55-8.25-1.9-.75-4-1.55-.4-.15-.75-.3l-.9-.35q-.3-.1-.55-.2l-.2-.1q-2.15-.95-3.7-2.9-.8-.95-1.35-2.05-.6-1.15-.8-2.45-.25-1.3-.35-1.85 0-.55-.05-1.4-.1-.85-.1-1.8l-.15-5.45v-1.75l-6.9 2.6-.25 37.8-.1.05v.05l-64.45 28.6q.6 9 1.35 17.9v.15l139.45-.95q.1.2.25.45l1.2-.45 14.9-.1h9.1v-1.65q-.05-1.1-.2-2.25Z"></path><path d="M721.15 406.05h-1.95l-.45.4v.3l-.1.05v.1h-.1v.05l-.05 8.45-.2 29.9-64.95 28.8v.1l-.1.05.25 2.85q.75 10.1 1.5 20.25 6.7 83.9 20.35 164.05l-3.3 48.9-.05.6.5.35.85.4 1-.3v-.1l.1-.05v-.3l1.95-28.85v-.15l1.4-20.85V661q-13.5-80-20.3-163.85-.8-10.15-1.55-20.35l-.1-1.1v-.1l64.9-28.75.3-38.5v-1.75l.1-.05v-.5Z"></path></g><g id="style_09_color_b_svg__t"><path d="M725 430.6v-3.4h-1.9l-.45.4-.25 37.65-63.7 28.25.25 2.8q.7 9.9 1.45 19.85 6.55 82.15 19.95 160.65l-3.3 48.5.5.35.8.4 1-.3 1.95-28.9 1.35-19.85v-.15q-13.25-78.25-19.9-160.15-.8-9.95-1.5-19.95l-.1-1.15h.05l-.05-.6h.05l63.5-28.2v-.8l.3-32.95v-2.45Z"></path><path fill="#FCD13E" d="m730.25 470.25.25-40.5-5.5-.85v4.15l-.3 32.95v.8L661.2 495l.05.95q.7 10 1.5 19.95 6.65 82 19.9 160.3v.8l-1.35 19.85 5.55.4 1.35-20.85.1-.45-.1-.5q-13.25-77.95-19.85-159.55-.75-8.8-1.35-17.65l63.25-28Z"></path></g><g id="style_09_color_b_svg__u"><path d="m718.75 406.85-.25 38.45-65.05 28.85.25 2.85q.75 10.1 1.5 20.25 6.7 83.9 20.35 164.05l-3.35 49.5.5.35.8.4 1.05-.3 1.95-29.3 1.4-20.85v-.05q-13.5-80-20.3-163.85-.8-10.15-1.55-20.35l-.1-1.15 64.9-28.8.3-38.5v-1.95h-1.95l-.45.4Z"></path><path fill="#369CEB" d="m726.75 409.25-5.6-.85-.3 38.5-64.9 28.8.1 1.15q.75 10.2 1.55 20.35 6.8 83.85 20.3 163.85v.05l-1.4 20.85 5.7.4 1.4-21.25.1-.45-.1-.55q-13.55-79.55-20.3-162.9-.75-8.95-1.35-18l64.55-28.6.25-41.35Z"></path></g><g id="style_09_color_b_svg__v"><path fill="#202020" d="M-6.6-3.5q-.65.75-.65 1.8T-6.6.1q.65.75 1.6.75.95 0 1.6-.75.65-.75.65-1.8t-.65-1.8q-.65-.75-1.6-.75-.95 0-1.6.75Z"></path><path fill="#EFD16A" d="M2.5-1.45Q1.75-2.3.7-2.3t-1.75.85Q-1.8-.65-1.8.5t.75 2q.7.8 1.75.8t1.8-.8q.7-.85.7-2t-.7-1.95Z"></path></g></defs><g transform="matrix(1.02097 0 0 1.02097 -19.05 -29.5)"><use xlink:href="#style_09_color_b_svg__a"></use><use xlink:href="#style_09_color_b_svg__b" transform="translate(18.65 28.85) scale(.97946)"></use><use xlink:href="#style_09_color_b_svg__c" transform="translate(18.65 28.85) scale(.97946)"></use><use xlink:href="#style_09_color_b_svg__d" transform="translate(18.65 28.85) scale(.97946)"></use><use xlink:href="#style_09_color_b_svg__e" transform="translate(18.65 28.85) scale(.97946)"></use></g><use xlink:href="#style_09_color_b_svg__f" transform="translate(824.1 496.3) scale(1.61566)"></use><g transform="rotate(2.704 -10068.929 16867.617) scale(1.61563)"><use xlink:href="#style_09_color_b_svg__g"></use><use xlink:href="#style_09_color_b_svg__h"></use></g><use xlink:href="#style_09_color_b_svg__i" transform="matrix(1.70543 0 0 1.55994 709.25 423.1)"></use><use xlink:href="#style_09_color_b_svg__j" transform="rotate(16.983 -1372.182 2192.495) scale(1.61562)"></use><use xlink:href="#style_09_color_b_svg__k" transform="matrix(1.02097 0 0 1.02097 -19.05 -29.5)"></use><use xlink:href="#style_09_color_b_svg__l" transform="matrix(1.02097 0 0 1.02097 -19.05 -29.5)"></use><use xlink:href="#style_09_color_b_svg__m" transform="matrix(1.02097 0 0 1.02097 -19.05 -29.7)"></use><g><use xlink:href="#style_09_color_b_svg__n"></use><use xlink:href="#style_09_color_b_svg__o"></use><use xlink:href="#style_09_color_b_svg__p"></use><use xlink:href="#style_09_color_b_svg__q"></use><use xlink:href="#style_09_color_b_svg__r"></use></g><use xlink:href="#style_09_color_b_svg__f" transform="translate(824.1 496.3) scale(1.61566)"></use><g transform="rotate(2.704 -10068.929 16867.617) scale(1.61563)"><use xlink:href="#style_09_color_b_svg__g"></use><use xlink:href="#style_09_color_b_svg__h"></use></g><use xlink:href="#style_09_color_b_svg__i" transform="matrix(1.70543 0 0 1.55994 709.25 423.1)"></use><use xlink:href="#style_09_color_b_svg__j" transform="rotate(16.983 -1372.182 2192.495) scale(1.61562)"></use><use xlink:href="#style_09_color_b_svg__s" transform="matrix(1.02097 0 0 1.02097 -19.05 -29.5)"></use><use xlink:href="#style_09_color_b_svg__t" transform="matrix(1.02097 0 0 1.02097 -19.05 -29.5)"></use><use xlink:href="#style_09_color_b_svg__u"></use><g transform="matrix(1.47311 -.07733 0 1.65515 708.297 422.338)"><use xlink:href="#style_09_color_b_svg__v"></use><use xlink:href="#style_09_color_b_svg__w" transform="matrix(1.12042 .05234 0 1 .95 .4)"></use></g></svg>