<svg xmlns="http://www.w3.org/2000/svg" xmlns:xlink="http://www.w3.org/1999/xlink" preserveAspectRatio="none" viewBox="0 0 1500 1500" fill="#fee8d3"><defs><path d="M767.75 257.7q-1.25.65-2.5 1.35-1.15.6-2.25 1.25-1 .65-1.85 1.45-.05.05-.15.1l-.15.15q-.1.05-.15.15-.1 0-.15.05-.1 0-.15.05-.1 0-.2.05-.15.05-.25.05l-.2.1-.2.1-.2.1q-.05.05-.1.05l-.1.1H758.55q-.25 0-.45.05l-.4.1q-.2.1-.4.15l-.2.1-.15.15q-.1.05-.2.15-.1.05-.15.15l-.2.1-.4.5q-.35.4-.5.9-.1.4-.2.85-.05.5 0 1.05t.2 1.05q.1.55.3 1.05.05.1.05.2t.05.2.05.2q0 .1.05.15 0 .1.05.15.05.1.05.15.05.2.15.4l.1.3q.1.2.15.4.1.2.2.35.1.2.25.35l.2.3q.1.15.15.3l.1.2q.05.1.1.15.05.05.05.1.05.05.05.15.05.1.1.15.05.05.05.15.1.1.15.2l.15.15q.05.1.15.2.05.1.15.15.05.1.1.15l.15.15.15.15.1.1q.1.05.15.15l.1.1.15.15.1.1.1.1q.05.05.05.1t.05.05q.05.1.1.25.05.1.05.2.05.1.1.15.05.1.1.15.05.1.1.15.05.1.15.15l.1.1q.05.1.15.2l.15.15.15.15q.05.05.1.15l.2.3q.1.1.2.25.15.1.3.25l.3.2q.15.15.3.25t.25.2l.15.15.15.15.15.15.2.1q.1.05.15.15l.2.1q.05 0 .05.05l.1.1q.05.05.1.05l.15.15.15.15.15.15.2.1q.1.05.15.15.15.05.3.15.1.05.15.1.05.05.15.1.05.05.15.1.05.05.15.1.1.05.2.05l.2.1.2.1q.1 0 .15.05.1.05.15.1l.2.1q.05.05.15.1.1 0 .2.05.05.05.15.1.1 0 .2.05.1 0 .15.05.1 0 .2.05h.2q.1 0 .2.05.1 0 .2.05t.2.05q.1.05.25.05.2.05.45.05.2.05.45.05h.4q.05.05.15.1l.2.1q.1 0 .2.05t.15.05q.1.05.2.05.1.05.25.05.1.05.2.05h.2q.1.05.2.05.1.05.15.05.1.05.2.05t.2.05h.4q.25.05.45.05h1.2q.55-.05 1.2 0h1.1q.55 0 1.05-.05.4-.05.8-.15l.4.1q.25.05.6.05H780.9q.35 0 .65-.1.3-.05.55-.2.15 0 .25-.05.1 0 .2-.05t.2-.05l.2-.1q.1-.05.15-.1l.2-.1q.1-.05.2-.15.05-.05.15-.1l.4.1.6.1h1.5q.4 0 .8-.1t.7-.25q.1-.05.2-.05l.2-.1q.1 0 .2-.05l.2-.1.2-.1q.1-.05.15-.1.05 0 .15-.05l.1-.1q.1 0 .15-.05.1-.05.15-.1l.2-.1q.1 0 .15-.05l.2-.1q.1-.05.15-.1h.1l.1-.1q.1 0 .15-.05.1-.05.2-.05.1-.05.15-.1.1 0 .2-.05t.15-.1l.2-.1q.05-.05.15-.1.1-.05.15-.15.1-.05.15-.1l.1-.1q.05 0 .1-.05.1-.05.15-.05l.3-.2.3-.2q.2-.1.35-.2.15-.1.25-.2t.2-.25q.15-.15.25-.3.1-.05.15-.15.1-.05.2-.15.05-.05.15-.1l.15-.15.15-.15q.05-.1.1-.15.05-.05.1-.15.1-.05.15-.15.1-.05.15-.15l.15-.15q.05-.1.1-.15.05-.1.1-.15.05-.05.1-.15.05-.05.1-.15l.1-.1q.1-.05.15-.1l.1-.1q.05-.1.15-.15.05-.1.1-.15.05-.1.15-.15.05-.1.1-.15l.1-.2.1-.1q0-.05.05-.1t.05-.1l.1-.1q0-.05.05-.1l.2-.2q.1-.15.25-.25.05-.1.15-.15l.15-.15q.1-.1.15-.2.15-.15.25-.3.15-.2.3-.35.05-.05.05-.15.05-.1.1-.15l.1-.2q0-.05.05-.05l.1-.2q.05-.1.05-.2.05-.1.1-.25.05-.05.1-.15.05-.1.05-.2.05-.05.1-.15l.1-.1q.05-.1.1-.15l.1-.2q.05-.1.1-.15 0-.1.05-.2t.05-.2.05-.2.05-.2q.05-.05.05-.15.05-.05.05-.15h.05q.1-.15.15-.35.1-.15.2-.35.05-.1.1-.25.1-.15.15-.3.1-.15.15-.35l.2-.4q0-.1.05-.25.05-.05.05-.15l.1-.2q0-.1.05-.2v-.2q.05-.05.05-.15v-.15q.05-.15.1-.25t.05-.2.05-.2q.05-.15.05-.25v-.2q.05-.1.05-.2t.05-.2q.05-.05.05-.15.05-.1.05-.15 0-.1.05-.2v-.2q.05-.1.05-.2v-.15l.1-.2q0-.1.05-.2v-.2q.05-.1.05-.2t.05-.2v-.3q0-.1.05-.15.05-.2.1-.35l.1-.4q.05-.2.05-.45.05-.2 0-.4 0-.25-.05-.45l-.1-.4q-.05-.15-.15-.35.05-.05.05-.1v-.1q0-.15-.05-.25v-.4q0-.1-.05-.25v-.2q-.05-.1-.05-.2v-.25q-.1-.15-.15-.35-.1-.2-.2-.35-.1-.2-.2-.35-.1-.15-.25-.3l-.3-.3q-.15-.1-.3-.25-.1-.15-.25-.3l-.25-.25q-.15-.1-.35-.2-.15-.15-.3-.2-.15-.1-.35-.2-.15-.05-.35-.1-.1 0-.2-.05h-.2q-.1 0-.2-.05h-.2q-.1-.05-.2-.05h-.2q-.1 0-.2.05h-.2q-.1.05-.2.05-.1-.2-.3-.4-.35-.4-.8-.65-.4-.25-.9-.35-.45-.1-.85-.05-.5 0-.95.15-.4.15-.75.45-.35.3-.7.65l-.2-.1-.4-.1q-.25-.05-.45-.1h-.45q-.2 0-.4.05-.25 0-.45.05l-.4.1q-.1.05-.2.05h-.85q-.45 0-.9.05l-1.2.2-1.1.2q-.6.05-1.1.2-.8-.5-1.75-.45-1.3.05-2.6.45-1.2.4-2.4.75-1 .3-2.05.65l-1.9.7q-1.05-.4-2.15-.2-1.5.25-2.85 1m-38.65 7.7q-.05-.05-.1-.15-.05-.05-.1-.15l-.15-.15q-.05-.05-.15-.1l-.15-.15q-.1-.05-.2-.15-.1 0-.15-.05l-.2-.1q-.05-.05-.15-.05-.1-.05-.2-.05-.2-.05-.35-.05h-.4q-.05-.05-.15-.1-.05 0-.15-.05l-.05-.05q-.05 0-.1-.05-.1-.05-.15-.1-.05-.05-.15-.1-.1 0-.15-.05l-.2-.1q-.05 0-.15-.05h-.15q-.05-.05-.15-.05-.05-.05-.05-.1-.1-.05-.15-.1-.05-.1-.1-.15-.1-.05-.2-.15-.05-.05-.15-.1l-.15-.15-.2-.1-.2-.1-.4-.2q-.1-.05-.25-.15-.1-.05-.15-.1-.25-.25-.5-.4-.2-.15-.35-.25l-.5-.3q-.25-.1-.55-.25l-.4-.2-.25-.25-.4-.4q-.2-.2-.45-.3-.25-.2-.45-.3-.3-.1-.55-.2l-.5-.1q-.25-.1-.45-.2-.25-.1-.45-.15-.2-.05-.45-.15-.2-.05-.45-.1-.15-.05-.35-.1-.1-.05-.2-.05l-.2-.1h-.25l-.4-.1q-.2 0-.4-.05h-.45q-.05-.05-.15-.1-.1 0-.2-.05-.1 0-.2-.05-.1 0-.2-.05-.2 0-.4-.05h-.35q-.2 0-.35-.05-.3-.1-.55-.15-.5-.1-.95-.1h-1.3q-.45 0-.9.1-.65-.35-1.25-.65-.65-.35-1.3-.6t-1.35-.4q-.85-.15-1.75-.2-.95-.05-1.9.05l-.2.1q-.1 0-.2.05t-.15.1l-.2.1q-.1.05-.15.1-.1 0-.2-.05-.5-.25-1.05-.5-.5-.15-.95-.35l-.9-.3q-.45-.15-.9-.25-.65-.15-1.2-.3-.1 0-.2-.05l-.4-.1q-.2 0-.4-.05h-.45q-.3 0-.55.05l-.6.1q-.1 0-.2.05-.05 0-.15.05-.1 0-.15.05h-2.7q-.45 0-.85.1-.45.05-.85.25-.1.05-.2.05t-.2-.05h-.2q-.1 0-.2-.05h-.2q-.05 0-.15-.05h-.4q-.2 0-.35-.05-.15.05-.25.05t-.25.05q-.05 0-.15.05-.05 0-.15.05-.05.05-.15.1l-.15.15-.1.1q-.05.1-.1.15-.013.027-.05.05h-.7q-.5 0-.95.05-.232.026-.5.1-.1 0-.2-.05h-.4q-.1.05-.2.05-.1.05-.15.05-.1.05-.15.05-.1.05-.15.1-.1.05-.15.1-.1.05-.15.1l-.15.15q-.05.1-.15.15-.05.1-.1.15 0 .1-.05.15l-.1.2q-.05.05-.1.15l-.1.2-.1.2q-.016.032-.05.05l-.1.1q-.1.05-.15.1v.05q-.05.05-.15.1-.05.1-.1.15-.05.05-.05.15-.05.05-.1.15 0 .05-.05.15-.05.15-.05.35v.5q0 .1-.05.2v.2q-.05.1-.05.2v.4q-.15.2-.3.45-.15.35-.25.75-.1.5-.05 1 .05.4.2.75.1.35.4.6.05.1.1.15.1.05.15.1.037.037.1.05v.45q.05.1.05.15 0 .1.05.15 0 .05.05.1v1.25q.05.1.05.15.05.1.05.2.05.05.05.15.05.05.1.15v.15q.05.1.05.15.05.1.05.15.05.05.05.15l.1.1q.05.1.1.15.05.1.1.15.05.05.1.15 0 .05.05.1 0 .05.05.15.05.05.1.15 0 .1.05.15 0 .1.05.2 0 .05.05.15.05.05.05.15.05.1.05.15.05.1.05.2.05.05.1.15.05.1.05.15l.1.1q0 .1.05.15.05.1.05.15.05.1.1.15.05.1.05.15.05.05.05.15l.1.1q.05.1.1.15 0 .05.05.15.05.05.05.15l.1.1.1.1q.05.1.1.15 0 .1.05.15.05.1.1.15 0 .05.05.1t.05.1l.1.1.1.1.1.1q.1.05.15.1.05.1.1.15l.1.1.1.1q.05.1.1.15 0 .05.05.1 0 .05.05.1 0 .05.05.1 0 .05.05.1l.1.1.1.1q0 .05.05.1l.1.1.1.1.1.1q.05.05.05.1l.1.1q.05 0 .1.05t.05.1q.1.05.15.1l.1.1q0 .05.05.1t.1.05l.1.1q0 .05.05.1t.1.05q.05.1.1.15l.1.1q.05 0 .1.05t.05.1l.1.1q.05 0 .05.05.05.05.1.15.05.05.05.15.05.05.1.15l.1.1q.1.05.15.1.05.1.1.15.1.05.15.05l.1.1q.1.05.15.05.05.05.15.1.05 0 .1.05t.1.05q.05.05.15.1.05 0 .15.05.05 0 .05.05.1.05.15.05l.1.1q.05 0 .1.05.1.05.15.05v.05h.05l.05.05q0 .05.05.1l.1.1q.05.05.1.05.05.05.05.1.1.05.15.1.05.1.1.15l.1.1q.05.05.1.05.1.05.15.1.05.05.1.15l.1.1.1.1q.05.1.1.15l.1.1.1.1q.1.05.15.05l.1.1q.05.05.15.05l.1.1q.1.05.15.1l.05.05.1.1.1.1q.05.05.1.05.05.05.05.1l.1.1q.05.05.1.05l.1.1q.05.05.15.05l.1.1q.05.05.15.05.05.05.15.1.1.05.15.1.1 0 .15.05.1.05.15.05.1.05.15.1.05 0 .15.05.05.05.1.05.1.05.15.05.1.05.15.05.1 0 .15.05h.05q.05 0 .15.05.05 0 .1.05.05 0 .1.05h.15q.05.05.1.05.1 0 .15.05h.3q.05.05.15.05.05.05.1.05.05.05.1.05t.1.05h.15q.1 0 .2.05h.3q.1.05.15.05h.3q.1 0 .15.05.1.05.15.05.1.05.2.05h.05q.105.595.1.05h.15q.1.05.15.05.1.05.15.1h.2l.1.1q.05.05.15.1.05 0 .15.05.05 0 .15.05h.15q.1.05.2.05h.15q.1.05.2.05H697.8q.1 0 .15.05.1.05.15.05.1.05.15.05.1 0 .2.05h.15q.1.05.15.05l.2.1q.1 0 .15.05h.2q.05.05.15.05h.15q.05.05.15.1.05 0 .1.05.1 0 .15.05h.05l.1.1.1.1q.05.05.15.1.05 0 .1.05t.15.05.15.05q.05.05.1.05.05.05.15.05h.1q.1.05.15.05.05.05.1.05.05.05.1.05.1.05.15.1.05.05.15.1.05 0 .15.05.05 0 .15.05.15 0 .35.05.15 0 .3.05H704.75q.1-.05.15-.05.1-.05.2-.05.05-.05.15-.1.1-.05.15-.05.05-.05.1-.05t.15-.05.15-.05l.2-.1q.05 0 .15-.05l.05-.05q.1 0 .15-.05.05 0 .1-.05.1.05.15.05.05.05.15.1.05.05.15.05.05.05.15.1h.15q.1.05.2.05h.15q.05 0 .15.05.05 0 .15.05.05.05.15.05.05.05.15.05.15.05.35.05.15.05.35.05h.3q.2-.05.35-.05l.3-.1.2-.1h.25q.15-.05.3-.05.1-.05.25-.1.1-.05.25-.15.05 0 .1-.05l.05-.05H712.4q.1 0 .2-.05h.2q.1-.05.25-.05h.2l.2-.1q.1-.05.15-.1.1 0 .2-.05l.2-.1q.1-.05.15-.1.1-.05.2-.15.05-.05.15-.1.1 0 .2-.05h.15q.1 0 .2-.05.1 0 .2-.05.1 0 .2-.05l.3-.2q.2-.05.35-.2h.1q.1 0 .2-.05.1 0 .2-.05l.2-.1q.1-.05.2-.05l.2-.1q.1 0 .2-.05.05-.05.15-.1.1 0 .2-.05t.15-.1l.2-.1q.1-.05.15-.1l.2-.1q.05-.05.15-.1.05-.05.1-.15.1-.05.15-.1.05-.05.15-.1.05 0 .1-.05h.05q.05-.05.1-.05.1 0 .15-.05.1 0 .15-.05l.2-.1q.05 0 .15-.05.05-.05.15-.1.1-.05.2-.05t.2-.05.2-.05q.1-.05.15-.1l.2-.1q.15-.1.35-.2l.15-.15q.1 0 .15-.05.1-.05.15-.05l.2-.1.2-.1.2-.1.15-.15.2-.1.1-.1q.1-.05.15-.1l.15-.15.1-.1q.05-.05.1-.05 0-.05.05-.05.1-.05.15-.1.1-.05.15-.15.05-.05.15-.1.05-.05.1-.15.15-.1.25-.25.05-.1.15-.15l.1-.2q.05-.05.05-.1.05-.05.1-.15l.1-.1q.05-.1.05-.15.05-.05.1-.15.05-.05.1-.15l.05-.05.1-.1.1-.1.1-.1q.05-.1.1-.15l.15-.15q.05-.1.1-.15.05-.1.1-.15.05-.1.1-.15l.1-.1q.1-.1.2-.15l.15-.15q.1-.05.15-.15.1-.05.15-.15l.1-.1q.05-.05.15-.1.05-.1.1-.15.2-.2.4-.35.1-.1.25-.2l.25-.25.2-.3.2-.3q.1-.2.1-.4l.1-.2.1-.2q0-.1.05-.2v-.15q.05-.1.05-.15l.1-.2q.05-.1.05-.2.05-.1.05-.2.05-.1.05-.2.05-.1.05-.2v-.4q0-.15.05-.35 0-.1.05-.2t.05-.2.05-.2.05-.2.05-.2v-.25q.1-.2.15-.4.05-.2.05-.4.05-.2.05-.45v-.4l-.1-.4q0-.1-.05-.2 0-.1-.05-.15l-.1-.2q-.05-.05-.1-.15Z" id="a_face_19_outline_svg__a" fill="#FFF"></path><path d="M3.65-.2q0-1.6-1.2-2.75-1.1-1.1-2.65-1.1-1.6 0-2.75 1.1-1.1 1.15-1.1 2.75 0 1.55 1.1 2.7Q-1.8 3.65-.2 3.65q1.55 0 2.65-1.15 1.2-1.15 1.2-2.7Z" id="a_face_19_outline_svg__b" fill="#000"></path><path d="M730.35 266.1q.2-1.3.1-2.6-7-5.95-15.6-9.05-10.75-4.05-23.3-4.05-1.3 0-2.5.1-2.1 0-4.25.25-1.45-.15-2.85 0h-.25q-2.3.2-4.65.1-6.2-.1-11.95-1.65-.7-.15-1.3-.35.2.65.5 1.15.35 1.05.95 1.9 2.1 3.45 5.2 5.6 3.1 2.05 6.95 2.9.45.1.7.2 0-.55.1-1.05.05-.5.15-1.1.2-1.05.5-2 .2-.1.35-.1 5-.75 9.85-.85 1.2-.1 2.5-.1 13.65-.25 25.4 4.05 7.2 2.4 13.4 6.75v-.1Z" id="a_face_19_outline_svg__c" fill="#000"></path><path id="a_face_19_outline_svg__f" fill="#000" d="M755 263.55q-.05 1.25.1 2.55v.1q5.7-4.3 12.1-6.8 10.65-4.25 23.15-4 1.1 0 2.25.05 4.3.2 8.9.95.1 0 .25.05.3.9.5 2 .05.55.15 1.15v1q.35-.1.75-.2 3.45-.8 6.35-2.95 2.7-2.15 4.6-5.5.5-.95.9-1.9.25-.6.4-1.15-.45.15-1.15.3-5.25 1.55-10.85 1.65-2.05.1-4.2-.1h-.2q-1.3-.15-2.6 0-2-.2-3.8-.2-1.15-.1-2.25-.1-11.45 0-21.25 4.05-7.75 3.1-14.1 9.05Z"></path><path id="a_face_19_outline_svg__h" fill="#581F13" d="M10.35-7.35q-1.75-.7-4-.8Q3.2-8.2-4.7-6.9q-5.1.85-8.55.85.05.2.15.4 1.15 2.7 2.05 4.4 2.6 4.7 6.15 7.2 3.2 2.4 7.1 2.6 3.5 0 6.55-2.3 2.9-2.15 4.4-5.5.3-.7.55-1.4 0-.1.05-.1V-.9q.4-2.3-.5-3.9-.8-1.7-2.9-2.55Z"></path><path id="a_face_19_outline_svg__d" stroke="#000" stroke-width="1.5" stroke-linejoin="round" stroke-linecap="round" fill="none" d="M723.55 250.5q.6.7 1.4 1.4l.05.05q1.65 1.75 2.85 3.65 2.25 3.8 2.6 7.8v.1q.1 1.3-.1 2.6v.1q-.1.6-.15 1.1-1.5 8.15-10 12.75-8.6 4.4-19.35 2.55-10.8-1.8-17.35-8.85-3.4-3.7-4.65-7.65-.05-.2-.15-.45-.7-2.4-.6-5.05-.25-.1-.7-.2-3.85-.85-6.95-2.9-3.1-2.15-5.2-5.6-.6-.85-.95-1.9-.3-.5-.5-1.15.6.2 1.3.35 5.75 1.55 11.95 1.65 2.35.1 4.65-.1h.25q.55-.65 1.25-1.25 2.05-2.2 5.15-3.75.15-.05.4-.15.1-.1.3-.15 1.2-.6 2.5-1.15.85-.35 2.05-.4m-11.65 6.85q1.4-.15 2.85 0 2.15-.25 4.25-.25 1.2-.1 2.5-.1 12.55 0 23.3 4.05 8.6 3.1 15.6 9.05m-52.35-2.9q0-.55.1-1.05.05-.5.15-1.1.2-1.05.5-2 .2-.1.35-.1 5-.75 9.85-.85 1.2-.1 2.5-.1 13.65-.25 25.4 4.05 7.2 2.4 13.4 6.75"></path><path id="a_face_19_outline_svg__e" stroke="#000" stroke-width="1.5" stroke-linejoin="round" stroke-linecap="round" fill="none" d="M729.6 304.25q-.6 1.1-.7 1.95-.25 1.4.7 2.35 1.3 1.8 5.25 1.45 1.95-.2 5.05-.8.55.35 1.2.8 2.8 2.05 4.85 3.2 6.35 3.25 10.95.65 2.5-1.2 4.7-4.9.2-.25.35-.5h2.5q1.1 0 2.35-.1 1.2 0 2.5-.7 1.25-.6 1.6-2.05.1-.75-.6-2.05v-.1q-.25-.6-.5-1.05"></path><path id="a_face_19_outline_svg__g" stroke="#000" stroke-width="1.5" stroke-linejoin="round" stroke-linecap="round" fill="none" d="M799 250.75q-.55-.65-1.15-1.3-1.85-2.15-4.7-3.7-.3-.15-.55-.35-.25-.05-.4-.15-1-.5-1.85-.9-.7-.4-1.45-.6m-27.45 6.85q-.85.6-1.5 1.4-.95 1.15-1.8 2.5-2.9 4.2-3.15 8.95v.1q6.35-5.95 14.1-9.05 9.8-4.05 21.25-4.05 1.1 0 2.25.1 1.8 0 3.8.2 1.3-.15 2.6 0h.2q2.15.2 4.2.1 5.6-.1 10.85-1.65.7-.15 1.15-.3-.15.55-.4 1.15-.4.95-.9 1.9-1.9 3.35-4.6 5.5-2.9 2.15-6.35 2.95-.4.1-.75.2.15 2.6-.5 5.1-.05.25-.15.4-1.1 3.95-4.2 7.65-5.95 7.1-15.65 8.9-9.8 1.8-17.55-2.65-7.75-4.5-9.15-12.65 0-.6-.1-1.15v-.1q-.15-1.3-.1-2.55m47.4-2.95v-1q-.1-.6-.15-1.15-.2-1.1-.5-2-.15-.05-.25-.05-4.6-.75-8.9-.95-1.15-.05-2.25-.05-12.5-.25-23.15 4-6.4 2.5-12.1 6.8"></path><path id="a_face_19_outline_svg__i" stroke="#000" stroke-width="1.5" stroke-linejoin="round" stroke-linecap="round" fill="none" d="M-15.4-7.2q1.1.8 2.3 1.55 1.9 1.1 3.95 2.1Q-3.8-1.15 2-.4q5.9.7 11.75-.35 0-.05.05-.05l1.5-.3"></path></defs><use xlink:href="#a_face_19_outline_svg__a"></use><use xlink:href="#a_face_19_outline_svg__b" transform="matrix(1.64807 0 0 1.64777 714.25 262.55)"></use><g><use xlink:href="#a_face_19_outline_svg__c"></use><use xlink:href="#a_face_19_outline_svg__d"></use></g><use xlink:href="#a_face_19_outline_svg__e"></use><use xlink:href="#a_face_19_outline_svg__b" transform="matrix(-1.64807 0 0 1.64777 780.55 260.4)"></use><g><use xlink:href="#a_face_19_outline_svg__f"></use><use xlink:href="#a_face_19_outline_svg__g"></use></g><use xlink:href="#a_face_19_outline_svg__h" transform="matrix(1.72192 0 0 1.72166 738.15 341.3)"></use><use xlink:href="#a_face_19_outline_svg__i" transform="matrix(1.72192 0 0 1.72166 738.15 341.3)"></use></svg>