<svg xmlns="http://www.w3.org/2000/svg" xmlns:xlink="http://www.w3.org/1999/xlink" preserveAspectRatio="none" viewBox="0 0 1500 1500" fill="#2f1b12"><defs><path d="M729.05 213.1q2.35-2.3 2.75-5.95-5 3-19.8 4.65-14.6 1.45-21.1 4.1-6.6 2.65-11.15 6.65-4.75 4-9.3 12 7-8.75 14.5-11.4 7.4-2.7 18.65-4.35 11.15-1.45 17.15-2.35 5.95-.95 8.3-3.35m122.4-151.65q-1 20.5-18.05 30.35-17.1 9.8-37.45 4.85 9.85-4.85 13.4-15.2 3.75-10.45 1.2-20.7-2.8-11.15-11.35-17.65-9.1-6.9-20.5-7.05-6.65-.1-13.2 1.1.95.2 2.05.55 4.65 1.4 7.95 4.45 3.4 3.2 4.75 7.7 1.2 4.55 0 8.8-1.45 5.05-6.85 9.9-.7.45-1.55.95-10.35 6.45-26.4 10.45-3.8.95-14 2.6-10.15 1.65-47 3.15-36.9 1.5-60.9 19.2 0 .05.05.05-1.25.65-2.55 1.35-3.1 1.75-6 3.75t-5.7 4.2q-1.35 1-2.7 2.15-1.25 1.15-2.45 2.35-1.2 1.2-2.4 2.45-1.15 1.2-2.25 2.5-1.2 1.3-2.15 2.6-2.1 2.8-4 5.75-1.85 2.9-3.45 5.85-1.65 3.05-3 6.15-1.35 3.25-2.35 6.45-1.1 3.3-1.9 6.7-.75 3.3-1.15 6.7-.55 3.4-.7 6.85-.2 3.3-.2 6.7 2.6-4.45 5.55-8.6 2.9-4.1 6.05-8-.2 2-.35 4-.2 1.9-.25 3.9l-.2 4q-.1 2-.1 4t.1 4.1q.25 4 .7 8.1.65 4.95 1.45 10 .9 5.55 2.1 11.1 1.1 5.35 2.55 10.65 1.3 4.85 2.8 9.65 1.55 4.7 3.15 9.4 1.75 5 3.55 10.05.95 2.7 2.05 5.5l1.1.95q.152.954.35 1.3.246.387 1.05 3.25.856 2.916 4.3 7.5 3.437 4.627 3.25 1.95l2.8 3.2q4.55 11.05 11.75 28.2.25-43.9.35-52.1.05-8.25 0-25.2 4.3-4.3 8.9-12.1 4.5-7.9 4.75-18.35.2-10.45-1.35-19.75-.35-2.35-1.35-7.05v-.3l.05.05q2.1 3.35 4.1 6.5 4.9 8.5 7.6 18.05 2.85 9.4 1.35 18.85.3-.6 1.75-2.6 1.35-2.05 3.6-6.85 2.1-4.9 3.55-9.8 1.35-5.05 1.95-9.85.6-4.75.45-10.75-.25-5.85-1.4-10.2-.95-3.05-1.55-4.45l-.65-.7q11.4 9.95 41 11.8 32.1 2 52.9 17.05-.95-9.65-7.2-17.15-2.95-3.45-6.65-5.9 4.098-.222 12.45-1.05 15.273 9.734 17.7 13.05 2.481 3.324 5.95 8.2 3.525 4.915 6.6 14.15 3.119 9.245 4.4 13.85 1.277 4.646 1.4 6.35.134 1.756 1.95 2.35 1.86.637 1.85 1.55-2.53-1.62-6.45-2.6-4.1-.95-14.25-3.15-10.1-2.3-16.95-6.65.55 3.35 3.1 6.25 2.75 2.65 6.95 3.95 4.3 1.15 9.9 2.15 5.5 1.05 10.7 2.35 5.25 1.35 8.05 3.8.3.35.65.7.048.55 1.05 1.55-.113-.194-.05-.3.274.371.55.75 1.041.967 2.8 2.25-1.792-1.228-2.65-2 1.318 2 2.5 4.6.229-.594.2-1.45 1.23-6.947 5.6-11.2 4.87-4.69 11.3-19.9 6.424-15.158 2.45-25.75-3.975-10.548-7.5-12.25 21.65 7.2 36.1 25.75 4.45-18.25-8.65-31.9-1.65-1.65-3.5-3.05 14.2 2.35 25.55 13.3-8.05-24-32.15-31.5-1.3-.4-2.55-.75 20.6-8.3 26.45-26.45 5.9-18.3-6.6-46.35m-52.25 158.1q-.1-.07-.2-.15.247-.142.85.5.67.762.75.85-.658-.705-1.4-1.2Z" id="hair_01_fill_svg__a"></path><path id="hair_01_fill_svg__b" stroke="#000" stroke-width="1.5" stroke-linejoin="round" stroke-linecap="round" fill="none" d="M802.275 228.375q-.516-.45-.675-.725-.113-.194-.05-.3m.725 1.025q.833.747 2.625 1.975"></path><path id="hair_01_fill_svg__c" stroke="#000" stroke-width="1.25" stroke-linejoin="round" stroke-linecap="round" fill="none" d="M800.55 226.1q.048.55 1.05 1.55.226.227.5.475 1.041.942 2.8 2.225"></path></defs><g><use xlink:href="#hair_01_fill_svg__a"></use><use xlink:href="#hair_01_fill_svg__b"></use><use xlink:href="#hair_01_fill_svg__c"></use></g></svg>