<svg xmlns="http://www.w3.org/2000/svg" xmlns:xlink="http://www.w3.org/1999/xlink" preserveAspectRatio="none" viewBox="0 0 1500 1500" fill="#fee8d3"><defs><path fill="none" d="M619.2 283q7 .9 11.6 3.4.657.364 1.3.75 3.864 2.364 7.25 5.75-1.9 4 .2 10.4 1.9 6.35 8.45 9.7" id="head_03_outline_svg__a" stroke="#000" stroke-width="1.5" stroke-linejoin="round" stroke-linecap="round"></path><path id="head_03_outline_svg__b" stroke="#000" stroke-width="3" stroke-linejoin="round" stroke-linecap="round" fill="none" d="M628.175 270.5q-1.638-7.226-3.075-14.2-4.15-19.95-4.15-40.3-.05-20.3 8.5-37.6 8.55-17.25 26.95-27.5 17.85-10.15 38.45-13.25 20.65-3.15 41-.35 21.5 2.7 38.05 15.7 12.75 10.15 18.1 25.4 9.85 30.15 3.6 92.1 2.2 3.6 3.8 6.95 2 4.3 3 8.3 2.05 8.4-.3 25.5-2.35 17.05-7.3 43.6-5.15 26.5-8 31.45-2.9 4.85-11.05 6.05-8.245 1.105-14.9 1.525-6.664.41-12.225.7-5.559.288-14.15-.55-8.586-.826-17.375-3.225-8.781-2.415-16.6-5.175-7.82-2.759-27.3-15.875-19.488-13.11-23.85-23.75-4.306-12.11-7.125-20.75-4.828-.157-9.225-1.65-2.55-.85-5.2-2.1-5.8-2.85-10.35-8.25-4.55-5.45-6.7-12.65-2.3-7.2-1.85-11.6.4-4.45 3-8.9t7.8-7.2q4.103-2.234 8.475-2.4 1.003-.025 2.025.05 5.65.6 8.9 3.35 3.45 2.95 7.15 9.5 3.2 6.05 6.2 15.95m-10.225 25.9q1.146.039 2.325 0 3.45-.05 5.15-.9"></path></defs><g><use xlink:href="#head_03_outline_svg__a"></use><use xlink:href="#head_03_outline_svg__b"></use></g></svg>