<svg xmlns="http://www.w3.org/2000/svg" xmlns:xlink="http://www.w3.org/1999/xlink" preserveAspectRatio="none" viewBox="0 0 1500 1500" fill="#7f91bf"><defs><path fill="#C7D4CA" d="M-11.7 15.8q7.021-7.107 10.5-8.5 2.989-1.457 8.8 5.5Q6.944-5.026.55-15.45-8.741-1.126-11.7 15.8Z" id="style_08_color_b_svg__e"></path><path fill="none" d="M764.55 431.8q5.7 4.25 23.9 12 19.35 8.25 28.75 12.2 9.45 4.05 18.5 8.35 9.05 4.2 25.45 11.9 4.75 2.15 8.6 4.55m0 .2q10.65 5.7 17.65 15.5.15.1.25.3.4.45.8.95.2.4.4.85.55.7 1 1.55 6.5 9.1 20.45 37.85 2.2 4.35 2.95 5.85.7 1.5 2.05 4.5 5.55 11.55 14.4 31L958 641.1q5.3-.85 7.5 2.05l10.65 19.35q4.05 7.6 9.15 17.05 1.95 3.6 4.1 7.65.45 1.1-3 5.55-1.2 1.75-3.15 3.9m-61.9 41.4q-3.4 1.25-5.6 1.9-6 1.75-7.25-1.5-1.55-3.25-4.7-7.6-1.15-1.4-2.45-3.3-4.6-7.15-10.8-15.35-6.3-8.55-8.5-11.7-2.35-3.45-.25-7.05.4-.65 1.05-1.4-9.85-13.9-24.3-34.95l-14.4 154.8-.05.05q-.15 3.4-.5 6.85-.15.95-.25 2.1l-6.55 76.75L874 1094.9q.25 1.05.45 2.1-.35 17.55-.75 42.7-1.95 78.7-5.2 158.3-.2 6.25-.5 12.55-.3 6-.45 12-.5 13.3-.95 26.6-.25 5.2-1.45 45.5m-.1-.1v.75q0 2.35-.25 4.65l8.15 4.85.05.05.15.05m12.55 7.25 11.25 6q.4.2.85.4l.2.1h.05l.025.025q.044.034.125.075l.2.1q.15.1.35.2l.15.05 15.3 8.15m4.65 2.5q.4.2.75.4 11.35 6.4 19.25 13.8 5.2 5.4 7.15 10.1.1.2.3.5 5.1 13.55-12.45 17.8-15.6 2.8-36.75 1.35-14-1.4-26.6-4.25-30.35-7-46.2-14.2-10.65-4.3-16.8-7.5-6.75-3.4-7.8-7.2-1.05-1.65-1.25-6.65-.2-1-.3-2.15.25-8.95.6-15 .3-6.1 1.95-23v-.5m0-.35q1.2-20.85.65-33.75-.45-13.4-.6-15.85-.7-11.4-1.55-24.2-.35-6-.8-12.3-.35-4.3-.6-8.75-.55-7.8-1.3-16.05-4-55.35-4.65-111.15-.15-15.5.2-31.15.15-15.75.5-23.95-37.95-83.05-71.35-169.5-5.95 17.45-12.4 37.55-6.65 20.6-20.3 73.4-12.3 46.35-23.75 92.05-1.05 4.65-3 8.8-3.4 28.15-7.1 56.4-10.45 76.6-16.65 125.25-.7 5.6-1.35 10.85-.4 3.1-.75 6.2-2.65 21.4-5.75 46.75.55 7.35 1.8 11.4 4.15 9.05 13.85 19.9m-.95.1q1.9 1.2 3.95 2.55 11.45 7.55 16.65 11.05 5.15 3.45 8 7.75 2.65 4.25 2 11.1-.05.25-.05.45-.85 6.55-3.1 10.75t-7.6 6.6q-5.4 2.4-11.8 4.45-6.4 1.95-18.4 4.4-12 2.45-29.75 2.25-16.7-.6-29.75-3.3-12.95-2.7-18.3-4.65-5.35-1.95-7.7-5.6-2.5-3.7-2.75-8.1-.1-3.3 1.2-9.25.05-.25.2-.25l2.85-4.3q15.9-24.1 15.15-29.65-.3-7.95 1.05-17.45 0-.25.05-.55 2.6-26.9 3.05-65.15 0-2.7-.05-5.45.05-2.6.05-5.3.25-43.85 1.15-94.65.85-46.8 8.85-94.6-1.35-6.65-.55-13.9l14.45-187.25q-19.75-74.65-2-140.35l-.2-.05q-7.7-102.4-16.4-200.95-37.9 34.1-75.7 68.2.55.85.8 1.55 1.55 3.75-1.35 6.75-2.7 2.75-10.35 10.25-7.35 7.15-13.15 13.45-1.45 1.75-2.8 2.9-3.8 3.85-5.8 6.75-.5.8-1.2 1.2-2.05 1.2-6.25-.8-2.05-1-5.2-2.8m-54.65-50.6q-1.55-2.45-2.55-4.35-2.75-5-2.05-5.9 2.65-3.6 5.25-6.85 6.45-8.6 11.7-15.45l13.45-17.45q2.9-2.6 8.55-.55 45.65-66.1 64.1-92.7l4.15-6.05q.75-1.05 1.4-2 1.55-2.15 3.05-4.25 2.35-3.25 4.3-6 .8-1.1 1.5-2.1 10.7-14.85 14.05-17.6 7.25-7.35 16.65-11.8m-.05-.1q8.65-3.9 21.1-8.9 26.4-10.2 50.85-19.2 20.75-7.6 27.75-11.25 1.2-.65 2-1.15m.1.05q9.15-5.8 10.9-23.55.5-4.25.5-9.2 41.35 13.15 66.7 19.7l34.75-11.4q-.05 4.1.1 8.7.15 3.55.4 7.35.3 6.5 6.45 11.35m62.05 102.4q2.8 8.15 4.65 18.05-10.4-9.15-14.6-6.35-5.05 2.9-14 15.25.3-13.9 3.55-27m20.4.05q-.05-.2-.1-.35-4.8-13.85-12.35-22.8-5.1 11.15-7.9 22.8-.05.1-.05.3m52.35 123.05 3.6-38.65q2.6-32.05-1.55-62.7-.1-.8-.15-1.55l-.55-3.85m22.95 141.7q.55-.65 1.3-1.3 2.95-3.55 8.7-8.85 9.05-8.2 27.05-20.25 17.5-12 29.5-17.4 3.3-1.5 6.15-2.6 1.25-.35 2.45-.55M644.75 428.75q-.75.45-1.5.8-.3.2-.6.3M598.3 584.5l-7.8 7.1q-.2.15-.45.4-7.45 6.75-14.95 13.5m-75.7 68.2q-.45-.75-1.05-1.65-2.4-3.9-7.4-10.05-7.6-9.5-23.4-24.25-1-.95-2-1.85-10.9-10.15-19.5-16.5-2.6-1.9-5-3.5-3-1.95-5.6-3.45-.85-.4-1.65-.65m136 725.45q14.1 8.6 34.55 9.45 17.25.55 33.65-7m-7.85 63.8q-.25-3-.4-6.6M836.8 897.65l-.4 4.35m-106.6 17.7q-2.15 7.7-8.3 25.6-.15.5-.3.95m9.25-26.45q20.55-6.35 42.4-10.95l.55-.1q2.05-.4 6-1.05M591.7 806.5l168.2 42.4q44.45-15.6 84.2-36.95m-45.7 494.85q13.65 12.45 36 12.65 21.15-.05 33.6-8.9m-69.65 120q0 1.8.1 3.35m115.75-6.65q1.85 1.05 3.75 2.05.4.25.9.45m-45.7-24.85q.2.15.25.2 4.85 2.8 9.95 5.75 1.05.6 2.35 1.3m-20.9-12.2-2.1-1.5q-12.35-6.3-11.25-18.5" id="style_08_color_b_svg__b" stroke="#000" stroke-width="2" stroke-linejoin="round" stroke-linecap="round"></path><path id="style_08_color_b_svg__c" d="M874.9 533.65h-.85m1 .7h-.65" stroke="#FFF" stroke-width="2" stroke-linejoin="miter" stroke-linecap="square" stroke-miterlimit="3" fill="none"></path><path id="style_08_color_b_svg__d" d="M-1.95-.25Q-59.4-.1-194.3-.4" stroke="#FFF" stroke-width="5" stroke-linejoin="miter" stroke-linecap="square" stroke-miterlimit="3" fill="none"></path><path id="style_08_color_b_svg__f" fill="none" d="M-11.7 15.8q7.021-7.107 10.5-8.5 2.989-1.457 8.8 5.5Q6.944-5.026.55-15.45-8.741-1.126-11.7 15.8Z" stroke="#000" stroke-width="1.5" stroke-linejoin="round" stroke-linecap="round"></path><path id="style_08_color_b_svg__i" fill="none" d="M-3.304-1.972q0 1.05-.58 1.83-.58.781-1.429.826Q-6.16.728-6.74.008q-.58-.72-.58-1.77t.58-1.83q.58-.78 1.428-.824.848-.045 1.428.675.58.72.58 1.77Z" stroke="#EFD16A" stroke-width="0.5" stroke-linejoin="round" stroke-linecap="round"></path><g id="style_08_color_b_svg__a"><path fill="#161616" d="M873.15 1404.9q.2.15.25.2 4.85 2.8 9.95 5.75 1.05.6 2.35 1.3-1.2-.7-2.25-1.3-5.15-2.95-10-5.75-.05-.05-.3-.2m45.7 24.85q-.45-.2-.8-.45-1.95-1.05-3.85-2.05 1.85 1.05 3.75 2.05.4.25.9.45Z"></path><path fill="#369CEB" d="M798.35 1430.55q0 1.8.1 3.35.2 5 1.25 6.65 1.05 3.8 7.8 7.2 6.15 3.2 16.8 7.5 15.85 7.2 46.2 14.2 12.6 2.85 26.6 4.25 21.15 1.45 36.75-1.35 17.55-4.25 12.45-17.8-.2-.3-.3-.5-.75 2.15-5.45 4.3-4.7 2.1-9.85 3.4-5.3 1.25-12 1.6-22.8 1.2-64.3-9.65-16.45-4.65-33.9-12.4-10.9-4.8-22.15-10.75m69.2-108q.15-6 .45-12-12.45 8.85-33.6 8.9-22.35-.2-36-12.65.45 6.3.8 12.3 15.15 10.75 34 11.55 20.05.35 34.35-8.1m-321.3 152.05q.25 4.4 2.75 8.1 2.35 3.65 7.7 5.6 5.35 1.95 18.3 4.65 13.05 2.7 29.75 3.3 17.75.2 29.75-2.25t18.4-4.4q6.4-2.05 11.8-4.45 5.35-2.4 7.6-6.6 2.25-4.2 3.1-10.75-12.3 10.95-38.2 15.65-25.95 4.8-48.65 1.4-37.95-5.65-41.1-19.5-1.3 5.95-1.2 9.25m58.1-127.9q-20.45-.85-34.55-9.45 0 2.7-.05 5.3.05 2.75.05 5.45 12.65 7.9 33.05 9.2 18.45 1.05 33.8-6.65.65-5.25 1.35-10.85-16.4 7.55-33.65 7M757.7 413q-.15-4.6-.1-8.7l-34.75 11.4q-25.35-6.55-66.7-19.7 0 4.95-.5 9.2l72.65 21.95q-.55-2.3-1.1-4.15l30.5-10m116.7 121.35q.1-.3.15-.7h-.5q-.05.2-.05.45-.05.05-.05.1l-47.35-.1q2.8 8.15 4.65 18.05-10.4-9.15-14.6-6.35-5.05 2.9-14 15.25.3-13.9 3.55-27l-231.1-.6q.1 1.2-.5 2.25-.6 1.4-2.25 1.95l-65.9 21.6q.05-.4.2-.8-.9.7-1.8 1.3l-1.4-48.55q-.6.85-1.4 1.85l-4.15 6.05q-18.45 26.6-64.1 92.7.8.25 1.65.65 2.6 1.5 5.6 3.45 2.4 1.6 5 3.5 8.6 6.35 19.5 16.5 1 .9 2 1.85 15.8 14.75 23.4 24.25 5 6.15 7.4 10.05.6.9 1.05 1.65 37.8-34.1 75.7-68.2 7.5-6.75 14.95-13.5.25-.25.45-.4l7.8-7.1-7.8 7.1q-.2.15-.45.4-7.45 6.75-14.95 13.5 8.7 98.55 16.4 200.95l.2.05 168.2 42.4q44.45-15.6 84.2-36.95l.05-.05 14.4-154.8 3.6-38.65q2.6-32.05-1.55-62.7-.1-.8-.15-1.55l-.55-3.85.55 3.85q.05.75.15 1.55 4.15 30.65 1.55 62.7l-3.6 38.65q14.45 21.05 24.3 34.95.55-.65 1.3-1.3 2.95-3.55 8.7-8.85 9.05-8.2 27.05-20.25 17.5-12 29.5-17.4 3.3-1.5 6.15-2.6 1.25-.35 2.45-.55l-28.3-61.75q-8.85-19.45-14.4-31 .2 1.9 1.65 4.9 1.45 2.95 1.95 4.4.55 1.4.45 1.35-20.7-9.25-45.15-21.55.2-.1.05-.75-.25-1.25.05-1.95l.1-.4Z"></path><path fill="#FFF" d="M867.55 1322.55q-14.3 8.45-34.35 8.1-18.85-.8-34-11.55.85 12.8 1.55 24.2.15 2.45.6 15.85.55 12.9-.65 33.75v.85q-1.65 16.9-1.95 23-.35 6.05-.6 15 .1 1.15.3 2.15-.1-1.55-.1-3.35 11.25 5.95 22.15 10.75 17.45 7.75 33.9 12.4 41.5 10.85 64.3 9.65 6.7-.35 12-1.6 5.15-1.3 9.85-3.4 4.7-2.15 5.45-4.3-1.95-4.7-7.15-10.1-7.9-7.4-19.25-13.8-.35-.2-.75-.4-.5-.2-.9-.45-1.9-1-3.75-2.05l-15.3-8.15-.15-.05q-.2-.1-.35-.2-.1 0-.15-.05-.124-.083-.2-.15H898l-.2-.1q-.45-.2-.85-.4l-11.25-6q-1.3-.7-2.35-1.3-5.1-2.95-9.95-5.75-.05-.05-.25-.2l-.15-.05-.05-.05-8.15-4.85-2.1-1.5q-12.35-6.3-11.25-18.5-1.1 12.2 11.25 18.5l2.1 1.5q.25-2.3.25-4.65v-.75l.1.1q1.2-40.3 1.45-45.5.45-13.3.95-26.6m-264.7 34.65q-20.4-1.3-33.05-9.2-.45 38.25-3.05 65.15-.05.3-.05.55-1.35 9.5-1.05 17.45.75 5.55-15.15 29.65l-2.85 4.3q-.15 0-.2.25 3.15 13.85 41.1 19.5 22.7 3.4 48.65-1.4 25.9-4.7 38.2-15.65 0-.2.05-.45.65-6.85-2-11.1-2.85-4.3-8-7.75-5.2-3.5-16.65-11.05-2.05-1.35-3.95-2.55.5-.05.95-.1-9.7-10.85-13.85-19.9-1.25-4.05-1.8-11.4-.25-3-.4-6.6.15 3.6.4 6.6 3.1-25.35 5.75-46.75.35-3.1.75-6.2-15.35 7.7-33.8 6.65m-99.4-846.15v.15l1.4 48.55q.9-.6 1.8-1.3-.15.4-.2.8l65.9-21.6q1.65-.55 2.25-1.95.6-1.05.5-2.25-.05-.45-.2-.8-.5-1.65-2-2.25-1.2-.7-2.55-.35-.2-.05-.45.05l-56.55 18.2q-.75.2-1.35.55l-1.2-48.05q-1.95 2.75-4.3 6-1.5 2.1-3.05 4.25m371.2 19.3-.05.15q-.047 1.119 0 2.15 0 .55-.05 1h.35-.35q-.05.4-.15.7h.65-.65l-.1.4q-.3.7-.05 1.95.15.65-.05.75 24.45 12.3 45.15 21.55.1.05-.45-1.35-.5-1.45-1.95-4.4-1.45-3-1.65-4.9l-14.15-6.5h-.05l-.2-.1-26.25-12v.6Z"></path><path fill="#414448" d="M591.7 806.5q-17.75 65.7 2 140.35l-14.45 187.25q-.8 7.25.55 13.9-8 47.8-8.85 94.6-.9 50.8-1.15 94.65 14.1 8.6 34.55 9.45 17.25.55 33.65-7 6.2-48.65 16.65-125.25 3.7-28.25 7.1-56.4 1.95-4.15 3-8.8 11.45-45.7 23.75-92.05 13.65-52.8 20.3-73.4 6.45-20.1 12.4-37.55.15-.45.3-.95 6.15-17.9 8.3-25.6-2.15 7.7-8.3 25.6-.15.5-.3.95 33.4 86.45 71.35 169.5-.35 8.2-.5 23.95-.35 15.65-.2 31.15.65 55.8 4.65 111.15.75 8.25 1.3 16.05.25 4.45.6 8.75 13.65 12.45 36 12.65 21.15-.05 33.6-8.9.3-6.3.5-12.55 3.25-79.6 5.2-158.3.4-25.15.75-42.7-.2-1.05-.45-2.1l-37.2-197.25-.4 4.35.4-4.35 6.55-76.75q.1-1.15.25-2.1.35-3.45.5-6.85-39.75 21.35-84.2 36.95l-168.2-42.4m181.7 102.25q2.05-.4 6-1.05-3.95.65-6 1.05l-.55.1q-21.85 4.6-42.4 10.95 20.55-6.35 42.4-10.95l.55-.1M644.65 428.7q-.8.5-2 1.15.3-.1.6-.3.75-.35 1.5-.8-.05 0-.1-.05m191.05 35.65q-9.05-4.3-18.5-8.35-9.4-3.95-28.75-12.2-18.2-7.75-23.9-12v-.1q-6.15-4.85-6.45-11.35-.25-3.8-.4-7.35l-30.5 10q.55 1.85 1.1 4.15l-72.65-21.95q-1.75 17.75-10.9 23.55-.75.45-1.5.8-.3.2-.6.3-7 3.65-27.75 11.25-24.45 9-50.85 19.2-12.45 5-21.1 8.9 0 .05.05.1-9.4 4.45-16.65 11.8-3.35 2.75-14.05 17.6-.7 1-1.5 2.1l1.2 48.05q.6-.35 1.35-.55l56.55-18.2q.25-.1.45-.05 1.35-.35 2.55.35 1.5.6 2 2.25.15.35.2.8l231.1.6q0-.2.05-.3 2.8-11.65 7.9-22.8 7.55 8.95 12.35 22.8.05.15.1.35l47.35.1q0-.05.05-.1 0-.25.05-.45.43-1.575.55-3.15l.05-.15v-.6l26.25 12 .2.1h.05l14.15 6.5q-6.2-12.7-5-10.35-13.95-28.75-20.45-37.85-.45-.85-1-1.55-.2-.45-.4-.85-.4-.5-.8-.95-.1-.2-.25-.3-7-9.8-17.65-15.5v-.2q-3.85-2.4-8.6-4.55-16.4-7.7-25.45-11.9Z"></path><path fill="#9CF" d="M465.55 635.9q-10.9-10.15-19.5-16.5-2.6-1.9-5-3.5-3-1.95-5.6-3.45-.85-.4-1.65-.65-5.65-2.05-8.55.55L411.8 629.8q-5.25 6.85-11.7 15.45-2.6 3.25-5.25 6.85-.7.9 2.05 5.9 1 1.9 2.55 4.35.9-.8 1.8-1.65 1.55-1.6 3.1-3.5 21.1 14.6 34 26.95 13.05 12.35 22.15 21.8-1.75 1.25-5.1 5.3-.65.8-1.3 1.7 3.15 1.8 5.2 2.8 4.2 2 6.25.8.7-.4 1.2-1.2 2-2.9 5.8-6.75 1.35-1.15 2.8-2.9 5.8-6.3 13.15-13.45 7.65-7.5 10.35-10.25 2.9-3 1.35-6.75-.25-.7-.8-1.55-.45-.75-1.05-1.65-2.4-3.9-7.4-10.05-7.6-9.5-23.4-24.25-1-.95-2-1.85M958 641.1q-1.2.2-2.45.55-2.85 1.1-6.15 2.6-12 5.4-29.5 17.4-18 12.05-27.05 20.25-5.75 5.3-8.7 8.85-.75.65-1.3 1.3-.65.75-1.05 1.4-2.1 3.6.25 7.05 2.2 3.15 8.5 11.7 6.2 8.2 10.8 15.35 1.3 1.9 2.45 3.3 3.15 4.35 4.7 7.6 1.25 3.25 7.25 1.5 2.2-.65 5.6-1.9-.65-1.1-1.2-2.1-2.55-4.45-4.05-5.85 10.5-7.9 25.25-18.1 14.7-10.2 37.85-21.2.35.65.8 1.35 1.5 2.4 3.25 4.5 1.95-2.15 3.15-3.9 3.45-4.45 3-5.55-2.15-4.05-4.1-7.65-5.1-9.45-9.15-17.05l-10.65-19.35q-2.2-2.9-7.5-2.05Z"></path><path fill="#C7D4CA" d="M826.5 533.75q-4.8-13.85-12.35-22.8-5.1 11.15-7.9 22.8-.05.1-.05.3-3.25 13.1-3.55 27 8.95-12.35 14-15.25 4.2-2.8 14.6 6.35-1.85-9.9-4.65-18.05-.05-.2-.1-.35Z"></path><path fill="#FDD041" d="M874.55 533.65q.05-.45.05-1-.047-1.031 0-2.15-.12 1.575-.55 3.15h.5Z"></path></g><g id="style_08_color_b_svg__g"><path fill="#369CEB" d="m724.35 430-1.05 57.1-74.15 32.65 15.55 268.6 5.35-.3L654.7 523.2l73.85-32.6 1.15-59.05-5.35-1.55Z"></path><path d="M723.95 428h-1.6l-1.05 57.8-74.25 32.65 17.8 308.25 1.6-.05.4-1.05-2.15-37.25-15.55-268.6 74.15-32.65 1.05-57.1v-1.05l-.4-.95Z"></path></g><g id="style_08_color_b_svg__h"><path fill="#202020" d="M-6.6-3.5q-.65.75-.65 1.8T-6.6.1q.65.75 1.6.75.95 0 1.6-.75.65-.75.65-1.8t-.65-1.8q-.65-.75-1.6-.75-.95 0-1.6.75Z"></path><path fill="#EFD16A" d="M2.5-1.45Q1.75-2.3.7-2.3t-1.75.85Q-1.8-.65-1.8.5t.75 2q.7.8 1.75.8t1.8-.8q.7-.85.7-2t-.7-1.95Z"></path></g></defs><g><use xlink:href="#style_08_color_b_svg__a"></use><use xlink:href="#style_08_color_b_svg__b"></use><use xlink:href="#style_08_color_b_svg__c"></use></g><use xlink:href="#style_08_color_b_svg__d" transform="matrix(1.53783 0 0 1.47522 873.9 533.95)"></use><g transform="matrix(1.459 -.21771 .21771 1.459 816.85 534.95)"><use xlink:href="#style_08_color_b_svg__e"></use><use xlink:href="#style_08_color_b_svg__f"></use></g><use xlink:href="#style_08_color_b_svg__g" transform="matrix(1.02306 0 0 1.02306 -15.95 -21.8)"></use><g transform="matrix(1.47311 -.07733 0 1.65515 712.997 429.938)"><use xlink:href="#style_08_color_b_svg__h"></use><use xlink:href="#style_08_color_b_svg__i" transform="matrix(1.12042 .05234 0 1 .95 .4)"></use></g></svg>