<svg xmlns="http://www.w3.org/2000/svg" xmlns:xlink="http://www.w3.org/1999/xlink" preserveAspectRatio="none" viewBox="0 0 1500 1500" fill="#2f1b12"><defs><path id="hair_01_outline_svg__a" d="M801.55 227.55q-.051-.115 0-.2-.45-.65-1-1.25.047.544 1 1.45Z" fill="#503E6B"></path><path id="hair_01_outline_svg__b" fill="none" d="M800.55 226.1q-.35-.35-.65-.7-2.8-2.45-8.05-3.8-5.2-1.3-10.7-2.35-5.6-1-9.9-2.15-4.2-1.3-6.95-3.95-2.55-2.9-3.1-6.25 6.85 4.35 16.95 6.65 10.15 2.2 14.25 3.15 3.088.772 5.3 1.95l-.275-.55q-.645-.446-1.35-.6-.826-.176-1.2-1.25-.201.022-.225-.025-.033-.07.025-.7-.011-.086-.025-.175-.18-1.205-1.075-4.475-.076-.26-.15-.525-.013-.045-.025-.1-.488-1.716-.425-2.2.065-.478-1.8-8.6-1.865-8.13-4.8-14.575-2.939-6.438-7.225-10.65-4.296-4.228-21.425-14.575-.107-.079-.225-.15-.028-.012-.05-.025-.814.154-1.7.325-4.5.8-9.2 1.05 3.7 2.45 6.65 5.9 6.25 7.5 7.2 17.15-20.8-15.05-52.9-17.05-29.6-1.85-41-11.8l.65.7q.6 1.4 1.55 4.45 1.15 4.35 1.4 10.2.15 6-.45 10.75-.6 4.8-1.95 9.85-1.45 4.9-3.55 9.8-2.25 4.8-3.6 6.85-1.45 2-1.75 2.6 1.5-9.45-1.35-18.85-2.7-9.55-7.6-18.05-1.95-3.05-4-6.3.85 4.75 1.2 7.1 1.55 9.3 1.35 19.75-.25 10.45-4.75 18.35-4.6 7.8-8.9 12.1.05 16.95 0 25.2-.1 8.2-.35 52.1-6.128-12.087-9.375-22-3.239-9.924-5.85-9.525-2.614.4-3.175-3.125-7.3-14.5-8.25-17.2-1.8-5.05-3.55-10.05-1.6-4.7-3.15-9.4-1.5-4.8-2.8-9.65-1.45-5.3-2.55-10.65-1.2-5.55-2.1-11.1-.8-5.05-1.45-10-.45-4.1-.7-8.1-.1-2.1-.1-4.1 0-2 .1-4l.2-4q.05-2 .25-3.9.15-2 .35-4-3.15 3.9-6.05 8-2.95 4.15-5.55 8.6 0-3.4.2-6.7.15-3.45.7-6.85.4-3.4 1.15-6.7.8-3.4 1.9-6.7 1-3.2 2.35-6.45 1.35-3.1 3-6.15 1.6-2.95 3.45-5.85 1.9-2.95 4-5.75.95-1.3 2.15-2.6 1.1-1.3 2.25-2.5 1.2-1.25 2.4-2.45 1.2-1.2 2.45-2.35 1.35-1.15 2.7-2.15 2.8-2.2 5.7-4.2 2.9-2 6-3.75 1.3-.7 2.55-1.35 23.95-17.75 60.85-19.25 36.85-1.5 47-3.15 10.2-1.65 14-2.6 16.05-4 26.4-10.45.85-.5 1.55-.95 5.4-4.85 6.85-9.9 1.2-4.25 0-8.8-1.35-4.5-4.75-7.7-3.3-3.05-7.95-4.45-1.1-.35-2.05-.55 6.55-1.2 13.2-1.1 11.4.15 20.5 7.05 8.55 6.5 11.35 17.65 2.55 10.25-1.2 20.7-3.55 10.35-13.4 15.2 20.35 4.95 37.45-4.85 17.05-9.85 18.05-30.35 12.5 28.05 6.6 46.35-5.85 18.15-26.45 26.45 1.25.35 2.55.75 14.95 1.4 28 8.35 2.1 1.25 4.3 2.45m-32.3-10.8q24.1 7.5 32.15 31.5-11.35-10.95-25.55-13.3 1.85 1.4 3.5 3.05 13.1 13.65 8.65 31.9-14.45-18.55-36.1-25.75 4.282 2.21 7.35 10.875 3.063 8.673-1.45 22.325-4.503 13.639-9.6 20.5-5.115 6.864-8.2 14.25-.037-.102-.075-.2.315 1.785-.075 2.8-1.204-2.648-2.525-4.65-.55-.461-.675-.725-.953-.931-1-1.475.55.6 1 1.25.226.306.45.625 1.039.919 2.825 2.15l-.025-.075q-2.828-7.73-4.2-9.25-.023-.026-.05-.05-.132-.123-.675-.5-.578-.4-1.325-1.125-.182-.112-.375-.225-.086.18-.175.35l-.3-.6q.164.085.325.175.017-.101.025-.2-.304-.295-.625-.525-1.068-2.117-1.9-1.95-.436.093-.65.1-.12-.319-.2-.725M816.8 162.4q-3.65-1.2-7.5-2.1-8.43-1.796-51.7-.85.046.065.075.125.079.035.15.075 77.27.05 40.4 59.15.172.176.325.325.34.21.65.425.724.483 1.35 1.2m-2.5-2.125q13.891-45.784-40.225-58.975-.046-.003-.1 0-.019-.034-.05-.075-.082-.034-.175-.075l-.025-.025h-.025l-.05-.025q.101-.002.2 0-.064.009-.125.025l-.075-.025m36.025 50.9v-.05l-.025-.05m4.65 8.375q.061.059.125.125l.05.05q-.025.053-.05.1-.075-.035-.15-.075-.008.21-.025.425m-4.425-8.375-.15-.575M802 227.975q.108.158.225.325.813.688 2.6 1.825.041.116.075.225m-3.35-3q-.051.085 0 .225.211.191.45.4m2.825 2.175v-.025m-.025-.075q-.29-1.62-1.15-3.85m-74.6-13.1q-2.35 2.4-8.3 3.35-6 .9-17.15 2.35-11.25 1.65-18.65 4.35-7.5 2.65-14.5 11.4 4.55-8 9.3-12 4.55-4 11.15-6.65 6.5-2.65 21.1-4.1 14.8-1.65 19.8-4.65-.4 3.65-2.75 5.95Z" stroke="#000" stroke-width="2" stroke-linejoin="round" stroke-linecap="round"></path></defs><g><use xlink:href="#hair_01_outline_svg__a"></use><use xlink:href="#hair_01_outline_svg__b"></use></g></svg>