<svg xmlns="http://www.w3.org/2000/svg" xmlns:xlink="http://www.w3.org/1999/xlink" preserveAspectRatio="none" viewBox="0 0 1500 1500" fill="#2f1b12"><defs><path id="a_hair_30_outline_svg__a" d="M652.85 329.7q-.292-.763.2-.35-5.88-10.604-6.6-24.65l-.2-.2-12.15-5.65q1.372 11.78 1.85 16.2.528 4.47-.55 18.8.754 12.794 4.2 21.75 3.449 8.952 6.8 13.15 7.65 9.65 23.35 23.05 12.146 10.216 25.15 19.25l-1.4-59.9q-.914.527-1.85 1.05-.368.206-.8.35-.176.091-.35.15-1.993.65-5.35.65-4.4-.1-6.45-1.15-.402-.214-.8-.45-5.76-1.957-11.15-6.85l-.05-.05q-.05-.038-.15-.1l-.05-.05q-2.348-1.715-4.3-3.45-.653-.54-1.25-1.1-2.068-1.883.75.5.191.138.35.3-2.903-2.769-5.3-5.9-1.828-1.855-1.95-2.05-1.02-2.434-1.95-3.3m-6.4-25q.012-.036 0-.1l-.2-.1.2.2Z"></path><path id="a_hair_30_outline_svg__b" stroke="#000" stroke-width="1.5" stroke-linejoin="round" stroke-linecap="round" fill="none" d="M615.9 172.75q0-8.6 9.45-18.8 10.3-11.15 30.2-21.85 26.45-14.4 50.3-14.1 27.197.206 53.225 9.975 26.034 9.757 37.625 20.45 11.587 10.698 3.8 28.975 3.873 9.477 6.2 19.05t-2.85 28.9q-.25-1.9-.6-3.8Q799.2 200.3 781 179.3q-5.65 3.7-11.6 5.65-.35.1-.7.25-7.95 2.55-19.45 3.2-1.1.05-2.15.05-9.85.45-26.75-2.5-8.35-1.45-18.55-3.75-28.35-6.45-32.65-5.45-1.35.3-2.5 1.35-1.2 1.2-1.45 2.7-.9 4.4-1.7 8.4-4.05 18.25-6.2 23.65-4.2 10.35-17.05 25.35.4 36.65 6.2 66.4m.025.125q.694 14.021 6.575 24.625 1.652 2.987 3.725 5.7 2.372 3.131 5.3 5.9 1.59 1.316 4.45 3.75l.05.05m.15.125.025.025q5.39 4.893 11.15 6.875 6.09 2.09 12.6.925.174-.059.35-.125 1.337-.731 2.65-1.4l1.4 59.9q-13.004-9.06-25.15-19.275-15.7-13.4-23.35-23.05-3.351-4.198-6.8-13.15-3.446-8.956-4.2-21.75 1.078-14.33.575-18.775-.503-4.444-1.875-16.225-.1-.4-.2-.9-1.65-10.25-6.15-19.35-4.752-4.953-9.8-5.475-5.048-.522-12.3 1.775-6.45-29.05-6.1-45 .1-5 .85-9.65 1.3-8.95 5-16.55m99.3-43.6q20.45 12.65 15.65 25.85m32.55-35q14.9 23.95-3.65 37.45m36.6-12.8q-2.45 2-4.85 3.7m-3.15-14.85q3 12.6-9.15 20.75m-169.05 35.05q-4.35-22.95 12.5-42.5 3-3.65 6.9-7.15m15.05 128.25 12.15 5.65.2.1m.025.125-.225-.225m17.25-115.3q-32.95.2-53.75 34m43.55-13.05q-30.6 15-39.65 49.15"></path><path id="a_hair_30_outline_svg__c" stroke="#000" stroke-width="1.5" stroke-linejoin="round" stroke-linecap="round" fill="none" d="M728.05 251.15q-6.9.05-22.1-2.45-17.1-2.8-22.35-3.15-11.85 4.6-20.35 13.6 15.15-4.4 32.25-1.1 26.45 5.05 39.7 5.4-2.7-8.45-7.15-12.3Z"></path><path id="a_hair_30_outline_svg__d" stroke="#000" stroke-width="1.5" stroke-linejoin="round" stroke-linecap="round" fill="none" d="M767.5 251.15q4.85.05 15.75-2.45 12.3-2.8 16-3.15 3.15 1.8 5.95 4.3-.3 3.45-.65 7.15-6.9-1-14.75 1.05-19.1 5.05-28.45 5.4 2.6-8.45 6.15-12.3Z"></path></defs><g><use xlink:href="#a_hair_30_outline_svg__a"></use><use xlink:href="#a_hair_30_outline_svg__b"></use></g><use xlink:href="#a_hair_30_outline_svg__c" transform="translate(0 -11.5)"></use><use xlink:href="#a_hair_30_outline_svg__d" transform="translate(0 -11.5)"></use></svg>