<svg xmlns="http://www.w3.org/2000/svg" xmlns:xlink="http://www.w3.org/1999/xlink" preserveAspectRatio="none" viewBox="0 0 1500 1500" fill="#fee8d3"><defs><path fill="#79553C" d="M792 280.75q.215-1.161.45-1.55.277-.447.4-.9-.341.688-.9 1.65-.038.114-.1.2.063-.075.15.6Z" id="a_head_18_outline_svg__b"></path><path id="a_head_18_outline_svg__a" stroke="#000" stroke-width="3" stroke-linejoin="round" stroke-linecap="round" fill="none" d="M792.75 270.95q-1.3 5.05-1.025 5.85.275.8 1.925 5.95t3.45 14.1q.55 3.9 1 7.7.2 1.25.3 2.55l.1 1.2q1 16.3-8.2 34-.65 1-1.2 2.15-.5.85-1.675 2.525-1.177 1.677-7.75 11.975-6.572 10.298-14.075 22.65-6.949 13.496-11.275 18.175-4.318 4.667-8.825 4.775-4.509.11-10.575-.975-6.072-1.079-12.025-2.125-4.8-1.1-9.55-2.9-6.8-2.1-12.65-5-16.35-8-31.3-18.65-7.8-5.7-12.35-10.35-4.55-4.75-7-9.65-.55-1.15-1-2.15-3.1-6.65-5.7-13.45-2.698-6.897-4.425-11.175-.66-1.632-1.425-2.975"></path><path id="a_head_18_outline_svg__c" stroke="#000" stroke-width="3" stroke-linejoin="round" stroke-linecap="round" fill="none" d="M791.925 276.075q1.245-8.26 1.35-9.9.1-1.64 2.575-10.7 2.487-9.07 2.65-19.025.35-8.65-.7-17.4-.8-7.15-2.85-14.35-1.5-5.1-3.4-10.1-.95-5.5-2.85-10.75-3.1-8.5-8.6-16.45-9.8-14-24.55-22.7-13.9-8.3-31.05-11.25-14.6-2.6-29.95-1.25-.2 0-.45.1-1.15.1-2.3.15-22.25 2.5-40.6 12.7-19.7 10.95-30.15 28.35-2.9 4.9-5.05 10.35-3.4 8.25-5 17.7-2.4 14.35-.85 30.25 1.15 13.2 5.3 29.75.45 1.8 1.15 4.3"></path><path id="a_head_18_outline_svg__d" stroke="#000" stroke-width="3" stroke-linejoin="round" stroke-linecap="round" fill="none" d="M644.8 290.95q-2-2.8-4.9-6.8-4.65-6.5-7.7-9.6-4.85-4.75-10.8-6.6-.55-.2-1.2-.35-5.85-1.5-10.7.75-4.55 2.2-7.15 7.55-2.4 4.8-2.6 10.7-.45 10.7 5.4 20.4 5.75 9.7 15.5 14.45 9.7 4.65 21 3.05 1.05-.2 2.15-.55"></path><path id="a_head_18_outline_svg__e" stroke="#000" stroke-width="2" stroke-linejoin="round" stroke-linecap="round" fill="none" d="M615.75 279.7q6.95 2.6 12.8 7.25 2.6 2.05 4.75 4.4.35.55.95 1-2.35 2.9-2.7 5.5-.95 4.4 2.4 8.5.95 1 2.25 2.05"></path></defs><use xlink:href="#a_head_18_outline_svg__a"></use><g><use xlink:href="#a_head_18_outline_svg__b"></use><use xlink:href="#a_head_18_outline_svg__c"></use></g><g><use xlink:href="#a_head_18_outline_svg__d"></use><use xlink:href="#a_head_18_outline_svg__e"></use></g></svg>