<svg xmlns="http://www.w3.org/2000/svg" viewBox="0 0 1500 1500" fill="#fee8d3" xmlns:xlink="http://www.w3.org/1999/xlink" preserveAspectRatio="none"><defs><path fill="none" d="M752.25 264.225q-.075-.726-.1-1.475V261.1q.166-7.218 3.4-13m47.2 14q5.2-4.5 7.65-15.9-4.85 5.4-9.25 5.65h-.1q-26.45-1.35-48.8 8.65-.085.297-.1.6m0 1.65h.025q7.962-2.046 16.75-3.325 5.053-.724 10.375-1.2 10.988-.982 23.15-.875.117.83.2 1.675v.575l.1 2.15v.35q-.116 10.922-7.45 18.6-7.4 8-17.8 8-10.5 0-18-8-5.016-5.324-6.6-12.2-.485-2.066-.65-4.275m-6.65-1.675q.15 14.1 3.05 25.8 2.5 10.6 6.55 16.45 4.3 6.2 4.85 8.25.7 2.35-1.6 4.6-4.7 4.75-11.35 8.05m50.25-80.65q1.213 1.577 2.15 3.275.973 1.695 1.65 3.525m-137 1.25h-.025q-5.188.24-12.075-4.95 1.246 8.421 10.3 13.175l.05.025q.013-.693.075-1.375l.025-.225q.052-.51.15-1 18.828-1.63 37.35.325 5.521.574 11.025 1.475 6.613 1.065 13.175 2.6m0-.35V261q-.024-.008-.05-.025-35.017-11.173-60-7.875.438-1.05.95-2.075m-2.8 11.425q.025-.537.1-1.1m61.8 1.8q-.14 11.274-9.15 19.25-9.1 8.2-21.85 8.2-12.75 0-21.95-8.2-8.95-8.1-8.95-19.6v-.35m57.85-13.4q2.58 3.903 3.525 8.425l.175.85q.236 1.318.35 2.675m-59.1-9.975q1.605-3.022 4.1-5.725m38.15 102.9q9.45 2.6 16.4 3.95 2.25.35 4.4.75 14 2.25 25.5.35m-46.3-5.05q-.95-.25-1.75-.45.05.3.35.55.6-.1 1.4-.1Zm46.3 5.05h.1m-53.4-6.95q2.8.85 5.25 1.45m48.15 5.5h.15q.65-.3 1.55-.35" id="face_07_outline_svg__b" stroke="#000" stroke-width="2" stroke-linejoin="round" stroke-linecap="round"></path><g id="face_07_outline_svg__a" fill="#000"><path d="M728.15 352.9q-2.15-.4-4.4-.75-6.95-1.35-16.4-3.95-.8 0-1.4.1 1.6 2.15 3.6 3.95 7.8 7 22.9 9.15 4.95.45 7.3.3 4-.1 6.8-1.8 3.8-1.9 7.2-6.65h-.1q-11.5 1.9-25.5-.35m-4.4-.75q2.25.35 4.4.75 14 2.25 25.5.35-.55-.8-1.15-1.35-4.8-4.4-16-5.3-7.55-.3-22.95 1.15-3.3.3-6.2.45 9.45 2.6 16.4 3.95ZM710 268.55q1.95-1.95 2.05-4.65-.069-1.859-1.05-3.35-5.479-.901-11-1.5-.056.058-.1.1-1.85 1.95-1.95 4.65v.2q.1 2.7 1.95 4.65 2 1.9 4.6 2h.65q2.85-.1 4.85-2.1m-45.85-15.45h-.05q-5.163.24-12.05-4.95 1.246 8.421 10.3 13.15l.05.05q.013-.693.05-1.4l.05-.2q.052-.51.15-1 18.828-1.63 37.35.3 5.521.599 11 1.5 6.638 1.065 13.2 2.6V261q-.024-.008-.05-.05-35.017-11.148-60-7.85m103.55 10.1v.2q.1 2.7 1.95 4.65 2 1.9 4.6 2h.65q2.85-.1 4.85-2.1 1.95-1.95 2.05-4.65-.1-2.7-2.05-4.65l-.45-.45q-5.322.5-10.4 1.2-1.122 1.686-1.2 3.8m-15.55-1.1v.65q7.987-2.046 16.75-3.35 5.078-.7 10.4-1.2 10.988-.957 23.15-.85.117.83.2 1.65v.6l.1 2.15v.35q5.2-4.5 7.65-15.9-4.85 5.4-9.25 5.65h-.1q-26.45-1.35-48.8 8.65-.085.297-.1.6V262.1Z"></path><path fill="#FFF" d="M662.35 261.3q-.038.58-.05 1.15.025-.537.1-1.1l-.05-.05m.3-2.55q-.098.49-.15 1l-.05.2q-.037.707-.05 1.4-.075.563-.1 1.1v.35q0 11.5 8.95 19.6 9.2 8.2 21.95 8.2t21.85-8.2q9.01-7.976 9.15-19.25-6.562-1.535-13.2-2.6.981 1.491 1.05 3.35-.1 2.7-2.05 4.65-2 2-4.85 2.1h-.65q-2.6-.1-4.6-2-1.85-1.95-1.95-4.65v-.2q.1-2.7 1.95-4.65.044-.042.1-.1-18.522-1.93-37.35-.3m1.45-5.65h.05q.438-1.05.95-2.1-.543 1.044-1 2.1m88.05 9.65q.045.749.1 1.45.165 2.234.65 4.3 1.584 6.876 6.6 12.2 7.5 8 18 8 10.4 0 17.8-8 7.334-7.678 7.45-18.6v-.35l-.1-2.15v-.6q-.083-.82-.2-1.65-12.162-.107-23.15.85l.45.45q1.95 1.95 2.05 4.65-.1 2.7-2.05 4.65-2 2-4.85 2.1h-.65q-2.6-.1-4.6-2-1.85-1.95-1.95-4.65v-.2q.078-2.114 1.2-3.8-8.763 1.304-16.75 3.35Z"></path></g></defs><g><use xlink:href="#face_07_outline_svg__a"></use><use xlink:href="#face_07_outline_svg__b"></use></g></svg>