<svg xmlns="http://www.w3.org/2000/svg" preserveAspectRatio="none" viewBox="0 0 1500 1500" fill="#fee8d3" xmlns:xlink="http://www.w3.org/1999/xlink"><defs><path d="M664.15 253.1h-.025" id="face_07_fill_svg__b" stroke="#000" stroke-width="2" stroke-linejoin="round" stroke-linecap="round" fill="none"></path><g id="face_07_fill_svg__a"><path fill="#FFF" d="M662.3 262.45q.025-.537.1-1.1l-.05-.05q-.038.58-.05 1.15m1.8-9.35h.05q.438-1.05.95-2.1-.543 1.044-1 2.1Z"></path><path d="M715.05 243.2q-.524-.463-1.05-.9-8.784-7.15-20.8-7.15t-20.9 7.15q-.52.437-1.05.9-1.05 1-2.05 2.1-2.495 2.703-4.1 5.7-.513 1.05-.95 2.1 24.983-3.298 60 7.85.026.042.05.05-.114-1.357-.35-2.7l-.2-.85q-.92-4.497-3.5-8.4-2.05-3.15-5.1-5.85m33.6 45.15q-2.9-11.7-3.05-25.8-9.55 39.25 1.5 63.15 6.65-3.3 11.35-8.05 2.3-2.25 1.6-4.6-.55-2.05-4.85-8.25-4.05-5.85-6.55-16.45m48.7-43.3q-1-1.25-2.05-2.45-.144-.151-.3-.3-7.302-7.5-17.5-7.5-10.296 0-17.7 7.5-.154.149-.3.3-2.3 2.6-3.95 5.5-3.234 5.782-3.4 13 .015-.303.1-.6 22.35-10 48.8-8.65h.1q-.677-1.83-1.65-3.55-.937-1.673-2.15-3.25Z"></path></g></defs><g><use xlink:href="#face_07_fill_svg__a"></use><use xlink:href="#face_07_fill_svg__b"></use></g></svg>