<svg xmlns="http://www.w3.org/2000/svg" viewBox="0 0 1500 1500" fill="#fee8d3" xmlns:xlink="http://www.w3.org/1999/xlink" preserveAspectRatio="none"><defs><path fill="none" d="M646.6 298.45q6.55 7.2 15.45 13.65 4.35 2.8 5.8 3.9 2.95 2.4 4.55 4.95 1.75 2.8 3.45 8.55l9.15 30.15m63.3 9.6-.75 1.2q-1.95 4.3-1.95 6.45 0 2.7 1.8 4.8" id="face_04_outline_svg__b" stroke="#000" stroke-width="1" stroke-linejoin="round" stroke-linecap="round"></path><path d="M748.75 258.65V260q0 10.2 8 17.3 7.9 7.2 19.1 7.2 11.25 0 19.15-7.2 7.9-7.1 7.9-17.3v-.9q-26.8-4.65-54.15-.45.55-7.45 5.2-13.2m32.05 16.1q0 1.9-1.4 3.2-1.3 1.4-3.2 1.4-1.85 0-3.25-1.4-1.3-1.3-1.3-3.2 0-1.85 1.3-3.25 1.4-1.3 3.25-1.3 1.9 0 3.2 1.3 1.4 1.4 1.4 3.25Zm16.9-2.45q-.9-11.7-8.9-18.15m-65.7 17.7V260q0 10.2-8.9 17.3-8.9 7.2-21.5 7.2t-21.5-7.2q-8.95-7.1-8.95-17.3v-.9q.4-7.75 5.95-13.65m54.9 13.2q-9.6-1.3-19.15-1.75.65.3 1.2.85 1.4 1.4 1.4 3.25 0 1.9-1.4 3.2-1.3 1.4-3.2 1.4-1.85 0-3.25-1.4-1.3-1.3-1.3-3.2 0-1.85 1.3-3.25.75-.7 1.6-1-19.15-.55-38.05 2.35m38.05-2.35q.75-.3 1.65-.3 1.1 0 2 .45m13.3-11.45q5.3 5.75 5.85 13.2M769 338.2q-14.85 3.6-30.45 2.7-15.55-.8-29.85-6m41.1-53.4q0 10.3 6.75 18.45 3.7 4.05 4.5 5.7 2.25 3.75.9 7.2-.95 1.7-3.05 2.85-1.95 1-6.85 1.65-4.85.6-10.5-1.35-5.7-2.1-8.4-6.2-.15-.3-.35-.55" id="face_04_outline_svg__c" fill="none" stroke="#000" stroke-width="1.5" stroke-linejoin="round" stroke-linecap="round"></path><g id="face_04_outline_svg__a" fill="#000"><path d="M710.35 257.75q-.55-.55-1.2-.85-.9-.45-2-.45-.9 0-1.65.3-.85.3-1.6 1-1.3 1.4-1.3 3.25 0 1.9 1.3 3.2 1.4 1.4 3.25 1.4 1.9 0 3.2-1.4 1.4-1.3 1.4-3.2 0-1.85-1.4-3.25m75.65 3.8q0-1.85-1.4-3.25-1.3-1.3-3.2-1.3-1.85 0-3.25 1.3-1.3 1.4-1.3 3.25 0 1.9 1.3 3.2 1.4 1.4 3.25 1.4 1.9 0 3.2-1.4 1.4-1.3 1.4-3.2Z"></path><path fill="#FFF" d="M667.45 259.1v.9q0 10.2 8.95 17.3 8.9 7.2 21.5 7.2t21.5-7.2q8.9-7.1 8.9-17.3v-1.35q-9.6-1.3-19.15-1.75.65.3 1.2.85 1.4 1.4 1.4 3.25 0 1.9-1.4 3.2-1.3 1.4-3.2 1.4-1.85 0-3.25-1.4-1.3-1.3-1.3-3.2 0-1.85 1.3-3.25.75-.7 1.6-1-19.15-.55-38.05 2.35m81.3.9q0 10.2 8 17.3 7.9 7.2 19.1 7.2 11.25 0 19.15-7.2 7.9-7.1 7.9-17.3v-.9q-26.8-4.65-54.15-.45V260m35.85-1.7q1.4 1.4 1.4 3.25 0 1.9-1.4 3.2-1.3 1.4-3.2 1.4-1.85 0-3.25-1.4-1.3-1.3-1.3-3.2 0-1.85 1.3-3.25 1.4-1.3 3.25-1.3 1.9 0 3.2 1.3Z"></path></g></defs><g><use xlink:href="#face_04_outline_svg__a"></use><use xlink:href="#face_04_outline_svg__b"></use><use xlink:href="#face_04_outline_svg__c"></use></g></svg>