<svg xmlns="http://www.w3.org/2000/svg" viewBox="0 0 1500 1500" fill="#fee8d3" xmlns:xlink="http://www.w3.org/1999/xlink" preserveAspectRatio="none"><defs><path d="M732.3 258.65V260q0 3.71-1.05 6.8-1.812 5.406-8.275 10.025-6.467 4.622-19.425 3.425-12.959-1.202-20.6-5.1-7.636-3.892-10-8.35-1.5-2.835-1.5-6.8v-.9q.4-7.75 6.4-14.6m64.55 16.65q2.948 2.764 5.625 5.65 14.162 15.21 21.025 33.8 1.65 3.7 2.9 8.35-4.05 10.6-15.1 9.3-11.1-1.3-16.85-1.4-5.8-.1-7.25-2.2m20-56V260q-.002 3.773 1.025 6.8 1.738 5.155 6.45 8.15 7.483 4.761 20.3 3.475 12.813-1.29 17-4.225 4.197-2.941 5.825-6.05 1.616-3.1 2.25-4.9 1.31-3.705.75-8.2-33.525-15.15-53.6 3.6.55-7.45 5.2-13.2m32.05 16.1q0 1.9-1.4 3.2-1.3 1.4-3.2 1.4-1.85 0-3.25-1.4-1.3-1.3-1.3-3.2 0-1.85 1.3-3.25 1.4-1.3 3.25-1.3 1.9 0 3.2 1.3 1.4 1.4 1.4 3.25Zm16.35-6.5q-.35-7.65-5.2-11.05m-86.925 13.625.125.125q1.4 1.4 1.4 3.25 0 1.9-1.4 3.2-1.3 1.4-3.2 1.4-1.85 0-3.25-1.4-1.3-1.3-1.3-3.2 0-1.85 1.3-3.25.37-.345 6.325-.125-.505-.462-1.075-.725-.346-.173-.725-.275-.598-.175-2.925.125m59.575 86.875.025-.05q1.383-2.416 3.9-5.375-10.82 2.15-25.125.35-14.305-1.8-35.175-3.65 6.909 6.81 8.95 7.45m47.425 1.275.025-.025v-.025m-4.325 12.175q3.427-.844 4.375-3.1-3.43-2.929-.275-8.675m-47.225-1.625q8.096 6.324 14.45 9.275 6.348 2.943 18.725 4.3 6.354.698 9.95-.175m-38.325-110.3q5.3 5.75 5.85 13.2-22.517-20.348-60.85.45" id="face_18_outline_svg__b" stroke="#000" stroke-width="2" stroke-linejoin="round" stroke-linecap="round" fill="none"></path><path d="M721.65 342.35q41.68 10.694 47.225 1.625.097-.172.2-.35M738.5 352h26.35q2.602 1.495-.075 3.75" id="face_18_outline_svg__c" stroke="#000" stroke-width="1" stroke-linejoin="round" stroke-linecap="round" fill="none"></path><path d="M749.4 267.6v-13.15q.941-5.638 4.5-8.35 25.96-7.708 49.35.1 4.416 8.965 2.8 17.8h3.75q1.636-11.826 4.95-12.65v-4.7h-3.85q-5.036-.988-7.35-5.85-26.01-3.198-49.1.8-4.817.297-9.05 11.85l.75 5.3 1.25 5.25h1.6m-3.6-10.55q-5.32-4.301-9.875 0 .06.297.125.6l-.7 5.5q6.064-4.446 11.2-.8m-10.625-5.3q-2.31-10.08-7.425-12.7-38.013-4.962-61-.4-1.126 2.797-9.1 3.05v9.4q4.313.165 5.475 11.275l.175.175h4.6l.2-.25v-17.75q32.753-8.356 58-.8 4.885 1.818 5.35 9.95.279 4.166-.075 8.475l2.025.025m13.65.1.65 2.8m-13.1-7.25-2.2 17.1q-1.05 7.95-9.25 9.9-23.925 1.928-46.75 0-6.844-1.669-8.05-7.3l-2.5-12-2.55-3h-.15q-.009-.084-.025-.175M809.8 264l-.55 2.45q-1.444 5.858-4.125 13.35-2.67 7.495-13.125 6.95M806.35 264l.8 2.6 2.1-.15M762.1 283.7h34.35q3.707.266 6.525-4.35 2.824-4.617 4.175-12.75m-43.85 19.45 28.35.7m-123.4-22.5h.2V264m-.2.25.05 3 .9 7.65q1.907 9.867 9.1 9.2 22.625 1.821 45.25 0 3.88-2.018 5.1-4.7 2.488-7.987 3.075-15.525M666.2 267.25h2.1m141.85-18.8q-1.2 1.45.7 3.35M621 251q19.651-2.821 37-7.6m-35.6 10.4q19.086-1.725 35.6-1" id="face_18_outline_svg__e" fill="none" stroke="#000" stroke-width="1" stroke-linejoin="round" stroke-linecap="round"></path><g id="face_18_outline_svg__a" fill="#000"><path fill="#FFF" d="M763.7 352.15q-.3-.05-1 .05h-4.85q-.824-.043-4.65-.05-.123-.05-.35-.05-5.342-.099-10 .2h-.05l-.2-.05h-.55l-.15-.05h-.15l-.3.05-.1.15q-.1 0-.1.15l-.05.1.1.4q.1 0 .2.15h.1l.1.05h.8l.15.05h.7l.3.05h.3l.65.05v.05l.55.25q.2.1.65.1.246.082.4-.05l.1.05q.85.35 2.5.4.518.014.95 0v.05q0 .15.2.25.6.25 1.4.35l2.55.4q2.2.3 3.35.3.75.05 2.15-.05 1.45-.1 2.15-.1h1.2q.8 0 1.45-.15.969-.194 1.2-.8.306-.079.4-.55.2-.55.05-.8-.05-.25-.45-.45-.75-.55-1.35-.5-.09.016-.2.05-.063-.034-.15-.05m-47.6-16.3-.65.05q-.4.15-.4.55 0 .35.7.7.85.35 1.65 1.2.5.5.7.5.046.012.1 0 .981 1.04 2.35 1.75.225.58 1.05 1.1 1.2.8 1.9.85.95 0 1.1.05.2.05.95.4.5.3 1.15.45 2.9.85 7 1.5 2.4.4 7.15 1.1.282.075.5.05 3.167 1.018 6.55 1.15l2.2.1q.061.002.1 0l.05.15.1.15.4.2h.4q.15.1.3 0l.15-.05q.2 0 .2-.15.1 0 .15-.15l.3.05 1.3.25q.823.097 1.6-.15.49.1 1.1.1.6 0 1.8-.05 1.95 0 2.35-.05 1-.05 2.15-.4l2.85-.8q.75-.35.9-.5.202-.182.3-.4l.55-.25.25-.4.2-.45q0-.05.15-.2l.15-.1q0-.05.15-.35l.1-.55 1.85-2.85.45-.3q.2-.2.15-.4-.05-.2-.35-.2l-.4.1q-.072.029-.15.05h-.1q-.679 0-1.35.25-.354-.05-.85-.05-4.8.1-8.75.35l-1.7.05q-.182.009-.4 0l-.2-.1-.2-.15-.9-.15-1.35-.05v.05q-.25-.05-.55.05-.047-.037-.1-.05l-.2-.1-.45-.1q-.35 0-.7.25h-.05q-1.768-.27-2.4-.35l-2.35-.2q-3.4-.75-5.1-.7-.372 0-.65.1-4.776-1.017-9.25-1.2l-1.95-.05q-2-.15-4-.45l-5.8-1-4.25-.2m37.65-69.05q1.763 5.155 6.45 8.15 7.508 4.761 20.3 3.45 12.838-1.264 17-4.2 4.222-2.941 5.85-6.05 1.616-3.1 2.25-4.9 1.31-3.705.75-8.2-33.525-15.15-53.6 3.6V260q-.002 3.773 1 6.8m31.65-9.8q1.9 0 3.2 1.3 1.4 1.4 1.4 3.25 0 1.9-1.4 3.2-1.3 1.4-3.2 1.4-1.85 0-3.25-1.4-1.3-1.3-1.3-3.2 0-1.85 1.3-3.25 1.4-1.3 3.25-1.3m-54.15 9.8q1.05-3.09 1.05-6.8v-1.35q-22.517-20.348-60.85.45v.9q0 3.965 1.5 6.8 2.364 4.458 10 8.35 7.641 3.898 20.6 5.1 12.958 1.197 19.4-3.45 6.488-4.594 8.3-10m-17.05-9.2.15.15q1.4 1.4 1.4 3.25 0 1.9-1.4 3.2-1.3 1.4-3.2 1.4-1.85 0-3.25-1.4-1.3-1.3-1.3-3.2 0-1.85 1.3-3.25.37-.345 6.3-.15-.48-.437-1.05-.7-.346-.173-.75-.3-.573-.15-2.9.15 2.327-.3 2.9-.15 1.55.193 4.85.5-2.055-.104-4.1-.2.57.263 1.05.7Z"></path><path d="M788.6 258.3q-1.3-1.3-3.2-1.3-1.85 0-3.25 1.3-1.3 1.4-1.3 3.25 0 1.9 1.3 3.2 1.4 1.4 3.25 1.4 1.9 0 3.2-1.4 1.4-1.3 1.4-3.2 0-1.85-1.4-3.25m-74.25-.55-.15-.15q-5.93-.195-6.3.15-1.3 1.4-1.3 3.25 0 1.9 1.3 3.2 1.4 1.4 3.25 1.4 1.9 0 3.2-1.4 1.4-1.3 1.4-3.2 0-1.85-1.4-3.25Z"></path></g><g id="face_18_outline_svg__d"><path fill="#342D1C" d="M635.3 252.7q-2.023 0-5.85.4.245.082.55.15.75.2 1.2.2.55.05 2.1-.3 1.615-.336 3.95-.45h-1.95m15.5.25q1.773.092 2.2.05-1.313-.208-2-.3-2.5-.4-6.85-.2-1.86.093-3.3.15.223-.004.45 0 5.134.083 6.45.15 1.323.117 3.05.15m8.2-.3q-.141-.104-.25-.25-.588.412-1.35.6.21.013.35 0 .726-.063 1.25-.35m-2.35-8.7q-.47-.004-1 .05-.309.024-1.05.2 1.066-.133 2-.2.019.004.05-.05Z"></path><path fill="#9F8C8A" d="m767.8 284.2-1.95-.15q-1.2-.1-2 0-.3.1-.6 0l-.6-.25q-.37-.226-.4.15.02.426.3.75l.6 1.15q-.073-.3.35-.3l18.75.95q1.2 0 3.55-.05 1.15 0 2.1.2 1.6.3 1.7.3.747 0 1.2-.4l.7-.1q.3-.05 1 .05.7.05 1.05 0l1.15-.25q.3 0 .8.05l.9-.2q.35-.05.95.05.4 0 1.75-.5l1.2-.35q.75-.3 2.05-1.3.65-.65.75-.8.3-.4.55-1.3.271-.453.35-.65.187-.087.35-.25.45-.35.8-1.85.4-1.85 1.5-4.9 1.25-3.5 1.65-4.9.25-.8.3-1.65.15-1.1.15-1.15l.25-.5.25-.9q.1-.6-.1-.85-.102-.204-.4-.3h-.35l-.65.1q-.6.1-.8.3-.3.3-.2.75l.3.5q.2.5.1 1.25-.25 1.85-1.75 6-1.3 3.7-2.2 7-.195.02-.35.15-.3.45-.45.65-.15.25-.55.55-1.1.9-2.5 1.8-.6.4-.95.5-.2.1-1.3.2-1.45.25-2.15.25l-1.4-.1q-1.25-.05-2.75.1-.53.076-.75.15-.161-.034-.35-.05h-1.8q-1.2-.15-1.8-.2-1-.1-2.6.05-2 .15-2.65.15l-3.5-.15q-1.5-.05-3.05 0-.6 0-3.25.2-1.95.1-3.25.05M733 263.85h-.2l-.05.05-.5.3q0 .05-.1.15l-.1.2H732l-.1.5-.05.1h-.05q.05.05-.1.3v.2l-.05.2.05.1v.2l.05.3h.05l-.05.15q-.224.65-.25 1.25v.55l-.25.5q-.15.4-.3 2-.1 1.8-.75 4.3l-.65 2.9q-.245.418-.4.65l-.35.4q-.5.6-.65 1.45l-.2.65-.3.35-1.65 1.5q-.35.25-1.7.95l-1.2.35-.2.1q-1.168.031-1.8.15l-.75.1q-.35.05-1 .05-1.408 0-3.85.2-.275-.14-.7-.2-.6 0-1.2.15-1.45.25-4.5.35-4.95.1-6.75-.05h-.85q-.372-.236-1.15-.15-2.85.05-8.55-.05l-7.2-.2q-1.454-.088-2.25-.05-.554-.208-1.8-.4l-1.25-.15q-1-.05-3 .05l-.25.05q-.067-.062-.2-.1l-.6-.15q-.95-.5-1.5-.65l-.45-.15-.4-.4q-.8-.65-1.15-1-.45-.4-1.1-1.75-1.05-2.65-1.25-3.5-.4-1.4-.7-4.2l-.5-4.15q-.072-.435-.2-.7h.05l.1-.05q.1-.05.2-.15l.1-.2.1-.1.1-.6-.05-.05q-.05-.45-.15-.65l-.25-.6-.05-.2-.3-.3q-.166-.228-.4-.35-.249-.096-.6.05h-.05l-.45.2h-.45l-.85-.1q-.45.1-.6.45-.2.35 0 .75l.1.2.1.15.35.35.75.3.05.1.25.15q.25.15.3.2.15.25.2.25l.15.15q-.035.065-.05.15 0 .5.15.95.3 1.25.6 3.9.3 2.6.65 3.95l.45 1.6q1.05 3.4 2.3 4.85.7.85 1.9 1.6.45.25 2.35 1.1.162.07.3.1.14.182.4.3l.45.1 2.2.15 1.15.25h1.15q.55-.05 1.55.05l1.95.25q.44 0 .7-.1l.1.05.85.15h.3l.3.1.55.05h.15l.1-.05.15-.05.05-.1.15-.1v-.05q5.075.232 11.9.75 1 .1 1.5-.05.307-.068.5-.2 3.745-.005 5.65-.1 5.35-.1 6.4-.05.9.1 1.35.05.714-.168.95-.6 1.589-.1 3.9-.1.6 0 .85.05l1.7.05 1.4-.3q.682-.182.9-.5l1.55-.45.7-.5q.4-.25 1.2-.65.4-.2 1-.8l.85-.85q.24-.311.4-.65h.05l.15-.1.1-.05v-.05l.1-.05.05-.15h.05l.05-.15.1-.1.1-.05.05-.2h.05l.2-.65h.05l.15-.7.4-.6q.2-.5.4-1.4.3-1.1.35-1.7l.35-3.1q.51-3.149.6-5.5l.15-.1q.2-.2.2-.45l.05-.85-.05-.25h.05l-.05-.5h.05V265h.05q.1-.3-.1-.65h-.05l-.05-.15h-.05l-.05-.05v-.05l-.15-.05-.15-.1-.5-.1m16.25 1.3v-.05h.05q.15-.2.05-.5l-.1-.3h-.05l-.05-.05-.05-.05q-.15-.15-.35-.15-.3 0-.55.25-.049.049-.1.05-.001.054-.05.05v.05q-.3.2-.2.45v.1q0 .45.1.65l.05.05.05.15q0 .2.2.5.3.25.65.05.35-.15.35-.55l-.05-.25-.05-.05q.097-.193.1-.4Z"></path><path fill="#4E1028" d="M772.85 242.75q1.041-.17 2.65-.5 1.605-.323 2.35.1l8 .2q2.4.6 6.45 1.25 4.05.65 5.55 1.2.2.05 1.2.2 1.052.15 1.8.25.745.152 1.65.65.244.431.65.9.075.083 1.05 1.35.976 1.27.45 1.2-.52-.065-.25.35.306.455.5 1.25.15.4.65 1.1.1.2.5 1.65.25 1.4.25 3.35v1.35q-.467 1.167-.4 3 .1 1.15.35 1.5.534.97 1.8.8.197.072.35.1h.35q.166.027.3 0 .65-.1 1.1-.7.45-.55.4-1.25-.043-.513-.35-.95-.045-.236-.15-.5.302-.253.5-.65.3-.65.3-2.1l-.05-.6q.363-.44.6-1.15.3-1 .5-1.5.45-1.1 1.4-2.05 1.4-1.4 1.6-2 .16-.522.1-1.25.168-.068.15-.3-.006-.244-.5-1.35-.506-1.054-.9-1.2-.382-.088-.8.4-2.076-.585-3.25-.35l-.65.1q-.117-.02-.3-.1-.191-.241-.5-.55-1.05-1.05-1.95-1.3-.104-.03-.2-.05-.121-.142-.25-.3-.599-.725-1.1-1.1-.063-.623-.45-1.15-.8-1.3-2.95-1.6-.7-.1-1.75-.05-1.55.1-1.75.1-1.95.05-5.15-.45-3.75-.6-5.1-.7-2.05-.1-5.05.15-1.298.116-2.3.2-.524-.463-1.55-.6-1.6.15-2.4.15-2.45-.2-3.65.05-.85.3-1.3.35-.3.05-1 .05l-3.9.05q-1.5 0-2.1.55-.08.07-.15.15h-.05q-.203-.078-.4-.1-1.6-.35-4.1.1-.715.139-1.4.3-.734.043-2 .55-.184.076-.35.15-.101-.03-.2-.05-.95-.15-1.95.35-.49.245-.9.6-1.196.375-1.55.65-.532.387-.7 1-.168.136-.35.3-.3.3-1.1 1.4l-.6 1.15q-.6 1.2-.8 1.5-1.05 1.45-1.15 1.65-.15.25-.4 1.05-.341 1.182-.45 2.1-.509-.3-.55-.3-.85 0-1.25-.15-.7-.45-1.05-.6-.3-.15-.75-.15-.55 0-.8-.05l-1.75-.15q-.7 0-1.7.25-1.177.24-2 .55-.603-2.132-1.45-3.75-.797-1.62-1.7-3.4-.848-1.738-2-2.15-.368-.721-1.2-1.5-.75-.85-1.55-.9l-1.05.15q-.296-.005-2.4-.55-2.114-.485-6.9-1.05-4.737-.565-5.35-.4-.602.153-.75.25h-.4q-.645-.15-1.55-.15-4.1-.2-9.05-.7-3.55-.4-5.2-.5-3.95-.2-10.65.45-8.95.75-14.15 1.65-.605.105-1.15.25-.712-.262-1.65.35-.35.2-.8.65-.6.55-.8.7-1.45 1.1-3.85 1.2-2.75 0-4.1.2-.95.15-1.45.55-.054.042-.1.05-.031.054-.05.05-.934.067-2 .2-1.435.257-3.15.75-2.29.763-3.95 1.25-1.26.383-2.15.6-3.35.65-5 1.15-.775.287-1.65 0-5.676 1.501-11.75 2.15-1.11.135-2.25.25-.972.085-1.55.3l-.2.1q-1 .55-1.05 1.4 0 1.079 1.15 1.5.116.025.2.05.75.25 2.1-.05 2.264-.31 4.1-.55 3.827-.4 5.85-.4h2.8q1.096 0 2.75-.05 1.44-.057 3.3-.15 4.35-.2 6.85.2.687.092 2 .3.124.024.9-.15.775-.163 1.7 0 .976.208 1.8.15.762-.188 1.35-.6.109.146.25.25.088.08.2.15.35.25 1.15.7.35.3.75 1.3.65 1.95 1.85 4.35.4.8.45 1.15v.85q-.05.4.05 1.2l.2.9q-.087 1.265 1 1.15 1.097-.058 1.75 0 .237.015.4 0h.05q.351-.146.6-.05.38-.01.75-.55.8-1.2.3-2.6-.2-.45-.2-.7l.15-.8q.15-.65.05-1.55l-.15-4.15q-.1-4.15.1-5.75.146-1.228.2-1.9.068.006.15 0 1.2-.1 2.85-.5.95-.2 2.85-.65 3.15-.65 8.75-2 4.43-1.081 10.1-1.1 2.024.107 2.85.05.872-.066 1.3-.3.151.038.3.05 3.15.25 4.1.3 1.205.08 2-.15 2.388.238 5.4.6 1.45.2 2.15 0 .492-.164.8-.45.305.162.7.3 2.1.55 6.35 1.05.65.15 3 .75 1.85.45 3 .6.551.12.9.2.076.058.15.1l.7.75q.331.26.7.4.16.476.6.65.501.23 1.4 1.35.893 1.166 1.95 5.5l.25 1.2.05 1.25q.05.6.25 1.8 0 .6-.2 1.75-.054.588.05 1v.05q-.2.45-.2 1.05-.05.5.15 1 .26.635.75.9h.2l.5.1.15.1.15.05v.05q1.043.041.85-.9-.155-.948.05-1.85.199-.893.25-1.1.103-.208.2-.25v-.7q.778.075 1.75-.55 1.6-1.006 2.15-1.25.55-.183 1.25-.3.7-.068 1.8 0 1.15.056 2.4.35 1.483.417 2.05.6.002 1.507.15 1.95.165.659.5 1.05l.05.35q-.13.158-.25.35-.45.8-.05 1.7.412.7 1.1.8.049.004.05-.05.051-.001.1-.05.25-.25.55-.25.2 0 .35.15l.05.05q.25-.165.3-.5.104-.702.15-1.4.055-.7-.25-.95.258-.145.4-.4.25-.4-.35-1.7l.4-4.35q0-.95.15-1.95l.3-1.8q.05-.85.15-1.25.068-.293.15-.6.433-.006.85-.35l.95-1.1q.25-.3.6-.95.3-.55.9-.85.2-.15 1.05-.5l.25-.15q.68-.017 1.65-.35 3.8-1.25 5.95-1.1 1.35 0 1.5-.05.503-.11.8-.4.264-.038.55-.1 1.13-.244 2.5-.35h1.7q.447-.005 1.2-.1.807-.037 1.85-.25Z"></path></g></defs><g><use xlink:href="#face_18_outline_svg__a"></use><use xlink:href="#face_18_outline_svg__b"></use><use xlink:href="#face_18_outline_svg__c"></use></g><use xlink:href="#face_18_outline_svg__d"></use><use xlink:href="#face_18_outline_svg__e"></use></svg>