<svg xmlns="http://www.w3.org/2000/svg" viewBox="0 0 1500 1500" fill="#fee8d3" xmlns:xlink="http://www.w3.org/1999/xlink" preserveAspectRatio="none"><defs><path fill="none" d="M780 242.35q-9.65.05-19.6.6 4.7 4 6.8 9.8 1.95 4.85 3.05 16.25 4.45 2.35 9.85 2.35 9.4 0 15.9-7.05 6.4-6.9 6.4-16.85 0-2.4-.25-4.6-9.05-.5-18.4-.5m9.15-14.6q7.8 5.45 9.25 15.1m-40.95-8.2q-2 3.1-2.8 6.75 1.05.7 2 1.55m-5.65-16.3q-3.55 10.1.25 12.7 1.8.95 3.4 2.05m11.85 27.6q.867 9.5 1.175 23.55.088 4.583.125 9.65-.7 1.45-8.85.45-13.2-1.9-27.75-6.05" id="face_16_outline_svg__b" stroke="#000" stroke-width="2" stroke-linejoin="round" stroke-linecap="round"></path><path d="M724.2 234.8q2.8 3.8 3.75 8.4.4 2.15.4 4.4 0 9.95-7.95 16.85-8.05 7.05-19.45 7.05-11.4 0-19.35-7.05-7.95-6.9-7.95-16.85 0-2.4.45-4.6.8-4.25 3.45-7.85M674.1 243q16.532-.738 34.025-.45m.325 0q9.599.174 19.5.65m-19.825-.65h.075q.087.002.175 0h.075" id="face_16_outline_svg__c" fill="none" stroke="#000" stroke-width="1.5" stroke-linejoin="round" stroke-linecap="round"></path><path d="M719.14 346.193q16.99-2.982 49.254-1.807" id="face_16_outline_svg__d" fill="none" stroke="#000" stroke-width="1.5" stroke-linejoin="round" stroke-linecap="round"></path><g id="face_16_outline_svg__a" fill="#000"><path fill="#FFF" d="M776.7 247.15q0-2.15 1.5-3.65.8-.8 1.8-1.15-9.65.05-19.6.6 4.7 4 6.8 9.8 1.95 4.85 3.05 16.25 4.45 2.35 9.85 2.35 9.4 0 15.9-7.05 6.4-6.9 6.4-16.85 0-2.4-.25-4.6-9.05-.5-18.4-.5 1 .35 1.8 1.15 1.5 1.5 1.5 3.65t-1.5 3.7q-1.5 1.5-3.65 1.5-2.2 0-3.7-1.5-1.5-1.55-1.5-3.7m-72.15-3.1q1.477-1.477 3.55-1.5-17.468-.288-34 .45-.45 2.2-.45 4.6 0 9.95 7.95 16.85 7.95 7.05 19.35 7.05 11.4 0 19.45-7.05 7.95-6.9 7.95-16.85 0-2.25-.4-4.4-9.901-.476-19.5-.65 1.987.084 3.45 1.5 1.5 1.55 1.5 3.7 0 2.15-1.5 3.65-1.55 1.5-3.7 1.5-2.15 0-3.65-1.5t-1.5-3.65q0-2.15 1.5-3.7Z"></path><path d="M778.2 243.5q-1.5 1.5-1.5 3.65t1.5 3.7q1.5 1.5 3.7 1.5 2.15 0 3.65-1.5 1.5-1.55 1.5-3.7 0-2.15-1.5-3.65-.8-.8-1.8-1.15-.85-.35-1.85-.35-1.05 0-1.9.35-1 .35-1.8 1.15m-70.1-.95q-2.073.023-3.55 1.5-1.5 1.55-1.5 3.7 0 2.15 1.5 3.65t3.65 1.5q2.15 0 3.7-1.5 1.5-1.5 1.5-3.65t-1.5-3.7q-1.463-1.416-3.45-1.5h-.1q-.063.002-.15 0h-.1Z"></path></g></defs><g><use xlink:href="#face_16_outline_svg__a"></use><use xlink:href="#face_16_outline_svg__b"></use><use xlink:href="#face_16_outline_svg__c"></use></g><use xlink:href="#face_16_outline_svg__d" transform="matrix(.99997 0 0 .99997 -.063 -.032)"></use></svg>