<svg xmlns="http://www.w3.org/2000/svg" preserveAspectRatio="none" viewBox="0 0 1500 1500" fill="#fee8d3" xmlns:xlink="http://www.w3.org/1999/xlink"><defs><path d="M724.15 243.15q-1.55-2.25-3.75-4.35-7.85-7.4-19.1-7.4-11.2 0-19.05 7.4-.9.9-1.75 1.8-1.25 1.4-2.25 3.05-2.55 3.8-3.4 8.3 25.4-1.2 53.05.25-.95-4.9-3.75-9.05m27.75 5.75q-12.25 5.3-19.8 48.05 12.5 4.25 23.8 5.2 5.5.25 5.6-3.5-.538-13.892-2.3-24.8-1.985-12.623-5.6-21.3-.808-1.91-1.7-3.65m41-10.1q-6.8-7.4-16.45-7.4-9.7 0-16.35 7.4-1.9 2.1-3.3 4.35-2.35 4.15-3.15 9.05 23.8-1.45 45.6-.25-1.8-6.75-3.35-9.5t-1.85-2.75q-.35 0-1.15-.9Z" id="face_15_fill_svg__a"></path></defs><use xlink:href="#face_15_fill_svg__a"></use></svg>