<svg xmlns="http://www.w3.org/2000/svg" viewBox="0 0 1500 1500" fill="#fee8d3" xmlns:xlink="http://www.w3.org/1999/xlink" preserveAspectRatio="none"><defs><path fill="#FFF" d="M10.85-10.35Q6.35-14.6 0-14.6q-6.3 0-10.75 4.25-.95.95-1.75 2Q-15.2-4.7-15.2 0q0 6.05 4.45 10.3Q-6.3 14.6 0 14.6q6.35 0 10.85-4.3 1.55-1.5 2.55-3.25Q15.25 3.9 15.25 0v-1.25q-.45-5.25-4.4-9.1Z" id="face_12_outline_svg__d"></path><path d="M2.6-2.7Q1.55-3.75 0-3.75q-1.6 0-2.7 1.05Q-3.75-1.6-3.75 0q0 1.55 1.05 2.6Q-1.6 3.75 0 3.75q1.55 0 2.6-1.15Q3.75 1.55 3.75 0q0-1.6-1.15-2.7Z" id="face_12_outline_svg__e" fill="#000"></path><path d="M13.65-4.65Q12.45-8.1 9.5-11 5-15.25-1.3-15.25q-6.35 0-10.8 4.25-1.55 1.55-2.6 3.3.8-1.05 1.75-2 4.45-4.25 10.75-4.25 6.35 0 10.85 4.25 3.95 3.85 4.4 9.1 2.15-1.55 3.35-4.1.55-1.25 1-2.4-1.65 1.75-3.75 2.45Z" id="face_12_outline_svg__f"></path><path fill="#FFF" d="M14.7-8.35q-.9-1.05-2.05-2Q7.45-14.6.05-14.6q-7.45 0-12.7 4.25-4.65 3.85-5.15 9.1-.05.6-.05 1.25 0 3.9 2.2 7.05 1.15 1.75 3 3.25 5.25 4.3 12.7 4.3 7.4 0 12.6-4.3Q17.9 6.05 17.9 0q0-4.7-3.2-8.35Z" id="face_12_outline_svg__h"></path><path d="M15.2-9.7q1.15.95 2.05 2-1.2-1.75-3.05-3.3Q9-15.25 1.55-15.25q-7.4 0-12.65 4.25-3.5 2.9-4.9 6.35-2.45-.7-4.4-2.45.55 1.15 1.2 2.4 1.4 2.55 3.95 4.1.5-5.25 5.15-9.1 5.25-4.25 12.7-4.25 7.4 0 12.6 4.25Z" id="face_12_outline_svg__i"></path><path id="face_12_outline_svg__a" stroke="#000" stroke-width="2" stroke-linejoin="round" stroke-linecap="round" fill="none" d="M741.9 287.25q.25 5.2 6.2 10.75 5.9 5.55 6.4 6.85.45 1.3.2 2.15-.3.75-.6 1.45-2.35 3.55-6.2 5.6-3.95 2.2-8.2 2.2"></path><path id="face_12_outline_svg__b" stroke="#000" stroke-width="1.5" stroke-linejoin="round" stroke-linecap="round" fill="none" d="M751.65 335.9q-14.684 5.25-28.1 5.475"></path><path id="face_12_outline_svg__c" stroke="#000" stroke-width="1.25" stroke-linejoin="round" stroke-linecap="round" fill="none" d="M789.599 292.55q-3.858 5.269-9.316 7.621-1.317.565-2.54 1.224m-117.721-14.21q3.764 5.458 9.222 8.658.47.282 1.13.564"></path><path id="face_12_outline_svg__g" stroke="#000" stroke-width="1.25" stroke-linejoin="round" stroke-linecap="round" fill="none" d="M8.65-9.7q3.95 3.85 4.4 9.1 2.15-1.55 3.35-4.1.55-1.25 1-2.4-1.65 1.75-3.75 2.45Q12.45-8.1 9.5-11 5-15.25-1.3-15.25q-6.35 0-10.8 4.25-1.55 1.55-2.6 3.3.8-1.05 1.75-2 4.45-4.25 10.75-4.25 6.35 0 10.85 4.25Zm-23.35 2q-2.7 3.65-2.7 8.35 0 6.05 4.45 10.3 4.45 4.3 10.75 4.3 6.35 0 10.85-4.3 1.55-1.5 2.55-3.25 1.85-3.15 1.85-7.05V-.6"></path><path id="face_12_outline_svg__j" stroke="#000" stroke-width="1.25" stroke-linejoin="round" stroke-linecap="round" fill="none" d="M-19.2-4.7q1.4 2.55 3.95 4.1.5-5.25 5.15-9.1 5.25-4.25 12.7-4.25 7.4 0 12.6 4.25 1.15.95 2.05 2-1.2-1.75-3.05-3.3Q9-15.25 1.55-15.25q-7.4 0-12.65 4.25-3.5 2.9-4.9 6.35-2.45-.7-4.4-2.45.55 1.15 1.2 2.4Zm36.45-3q3.2 3.65 3.2 8.35 0 6.05-5.25 10.3-5.2 4.3-12.6 4.3-7.45 0-12.7-4.3-1.85-1.5-3-3.25-2.2-3.15-2.2-7.05 0-.65.05-1.25"></path></defs><g><use xlink:href="#face_12_outline_svg__a"></use><use xlink:href="#face_12_outline_svg__b"></use></g><use xlink:href="#face_12_outline_svg__c" transform="matrix(1 0 0 1 .092 .084)"></use><use xlink:href="#face_12_outline_svg__d" transform="matrix(1.88202 0 0 1.88202 770.65 266.65)"></use><use xlink:href="#face_12_outline_svg__e" transform="matrix(1.88202 0 0 1.88202 765.65 267.85)"></use><g transform="matrix(1.88202 0 0 1.88202 774.8 265.4)"><use xlink:href="#face_12_outline_svg__f"></use><use xlink:href="#face_12_outline_svg__g"></use></g><use xlink:href="#face_12_outline_svg__h" transform="matrix(1.88202 0 0 1.88202 691.25 267)"></use><use xlink:href="#face_12_outline_svg__e" transform="matrix(1.88202 0 0 1.88202 701.2 267.85)"></use><g transform="matrix(1.88202 0 0 1.88202 686.45 265.8)"><use xlink:href="#face_12_outline_svg__i"></use><use xlink:href="#face_12_outline_svg__j"></use></g></svg>