<svg xmlns="http://www.w3.org/2000/svg" viewBox="0 0 1500 1500" fill="#fee8d3" xmlns:xlink="http://www.w3.org/1999/xlink" preserveAspectRatio="none"><defs><path fill="none" d="M706.95 181.1q7.95 1.95 13.95 9.95 5.8 8 6.1 17.2m17.2-.65q1.15-10.45 6.6-17.05 5.4-6.55 13.1-8.9m-20.65 59.1q3.55-17.35 13.2-26.6 9.6-9.4 24.85-11.05m-40.2 64.15q.55 1.35 2.05 10.9 1.35 8.15 1.2 13-.4 4.9-1.7 6.95-1.45 2.1-3.8 3.6-2.4 1.45-8.5 1.55-6.1.1-12.4-1.7M748.1 269q.05 9.3 8.5 15.6 8.35 6.1 19.8 5.45 11.85-.7 19.85-7.5 8.35-7.3 7.95-16.6 0-9.35-8.4-15.45-8.15-6.25-20-5.55-11.5.55-19.75 7.6-8.15 7.1-7.95 16.45Zm-62.2-65.8q8.75-.75 16.55 2.2 7.65 2.95 13.2 8.5 5.45 5.55 8.45 12.15 2.9 6.75 4.9 14.5m-11.65 29.15q-.15 9.3-9.3 15.6-9.15 6.1-21.8 5.45-12.9-.7-21.7-7.5-9.05-7.3-8.7-16.6 0-9.35 9.25-15.45 8.95-6.25 21.85-5.55 12.55.55 21.6 7.6 9 7.1 8.8 16.45Zm24.1 75.3q-6.5 2.7-15.65 3.2-9 .45-21.35-1.7" id="face_11_outline_svg__b" stroke="#000" stroke-width="2" stroke-linejoin="round" stroke-linecap="round"></path><g id="face_11_outline_svg__a" fill="#000"><path fill="#FFF" d="M665.1 251.2q-9.25 6.1-9.25 15.45-.35 9.3 8.7 16.6 8.8 6.8 21.7 7.5 12.65.65 21.8-5.45 9.15-6.3 9.3-15.6.2-9.35-8.8-16.45-9.05-7.05-21.6-7.6-12.9-.7-21.85 5.55m34.5 12.1q1.7 1.75 1.7 4.15 0 2.4-1.7 4.05-1.6 1.7-3.95 1.7t-4.05-1.7q-1.6-1.65-1.6-4.05t1.6-4.15q1.7-1.6 4.05-1.6 2.35 0 3.95 1.6m56.45-10.75q-8.15 7.1-7.95 16.45.05 9.3 8.5 15.6 8.35 6.1 19.8 5.45 11.85-.7 19.85-7.5 8.35-7.3 7.95-16.6 0-9.35-8.4-15.45-8.15-6.25-20-5.55-11.5.55-19.75 7.6m8 14.9q0-2.4 1.6-4.15 1.7-1.6 4.05-1.6 2.35 0 3.95 1.6 1.7 1.75 1.7 4.15 0 2.4-1.7 4.05-1.6 1.7-3.95 1.7t-4.05-1.7q-1.6-1.65-1.6-4.05Z"></path><path d="M701.3 267.45q0-2.4-1.7-4.15-1.6-1.6-3.95-1.6t-4.05 1.6q-1.6 1.75-1.6 4.15 0 2.4 1.6 4.05 1.7 1.7 4.05 1.7 2.35 0 3.95-1.7 1.7-1.65 1.7-4.05m64.35-4.15q-1.6 1.75-1.6 4.15 0 2.4 1.6 4.05 1.7 1.7 4.05 1.7 2.35 0 3.95-1.7 1.7-1.65 1.7-4.05t-1.7-4.15q-1.6-1.6-3.95-1.6t-4.05 1.6Z"></path></g></defs><g><use xlink:href="#face_11_outline_svg__a"></use><use xlink:href="#face_11_outline_svg__b"></use></g></svg>