<svg xmlns="http://www.w3.org/2000/svg" viewBox="0 0 1500 1500" fill="#fee8d3" xmlns:xlink="http://www.w3.org/1999/xlink" preserveAspectRatio="none"><defs><path fill="#FFF" d="M-.05-16.3q-6.7 0-11.35 4.8-4.65 4.75-4.65 11.5 0 6.7 4.65 11.5t11.35 4.8q6.7 0 11.4-4.8T16.05 0q0-6.75-4.7-11.55-4.7-4.75-11.4-4.75Z" id="face_01_outline_svg__b"></path><path d="M-.1-3.65q-1.55 0-2.65 1.05Q-3.8-1.5-3.8.05q0 1.45 1.05 2.55 1.1 1.1 2.65 1.1 1.5 0 2.55-1.1Q3.6 1.5 3.6.05q0-1.55-1.15-2.65Q1.4-3.65-.1-3.65Z" id="face_01_outline_svg__c" fill="#000"></path><path d="M3.65-.2q0-1.6-1.2-2.75-1.1-1.1-2.65-1.1-1.6 0-2.75 1.1-1.1 1.15-1.1 2.75 0 1.55 1.1 2.7Q-1.8 3.65-.2 3.65q1.55 0 2.65-1.15 1.2-1.15 1.2-2.7Z" id="face_01_outline_svg__f" fill="#000"></path><path id="face_01_outline_svg__a" stroke="#000" stroke-width="1.5" stroke-linejoin="round" stroke-linecap="round" fill="none" d="M-16.9 2.95Q-2.8-1.8 13.7.65"></path><path id="face_01_outline_svg__d" stroke="#000" stroke-width="1.3" stroke-linejoin="round" stroke-linecap="round" fill="none" d="M16.05 0q0 6.7-4.7 11.5t-11.4 4.8q-6.7 0-11.35-4.8-4.65-4.8-4.65-11.5 0-6.75 4.65-11.5 4.65-4.8 11.35-4.8 6.7 0 11.4 4.75 4.7 4.8 4.7 11.55Z"></path><path id="face_01_outline_svg__e" stroke="#000" stroke-width="1.3" stroke-linejoin="round" stroke-linecap="round" fill="none" d="M2.75.65Q1 7.55.5 11.95q-.5 4.3-.65 5.4-.15 1-.6 2.55-.45 1.5-1.65 1.8-1.15.2-3.05-1.25-1.8-1.45-3.05-4.6Q-9.75 12.8-10 8.8"></path><path id="face_01_outline_svg__g" stroke="#000" stroke-width="1.3" stroke-linejoin="round" stroke-linecap="round" fill="none" d="M16.3 0q0 6.7-4.75 11.5-1.254 1.254-2.65 2.175Q4.987 16.3 0 16.3q-5.043 0-8.95-2.65-1.372-.91-2.6-2.15-4.8-4.8-4.8-11.5 0-6.158 4-10.7.38-.43.8-.85Q-6.8-16.3 0-16.3q6.75 0 11.55 4.75.43.434.825.875Q16.3-6.14 16.3 0Z"></path></defs><use xlink:href="#face_01_outline_svg__a" transform="matrix(1.70581 0 0 1.70505 737.28 333.863)"></use><use xlink:href="#face_01_outline_svg__b" transform="matrix(1.70581 0 0 1.70505 776.25 266.7)"></use><use xlink:href="#face_01_outline_svg__c" transform="matrix(1.70581 0 0 1.70505 775.1 265.7)"></use><use xlink:href="#face_01_outline_svg__d" transform="matrix(1.70581 0 0 1.70505 776.5 266.55)"></use><use xlink:href="#face_01_outline_svg__e" transform="matrix(1.2865 -1.11945 1.11993 1.28593 742.8 282.2)"></use><use xlink:href="#face_01_outline_svg__b" transform="matrix(1.70578 0 0 1.70502 700.05 266.7)"></use><use xlink:href="#face_01_outline_svg__f" transform="matrix(1.70581 0 0 1.70505 710.25 265.95)"></use><use xlink:href="#face_01_outline_svg__g" transform="matrix(-1.70581 0 0 1.70505 699.65 266.75)"></use></svg>