<svg xmlns="http://www.w3.org/2000/svg" preserveAspectRatio="none" viewBox="0 0 1500 1500" fill="#fee8d3" xmlns:xlink="http://www.w3.org/1999/xlink"><defs><path d="M722.9 245.15q-9.45-8.2-22.75-8.2-13.45 0-22.8 8.3-9.45 8.25-9.45 19.85 0 11.7 9.45 19.9 9.45 8.1 22.85 8.1 13.35 0 22.7-8.2 9.45-8.15 9.45-19.85 0-11.65-9.45-19.9m6.1 15.4q.1 0 .2.05.65 0 1.15.1.45 2.25.45 4.6 0 11.05-9.05 18.9-8.95 7.9-21.8 7.9-2.2 0-4.25-.2l-7.65-1.8q-5.45-2-9.9-5.9-9-7.85-9-18.9 0-2.9.55-5.3h.15q2.9-.1 5.6-.1 6.25-.4 12.6-.55 6.95-.15 14 .1 5.8.15 11.65.55l.55.1q7.35.15 14.05.5h.1q.35-.15.6-.05m67.8-15.15q-8.9-8-22.2-8-11.8 0-20.45 6.45-2-1.95-5.75-2.4-9.45-1.2-11.65 12.15-1.8 59.5 10.1 60.65h1q.15-.1.25-.1 13.5-1.7 19.35-4.6 4.05-1.85 5.3-3.4 0-1.35-.6-2.35-1.75-2.7-3.35-10.65l-.2-1q-.05-.1-.05-.2-.2-1.15-.45-2.45-2.8-16.3-7.3-20.9-4.5-4.65-6.75-7.1-.55-.6-.95-1.2-.05-.05-.1-.15 4.75-.25 9.55-.35 7.1-.15 14.35.1 5.6.15 11.25.55l.55.1q7.35.15 14.05.5h.1q.45-.15 1.15-.35.3-.1.55.45.05.05.1.15.35.4.65 1.4 0 .1.05.25-.1-2.4-.6-4.65-1.2-5.25-4.7-9.45-1.35-1.8-3.25-3.45Z" id="face_03_fill_svg__a"></path></defs><use xlink:href="#face_03_fill_svg__a"></use></svg>