<svg xmlns="http://www.w3.org/2000/svg" viewBox="0 0 1500 1500" fill="#fee8d3" xmlns:xlink="http://www.w3.org/1999/xlink" preserveAspectRatio="none"><defs><path id="face_03_outline_svg__b" stroke="#000" stroke-width="1.5" stroke-linejoin="round" stroke-linecap="round" fill="none" d="M756.4 245.5q-.3.45-.65.8-5.05 7.3-4.5 9.9.4 2.05 1.75 3.95m35.7.4q7.35.15 14.05.5h.1m1.8.25q-.05-.1-.1-.15m.1 10.5q1.95-6.8.1-13.35-1.2-5.25-4.7-9.45-.9-1.45-2.05-2.8m-44.9 14.25q.4.6.95 1.2 2.25 2.45 6.75 7.1 4.5 4.6 7.3 20.9.25 1.3.45 2.45m4 .55q.9.05 1.85.05h1.35q1.4-.05 2.7-.2m20.95-10.95q.45-.45.85-1 .6-.7 1.05-1.5 1.9-2.8 2.9-5.95.25-.65.45-1.3m-35.85 21.5q1.6 7.95 3.35 10.65.6 1 .6 2.35-1.25 1.55-5.3 3.4-5.85 2.9-19.35 4.6-.1 0-.25.1h-1m6.15-54.1q.05.1.1.15 4.75-.05 9.4-.05 7.45-.05 14.45.05m-101.5-.4q-2.7 0-5.6.1h-.15q-.55 2.4-.55 5.3 0 11.05 9 18.9 4.45 3.9 9.9 5.9l7.65 1.8q2.05.2 4.25.2 12.85 0 21.8-7.9 9.05-7.85 9.05-18.9 0-2.35-.45-4.6-.5-.1-1.15-.1m-.9 0q-6.7-.35-14.05-.5m14.95.5h-.8m40.4 32.55-.2-1q-.05-.1-.05-.2m.05.2q1.05.15 2.1.25m33.85-31.25q-.8-.1-1.7-.1m-14.15-.5q-5.7-.2-11.75-.25m-6.25 32.1q.9.1 1.85.1m8.5-.45q1.35-.25 2.7-.6 1.1-.35 2.25-.7 3.1-1.1 5.85-2.8.9-.6 1.8-1.25 1.25-.95 2.55-2.05 1.8-1.55 3.2-3.25m-20.95 10.95q1.35-.1 2.6-.3m-78.9-32.2q-6.9-.1-14.2-.05m-12.95-10q-1.95 2-3.25 4.4-1.4 2.65-2.05 5.8m18.25-.2q-6.1 0-12.5.1m38.8.2q-5.85-.2-12.1-.25m28.2.85q-.5-3.05-1.85-5.85-1.2-2.4-3.1-5.05"></path><path id="face_03_outline_svg__c" stroke="#000" stroke-width="1.5" stroke-linejoin="round" stroke-linecap="round" fill="none" d="M-17.75-4.2Q-4.35 2.85 19.1.4"></path><g id="face_03_outline_svg__a" fill="#000"><path fill="#FFF" d="m714.25 260.1-.55-.1q-5.85-.4-11.65-.55.05.15.1.4 6.25.05 12.1.25m-26.3-.3q.05-.25.1-.45-6.35.15-12.6.55 6.4-.1 12.5-.1m41.8 1.8q-.2-.8-.55-1h-.9l-.2.2h-.15q-5.3-.1-10.7-.55l-3-.15q-5.85-.2-12.1-.25.15.65.15 1.4 0 2.6-2.05 4.6-2.15 1.95-5.2 1.95-3 0-5.05-1.95-2.25-2-2.25-4.6 0-.75.2-1.45-6.1 0-12.5.1-2.15.1-4.3.25-1.25.15-1.45.7-.05.2-.1.45.05.45.4.6-.1.45-.1 1.05-.2 4.15.1 6.2.6 5.05 3.95 9.65 3.05 4.15 7.45 7.3 1.35 1 3.15 1.9l2.15.9q12.35 4.55 24.95.5 6.1-2.05 9.65-5.3 1.4-1.25 3.6-3.95 1.35-1.6 1.85-2.7 4.7-7.4 3-15.85m-.55-1q-.1-.05-.2-.05-.25-.1-.6.05h.8m72.1 18.3q-.45.8-1.05 1.5-.4.55-.85 1-.3.4-.6.85 4.3-4.8 5.85-10.6-.2.65-.45 1.3-1 3.15-2.9 5.95m-12.6-18.35-.55-.1q-5.65-.4-11.25-.55 0 .2.05.4 6.05.05 11.75.25m15.85.6q-.25-.55-.55-.45-.7.2-1.15.35.9 0 1.7.1m-51.55-1q.05.1.1.15 4.75-.05 9.4-.05 0-.25.05-.45-4.8.1-9.55.35m.1.15q.4.6.95 1.2 2.25 2.45 6.75 7.1 4.5 4.6 7.3 20.9.25 1.3.45 2.45.9.2 1.75.4.139.013.25 0 .995.106 2 .15.9.05 1.85.05h1.35q1.4-.05 2.7-.2 1.5-.15 2.95-.4.7-.25 1.45-.55 9.35-3.6 12.9-6.85 1.4-1.25 3.6-3.95 1.05-1.25 3.2-4.4-1.25 2.7-3.15 5.2.45-.45.85-1 .6-.7 1.05-1.5 1.9-2.8 2.9-5.95.25-.65.45-1.3.75-3.05.75-6.35 0-1.35-.1-2.6-.3-1-.65-1.4-.05-.1-.1-.15-.8-.1-1.7-.1h-.1l-.2.2h-.15q-5.3-.1-10.7-.55l-3-.15q-5.7-.2-11.75-.25.05.45.05.95 0 2.8-2.05 4.85-2.2 2.05-5.25 2.05-2.85 0-5.05-2.05-2.25-2.05-2.25-4.85 0-.55.1-1-4.65 0-9.4.05Z"></path><path fill="#FCD0A8" d="M728.3 260.6q-6.7-.35-14.05-.5l3 .15q5.4.45 10.7.55h.15l.2-.2m2.5 4.7q0-2.35-.45-4.6-.5-.1-1.15-.1.35.2.55 1 1.7 8.45-3 15.85-.5 1.1-1.85 2.7-2.2 2.7-3.6 3.95-3.55 3.25-9.65 5.3-12.6 4.05-24.95-.5l-2.15-.9q-1.8-.9-3.15-1.9-4.4-3.15-7.45-7.3-3.35-4.6-3.95-9.65-.3-2.05-.1-6.2 0-.6.1-1.05-.35-.15-.4-.6v-.15q0-.15.1-.3.2-.55 1.45-.7 2.15-.15 4.3-.25-2.7 0-5.6.1h-.15q-.55 2.4-.55 5.3 0 11.05 9 18.9 4.45 3.9 9.9 5.9l7.65 1.8q2.05.2 4.25.2 12.85 0 21.8-7.9 9.05-7.85 9.05-18.9m52.05 26.1q-.75.3-1.45.55-.2.05-.35.1 1.35-.25 2.7-.6 1.1-.35 2.25-.7 3.1-1.1 5.85-2.8.9-.6 1.8-1.25 1.25-.95 2.55-2.05 1.8-1.55 3.2-3.25 1.9-2.5 3.15-5.2-2.15 3.15-3.2 4.4-2.2 2.7-3.6 3.95-3.55 3.25-12.9 6.85m19.55-30.15h.15l.2-.2q-6.7-.35-14.05-.5l3 .15q5.4.45 10.7.55m-33.85 30.7q0 .1.05.2 1.05.15 2.1.25-.06-.015-.15-.05-.111.013-.25 0-.85-.2-1.75-.4m.05.2.2 1q2.8.4 5.85.4 13.35 0 21.8-8.65 1.25-1.3 2.35-2.65.3-.45.6-.85-1.4 1.7-3.2 3.25-1.3 1.1-2.55 2.05-.9.65-1.8 1.25-2.75 1.7-5.85 2.8-1.15.35-2.25.7-1.35.35-2.7.6-4.75 1.25-10.35.35-1.05-.1-2.1-.25Z"></path><path stroke="#000" d="M687.95 259.8q-.2.7-.2 1.45 0 2.6 2.25 4.6 2.05 1.95 5.05 1.95 3.05 0 5.2-1.95 2.05-2 2.05-4.6 0-.75-.15-1.4-6.9-.1-14.2-.05m.1-.45q-.05.2-.1.45 7.3-.05 14.2.05-.05-.25-.1-.4-7.05-.25-14-.1m74.5.45q-.05.2-.05.45 7.45-.05 14.45.05-.05-.2-.05-.4-7.25-.25-14.35-.1m-.05.45q-.1.45-.1 1 0 2.8 2.25 4.85 2.2 2.05 5.05 2.05 3.05 0 5.25-2.05 2.05-2.05 2.05-4.85 0-.5-.05-.95-7-.1-14.45-.05Z"></path></g></defs><g><use xlink:href="#face_03_outline_svg__a"></use><use xlink:href="#face_03_outline_svg__b"></use></g><use xlink:href="#face_03_outline_svg__c" transform="matrix(1.79614 .11584 -.11584 1.79614 720.95 352.5)"></use></svg>