<svg xmlns="http://www.w3.org/2000/svg" viewBox="0 0 1500 1500" fill="#fee8d3" xmlns:xlink="http://www.w3.org/1999/xlink" preserveAspectRatio="none"><defs><path id="face_06_outline_svg__b" fill="none" d="M744.7 245.95q2.458-5.8 1.25-12.25-.355-1.945-1.05-3.95m2.4 42.45q.895 9.67 3.95 17.35.692 1.752 1.5 3.4.795 1.625 1.7 3.15 5.8 9.9 7.9 14.2 2 4.25-4 9.2-2.116 1.696-4.1 3.05-3.699 2.517-6.95 3.85m44.5-75.85q1.9 1.5 3.3 3.4 3.15 4.25 3.3 9.85-.15 6.1-3.7 11.1v.1q-1.3 1.55-2.8 3-2.75 2.7-5.9 4.35-4.55 2.25-9.95 2.75-7.25.55-12.9-2.75-1.45-.8-2.85-1.9-6.5-5.3-6.4-13.35-.1-8.05 6.5-14.3 6.5-6.2 15.65-6.8 9.3-.8 15.75 4.55Zm-71.25 2.55q7.8 6.4 7.85 14.45-.05 8.05-7.85 13.3l-2.7 1.6q-7.1 3.25-16.45 2.65-6.2-.6-11.4-2.65-4.15-1.75-7.65-4.5-7.85-6.35-7.75-14.5-.1-8.1 7.75-13.15 7.8-5.25 19.05-4.3 11.2.75 19.15 7.1Z" stroke="#000" stroke-width="2" stroke-linejoin="round" stroke-linecap="round"></path><path id="face_06_outline_svg__c" d="M-16.05-1.95Q-.55 3.35 16.1 1.4" stroke="#000" stroke-width="1.5" stroke-linejoin="round" stroke-linecap="round" fill="none"></path><g id="face_06_outline_svg__a" fill="#000"><path fill="#FFF" d="M682.35 250.3q-7.85 5.05-7.75 13.15-.1 8.15 7.75 14.5 3.5 2.75 7.65 4.5 5.2 2.05 11.4 2.65 9.35.6 16.45-2.65l2.7-1.6q7.8-5.25 7.85-13.3-.05-8.05-7.85-14.45-7.95-6.35-19.15-7.1-11.25-.95-19.05 4.3m34.4 10.4q2 2 2 4.85 0 2.75-2 4.75t-4.85 2q-2.75 0-4.85-2-1.9-2-1.9-4.75 0-2.85 1.9-4.85 2.1-2 4.85-2 2.85 0 4.85 2m43.65-7.9q-6.6 6.25-6.5 14.3-.1 8.05 6.4 13.35 1.4 1.1 2.85 1.9 5.65 3.3 12.9 2.75 5.4-.5 9.95-2.75 3.15-1.65 5.9-4.35 1.5-1.45 2.8-3v-.1q3.55-5 3.7-11.1-.15-5.6-3.3-9.85-1.4-1.9-3.3-3.4-6.45-5.35-15.75-4.55-9.15.6-15.65 6.8m21.9 7.9q2 2 2 4.85 0 2.75-2 4.75t-4.85 2q-2.75 0-4.85-2-1.9-2-1.9-4.75 0-2.85 1.9-4.85 2.1-2 4.85-2 2.85 0 4.85 2Z"></path><path d="M718.75 265.55q0-2.85-2-4.85-2-2-4.85-2-2.75 0-4.85 2-1.9 2-1.9 4.85 0 2.75 1.9 4.75 2.1 2 4.85 2 2.85 0 4.85-2 2-2 2-4.75m65.55 0q0-2.85-2-4.85-2-2-4.85-2-2.75 0-4.85 2-1.9 2-1.9 4.85 0 2.75 1.9 4.75 2.1 2 4.85 2 2.85 0 4.85-2 2-2 2-4.75Z"></path></g></defs><g><use xlink:href="#face_06_outline_svg__a"></use><use xlink:href="#face_06_outline_svg__b"></use></g><use xlink:href="#face_06_outline_svg__c" transform="matrix(1.7315 0 0 1.7315 729.8 342.6)"></use></svg>