<svg xmlns="http://www.w3.org/2000/svg" viewBox="0 0 1500 1500" fill="#fee8d3" xmlns:xlink="http://www.w3.org/1999/xlink" preserveAspectRatio="none"><defs><path id="face_05_outline_svg__c" fill="#000" d="M2.7-2.75Q1.65-3.85.05-3.85q-1.65 0-2.75 1.1Q-3.8-1.6-3.8 0t1.1 2.7Q-1.6 3.8.05 3.8q1.6 0 2.65-1.1Q3.85 1.6 3.85 0T2.7-2.75Z"></path><path id="face_05_outline_svg__d" d="M-2.35-1.05q-5.75-.5-10.4-2.05 2.05 4.65 6.1 6.95 2.3 1.4 5.05 1.6 2.7.25 5.2-.7 2.6-1.05 4.3-3.2Q8.8.5 9.35-.75q-7.2.15-11.7-.3M8.6-2.6Q7.15-4.35 3.45-5.05q-8.95-1.6-16.3 1.75l.1.2q4.65 1.55 10.4 2.05 4.5.45 11.7.3.1-.2.2-.45-.35-.75-.95-1.4Z"></path><path d="M2.7-2.75Q1.65-3.85.05-3.85q-1.65 0-2.75 1.1Q-3.8-1.6-3.8 0t1.1 2.7Q-1.6 3.8.05 3.8q1.6 0 2.65-1.1Q3.85 1.6 3.85 0T2.7-2.75Z" id="face_05_outline_svg__f" fill="#000"></path><path id="face_05_outline_svg__b" stroke="#000" stroke-width="2" stroke-linejoin="round" stroke-linecap="round" fill="none" d="M798.9 268.85q.9-1.25 1.25-1.8.4-.65.65-1.55 1.2-2.85 1.75-7.05.35-4.2-.75-2-.8 1.35-1.9 2.25-.25.3-.55.5l-1.25.8q-.4-.2-.5-.35-.8-1.55-1.8-2.75-1.9-2.2-4.2-3.65-3.45-2.2-7.65-2.2-4.3-.1-7.25.75-3 .9-6 2.7-3.1 1.75-5.55 4.3-2.1 1.95-3.95 5.75 6.3-7.65 15.45-9.85l.05-.1q.45-.15 1.2-.25 4.5-.9 8.4 0 3.4.65 6.3 2.8 2.1 1.65 3.55 3.75 1.85 2.5 2.45 5.95v.1q.2.9.3 1.9 0 .85.1 1.65-.2 7.65-5.05 14.5-.35.55-.8 1.3-.2.25-.55.65-3.4 3.9-7.4 6.45-3.75 2.4-8.1 3.4h-.2q-9.2 2.15-15.7-2.55-6.4-4.6-6.3-13.35-.1-7.65 5-14.5.55-.9 1.2-1.75v-.1h.1m-93.4 5q.1-1.55.45-2.8 1.5-6.05 7.85-9.5 0-.1.1-.1 4.2-2.3 9.25-2.85 3.7-.55 7.9 0 1.55.1 3.3.45h.1q11.85 2.2 20.35 10.05.75.65 1.55 1.4 2.2 2.15 3.65 4.55-.25-1.75-2.75-5-.9-1.2-1.7-2.2-10.15-10.5-22.45-11.95-2.65-.3-5.7-.3-3-.1-6.9.45-3.95.65-6.95 2.3-3.1 1.55-4.95 3.1-2 1.55-3.1 3l-.05.1q-3.85-2.85-4.85-4.1-1.3-1.3-.1 3.45.75 3.55 3.3 7.4.25.45 1.7 2.55v.9q-.05 8.8 8.5 16.65 8.4 7.65 20.45 9.95 11.85 2.15 20.35-2.4 8.5-4.55 8.6-13.3-.1-5.05-2.85-9.8-.25-.45-.55-.8m24.45 23.95q-.7 10.05 3.4 13.75 1.2 1.2 4.1 2.5 3.2 1.35 4.3 2.55 2.1 1.55 2.9 4.75.45 2.9-.35 5.65-2.1 5.45-8.5 7.55-1.65.5-3.45.65"></path><path id="face_05_outline_svg__e" stroke="#000" stroke-width="1.5" stroke-linejoin="round" stroke-linecap="round" fill="none" d="m-12.85-3.3.1.2q4.65 1.55 10.4 2.05 4.5.45 11.7.3h1.5m-26.7-3.45q1.35.55 2.75 1 .1-.05.25-.1m-.25.1q.15.05.35.1"></path><g id="face_05_outline_svg__a" fill="#000"><path fill="#FFF" d="M676.1 257.25q-6.35 3.45-7.85 9.5-.35 1.25-.45 2.8v.9q-.05 8.8 8.5 16.65 8.4 7.65 20.45 9.95 11.85 2.15 20.35-2.4 8.5-4.55 8.6-13.3-.1-5.05-2.85-9.8-.25-.45-.55-.8-1.45-2.4-3.65-4.55-.8-.75-1.55-1.4-8.5-7.85-20.35-10.05h-.1q-1.75-.35-3.3-.45-4.2-.55-7.9 0-5.05.55-9.25 2.85-.1 0-.1.1m85.1 7.3h-.1v.1q-.65.85-1.2 1.75-5.1 6.85-5 14.5-.1 8.75 6.3 13.35 6.5 4.7 15.7 2.55h.2q4.35-1 8.1-3.4 4-2.55 7.4-6.45.35-.4.55-.65.45-.75.8-1.3 4.85-6.85 5.05-14.5-.1-.8-.1-1.65-.1-1-.3-1.9v-.1q-.6-3.45-2.45-5.95-1.45-2.1-3.55-3.75-2.9-2.15-6.3-2.8-3.9-.9-8.4 0-.75.1-1.2.25l-.05.1q-9.15 2.2-15.45 9.85Z"></path><path d="M668.25 266.75q1.5-6.05 7.85-9.5 0-.1.1-.1 4.2-2.3 9.25-2.85 3.7-.55 7.9 0 1.55.1 3.3.45h.1q11.85 2.2 20.35 10.05.75.65 1.55 1.4 2.2 2.15 3.65 4.55-.25-1.75-2.75-5-.9-1.2-1.7-2.2-10.15-10.5-22.45-11.95-2.65-.3-5.7-.3-3-.1-6.9.45-3.95.65-6.95 2.3-3.1 1.55-4.95 3.1-2 1.55-3.1 3l-.05.1q-3.85-2.85-4.85-4.1-1.3-1.3-.1 3.45.75 3.55 3.3 7.4.25.45 1.7 2.55.1-1.55.45-2.8m96.9-7.95q-2.1 1.95-3.95 5.75 6.3-7.65 15.45-9.85l.05-.1q.45-.15 1.2-.25 4.5-.9 8.4 0 3.4.65 6.3 2.8 2.1 1.65 3.55 3.75 1.85 2.5 2.45 5.95v.1q.2.9.3 1.9.9-1.25 1.25-1.8.4-.65.65-1.55 1.2-2.85 1.75-7.05.35-4.2-.75-2-.8 1.35-1.9 2.25-.25.3-.55.5l-1.25.8q-.4-.2-.5-.35-.8-1.55-1.8-2.75-1.9-2.2-4.2-3.65-3.45-2.2-7.65-2.2-4.3-.1-7.25.75-3 .9-6 2.7-3.1 1.75-5.55 4.3Z"></path></g></defs><g><use xlink:href="#face_05_outline_svg__a"></use><use xlink:href="#face_05_outline_svg__b"></use></g><use xlink:href="#face_05_outline_svg__c" transform="matrix(1.82544 0 0 1.82544 778.1 275.15)"></use><g transform="matrix(1.82544 0 0 1.82544 736 352.65)"><use xlink:href="#face_05_outline_svg__d"></use><use xlink:href="#face_05_outline_svg__e"></use></g><use xlink:href="#face_05_outline_svg__f" transform="matrix(1.82544 0 0 1.82544 709.7 276.05)"></use></svg>