<svg xmlns="http://www.w3.org/2000/svg" viewBox="0 0 1500 1500" fill="#fee8d3" xmlns:xlink="http://www.w3.org/1999/xlink" preserveAspectRatio="none"><defs><path id="face_02_outline_svg__b" stroke="#000" stroke-width="1.3" stroke-linejoin="round" stroke-linecap="round" fill="none" d="m752.15 261.4-.2.6q-.05.25-.15.5-.45 1.9-.6 4.65m53.25-8.6q-1.1-3.45-3.2-6.45-.5-.65-1.05-1.25-1.1-1.25-2.45-2.45-.25-.15-.4-.35m7.6 12.2-.5-1.7m-53.25 8.6q-.1.8-.1 1.7m-16.9-1.25v1.3m-61.75-7.55q.6-1.7 1.25-3.3m56.45-2.95q3.9 5.55 4.05 12.5m-60.5-9.55q1.55-3.4 3.8-6.35.9-1.1 1.9-2.15.2-.25.4-.45 1-1.05 2.1-1.95"></path><path id="face_02_outline_svg__c" stroke="#000" stroke-width="1" stroke-linejoin="round" stroke-linecap="round" fill="none" d="M671.85 268.75q.75 9.55 9.05 16.75 9.2 7.85 22.15 8.1 12.9.25 21.95-7.15 8.45-6.95 9.15-16.6m16.7.2q.25 10.15 7.95 17.15 7.8 7.1 19.1 6.5 11.35-.6 19.45-8.7l.85-.85q.4-.4.85-.9 3.8-4.4 5.4-9.55 1.1-3.5 1.1-7.4v-.55"></path><path id="face_02_outline_svg__d" stroke="#000" stroke-width="1.5" stroke-linejoin="round" stroke-linecap="round" fill="none" d="M747.75 282.45q1 3.55 2.45 7.15 1.6 3.85 3.9 7.25 1 1.45 1.95 2.75-1.45 4-4.25 6.7-1.75 1.75-4.25 2.8-.35.15-.65.3m11.1 25.1q1.2-.25 2.45-.5m-49.1-8.05q.85.5 1.8 1Q734.5 338.9 758 334.5"></path><g id="face_02_outline_svg__a" fill="#000"><path d="M713.15 326.95h-.2q-.4.25.7 1.55 3.45 6.15 8.6 10.2 5.1 4.1 9.65 5.5 4.55 1.35 9.3 1.05 4.65-.35 7.75-2.05 3.05-1.8 5.35-4.05 2.25-2.3 3.3-3.75.25-.5.4-.9-23.5 4.4-44.85-7.55m12.3-1q-8.1.7-12.3 1Q734.5 338.9 758 334.5q.25-1-.25-1.85-.75-1.35-5.65-3.75-4.9-2.35-8.2-2.85-3.2-.5-6.7-.7-3.45-.05-11.75.6Z"></path><path fill="#FFF" d="M734.35 269.8q-.1.05-.2.05-.7 9.65-9.15 16.6-9.05 7.4-21.95 7.15-12.95-.25-22.15-8.1-8.3-7.2-9.05-16.75-.05.05-.15.05.8 9.55 9.1 16.75 9.3 7.9 22.25 8.15 12.9.25 22.05-7.1 8.55-7.1 9.25-16.8m-.7.15q-1.2-.15-1.35-.25-6.8-1.5-14.2-2.5.35 1.1.35 2.35 0 2.9-2.05 5.05-2.15 2.05-5.05 2.05-2.95 0-5-2.05-2.2-2.15-2.2-5.05 0-2.1 1.1-3.75l-1.35-.15q-2.8-.2-4.25-.2l-4.4-.25q-3.05-.15-4.55-.15l-18.5.1q.05 2.1 0 3.1-.1.35-.35.5.75 9.55 9.05 16.75 9.2 7.85 22.15 8.1 12.9.25 21.95-7.15 8.45-6.95 9.15-16.6-.25.1-.5.1m71.1-11.55q-.048-.097-.05-.15v.15h.05m-53.55 11.75q-.15-.1-.35-.1.25 10.15 7.95 17.15 7.8 7.1 19.1 6.5 11.35-.6 19.45-8.7l.85-.85q.4-.4.85-.9 3.8-4.4 5.4-9.55 1.1-3.5 1.1-7.4v-.55h-.7q-4.45-1.05-9.8-1.3-5.7-.4-17.3.85 1.05 1.5 1.05 3.5 0 2.55-1.8 4.4-1.85 1.8-4.4 1.8-2.6 0-4.4-1.8-1.95-1.85-1.95-4.4 0-1.15.4-2.2-5.95.9-10.3 2-1.2.35-5.15 1.55m-.35-.1q-.15-.1-.25-.2.2 10.4 8.05 17.5 7.85 7.2 19.25 6.65 11.45-.6 19.65-8.8l.85-.85q.4-.4.8-.9 3.9-4.55 5.5-9.65 1.1-3.55 1.1-7.45v-.65q-.15 0-.25.05v.55q0 3.9-1.1 7.4-1.6 5.15-5.4 9.55-.45.5-.85.9l-.85.85q-8.1 8.1-19.45 8.7-11.3.6-19.1-6.5-7.7-7-7.95-17.15Z"></path><path d="M732.3 269.7q.15.1 1.35.25.25 0 .5-.1.1 0 .2-.05.1-.1.2-.25.1-.2.2-.45v-.25q-.1-.55-.35-1-.1-.15-.2-.25v1.3-1.3q-.25-.25-.55-.45-1.1-.6-6.45-2.1-5.3-1.5-14.8-2.8-12.25-1.6-19.7-2-6.8-.45-10.3-.7-3.45-.35-7.15-1.2-.8-.15-1.55-.3-.65 1.6-1.25 3.3.6-1.7 1.25-3.3-.1-.1-.15-.1-.1 0-.2-.05l-2.7-.7q-.15-.1-.4-.2-1.35-.4-2.8-.9-.25-.1-.4-.1l-2.55-.9q-2.1-.85-4.25-1.7-.75-.25-.85.15-.05.5.35 1.6.35 1.05 2.4 4.25 2 3.1 5.05 6.05.75.7 1.35 1.3 1.45 1.15 2.3 1.75.5.35.85.3.1 0 .15-.05.25-.15.35-.5.05-1 0-3.1l18.5-.1q1.5 0 4.55.15l4.4.25q1.45 0 4.25.2l1.35.15q-1.1 1.65-1.1 3.75 0 2.9 2.2 5.05 2.05 2.05 5 2.05 2.9 0 5.05-2.05 2.05-2.15 2.05-5.05 0-1.25-.35-2.35 7.4 1 14.2 2.5m18.5-2.05q-.1.15-.15.35-.05.05-.05.1-.15.5-.25.85v.15q0 .45.25.75.1.1.25.2.2 0 .35.1 3.95-1.2 5.15-1.55 4.35-1.1 10.3-2-.4 1.05-.4 2.2 0 2.55 1.95 4.4 1.8 1.8 4.4 1.8 2.55 0 4.4-1.8 1.8-1.85 1.8-4.4 0-2-1.05-3.5 11.6-1.25 17.3-.85 5.35.25 9.8 1.3h.7q.1-.05.25-.05l.5-.2q.25-.2.5-.45.5-.85 1.05-1.6.05-.25.25-.5 1.1-2.05 1.95-4.05 1.35-3.75 1.15-4.4-.15-.6-2.35 1-.1.1-.2.15l-3.9 2.75h-.05l-.25.15.5 1.7-.5-1.7-1.8 1.2-3.45.15q-29.15.5-42.35 4.9l-2.85.95q-2.1.75-2.8 1.4-.1.8-.1 1.7 0-.9.1-1.7-.15.1-.25.25-.15.1-.15.25Z"></path></g></defs><g><use xlink:href="#face_02_outline_svg__a"></use><use xlink:href="#face_02_outline_svg__b"></use><use xlink:href="#face_02_outline_svg__c"></use><use xlink:href="#face_02_outline_svg__d"></use></g></svg>