<svg xmlns="http://www.w3.org/2000/svg" viewBox="0 0 1500 1500" fill="#fee8d3" xmlns:xlink="http://www.w3.org/1999/xlink" preserveAspectRatio="none"><defs><path fill="none" d="M783.7 244.05q2 1.3 3.75 3.25 5.25 5.55 6.3 12.95.25 1.9.25 3.9 0 10-6.55 16.9-6.4 7-15.55 7-7.501 0-13.25-4.6.295.808.6 1.6 6.3 17.3 7.95 29.55.6 3.85-.9 5.65-1.15 1.5-5.15 2.5-11.55 2.5-20.9 2.5m29.85-65.55q-9.878.267-19.975 1.375.239.669.525 1.375 2.75 7.15 7.25 18.95.15.5.35 1 .195.527.4 1.05m-12.25-32.6q.35 1.1 3 8.15.231.74.525 1.525.915-7.29 5.825-12.825m-5.825 12.825q.093.27.2.55M770.1 259.7q3.524-.107 7.025-.1 5.906-.005 11.725.3 1.9 0 4.9.35m-122 2.15q.85-7.45 6.35-13.2m44.15 12.55q.25 1.65.25 3.4 0 10-7.5 16.9-7.3 7-17.95 7-10.55 0-18.05-7-7.4-6.9-7.4-16.9 0-1.4.15-2.75 17.437-1.413 34.825-1.2 3.725.053 7.45.175 4.117.147 8.225.375-1.05-7.5-6.8-13.05" id="face_08_outline_svg__b" stroke="#000" stroke-width="1.5" stroke-linejoin="round" stroke-linecap="round"></path><path id="face_08_outline_svg__c" stroke="#000" stroke-width="1.5" stroke-linejoin="round" stroke-linecap="round" fill="none" d="M-31.35-4.85Q-30.1-8.2-26.4-9.2m2.95 5.35Q-6.3-.05 11.4-1"></path><g id="face_08_outline_svg__a" fill="#000"><path d="M714.55 261.85q-.25-.25-.55-.5-3.7-.097-7.45-.15-.38.29-.75.65-1.75 1.8-1.75 4.4 0 2.6 1.75 4.35 1.8 1.8 4.4 1.8 2.6 0 4.35-1.8 1.8-1.75 1.8-4.35 0-2.6-1.8-4.4m54.75-1.5q-1.75 1.8-1.75 4.4 0 2.6 1.75 4.35 1.8 1.8 4.4 1.8 2.6 0 4.35-1.8 1.8-1.75 1.8-4.35 0-2.6-1.8-4.4-.435-.435-.95-.75-3.476-.007-7 .1-.421.282-.8.65Z"></path><path fill="#FFF" d="M671.75 262.4q-.15 1.35-.15 2.75 0 10 7.4 16.9 7.5 7 18.05 7 10.65 0 17.95-7 7.5-6.9 7.5-16.9 0-1.75-.25-3.4-4.108-.228-8.25-.4.3.25.55.5 1.8 1.8 1.8 4.4 0 2.6-1.8 4.35-1.75 1.8-4.35 1.8-2.6 0-4.4-1.8-1.75-1.75-1.75-4.35 0-2.6 1.75-4.4.37-.36.75-.65-17.363-.213-34.8 1.2m95.8 2.35q0-2.6 1.75-4.4.379-.368.8-.65-9.878.267-20 1.35.264.694.55 1.4 2.75 7.15 7.25 18.95.15.5.35 1 .195.527.4 1.05 5.749 4.6 13.25 4.6 9.15 0 15.55-7 6.55-6.9 6.55-16.9 0-2-.25-3.9-3-.35-4.9-.35-5.82-.305-11.75-.3.515.315.95.75 1.8 1.8 1.8 4.4 0 2.6-1.8 4.35-1.75 1.8-4.35 1.8-2.6 0-4.4-1.8-1.75-1.75-1.75-4.35Z"></path></g></defs><g><use xlink:href="#face_08_outline_svg__a"></use><use xlink:href="#face_08_outline_svg__b"></use></g><use xlink:href="#face_08_outline_svg__c" transform="matrix(1.66417 0 0 1.66417 744.4 348.2)"></use></svg>