<svg xmlns="http://www.w3.org/2000/svg" preserveAspectRatio="none" viewBox="0 0 1500 1500" fill="#fee8d3" xmlns:xlink="http://www.w3.org/1999/xlink"><defs><g id="face_08_fill_svg__a"><path d="M678.1 249.2q-5.5 5.75-6.35 13.2 17.437-1.413 34.8-1.2 3.75.053 7.45.15 4.142.172 8.25.4-1.05-7.5-6.8-13.05-.2-.25-.45-.4-7.3-6.95-17.95-6.95-10.55 0-18.05 6.95-.5.4-.9.9m109.35-1.9q-1.75-1.95-3.75-3.25-5.15-3.7-11.8-3.7-9.25 0-15.85 6.95-.15.15-.3.4-4.91 5.536-5.85 12.8-.269-.76-.5-1.5-2.65-7.05-3-8.15l-6.15 74.4q9.35 0 20.9-2.5 4-1 5.15-2.5 1.5-1.8.9-5.65-1.65-12.25-7.95-29.55-.305-.792-.6-1.6-.205-.523-.4-1.05-.2-.5-.35-1-4.5-11.8-7.25-18.95-.286-.706-.55-1.4 10.122-1.083 20-1.35 3.524-.107 7-.1 5.93-.005 11.75.3 1.9 0 4.9.35-1.05-7.4-6.3-12.95Z"></path><path fill="#FFF" d="M767.55 264.75q0-2.6 1.75-4.4.379-.368.8-.65-9.878.267-20 1.35.264.694.55 1.4 2.75 7.15 7.25 18.95.15.5.35 1 .195.527.4 1.05 5.749 4.6 13.25 4.6 9.15 0 15.55-7 6.55-6.9 6.55-16.9 0-2-.25-3.9-3-.35-4.9-.35-5.82-.305-11.75-.3.515.315.95.75 1.8 1.8 1.8 4.4 0 2.6-1.8 4.35-1.75 1.8-4.35 1.8-2.6 0-4.4-1.8-1.75-1.75-1.75-4.35Z"></path></g></defs><use xlink:href="#face_08_fill_svg__a"></use></svg>