<svg xmlns="http://www.w3.org/2000/svg" xmlns:xlink="http://www.w3.org/1999/xlink" preserveAspectRatio="none" viewBox="0 0 1500 1500" fill="#fee8d3"><defs><path d="M757.6 404.3q1.916-30.042 2.125-33.425.219-3.386 1.2-25.9.977-22.519 1.875-29.275.892-6.746-1.675-14.45-2.563-7.711-45.925-15.45-67.345-14.352-68.2.625-.863 14.98.25 21.35 1.12 6.368 1.475 11.875.346 5.504 5.475 47.4.94 9.913 2.35 29.95 32.445 9.397 44.2 12.5 11.744 3.091 23.95 6.55 2.537-1.29 5.75-2.325 3.214-1.04 27.15-9.425Zm134.1 472.5q-1.05 12.35-6.5 23.6-.65 2.25-2.6 2.7-1.7.5-3.15-1-1.6-1.3-1.85-2.95-.9-3.4-.3-8 1.1-5.6 1.55-8.3 1.35-6.6.7-14.95-.1-2.85-.4-6.05-.15-1.5-.35-3.1-.1-1-.25-2.05-.15-4.05-1.1-1.7-.1.2-.15.45-.25.6-.5 1.4-.8 2.35-1.7 6.45-1.35 6-7.35 7.85-2.4.65-4.75.25-2.2-.45-2.55-1.65-.55-1.05 0-2.05.4-1.15 2-3.95 1.6-2.95 1.65-9.4.05-.7.1-1.35.3-5.5 1.5-8.25 1.55-3.45 4.55-6.95 2.9-3.5 8.05-7.5.4-.75 4.45-5.4 4.05-4.7 16.8-26.85 1.7-2.95 6.85-13.75 5.1-10.85 10.15-20.65 5-9.8 6.55-13.9 2.05-5.5.9-9.7-2.75-3.55-7.95-10.55 18.85-14.5 29.5-21.45 10.65-6.95 19.9-11.2 9.25-4.25 13.7-6.65 2 3.15 2.6 5.35.55 2.15 6.1 13.7 5.55 11.55 7.75 16.15 2.2 4.55 3.6 8.45 1.4 3.95 2.05 6.45.65 2.45.95 5.45.25 2.95.05 5.25-.25 2.3-.45 2.85-.25.5-.4 1.2-.2.7-1.25 2.85-1.05 2.1-7.1 10.15L959.1 809q-31.55 35.7-33.2 38.05-1.4 1.85-2.7 5.95-.3.85-.55 1.8-.2.55-.45 1.1l2.1 23.9q.5 5.6.4 7.4-.25 1.95-1.8 3.95-.9 1.15-3.2 2.35-1.9.95-4.7 1.95-3.85 1.25-6.15 2.25-3.45 4.3-4.4 7.25-1.5 3.1-2.15 4.05-.9.9-2.15 1.45-.7.35-1.45.35-.55 3.5-3.55 3.7-3 .05-4.7-2.25-1.65-2.5-1.6-6.6.15-4.25 1.85-12.1 1.75-8 1-16.75.25-2.45.35-4.9.05-1.15.05-2.25V869M457.6 709.1q1.319-1.337 2.85-3.75-18.6-19.3-27.2-26.55-8.6-7.3-16.75-13.45-8.2-6.2-12.2-8.75-2.85 2.65-2.95 2.85-.1.2-6.75 9.9-6.7 9.65-9.75 13.5-3.5 4.6-5.25 6.4-1.7 2-3.6 5.15-1.8 3.3-2.45 7.05-.7 3.7-.4 6.5 0 .15.1.9.1.7.85 3.85.75 3.1 5.15 8.75t10.3 12.1l30.5 47.05q8.192 12.712 21.7 29.8 7.9 9.35 13.2 16-.25 4.2-.3 8.55-.05.5-.05.95-.35 17.2 1.7 36.95.75 6.75 13.65 12.3l-4.05-12.3m-12.4-163.725q-.092-.19-.2-.4m-.1-.225.025.05q.043.091.075.175m4.3.375q-.044.07-.1.125-1.278 1.28-1.925 3.35l-.075.275v.025l3.1 6.025q.243.448 4.925 10.075 4.686 9.628 10.55 21.95 5.86 12.327 10.85 23.925 4.992 11.59 7.5 16.6 2.513 5.006 3.975 8.25 1.458 3.256 1.7 3.825.236.541.475 1.1 3.076 7.178 3.375 7.675v.05l.05.05q.05.2 1.1 2.3.85 1.75 4.75 8.95.45.8.95 1.75l2.8 5.1h.05q2.45.85 4.15 1.9.4.15.85.35.55.25 1.1.55 2.2 1.1 3.55 2.3 1.8 1.45 4.15 4.85 10.55 15.15 15.6 18.1 5.15 2.5 4.45 5.85-.75 3.1-6.45 3.55-4.4.4-14.3-6.85-.05-.1-.1-.1-1.6-1.1-3.25-2-2.45-1.35-5.1-2.3-7.75-2.1-7.9 3.35-.15 7.1 8.05 23.1 4.75 5.85 10.5 9.5 5.8 3.85 5.2 7.95-.7 3.75-6.6 2.8-5.7-.8-17.9-11.25-7.9-8.05-13.1-21.35-.45 6.05 1.25 15.15l11.25 16.75q2.25 4.6-1.35 6.3-3.45 1.8-8.25-1.65l-10.55-12.1q-13-1.65-15-5l-1.95-5.1M455.5 712.875q.003.202 0 .425l-.05-.5q-.178-.229-1.95-3.675m2 3.725q-.021-.027-.05-.05m46.5 99.55q-.376-.235-3.85-8.825m-5.25 62.625 1.7 4.65m-17 .25q1.35 7.25 4.95 17.35l4.4 6.85m435.3-46.9v7.55m-19 13.05q.05.75.1 1.7.1.95.2 2.15.25 2.55.7 6.1.85 6.95.25 10-.55 3.25-2.9 8.7-1.5 4.55-2.75 12.6.05.3-.1.6m15.1-41.7q.05 4.15.9 10.75.85 6.8-1.05 10.7-.95 2.4-4.6 7 0 .05-.2.15m-25.15 29.25q-.05.25-.15.5" id="style_08_outline_svg__b" stroke="#000" stroke-width="2" stroke-linejoin="round" stroke-linecap="round" fill="none"></path><g id="style_08_outline_svg__a"><path fill="#A5795B" d="M371.45 709.05q-.35-.1-.7-.15.55.85.95 1.2.2-.8-.25-1.05m.4 1.2.05.05q.8.5.95-1.05h-.1q-.15-.05-.3-.05-.25.4-.6 1.05Z"></path><path fill="#EAB396" d="m455.5 713.3-.05-.5q-.178-.229-1.95-3.7 1.79 3.69 2 4.2m-2.2-4.6q-.032-.059-.1-.15v-.05q-3.433 1.565.1.2m0 0q.108.235.2.4 1.772 3.471 1.95 3.7l.1-.25q.672-2.044 1.95-3.35.056-.03.1-.1l1.6-2.7q-3.97 1.586-5.9 2.3M506.35 822q.35.4.75.85.3.3.65.7l-.45-.85-.55-.6q-2.35-2.15-.4-.1Z"></path></g></defs><g><use xlink:href="#style_08_outline_svg__a"></use><use xlink:href="#style_08_outline_svg__b"></use></g></svg>