<svg xmlns="http://www.w3.org/2000/svg" xmlns:xlink="http://www.w3.org/1999/xlink" preserveAspectRatio="none" viewBox="0 0 1500 1500" fill="#7f91bf"><defs><path fill="#404348" d="M33.85-30.05Q29.7-31.7 24.6-31.6q-6.8.189-15.65 2.85-8.858 2.672-12.6 6.55-3.738 3.872-3.45 10.05.288 6.225 2.9 8.7Q-1.525-.932 0-.05q11.285-4.1 40.05-6.3Q41.484-9.347 42.1-12q.9-3.25.65-6.35-.3-3.4-1.9-6-2.3-3.8-7-5.7Z" id="style_04_color_b_svg__e"></path><path fill="#404348" d="M102.4-.05q5.5-9.095-3.55-21.05Q69.702-51.098-6.1-48.5q-82.124.081-98.3 26.15-5.626 11.464 1.3 22.2l205.5.1Z" id="style_04_color_b_svg__g"></path><path id="style_04_color_b_svg__i" fill="#C8D5CB" d="M1 5.75q3.15-.1 7.75 4.55Q6.3-4.55-1.6-15.15-8.15-1.5-8.7 15.2-1.6 6 1 5.75Z"></path><path id="style_04_color_b_svg__k" fill="#FFF" d="m3.25 46.1-.9-47.2-5 .05.65 40.7q.3 2.8 5.25 6.45Z"></path><path id="style_04_color_b_svg__l" fill="#404348" d="M720 452.85q-.05-.35-.45-.6-.35-.2-.75-.1-.55.45-.9.65-1.05.25-1.4.65.2-.35-.25-.8-.55-.45-.65-.6-.1-.65-.2-.95-.1-.4-.45-.65-.4-.2-.8-.15l-.85.25q-.55-.05-.85 0-.9.2-1.4 1.6-.55 1.55-1.1 1.85.2-1.05.05-1.85-.1-1.1-.9-1.6-.9-.6-2.95.15-.1-.35.05-.85.2-.6.25-.9.2-1.25-.45-1.6-.7-.35-1.4.45-.55.9-.85 1.35-.7.8-1.4.45-.5-.45-.8-.6-.35-.2-.85 0-.45.2-.7.6-.25.45-.45 1.8-.4 2.1-2.3 5.35-.65 1.2-.65 1.8 0 .5.3.9.3.45.75.45.75.05 1.35-.85.4.6.35.9 0 .3-.25.9-.05.4.2.8t.65.45q.4.1.8-.2.327-.204.4-.5-.005.24.15.55.1.25.35.7.25.8.35.9.25.45.85.45.55.05 1-.3.6-.4 1.2-1.7.5.5 1.3.5.75-.05 1.25-.6-.1.45.15.85.3.45.75.5.45.1.85-.15.45-.3.5-.75.75.5 1.65.35-.2.2-.05.55.1.3.35.45.4.3 1.2.2.95 0 1.25-.4.15-.2.25-.7.1-.45.3-.65.1-.15 1.05-.4.65-.2 1.05-.75.334-.46.35-1 .062 1.463.95 1.65.25.05.8-.05.25.05.7.25.4.1.6-.05-.2.75.4 1.1.55.4 1.2-.05.05.35.35.6t.65.2q.35-.05.6-.3.25-.3.25-.65.95.6 1.8-.2-.05.35.25.6t.65.15q.7-.15.95-.95l.2-1.35q.05-.5.3-1.35.3-.95.35-1.4.15-1.45-.35-2.6-.5-.9-.95-1.15-.7-.55-1.4-.15-.15-.3-.15-.75 0-.55-.05-.8-.1-1.05-.8-1.2-.3-.05-.9.25l-1.65 1.15q-.1-1.25-.8-1.45-.5-.05-.85.4-.3.4-.35.95Z"></path><path id="style_04_color_b_svg__m" fill="#EC5657" d="M751.25 419.35q-5.85 2.4-9.3-.15l.7 29.6 1.2 31.25-.1 6.5h10.35l-2.85-67.2Z"></path><path id="style_04_color_b_svg__o" fill="#FFF" d="m151.4 1044.95-3.35.5q-9.65 12.7-6.5 20.15 3.15 7.4 4.9 9.6 1.65 2.35 2.3 6.25.55 3.95 12.75 8.7 12.1 4.9 36.35 5.6 24.35.75 35.35-2.45 11.1-3.35 16.85-7.8 5.75-4.35 8.6-10.05 3.4-5.9 4.95-13.35 1.7-7.6.6-14.15-1.2-6.6-7-17-5.85-10.45-14.95-37.75-71.65 47.45-90.85 51.75Z"></path><path id="style_04_color_b_svg__w" fill="#369CEB" d="M330.15 107.85q0-3.7-4.35-5.4-4.3-1.75-5.9-2.55L252 127.2q.55.85 1.5 1.65-1.2-.7-2.25-1.5.5 7 .95 14.05 1.9 29.3 3.15 58.25l.3 8 10.45-10.2-3.65-64.75 67.7-24.85Z"></path><path id="style_04_color_b_svg__y" fill="#369CEB" d="M751.25 419.35q-5.85 2.4-9.3-.15l.7 29.6 1.2 31.25-.1 6.5h10.35l-2.85-67.2Z"></path><path id="style_04_color_b_svg__A" fill="#369CEB" d="M667.75 542.95q-.276-.276-.6-.5.15-.89.15-1.5-.05-1.35-.75-2.15-.9-1.1-2.3-.85-1.4.15-2 1.5-.4.8-.2 2.7l.75 6.25q.028.254.05.5-.06 5.62.4 11.25.55 6.25.6 6.65.2 3.8-.1 6.65-.4 3.4-2.15 8.65-2.2 6.7-2.65 8.5-.55 2.15-.2 3.55.3.9.95 1.5.75.65 1.6.6.7-.05 1.6-.7 1.3-.95 1.55-1.05.2-.1 1.1-.4.65-.25 1-.55.9-.7 1.05-2.25 0-.25-.05-2.7v-.95q.397.028.9 0l1.6.25q.95.1 1.55-.1.8-.2 1.3-1 .45-.75.55-1.65.15-.95-.3-3.4-.15-1.05-.25-3.35-.3-8.75.1-18.15.1-2.95.6-4.6.55-1.45.1-2.05-.4-.45-1.25-.45-.936 0-1.65.4-.235-2.639-1.25-6.7-.45-1.55-.65-2.1-.45-1.1-1.15-1.8Z"></path><path id="style_04_color_b_svg__c" fill="none" d="M498.85 129.85q-.85-11.6-3.1-18.7-3.75-14.7-27.35-26.8M394.75 96q-15.85 16.8-15.9 39.7.05 1.95.15 3.85-.05.7 0 1.5m122.05 39.4-1.85-43.3q-.1-1.55-.1-3-.1-.35-.15-.55V131.5q0-.25-.05-.5-.05-.6-.1-1.15m.05 0q.1.55.05 1.15m2.15 49.5q.15 6.1.25 12.2.05 2.3.15 4.6m-.4-16.85v.05m-37.9-27.1.15.7q9.2 35.95-.3 72.85-.1.35-.15.65-.05.1-.1.25.05.1.1.25 17.6 49.2 20.7 91.15 3 41.3-11.75 130.85 5.35 10.05 10.8 20.15 3.25 2.6 9.95 2.3m66.9-31.4q4.4-5.45 3.75-10.6-30.2-78-59.7-146.05l.15 6.75m-2.2-93.95v1.95l2.05 85.25M344.5 9.4l-27.25 13.35L250.05 1M155 225q3-16.95 7-34.5l.3-2.4m-77.45-69.25h.05q0-.05.05-.1.05-.15.2-.25m-.4.45h.05q0-.047.05-.1M122.4 418.8q-1.1 4.35-5.35 8.6M53.7 448.5q-5.05-.95-7.7-3.55M3.5 292.1q-.05-.1-.05-.15-.1-.3-.15-.4m1.15-31.85v-.05m464.65 201.9q-51.3 19.8-103.7 35.05-106.5-21.25-199.25-46.4l-.3-.8q-6.85 66.9 9.9 110.15m1.15 3q-.55-1.45-1.05-2.75-.05-.15-.1-.25m79.05 332.7q-3.05 27.9-5.7 55.2-.3 2.9-.55 5.75m-5.75 49.95q1.65-6.2 2.4-13.55m-87.4 30.95-.8 3.1m312.1-562.1q-.45 6.1-1.35 12.1L457.2 546.9m-.95 9.15-.05.8.1.6m23.15 196.45-13 146.8-1.3 14.45-1 11.85q-1.95 38 .85 55.65 6 47-49.8 54.6-29.9 3.55-33.55-17.25.15-18.9 1.65-34.65 1.65-14.75 1.65-24.3l-1.5-50.1-.4-14.1-.45-16.65q-3.8-65.25-2.75-126.2l-.1-.3m92.05-303.6q-.95 5.45-1.9 11.1-.4.15-.8.35m-11.9 85.35-.95 9.15M165.85 449.4Q131.6 356.1 155 225m228.05 671.85q19.95 10.9 41.3 11.8 21.6 1.15 42.1-7.95M245.2 989.6q.1-.85.15-1.65 1.5-17.25 3.2-34.75m7.55-73.3q-58.3 12.65-88.15-10.6m32.5 168.15q33.6-.85 42.35-34.3" stroke="#000" stroke-width="1.5" stroke-linejoin="round" stroke-linecap="round"></path><path id="style_04_color_b_svg__d" stroke="#000" stroke-width="2" stroke-linejoin="round" stroke-linecap="round" fill="none" d="m468.4 84.35-1.6-.8q-1.9-1-3.85-1.8-14.05-6.6-31-12.75-14.65-5.45-24.2-8.95-9.55-3.55-18.6-6.85t-15.85-6.9q-6.85-3.6-10.8-5.7-5.7-2.15-10.2-5.9-4.55-3.75-6.3-12.95m-95.95-6.95q-.35 5.85-4.2 14.3-3.9 8.45-11.7 12.45-7.8 4-5.6 3.25m-1.55.4-5.35 1.5q-3.4 1.4-14 4.65-7.85 2.4-19.55 5.8-6.8 1.95-14.95 4.25-28.35 8.85-45.65 16.2-23.1 9-32.1 28-4.2 5.1-8.25 10.25-1 1.3-2 2.65M344.5 9.4l1.5 12.35M250.05 1v13.8M155 225q-24 32.15-45.7 64.8 3.6 27.9 6.5 62.05 2.7 33.65 6.6 66.95M46 444.95q-9.75-31.3-23.65-73.2-7.65-22.8-12.2-43.15-4.8-19.55-6.65-36.5m-.2-.55q-4.8-16 .4-29.9.05-.3.15-.55l.6-1.4m0-.05q.1-.25.25-.5 31.55-76.9 80-140.1m91.15 440.75v-.25m133.95 4.2q-.05.2-.05.45-2 16.65-5.45 28.3-17.8 61.5-32.7 140.65l-8.35 84.6q-3.85 31.4-7.15 62.15-.75 6.15-1.3 12.35m-102.35 146.6q1.1-3.25 2-6.5 1.35-4.35 2.55-8.7m10.8-85.3q.15-5.45.25-11.15.35-19.3.1-43.1-.1-7.2-.2-14.8-.35-21.25-1.05-45.8-1.75-54.75 2.2-87.05-.7-5.9.1-12.25 0-.2.05-.45 4.55-86.3 6.6-163.95m280.45-2.35q13.85 82.3 21.2 166.25m3.1 7.95q3.05 11.15-1.65 22.15m-99.2-.1q-26.95-96.5-51.45-189.8m149.2 159.8q2.05 3.95 3.1 7.95m-322.8 288.9q3.35-12.7 5.4-25.4 3.6-22.9 4.6-56.8"></path><path id="style_04_color_b_svg__f" stroke="#000" stroke-width="1.5" stroke-linejoin="round" stroke-linecap="round" fill="none" d="M.025-.05q11.26-4.1 40.025-6.275"></path><path id="style_04_color_b_svg__h" stroke="#FFF" stroke-width="5" stroke-linejoin="round" stroke-linecap="square" fill="none" d="M101.35-.05-101.3.1"></path><path id="style_04_color_b_svg__j" stroke="#000" stroke-width="1.5" stroke-linejoin="round" stroke-linecap="round" fill="none" d="M-10.169 14.26Q-2.189 5.81.423 5.82q3.144.215 7.26 5.3Q6.72-3.9-.086-15.235-7.96-2.304-10.17 14.259Z"></path><path id="style_04_color_b_svg__n" stroke="#000" stroke-width="1.5" stroke-linejoin="round" stroke-linecap="round" fill="none" d="m743.85 480.05-1.175-31.25-1.375-30.95"></path><path id="style_04_color_b_svg__p" stroke="#939" stroke-width="1.5" stroke-linejoin="round" stroke-linecap="round" fill="none" d="M242.25 993.2q9.1 27.3 14.95 37.75 5.8 10.4 7 17 1.1 6.55-.6 14.15-1.55 7.45-4.95 13.35"></path><path id="style_04_color_b_svg__r" stroke="#000" stroke-width="1.5" stroke-linejoin="round" stroke-linecap="round" fill="none" d="m170.5 1095.05.1.05m-22.65-49.25h.05l.15-.4"></path><path id="style_04_color_b_svg__s" stroke="#000" stroke-width="2" stroke-linejoin="round" stroke-linecap="round" fill="none" d="m148.15 1045.45 4.25-6.65m-4.45 7.05q-3.85 6.25-5.8 10.3-1.95 4-1.7 8.55.2 4.5 2 8.95 1.75 4.4 3.6 7.4 2.6 4.15 5.8 6.75 1.1.75 2.1 1.5 1 .7 5.55 2.85 4.349 2.007 10.425 2.825l.575.075m.1.05q12.8 2 26.2 2.2m50.6-9.6q2.25-1.5 3.8-2.8l2.05-1.85q1.6-1.7 3-3.65.6-.85 1.15-1.7.6-1.1.95-2m.3-.25q3.4-5.9 4.95-13.35 1.7-7.6.6-14.15-1.2-6.6-7-17-5.85-10.45-14.95-37.75m-45.45 104.1q9.15.85 19.55.45 6.15-.25 12.5-1.75 8.9-2 18.55-8.3"></path><path id="style_04_color_b_svg__u" stroke="#000" stroke-width="1.5" stroke-linejoin="round" stroke-linecap="round" fill="none" d="M555.5 1041.75q-.55-2.2-1.55-4.25-4.25-9.45-17.5-19.7-13.2-10.3-35.1-22.55-22-12.15-32.3-19.35-2.4-1.75-18.25-14.35"></path><path id="style_04_color_b_svg__v" stroke="#000" stroke-width="2" stroke-linejoin="round" stroke-linecap="round" fill="none" d="M555.5 1041.75q2 7.15-.9 14.1-3.75 8.8-24.8 12-21.2 3.05-45.95-.75-24.8-3.75-42.95-10.05-18.2-5.95-32.5-12.45-14.25-6.75-21-11.25-6.85-4.45-5.3-16.2"></path><path id="style_04_color_b_svg__x" stroke="#000" stroke-width="1.5" stroke-linejoin="round" stroke-linecap="round" fill="none" d="M255.65 207.65q.6 16 1.15 32 .35 12.25.55 24.45 3.25 85.2 8.15 210.35m-14.25-347.1q.5 7 .95 14.05 1.9 29.3 3.15 58.25l.3 8M319.9 99.9 252 127.2"></path><path id="style_04_color_b_svg__z" stroke="#000" stroke-width="1.5" stroke-linejoin="round" stroke-linecap="round" fill="none" d="m743.85 480.05-1.175-31.25-1.375-30.95"></path><path id="style_04_color_b_svg__C" stroke="#EFD16A" stroke-width="0.5" stroke-linejoin="round" stroke-linecap="round" fill="none" d="M-3.304-1.972q0 1.05-.58 1.83-.58.781-1.429.826Q-6.16.728-6.74.008q-.58-.72-.58-1.77t.58-1.83q.58-.78 1.428-.824.848-.045 1.428.675.58.72.58 1.77Z"></path><g id="style_04_color_b_svg__a"><path fill="#3F4348" d="M641.25 432.55q-.5-1.7-1.25-2.3-.6-.5-2.05-.6-1.5-.1-2.6.3l-1.3.5q-1.55.3-2.2.7-.85.5-1.05 1.65-.15 1.05.4 1.9.5.8 1.55 1.15 1 .3 2 .05.3.7 1.1 1.05.75.35 1.5.05.6-.25 1.5-1.35.25.45.9.45.55-.05 1-.45.75-.75.75-1.7 0-.65-.25-1.4m21.9 24.6q.95-1 .75-2.55-.25-1.55-1.4-2.25-.85-.55-2.25-.65-1.65 0-2.45-.1-.85-.1-2.2-.5-1.85-.55-2.2-.65-2.75-.65-4.35.55-.95.75-1.05 1.95-.15 1.3.7 1.95-2.95 0-4.5 1-1 .65-1.45 1.8-.5 1.25 0 2.25.9 2 5.05 2h9.25q2.85 0 3.65-1.25.25-.3.5-1.05t.45-1.05q.35-.6 1.5-1.45m119.45-13.6q-.55-.55-1.55-1.25-1.15-.75-1.7-1.15-1.5-1.2-2.35-1.65-1.5-.8-2.8-.6-1.35.55-2.1.7-.35.1-1.35.1-.85.05-1.35.25-1.05.65-1.6.9-.4.15-1.25.25-.9.15-1.25.25-1.3.45-2.05 1.8-.7 1.3-.5 2.75.05.45.25 1.3.1.8-.05 1.3l-.55 1.2q-.3.9.15 2.1.25.7.95 2.05.45.95.75 2.45.15.85.5 2.5.65 3.15 2.45 4.35.15.1 2 .95.75.35 2.15 1.1 1.3.5 2.4.15 1.2 1.9 2.35 2.95 1.6 1.5 3.4 1.35 1.1-.05 2.05-.8.95-.75 1.35-1.8.85-2.1-.25-4.35 1.45-.5 2.35-1.95.9-1.4.7-2.95-.25-1.85-2.3-4.2-.7-.7-.6-1.3.05-.35.55-.85 1.45-1.65 1.2-4.05-.3-2.2-1.95-3.85Z"></path><path fill="#369CEB" d="M668.5 542.45q-.25-1.4-1-2.25-.95-1.1-2.55-1-1.6.1-2.45 1.25-.85 1.1-.85 4.05-.1 10.9-.8 21.1-.35 6.4-.25 8.2.05.6.35 3.3.2 2.05.2 3.35l-.05 3.5q-.003.13 0 .25-.41.376-.65.65-.2.25-.85 1.95-.3.9-1.35 2.55-.65 1.4-.85 3.75-.3 2.2.7 3.15 1 .9 3.45.45 2.35-.4 2.9-1.5.18-.325.3-1.05.4.398.9.6 1.05.4 2.2-.25 1.05-.65 1.55-1.8.258-.58.4-1.35.157-.19.3-.4 1-1.45 1-4.85-.15-9.85-.1-11.05.25-4.3.2-6.45 0-4.05-1.2-11.8-1.25-8-1.3-11.8-.05-1.85-.2-2.55Z"></path></g><g id="style_04_color_b_svg__b"><path fill="#161616" d="M160.4 1001.3q.7 5.65-1.75 15.8-.45 1.8-.85 3.45 3.35-12.7 5.4-25.4 3.6-22.9 4.6-56.8l-7.4 62.95m88.15-48.1q-1.7 17.5-3.2 34.75-.05.8-.15 1.65 2.6-14.95 3.65-36.55-.15.1-.3.15Z"></path><path fill="#FFF" d="M168.05 927.2q-.1 5.7-.25 11.15-1 33.9-4.6 56.8-2.05 12.7-5.4 25.4l-.8 3.1q-1.2 4.35-2.55 8.7-.9 3.25-2 6.5-2.1 6.25-4.8 12.4-1.2 5.9 1.95 9.5 1.05 1.15 2.6 2.1 12.75 1.8 25.8 3.55 6.8-.2 14.9-1.1 21.7-2.55 33.25-10.5 11.5-8 12.6-21.35 1.15-13.55 1.25-14.15.05-.3.05-.45 1.3-7.3 2.75-15.7-8.75 33.45-42.35 34.3 33.6-.85 42.35-34.3 1.65-6.2 2.4-13.55.1-.85.15-1.65 1.5-17.25 3.2-34.75.25-2.85.55-5.75 2.65-27.3 5.7-55.2-47.95 13.7-86.65-8.15.25 23.8-.1 43.1m216.9 33.85q0 9.55-1.65 24.3-1.5 15.75-1.65 34.65 3.65 20.8 33.55 17.25 55.8-7.6 49.8-54.6-2.8-17.65-.85-55.65l1-11.85q-19.6 7.85-40.65 6.95-21-1-41.05-11.15l1.5 50.1m-300.1-842.2q-.05.053-.05.1l-.1.1 8.6 50.8q3.15-3 4.55-5.9.9-2.05.95-4.05l-8.5-47.85q-2.6 3.4-5.15 6.45-.15.1-.2.25-.05.05-.05.1h-.05m416.6 78.45q-.1-2.3-.15-4.6-.1-6.1-.25-12.2v-.05l-19.3-41.9q-3.5 1.7-4.85 4.9-.45 1.1-.65 2.45l25.2 51.4m.1-15.65-.5-1.15q.15 6.1.25 12.2.05 2.3.15 4.6l.15.4q-.05-2.45-.05-4.55-.1-7.4 0-11.5Z"></path><path fill="#369CEB" d="M167.95 869.3q.1 7.6.2 14.8 38.7 21.85 86.65 8.15.55-6.2 1.3-12.35-58.3 12.65-88.15-10.6m215.1 27.55.4 14.1q20.05 10.15 41.05 11.15 21.05.9 40.65-6.95l1.3-14.45q-20.5 9.1-42.1 7.95-21.35-.9-41.3-11.8m93.85-753.4-16.15-.05-.2-.7h-.75v-.05q-32.95-1.25-80.8-1.6-49.934-.39-116.1.2l3.2 56.2-10.45 10.2-.3-8q-1.251-28.942-3.15-58.3-39.326.414-84.15 1.15-6.75.3-10.35 3.6-2.95-1.7-6.25-3.25l-53.6 21.1q-1.4 2.9-4.55 5.9l-8.6-50.8q-48.45 63.2-80 140.1-.15.25-.25.5v.05l-.6 1.4q-.1.25-.15.55-5.2 13.9-.4 29.9.05.1.15.4 0 .05.05.15 1.85 16.95 6.65 36.5 4.55 20.35 12.2 43.15 13.9 41.9 23.65 73.2 2.65 2.6 7.7 3.55-1.05-2.85-2.1-6.3 2.7-7 8.85-12.6 5.9-6 20.05-11.1 13.95-5.6 33.45-.2 1.95 5.1 3.1 9.1 4.25-4.25 5.35-8.6-3.9-33.3-6.6-66.95-2.9-34.15-6.5-62.05Q131 257.15 155 225q3-16.95 7-34.5l.3-2.4-.3 2.4q-4 17.55-7 34.5-23.4 131.1 10.85 224.4l.3.8q92.75 25.15 199.25 46.4 52.4-15.25 103.7-35.05.4-.2.8-.35.95-5.65 1.9-11.1 14.75-89.55 11.75-130.85-3.1-41.95-20.7-91.15-.05-.15-.1-.25.05-.15.1-.25.05-.3.15-.65 9.5-36.9.3-72.85l-.15-.7.15.7q9.2 35.95-.3 72.85-.1.35-.15.65-.05.1-.1.25.05.1.1.25 17.6 49.2 20.7 91.15 3 41.3-11.75 130.85 5.35 10.05 10.8 20.15 3.25 2.6 9.95 2.3-1.65-2.9-3.55-6.65 10.9-12.15 28.6-21.45 17.4-9.3 37.65-11.85 2.4 4.85 4.2 8.55 4.4-5.45 3.75-10.6-30.2-78-59.7-146.05l.15 6.75-.15-6.75-2.05-85.25v-1.95l-25.2-51.4q.2-1.35.65-2.45M346 21.75 344.5 9.4l-27.25 13.35L250.05 1v13.8l67.85 21.3L346 21.75Z"></path><path fill="#404348" d="M477.5 723.7q2.05 3.95 3.1 7.95-.1-3.95-3.1-7.95m-20.3-176.8-.95 9.15q4.3-23.75 2.1-14.35-.85 3.65-1.15 5.2m-291.05-96.7-.3-.8q-6.85 66.9 9.9 110.15h.1v.25q.5 1.3 1.05 2.75-.55-1.45-1.05-2.75-2.05 77.65-6.6 163.95-.05.25-.05.45-.8 6.35-.1 12.25-3.95 32.3-2.2 87.05.7 24.55 1.05 45.8 29.85 23.25 88.15 10.6 3.3-30.75 7.15-62.15l8.35-84.6Q286.5 654 304.3 592.5q3.45-11.65 5.45-28.3 0-.25.05-.45 9.5.1 18.5.15 24.5 93.3 51.45 189.8l.1.3q-1.05 60.95 2.75 126.2l.45 16.65q19.95 10.9 41.3 11.8 21.6 1.15 42.1-7.95l13-146.8-.5-.1q4.7-11 1.65-22.15-1.05-4-3.1-7.95-7.35-83.95-21.2-166.25l-.1-.6.05-.8.95-9.15 10.55-73.25q.9-6 1.35-12.1-51.3 19.8-103.7 35.05-106.5-21.25-199.25-46.4m-81.3-331.35-.1.1h.05q0-.047.05-.1m-.1.1q-.05.05-.05.1l.1-.1h-.05m414.05 10.9h.05q-.85-11.6-3.1-18.7-3.75-14.7-27.35-26.8l-1.6-.8q-1.9-1-3.85-1.8-14.05-6.6-31-12.75-14.65-5.45-24.2-8.95-9.55-3.55-18.6-6.85t-15.85-6.9q-6.85-3.6-10.8-5.7-5.7-2.15-10.2-5.9-4.55-3.75-6.3-12.95L317.9 36.1l-67.85-21.3q-.35 5.85-4.2 14.3-3.9 8.45-11.7 12.45-7.8 4-5.6 3.25.614-.214 1.45-.45-.13.232-.2.45-1.285.226-2.8.4l-5.35 1.5q-3.4 1.4-14 4.65-7.85 2.4-19.55 5.8-6.8 1.95-14.95 4.25-28.35 8.85-45.65 16.2-23.1 9-32.1 28-4.2 5.1-8.25 10.25-1 1.3-2 2.65 2.55-3.05 5.15-6.45l8.5 47.85q-.05 2-.95 4.05l53.6-21.1.45-.15.35-2.6q5.4-27.25 41.1-25.85-2.15-5.5-5.45-10.55 40.25-14.05 44.65-25.7 7.129-3.304 13.15-6.3.583 1.079 1.7 2 1.6 1.25 3.1 1.25 1.6 0 3.85-1.9 2.55-2.1 3.8-2.45.3-.05 1.25-.2.067-.009.1-.05 10.307 9.807 26.9 15.1 79.15 25.65 79.7-6.6l-.15-5.9q.72-.143 1.3-.65 1.05.55 2.25.45h.85q.5.15 1.15 1.15.95 1.35 2.35 2 1.55.7 3 .1 1.05-.45 1.65-1.55.056-.102.1-.2.07 1.86 0 3.6 1.25 9.1 16.15 18.15-15.85 16.8-15.9 39.7.05 1.95.15 3.85-.05.7 0 1.5 47.85.35 80.8 1.6v.05h.75l.2.7 16.15.05q1.35-3.2 4.85-4.9l19.3 41.9-1.85-43.3q-.1-1.55-.1-3-.1-.35-.15-.55V131.5q0-.25-.05-.5-.05-.6-.1-1.15Z"></path></g><g id="style_04_color_b_svg__q"><path fill="#EC5657" d="M258.35 1075.7q-.35.9-.95 2 .65-1.1 1.25-2.25-.1.15-.3.25m-106.5 12.1q.2.15.35.4.95 1.35 3.5 2.9.65.3 1.45.7.05.05.15.05l.05.05 3.55 1.45q2.35.75 5.4 1.2 1.662.219 3.6.4-6.051-.793-10.4-2.8-4.55-2.15-5.55-2.85-1-.75-2.1-1.5Z"></path><path fill="#369CEB" d="M147.95 1045.85q-3.85 6.25-5.8 10.3-1.95 4-1.7 8.55.2 4.5 2 8.95 1.75 4.4 3.6 7.4 2.6 4.15 5.8 6.75 1.1.75 2.1 1.5 1 .7 5.55 2.85 4.349 2.007 10.4 2.8l.6.1.1.05q12.8 2 26.2 2.2 1.8 0 3.65.25 23.45 1.15 34.75-3.8 7.6-3.3 12.2-6.05 2.25-1.5 3.8-2.8l2.05-1.85q1.6-1.7 3-3.65.6-.85 1.15-1.7.6-1.1.95-2-3.3 3.05-14.55 6.95-11.6 4-47.05 4-35.35 0-45.7-11.4-10.15-11.55-3.1-29.4Z"></path><path fill="#161616" d="M148.05 1045.45q-.05.2-.05.4l.15-.4h-.1Z"></path></g><g id="style_04_color_b_svg__t"><path fill="#369CEB" d="M408.4 1044.6q14.3 6.5 32.5 12.45 18.15 6.3 42.95 10.05 24.75 3.8 45.95.75 21.05-3.2 24.8-12 2.9-6.95.9-14.1-7.1 7.7-16.9 10.45-9.95 2.6-19.35 3.4-9.5.65-23.95-1.2-18.05-2.35-37.95-7.25-20.15-5.2-35.25-11.45-15.3-6.55-27.6-13.45-12.2-6.75-12.4-5.1-1.55 11.75 5.3 16.2 6.75 4.5 21 11.25Z"></path><path fill="#FFF" d="M469.05 975.9q-2.4-1.75-18.25-14.35-19.9-4.45-44.15 20.05-24.2 24.55-24.55 35.55.2-1.65 12.4 5.1 12.3 6.9 27.6 13.45 15.1 6.25 35.25 11.45 19.9 4.9 37.95 7.25 14.45 1.85 23.95 1.2 9.4-.8 19.35-3.4 9.8-2.75 16.9-10.45-.55-2.2-1.55-4.25-4.25-9.45-17.5-19.7-13.2-10.3-35.1-22.55-22-12.15-32.3-19.35Z"></path></g><g id="style_04_color_b_svg__B"><path fill="#202020" d="M-6.6-3.5q-.65.75-.65 1.8T-6.6.1q.65.75 1.6.75.95 0 1.6-.75.65-.75.65-1.8t-.65-1.8q-.65-.75-1.6-.75-.95 0-1.6.75Z"></path><path fill="#EFD16A" d="M2.5-1.45Q1.75-2.3.7-2.3t-1.75.85Q-1.8-.65-1.8.5t.75 2q.7.8 1.75.8t1.8-.8q.7-.85.7-2t-.7-1.95Z"></path></g></defs><use xlink:href="#style_04_color_b_svg__a"></use><g transform="translate(401.05 387.6)"><use xlink:href="#style_04_color_b_svg__b"></use><use xlink:href="#style_04_color_b_svg__c"></use><use xlink:href="#style_04_color_b_svg__d"></use></g><g transform="matrix(1.57587 0 0 1.54295 708.8 972.75)"><use xlink:href="#style_04_color_b_svg__e"></use><use xlink:href="#style_04_color_b_svg__f"></use></g><use xlink:href="#style_04_color_b_svg__g" transform="matrix(1.57587 0 0 1.54295 719.1 530)"></use><use xlink:href="#style_04_color_b_svg__h" transform="matrix(1.57587 0 0 1.54295 719.1 530)"></use><g transform="matrix(1.57578 .00144 -.00146 1.5429 809.8 527.95)"><use xlink:href="#style_04_color_b_svg__i"></use><use xlink:href="#style_04_color_b_svg__j" transform="rotate(-5.708)"></use></g><use xlink:href="#style_04_color_b_svg__k" transform="matrix(.56506 1.3604 -1.38263 .54315 555.9 529.5)"></use><use xlink:href="#style_04_color_b_svg__l" transform="translate(-22.5 -21.5)"></use><g transform="matrix(1 0 0 1.224 -22.9 -100.1)"><use xlink:href="#style_04_color_b_svg__m"></use><use xlink:href="#style_04_color_b_svg__n"></use></g><g transform="translate(401.05 387.6)"><use xlink:href="#style_04_color_b_svg__o"></use><use xlink:href="#style_04_color_b_svg__p"></use></g><g transform="translate(401.05 387.6)"><use xlink:href="#style_04_color_b_svg__q"></use><use xlink:href="#style_04_color_b_svg__r"></use><use xlink:href="#style_04_color_b_svg__s"></use></g><g transform="translate(401.05 387.6)"><use xlink:href="#style_04_color_b_svg__t"></use><use xlink:href="#style_04_color_b_svg__u"></use><use xlink:href="#style_04_color_b_svg__v"></use></g><g transform="translate(401.05 387.6)"><use xlink:href="#style_04_color_b_svg__w"></use><use xlink:href="#style_04_color_b_svg__x"></use></g><g transform="matrix(1 0 0 1.224 -22.9 -100.1)"><use xlink:href="#style_04_color_b_svg__y"></use><use xlink:href="#style_04_color_b_svg__z"></use></g><use xlink:href="#style_04_color_b_svg__A"></use><g transform="matrix(1.47311 -.07733 0 1.65515 709.647 436.288)"><use xlink:href="#style_04_color_b_svg__B"></use><use xlink:href="#style_04_color_b_svg__C" transform="matrix(1.12042 .05234 0 1 .95 .4)"></use></g></svg>