<svg xmlns="http://www.w3.org/2000/svg" xmlns:xlink="http://www.w3.org/1999/xlink" preserveAspectRatio="none" viewBox="0 0 1500 1500" fill="#2f1b12"><defs><path d="m639.2 198.3-27.25 9.35m38.475-39.525L633.9 176.3m12.05 1.725-26.3 12.125m22.3-1.15-30 12.95" id="hair_26_fill_svg__b" stroke="#000" stroke-width="1" stroke-linejoin="round" stroke-linecap="round" fill="none"></path><g id="hair_26_fill_svg__a"><path d="M693.6 222.35q2.8-1.65 6.15.45l26.65-2.45-.75-8.4q-14.45-2.9-32.95 4.15l-.5.4q-4.614 5.974 1.4 5.85m29.9-115.5q-.584-.74-1.5-1-.025.018-.05 0-.9-.65-2.4-.65-1.75.15-2.6.15-.75 0-2-.15-1.6-.2-2.05-.25-1.95-.2-5.95.2-8.55.9-17.1 2.1-.244.033-.5.05-.106-.045-.25-.1-.75-.3-1.8-.15-.15 0-1.8.35-1.05.25-5.15.85-6.1.8-14.45 2.85-9.5 2.5-14.25 3.65-3.5.9-4.6 1.4-.95.4-2.4 1.25-1.85 1.05-2.3 1.3-1.75.9-2.05 1.1-1.1.85-1.25 1.95-.012.07-.05.15-5.13 3.125-9.75 8.25-4.85 5.4-9.55 13.5-.802 1.375-1.6 2.75-.494.069-.95.4-.45.4-1.35 1.6l-.8 1.4q-.45.8-1 2.35-.6 1.7-.95 2.4-.587 1.173-.55 1.75-.507.623-.8 1.05-.65.95-1.55 3.05l-2.65 6.6q-.5 1.6-1.1 4.9l-.75 4.4h-.05q-.65.1-1.15.5-.5.45-.7 1.05-.2.55-.2 1.4-.15 4-.55 8.9-.112 1.118-.05 1.9-1.17 7.272-1.5 14.55-.25.32-.5.8-1.2 2.2-.55 4.55-.5.5-.4 1.15l.25 1q.067.302.1.85h-.15q-.702 13.786 1.8 23.05 2.49 9.276 2.8 11.4.319 2.162 1.5 6.65l.85 1.65q.256-.155.55 1.15.293 1.304 1.9 2.25-.1.448-.1.85-.05 1.2.8 2.25.75.95 1.95 1.4 1.15.35 3.1.35 3.225 0 6.1-.2.226.096.45.15.8.25 2.55.25 2.75 0 3.5-1.2.3-.5.4-1.35.05-.95.1-1.4.15-.85.75-2 .7-1.25 1-1.9 1.011-1.76.8-3.15l2.55-.1q.345-1.007.65-2 1.253-3.991 2.2-7.75.519-1.814.8-3.75.674-.003 1.2-.6.587-.6.85-1.75.305-1.1.2-1.85-.052-.75-.8-1.15-.478-.341-1-.4-.02-5.285-1.45-11.3-1.18-5.097-1.65-8.05.831-2.095 1.75-5.55 1.388-5.335 2.9-10.6l-27.25 9.35 27.25-9.35q1.332-4.68 2.75-9.3l-30 12.95 30-12.95q.959-3.076 1.95-6.15.366-.304.65-.8.35-.65.8-2.1.26-.923.6-1.95l-26.3 12.15 26.3-12.15q1.382-3.954 4.1-9.15.186-.367.35-.75l-16.5 8.2 16.5-8.2q3.36-6.452 7.9-13.5l4.25-6.4q1-1.4 1.25-2.25.128-.425.15-.8.23-.18.45-.4 5.05-4.75 12.4-9.45 4.3-2.7 13.55-7.85 3-1.7 5.15-2.6 1.5-.6 1.9-.8 1-.55 1.4-1.3.265-.442.35-.9 1.081-.336 3.35-1.35 7.8-3.65 13-4.3 3.25-.45 3.35-.45 1.9-.4 3-1.35 1.05-.95 1.75-2.65 1.35-3.1-.1-4.9ZM782.25 217.3q-.95.3-1.55-.6-8.95-5.1-22.25-3.95l-1.5 8.35 24.25 2.1q6 1 1.05-5.9Z"></path></g></defs><g><use xlink:href="#hair_26_fill_svg__a"></use><use xlink:href="#hair_26_fill_svg__b"></use></g></svg>