<svg xmlns="http://www.w3.org/2000/svg" xmlns:xlink="http://www.w3.org/1999/xlink" preserveAspectRatio="none" viewBox="0 0 1500 1500" fill="#2f1b12"><defs><path id="hair_26_outline_svg__a" d="M636.7 207.7q11.583-42.17 28.55-63.15 31.556-25.037 56.2-28.9 8.452-10.866-5.3-11.4-37.147 1.355-68.8 12.2-8 2.372-16.3 12.2-17.1 17.857-23.65 38.1-7.023 21.096-7.2 46.2-.05 4.2.2 8.55.15 3.55.45 7.25m176.95-5.8 7.95.55-3.5-6.2q-.75-.3-1.55-.6-.75-.4-1.7-.65m-1.2 6.9-20.85-1.85 1.5-8.35q11.75.1 20.55 3.3m-78.55 5.85 25-1.45.2-8.5q-14.4-2.1-27.35 2.15m2.15 7.8-3.35.2h-7.95q3.3-5.75 3.55-6 .65-.25 1.35-.5 1-.4 2.05-.75 1.05-.4 2.2-.75m-62.3 7.4q.031-2.158-1.45-7 1.041.538 2.15-6.8m-.7 35.675q1.281-3.035 2.8-6.475-.725-3.85-1.3-7.35-.324-1.957-.6-3.8-.334-2.203-.9-4.25m-32.95 17.7q-.6-2.9-1.25-6-.45-2.15-.95-4.45m2.2 10.45q1 4.65 1.9 8.7.35 1.6.65 3.15.1.5.25 1 .2 1 .45 2l5.2 9.95h16.3l4-9.95q.497-1.413 1.1-3 1.313-3.432 3.1-7.675M611.15 264h.35" fill="none" stroke="#000" stroke-width="2" stroke-linejoin="round" stroke-linecap="round"></path><path id="hair_26_outline_svg__b" fill="none" d="m600.85 228.75 8.75-.85m171.1-11.2-.75 4.6m-.95-5.25-1.2 6.9m-79.5-8.85 2.15 7.8m-4.35-7.05q.55 1.25.6 2.6l.4 4.65m-3.05-6.5 1.8 6.05m-89.9-4.3 28.6-2.85m-28.65-1.55 30.8-5.25m-27.6 31.05.5-.05m-1.55.5 30.75-2.3m-24.2-4.65 22.9-2.7m-22.9-1.65 22.3-2.15m-.9 17.625.4-.075m-31.025-21.8H636m-33.45 17.75.5-.05m6.875 8.675 26.075-4.5M601.8 233.2l7.8-.95" stroke="#000" stroke-width="1" stroke-linejoin="round" stroke-linecap="round"></path></defs><g><use xlink:href="#hair_26_outline_svg__a"></use><use xlink:href="#hair_26_outline_svg__b"></use></g></svg>