<svg xmlns="http://www.w3.org/2000/svg" xmlns:xlink="http://www.w3.org/1999/xlink" preserveAspectRatio="none" viewBox="0 0 1500 1500" fill="#2f1b12"><defs><path d="M694.65 232.2q-.8-.05-1.4.6-.15.1-.2.2.243-1.767-1.9-1.65-2.149.168-6.2.25-3.042.065-3.8.9.31-.585.75-1.35 1.023-1.788-7.05 5.85-3.089 4.31-3.35 5.05l1.35 6.25q4.69-.14 8.1-2.65 10.99-.581 21.25.35.824.39 1.95.7l5.15 1.2q1.548.629 2.2.2.48.251 1.15.4 1.4.2 2.1.45.5.2 1.9 1.05.9.5 1.3.85.15.15.55.6.3.4.6.6.6.4 1.4.2.85-.25 1.1-.95.423-1.001-.45-2.1.272.079.55.15v-5.45l-10.4-5.1q-2.105-1.14-3.2-1.45-1.095-.26-3.65-1.5-1.985-.598-3.8-1.6-1.811-.952-2.65-1.1-.796-.1-1.6 0-.6-.95-1.75-.95m-13.75.95q-.001.551-.15 1.15-.511.345-.2-.5.127-.341.35-.85v.2m92.25 1.6q-.655.485-1.35.9-.64.42-3 1.15-2.313.727-4.1 2.8l-6.85 4.75v4.5q.404-.11.8-.25-.05.35-.05 1.05v1.15q.1.75.6.95.4.2 1.05-.1.2-.1.85-.65.55-.5 1.85-1.3l2.05-1.25q1.9-1.2 2.9-1.7.178-.09 1.7-.75 16.978-3.394 22.5.3v-6.4q-.2.05-.35.1.047-.598.05-1.25.007-.658.6-.95.639-.238-.4-1.7-.984-1.467-1.25-1.3-.266.16-1.15-.4l.2-.35q.35-1.05-.35-2-.65-.9-1.8-.9l-2.25.2q-1.5.1-2.9.7l-2-.05q-1.842.832-3.25 1.15-2.15.85-3.3 1.1-.098.008-.8.5Z" id="hair_25_fill_svg__a"></path></defs><use xlink:href="#hair_25_fill_svg__a"></use></svg>