<svg xmlns="http://www.w3.org/2000/svg" xmlns:xlink="http://www.w3.org/1999/xlink" preserveAspectRatio="none" viewBox="0 0 1500 1500" fill="#2f1b12"><defs><path id="hair_24_outline_svg__c" d="M675.9 145.2q-4.033-.718-9.7.95-5.059 1.527-5.45 1.6-.06.104-1.4 1.1-1.618 1.267-3.65 3.1-.863-.317-1.85-.5-.2-.05-.4 0v.15q1.194.265 2 .5l-.15.1q-.85.6-1.45 1.2-.6.65-1.25 1.65l-1.15 1.8q-1.102 1.705-2.05 3.35-.896 1.637.3 2.95 1.2 1.31 2.35 1.8 1.194.55 2.05-.15.906-.697 1.7-.6.782.136 2.4-2.6 1.434-2.413 1.8-2.45-.293.537-.8 1.5l4.6-4.35q.25-.064.55-.2 1.718-.61 2.8-1.55 1.14-.894 2.6-1.35 1.466-.46 5.35-1.15 3.926-.627 4.4-3.4.487-2.725-3.6-3.45Z" fill="#FFF"></path><path id="hair_24_outline_svg__f" fill="#FFF" d="M675.9 145.2q-4.033-.718-9.7.95-5.059 1.527-5.45 1.6-.06.104-1.4 1.1-1.618 1.267-3.65 3.1-.863-.317-1.85-.5-.2-.05-.4 0v.15q1.194.265 2 .5l-.15.1q-.85.6-1.45 1.2-.6.65-1.25 1.65l-1.15 1.8q-1.102 1.705-2.05 3.35-.896 1.637.3 2.95 1.2 1.31 2.35 1.8 1.194.55 2.05-.15.906-.697 1.7-.6.782.136 2.4-2.6 1.434-2.413 1.8-2.45-.293.537-.8 1.5l4.6-4.35q.25-.064.55-.2 1.718-.61 2.8-1.55 1.14-.894 2.6-1.35 1.466-.46 5.35-1.15 3.926-.627 4.4-3.4.487-2.725-3.6-3.45Z"></path><path fill="#FFF" d="M675.9 145.2q-4.033-.718-9.7.95-5.059 1.527-5.45 1.6-.06.104-1.4 1.1-1.618 1.267-3.65 3.1-.863-.317-1.85-.5-.2-.05-.4 0v.15q1.194.265 2 .5l-.15.1q-.85.6-1.45 1.2-.6.65-1.25 1.65l-1.15 1.8q-1.102 1.705-2.05 3.35-.896 1.637.3 2.95 1.2 1.31 2.35 1.8 1.194.55 2.05-.15.906-.697 1.7-.6.782.136 2.4-2.6 1.434-2.413 1.8-2.45-.293.537-.8 1.5l4.6-4.35q.25-.064.55-.2 1.718-.61 2.8-1.55 1.14-.894 2.6-1.35 1.466-.46 5.35-1.15 3.926-.627 4.4-3.4.487-2.725-3.6-3.45Z" id="hair_24_outline_svg__h"></path><path fill="#FFF" d="M675.9 145.2q-4.033-.718-9.7.95-5.059 1.527-5.45 1.6-.06.104-1.4 1.1-1.618 1.267-3.65 3.1-.863-.317-1.85-.5-.2-.05-.4 0v.15q1.194.265 2 .5l-.15.1q-.85.6-1.45 1.2-.6.65-1.25 1.65l-1.15 1.8q-1.102 1.705-2.05 3.35-.896 1.637.3 2.95 1.2 1.31 2.35 1.8 1.194.55 2.05-.15.906-.697 1.7-.6.782.136 2.4-2.6 1.434-2.413 1.8-2.45-.293.537-.8 1.5l4.6-4.35q.25-.064.55-.2 1.718-.61 2.8-1.55 1.14-.894 2.6-1.35 1.466-.46 5.35-1.15 3.926-.627 4.4-3.4.487-2.725-3.6-3.45Z" id="hair_24_outline_svg__k"></path><path id="hair_24_outline_svg__a" stroke="#000" stroke-width="2" stroke-linejoin="round" stroke-linecap="round" fill="none" d="m785.1 231.3 4.9-.35v-6.05q-1.112-.189-2.25-.35-1.307-.185-2.65-.325m0 7.075-29.95 2.05v-8.5q16.69-2.102 29.95-.625m-104.6 8.825 38.5.8v-10.3q-20.903-1.522-40.7 1.525m2.2 7.975-4.95-.1-5.2-.1q-.95-6.05-.55-6.25 1.018-.21 2.05-.4 1.57-.304 3.15-.575 1.641-.286 3.3-.55m-42-3.575q-.269-2.158-.475-4.15-.234-2.312-.375-4.4m.55 30.425q1.281-3.035 2.8-6.475-.725-3.85-1.3-7.35-.324-1.957-.6-3.8-.334-2.203-.6-4.25m-34.5 11.7q.65 3.1 1.25 6 1 4.65 1.9 8.7.35 1.6.65 3.15.1.5.25 1 .2 1 .45 2m-5.45-25.3q.5 2.3.95 4.45m-1.6-20.25q-.05 4.2.2 8.55.15 3.55.45 7.25m30.95 25.3q.497-1.413 1.1-3 1.313-3.432 3.1-7.675m-30.1-30.425h28.45"></path><path id="hair_24_outline_svg__b" stroke="#000" stroke-width="1" stroke-linejoin="round" stroke-linecap="round" fill="none" d="M787.75 224.55v4.75m-2.65-5.075v7.075m-106.8-6.225 2.2 7.975m-5.5-7.425q.65 1.325.55 2.675v4.65m-3.7-6.75 1.85 6.2m-67.75-15.05h29.875m-26.725 21.4.5-.05m-1.55.5 30.75-2.3m-24.2-4.65 22.9-2.7m-22.9-1.65 22.3-2.15m-.9 17.625.4-.075m-31.025-21.8H636.3m-34.5 11.7 7.8-.95m-8.75-3.5 8.75-.85m-7.05 11.35.5-.05m6.875 8.675 26.075-4.5"></path><path id="hair_24_outline_svg__d" stroke="#FFF" stroke-width="1" stroke-linejoin="round" stroke-linecap="round" fill="none" d="M678.825 147.7q-1.535-3.25-8.75-2.1-7.204 1.148-11.975 4.3-4.775 3.15-6.925 6.45-2.158 3.302-1.9 5.6.254 2.29 3.25 3.225 2.999.938 6.675-4.55 3.68-5.489 12.425-7.575 8.736-2.09 7.2-5.35Z"></path><path id="hair_24_outline_svg__e" stroke="#FFF" stroke-width="1" stroke-linejoin="round" stroke-linecap="round" fill="none" d="M663.65 123.85q.011 5.194.025 10.4-.003.863 0 1.725-.002.216 0 .425v2.5q.017.581.025 1.175.02 3.563.05 7.125l7.85-12.5m-30.75 12.5h22.9l-10-10.5m34.65 10.5h-24.65l10.8 13.3m-10.75 19.8-.05-33.1-3.7 12m3.7-12 11.45 4.95"></path><path id="hair_24_outline_svg__g" stroke="#FFF" stroke-width="1" stroke-linejoin="round" stroke-linecap="round" fill="none" d="M678.825 147.7q-1.535-3.25-8.75-2.1-7.204 1.148-11.975 4.3-4.775 3.15-6.925 6.45-2.158 3.302-1.9 5.6.254 2.29 3.25 3.225 2.999.938 6.675-4.55 3.68-5.489 12.425-7.575 8.736-2.09 7.2-5.35Z"></path><path id="hair_24_outline_svg__i" stroke="#FFF" stroke-width="1" stroke-linejoin="round" stroke-linecap="round" fill="none" d="M678.825 147.7q-1.535-3.25-8.75-2.1-7.204 1.148-11.975 4.3-4.775 3.15-6.925 6.45-2.158 3.302-1.9 5.6.254 2.29 3.25 3.225 2.999.938 6.675-4.55 3.68-5.489 12.425-7.575 8.736-2.09 7.2-5.35Z"></path><path id="hair_24_outline_svg__j" stroke="#FFF" stroke-width="1" stroke-linejoin="round" stroke-linecap="round" fill="none" d="M663.65 123.85q.011 5.194.025 10.4-.003.863 0 1.725-.002.216 0 .425v2.5q.017.581.025 1.175.02 3.563.05 7.125l7.85-12.5m-30.75 12.5h22.9l-10-10.5m34.65 10.5h-24.65l11.45 4.95m-.65 8.35-10.8-13.3.05 33.1m-.05-33.1-3.7 12"></path><path id="hair_24_outline_svg__l" stroke="#FFF" stroke-width="1" stroke-linejoin="round" stroke-linecap="round" fill="none" d="M678.825 147.7q-1.535-3.25-8.75-2.1-7.204 1.148-11.975 4.3-4.775 3.15-6.925 6.45-2.158 3.302-1.9 5.6.254 2.29 3.25 3.225 2.999.938 6.675-4.55 3.68-5.489 12.425-7.575 8.736-2.09 7.2-5.35Z"></path></defs><g><use xlink:href="#hair_24_outline_svg__a"></use><use xlink:href="#hair_24_outline_svg__b"></use></g><use xlink:href="#hair_24_outline_svg__c" transform="translate(0 4)"></use><use xlink:href="#hair_24_outline_svg__d" transform="translate(0 4)"></use><use xlink:href="#hair_24_outline_svg__e" transform="translate(0 4)"></use><use xlink:href="#hair_24_outline_svg__f" transform="translate(0 4)"></use><use xlink:href="#hair_24_outline_svg__g" transform="translate(0 4)"></use><use xlink:href="#hair_24_outline_svg__h" transform="translate(0 4)"></use><use xlink:href="#hair_24_outline_svg__i" transform="translate(0 4)"></use><use xlink:href="#hair_24_outline_svg__j" transform="translate(0 4)"></use><use xlink:href="#hair_24_outline_svg__k" transform="translate(0 4)"></use><use xlink:href="#hair_24_outline_svg__l" transform="translate(0 4)"></use></svg>