<svg xmlns="http://www.w3.org/2000/svg" xmlns:xlink="http://www.w3.org/1999/xlink" preserveAspectRatio="none" viewBox="0 0 1500 1500" fill="#2f1b12"><defs><path id="hair_23_outline_svg__a" d="M821.65 91.1q5.55 0 9.45 2.15 3.9 2.2 3.9 5.3 4.3 0 7.35 2.3 3.05 2.35 3.05 5.6m-40.6-22.3q3.9 0 6.65 2.75 2.75 2.8 2.75 6.7m18.05-5.9q5.1-1.05 6.2 2.65M820.85 80q4.95-1.4 4.25 3m33.6 60.25q4.7-8.7.9-15.6m-2.65-6.15q0-4.6-2.8-7.85t-6.75-3.25m20.3 19.9q3.85 3.75.95 9.4m-11.15-27.75q4.05.9 3.1 5.25m11.15 50.9q3 4.05 1.5 10.45-.15.6-.35 1.2m-11.7-29.7q2.95 0 5.05 3.65 2.1 3.65 2.1 8.85m10.7 16.5q3.15 5.65-2 9.45m-4.9-36.95q3.55 4.4 0 7m-25.5-59.9q5-2.5 7.3 3.9m-83.3-53.75q6.25-4.25 11.6.05M642.75 37.5q13.6-10.8 23.85-.85 10.6-11.2 19.8 1.95 2.45-13.7 12.85-5.9 11.65-12.3 16.9 0 7.35-5.05 11.85 2.45 11.4-6.35 18.85 3.95 4.95 0 8.4 3.9 3.5 3.95 3.5 9.5m-4.15-19.1q7.4-1.85 8.1 3.75m-28.25-13.5q6.4-2.85 10.9 1.85m50.55 42.8q3.25 0 5.55 3.45 2.35 3.5 2.35 8.45m-21.8-18q3.75 0 6.4.95 2.65 1 2.65 2.4m-23.9-10.6q3.9 0 6.65 2.15 2.75 2.2 2.75 5.3m9.9-4.65q7.4-5.35 10.85 3.15m-86.8-37.15q3.85-5.3 8.7-1.9m-62 3.55q-.65-5.95 5.2-2.5m23.1-1.2q1.5-6.4 6.95-2.95m-3.55 161.3q4.3-.6 7.55-3 4.35-3.2 5.35-13.65 7 7.25 12.9 3.4t3.4-13.8q4.2 8.8 8.4 6.45 3.55-2.4 6.95-9.4-1.1 9.1 9.6-.7 2.5 11.65 9.2 2.65-.45 2.25.5 4.85.95 2.6 3 3.55 2.1 1 4.05-.25 2-1.2 3.05-4.35 4.25 14 16.15 7.1.05.3-.1.65-1.276 5.702.35 9.2-.452-1.572-.2-3.4M692.9 188.2q4.75.95 5.65-4.8m4-5.4q4.5 1.1 7.2-3.2m39.95-13.05q3.15 5.95 7.15 3.1m26.85 5.7q1.8 4 8.2 6.15-1.65 10.1-.65 13.4.5 1.65 1.3 2.6.95 1.1 2.3 1.5-3.15 5.25-2.1 8.95 1.05 3.75 1.45 5.65.35 1.9 1.85 2.3m-15.675-36.6q-.666-.792-1.125-1.75.65 2.169 2.65 3.85m-6.3-5.1q-.18 1.624 0 3m-49.8-5.95q5.9 2.25 9.05-3.7m52.1 51.15q-.65.9-1.1 1.75m-.75 2.7q0 1.8 1.6 3.05m-28.25 6.65q.7-.15 1.45-.25 13.95 0 23.3 5.25 1.95 1.1 3.45 2.25m8.75-8.45q-3.05 9.45-1.75 14.7.75 3.25 3.2 4.85-8.2 13.7 2.4 13.8-9.55 5.4-6 13.95.05.15.15.3m-6.75-32.9q-10.35-6.4-27.55-5.25l-7.3 5.85q-2.9-3.05-3.5-7.7v-.3m49.575 40.3q.422 1.012 1.075 2.1-2.85 1.8-4.25 3.55-2.8 3.35 0 6.35.65.7 1.65 1.35-2.65 4.2.6 10.25 1.7 5.55 8.45 1.6-4.85 3.6-2.3 12.9 5.65 7.55 13.25 5.55 1.2-1.1 1.4-2.85 8.95 4.35 11.8-.15 2.8-4.5 2.8-7.4M674.4 242.55q10.35-4.55 24.5-5.35 4.5-.25 9.35-.15 1.9.05 3.9.15l9.4 6.45q3.3-2.5 4.95-6m-9.35-9.05q-2.25-.45-5-.8-2 0-3.9.05-4.85.15-9.35.7-11 1.35-19.7 5.05-2.65 1.15-4.8 2.35m.05-29.3q.35.45.65.85 4.95 1 6.25-3.75m-6.9 8.35q3.05-1.15.65-4.6m-21.2 39.15q.35-.5.65-1.05 1.6-3.45-.2-8.8-.25-.8-.6-1.6 5.35-1.25 7.55-3.4 2.85-2.8.25-7.1 3-6.45-.25-8.25-.4-.25-.9-.4.45 0 .9.05 4.1-.05 5.75-1.85 2.9-3.15-1.7-11.65 3.15-.55 5.35-1.6 6.95-3.35 5-11.8m-6.9 38.5q1.15-.15 1.9-.55m-16.2 27.7q5.4-1.3 4.45-8.2M879.1 204.5q3.6 3.95 0 6.95m.5 14.85q.3 7.95-4.15 8.25m-3.9-8.5q6.4-5.9 1.35-11.8-.45-.5-1-1.05m-4.2 31.45q7.65 1.85 3.85-9.65m-9.95 46.15q1.75-2.65 2.7-4.9 2.55-6.15-.95-9.25 9.5-8.85.6-13.95m7.7 2.6q4.75 4.15 0 8.3m-4.9 19.8q.85 6.15-3.75 5.15m-5.75 11.75-3.4 6.9m-19.9 5.65q6.6-.15 9.8-3 3.25-2.85 3.25-6.9m-.6 11.75-5.05 2.45m-8.65 4.25-7.6 4.15m25-26.4q8.6-3.7 3.75-11.25M784.8 197.6q-2.2 5.45 1.85 5.8m85.15-12.8q3.15 5-.55 10.2m-57 127.05-9.95 1.45m3.55-258.1q6.8 1 5.75 6.35M683.95 200.6q3.75.1 2.5-3.75M640.85 37.8q-6.65-3.2-19.3 6.75-10.9-4.1-17.9 5.3M630.7 31.5q3.7-7.1 8.35-3.05m-54.2 17.15q0-1.25 1.6-2.15 1.6-.85 3.85-.85m2.05 13.35Q589.6 51 584.5 54.2q-5.05 3.2-5.05 7.7M567.4 50.1q2.6-7.35 9.05-6m27.75-1.9q3.9-10.45 11.2-5.3m-78.05 38.4q-5.3-.9-9.4 1.55-4.15 2.45-6.95 9.8-6.35 0-10.85 2.9t-5 13.45q-11.7.6-14.45 5.75t-2.4 12.05q-3.25 0-5.7 3.25-.7.85-1.3 1.95-2.9 5.25-2.9 12.65-5.65 0-9.65 4.5-4 4.55-4 10.95-7.75-3.65-5.9 9.85-10.9 1.15-3.5 8.4-5.05-1.25-5.6 8-6.45 3.15-3.5 8.5-6.35 1.55-7.85 7.15-2.8 13.1 4.35 15.8-2.05 1.15-3.5 2.45-8.2 7.5 2.8 21.25-11.75 14.6 1.05 26.2m74.3-186.85q.6-6.7 5.7-5.1m-24.3 21.1q-.8-5 4.6-6.45m62.7-18.5q-8.15-6.6-14.15 3.9m-5.2-10.55q.9-6.05 6.5-6.4M476.4 122.2q-.8-7.45 3.2-7.25m-16 27.85q-.75-7.1 3.4-6.35m-24.35 43.2q-4.45-2.4-.6-4.85m5.4-16.55q.6-5.9 5.05-5m-21.35 76.9q-4.35-3.3-.25-8.55m7.15 58.75q-5.3-2.45-1.6-7.85m-6.95-25.45q-2.95 7.05 1.85 8.3m17.2 24.15q-13.9 19.35.85 27.65-6.95 14.4-1.35 20 5.6 5.65 13.5 5.65 0 7 5.8 11.9 5.8 4.95 14 4.95 5.3 14.25 17.05 13.05 6.45-1.35 10.45-2.1 4.9 10.6 17.6 7.75 10.4 13.65 18.1 2.35 19.8 7.25 29.45-5.25 16.3 12.7 26.5-4.45 7.8 11.8 14.75-1.15 9.3 7 9.8-7.45 11.9 2.1 2.9-5.6 8.85-5.25 2.1-13l-5.05-2.75q10-7.25-.4-14.5.7 0 4.3-4.35 3.55-4.35-1.7-12.8 6.6-3.3 2.05-13.15M437.1 307.4q-3.5-2.6-1.4-9.05m42.7 57.75q-2.15 2.25 1.55 4.5l2.2.85m-39.7-34.35q.55 5.25 4.8 4.9m9.85 10.7q3.3 7.95 8.4 5.95m175.35-71.25q7.1-3.25 6.5-10.35m-19.1 18.65q12.3-.05 4.15-14.8 10.5-.65 7.85-8.7.75 0 1.45-.2m-4.45 28.65q4.05-.35 2.2-5.65M512 372.75q3.6 5.6 8.95 3.45m28.6 5.25q6.7 3.3 6.85-3.5m77.25-54.85q2.95 2.3 1.45 7.05m-.45-25.05q4.2 6.45.95 10.95m-60.5 59.4q3.65 4.5 7.3 0m35.15-2.9q3.15-2.25 4.4-7.2m4.05.4q5.95 0 10.15-2.85 4.25-2.8 4.25-6.8m-2.05-6.9q3.15-5.65-.8-8.4M432.3 203.15q-3.4-4.75 0-7m53.55-90.1q-2.75-4.25.75-7.6" fill="none" stroke="#000" stroke-width="2" stroke-linejoin="round" stroke-linecap="round"></path><path id="hair_23_outline_svg__b" stroke="#000" stroke-width="1" stroke-linejoin="round" stroke-linecap="round" fill="none" d="M785.85 217.75q-.7 1.5-.75 2.7m3.45 19.55v2.8m1.85-.45v3.25m-36.15-15q.85.25 1.3 1.45.95.95 1.5 1.6m-5.15-2.6 3.3 4.7m-4.7-3.3 1.85 3.8m-1.85.9q-1.15-1.15-1.35-2.8m-29.65-.95 2.35-3.3m-3.75 1.45 2.35-2.85m.9 7.05 2.35-4.2m-.45 5.15 2.35-3.3m-54.9-6.25q2.3-1.3.55-5m-1.1 17.85v2.8m1.9-4.25v3.8"></path></defs><g><use xlink:href="#hair_23_outline_svg__a"></use><use xlink:href="#hair_23_outline_svg__b"></use></g></svg>