<svg xmlns="http://www.w3.org/2000/svg" xmlns:xlink="http://www.w3.org/1999/xlink" preserveAspectRatio="none" viewBox="0 0 1500 1500" fill="#2f1b12"><defs><path d="m724.55 239.85-1.55-10.3q-20.9-2.3-49.2 3.05-.4.15-.75.35v6.25q5.554-1.695 10.25.65h41.25M786 230.9q-1.35.5-2.25-.35-14.06-3.288-32.6.3v8.5l34.85-2.4v-6.05M683.55 115.4q-12.171-.25-18.05 4.45-24.232 10.097-30.85 19.7-.887-.088-1.7.4-.95.55-1.2 1.7-.052.248-.05.5-.336.21-.65.5-.7.7-.9 1.45-.089.311-.1.6-3.007 3.22-4.75 5.4-1.75 2.243-3.6 5.3-1.838 3.046-4.3 5l-4.7 8.4q-2.908 4.798-2.45 6.5.456 1.755-.8.75-5.477 9.47-6.3 24.5-.195.07-.4.15-1.55.65-1.75 2.9 0 1.2.35 1.85.29.604.8.9-.052.25-.1.5-.75 4.75-.55 11.8.15 6.4 1.2 17l.35 3.65q.1 1.4.4 2.05.158.363.35.65-.08.82.05 1.95 1.6 12 8.35 21.85 1.3 1.85 1.95 2.5.782.816 2.3 1.9.056.104.1.2.25.5.8 1.05l4.15 3.75q1.2 1.1 1.85 1.55.6.3.9.6.3.35.85 1.2.535.535 1.15.45.485.82.8 1 .45.25.95-.05.5-.3.55-.8 0-.376-.35-1.05.228-.375.3-1.1.1-1-.05-3.15-.15-2.1.05-3.2.477-1.59.6-2.6.24-.385.45-.9.5-1 .55-1.65-.05-1.1 0-1.65.35-1.25.3-1.9-.03-.418-.3-.85.467-1.15 1.15-2.8 1.15-2.8 1.6-4.35.445-1.503.75-2.5.802-1.755 1.45-3.7.242-.433.5-.95.85-1.65 1.2-2.7.25-.85.15-1.2-.023-.163-.1-.3 3.751-6.181 4.4-9.1.727-3.088-.15-6.1-.868-3.016.2-3.4 1.067-.379 1.5-5.15.428-4.78 3.2-21.3l3.45-10.25q5.034-16.675 8.95-11.25l3.4-1.8q17.167-5.584 29.6-3.7 12.433 1.934 30.2 9.4 5.355 2.818 14.55 2 9.243-.767 18.15-7.6 8.912-6.789 23.35-3.95 14.434 2.844 14.65 2.55l2.75-4.15v-4.85q.183-1.053-.05-6.05-.188-4.99-9.15-15.75-8.967-10.763-22.95-17.65-12.563-8.562-31.1-9.65-4.472-.487-22.4-1.65-15.757-1.022-22.1 1.5-.479-.29-1.1-.4-1.55-.25-2.45.95-.067.082-.15.15Z" id="hair_20_fill_svg__a"></path></defs><use xlink:href="#hair_20_fill_svg__a"></use></svg>