<svg xmlns="http://www.w3.org/2000/svg" xmlns:xlink="http://www.w3.org/1999/xlink" preserveAspectRatio="none" viewBox="0 0 1500 1500" fill="#2f1b12"><defs><path id="hair_20_outline_svg__a" d="M655.85 176.05q33.572-10.996 57.1.125 23.524 11.115 36.425 1.525 12.906-9.588 29.975-6.75l12.9 2q5.942-11.797-.575-23.05-6.515-11.259-19.175-19.8-12.65-8.547-29.65-13.15-17.013-4.599-41.1-4.075-24.08.517-40.275 8.6-16.2 8.081-30.325 20.625-16.188 18.05-24 39.125-7.81 21.071-5.575 50.075 2.24 29.01 13.75 39.05 11.498 10.03 13.25 11.9.862-20.253 6.075-30.85 2.015-4.093 2.975-8.55 1.678-1.718 5.2-24.175 6.023-38.364 12.525-42.625M786 230.9q-14.977-2.536-34.85-.05v8.5l32-2.2q1.45-.3 2.85-.35m-112.95 2.4q4.7-1.65 10.25-.35l41.25 1-1.55-10.3q-25.4-1.85-49.2 3.05-.4.2-.75.45" fill="none" stroke="#000" stroke-width="2" stroke-linejoin="round" stroke-linecap="round"></path><path id="hair_20_outline_svg__b" stroke="#000" stroke-width="1" stroke-linejoin="round" stroke-linecap="round" fill="none" d="M655.85 176.05h1.7"></path></defs><g><use xlink:href="#hair_20_outline_svg__a"></use><use xlink:href="#hair_20_outline_svg__b"></use></g></svg>