<svg xmlns="http://www.w3.org/2000/svg" xmlns:xlink="http://www.w3.org/1999/xlink" preserveAspectRatio="none" viewBox="0 0 1500 1500" fill="#2f1b12"><defs><path id="hair_19_outline_svg__a" d="M627.85 256.525q.047-11.132 8.775-34.8 8.734-23.674 9.325-43.775 44.628 2.296 79.175 1.925 32.613-.351 41.75-2.025 10.28-1.312 30.625-6.95 6.851-22.709-.8-48.55-10.74-12.582-42.3-21.65-31.563-9.058-86.9-2-24.449 3.573-38.175 8.975-13.727 5.401-16.125 8.125-22.92 11.146-17.8 60.1 3.755 35.897 9.2 76.35m23.25 4.275q.288 1.73.575 3.375.313 1.84.625 3.575.375 2.02.725 3.875.413 2.145.8 4.075M794 245.85q-.886-13.719-42.85-8.5v8.5q29.366-5.535 42.85 0Zm-121.9 1.2q23.1-8.333 52.45-.7l-1.55-10.3q-51.816-6.384-50.9 11Zm-65.65 16.15q-2.49-1.855-.5-4.15-2.444-1.87 0-3.35-1.688-1.493-1.35-3.45m4.35 15.35q-1.004 1.412 0 3.35m22.575 5.075q-.464-2.126-.95-4.6M606.45 263.2q-1.954 2.804 2.5 4.4m6.65 17.8q.147.551.35 1.05l2.525 3.65m17.4 3.4q-.462-2.08-1.025-4.35m-19.25-3.75q-.469-1.82-2.05-4.45l-1.9-4.45q-.08-2.553-2.7-5.55m9.525 19.15 3.45 4.95m14.825 2.875q-.37-2.086-.875-4.425m-1.025-4.35q-.505-2.046-1.1-4.25-.255-.935-.525-1.9-.336-1.203-.675-2.6-.51-1.99-1.025-4.375m5.95 27.025q-.243-2.344-.725-5.125m-10.775 2.9q12.195 11.324 11.6 3.475-.047-.613-.1-1.25m-15.55-8 3.875 5.6q.088.082.175.175" fill="none" stroke="#000" stroke-width="2" stroke-linejoin="round" stroke-linecap="round"></path><path id="hair_19_outline_svg__b" stroke="#000" stroke-width="1" stroke-linejoin="round" stroke-linecap="round" fill="none" d="m604.6 252.25 23.25 4.275m2.725 14.9.325.075m-24.45-8.3 23.325 4.15m-23.825-8.3 23.1 4.425m-23.1-7.775 22.475 4.2m-19.475 11.05 22.575 5.075M608.95 267.6l21.625 3.825m-12.1 18.675 17.4 3.4m-20.275-8.1 19.25 3.75m-12.925 5.9 14.825 2.875m-4.2-17.525.4.05m-1.425-4.425.425.075m-18.4 4.85 20.2 3.95m-22.1-8.4 20.9 3.9m-6.575 20.425 11.5 2.225"></path></defs><g><use xlink:href="#hair_19_outline_svg__a"></use><use xlink:href="#hair_19_outline_svg__b"></use></g></svg>