<svg xmlns="http://www.w3.org/2000/svg" xmlns:xlink="http://www.w3.org/1999/xlink" preserveAspectRatio="none" viewBox="0 0 1500 1500" fill="#2f1b12"><defs><g id="hair_18_fill_svg__a"><path d="M678.8 239.1q-10.2 4.5-14.1 21.25 6.1-14.5 23.6-14l41.7 2.9-2-13.2q-21.9 5.5-49.2 3.05m77.35-1.75v8.5q-.25 2.55-.55 5.2l.1-.75 36.3-7.05q4.8 1.25 10.85 4.55-4.85-15.5-14.65-8.95-18.55 4-32.05-1.5ZM804.35 207.4v-.1q0-.25-.05-.45 0 .25.05.55Z"></path><path d="M769.95 93.2q-25.05-10.9-33.7-8.45-24.65-2.2-48 7-4.65 1.8-9.25 4.1-23.45 11.05-6.5 2.85-48.65 12.6-43.1 31.35-2.75-1.3-15.1 11.2-6.1 6.05-14.45 15.45-17.05 18.4-5.05 61.7v2.25q1.05 1.6.7 7.3 7.116 18.163 7.35 20.3.234 2.135 16.85 36.45 1.126 6.765 1.4 12 .65 12 3.3 15.3 21.3 12.65 28.35 14.55-2.55-9.4-1.9-22.75.6-13.35-.1-29.8-.75-16.5-6.8-20.45-6.1-3.95-4.4-10.7 3.3-9.1 7.45-19 1.25-3.05 2.6-6.25 1.5-3.65 3.2-7.35 3.8-8.45 5.95-17.7l.4-1.8q1-4.7 1.65-9.65.1-1.3.25-2.65.25-3.3.45-6.75l1.05.1q16 3.45 29.7 5.4 11.3 1.6 21 2.15 15.3.3 23.1.25 19-.15 37.9-2.5 3.05-.4 6.15-.85 1.3 1.4 5 3.55 9.3 5.4 11.45 9.4 2.1 4 4.25 8.55 2.15 4.5 2.9 5.9l.2 1.8.1 1.4q.05.2.05.45v.1q.1 1.85.3 3.9.25 7.3.05 15.35 11.55-31.4 1.95-66.2 13.45-33-1.1-43.5-10.9-14.35-35.6-23.75Z"></path></g></defs><use xlink:href="#hair_18_fill_svg__a"></use></svg>