<svg xmlns="http://www.w3.org/2000/svg" xmlns:xlink="http://www.w3.org/1999/xlink" preserveAspectRatio="none" viewBox="0 0 1500 1500" fill="#2f1b12"><defs><path id="hair_18_outline_svg__a" d="M804.35 207.35v-.05l-.1-.1q.045.09.1.15m-.1-.15q-.3-.4-1.5-1.8l1.6 1.95q-.055-.06-.1-.15Z" fill="#C99170"></path><path id="hair_18_outline_svg__b" stroke="#000" stroke-width="2" stroke-linejoin="round" stroke-linecap="round" fill="none" d="M670.85 173.2q28.45 7 59.3 6.7 29.65-.35 39.9-1.75l.65-.2h.8q19.45-.7 35.15-17.5 21.7-35.9-29.2-63.35-50.95-27.45-104.95 1.6-27.6 7.55-36.2 13.45-8.65 5.85-6.9 17.9m-2.4 1.5q-40.95 25.7-36.75 62.75 4.15 37 16.25 62.5l14.1 29.55q.15.05.35.1m43.05-115 5.7 1.475M620.6 286.35q-1.05 17.4 3.8 25.65 31.5 17.2 28.6 12.7-2.9-4.5-2.95-27.15-.1-22.65-.35-33.1-.25-10.45-11.85-14.2 5-16.5 9.15-26.4 1.25-3.05 2.6-6.25 1.5-3.65 3.2-7.35 3.8-8.45 5.95-17.7 1.6-6.8 2.3-14.1.25-3.3.45-6.75m108.55 6.45 1.3-.2m32.9 29.25q-7.25-26.3-25.35-29.25h-7.4m32.85 29.35v.1q0 .1.05.25 0 .45.05.9v.4q.05.55.1 1.15l.1 1.2q.25 7.3.05 15.35 11.55-31.4 1.95-66.2m-2.3 46.925q-.055-.085-.1-.175m-16.1 36.45q8.65-1.65 14.7 4.15-2.05-10.7-11.75-10.45-23.4 6.35-34.95 0v8.5q-.2 2.2-.45 4.45l32.45-6.65Zm-123.45 16.7q8.85-17.5 23.6-14l41.7 2.9-2-13.2q-22.8 5.9-49.2 3.05-10.7 6.15-14.1 21.25Zm-35.3-130.3-2.4 1.5"></path><path id="hair_18_outline_svg__c" stroke="#000" stroke-width="1" stroke-linejoin="round" stroke-linecap="round" fill="none" d="m669.7 172.925.7.175q.25.05.45.1m-41.45-43.15 35 40.3q-.45-.15-.8-.2h-.05q-.15.05-.8.7m-1.25.85q.1-.45.25-.8l-25.6-28.8q-4.25-4.95-8.5-9.8-.1-.15-.2-.25l-.45-.5m36.55 38.6q-1.3-.25-1.8.75l2.25.55m-37-39.9-.15-.15 2.55-1.35"></path></defs><g><use xlink:href="#hair_18_outline_svg__a"></use><use xlink:href="#hair_18_outline_svg__b"></use><use xlink:href="#hair_18_outline_svg__c"></use></g></svg>