<svg xmlns="http://www.w3.org/2000/svg" xmlns:xlink="http://www.w3.org/1999/xlink" preserveAspectRatio="none" viewBox="0 0 1500 1500" fill="#2f1b12"><defs><path d="M717.6 222q-1.35 0-2.75-.1-10.15-.45-22.3-.1-3.25.1-6.05.4-7.8.85-12.35 3.25-1.15.6-2.2 1.25-4.65 3-7.65 7.85-.2.3-.35.6-1.1 1.85-1.95 3.4-1.65 2.9-2.35 4.6 1.3-1.45 3.25-2.95.5-.45 1.05-.9.7-.55 1.5-1.1 1.15-1 2.6-1.95.6-.45 1.25-.8 1.25-.8 2.65-1.4 3.05-1.45 6.6-2.15 1.45-.25 2.95-.45 2.25-.25 5-.4 3.95-.2 9-.1 3.75.05 8.1.25 5.25 0 8.95.05h3.35q1.9 0 3.4-.05 2-.2 3.5-.65 1.55-.45 2.85-1.4.9-.7 1.7-1.75.7-1 1.15-1.9.6-1.4.5-2.55-.95-.15-2.3-.25-3.45-.45-9.1-.7m89.9 11.65q-3-5.75-8.4-8.65-5.55-3.1-16.65-3-10.95.15-20.15.95-9.3.7-12.95 1.6-.35 1.95 1.25 4.35 1.7 2.3 3.9 3.1 2.55.5 6.3.35 3.8-.2 11.15-.55 13.1-1.25 20.1-.5 7.15.6 11.95 4.25 4.85 3.7 7.4 6.6-.85-2.75-3.9-8.5m10.45-38.5q-.8-14.2-7.75-32.65-3.9-10.3-10.4-19.15-5.4-7.1-12.35-13.3-.65-.55-1.15-.95-.7-.65-1.4-1.15-14.85-12.35-33.55-17.85-11.7-3.5-27.75-4.9h-.3q-.35 0-.7.05-1.85-.15-3.7-.35-11.45-.95-22.85-.6-6.5.15-13.05.8-4.25.5-8.45 1.3-.3.1-.45.1-10.3 1.95-20.1 5.55-3.2 1.15-6.3 2.5-2.1.85-4.1 1.9-1.5.75-2.95 1.5-8.1 4.25-15 10.05-13.1 11.3-21.25 26.2-7.4 13.85-9.5 29.4-2.3 17.35 0 34.65.25 1.85.6 3.8 2.05 11.65 9 38.3 1.4 5.55 3.1 11.8 2.1 8.55 5.3 13.75 7.9 13.05 26.7 8.2 1-39 5.5-71.1 2.7-3.85 9.75-14.9 7.1-11.1 14.15-25.75 4.65-9.85 5.55-20.7v-.55q.35.55.8 1.05-.35 10.25-1.6 20.4-1.25 10.4-6.1 20.8 9.8-7.85 16.85-17.4 7.7-10.55 10.5-24.15 4.75 6.1 9.1 10.6 1.95 1.95 3.85 3.8 8.5 7.9 17.85 13.15 11.55 6.15 29.1 6.35 17.55.05 29.7.25h.35q11.85.25 14.55-.25l18.45-.55Z" id="hair_16_fill_svg__a"></path><path id="hair_16_fill_svg__b" stroke="#000" stroke-opacity="0" stroke-width="2" stroke-linejoin="round" stroke-linecap="round" fill="none" d="M784.9 127.95q.7.5 1.4 1.15.5.4 1.15.95 6.95 6.2 12.35 13.3 6.5 8.85 10.4 19.15 6.95 18.45 7.75 32.65l-18.45.55q-2.7.5-14.55.25h-.35q-12.15-.2-29.7-.25-17.55-.2-29.1-6.35-9.35-5.25-17.85-13.15.65 2 1.15 4.15 3 11.7 1.35 23.45m12.85-98.6q-.35 0-.7.05-1.85-.15-3.7-.35-11.45-.95-22.85-.6-6.5.15-13.05.8-4.25.5-8.45 1.3-.3.1-.45.1-10.3 1.95-20.1 5.55-3.2 1.15-6.3 2.5-2.1.85-4.1 1.9-1.5.75-2.95 1.5-8.1 4.25-15 10.05-13.1 11.3-21.25 26.2-7.4 13.85-9.5 29.4-2.3 17.35 0 34.65.25 1.85.6 3.8 2.05 11.65 9 38.3 1.4 5.55 3.1 11.8 2.1 8.55 5.3 13.75 7.9 13.05 26.7 8.2 1-39 5.5-71.1 2.7-3.85 9.75-14.9 7.1-11.1 14.15-25.75 4.65-9.85 5.55-20.7m.8.5q-.35 10.25-1.6 20.4-1.25 10.4-6.1 20.8 9.8-7.85 16.85-17.4 7.7-10.55 10.5-24.15 4.75 6.1 9.1 10.6 1.95 1.95 3.85 3.8m10.95-71.3q2.4 0 4.7.3 16.05 1.4 27.75 4.9 18.7 5.5 33.55 17.85 12.6 4.2 25.9 5.1m-6.8 102.5q-4.8-3.65-11.95-4.25-7-.75-20.1.5-7.35.35-11.15.55-3.75.15-6.3-.35-2.2-.8-3.9-3.1-1.6-2.4-1.25-4.35 3.65-.9 12.95-1.6 9.2-.8 20.15-.95 11.1-.1 16.65 3 5.4 2.9 8.4 8.65 3.05 5.75 3.9 8.5-2.55-2.9-7.4-6.6Zm-135.95.7q.6-.45 1.25-.8 1.25-.8 2.65-1.4 3.05-1.45 6.6-2.15 1.45-.25 2.95-.45 2.25-.25 5-.4 3.95-.2 9-.1 3.75.05 8.1.25 5.25 0 8.95.05h3.35q1.9 0 3.4-.05 2-.2 3.5-.65 1.55-.45 2.85-1.4.9-.7 1.7-1.75.7-1 1.15-1.9.6-1.4.5-2.55-.95-.15-2.3-.25-3.45-.45-9.1-.7-1.35 0-2.75-.1-10.15-.45-22.3-.1-3.25.1-6.05.4-7.8.85-12.35 3.25-1.15.6-2.2 1.25-4.65 3-7.65 7.85-.2.3-.35.6-1.1 1.85-1.95 3.4-1.65 2.9-2.35 4.6 1.3-1.45 3.25-2.95.5-.45 1.05-.9.7-.55 1.5-1.1 1.15-1 2.6-1.95Z"></path></defs><g><use xlink:href="#hair_16_fill_svg__a"></use><use xlink:href="#hair_16_fill_svg__b"></use></g></svg>