<svg xmlns="http://www.w3.org/2000/svg" xmlns:xlink="http://www.w3.org/1999/xlink" preserveAspectRatio="none" viewBox="0 0 1500 1500" fill="#2f1b12"><defs><path d="m668 338.35-.15 1.1q-.524 3.285-2.95 6.9.62 9.857 1.05 20.25 0 1.9.1 3.85l.1 3.7q.05 17.75-3.25 27.85-4.05 12.15-15.05 19.2-11 6.95-25.4 11.35-14.55 4.4-26.6 5.5-12.15.9-18.95 1.45 8.65-16.05 6.8-28.75-2-12.8-7.5-33-5.4-20.15-7.1-30.8-.75-2.9-1.35-5.75-2.2-10.65-3.15-20.4-1.85-18 .9-34.3 2.85-17.95 9.6-29.85 6.8-11.9 13.65-17.3 3.6-2.8 7.55-4.6 3.506-1.892 6.975-3.05-.903-2.362-1.575-4.2-5.4-16.05-6.2-32 6.05-24.85 18.75-45.25 6.607-10.727 15.1-20.05 14.898-16.36 35.6-28.4 13.35-3.35 29.05-4 31.556-1.29 70.625 12.325l.775-.475q7.95-4.85 11.9-3.7 3.333 1.042 10.7 5.675l1.35.825q.888.549 1.775 1.125 10.16 6.632 19.225 16.625 4.378 4.831 8.5 10.45 7.4 10.1 12.25 21.25 2.586 9.427 4.025 19.85 2.23 16.09 1.725 34.55-.053 2.183-.15 4.4-1.55 32.95-3.8 60.7-.5 6.25-.9 11.9.088.526.2 1.1.874 4.934 2.8 13.4 1.211 5.353 3.925 11.15.231.498.475 1 1.941 4.02 4.6 8.25m-23.5 28.4q2.022 1.157 4.3 2.025 13.543 5.167 13.45 4.875-2.45-5.6-4-12-2.15-9-2.85-23.05-.1-1.55-.2-3.15-.111-2.534-.15-5.35.003-.496 0-1-.077-10.415.875-24.55l.075-1.1m-88.9-132.45q-4.266-3.949-7.425-6.175m8.125 6.625q5.936-.032 13.9-1.225 7.962-1.191 17.6 9.825 3.344 3.81 6.075 7.75m-166.425 66.9q4.65-10.9 7.3-22.55 0-15.95.35-36.3 3.8-15.85 11.55-29.65 8.404-14.718 20.875-25.85.356-.327.725-.65 13-11.45 24-16.75 10.9-5.3 19.25-7.3 7.5.9 14.25 3.8 18.057 7.554 28.05 20.9 1.179 1.584 2.325 3.275.687-1.658 1.525-3.275 2.64-5.001 6.85-9.55 5.231-5.85 12.625-10.525M666 199.2q2.483-16.953 7.85-25.875 7.666-12.728 26-18.9 6.56-2.211 10.125-3.175m4.275-.5v-.025m16.975 2.775q-12.613-2.43-15.525-2.65-.83-.065-1.45-.1-.085.306-1.075 1-4.707 3.313-1.15-.775m2.225-.225q-.073-.005-.15 0m29.8 10.8q-.45-.35-.8-.7m54.5 88.75q-.96-18.236-1.45-26.775-.515-8.87-4.75-24.125-.958-3.464-2.3-6.85m15.875 140.325Q801.688 320.26 801 312.9q-.835-8.984-1.575-25.75-.2-4.513-.425-9.225m-134.9-48.45q.043 12.054.75 30.85m1.125 26.2.2 4.075q-.004.076 0 .15.026.524.05 1.05.222 4.39.475 9m.75 14.15q.247 4.379.5 8.95m-3.05 22.45q-.676 1.021-1.5 2.075m-6.3 6.475q.102-.075.2-.15.778-.692 1.5-1.375m-4.875 3.75q-7.865 5.117-16.825 6.925-11 2.15-19.1.05 2.35-3.65 4.5-7.55 4.85-8.9 5.85-19.2 1.1-10.7-.7-21.45-2.197-18.412-3.6-37.175-.817-.801-1.65-1.725-6.45-7.2-8.1-15.5-.829-4.047-1.05-7.65-.539-.777-.9-1.5-5.3-10.45-8.85-20.1-.109-.28-.225-.55m20.775 47.025q-.437-5.991-.8-12.025-.2-1.6-.3-3.25-.019-.29-.025-.575-7.024-5.239-9.675-9.025m9.675 9.025q-.87-13.947-.675-40.875" id="hair_14_fill_svg__b" stroke="#000" stroke-opacity="0" stroke-width="2" stroke-linejoin="round" stroke-linecap="round" fill="none"></path><path id="hair_14_fill_svg__c" stroke="#000" stroke-opacity="0" stroke-width="2" stroke-linejoin="miter" stroke-linecap="round" fill="none" d="M756.05 212.3q-.95-.3-1.55-1.25-.95-1.25-.5-2.75.25-.55 1.75-2.15 2.3-1.65 2.55-1.75 2.2-1.3 6-1 1.05 0 4.3.4 4.8.75 5.85 3.1 1.2 1.9 0 3-.2.2-1.55.55-2.35.7-4.3 1-6.45 1.25-11.7.85-.45.1-.85 0 .15-.1.3-.1.3 0 .55.1m-62.25-2.4q-.65-.95-.35-1.95.5-1.35 2.75-2.6 5.8-3.1 14.45-2.5 4.9.3 6.65 2.9.9 1.8.4 3.1-.4.95-2.6 1.8-3.05.8-6.8.8-8.35 0-13.1-.55-.15-.1-.15 0-.8-.15-1.25-1Z" stroke-miterlimit="3"></path><g id="hair_14_fill_svg__a"><path d="M718.15 205.75q-1.75-2.6-6.65-2.9-8.65-.6-14.45 2.5-2.25 1.25-2.75 2.6-.3 1 .35 1.95.45.85 1.25 1 0-.1.15 0 4.75.55 13.1.55 3.75 0 6.8-.8 2.2-.85 2.6-1.8.5-1.3-.4-3.1m54.75 4.7q1.35-.35 1.55-.55 1.2-1.1 0-3-1.05-2.35-5.85-3.1-3.25-.4-4.3-.4-3.8-.3-6 1-.25.1-2.55 1.75-1.5 1.6-1.75 2.15-.45 1.5.5 2.75.6.95 1.55 1.25.15-.1.3-.1.3 0 .55.1 5.25.4 11.7-.85 1.95-.3 4.3-1ZM613.25 253.85q.221 3.603 1.05 7.65 1.65 8.3 8.1 15.5.833.924 1.65 1.7-.437-5.966-.8-12-.2-1.6-.3-3.25-.019-.29-.05-.6-6.999-5.214-9.65-9Z"></path><path d="M659.9 352.65q-.659.428-1.1.7-.722.708-1.5 1.4-.098.075-.2.15-.62 1.32-1.15 1.85-.65.55-1.6.45-.219-.023-.45-.1-7.84 5.142-16.8 6.95-11 2.15-19.1.05 2.35-3.65 4.5-7.55 4.85-8.9 5.85-19.2 1.1-10.7-.7-21.45-2.197-18.412-3.6-37.2-.817-.776-1.65-1.7-6.45-7.2-8.1-15.5-.829-4.047-1.05-7.65-.539-.777-.9-1.5-5.3-10.45-8.85-20.1-.109-.28-.25-.55-3.444 1.158-6.95 3.05-3.95 1.8-7.55 4.6-6.85 5.4-13.65 17.3-6.75 11.9-9.6 29.85-2.75 16.3-.9 34.3.95 9.75 3.15 20.4.6 2.85 1.35 5.75 1.7 10.65 7.1 30.8 5.5 20.2 7.5 33 1.85 12.7-6.8 28.75 6.8-.55 18.95-1.45 12.05-1.1 26.6-5.5 14.4-4.4 25.4-11.35 11-7.05 15.05-19.2 3.3-10.1 3.25-27.85l-.1-3.7q-.1-1.95-.1-3.85-.43-10.393-1.05-20.25-.676 1.021-1.5 2.05-2.024 3.155-3.5 4.25m-1.1.7q-.23.18-.4.3-.85.55-1.25 1.15-.023.05-.05.1.102-.075.2-.15.778-.692 1.5-1.4m6.1-7q2.426-3.615 2.95-6.9l.15-1.1q-.281 1.415-.7 2.65-.85 2.45-3.7 7.1-.102.162-.2.3.824-1.029 1.5-2.05m2.55-31.4q-.074 1.802-.3 3.3-.2 1.8-.15 2.4.15.7.65 2.05.176.527.3 1.2-.253-4.571-.5-8.95m-1.25-23.15q.05.766.05 1.85 0 1.886.45 7.15-.253-4.61-.5-9m-.05-1.2q-.077-2.06-.2-4.1-.135.787-.4 1.45-.012.028-.05.05.498 1.03.65 2.4.01.09 0 .2m-2.05-61.15-.35 5.55q-.189 3.02-.75 4.45.187 3.381.6 7.7l.95 10.1q.166 1.71.3 3.05-.707-18.771-.75-30.85M799 277.9q.225 4.737.4 9.25.765 16.766 1.6 25.75.688 7.36 3.95 19.25-1.51-10.136-2.75-21.15l-2-20.35q-.717-7.33-1.2-12.75m-7.6-79.2q4.235 15.255 4.75 24.1.49 8.564 1.45 26.8v-.45q.1-5.15.1-7.75.05-4.5-.25-7.75-.3-3.2.35-4.6.08-.175.15-.35-.178-1.765-.45-3.85-1.8-13.5-3.6-20.05-1.874-6.755-4.8-12.95 1.342 3.386 2.3 6.85m-77.15-47.95v-.05q-.071.032-.15.05.077-.005.15 0m11.9.75q-4.05-.85-6.6-1-2.034-.094-5.3.2v.05q.62.035 1.45.1 2.912.22 15.5 2.65-.857-.632-1.25-.85-1.1-.65-3.8-1.15m-54.4 25.2q-3.3 6.2-4.65 13.05-.651 3.296-1.1 9.45 2.483-16.953 7.85-25.9 7.666-12.703 26-18.9 6.56-2.186 10.1-3.15-.007-.006-.05 0-6.45.95-9.15 1.85-1.6.55-5.8 2.55-5.45 2.7-7.5 3.95-3.9 2.45-7.45 6-4.9 4.85-8.25 11.1M699 105.5q7.5.9 14.25 3.8 18.057 7.554 28.05 20.9 1.179 1.584 2.3 3.25.712-1.633 1.55-3.25 2.64-5.001 6.85-9.55 5.231-5.85 12.6-10.55-39.044-13.59-70.6-12.3-15.7.65-29.05 4-20.702 12.04-35.6 28.4-8.493 9.323-15.1 20.05-12.7 20.4-18.75 45.25.8 15.95 6.2 32 .672 1.838 1.55 4.2.141.27.25.55 3.55 9.65 8.85 20.1.361.723.9 1.5 2.651 3.786 9.65 9-.846-13.922-.65-40.85-2.65 11.65-7.3 22.55 4.65-10.9 7.3-22.55 0-15.95.35-36.3 3.8-15.85 11.55-29.65 8.404-14.718 20.85-25.85.381-.327.75-.65 13-11.45 24-16.75 10.9-5.3 19.25-7.3m119.85 35.15q-4.122-5.619-8.5-10.45-9.065-9.993-19.25-16.65-.862-.551-1.75-1.1l-1.35-.85q-7.367-4.608-10.7-5.65-3.95-1.15-11.9 3.7-.386.237-.8.45-7.369 4.7-12.6 10.55-4.21 4.549-6.85 9.55-.838 1.617-1.55 3.25-1.121-1.666-2.3-3.25-9.993-13.346-28.05-20.9-6.75-2.9-14.25-3.8-8.35 2-19.25 7.3-11 5.3-24 16.75-.369.323-.75.65-12.446 11.132-20.85 25.85-7.75 13.8-11.55 29.65-.35 20.35-.35 36.3-.196 26.928.65 40.85.031.31.05.6.1 1.65.3 3.25.363 6.034.8 12 1.403 18.788 3.6 37.2 1.8 10.75.7 21.45-1 10.3-5.85 19.2-2.15 3.9-4.5 7.55 8.1 2.1 19.1-.05 8.96-1.808 16.8-6.95-.615-.161-1-.7-.85-1.2.25-3.8 2.75-7.2 3.4-14.7.3-4.75.6-7.15.45-3.75.45-3.8.05-.85-.1-2.3-.2-1.75-.2-2.35-.05-1.4.2-3.45.25-2.3.35-3.45.4-4.35-.3-12.2-.8-8.55-.65-12.25.003-.072 0-.15-.217-.36-.4-.8-.5-1.15-.85-4.2-.25-3.15-3.1-27.3-1.95-16.55-1.95-27.35 0-.734.05-1.4-.38-.778-.55-1.8-.2-1.2-.15-3.3.3-16.85 1.35-25.45 1.7-14.1 6.45-24.35 3.7-8 9.65-14.75 5.9-6.7 13.4-11.45 4.221-2.643 7.75-3.5.076-.107.15-.2 1.6-2 5-3.1 2.6-.75 4.3-.5.999.18 1.75.6 5.853-2.059 14.55-.15 4.65 1 10.15 2.9 3.6 1.15 5.7 2.15 3.05 1.45 5.05 3.35.9.8 1.3 1.8.45 1.1-.05 1.95-.274.487-.8.7 3.184 2.251 7.45 6.2.15-.338.3-.7.186.592.4 1.15 5.936-.032 13.9-1.25 7.962-1.166 17.6 9.85 3.344 3.81 6.05 7.75-3.481-6.061-5.75-8.7-2.15-2.4-7.7-6.85-3.75-2.95-6.15-3.35-1.6-.2-3.8.3-2.55.75-3.85 1.05-3.1.85-6.35.75-1.7-.1-2.15-.9-.55-.85.3-2.3 3.4-6.25 9.8-9.45 4.3-2.15 11.25-3.15 4.15-.55 6.65-.4 6.9.55 15.15 6.95 11.75 9 17.2 20.35 2.45 5.2 4.9 14.6 1.7 6.55 2.2 10 .7 4.8.55 9.4-.1 4.35-1.75 15.25-1.4 9.65-1.15 15.2.25 4.1.25 4.15 0 2.35-.4 4.05-.504 1.925-1.8 3.35.579 2.35.3 6.95-2.25 39.4 4.8 78.05.95 5.55 2.4 8.4.6 1.2 1.9 3.15 2.55 3.95 2.65 6.45.064 1.193-.4 2.25.498.329.7 1.05.45 1.25-.35 2.1-.116.14-.25.25 2.022 1.157 4.3 2 13.543 5.192 13.45 4.9-2.45-5.6-4-12-2.15-9-2.85-23.05-.1-1.55-.2-3.15-.111-2.534-.15-5.35.003-.496 0-1-.077-10.415.85-24.55.062-.547.1-1.1.4-5.65.9-11.9 2.25-27.75 3.8-60.7.097-2.217.15-4.4.504-18.46-1.75-34.55-1.414-10.423-4-19.85-4.85-11.15-12.25-21.25Z"></path><path d="M724.45 144.7q-5.5-1.9-10.15-2.9-8.697-1.909-14.55.15-.751-.42-1.75-.6-1.7-.25-4.3.5-3.4 1.1-5 3.1-.074.093-.15.2-3.529.857-7.75 3.5-7.5 4.75-13.4 11.45-5.95 6.75-9.65 14.75-4.75 10.25-6.45 24.35-1.05 8.6-1.35 25.45-.05 2.1.15 3.3.17 1.022.55 1.8-.05.666-.05 1.4 0 10.8 1.95 27.35 2.85 24.15 3.1 27.3.35 3.05.85 4.2.183.44.4.8.003.078 0 .15-.15 3.7.65 12.25.7 7.85.3 12.2-.1 1.15-.35 3.45-.25 2.05-.2 3.45 0 .6.2 2.35.15 1.45.1 2.3 0 .05-.45 3.8-.3 2.4-.6 7.15-.65 7.5-3.4 14.7-1.1 2.6-.25 3.8.385.539 1 .7.231.077.45.1.95.1 1.6-.45.53-.53 1.15-1.85.027-.05.05-.1.4-.6 1.25-1.15.17-.12.4-.3.441-.272 1.1-.7 1.476-1.095 3.5-4.25.098-.138.2-.3 2.85-4.65 3.7-7.1.419-1.235.7-2.65.338-1.782.45-3.85.1-2.35-.1-6.65-.07-2.369-.4-3.95-.124-.673-.3-1.2-.5-1.35-.65-2.05-.05-.6.15-2.4.226-1.498.3-3.3.174-3.798-.3-8.95-.271-2.91-.45-5.2-.45-5.264-.45-7.15 0-1.084-.05-1.85.001-.526-.05-1.05.021-.074 0-.15.01-.11 0-.2-.152-1.37-.65-2.4.038-.022.05-.05.265-.663.4-1.45.35-1.495.25-3.4 0-.35-.5-5-.25-2.5-.35-6.45-.1-5.5-.15-6.45-.036-1.267-.35-4.9-.134-1.34-.3-3.05l-.95-10.1q-.413-4.319-.6-7.7.561-1.43.75-4.45l.35-5.55 1.7-27.3q.093-1.554.2-2.95.449-6.154 1.1-9.45 1.35-6.85 4.65-13.05 3.35-6.25 8.25-11.1 3.55-3.55 7.45-6 2.05-1.25 7.5-3.95 4.2-2 5.8-2.55 2.7-.9 9.15-1.85.043-.006.05 0l2.05-.3q1.123-.11 2.1-.2.079-.018.15-.05 3.266-.294 5.3-.2 2.55.15 6.6 1 2.7.5 3.8 1.15.393.218 1.25.85.16.099.3.2.95.7 1.6.95.95.35 1.85.25.41-.059.7-.25.526-.213.8-.7.5-.85.05-1.95-.4-1-1.3-1.8-2-1.9-5.05-3.35-2.1-1-5.7-2.15m88.6 51.85q-.5-3.45-2.2-10-2.45-9.4-4.9-14.6-5.45-11.35-17.2-20.35-8.25-6.4-15.15-6.95-2.5-.15-6.65.4-6.95 1-11.25 3.15-6.4 3.2-9.8 9.45-.85 1.45-.3 2.3.45.8 2.15.9 3.25.1 6.35-.75 1.3-.3 3.85-1.05 2.2-.5 3.8-.3 2.4.4 6.15 3.35 5.55 4.45 7.7 6.85 2.269 2.639 5.75 8.7.31.492.6 1l3.2 5.75q1.9 3.35 3.05 5.65.456.899.9 1.8 2.926 6.195 4.8 12.95 1.8 6.55 3.6 20.05.272 2.085.45 3.85-.07.175-.15.35-.65 1.4-.35 4.6.3 3.25.25 7.75 0 2.6-.1 7.75v.45q-.03 9.075.75 20.35.234 3.235.65 7.95.483 5.42 1.2 12.75l2 20.35q1.24 11.014 2.75 21.15.16.947.3 1.85 1.091 6.659 2.4 7.85 1.315 1.229 2.85 5.6 1.53 4.425 4.25 6.45 2.771 2.082 3.25 1.85.064.12.1.2.4.75 1.2.9.73.077 1.2-.25.134-.11.25-.25.8-.85.35-2.1-.202-.721-.7-1.05.464-1.057.4-2.25-.1-2.5-2.65-6.45-1.3-1.95-1.9-3.15-1.45-2.85-2.4-8.4-7.05-38.65-4.8-78.05.279-4.6-.3-6.95 1.296-1.425 1.8-3.35.4-1.7.4-4.05 0-.05-.25-4.15-.25-5.55 1.15-15.2 1.65-10.9 1.75-15.25.15-4.6-.55-9.4Z"></path></g></defs><g><use xlink:href="#hair_14_fill_svg__a"></use><use xlink:href="#hair_14_fill_svg__b"></use><use xlink:href="#hair_14_fill_svg__c"></use></g></svg>