<svg xmlns="http://www.w3.org/2000/svg" xmlns:xlink="http://www.w3.org/1999/xlink" preserveAspectRatio="none" viewBox="0 0 1500 1500" fill="#2f1b12"><defs><path id="hair_13_outline_svg__a" d="M730.9 224.35q.15-1.35-1.25-1.4-.6-.35-1.05-.6-.45-.15-.85-.35-.4-.1-.65-.2l-1.7-.8q-8.85-3.7-16.3-4.55-11.15-.9-25.95 4.2-14.85 5-21.3 12.2 3.5-.95 11.5-3.6.8-.3 1.8-.6 1.3-.55 2.7-.9 2.7-.85 5.1-1.5l1.55-.5q2.3-.7 4.1-1 1.2-.4 2.35-.5 6.4-1.2 13.2 0 7.75 1.25 14.45 3.35.9.05 2.7.75 2.3.9 2.95.9.65 0 2.05-.3.1 0 .25-.1.75-.1 2.65-1.4.2-.3.4-.45 1-1 1.3-2.65m54.6-7.05q-5.05-1.35-9.55-.85-5.7 1-12.8 5.4-.25.1-.5.25-.55.4-1.4.9-.65 0-.65.75-.2.55.05 1.65.35.9 1.05 2.1 1.35 1.25 1.7 1.35 1.2.6 1.75.6.45-.1 2.2-1.05 1.3-.65 1.95-.75 4.65-2.05 10.4-3.45 4.35-.9 8.35-.05 1.35.05 2.65.6 3.5 1.15 9.5 3.95.35.15.85.2 2.3 1.25 4.25 2-1.5-3.35-2.9-4.3-1.3-1.15-2.6-1.9-3.65-2.5-6.3-4-3.15-1.6-6.1-2.7-1-.4-1.9-.7m26.45-74.3q-.1-.25-.1-.4 0-.2-.05-.4l-.5-2.2q-3.15-12.35-7.55-17.35-1.5-2-1.6-2.1-3.8-4.15-8.45-6.1-.05-.1-.15-.1-.5-.15-.85-.4-7.2-3.8-16.1-5.05-5.1-.75-12.8-1.1-2.25-.05-4.65-.15h-3.4q-6.85-.15-14.4-.05l-43.2.3q-2.5 0-4.9.25-7.05.35-13.95 1.85l-1.2.25q-1.9.35-3.7.8-9.5 2.4-18.05 6.4-6.25 2.8-12.1 6.45-9.2 5.75-16.85 13.3.05.05.1.05l-.9.7q-.35.15-.6.55-2.5 2-4.65 4.15l-4.25 4.5q-7.3 8.4-12.15 19.25l-2.2 5.7q-.285.76-.55 1.55v.1q-.25.3-.3.8-.1.1-.1.2-2.85 8.4-4.25 17.75-.95 6.6-1.25 13.75-.1 8.7.95 18.5.5 6.4 1.65 13.3 1.85 11.3 5.75 26.9.45 1.8 1.4 4.35.15.25.2.65 8.3 28.85 26.15 37.4-.15-7.1-.2-11.35 0-10.1 1.2-19.95.45-3.5 1.05-6.95 2.25-14.05 7-27.6.35-1 .7-2.05.05-.35.3-.7 1.4-3.05 3.6-6.8 1.9-3.15 4.2-6.9 7.5-11.4 9.7-16.05.75-1.6 1.75-3.55.75-2.1 1.5-4.3 1.1-3.5 2-7 .05-.85.25-1.6.15-1.3.4-2.65.85-6.05.45-12.4-.2-2.05-1.65-10.2-.2-.5-.2-.95h.05q.5 1.1 1.1 2v.1q1.3 2.35 1.55 2.65.15.35.5.85 8.15 11.65 24.45 18.4.85.25 1.8.65 5.1 1.85 11.05 3.4l.85.2q1.4.35 2.85.65 5.4 1.05 25 3.6 11.05 1.5 18.95 3.4.9.2 1.8.35.35.1.75.2.95.15 1.85.5.65.15 1.3.35.55-.75.55-1.5v-.35q0-.25.1-.4.2-3.5.3-6.5.05-2.15.05-3.9-.05-.8 0-1.5-.05-2.6-.35-4.5-.8-7.4-3.3-12.8l-.4-.8q-.5-1.1-1-1.85-.25-.3-.4-.6-.6-.75-1.05-1.4.35.4.85.8.85.7 1.9 1.35.45.25.95.6 1.15.8 2.45 1.55 2.45 1.45 5.5 2.75.25.1.6.3 2.65 1.15 6.15 2.25 3.55 1.05 7.9 2.2 10.8 2.45 13.95 3.25.4.15.9.35l12.3 5.4q.6.35 1.35.75l6.3 4.15q.65.1.75-1.2.5-4.25.65-8.4.1-1.5.2-3.05.1-5.3-.1-10.7-.1-.8-.1-1.7v-.25q-.7-12.6-3.35-24.95Z" fill="#200E0D" fill-opacity="0"></path><path id="hair_13_outline_svg__b" stroke="#000" stroke-width="2" stroke-linejoin="round" stroke-linecap="round" fill="none" d="M755.75 107.65h3.4q2.4.1 4.65.15 7.7.35 12.8 1.1 8.9 1.25 16.1 5.05.35.25.85.4.1 0 .15.1 4.65 1.95 8.45 6.1.1.1 1.6 2.1 4.4 5 7.55 17.35l.5 2.2q.05.2.05.4 0 .15.1.4 2.65 12.35 3.35 24.95v.25q0 .9.1 1.7.2 5.4.1 10.7-.1 1.55-.2 3.05-.15 4.15-.65 8.4-.1 1.3-.75 1.2l-6.3-4.15q-.75-.4-1.35-.75l-12.3-5.4q-.5-.2-.9-.35-3.15-.8-13.95-3.25-4.35-1.15-7.9-2.2-3.5-1.1-6.15-2.25-.35-.2-.6-.3-3.05-1.3-5.5-2.75-1.3-.75-2.45-1.55-.5-.35-.95-.6-1.05-.65-1.9-1.35-.5-.4-.85-.8.45.65 1.05 1.4.15.3.4.6.5.75 1 1.85l.4.8q2.5 5.4 3.3 12.8.3 1.9.35 4.5-.05.7 0 1.5 0 1.75-.05 3.9-.1 3-.3 6.5-.1.15-.1.4v.35q0 .75-.55 1.5-.65-.2-1.3-.35-.9-.35-1.85-.5-.4-.1-.75-.2-.9-.15-1.8-.35-7.9-1.9-18.95-3.4-19.6-2.55-25-3.6-1.45-.3-2.85-.65l-.85-.2q-5.95-1.55-11.05-3.4-.95-.4-1.8-.65 8.7 10.55 21.75 15.7 2.9 1.05 5.75 2.45m-92.2-71.3q7.65-7.55 16.85-13.3 5.85-3.65 12.1-6.45 8.55-4 18.05-6.4 1.8-.45 3.7-.8l1.2-.25q6.9-1.5 13.95-1.85 2.4-.25 4.9-.25l43.2-.3q7.55-.1 14.4.05.25-.2.55-.25 13.05-5.15 22.1-15.2m-113.9 74.15q.5 1.1 1.1 2v.1q1.3 2.35 1.55 2.65.15.35.5.85 8.15 11.65 24.45 18.4m-50.65 51.15q.35-1 .7-2.05.05-.35.3-.7 1.4-3.05 3.6-6.8 1.9-3.15 4.2-6.9 7.5-11.4 9.7-16.05.75-1.6 1.75-3.55.75-2.1 1.5-4.3 1.1-3.5 2-7 .05-.85.25-1.6.15-1.3.4-2.65.85-6.05.45-12.4-.2-2.05-1.65-10.2-.2-.5-.2-.95M805.3 230.9q-1.95-.75-4.25-2-.5-.05-.85-.2-6-2.8-9.5-3.95-1.3-.55-2.65-.6-4-.85-8.35.05-5.75 1.4-10.4 3.45-.65.1-1.95.75-1.75.95-2.2 1.05-.55 0-1.75-.6-.35-.1-1.7-1.35-.7-1.2-1.05-2.1-.25-1.1-.05-1.65 0-.75.65-.75.85-.5 1.4-.9.25-.15.5-.25 7.1-4.4 12.8-5.4 4.5-.5 9.55.85.9.3 1.9.7 2.95 1.1 6.1 2.7 2.65 1.5 6.3 4 1.3.75 2.6 1.9 1.4.95 2.9 4.3Zm-143.45 1.95q3.5-.95 11.5-3.6.8-.3 1.8-.6 1.3-.55 2.7-.9 2.7-.85 5.1-1.5l1.55-.5q2.3-.7 4.1-1 1.2-.4 2.35-.5 6.4-1.2 13.2 0 7.75 1.25 14.45 3.35.9.05 2.7.75 2.3.9 2.95.9.65 0 2.05-.3.1 0 .25-.1.75-.1 2.65-1.4.2-.3.4-.45 1-1 1.3-2.65.15-1.35-1.25-1.4-.6-.35-1.05-.6-.45-.15-.85-.35-.4-.1-.65-.2l-1.7-.8q-8.85-3.7-16.3-4.55-11.15-.9-25.95 4.2-14.85 5-21.3 12.2ZM626 138.5q.25-.4.6-.55"></path><path id="hair_13_outline_svg__c" stroke="#000" stroke-width="2" stroke-linejoin="miter" stroke-linecap="round" fill="none" d="m602.75 172.1 2.2-5.7q4.85-10.85 12.15-19.25l4.25-4.5q2.15-2.15 4.65-4.15m.6-.55.9-.7m-24.75 34.85q-.285.76-.525 1.575l-.025.075q-.25.3-.3.8-.1.1-.1.2-2.85 8.4-4.25 17.75-.95 6.6-1.25 13.75-.1 8.7.95 18.5.5 6.4 1.65 13.3 1.85 11.3 5.75 26.9.45 1.8 1.4 4.35.15.25.2.65 8.3 28.85 26.15 37.4-.15-7.1-.2-11.35 0-10.1 1.2-19.95.45-3.5 1.05-6.95 2.25-14.05 7-27.6m-39.225-67.825q.081-.306.125-.525.2-.6.4-1.05" stroke-miterlimit="3"></path></defs><g><use xlink:href="#hair_13_outline_svg__a"></use><use xlink:href="#hair_13_outline_svg__b"></use><use xlink:href="#hair_13_outline_svg__c"></use></g></svg>