<svg xmlns="http://www.w3.org/2000/svg" xmlns:xlink="http://www.w3.org/1999/xlink" preserveAspectRatio="none" viewBox="0 0 1500 1500" fill="#2f1b12"><defs><path d="M677.95 94.4q-.9-.35-1.85-.85-7.85-3.8-14.15-9.9m-27.5 235.45q-.004.148 0 .3v.15m1.075 4.55q.434.855.95 1.8 2.254 4.12-.15.55M552.9 332.9q-3.35 4.1-7.2 6.65-6.5 4.9-13.65 4.35m179.5-130.05q-2.45 1.9-5.05 2.5-2.85.35-5.7-.7-3.4-1.15-16.45-4.7-13.5-3.75-24.05-3.8-8.35.05-14.35.7 3.5-3.5 8-7.05 6.25-5 13.8-6.7h.1q7.65-1.6 23.35 6.55 15 7.75 21.8 10.65-.45 1.5-1.45 2.55Zm38.3 2.55q-2.3-.7-4.3-2.7-.85-.9-1.15-2.55 6.05-2.65 21.3-10.25 16.15-7.65 20.05-6.95 3.5.85 6.8 5.8 2.75 4 6.1 9.55-3.45-.95-8.8-1-9.2-.15-20.8 3.2-11.5 3.25-14.4 4.25-2.45 1.05-4.8.65Zm-141.425 54.55q-.01-.126-.025-.25.004-.126 0-.25.03.26.05.525m9.8 13.575q.083.345.175.675m.025.075q-.067-.338-.15-.7-.456-1.971-1.05-4.325.52 2.242 1 4.275m-1.675-1.8q.15.482.275.925M616 275.2q.38 1.523.725 2.95m.15.625q.198.77.375 1.5m-.725 2.65.125.675m-.125-.025q-.003-.027 0-.05-.076-.094-.15-.2m.15.2q-.014-.051-.025-.1l-.1-.175m.05-.1.05.275.125.175m15.425 20.35q-9.595 14.016 2.4 15.15m0 .45-.025 2.125q.438 1.096 1.1 2.425M616 298.85q-.456-.21-.9-.4m3.125-8.85q4.358 13.976 4.175 15.4-.433 3.364-2.35 7.125m15.075 12.475q.103.158.2.3.579.9 1 1.55m-1.2-1.85q1.525 5.825 2.3 8.2.186.539.325.9m-19.4-12.55q6.016 16.44 12.25 28.95" id="hair_10_fill_svg__b" stroke="#000" stroke-opacity="0" stroke-width="1.25" stroke-linejoin="round" stroke-linecap="round" fill="none"></path><path id="hair_10_fill_svg__c" stroke="#000" stroke-opacity="0" stroke-width="1.5" stroke-linejoin="round" stroke-linecap="round" fill="none" d="M677.95 94.4q15.85-.1 34-1.4 45.65-.55 69.05 21.85 66.871 36.786 24.65 84.75 6.148-32.434-10.2-37.6-83.767 10.303-152.525-3.025-.16.386-.325.775 1 29.35-18.8 59.9.96 5.21 2.25 10.675.457-.064.925-.125m-.7 1.05q4.974 20.895 14.625 45.45-6.832-3.416-11.5-8.95 9.352 15.564 15.6 36.45-7.432-2.37-14.35-7.575m49.775 104Q601.5 407.351 541.9 382.45q14.85-12.35 24.55-26.15-24.75 8.3-37.5 5 15.7-2.7 23.95-28.4m84.8-227.3q-10.95-5.95-15.3-15.45 22.9 4.5 55.55 4.25m-35.025 64.575q-.311-.064-.625-.125M552.9 332.9q7.8-23.95 9-68 .033-1.144.175-2.25-6.447-89.37 23.625-125.3 25.174-29.715 51.475-30.825m-11.125 123.8q.109.465.225.925m-30.025 15.1q5.8 13.607 12.15 24.1.201.35.425.7m9.475 13.45q-.023-.028-.05-.05-.807-.987-1.6-2.025m6.05 7.025q-.964-1.002-1.925-2.075-1.244-1.38-2.475-2.875m12.35 12.025q-2.206-1.663-4.35-3.6-1.821-1.633-3.6-3.475m1.9-29.15q2.015 4.05 4.8 7.35-2.307-3.838-4.8-7.35Zm-62.3 5.1q-.112-1.433-.225-2.85"></path><g id="hair_10_fill_svg__a"><path d="M485.7 361.45q-.25-.4-.35-.45-.2-.2-.95-.4.05.1-.2.1-.5-.1-.8.3l-.35.5q-.25.6-.1 1.15.2.7.7 1 .65.4 1.25.1.6-.2.9-.95.15-.65-.1-1.35M789.85 208.3q5.35.05 8.8 1-3.35-5.55-6.1-9.55-3.3-4.95-6.8-5.8-3.9-.7-20.05 6.95-15.25 7.6-21.3 10.25.3 1.65 1.15 2.55 2 2 4.3 2.7 2.35.4 4.8-.65 2.9-1 14.4-4.25 11.6-3.35 20.8-3.2m-122-14.2h-.1q-7.55 1.7-13.8 6.7-4.5 3.55-8 7.05 6-.65 14.35-.7 10.55.05 24.05 3.8 13.05 3.55 16.45 4.7 2.85 1.05 5.7.7 2.6-.6 5.05-2.5 1-1.05 1.45-2.55-6.8-2.9-21.8-10.65-15.7-8.15-23.35-6.55m-33.4 125.45-.05 2.1q.463 1.12 1.1 2.45-.184-.617-.45-1.3-.565-1.662-.6-3.25m0-.45-2.4-15.15q-9.595 14.016 2.4 15.15m-5.05-51.35q-2.307-3.838-4.8-7.35 2.015 4.05 4.8 7.35m-12.9 15.65-.1-.15q-.01.04-.05.05.1.13.15.2.01-.026 0-.1m.75-3.15q-.177-.705-.4-1.5.346 1.618-.1 3.4-.047.2-.1.35.793 1.063 1.6 2.05-.48-2.033-1-4.3m1 4.3q.027.022.05.05-.456-1.971-1.05-4.35.52 2.267 1 4.3m7.8-54.25q.109.49.2.95.367-.524.7-1.05-.443.06-.9.1M711.95 93q-18.15 1.3-34 1.4-32.65.25-55.55-4.25 4.35 9.5 15.3 15.45-.272.462-.55.9-26.276 1.135-51.45 30.85-30.072 35.93-23.65 125.3.138 1.417.25 2.85-.112-1.433-.25-2.85-.117 1.106-.15 2.25-1.2 44.05-9 68-8.25 25.7-23.95 28.4 12.75 3.3 37.5-5-9.7 13.8-24.55 26.15 59.6 24.9 138.5 18.15-2.644-6.845-9.4-13.95-7.698-8.064-17.15-21.6-10.672-15.225-15.8-32.25-.288-.922-.55-1.85-.053-.185 0-.55.05-.376-1.2-3.95-.396-.65-1-1.55l.9 3.15q-.334-.829-1.1-3.45 1.55 5.825 2.3 8.2l.35.9-.35-.9q-.75-2.375-2.3-8.2.128.158.2.3.604.9 1 1.55 2.429 3.57.15-.55-.49-.945-.95-1.8-.637-1.33-1.1-2.45l.05-2.1v-.15q-.004-.152 0-.3-11.995-1.134-2.4-15.15 1.381-3.916-1.4-7.35-2.206-1.638-4.35-3.6-1.821-1.608-3.6-3.45-.302 1.359-1.95-2.1-1.219-1.356-2.45-2.85.083.362.15.7l-.05-.1-.3-.55q-.3-.5-.9-.85l-.35-.15q-.124-.418-.3-.9.004.093-.05.15.089.37.15.7h-.05l-.1-.05q.022-.002 0-.05-.05-.07-.15-.2-.825 2.161-2.7 2.6-1.2.3-2.5-.4-1.15-.6-2-1.75-1.05-1.5-1.3-3.25-.25-1.85.55-3.3.95-1.65 2.7-2.2 1.85-.55 3.45.4 1.587.934 2.15 2.75-.32-1.427-.7-2.95.38 1.523.7 2.95.063.117.1.25.049.19.05.35.223.795.4 1.5.594 2.379 1.05 4.35 1.231 1.494 2.45 2.85.986 1.098 1.95 2.1 1.779 1.842 3.6 3.45 2.144 1.962 4.35 3.6 6.918 5.23 14.35 7.6-6.248-20.886-15.6-36.45-2.785-3.3-4.8-7.35 2.493 3.512 4.8 7.35 4.668 5.534 11.5 8.95-9.65-24.555-14.65-45.45-.091-.46-.2-.95-1.29-5.44-2.25-10.65 19.8-30.55 18.8-59.9.165-.389.3-.8-.286-.039-.6-.1.314.061.6.1 68.783 13.353 152.55 3.05 16.348 5.166 10.2 37.6 42.221-47.964-24.65-84.75-23.4-22.4-69.05-21.85M608.4 270.95q.016-.126 0-.25.004-.126 0-.25-6.35-10.493-12.15-24.1 5.8 13.607 12.15 24.1l.4.7-.4-.7q.03.26.05.5h-.05m7.6 27.9q-.456-.21-.9-.4.444.19.9.4m6.4 6.15q-.433 3.364-2.35 7.1 1.917-3.736 2.35-7.1.183-1.424-4.2-15.4 4.383 13.976 4.2 15.4m-4.05 16.15q6.016 16.44 12.25 28.95-6.234-12.51-12.25-28.95Z"></path><path d="M616.7 278.15q-.563-1.816-2.15-2.75-1.6-.95-3.45-.4-1.75.55-2.7 2.2-.8 1.45-.55 3.3.25 1.75 1.3 3.25.85 1.15 2 1.75 1.3.7 2.5.4 1.875-.439 2.7-2.6.04-.01.05-.05.024-.054.05-.1.038-.113.05-.25.054-.057.05-.15.062-.104.1-.25.053-.15.1-.35.446-1.782.1-3.4-.001-.16-.05-.35-.037-.133-.1-.25Z"></path></g></defs><g><use xlink:href="#hair_10_fill_svg__a"></use><use xlink:href="#hair_10_fill_svg__b"></use><use xlink:href="#hair_10_fill_svg__c"></use></g></svg>