<svg xmlns="http://www.w3.org/2000/svg" xmlns:xlink="http://www.w3.org/1999/xlink" preserveAspectRatio="none" viewBox="0 0 1500 1500" fill="#2f1b12"><defs><path d="M709.25 238.25q3.5.75 9.15 1.75 3.25.65 7.25 1.3 0-.6-.05-1.95-.2-1.25-1.9-4.2-2.65-3.9-4.65-6.15-26.1-4.8-36.55-8.1-6.9-2.25-12.25-5.1-10.45-5.6-12.15-6.75 2.45 3.05 6.3 6.95 8.5 8.35 20.45 14.05 10.2 4.85 24.4 8.2m88.55-22.4q-.1-2.15-.2-4.15-2.35 2.15-5.1 4.2-2.75 1.8-5.85 3.35-6.65 3.55-19 7.35-2.6.8-5.05 1.55-1 2.2-1.95 5.75-.6 3.1-.15 5.45 7.15-2.2 11.05-3.65 9.35-3.5 15.45-8.3 6.6-4.9 10.8-11.55m7.75-41.6q.176.154.35.3-1.36-1.442-2.45-2.15 1.1 1 2.1 1.85m-138.15-55.5q-12.4 3.1-19.05 5.6-10.2 3.9-17.1 9.6-7.95 6.6-11.35 16.05-2.945 8.386-1 15.8-.028.038-.05.05-3.15 1.9-5.8 4.6-5 4.95-7.15 11.25-2.354 6.654-5.65 29.1-3.24 22.49 2.4 37.4 5.64 14.909 10.05 19.3 4.455 4.445 10.15 12.85 5.699 8.45 22.35 16.1-1.85-12.65-2.85-25.7l-.3-19.1q.9-5.7 2.45-11.35 1.7-6.5.6-12.4-2.4-5.5-4.4-11.1-7.75-21.3-9.95-44.55 6.55 4.15 12.95 11.55 2.75 2.9 8.1 9.3.45.6.9 1.15 13.55 5.75 32.9 9.3.75-10.05-.25-21 5.3 8.65 9.2 22.6 21.95 2.65 54.9 1.5 16.85-.65 30.5-2.65-.4-17.8-5.05-28.4 7.6 8.3 12.25 26.9l5.9-1.5q1.6-.4 3.1-.85 7.05-2.25 13.1-5.3 3.84-10.984.2-15.95-1.96-2.673-3.55-4.35-.174-.146-.35-.3-1-.85-2.1-1.85 1.09.708 2.45 2.15.226.182.45.35 4.1 3.1 8.3 4.35-3.057-4.502-5.05-19.45-1.939-14.893-18.75-27.8-16.762-12.907-34.65-17.85-17.843-4.948-43.3-3.3-17.6 1.1-45.5 7.9Z" id="hair_09_fill_svg__a"></path><path id="hair_09_fill_svg__b" stroke="#000" stroke-opacity="0" stroke-width="2" stroke-linejoin="round" stroke-linecap="round" fill="none" d="M805.9 174.55q.226.182.45.35 4.1 3.1 8.3 4.35-3.057-4.502-5.025-19.425-1.964-14.918-18.75-27.825-16.787-12.907-34.65-17.85-17.868-4.948-43.325-3.3-17.6 1.1-45.5 7.9-12.4 3.1-19.05 5.6-10.2 3.9-17.1 9.6-7.95 6.6-11.35 16.05-2.945 8.386-1 15.825l-.05.025q-3.15 1.9-5.8 4.6-5 4.95-7.15 11.25-2.354 6.654-5.625 29.125-3.265 22.464 2.375 37.375 5.64 14.909 10.075 19.325 4.43 4.42 10.125 12.85 5.699 8.426 22.35 16.075-1.85-12.65-2.85-25.7l-.3-19.1q.9-5.7 2.45-11.35 1.7-6.5.6-12.4-2.4-5.5-4.4-11.1-7.75-21.3-9.95-44.55 6.55 4.15 12.95 11.55 2.75 2.9 8.1 9.3.45.6.9 1.15 13.55 5.75 32.9 9.3.75-10.05-.25-21 5.3 8.65 9.2 22.6 21.95 2.65 54.9 1.5 16.85-.65 30.5-2.65-.4-17.8-5.05-28.4 7.6 8.3 12.25 26.9l5.9-1.5q1.6-.4 3.1-.85 7.05-2.25 13.1-5.3 3.84-10.984.2-15.95-1.96-2.673-3.55-4.35-.174-.146-.35-.3-1-.85-2.1-1.85 1.09.708 2.45 2.15Zm-8.1 41.3q-4.2 6.65-10.8 11.55-6.1 4.8-15.45 8.3-3.9 1.45-11.05 3.65-.45-2.35.15-5.45.95-3.55 1.95-5.75 2.45-.75 5.05-1.55 12.35-3.8 19-7.35 3.1-1.55 5.85-3.35 2.75-2.05 5.1-4.2.1 2 .2 4.15Zm-127.55-.05q5.35 2.85 12.25 5.1 10.45 3.3 36.55 8.1 2 2.25 4.65 6.15 1.7 2.95 1.9 4.2.05 1.35.05 1.95-4-.65-7.25-1.3-5.65-1-9.15-1.75-14.2-3.35-24.4-8.2-11.95-5.7-20.45-14.05-3.85-3.9-6.3-6.95 1.7 1.15 12.15 6.75Z"></path></defs><g><use xlink:href="#hair_09_fill_svg__a"></use><use xlink:href="#hair_09_fill_svg__b"></use></g></svg>