<svg xmlns="http://www.w3.org/2000/svg" xmlns:xlink="http://www.w3.org/1999/xlink" preserveAspectRatio="none" viewBox="0 0 1500 1500" fill="#2f1b12"><defs><path d="M771.55 228.1q.15-.3.35-.65.7-1.15.7-2.3 0-1.1-1.15-2.35-2.55-1.8-6.9-1.05-3.7.7-5.35 1.75-3.05 2-3.95 4.9-.8 1.55-.65 3.9.45 1.85 1.45 2.6.35.25.55.45 8.75-.9 14.95-7.25Z" id="hair_05_fill_svg__d"></path><path d="M704.55 223.45q-1.8 1.2-1.8 2.3 0 1.2.85 2.35.25.25.5.6 8.35 6.55 19.8 7.35l.8-.5q1.35-.75 1.8-2.5.3-2.35-.65-3.95-1.2-2.9-5.25-4.85-2.35-1.05-7.2-1.95-5.85-.55-8.85 1.15Z" id="hair_05_fill_svg__f"></path><path id="hair_05_fill_svg__b" stroke="#000" stroke-width="3" stroke-linejoin="round" stroke-linecap="round" fill="none" d="M616.275 585.15q2.346 1.419 4.775 2.65.252-1.312.525-2.65"></path><path id="hair_05_fill_svg__c" stroke="#000" stroke-opacity="0" stroke-width="3" stroke-linejoin="round" stroke-linecap="round" fill="none" d="M817.85 210.4q-.3 2.152-.675 4.3m-1.625 8.05q-.17.73-.35 1.45m-7.125 21.875q-.736 1.811-1.525 3.625-4.15-6.45-9.45-12.25-2.25-2.35-4.55-4.7-15.55-14.6-35.25-20.4-7.6-2.25-24.45-4.55-16.1-2.2-24.45-4.9-17.9-5.35-32.1-18.2-7.08-6.343-12.325-13.6 4.593 17.836.775 34.2-1.65 7.7-6.4 18.1-.75 1.45-1.45 3-9.05 18.8-9.7 20.45-7 16.35-8.65 34.4-.55 5.75-.55 11.3 0 1.2.1 2.4-16.751-12.058-25.875-26.3-12.445 4.236-14.8 10.05-3.844 9.477-2.9 17.075.946 7.587 9.275 13.675 8.326 6.094 23.8 6.4 11.52 8.48 13.35 26.65 2.02 30.348-5.85 42.1-.17-4.057-5.5-23.15-.445 4.642-5.025 24.975-1.31 5.813-3.325 11.125-5.044 13.265-14.5 23.4-14.198-13.978-20.075-23.4-.878-1.427-1.575-2.75-2.5-4.75-4.5-9.5l-2.2-5.5q-4.1-10.65-6.2-21.9-.45 1.75-.8 3.55-1.55 7.6-2.5 18.1-3.7-12.05-5.2-24.55-.6-6.75-.8-14.05-.1-1.1-.1-2.2-.15-3-.15-6.2v-1.4q.05-3.45.15-6.65.134-7.05.2-13.45m-.125 0-.2-34.95-.225-29.2q-.04-3.581-.05-6.95.004-22.55 1.7-35.6 2.9-23.25 12.2-39.7 10.6-19.25 31.25-28 10.45-4.5 20.05-4.5 1.1-.05 2.1 0 2.4.1 4.65.55 1.4.2 2.65.55.418.186.8.2.046-.05.1-.1 3.4-3.3 7.3-6.2 6.25-4.65 13.1-8.05 6.2-3.025 12.775-5t13.525-2.9q20.23-2.538 30-2 9.774.544 19.025-.15 9.24-.69 44.375 14.1 13.792 5.807 22.925 15.05m-136.95 32.9q-.087-.127-.175-.25-2.2-3.3-4.15-6.7m147.3-18.725q.434.613.85 1.25M612.225 268.65q-1.455-2.298-2.725-4.65-8.65-18-12.3-31.65-5.2-19.3-2.65-37.15 2.9-20 15.15-32.7 4.95-5.1 10.5-7.65 1.284-.642 2.625-1 5.345-11.487 14.975-20.4M562.675 276.1l.025 1.05q.2 4.75.3 10.2v4.85q.092 8.59 0 18.85"></path><path id="hair_05_fill_svg__e" stroke="#000" stroke-opacity="0" stroke-width="1.5" stroke-linejoin="round" stroke-linecap="round" fill="none" d="M754.6 232.3q-.15-2.35.65-3.9.9-2.9 3.95-4.9 1.65-1.05 5.35-1.75 4.35-.75 6.9 1.05 1.15 1.25 1.15 2.35 0 1.15-.7 2.3-.2.35-.35.65-6.2 6.35-14.95 7.25-.2-.2-.55-.45-1-.75-1.45-2.6Z"></path><path id="hair_05_fill_svg__g" stroke="#000" stroke-opacity="0" stroke-width="1.5" stroke-linejoin="round" stroke-linecap="round" fill="none" d="M726.5 233.05q.3-2.35-.65-3.95-1.2-2.9-5.25-4.85-2.35-1.05-7.2-1.95-5.85-.55-8.85 1.15-1.8 1.2-1.8 2.3 0 1.2.85 2.35.25.25.5.6 8.35 6.55 19.8 7.35l.8-.5q1.35-.75 1.8-2.5Z"></path><g id="hair_05_fill_svg__a"><path d="M621.55 585.15h-5.3q2.371 1.419 4.8 2.65.252-1.312.5-2.65M563 292.2v-4.85q-.1-5.45-.3-10.2l-.05-1.05.2 34.95h.15q.092-10.26 0-18.85Z"></path><path d="M627.6 132.15q-9.6 0-20.05 4.5-20.65 8.75-31.25 28-9.3 16.45-12.2 39.7-1.696 13.05-1.7 35.6.01 3.369.05 6.95l.2 29.2.05 1.05q.2 4.75.3 10.2v4.85q.092 8.59 0 18.85-.066 6.4-.2 13.45-.1 3.2-.15 6.65v1.4q0 3.2.15 6.2 0 1.1.1 2.2.2 7.3.8 14.05 1.5 12.5 5.2 24.55.95-10.5 2.5-18.1.35-1.8.8-3.55 2.1 11.25 6.2 21.9l2.2 5.5q2 4.75 4.5 9.5.697 1.323 1.55 2.75 5.902 9.422 20.1 23.4 9.456-10.135 14.5-23.4 2.015-5.312 3.3-11.15 4.605-20.308 5.05-24.95 5.33 19.093 5.5 23.15 7.87-11.752 5.85-42.1-1.83-18.17-13.35-26.65-15.474-.306-23.8-6.4-8.33-6.088-9.3-13.7-.92-7.573 2.9-17.05 2.38-5.814 14.8-10.05-1.43-2.298-2.7-4.65-8.65-18-12.3-31.65-5.2-19.3-2.65-37.15 2.9-20 15.15-32.7 4.95-5.1 10.5-7.65 1.284-.642 2.6-1 5.37-11.487 15-20.4-.382-.014-.8-.2-1.25-.35-2.65-.55-2.25-.45-4.65-.55-1-.05-2.1 0m184.7 19.7q-.05-.65-.45-1.25-4.724-6.83-10.95-12.4-9.108-9.243-22.9-15.05-35.135-14.79-44.4-14.1-9.226.694-19 .15-9.77-.538-30 2-6.95.925-13.55 2.9-6.55 1.975-12.75 5-6.85 3.4-13.1 8.05-3.9 2.9-7.3 6.2-.054.05-.1.1-9.63 8.913-15 20.4-1.316.358-2.6 1-5.55 2.55-10.5 7.65-12.25 12.7-15.15 32.7-2.55 17.85 2.65 37.15Q600.85 246 609.5 264q1.27 2.352 2.7 4.65 9.149 14.242 25.9 26.3-.1-1.2-.1-2.4 0-5.55.55-11.3 1.65-18.05 8.65-34.4.65-1.65 9.7-20.45.7-1.55 1.45-3 4.75-10.4 6.4-18.1 3.818-16.364-.8-34.2-.062-.127-.15-.25-2.2-3.3-4.15-6.7 1.95 3.4 4.15 6.7.088.123.15.25 5.27 7.257 12.35 13.6 14.2 12.85 32.1 18.2 8.35 2.7 24.45 4.9 16.85 2.3 24.45 4.55 19.7 5.8 35.25 20.4 2.3 2.35 4.55 4.7 5.3 5.8 9.45 12.25.79-1.814 1.5-3.65.078.142.15.25.25.1.45-.2l.2-.55q0-.1.4-1l3.05-6.05 2.15-8.45q.4-1.7.45-2.65l.05-1.1q.4-1.35.4-1.55 0-.344-.15-.55.18-.72.35-1.45l1.8-5.9q.496-1.653-.2-2.15.4-2.148.7-4.3.38-1.849.7-3.9.4-2.7 1-8.2l1.25-11.05q.4-3.9.3-5.8-.1-2.05-1.15-6.7-1.9-7.7-3.2-11.45-2.1-6.25-5-10.65.55-.05.55-.8m7.85 28 .1.1q.15.15.15.6v.35q-.2.1-.3.2-.1-.05-.1-.25v-1.15h.1l.05.15m-13.2-34.45 1.15 1.2q-.174.05-.3.05l-.85-1.25Z"></path></g></defs><g><use xlink:href="#hair_05_fill_svg__a"></use><use xlink:href="#hair_05_fill_svg__b"></use><use xlink:href="#hair_05_fill_svg__c"></use></g><g><use xlink:href="#hair_05_fill_svg__d"></use><use xlink:href="#hair_05_fill_svg__e"></use></g><g><use xlink:href="#hair_05_fill_svg__f"></use><use xlink:href="#hair_05_fill_svg__g"></use></g></svg>