<svg xmlns="http://www.w3.org/2000/svg" xmlns:xlink="http://www.w3.org/1999/xlink" preserveAspectRatio="none" viewBox="0 0 1500 1500" fill="#2f1b12"><defs><path d="M700.65 102.55q-.8-.1-1.45-.2-3.75-.5-7.55-.7-8.25-.1-16.05 1.3-14.8 2.3-28.3 9.6-13.3 7-24 18.1-20.95 21.1-31.5 45.3-3.45 8.15-5.7 16.25-.3.95-.4 1.95-2.25 9-3 17.95-.6 8.4-.3 16.75.2 3.8.3 7.7.1 3.75.3 7.55.55 14.9-.6 29.65-.1 1-.2 1.95-.1.7-.1 1.55-.3 2.75-.6 5.55.346.168 1.05.45l-.05.45q-.1.1-.1.3-.1.8-.2 1.75-.3 1.75-.55 3.7l-.4 2.25q-.1.45-.1 1.05-.3 1.75-.6 3.4-.9 3.9-2.05 8-3.15 10.95-11.45 32.95-15 39-14.9 81.45v1.6q.4 21.75 6.1 42.55 5.95 21.9 18.6 40.35 3 4.5 6.35 8.65-4.2-16.1-4.3-32.75 6.15 19.65 19 36.85 3.855 5.199 8.7 9.85.563.963 1.35 1.75l.15.15q.1.15.2.2.05.15.15.25.1.05.2.15.15.1.2.2.1.05.2.15.05.05.15.1l.2.3.6 1.1q.3.45.65.9.35.5.75.95.3.45.65.85.35.35.75.65.05 0 .05.05.2.15.35.3l.3.3q.2.1.35.2.2.1.35.2.2.05.35.15.2.1.45.25.05.05.1.05.05.05.1.05.05.05.1.05l.05.05q.05 0 .1.05.05 0 .1.05h.1q.05.05.1.05.05.05.1.05.05.05.1.05.1.1.25.2.128.085.25.15 5.421 5.686 12.75 9.35 3.798 1.899 7.8 3.1.123.181.25.35.15.15.3.25.05.05.1.05l.05.05q.05 0 .1.05.05 0 .05.05.05 0 .1.05.05 0 .1.05l.05.05q.05 0 .1.05h.1q.05 0 .1.05.05 0 .15.05.1.05.15.05.1.05.15.05.1.05.2.05t.15.05q.1 0 .25.05l.3.1q.15.1.3.1.05 0 .1.05h.1q.05.05.1.05l.05.05h.2q.05.05.1.05t.1.05h.1q.05 0 .1.05.05 0 .1.05h.2q.05.05.1.05H641.55q.05.05.1.05h.05q.05 0 .15.05h.25q.05.05.1.05t.1.05h.1q.05 0 .1.05h.4q.05 0 .1.05h.2q.05.05.1.05h.1q.05 0 .1.05.05 0 .1.05h.15q.05.05.1.05h.1q0 .05.05.05h.05q.05 0 .1.05.05 0 .1.05h.1q.05.05.1.05t.1.05H644.7q.05.05.1.05h.1q.05.05.1.05h.2q.05 0 .1.05.05 0 .05.05h.2q.05 0 .1.05H645.95l.05.05h.1q.05 0 .1.05h.2q.05.05.1.05h.1q0 .05.05.05h.1q.1 0 .15.05h.45q.15.05.35.05.3.05.6.05H652.1q.1-.05.2-.05t.2-.05H654.45q.2 0 .4-.05t.35-.1H656.1q.1 0 .25-.05h.2q.05-.05.1-.05h3.25q.35-.05.7-.15h.1q.1-.05.15-.05h.1q.05 0 .1-.05h.2q.05 0 .1-.05h.2q.05 0 .1-.05h.1q.05-.05.1-.05H662.15q.05 0 .1-.05h.2l.05-.05H663.85q.15 0 .25-.1.15 0 .25-.05.05-.05.1-.05h.25q0-.05.05-.05h.1q.05-.05.1-.05h.1q.05 0 .1-.05h.1q.05-.05.1-.05h.1q.05 0 .1-.05h.15q.05 0 .1-.05h.2q.032 0 .05-.05.215.15.45.15h.85q.4 0 .8-.1t.75-.25q.4-.1.7-.3h.1q.05-.05.1-.05t.1-.05.1-.05l.05-.05q.05 0 .1-.05.15 0 .25-.05l.2-.1q.1 0 .2-.05l.2-.1q.05-.05.15-.1l.5-.1q.5-.15.95-.25.55-.15 1.15-.3.55-.1 1.15-.25.036-.007.05-.05.38-.019.65-.25.104-.066.2-.15.05 0 .1-.05 0-.05.05-.05 0-.05.05-.1v-.1l.05-.05q0-.05.05-.1h.5q.7 0 1.4.05t1.05-.5q.4-.6 0-1.15-.15-.2-.4-.25-.8-.2-1.6-.2-.785.033-1.6.05.56-.337 1-.7-2.23.024-4.4-1.1-.816-.422-1.55-.95-.465-.138-.95-.3-14.2-5-20.3-17.95-5.3-11.6-4.15-25.55 1.1-13.95 12.6-30.5 11.45-16.55 15.05-27.55.57-1.765 1.1-3.5.057-.014.1-.1.05-.1.1-.15.05-.1.1-.25l.1-.2.1-.2q0-.1.05-.15v-.1q.05-.05.1-.15.05-.05.05-.1.05 0 .05-.05.05-.05.05-.1.05-.05.05-.1t.05-.1v-.05q.05-.05.05-.1t.05-.1l.05-.05v-.1q.05-.05.05-.1l.05-.05q0-.05.05-.1 0-.05.05-.1 0-.05.05-.1 0-.05.05-.1v-.05q.05-.05.05-.1.05-.05.05-.1t.05-.1v-.15l.05-.05q.05-.05.05-.1t.05-.05q0-.05.05-.1v-.1q.05-.05.05-.1v-.05q.05-.05.05-.15v-.05h.05q0-.05.05-.1v-.1q.05-.05.05-.1v-.1q.05-.05.05-.1t.05-.1l.1-.2.1-.3q.05-.15.05-.3l.1-.3q.05-.15.05-.3l.1-.3q0-.05.05-.1v-.1q.05-.05.05-.1v-.1q.05-.05.05-.1v-.1q0-.05.05-.1 0-.1.05-.2t.05-.2.05-.2.05-.2l.1-.2v-.15q.05-.05.05-.1.05-.05.05-.1.05-.05.05-.1v-.05q.05-.05.05-.1l.1-.2q.1-.1.2-.25t.15-.3q0-.2.1-.35 0-.1.1-.3l.1-.4.05-.05q.1-.2.15-.4.05-.25.15-.5.1-.25.15-.5 0-.25.05-.45v-.4q.1-.2.15-.5.05-.4.05-.85 0-.364-.1-.7.2-.645.4-1.3 2.55-8.5 1.55-18.7-1.05-10.2-2.95-15.75-1.9-5.55-9.35-14.75-7.5-9.2-12.05-18.4-4.6-9.25-5-20.05-.4-10.85-.6-17.35-.02-.426-.05-.9.178-.462.3-.95.054-.197.1-.4l.05-.05q.05 0 .1-.05l.1-.1.05-.05q0-.05.05-.05 0-.05.05-.1l.05-.05q.05-.1.1-.15.05-.1.05-.15l.1-.2q.05-.1.05-.2.05-.1.05-.2v-.1q.05-.05.05-.1v-.1q.05-.1.05-.2v-.5q0-.05.05-.1 0-.05.05-.1v-.1q.05-.05.05-.1v-.25q0-.05.05-.1v-.2q.05-.05.05-.1.05-.1.05-.2.1-.25.15-.55.05-.3.05-.55-.032-.19-.1-.35.058-.08.1-.15.25-.45.5-.85.3-.5.5-1l.4-1.1q.15-.6.25-1.2.1-.55.15-1.1.05-.6.05-1.15.038-.151.05-.3.942-.09 1.85-.2.1-.75.2-1.45.3-1.75.5-3.3.1-.85.2-1.65.1-.65.2-1.45 0-.3.1-.6.1-1.45.2-2.8.1-1 .1-1.95 0-.6.1-1.15.15-4.7 0-9.35-.2-2.45-.4-5.05 0-.6-.1-1.35-.2-3.25-.4-6.55-.3-5.7-.4-11.35 0-5.75.2-11.4.1-2.8.3-5.6.2-2.85.5-5.65.347-3.906.95-7.65 10.29-4.513 21.1-6.9 3.75.5 8 1.8 2.55.85 6.05 2.35 3.2 1.35 7.4 3.25 2.25 1 4.6 2.05 3.6 1.5 7.4 3.05.15.05.45.25 2.35.95 4.8 1.8 1.6.75 3.4 1.25 2.4.35 4.85.85-.3-2.45-1.15-5.8l-.55-1.4q-.4-.35-.95-.65l-1.7-.85-3.2-.85-1.05-.5-9.2-3.2q-1.3-.55-2.6-1.05-6.8-2.7-12.5-4.25-5.95-1.7-10.75-1.95-6.35.65-12.85 3.65-4.47 1.977-11.45 6.55.05-.263.1-.55.7-3.4 1.55-6.8l.25-1q.65-.555 1.3-1.1-.44-.166-.85-.4.73-2.462 1.6-4.9 2.15-5.45 6.4-13.8 4.2-8.4 8.9-14.55 4.65-6.2 8.75-9.7.556-.526 1.1-1.05 3.257-2.045 7-3.5.95-.4 1.85-.7 12.5-3.8 25.65-2.4.75 0 1.65.1 15.1.85 19.6.65 2.05-.1 5.85.25 3.75.3 7.75.3t7.7.55q3.65.45 3.65.5.1-.1 6.45 1.85-.2-.4.3-1.05.1-.2.3-.4 2.1-2.25 1.2-4.8-.9-2.55-2.45-4.75l.15.2q1.55 2.2 2.45 4.75.9 2.55-1.2 4.8-.2.2-.3.4-.5.65-.3 1.05v.05q2.05 1 3.9 2.05.7.4 1.35.8l.05.05q0 .05.1.1.1 0 .3.3.15.25.55.45.35.2 3.1 4.35 2.75 4.15 4.5 7.45t3.5 8.05q1.7 4.7 2.9 9 1.19 4.263 1.45 15.1-1.79-.745-3.6-1.1-3.25.3-7.45 1.9-3.95 1.4-8.85 4.05-.9.5-1.85 1.05l-6.5 3.1-.45.3-1.2.45q-.3.1-.5.2l-.9.3-1.2.85q-.35.3-.75.65l-.45 1.4q-.9 3.25-1.35 5.7 1.65-.4 3.3-.75 1.2-.5 2.4-1.15 1.75-.85 3.4-1.8.15-.2.35-.3 2.65-1.4 5.25-2.9 1.65-.95 3.4-2 2.95-1.9 5.25-3.1 2.5-1.5 4.25-2.25 3-1.35 5.6-1.7.925.308 1.85.65v16.3l-1.95 22.2q.664.896 1.25 1-.307.129-.65.25-.452 28.46-1.2 50.6.048.206.1.4.55 1.85.55 5.15.05 4.45-.35 10.05-.5 5.95-.55 7-.1 2.8.2 8.5.2 4.05-.75 5.95-.422.816-1.1 1.45-.894 13.633-2.05 22.55-3.2 24.55-16.15 49.8-21.25 41.45 10.95 59.85 8.5 7.7 8.1 18.1-.4 10.4-8.5 25.05-8.2 14.65-31.75 1.75 12.1 18.15 24.1 17.5 12-.7 19.55-6.25 7.25-5.05 11.95-13.6 4.2-7.8 5.6-17.3 2.45-15.5-3.75-36.4-.1-.55-5.35-16.9-3.35-10.3-4.65-17.3-.55-3.05-.75-5.85-.1-2.15.1-4.3.1-3.1.6-6.1 1.05-7.4 2.9-14.6.8-2.9 1.7-5.8 1.15-3.7 2.4-7.3.2-.8.5-1.45 2.75-7.9 4.9-15.6 1.95-7 3.15-13.7.4-2.6.8-5.05.55-5.25.45-12.45 0-7.3-.55-16.6-.5-7-1.4-15.1-.1-.2-.1-.45-.5-3.15-.95-6.55 0-.3-.1-.65-1.4-9.95-2.25-18.5-.1-1.15-.2-2.25 0-.55-.1-1.15 0-.8-.1-1.45v-.5q-.1-.65-.1-1.45-.1-.95-.2-2.05-.1-1.35-.1-2.6-.1-.6-.1-1.1-.2-1.85-.3-3.7-.1-.85 0-1.85V263.4q0-.9.1-1.75 0-2.35.2-4.8.1-2.2.4-4.55.1-1.65.3-3.3.1-1 .2-2.15-.207.209-.45.4.156-1.25.3-2.55.75-6.15 1.25-11 1.35-12.05 1.95-17 .4-2.95.4-3.4 1.25-17.6-2.05-31.5-1.2-5.05-3.05-9.35-.2-.5-.5-.95-.45-1.2-.95-2.15-1.2-2.25-2.35-4.4-4.4-7.95-12.75-12.15-5.65-3.3-11.75-5.45-.65-5.35-2.05-10.5-2.35-6.4-9.2-11.05-4.6-3.15-12.05-6.25-.85-.2-1.75-.6-15.65-6.2-27.4-10-15.1-4.65-28.4-6.4M795 255.05l.1-1.2v.35q-.05.4-.05.8l-.05.05Z" id="a_hair_34_fill_svg__a"></path></defs><use xlink:href="#a_hair_34_fill_svg__a"></use></svg>