<svg xmlns="http://www.w3.org/2000/svg" xmlns:xlink="http://www.w3.org/1999/xlink" preserveAspectRatio="none" viewBox="0 0 1500 1500" fill="#2f1b12"><defs><path id="a_hair_34_outline_svg__e" d="M677.75 179.6q7.55-7.1 10.25-8.2 2.747-1.05 10.15-2.5 7.406-1.406 16.15-1.7 8.8-.285 16.3-.2 7.547.13 13.9.2 6.395.117 18.2 3.55 11.858 3.446 30.4 22.35-28.74-31.135-28.15-31.15 1.328.027 2.5.1 2.9.2 5.65.9 2.1.65 4.25 1.75.1 0 .2.1.2.1-7.5-1.7l-5.1-1.15q-.59.015 28.15 31.15-.11-.492-.2-.6-.25-.463-.8-2.4-5.58-15.725-13.8-22.9v-.05q.898-1.604.7-2.05-.95-2.25-2.1-4.6-1.5-2.45-3.05-4.7l-2.7-3.7q-3.15-3.1-7.9-4.85-6.15-2.45-14.25-2.45-15.75 0-31.15 6.15-14.6 5.55-27.4 15.7-2 1.75-12.7 12.95m115.4 13.55-.05-.05.05.05m-14.85-26v.05-.05Z"></path><path id="a_hair_34_outline_svg__a" stroke="#000" stroke-width="3" stroke-linejoin="round" stroke-linecap="round" fill="none" d="M799.75 414.4q.695-6.547 2.625-13.25 1.93-6.705 2.575-9.05.636-2.34 1.775-6.725 1.14-4.384 3.225-11.95 2.095-7.572 3.35-14.325.4-2.6.8-5.05 2.35-16.55-2.05-52-1.55-12.85-2.05-23.4-.1-.95-.1-1.95-.2-2.9-.2-5.75v-3.8q-.1-.65 0-1.35v-2.05q0-1.15.1-2.35 0-2.3.2-4.75.1-2.25.4-4.6.3-3.3.7-6.9.75-6.15 1.25-11 1.35-12.1 1.95-17.05.4-2.9.4-3.4 1.25-17.65-2.05-31.55-1.2-5.1-3.05-9.35-.2-.5-.45-1-.5-1.15-1-2.15-1.15-2.2-2.35-4.35-4.35-8-12.65-12.2-5.65-3.3-11.7-5.45-.65-5.35-2.05-10.5-2.3-6.45-9.15-11.1-4.55-3.15-11.95-6.25-.9-.2-1.75-.6-15.6-6.2-27.3-10-15-4.7-28.25-6.45-.8-.1-1.45-.2-3.7-.5-7.5-.65-8.2-.1-16 1.25-14.7 2.35-28.15 9.65-13.25 7-23.85 18.1-20.85 21.15-31.4 45.4-3.4 8.15-5.65 16.25-.25 1-.35 1.95-2.25 9.05-3.05 18-.55 8.4-.3 16.8.2 3.8.3 7.65.1 3.8.3 7.6.4 10.65 0 21.25-.04.582-.075 1.15-.134 1.86-.275 3.7-.12 1.834-.25 3.65l-.2 1.9q-.05.7-.05 1.6-.3 2.7-.6 5.55-.1.1-.1.3-.1.75-.2 1.75-.3 1.75-.6 3.7-.45 2.7-.45 3.3-.3 1.75-.6 3.4-.9 3.9-2.05 8-3.1 11-11.4 33-14.9 39.05-14.8 81.65V420q.4 21.8 6.05 42.65 5.95 21.9 18.5 40.4 3 4.5 6.3 8.7-4.15-16.2-4.25-32.85 6.15 19.7 18.9 36.95 15.3 20.75 29.3 28.4m-43.5-273.6q-.172 1.914-.35 3.8-.45 5.45-1.15 11.05-.3 1.75-.5 3.6"></path><path id="a_hair_34_outline_svg__b" stroke="#000" stroke-width="1.5" stroke-linejoin="round" stroke-linecap="round" fill="none" d="M808.05 477.75q-10.748-27.7-11.4-36.15-.65-8.45 3.1-27.2"></path><path id="a_hair_34_outline_svg__c" stroke="#000" stroke-width="3" stroke-linejoin="round" stroke-linecap="round" fill="none" d="M810.9 246.6q-.1 1.2-.2 2.15-.2 1.65-.3 3.3-.3 2.35-.4 4.6-.2 2.45-.2 4.75-.1.9-.1 1.75v2.15q-.1 1 0 1.85.1 1.85.3 3.7 0 .5.1 1.1 0 1.25.1 2.6.1 1.1.2 2.05 0 .8.1 1.45v.5q.1.7.1 1.45.1.6.1 1.2.1 1.05.2 2.25.85 8.55 2.25 18.5.05.4.05.65.5 3.45 1 6.55 0 .3.1.5.85 8.05 1.35 15.1.6 9.35.6 16.65.1 7.2-.5 12.45-.4 2.45-.75 5.05-1.2 6.75-3.15 13.75-2.15 7.7-4.85 15.6-.3.65-.5 1.45-1.25 3.6-2.45 7.3-.85 2.9-1.65 5.85-1.85 7.2-2.9 14.6-.5 3-.6 6.15-.2 2.15-.1 4.3.2 2.8.8 5.8 1.25 7.05 4.55 17.35 5.25 16.35 5.35 16.95 6.15 20.95 3.7 36.45-1.35 9.55-5.55 17.3-4.65 8.6-11.85 13.65"></path><path id="a_hair_34_outline_svg__d" stroke="#000" stroke-width="1.5" stroke-linejoin="round" stroke-linecap="round" fill="none" d="M795.8 535.4q-7.501 5.555-19.8 5.375-12.298-.191-23.2-16.575 16.793 8.634 24.75 4.025 7.955-4.613 13.9-21.85 5.948-17.236-6.3-27.225-12.258-10-15.45-14.35-1.394-2.134-2.325-3.7-.978-1.824-1.65-3.625-.483-1.358-.8-2.7-1.778-7.534 3.225-19.95 4.994-12.427 12.475-31.2 7.494-18.769 9.975-38.875 2.486-20.109 3.3-27.05.804-6.938.875-24.025.079-17.088-.425-54.925"></path><path id="a_hair_34_outline_svg__f" stroke="#000" stroke-width="1.5" stroke-linejoin="round" stroke-linecap="round" fill="none" d="M810.4 250.3q.2-2.55.5-5.25.75-6.15 1.25-11 1.35-12.1 1.95-17.05.4-2.95.4-3.4 1.25-17.65-2.05-31.6-1.2-5.05-3.05-9.35-.2-.45-.45-.95-.5-1.15-1-2.15-1.15-2.25-2.35-4.4-4.35-7.95-12.65-12.15-5.65-3.3-11.7-5.45-.65-5.35-2.05-10.55-2.3-6.4-9.15-11.1-4.55-3.1-11.95-6.2-.9-.2-1.8-.6-15.55-6.25-27.25-10.05-15-4.65-28.25-6.4-.8-.1-1.45-.2-3.7-.5-7.5-.7-8.2-.1-16 1.3-14.7 2.3-28.15 9.6-13.25 7.05-23.85 18.15-20.85 21.15-31.4 45.4-3.4 8.15-5.65 16.25-.25.95-.35 1.95-2.25 9.05-3.05 18-.55 8.4-.3 16.75.2 3.8.3 7.7.1 3.8.3 7.6.6 14.9-.6 29.7-.1 1-.2 1.95-.05.7-.05 1.55-.3 2.75-.6 5.55-.1.1-.1.3-.1.8-.2 1.75-.6 3.45-.9 8.05m212.075-100.175q-18.567-18.929-30.4-22.375-11.83-3.433-18.2-3.525-6.378-.095-13.9-.2-7.524-.11-16.3.175-8.769.294-16.175 1.725-7.403 1.425-10.125 2.5-2.725 1.075-10.275 8.175-5.304 6.403-9.2 17.7-1.85 5.45-4 10.9-.95 2.85-1.75 5.65-.1.1-.1.3-.2.7-.4 1.5-.85 3.4-1.55 6.8-.75 4.3-1.15 8.75-.3 2.85-.5 5.65-.2 2.85-.3 5.65-.2 5.65-.2 11.4.1 5.65.4 11.4.2 3.3.4 6.55.1.75.1 1.35.2 2.6.4 5.05.2 4.7 0 9.35-.1.6-.1 1.15 0 1-.1 1.95-.1 1.4-.2 2.85-.1.3-.1.6-.1.75-.2 1.45-.1.75-.2 1.65-.2 1.55-.5 3.3-.1.7-.15 1.45-.4 1.7-.7 3.25-.1.55-.2 1.15m20.3-126.8q10.7-11.2 12.7-12.95 12.8-10.15 27.4-15.7 15.4-6.15 31.15-6.15 8.1 0 14.25 2.45 4.75 1.75 7.9 4.85l2.7 3.7q1.55 2.25 3.05 4.7 1.15 2.35 2.1 4.6.198.446-.675 2.075l.025.025.3.3q5.75 5.15 9.35 12 1.4 2.5 2.45 5.25.8 2.25 1.45 4.6.11.413.225.775.524 1.912.8 2.375.065.108.2.6l.025.05-.025-.025q.552 2.043 2.2 10.375 2.067 10.448 1.5 24.3-.572 13.85-1.125 19.5-.2 1.05-.3 2.3-.2 1.2-.3 2.35-.1.2-.1.4-.1.8-.2 1.85v.4q-.1.4-.1.75-.1.2-.1.4-.1.9-.2 1.65-.1.6-.1 1.3m-29.35-96.725q1.825.387 5.125 1.15 7.675 1.775 7.475 1.675-.1-.1-.2-.1-2.15-1.1-4.25-1.75-2.75-.7-5.65-.9-1.172-.073-2.5-.075-.59-.01 28.175 31.15v-.025M778.3 167.2v-.025h.025l-.025.025q8.22 7.175 13.825 22.925"></path><path id="a_hair_34_outline_svg__g" stroke="#000" stroke-width="1.5" stroke-linejoin="round" stroke-linecap="round" fill="none" d="m718.8 223.6 2.45.65 1.7.85q.55.3.95.65l.55 1.4q.85 3.35 1.15 5.8-2.45-.5-4.85-.85-1.8-.5-3.4-1.25-2.45-.85-4.8-1.8-.3-.2-.45-.25-3.8-1.55-7.4-3.05-2.35-1.05-4.6-2.05-4.2-1.9-7.4-3.25-3.5-1.5-6.05-2.35-4.25-1.3-8-1.8-12 2.65-23.35 7.95 8.6-5.85 13.8-8.15 6.5-3 12.85-3.65 4.8.25 10.75 1.95 5.7 1.55 12.5 4.25 1.3.5 2.6 1.05l9.2 3.2.35.1.6.3.1.1h.15l.6.2-.75-.2-.4-.2-.65-.3m.35.1.3.2.3.1"></path><path id="a_hair_34_outline_svg__h" stroke="#000" stroke-width="1.5" stroke-linejoin="round" stroke-linecap="round" fill="none" d="m766.1 223.6-.35.15q-.3.1-.5.2l-.9.3-1.2.85q-.35.3-.75.65l-.45 1.4q-.9 3.25-1.35 5.7 1.65-.4 3.3-.75 1.2-.5 2.4-1.15 1.75-.85 3.4-1.8.15-.2.35-.3 2.65-1.4 5.25-2.9 1.65-.95 3.4-2 2.95-1.9 5.25-3.1 2.5-1.5 4.25-2.25 3-1.35 5.6-1.7 1.65.55 3.3 1.3v-3.5q-2.5-1.3-5.05-1.8-3.25.3-7.45 1.9-3.95 1.4-8.85 4.05-.9.5-1.85 1.05l-6.5 3.1-.45.3-.3.1-.55.2.35-.2h.2l.1-.1.45-.2.2-.1m-.65.3h.2l.25-.2"></path><path id="a_hair_34_outline_svg__i" stroke="#000" stroke-width="1.5" stroke-linejoin="round" stroke-linecap="round" fill="none" d="M739.7 145.2q-2.35.15-4.6.55-2.2.3-4.35.75-7.45 1.4-14.85 4.35-14.55 5.55-27.3 15.75-2.05 1.7-3.95 3.5-4.05 3.5-7.85 7.5-8.2 8.4-12.1 19.65-1.9 5.45-3.95 10.95-.95 2.8-1.8 5.65-.1.1-.1.3-.2.65-.35 1.4-.85 3.4-1.55 6.8-.85 4.35-1.2 8.8-.3 2.8-.5 5.65-.15 2.85-.25 5.65-.2 5.7-.2 11.35.1 5.7.35 11.45.2 3.3.4 6.5.1.75.1 1.4.2 2.55.35 5.05.2 4.7 0 9.35-.05.55-.05 1.2 0 .95-.1 1.9-.1 1.4-.2 2.85-.1.25-.1.55l-.2 1.5q-.1.75-.2 1.6-.15 1.6-.45 3.3-.1.8-.2 1.55-.35 1.6-.65 3.2-.1.35-.2.85l-.75 2.75q-.435 3.76-1.525 6.975-1.083 3.213-1.325 8.2-.254 4.986 1.025 12.625 1.273 7.645 4.275 16.825 3.007 9.182 12.7 18.875 9.697 9.682 11.525 19.3 1.821 9.618.375 24.975-1.44 15.367-10.875 32.125-9.438 16.76-14.375 23.95-8.733 12.672-10.325 26.45-1.588 13.783 5.85 26.65 7.43 12.855 21.575 17.85 3.85 1.3 7.55 1.8.85.1 1.7.1-3.6 1.7-7.35 2.9-11.05 3.8-21.95 3.4-10.75-.45-20.1-5.2-9.35-4.7-15.6-12.75-6.9-8.85-10.1-22.1-.65-3-1.15-6.1-.45-3.4-.75-6.8-.65-9-1.6-17.8-.85-7.9-2.85-15.65-2.55-9.35-6.6-16.75-.25-.55-.55-1.1-.75-1.25-1.5-2.45-.7-.85-1.15-1.8-.2-.2-.3-.4-1-1.6-1.95-3.3-9.2-15.75-11.65-30.9-3.1-19.15 3.05-43.25.25-1.3.75-2.65 2.9-10.75 9.25-26.8.85-2.2 1.7-4.45.2-.55.45-1.15 1.55-3.6 3.35-7.55m58.45-14.05-2.65 8.65q-.1.2-.1.3-2.25 6.8-5.2 13.3-1.5 3.4-3.3 6.8-2.75 5.4-5.2 11-2.9 7.15-5.1 13.95-.45 1.35-.85 2.65-5 16.8-5.75 32.95-.3 5.3-.1 10.5"></path></defs><g><use xlink:href="#a_hair_34_outline_svg__a"></use><use xlink:href="#a_hair_34_outline_svg__b"></use></g><g><use xlink:href="#a_hair_34_outline_svg__c"></use><use xlink:href="#a_hair_34_outline_svg__d"></use></g><g><use xlink:href="#a_hair_34_outline_svg__e"></use><use xlink:href="#a_hair_34_outline_svg__f"></use></g><use xlink:href="#a_hair_34_outline_svg__g"></use><use xlink:href="#a_hair_34_outline_svg__h"></use><use xlink:href="#a_hair_34_outline_svg__i"></use></svg>