<svg xmlns="http://www.w3.org/2000/svg" xmlns:xlink="http://www.w3.org/1999/xlink" preserveAspectRatio="none" viewBox="0 0 1500 1500" fill="#2f1b12"><defs><path id="hair_03_outline_svg__a" d="M636.75 124.95q1.95-1.15 4.15-2.1 15.25-7.5 42.15-13.7 8.1-1.9 16.6-3.15 17.35-2.65 33.1-1.65 22.702 1.197 38.6 8.975 15.885 7.78 21.575 11.45 5.7 3.671 15.925 15 10.218 11.33 12.4 30.3 2.18 18.967-4.2 28.675-6.38 9.718-8 12.5-1.75-8.4-5.5-16.9-7.15-16.15-18.4-23.9-1.45-.95-2.2-1.35-11.25-6.5-34.65-7.15-10.1-.35-21.1-.2-15.6.15-30.9 1.2-10.75.75-18.15 2.35-9.9 3.45-16.4 8.6-6.6 5.05-12.3 14.15-5.95 9.25-11.5 33-5.75 24.25-4.25 58.8.45 8.35 6.75 24.45-6.25-7.35-11.55-11.2-7.55-5.65-14.95-6.05-4.05-.2-15.75 1.05-8.5.9-11.7-.8-6.8-3.5-10.9-7.25-6.8-6.15-7.9-13.55-2.55-16.9.95-32.05 3.35-14.2 10.25-31.9-3.6-1.3-6.55-3.7-7.4-5.75-10.95-15.35-3.35-9.05-2.45-19.15 1.25-15.55 11.5-28.4 10.2-12.9 22.45-17.4 12.35-4.75 28.85-1.25 9.15 1.8 15 7.65-12.95 6.9-22.55 15.65-4.35 3.9-7.95 8.45-6.6 8-12.25 18.65-2.95 5.65-7 15.25-2.3 5.2-6.75 16.35-.5 1.15-1.35 3.25m231.9 30.95h-.2q-12.3-1.3-29 5.65-17.8 7.55-20.35 9-1.15-3.3 4.25-7.7 5.25-4.25 9.9-6.35 4.35-2 11.45-3.7 6.9-1.7 12.95-.85 5.65.7 10.8 3.8l.2.15Zm-117.2-6.8q19.3 4.2 34.1 16.3 2.2 1.95 1.45 3.3-.3.85-3.05.3-2.9-.5-7.95-2.55-11.7-4.4-26.4-10.55-16.1-6.5-32.5-5.7 18.95-4.3 34.35-1.1Z" fill="none" stroke="#000" stroke-width="2" stroke-linejoin="round" stroke-linecap="round"></path></defs><use xlink:href="#hair_03_outline_svg__a"></use></svg>