<svg xmlns="http://www.w3.org/2000/svg" xmlns:xlink="http://www.w3.org/1999/xlink" preserveAspectRatio="none" viewBox="0 0 1500 1500" fill="#2f1b12"><defs><g id="hair_02_fill_svg__a"><path d="M775.6 193.85q-7.4-1.3-14.2 1.35-7.25 2.7-11 8.65-.9 1.65-.85 2.5.55 1.5 2.5 1.6 1.45-.1 3.05-.75 9.75-4 20.65-4.2 10.7-.25 21.15 2.8-9.95-10.2-21.3-11.95m-81-.45q-6.15-.4-11.35.15-12.7 1.55-22.9 8.9 3.65-.8 7.95-.95 5.75-.25 16.6.8 8.5.95 25.5 2.6 1.05.25 2.05-.1 1.1-.3 1.35-1.1.35-1-.55-2.2-5.2-7.3-18.65-8.1Z"></path><path d="M655.3 82.15q-.75-.95-1.45-1.8-9.35-11.1-31.05-15.55-21.65-4.55-39.45 4.3-17.7 8.65-27.85 28.75-9.95 19.95-12.55 41.65-2.55 21.75.3 46 2.9 24.2 2.2 46.35-.75 22.1-8.75 42.95-8 20.8-8.6 31.2-.5 10.35 5.65 19.6 4.25 6.25 11.25 7.25-.4-.8-.7-1.85-2-7.2 2.6-11.65 4.45-4.55 14.25-9.2 9.8-4.65 17.9-11.6 8.05-7 13.3-20.5 5.2-13.7 7.7-31.75.75-5.05 1.45-9.55-.713 15.48 10.15 21.5l2 .2q2.4.45 4.7 1.35 7.3 3.05 10.25 10.25 3 7.35 4.75 21.6 1.1 8.65 1.3 15.15.65 25.45-1.2 51 7.4-20.4 9.15-41.95.6-6.3.6-12.7.15-26.1-7.7-50.3 3.7-20.1 12.05-40.25 11.75-28.5 31.4-47.05 19.64-18.5 40.5-14.9 20.912 3.642 28.15 3.5 7.234-.086 34.05 24.8 5.733-2.029 10.75-1.1 2.59.51 3.35.45 1.634 1.855 8.4 8.35 10.606 10.135-4.2 20.1l2.15 2.7q3.25 2.35 8.85.8 6.1-1.7 9.3-10.1 2.65-6.85 2.3-14.1-.119-23.427-15.4-43.9-15.231-20.473-43.45-24.75-3.65-3.2-8.75-6.85-10.95-7.95-42.2-10.4-26.7-2.15-52.75 6.1 1.7-13.85-4.7-24.1Z"></path></g></defs><use xlink:href="#hair_02_fill_svg__a"></use></svg>