<svg xmlns="http://www.w3.org/2000/svg" xmlns:xlink="http://www.w3.org/1999/xlink" preserveAspectRatio="none" viewBox="0 0 1500 1500" fill="#2f1b12"><defs><g id="a_hair_39_fill_svg__a"><path d="M692.5 238.5q-1.3-.3-2.55-.6-3.45-1.05-6.85-1.7-4-.3-7.8.55l-.45.1q-.65.1-1.25.3-1.3.3-2.55.75-1.05.3-2.25.6-9.05 3.1-15.8 8.15 9-1.65 20.8-1.45h.5q8.3.1 18.2 1.65.5 0 1.15.1 1.35.2 24.5 4.05 2.5.5 4.85.8-.75-1.2-1.35-2.05l-1.6-1.25q-1.25-.9-3.5-1.95-1.7-.85-3.9-1.65-6.25-2.25-12.55-4.35-3.9-1.15-7.6-2.05m93.05 7.45q.5-.1.95-.1 8.3-1.55 15.2-1.65h.5q2.9-.1 5.6.1.1-3.2.2-6.1-.8-.4-1.7-.7-.9-.35-1.9-.65-1-.4-2.1-.7-.5-.2-1-.3l-.35-.1q-3.15-.85-6.55-.55-2.85.65-5.8 1.65-1.05.3-2.1.65-3.05.9-6.35 2.05-5.4 2.05-10.55 4.35-1.9.8-3.25 1.65-1.9 1-3 1.95l-1.4 1.25q-.5.8-1.1 2.05 2-.3 4.1-.8 19.45-3.85 20.6-4.05M681.15 590.2q-.45-3.7-.75-7.1 5-25.65 3-51.5-2.45-31.3-15.1-57.9-19.6-40.35-26.7-65.15-3.25-11.25-4.95-22.05l-.25-1.85q-.25-1.6-.45-3.15-.05-.35-.1-.75-1.2-2.95-3.65-5.45-2.75-2.65-6.45-3.75-2.5.65-5.1-.5-1.6-.05-3.3.15-1.5.1-2.9.95-.125.072-.25.15-2.111 1.32-4 4.2-.7 1.1-1.4 2.45-21.85 45.7-25.25 88.5-2.75 37.7 9.1 71.9 7.45 21.6 19.7 38.7-1.7-11.35-2.3-22.35 10.2 18.8 26.8 34.7 16.8 16.25 36.55 25.9 9.65 4.85 19.95 8.05-8.65-13.1-12.2-34.15m21.15-479.35q-5.7-1.85-11.9-2.85-17.1-2.7-34.15 2.05-16.55 4.25-27.1 15.05-4.7 4.65-7.5 10.45-7.2 6-11.4 13.75-4.35 7.85-5.2 16.7-4.3 6.95-6.85 14.25-3.7 10.55-3.25 20.65.1 7.85 2.6 15.1-11.55 22.3-9.9 40.1 1.6 17.8 6.8 39.95 5.2 22.1 11.85 29.9 6.55 7.75 7.5 37.8.97-.232 1.9-.45 3.766-.933 8.1-.65 6.95.587 11.55 4.05 9.982-31.487 7.35-44.1-2.65-12.75-3.1-16.3-2.05-6.2-4.95-12.25-6.35-49.15 25.1-77.75-5.95 3.6-2.65 1.55 1.55-1 2.8-1.65l.05-.05q.2-.2.4-.35.65-.65 1.35-1.2.1-.1.25-.2l-.2.1q.1-.15.2-.25h.15q-.95-6.2-4.9-12.5-4-6.3.5-12.25t6.6-7.9q10.7-9.7 31.5-14.25 21.3-4.45 43.25-2.8 2.7.25 5.6.55-.4-9.1-3.9-18.2-1.5-4-3.5-7.65-5.9-10.9-15.85-18.65-2.922-2.211-6.05-4.05 8.619 1.323 15.25 6.7 2.7 2.15 5.15 4.75 6.95 7.45 9.85 17.25 1.9 6.2 2.9 12.7.65 3.7 1 7.65 2.4-.45 5.2-.55v-.1q.119-.557.2-1.1 5.741-.287 11.55.55 3.5.4 7.05 1.3 1.6.45 3.3.95 5.8 2.7 10.95 7.45 6.25 5.65 10.35 13.3 3.3 5.8 1.25 14.55 4.9-7.2 4.75-11.95-.3-25.2-12.65-42.65-5.7-8.25-13.4-12.5-3.5-4.85-8.45-8.7-10.15-7.5-24.65-10.3 3.503 3.77 6 8.9-2.326-4.439-5.45-7.8v-.1q-3.3-3.4-7.4-5.8-8.8-5.25-19.9-4.45-8.218.61-15.25 4.45-.272-.106-.55-.2h-.1Z"></path><path d="M604.15 373.9v.4q-.1 1.95.1 3.4.4 1.9 1.55 3.6.2.25.4.55.75.15 2.6-2.9.7-1.35 1.4-2.45 1.889-2.88 4-4.2.125-.078.25-.15 1.75-1.3 3.45-1.4 1.85-.1 2.75.3 2.75 0 5.1.5 2.4.3 5.1 2.3 2.7 1.95 3.5 4.05 1.15.6 1.5 2.85.05.25.15.45 0 .1.05.25.4 2.5.85 3.3.65-.55 1.1-1l.9-1.1q.85-1.5 1.75-4.7.25-.8.35-1.55.1-2.95-1.7-5.6-1.15-1.75-3-3.3-.467-.409-.95-.8-4.6-3.463-11.55-4.05-4.334-.283-8.1.65-2.864.776-5.4 2.25-1.5.95-2.55 2-3 2.75-3.6 6.35Z"></path></g></defs><use xlink:href="#a_hair_39_fill_svg__a"></use></svg>