<svg xmlns="http://www.w3.org/2000/svg" xmlns:xlink="http://www.w3.org/1999/xlink" preserveAspectRatio="none" viewBox="0 0 1500 1500" fill="#2f1b12"><defs><path id="a_hair_37_outline_svg__a" d="m643.4 300.2.3.2q-.186-.143-.4-.3l.1.1m10.05-127.85-.45.35q-.35.4-.6.8-.1.05-.2.15-.25.3-.45.6l-.1.1q-.85 1.15-1.65 2.45-1.1 1.75-1.95 3.7-.1.2-.1.3-.8 1.65-1.7 3.05-.8.85-1.5 1.45-.3.15-.55.25-1.75.5-2.65.95-.8.3-1.35 1.15-.6.85-1.05 2.3-.3.75-.65 1.45-.35 1.1-.8 1.9-.15.35-.25.85-.55.65-1.05 1.15-.55.55-1.1.85-.6.25-1.25.35-.45.1-.8.2-.25.1-.45.3-1.15.65-1.6 2-.7 1.6-.5 3.4.35 2.1.15 2.9-.35.75-1.15 1.2-1.15.7-1.7 1.05-2.4 1.75-2.75 4.5v.2q0 1.8-.45 2.65-.35.85-1.5 1.7-.35.2-.6.3-1.7 1.05-2.05 1.8-.55 1.05-.35 3.05.35 2.2.25 3.15-.2.45-.45 1.05-.35.55-.8 1.15l-.35.35q-1.05 1.05-1.5 1.55-.3.25-.35.55-.45.3-.8.65-.3.2-.45.6-.9 1.6-1 3.6-.1 3.05-.15 3.7v.2q-.45 2-1.25 3.15-1.45 1.35-2.15 2.3-.25.35-.45.65-.1.75-.1 1.55-.15 3.2 0 6.85.1.25.1.65.25 2.2.65 4.55.05.6.15 1.25.55 2.95 1.15 6.1.2.95.45 1.9 1.35 5.8 3.75 14.75.8.3 1.6.7 1.05.45 2.15.95 6.4 2.85 12.05 7.3 2.15 1.55 4.1 3.35.1 0 .2.1.15.2.35.35l.35.4q.25.2.55.45l3.65 3.3q.356.338.7.65.1 0 .15.15.2.1.45.3v.1q.214.157.4.3l1.3.85v-.3q-.1-.3-.1-.55v-1.65q-.05-.85-.05-1.6-.1-1.35-.2-2.55v-.3q-.2-2-.2-4-.05-.3-.05-.6v-.45q-.45-9.9-.65-19.7-.1-7.35-.1-14.65 0-2.95.1-6v-1.65q.1-2.1.2-4.25.1-2.9 1.25-5.65 1.75-4.35 3.55-8.65.45-1.05.9-2.2 1.2-2.95 2.3-6.1 1.3-3.9 2.4-8.1 1.85-7.1 1.15-14.35l-1.25-22.4q-.1-2.05.2-4.15-.45.35-.8.75-.2.1-.2.2Z"></path><path id="a_hair_37_outline_svg__b" stroke="#000" stroke-width="1.5" stroke-linejoin="round" stroke-linecap="round" fill="none" d="M654.45 171.4q.35-.5.85-.85 15.6-12.4 42.8-13.85 4.7-.25 11.9-.05 6.25 0 14.25.35 9.25.4 16 .4 4.1 0 7.3-.1 3.45.1 6.9.1 10.5.1 20.55-.5h.1q2.15.4 4 .95 6.25 2.95 11.4 8.75 3.3 3.85 5.75 8.3.4.75.8 1.45.3.65.65 1.3.35.8.7 1.55l.7 1.9q1.15 2.95 2.15 6.1 1.95-3.55 2.75-7.45 1.15-5.5-.6-10.15-1.7-3.85-1.8-4.8-.1-.95.45-4.55.35-2.85-.45-4.5-1.35-2.05-1.6-3.3l.7-3.35q.55-2.65-.7-6.35-2.4-6-6.4-8.2-.1-.2-.1-.4-.1-1.5-.6-2.85-.35-1.05-1-2-1.6-2.35-3.9-3.05-1.35 0-1.95-.65-.7-.75-.7-1.7-1.55-5.05-6-7.35-2.2-.95-4.25-.95-.95-.1-1.85 0-.1-1.05-.35-2-1-2.95-3.15-4.95-2.1-1.8-4.95-2.2-3.05-.35-5.5 1.05.25-2.3-1.45-4.35-1.4-1.85-3.8-3.05-3.65-1.85-7.15-2.1-2.45 0-4.45.85-1.3-1.9-3.35-3.35-3.2-2.35-6.95-2.85-.7-.1-1.4-.1-3.05-.3-6 .75-2.1.7-3.7 1.9-1.25-.55-2.4-.95-3.85-1.1-7.55-.55-.45 0-.9.1-7.5 1.05-12.2 7.7-2.65-3.15-8.7-2.1-4.65.85-8.3 4.2l-.05.1q-2.25 2.3-3.6 4.95-3-1.45-6.3-1.35-3.55 0-6.3 1.75-2.65 2-4.25 5.1-.2.4-.55 1.15-3.4-2-7.55-.85-4.55 1.25-6.5 5.15-.25 1.25-1.35 1.9-.9.4-2.2 0-2.5-.3-5.15 1.35-1.35.85-2.5 2-.9.85-1.7 1.9-1.25 2-2.3 5.2-.2.5-.35 1.15-2.35.3-4.65 1.25-1.95.75-3.35 2.2-1.55 1.6-2.4 5.4-.3 1.25-.45 2.4-1.9-.5-4-.3-3.4.7-6.35 4.2-1.95 2.4-4.35 7.25-.5 1.7-.5 2.75-1.1.1-2.05.55-1.1.4-2.15 1.15-2.4 1.7-3.55 4.5-1.15 3.4-.8 6.75.25 1.8.8 3.4-3.05 2.7-4.3 6.3-1.05 2.75-.6 5.7.25 2.1 1.35 3.85-.9.95-1.55 2.15-.85 1.75-1.2 3.8-.75 4.4 1.2 8-1.75 2.4-2.1 5.65-.35 4 1.6 7.15.7 1.2.7 1.7.2.65-.25 1.9-1.35 4.3.15 8.75 1.1 3.35 3.4 5.6-.7 2.1-.8 4.3-.2 3.55 1.3 6.55.1.2.9 1.45.35.55.8 1.35 1 1.5 1.45 2.65.5 1.5.7 4 .25 3.15.35 3.9.6 4.5 5.45 12.3 3.2 5.2 4.5 8.95 1-.1 1.95 0 .35.35.8.35.9.1 1.8.3 1.4.3 2.85.75-2.4-8.95-3.75-14.75-.25-.95-.45-1.9-.6-3.15-1.15-6.1-.1-.65-.15-1.25-.55-2.75-.75-5.2-.15-3.65 0-6.85 0-.8.1-1.55.2-.3.45-.65.7-.95 2.15-2.3.8-1.15 1.25-3.15v-.2q.05-.65.15-3.7.1-2 1-3.6.15-.4.45-.6.35-.35.8-.65.05-.3.35-.55.45-.5 1.5-1.55l.35-.35q.45-.6.8-1.15.25-.6.45-1.05.1-.95-.25-3.15-.2-2 .35-3.05.35-.75 2.05-1.8.25-.1.6-.3 1.15-.85 1.5-1.7.45-.85.45-2.65v-.2q.35-2.75 2.75-4.5.55-.35 1.7-1.05.8-.45 1.15-1.2.2-.8-.15-2.9-.2-1.8.5-3.4.45-1.35 1.6-2 .2-.2.45-.3.35-.1.8-.2.65-.1 1.25-.35.55-.3 1.1-.85.5-.5 1.05-1.15.1-.5.25-.85.45-.8.8-1.9.35-.7.65-1.45.45-1.45 1.05-2.3.55-.85 1.35-1.15.9-.45 2.65-.95.25-.1.55-.25.7-.6 1.5-1.45.9-1.4 1.7-3.05 0-.1.1-.3.85-1.95 1.95-3.7.8-1.3 1.65-2.45l.1-.1q.2-.3.45-.6.1-.1.2-.15.25-.4.6-.8l.45-.35q0-.1.2-.2.35-.4.8-.75Zm-11.125 128.7q-.236-.193-.475-.4-.409-.363-.825-.775l-3.675-3.325q-.3-.25-.55-.45l-.35-.4q-.35-.25-.55-.45-1.95-1.8-4.1-3.35-5.65-4.45-12.05-7.3-1.1-.5-2.15-.95-.8-.4-1.6-.7m-6.15-28.55q.25 2.2.65 4.55m25.4 36.3q.1 0 .2.1.15.2.35.35m5.875 5.35q.19.157.375.3"></path><path id="a_hair_37_outline_svg__c" stroke="#000" stroke-width="1.5" stroke-linejoin="round" stroke-linecap="round" fill="none" d="m737.4 245.75-.9 1.9q-1.95 3.15-3.1 3.8-1.6 1.25-3.2 1.05-.55-.2-1-.3-2.65-.65-5.5-2.1-2.35-1.05-9.25-5.05-5.8-3.1-9.1-4.35-.15 0-.25-.1-4.45-1.6-8.45-1.7-.8.1-1.6.15-9.45 1.25-18.15 4.8 8.3-8.2 18.6-13.8 3.3-1.75 6.55-3.15 1.55-.5 3.3-.3 2.85.4 6.5 2.75 4.8 3.25 14.15 10 6.15 4.1 11.4 6.4.15-.6.4-1.25.9-2.3 1.45-4.4"></path><path id="a_hair_37_outline_svg__d" stroke="#000" stroke-width="1.5" stroke-linejoin="round" stroke-linecap="round" fill="none" d="M754.45 245.25q.1.95.1 1.9.6 3.15 1.4 3.8.8 1.25 2.25 1.05.5-.15.9-.25 2.3-.7 5.05-2.1 2.2-1.05 9.05-5.05 5.95-3.25 9-4.5 4.2-1.6 7.45-1.7.55.1 1.25.2 6.35 1.05 11.75 4 .1-.75.25-1.55-3.8-6.65-9.5-11.5-2.15-1.7-4.25-3.15-2.85-1.3-8.75 2.5-4.95 3.2-14.65 10-6.3 4.1-11.3 6.35.1-.55.1-1.25 0-2.25.15-4.35"></path></defs><g><use xlink:href="#a_hair_37_outline_svg__a"></use><use xlink:href="#a_hair_37_outline_svg__b"></use></g><use xlink:href="#a_hair_37_outline_svg__c"></use><use xlink:href="#a_hair_37_outline_svg__d"></use></svg>