<svg xmlns="http://www.w3.org/2000/svg" xmlns:xlink="http://www.w3.org/1999/xlink" preserveAspectRatio="none" viewBox="0 0 1500 1500" fill="#2f1b12"><defs><g id="hair_04_fill_svg__a"><path d="M732.7 229.5q6.3-2.45 10.4-17-3.4 3.3-14.9 5.05-11.5 1.8-28.55 2.8-8.25.45-13.55 1.4-5.25.95-9 4.9-3.8 3.95-8.5 15.55 8.8-6.7 14.35-8.5 12.7-1.55 28.95-2 14.5.15 20.8-2.2m39.4 6.7q12.6-.55 19.75.2 7 .75 12.2 3.55l.2.1.05-.05q1.6-5.25.7-9.25-.7-1.4-1.65-2.55-4.1-4.85-13.15-4.35-12 1.05-18.55-1.25-6.2-2.4-7.05-5.75-.8 6.55-.5 14.8.15 3.35 2.05 4.4 1.2.7 5.95.15Z"></path><path d="M753.1 80.15q-9.05-1.75-19.95-2.9-20.75-3.6-35.25-18.05-.45 3.8.1 8.9.6 5.1 3.35 10.05 2.7 4.95 8.7 9.1-6.15-2.15-14.05-2.6-7.8-.45-14.7 1.25-6.8 1.7-18.25 5.9-11.5 4.2-17.15 5.65-9.9 2.5-18.6 2-8.65-.6-13.75-4.15 3.4 9 11.3 12.6 6.1 2.8 10.35 3.1-.2 0-.5.05-.7.1-1.5.25-3.85.75-7.25 2-.5.2-1.15.3-2.9 1.1-5.3 2.45-6.2 3.3-8.9 5.5-2.75 2.2-6.05 6.15-6.25 7.45-8.95 21.4 1.55-1.5 4.35-4.55 2.75-3.2 7.65-7.6-6.1 8.9-6.35 27.4-.05 3.3.15 11.85.55 15.65 9.45 79.95.841.454 4.2 1.9 3.409 1.496 7.65.85l-.1-.1q1.387 1.016 5.85 13.65 3.46 9.727 10.85 3.7.172.1.4.15l.65-.15q1.8-.65 3.85-.8.8 0 1.1-.35.25-.3.15-1.15-.35-1.75-.85-2.95-.35.3-.35.75-.259-.093-.5-.05.225-.268.45-.55l-.1-2 .3.25q.15-14.25-1.7-31.45 31.35-28.4 28.8-61.7l-.1-1.8q.002-.078 0-.15.61-.78 6.7-1.85 6.141-1.078 4.3.45-1.792 1.579 15.2-.65 6.753.597 24.15 2.9 17.443 2.3 18.55 2.55 1.163.301 10.55 2 9.388 1.701 17.95.65 8.553-1.014 10.8-.45 2.25.575 15-3.15 7.437.274 9.35 5.5 4.062 12.415.1 27.55 11.45-19.25 9.9-39.85-1.7-15.95-8.9-23.25.15-11.3-2.05-22.45-2.3-11.65-9.75-21.5-7.45-9.9-19.35-15.4-11.8-5.4-20.8-7.1m-111.25 193.6q.094-.076.2-.2v.05q-.082.078-.2.15Z"></path></g></defs><use xlink:href="#hair_04_fill_svg__a"></use></svg>