<svg xmlns="http://www.w3.org/2000/svg" xmlns:xlink="http://www.w3.org/1999/xlink" preserveAspectRatio="none" viewBox="0 0 1500 1500" fill="#2f1b12"><defs><path id="a_hair_38_outline_svg__a" d="M659.25 448.1q.25-.1.4-.1v-.15q-.15.05-.4.25Z" fill="#2A1E11"></path><path id="a_hair_38_outline_svg__g" fill="#630" d="M741.95 138.1q3.126 7.927-.3 19.35 5.14-10.429.3-19.35m-.3 19.35q-2.265-3.035-5-4.75 2.324 1.721 5 4.75m-31.6-34.15q6.648-.682 17.5 1.7-9.618-2.909-15.65-2-.916.13-1.85.3Z"></path><path id="a_hair_38_outline_svg__b" stroke="#000" stroke-width="1.5" stroke-linejoin="round" stroke-linecap="round" fill="none" d="M682.15 414.3q5.55 8.1 13.9 13.55 1.05.6 2 1.2 14.35-8.95 21.1-22.3-4.75 4.25-15.9-.6-10.4-4.55-27.05-18.5-16.6-13.9-19.15-82.1m2.6 142.45q-.15 0-.4.1.25-.2.4-.25m-82.85-36.8q-5.15 13.586-13.45 14.825-8.3 1.24-14.45-1.225"></path><path id="a_hair_38_outline_svg__c" stroke="#000" stroke-width="3" stroke-linejoin="round" stroke-linecap="round" fill="none" d="M659.25 448.1q-27.85 2.75-57.25-.95-29.4-3.8-40.55-9.8-11.1-5.95-12.55-12.7-1.3-1.35-10.7-7.35-9.25-5.95-18.1-17.6 12.35 5.85 23.7 2.15 8.05-2.7 13.3-9.35 5.45-6.9 3.75-14.25-1.65-7.45-4.75-13.3-3.05-5.9-16.3-22.5-13.1-16.7-11.4-38.35 1.85-21.8 17.3-34.7 15.55-12.95 16.85-28.45 1.3-15.55.1-32.75t12-46.75Q588 131.8 629.4 123.6q41.7-8.3 88.55-9.35m-58.3 333.6q25.25-3.2 38.4-18.8"></path><path id="a_hair_38_outline_svg__d" stroke="#000" stroke-width="3" stroke-linejoin="round" stroke-linecap="round" fill="none" d="M717.55 114.6q13.3-.5 29.4-.8 18.25-.25 36.15 8.15 17.95 8.3 25.65 23 6.15 11.05 8.25 25.5 2.15 14.35.15 31.9-2 17.45-19.65 45.65"></path><path id="a_hair_38_outline_svg__e" stroke="#000" stroke-width="1.5" stroke-linejoin="round" stroke-linecap="round" fill="none" d="M744 145.25q20.16-18.489 39.15-8.9 18.983 9.59 23.65 31.875 4.666 22.28.9 42.175-3.768 19.894-11 37.05-2.1-13.8-2.85-23.4-.95-14.9-4.5-31.85-3.45-16.9-9.6-28.25-5.55-10.1-16.95-14.85-13.784-3.697-21.1 8"></path><path id="a_hair_38_outline_svg__f" stroke="#000" stroke-width="1.5" stroke-linejoin="round" stroke-linecap="round" fill="none" d="M689.525 237.3q.755-.27 1.525-.5 7-2.15 14.3-1.45 2.05.1 4.05.5.4.1.85.2 9.7 2.25 11.75 8.65-5.5-1.55-9.35-2.5-3.6-.9-8.1-1.4-4.4-.45-10.7.35-2.234.21-4.575.9"></path><path id="a_hair_38_outline_svg__h" stroke="#000" stroke-width="1.5" stroke-linejoin="round" stroke-linecap="round" fill="none" d="M624.3 280.15q10.501.58 17.25-6.825 2.272-2.48 4.125-5.85 1.656-3.054 2.975-6.825 2.49-7.138 4.5-13.475.044-.14.1-.275 6.08-19.206 7.8-31.1 2.55-17.2 4.5-33.45 1.9-16.1 9.35-33.8 2.004-4.737 4.575-8.55 7.128-10.6 18.625-14.2 5.974-1.89 11.975-2.5m17.475 1.7q11.052 4.488 14.425 13.1m-5.325 14.6q-3.225-2.022-7.1-2.225-17.214-.939-24.35 19.5-10.104 28.97-12.4 44.875-2.55 17.2-4.5 33.45-1.9 16.1-9.35 33.8-7.55 17.85-23.2 22.75-15.65 4.95-31.45 1.15 11.912-2.883 20.05-14.95 8.142-12.073 8.9-44.15m56.825-123.6q6.623-.682 17.475 1.7m9.1 27.7q2.735 1.715 5 4.75 3.426-11.423.325-19.35M567.9 309.95q10.5.65 17.25-7.35 2.25-2.75 4.15-6.35 1.65-3.35 2.95-7.45 2.5-7.75 4.5-14.55 6.15-21 7.9-34 2.55-18.65 4.5-36.25 1.25-11.55 4.95-23.85.7-2.4 1.5-4.75 1.35-4 2.9-8.05 2-5.15 4.6-9.25"></path><path id="a_hair_38_outline_svg__i" stroke="#000" stroke-width="1.5" stroke-linejoin="round" stroke-linecap="round" fill="none" d="M790.7 241.8q-2.689-2.755-8.375-4.95-5.678-2.198-11.375-1.5-1.6.1-3.15.5l-.7.2q-7.55 2.25-9.15 8.65 4.3-1.55 7.3-2.5 2.8-.9 6.3-1.4 3.445-.455 7.975-.525 4.54-.062 8.8 2.125 3.783 1.942 5.35 3.8-.295-1.647-2.975-4.4Z"></path></defs><g><use xlink:href="#a_hair_38_outline_svg__a"></use><use xlink:href="#a_hair_38_outline_svg__b"></use><use xlink:href="#a_hair_38_outline_svg__c"></use></g><use xlink:href="#a_hair_38_outline_svg__d"></use><use xlink:href="#a_hair_38_outline_svg__e"></use><use xlink:href="#a_hair_38_outline_svg__f"></use><g><use xlink:href="#a_hair_38_outline_svg__g"></use><use xlink:href="#a_hair_38_outline_svg__h"></use></g><use xlink:href="#a_hair_38_outline_svg__i"></use></svg>