<svg xmlns="http://www.w3.org/2000/svg" xmlns:xlink="http://www.w3.org/1999/xlink" preserveAspectRatio="none" viewBox="0 0 1500 1500" fill="#2f1b12"><defs><g id="a_hair_31_fill_svg__a"><path d="M747.45 240.65q-1.65-.55-3.45-1-11.3-2.65-49-11.2-26.35-6.05-40.6-14.95 2.75 4.65 7.4 10.05 2.05 2.3 5.15 5.6-8.75-2.55-21.4-7.55 2.65 4 6.55 8.05 15.55 14.8 91.5 20.8 2.35-4.75 3.85-9.8m-62.9-73.5q.118.23.2.45l25.25-3.25q-1.007 3.781 9.75-.6l32.75 2.65q4.615.555 8.15 2.85l18.85 6.5 9.5 9.5 3.5 6.25 6.8 14.25v.05q-.253.272-.45.6-.3.45-.5 1-.15.6-.15 1.15-.05.75-.05 1.5v1.45q-.1.15-.15.3-.1.2-.15.35-.1.2-.15.35-.05.2-.05.35-.05.2-.05.35v.8q-.05.7-.05 1.4.05.7.05 1.4 0 .9-.05 1.8v1.75q0 .9.1 1.75.05.2.15.4.05.2.15.4l.2.4.2.3q.1.1.2.25-.275 2.352-.55 4.55-.05.2-.05.35-.1 0-.15.05-9.6 2.8-31.2 8.75-.25 1.85-1 10.25 8.45-.7 23.9-1.75 2.95-.3 5.7-.6.3-.05.65-.1 9-1.15 15.25-3 11.1-3.3 17.65-10.15 4.85-5.15 7.2-12.35-3.65 1.95-8.2 4.3l-3.3 1.65q1.65-2.6 2.85-4.65 2.3-3.9 3.2-5.8.15-.45.35-1-2.2 1.1-4.2 2.15-1.1-7.1-2.4-14.35-6.2-34.1-14.65-46.8-8.6-12.75-41-24-32.45-11.35-84.75-10.6-52.4.7-84.05 28.85-31.7 28.05-32.75 77.6-1.05 49.55-3.55 69.9-2.55 20.25-10.5 46.15-6.75 22.05-18.35 55.25-2.1 6-4.4 12.45-8.35 23.35-9.75 43.45-.1 1.05-.15 2.05-.55 7.7.15 15.3 0 .15.1.45v.4q1.65 14.35 11.05 26.2 4.05 5.3 9.1 10l4.9-39.1q.6 3.3 1.2 6.65 6.15 33.1 34.2 55.1 1.55 1.35 3.25 2.6 12.9 9.9 28.25 16.95 17.3 8.25 36.5 12.25.35.05 7.8 1.05.2-1.5.55-2.85l-.55-.45q-1.85-3.8-3.25-7.7-6.3-14.75-6.3-27.4 0-15.3 5.95-18.7.522-1.218 1.35-3.4.184.018.35 0l.8-.2.4-.2q.3-.2.65-.45.4-.2.75-.45t.65-.55q.35-.3.65-.6.3-.25.55-.55.2-.1.35-.25.2-.1.35-.2.1-.15.2-.25.1-.15.25-.25l.2-.3q.1-.1.2-.25.15-.15.25-.3t.25-.3.25-.3l.2-.3q.1-.15.2-.25.1-.15.25-.25l.3-.3q.1-.15.25-.3.2-.1.35-.25l.3-.3q.15-.1.25-.25.15-.2.25-.35.15-.1.25-.25.15-.15.25-.3.15-.1.3-.25l.25-.25q.1-.1.2-.25l.2-.3.2-.3.1-.2q.1-.2.25-.4l.2-.4q.1-.15.2-.35l.2-.4.2-.4q.05-.2.15-.4l.1-.4q.1-.1.15-.2.05-.05.15-.1.1-.15.25-.25l.2-.3q.1-.1.15-.25.15-.1.25-.25.15-.15.3-.35.1-.15.25-.35.1-.15.25-.35.05-.15.15-.3.1-.1.25-.2 0-.05.05-.1.15-.1.25-.25.15-.1.3-.25l.2-.3q.15-.15.25-.3.4-.05.8-.2.8-.2 1.5-.65.65-.45 1.05-1.05.45-.65.7-1.4.35-.7.35-1.5 0-.6.1-1.15l.3-.2q.1-.15.2-.25l.2-.2q.1-.15.2-.25l.2-.2q.1-.15.25-.3l.2-.3q.15-.1.25-.25l.2-.3q.15-.15.25-.3.15-.15.25-.3.15-.15.25-.35.15-.15.25-.3l.2-.3q.05-.1.15-.25.1-.15.2-.25.05-.15.15-.3.05-.1.15-.25.05-.15.15-.25.1-.2.2-.35.1-.2.15-.4.1-.2.15-.4.1-.2.25-.35l.2-.4q.15-.2.25-.4.1-.1.15-.25l.2-.2.2-.5q.2-.25.45-.55.2-.3.35-.6.2-.3.3-.65.15-.35.25-.7l.1-.8q.05-.3.05-.55l.1-.1q.1-.1.2-.25.1-.1.2-.25l.2-.2q.1-.1.2-.25.1-.1.2-.25l.2-.3q.1-.15.15-.25.05-.15.1-.25.1-.15.2-.25.05-.15.15-.3.1-.15.15-.35.1-.15.2-.35.05-.2.1-.35.1-.2.15-.35.1-.15.15-.35.1-.15.15-.35.05-.2.1-.35l.1-.4q.05-.2.15-.35.1-.15.2-.35.05-.15.15-.35.1-.15.15-.35.1-.1.15-.2.1-.2.2-.35.05-.2.15-.35l.1-.4q.05-.15.1-.35l.05-.05q.05-.2.15-.35.05-.2.15-.35.05-.2.1-.35.1-.15.2-.35.05-.15.15-.35.05-.2.15-.4.05-.15.1-.35.05-.15.05-.35.1-.15.2-.35.05-.25.15-.45.05-.2.1-.45l.1-.4q0-.25.05-.45t.15-.35l.1-.2q.1-.15.15-.35.1-.15.15-.35.1-.15.15-.35.05-.2.1-.35l.1-.4q.05-.2.05-.4.05-.15.05-.35V451.65l.1-.3q.1-.2.15-.35.05-.15.05-.35l.1-.3q.1-.2.15-.4.1-.2.15-.4l.1-.4q.05-.1.05-.2.15-.35.2-.7.65-3.65.45-7.35-.15-3.65 0-7.35.033-.765-.1-1.5.415-.09.85-.2-1.5-17.2-34.45-65.05l-1.2-1.75-2.05-1q-4-6.55-6.35-13.55-10.75-21.4 3.05-65.3v-.35q-.75-27.85-3.25-37.15-.1-.25-.1-.55-.35-.95-.6-1.85v-.1q-.1-.4-.2-.7l-.25-.7q-.2-.35-.25-.8l-.3-.45q0-.05-.05-.15-.1-.2-.2-.25l-.15-.3q-.1-.25-.1-.45-.1-.15-.1-.35-.1-.05-.1-.25-.15-.35-.35-.6-.1-.3-.25-.55-.2-.35-.35-.6-.1-.35-.3-.75-.15-.35-.35-.6V236q0-.25-.05-.4v-.45q0-.2-.1-.35.1-.2.1-.35-2.1-6.9-3.75-12.65 0-.1-.05-.2l-.2-.2q-.1-.15-.2-.25-.05-.15-.15-.35-.25-.35-.45-.7-.15-.35-.35-.6-.2-.3-.35-.65-.1-.1-.2-.25-.05-.1-.25-.2-.1-.15-.1-.25-.05-.2-.15-.35-.1-.2-.1-.25-.1-.2-.2-.35-.05-.2-.15-.3 0-.12-.15-.2.036-.029.05-.05.1-.15.2-.35.05-.2.1-.35l.1-.4.1-.7.1-1.1q0-.4.05-.8 0-.4-.05-.8 0-.4-.05-.8v-.45q0-.4-.05-.8-.05-.65-.25-1.2-.2-.65-.5-1.25-.15-.4-.25-.8-.15-.5-.35-.95V204q0-.2-.05-.45-.05-.2-.1-.45-.05-.2-.15-.35-.1-.2-.15-.4l-.2-.4q-.1-.15-.2-.35l-.2-.3q-.15-.1-.3-.25-.121-.101-.25-.2l.05-.1q.05-.1.05-.2.05-.1.05-.2l.1-.3q.05-.05.1-.15l.1-.2q.05-.05.1-.15.05-.1.05-.2.05-.1.05-.2.1-.1.15-.2l.1-.2.1-.2q.05-.1.05-.2l.1-.2.1-.2.1-.4q0-.05.05-.15 0-.05.05-.15.05-.15.15-.35.05-.15.15-.3.05-.2.15-.35.1-.2.15-.4.1-.15.15-.35.05-.1.1-.25.05-.05.1-.15.2-.25.35-.5.2-.25.45-.5l.4-.5q.2-.35.45-.7.25-.4.45-.75.2-.15.35-.35l.4-.5.4-.5q.15-.25.3-.45.15-.25.35-.5.25-.3.35-.65.05-.1.05-.2t.05-.2v-.2l.1-.1q.1-.05.2-.15.1-.05.15-.15.1-.1.2-.15.1-.1.2-.15l.4-.3.3-.2q.2-.1.35-.2.2-.1.35-.2.15-.15.3-.25.2-.1.35-.2.2-.2.45-.4l.2-.3q.3-.5.3-1.05-.03-.292-.1-.6l2.7-2.2H651l2.75-3.95q1.257-.685 2.25-1.45.29-.07.55-.2.25-.1.55-.3.35-.25.75-.4.35-.15.65-.4.3-.2.6-.5.5-.15.95-.35.65-.25 1.3-.55.55-.25 1.15-.55.75-.35 1.45-.75.6-.35 1.2-.75 1-.3 2.05-.5 2.3-.55 4.6-1.05 3.1-.7 6.1-1.45l5.5-1.4q.593-.143 1.15-.3m115 27.75q-.077.73-.25 1.35.36 4.468.05 9.35-1.172-17.236-.95-16.15.567.613.85 1.2.7 1.5.3 4.25m3.15-1.45v.2q-.003-.1-.1-.1v-.15q-.1 0-.1-.1v-.1q.1 0 .1.1t.1.15Z"></path><path fill-opacity="0.976" d="M795.85 245.35q-2.15 17.35-3.35 29.8-.2 2.75 2.2 50.85 1.75 35.6-13.75 53.55-1.98 2.52-4.35 4.1-2.324 1.638-6.35 4.8-3.976 3.199-9.8 7.6-8.968 2.477-10.3 4.15-1.282 1.673-13.8 2.35.85 4.1-5.35 6.3l3.9 11.15 2.9 2.9q9.85 10.25 17.35 19.9 35.85 46.2 18.4 80.5 21.15-7.65 38.95-24.95 17.8-17.25 21.3-38.2.1-.55.2-.9 0-.25.1-.45.7-4.95 1.05-13.05.35-8.6-5.2-31.95-5.6-23.45-5.35-37.35.2-14 3.65-46.1 3.45-32.2 2.85-63.2-.35-17.05-2.35-34.95-6.55 6.85-17.65 10.15-6.25 1.85-15.25 3Z"></path></g></defs><use xlink:href="#a_hair_31_fill_svg__a"></use></svg>