<svg xmlns="http://www.w3.org/2000/svg" xmlns:xlink="http://www.w3.org/1999/xlink" preserveAspectRatio="none" viewBox="0 0 1500 1500" fill="#2f1b12"><defs><path id="a_hair_31_outline_svg__a" d="M51.7 3.45q-.04.04-.1.05-.033 1.022-.1 2.1h.05q.19-1.212.35-2.45-.05.05-.1.15-.05.05-.1.15m-.15.25q0 .1-.05.15 0 .1-.05.15v.15q-.05.1-.05.15v.2q-.05.05-.05.15v.95q.082.007.15 0 .067-1.078.1-2.1v.05q0 .1-.05.15m-89.45-.75q-.05-.05-.05-.1-.05-.1-.1-.15 0-.05-.05-.1l-.05-.05q.984 3.349 2.2 7.25v-.95q-.05-.2-.05-.4t-.05-.45l-.1-.4q-.05-.1-.05-.2l-.1-.2q-.05-.1-.05-.2-.05-.05-.1-.15 0-.1-.05-.2 0-.1-.05-.2 0-.1-.05-.2 0-.1-.05-.2t-.05-.15q-.05-.1-.1-.15-.05-.05-.1-.15 0-.05-.05-.15-.1-.05-.15-.15 0-.05-.05-.15 0-.1-.05-.2t-.05-.2q-.05-.05-.05-.15-.05-.1-.1-.15-.05-.1-.05-.2-.05-.05-.1-.15-.05-.1-.05-.2-.05-.1-.05-.25-.05-.1-.05-.2l-.1-.2q0-.1-.05-.15 0-.1-.05-.15m9.65 193.3.55-1.4-.3-.25q-.126.817-.25 1.65m-4.5-152.05q.629-2.816.9-5.7-7.747 24.848-1.75 36.9-4.22-12.346.05-27.8.469-1.685.8-3.4m-1-27.2q-.004-.164-.05-.35 0-.1-.05-.15 0-.15-.05-.25l-.1-.2-.05-.1q.17.55.3 1.05m83.95-.6q-.18.06-.4.1-1.104 6.742-1.35 14.1-.036 1.114-.1 2.2.71-6.829 1.85-16.4M25.8 126.7q.727.467 1.5.9-4.258-5.473-9.85-11.25l-1.6-1.65 8.45 10.75 1.15.55.35.7m-48.7-35.75-.25-.55-.3-.15.55.7Z" fill="#26211D" fill-opacity="0.647"></path><path id="a_hair_31_outline_svg__b" stroke="#000" stroke-width="1.5" stroke-linejoin="round" stroke-linecap="round" fill="none" d="m5.3-29.4 12.45.25q23.5 1.9 31.05 14.4 2.4 4.008 3.175 9.1.087.513.15 1.05-.23 3.025-.5 8.125m.275-.375q-.16 1.238-.325 2.45m.05-2.075q-.058.997-.1 2.075M67.6-1.05q-.574-3.644-1.25-7.35-3.5-19.25-8.3-26.45-4.85-7.2-23.15-13.55-18.35-6.4-47.9-6-29.6.4-47.5 16.3Q-78.4-22.25-79 5.75q-.6 28-2 39.5-1.45 11.45-5.95 26.1-3.807 12.436-10.375 31.2-1.189 3.422-2.475 7.05-4.7 13.2-5.5 24.55-.05.6-.1 1.15-.3 4.35.1 8.65 0 .1.05.25v.25q.95 8.1 6.25 14.8 2.3 3 5.15 5.65l2.75-22.1q.35 1.85.7 3.75 3.45 18.7 19.3 31.15.9.75 1.85 1.45 7.3 5.6 15.95 9.6 9.8 4.65 20.65 6.9.2.05 4.4.6.124-.833.275-1.625-1.201-2.327-2.15-4.575-3.515-8.329-3.525-15.525-.008-8.643 3.35-10.525 22.825-21.494 21.65-42.6-.828-9.713-19.45-36.775-1.695-2.58-3.675-5.8-.998-1.622-1.8-3.4-6.022-12.077 1.75-36.9l.025-.075v-.125q.981-11.618-1.925-21.3-.154-.525-.325-1.05-.069-.217-.125-.425l-.125-.4q-.077-.22-.15-.45-.797-2.54-1.5-4.875-1.216-3.926-2.175-7.25-1.13-3.943-1.8-7.2-.679-4.174-.25-5.2.425-1.03.675-1.5.258-.472.45-1.225 2.95-4.6 7.5-7.85 2.25-1.7 4.8-2.85 2.8-1.4 6.05-2.45 1.2-.4 2.5-.75 5.05-1.15 10.2-1.9l12.6-1m-32.85 225.6.55-1.375M50.225 16.4q-1.166 9.571-1.85 16.425M27.3 127.6q20.254 26.123 10.4 45.5 11.95-4.35 22-14.1t12.05-21.6q.05-.3.1-.5 0-.15.05-.25.4-2.8.6-7.4.2-4.85-2.95-18.05-3.15-13.25-3-21.1.1-7.9 2.05-26.05 1.95-18.2 1.6-35.7-.186-9.34-1.275-19.15m-20.55 23.625Q48.317 34.39 49.65 61.6q.986 19.967-7.625 30.125-15.529 14.78-26.175 12.875v10.1l1.625 1.65q5.567 5.777 9.825 11.25m44.6 9.05q0 .35-.15.75"></path><path id="a_hair_31_outline_svg__c" stroke="#000" stroke-width="1.5" stroke-linejoin="round" stroke-linecap="round" fill="none" d="M21.75-9.15q.75 7.1-1 13.3Q19.9 7 18.55 9.7q-42.9-3.4-51.7-11.75-2.2-2.3-3.7-4.55 7.15 2.8 12.1 4.25-1.75-1.85-2.9-3.15-2.65-3.05-4.2-5.7Q-23.8-6.15-8.9-2.75 12.4 2.1 18.8 3.6q1 .25 1.95.55"></path><path id="a_hair_31_outline_svg__d" stroke="#000" stroke-width="1.5" stroke-linejoin="round" stroke-linecap="round" fill="none" d="M-16.95-9.55q1.3 3.8 1.7 5.25.55 2.05.55 3.5 0 .9-.25 2.95 19.1-5.25 21.6-6.2 4.2-1.55 14.7-6.9-.1.3-.2.55-.75 1.65-3.4 5.9 3.7-1.85 6.5-3.35-3.1 9.45-14.05 12.7Q5.5 6.25-2 6.95q-8.75.6-13.5 1h-.45m1-5.8q-.15 1.05-.55 5.8"></path></defs><g transform="matrix(1.76965 0 0 1.76964 706.6 216.95)"><use xlink:href="#a_hair_31_outline_svg__a"></use><use xlink:href="#a_hair_31_outline_svg__b"></use></g><use xlink:href="#a_hair_31_outline_svg__c" transform="matrix(1.76965 0 0 1.76964 710.534 233.265)"></use><use xlink:href="#a_hair_31_outline_svg__d" transform="matrix(1.76965 0 0 1.76964 792.823 233.708)"></use></svg>