<svg xmlns="http://www.w3.org/2000/svg" xmlns:xlink="http://www.w3.org/1999/xlink" preserveAspectRatio="none" viewBox="0 0 1500 1500" fill="#fee8d3"><defs><path d="M720.4 243.2q-7.4-6.65-18.05-6.65-10.6 0-18.1 6.65-5.55 4.95-6.95 11.4 25.9-5 50.2 0-1.5-6.45-7.1-11.4m31.75 14.15q.7-3.85 2.85-8.25-10.05-3.95-16.8 1.65-7.4 27.75-11.3 70.95 5.75 4.05 13.55 5.6 7.1 1.4 14.4.5 10.55-1.4 7.35-12.9-6.95-24.8-10.15-49.2-.6-4.5.1-8.35m43.6-12.9q-6.65-6.65-16.05-6.65-9.45 0-15.95 6.65-5 4.95-6.3 11.4 21.5-5 44.45 0-.95-5.15-4.35-9.4-.85-1-1.8-2Z" id="a_face_20_fill_svg__a"></path></defs><use xlink:href="#a_face_20_fill_svg__a"></use></svg>