<svg xmlns="http://www.w3.org/2000/svg" preserveAspectRatio="none" viewBox="0 0 1500 1500" fill="#fee8d3" xmlns:xlink="http://www.w3.org/1999/xlink"><defs><g id="face_18_fill_svg__a"><path d="M728.5 344.4q-.987-.287-1.95-.6-.6-.25-1-.2-.65.1-.75.65-.05.35.3.7.65.75 2.55 1.45l2 .75q.073.385.35.8.4.5 1.4 1.1 2.45 1.3 7.1 2.95l8.6 2.6q1.95.55 3.3.65 1.65.2 4.95.3l6.3.1q2.5 0 3.5-.3 1.95-.55 2.6-2.15.35-.8.05-1.7-.3-.95-1.05-1.3.85-.4.85-1.4-.073-.696-.55-1.1.113-.212 0-.4-.024-.107-.1-.2l.05-.05-.15-.4q-.2-.2-.4-.2t-.45.25l-.1.15-.05.1q-.163.088-.35.2l-.3.15q-.366.088-.8.2-4.2 1-10.2.55-6.85-.75-10.3-1.05-2.487-.168-4.15-.3-.046-.355-.4-.65-.45-.35-1.5-.25l-1.65.05q-.2.1-.45 0l-.55-.25q-.673-.337-1.7-.65-.039-.016-.1-.05-.7-.4-1.25-.4-.318-.04-.6 0l-.45-.15-.6-.45q-.6-.35-1.2-.2-.624.134-.8.7ZM709.5 256.75q.75-.3 1.65-.3 1.1 0 2 .45 9.55.45 19.15 1.75-.55-7.45-5.85-13.2-26.453-8.78-49.2-.8-5.4 6.7-5.8 14.45 18.9-2.9 38.05-2.35M801.15 244q-25.485-3.726-43.2 1.45-4.65 5.75-5.2 13.2 27.35-4.2 54.15.45-.9-11.7-5.75-15.1Z"></path></g></defs><use xlink:href="#face_18_fill_svg__a"></use></svg>