<svg xmlns="http://www.w3.org/2000/svg" viewBox="0 0 1500 1500" fill="#fee8d3" xmlns:xlink="http://www.w3.org/1999/xlink" preserveAspectRatio="none"><defs><path d="M335.45 568.05q.95-.9.95-2.2 0-1.3-.95-2.25-.9-.9-2.2-.9-1.3 0-2.25.9-.9.95-.9 2.25t.9 2.2q.95.95 2.25.95t2.2-.95Z" id="face_17_outline_svg__f"></path><path d="M335.45 568.05q.95-.9.95-2.2 0-1.3-.95-2.25-.9-.9-2.2-.9-1.3 0-2.25.9-.9.95-.9 2.25t.9 2.2q.95.95 2.25.95t2.2-.95Z" id="face_17_outline_svg__h"></path><path d="M743.265 281.968q.135 1.035.54 2.16 1.71 5.04 5.535 8.505.63.765 1.935 2.025 1.125 1.17 1.44 2.295.9 2.025-.225 4.275-1.08 2.025-3.15 3.15-3.195 1.62-8.91 1.62" id="face_17_outline_svg__a" fill="none" stroke="#000" stroke-width="1" stroke-linejoin="round" stroke-linecap="round"></path><path id="face_17_outline_svg__c" stroke="#000" stroke-width="1" stroke-linejoin="round" stroke-linecap="round" fill="none" d="M706.007 243.3q8.828 2.835 12.716 7.695 6.56 6.398 6.56 14.822 0 9.72-8.828 16.361-8.747 6.642-21.14 6.318-4.536-.081-8.504-1.134-7.128-1.782-12.717-6.318-8.747-7.046-8.747-16.766 0-.567.08-1.053-.404-.243-.728-.405-4.05-2.187-7.452-5.427-4.374-4.292-5.75-8.91 6.074 2.35 12.473 2.998.324-.486.729-.81 4.374-4.455 9.8-7.209 7.209-3.726 15.308-3.726 3.24 0 6.48.567 4.374.81 8.829 2.592.486.162.89.405Zm0 0q-4.536-1.458-9.72-1.7-.486-.082-.972-.082-12.392-.324-21.22 6.318-2.35 1.782-4.05 3.807-4.374 5.103-4.617 11.582"></path><path id="face_17_outline_svg__e" stroke="#000" stroke-width="1" stroke-linejoin="round" stroke-linecap="round" fill="none" d="M803.526 263.225q.324-.243.648-.405 3.726-2.187 6.884-5.427 4.05-4.292 5.346-8.91-5.67 2.35-11.582 2.998-.243-.486-.648-.81-4.05-4.455-9.072-7.209-6.641-3.726-14.174-3.726-2.997 0-5.994.567-3.969.81-8.1 2.592-.485.162-.81.405 4.131-1.458 8.91-1.7.486-.082.972-.082 11.42-.324 19.601 6.318 2.187 1.782 3.726 3.807 4.05 5.103 4.293 11.582Zm0 0q.08.486.08 1.053 0 9.72-8.099 16.766-5.184 4.536-11.744 6.318-3.726 1.053-7.857 1.134-11.501.324-19.6-6.318-8.1-6.641-8.1-16.36 0-8.425 5.993-14.823 4.374-5.589 11.826-7.695"></path><path id="face_17_outline_svg__g" stroke="#000" stroke-width="1.5" stroke-linejoin="round" stroke-linecap="round" fill="#000" d="M711.279 263.83q0 1.7-1.243 2.878-1.178 1.243-2.878 1.243-1.701 0-2.944-1.243-1.178-1.178-1.178-2.878 0-1.701 1.178-2.944 1.243-1.178 2.944-1.178 1.7 0 2.878 1.178 1.243 1.243 1.243 2.944Z"></path><path id="face_17_outline_svg__i" stroke="#000" stroke-width="1.5" stroke-linejoin="round" stroke-linecap="round" fill="#000" d="M780.629 263.08q0 1.7-1.243 2.878-1.178 1.243-2.878 1.243-1.701 0-2.944-1.243-1.178-1.178-1.178-2.878 0-1.701 1.178-2.944 1.243-1.178 2.944-1.178 1.7 0 2.878 1.178 1.243 1.243 1.243 2.944Z"></path><path id="face_17_outline_svg__k" stroke="#000" stroke-width="1" stroke-linejoin="round" stroke-linecap="round" fill="none" d="M712.391 329.48q-1.053-.648-1.944-1.296m47.22 3.807q-.323.08-.566.243-11.016 5.183-23.65 4.13-11.583-.971-21.06-6.884"></path><g id="face_17_outline_svg__b" fill="#000"><path d="M1267 624.2q-2-.35-4-.35-5 0-9.45 2.3-3.35 1.7-6.05 4.45-.25.2-.45.5-3.95-.4-7.7-1.85.85 2.85 3.55 5.5 2.1 2 4.6 3.35.2.1.45.25.15-4 2.85-7.15 1.05-1.25 2.5-2.35 5.45-4.1 13.1-3.9.3 0 .6.05 3.2.15 6 1.05-.25-.15-.55-.25-2.75-1.1-5.45-1.6Z"></path><path fill="#FFF" d="M1280.85 630.8q-2.4-3-7.85-4.75-2.8-.9-6-1.05-.3-.05-.6-.05-7.65-.2-13.1 3.9-1.45 1.1-2.5 2.35-2.7 3.15-2.85 7.15-.05.3-.05.65 0 6 5.4 10.35 3.45 2.8 7.85 3.9 2.45.65 5.25.7 7.65.2 13.05-3.9 5.45-4.1 5.45-10.1 0-5.2-4.05-9.15Z"></path></g><g id="face_17_outline_svg__d" fill="#000"><path fill="#FFF" d="M1302.75 630.8q-3.7 3.95-3.7 9.15 0 6 5 10.1t12.1 3.9q2.55-.05 4.85-.7 4.05-1.1 7.25-3.9 5-4.35 5-10.35 0-.35-.05-.65-.15-4-2.65-7.15-.95-1.25-2.3-2.35-5.05-4.1-12.1-3.9-.3 0-.6.05-2.95.15-5.5 1.05-4.6 1.3-7.3 4.75Z"></path><path d="M1337.85 634.75q2.5-2.65 3.3-5.5-3.5 1.45-7.15 1.85-.15-.3-.4-.5-2.5-2.75-5.6-4.45-4.1-2.3-8.75-2.3-1.85 0-3.7.35-2.45.5-5 1.6-.3.1-.5.25 2.55-.9 5.5-1.05.3-.05.6-.05 7.05-.2 12.1 3.9 1.35 1.1 2.3 2.35 2.5 3.15 2.65 7.15.2-.15.4-.25 2.3-1.35 4.25-3.35Z"></path></g><g id="face_17_outline_svg__j" stroke="#000"><path d="m1328.85 678.95.1.3q5.85 3.65 13 4.25 7.8.65 14.6-2.55.05-.2.15-.35-2.7-1.95-6.95-3.25-6.85-1.8-13.7-1-3.95.45-7.4 1.75.05.4.2.85Z"></path><path d="M1328.95 679.25q.7 2.3 2.3 4.35 2.65 3.4 6.8 5 4.2 1.6 8.3.75 4.15-.85 7.3-4.05 1.95-2 2.9-4.35-6.8 3.2-14.6 2.55-7.15-.6-13-4.25Z"></path></g></defs><use xlink:href="#face_17_outline_svg__a" transform="matrix(1 0 0 1 .005 0)"></use><g transform="matrix(1.61992 0 0 1.61992 -1356.15 -770.85)"><use xlink:href="#face_17_outline_svg__b"></use><use xlink:href="#face_17_outline_svg__c" transform="matrix(.61731 0 0 .61731 837.15 475.85)"></use></g><g transform="matrix(1.61992 0 0 1.61992 -1356.15 -770.85)"><use xlink:href="#face_17_outline_svg__d"></use><use xlink:href="#face_17_outline_svg__e" transform="matrix(.61731 0 0 .61731 837.15 475.85)"></use></g><g transform="matrix(1.30835 0 0 1.30835 271.15 -476.5)"><use xlink:href="#face_17_outline_svg__f"></use><use xlink:href="#face_17_outline_svg__g" transform="matrix(.76431 0 0 .76431 -207.2 364.15)"></use></g><g transform="matrix(1.30835 0 0 1.30835 340.5 -477.25)"><use xlink:href="#face_17_outline_svg__h"></use><use xlink:href="#face_17_outline_svg__i" transform="matrix(.76431 0 0 .76431 -260.25 364.75)"></use></g><g transform="matrix(1.61992 0 0 1.61992 -1440.4 -770.85)"><use xlink:href="#face_17_outline_svg__j"></use><use xlink:href="#face_17_outline_svg__k" transform="matrix(.61731 0 0 .61731 889.15 475.85)"></use></g></svg>