<svg xmlns="http://www.w3.org/2000/svg" preserveAspectRatio="none" viewBox="0 0 1500 1500" fill="#fee8d3" xmlns:xlink="http://www.w3.org/1999/xlink"><defs><path d="M708.2 242.55q.087.002.15 0h.1q9.599.174 19.5.65-.95-4.6-3.75-8.4-1.65-2.2-3.8-4.15-8.05-7-19.45-7-11.4 0-19.35 7-.9.9-1.8 1.7-1.25 1.25-2.25 2.8-2.65 3.6-3.45 7.85 16.532-.738 34-.45h.1m93.95.3q-1.45-9.65-9.25-15.1-18.8-7.05-31.7 6.9-2 3.1-2.8 6.75-1.6-1.1-3.4-2.05-13.169 12.96-18.35 44.45l-.2 1.25q-.87 5.499-1.5 11.55 14.55 4.15 27.75 6.05 8.15 1 8.85-.45-.15-20.6-1.3-33.2-1.1-11.4-3.05-16.25-2.1-5.8-6.8-9.8 9.95-.55 19.6-.6.85-.35 1.9-.35 1 0 1.85.35 9.35 0 18.4.5Z" id="face_16_fill_svg__a"></path><path id="face_16_fill_svg__b" stroke="#000" stroke-width="1.5" stroke-linejoin="round" stroke-linecap="round" fill="none" d="M708.125 242.55h.075"></path></defs><g><use xlink:href="#face_16_fill_svg__a"></use><use xlink:href="#face_16_fill_svg__b"></use></g></svg>