<svg xmlns="http://www.w3.org/2000/svg" viewBox="0 0 1500 1500" fill="#fee8d3" xmlns:xlink="http://www.w3.org/1999/xlink" preserveAspectRatio="none"><defs><path fill="#FFF" d="M753.6 252.55q3.615 8.677 5.6 21.3.446.503.9 1 6.65 7.5 16.35 7.5 9.65 0 16.45-7.5 6.75-7.4 6.75-18 0-2.55-.4-4.9-21.8-1.2-45.6.25-.025.19-.05.35m-78.75-.6q-.45 2.35-.45 4.9 0 10.6 7.85 18 7.85 7.5 19.05 7.5 11.25 0 19.1-7.5 7.85-7.4 7.85-18 0-2.35-.35-4.65-27.65-1.45-53.05-.25Z" id="face_15_outline_svg__a"></path><path d="M1176.6 542.05q-.7-.7-1.7-.7t-1.7.7q-.7.7-.7 1.7t.7 1.7q.7.7 1.7.7t1.7-.7q.7-.7.7-1.7t-.7-1.7Z" id="face_15_outline_svg__c" fill="#000"></path><path d="M1176.6 542.05q-.7-.7-1.7-.7t-1.7.7q-.7.7-.7 1.7t.7 1.7q.7.7 1.7.7t1.7-.7q.7-.7.7-1.7t-.7-1.7Z" id="face_15_outline_svg__d" fill="#000"></path><path id="face_15_outline_svg__b" stroke="#000" stroke-width="2" stroke-linejoin="round" stroke-linecap="round" fill="none" d="M759.225 273.85q.421.503.875 1 6.65 7.5 16.35 7.5 9.65 0 16.45-7.5 6.75-7.4 6.75-18 0-2.55-.4-4.9-21.8-1.2-45.6.25l-.05.375q3.615 8.652 5.625 21.275 1.737 10.908 2.275 24.8-.1 3.75-5.6 3.5-11.3-.95-23.8-5.2m19.8-48.05q.892 1.74 1.7 3.675m3.2-9.425q-2.35 4.15-3.15 9.05m45.6-.25q-1.8-6.75-3.35-9.5m-68 9.75q.35 2.3.35 4.65 0 10.6-7.85 18-7.85 7.5-19.1 7.5-11.2 0-19.05-7.5-7.85-7.4-7.85-18 0-2.55.45-4.9.85-4.5 3.4-8.3m-20.85 12.4q5.9-1.5 10.6-.65m-8.55 10.9q2.8-2.8 10.2-4.1m5.2-10.25q25.4-1.2 53.05.25-.95-4.9-3.75-9.05M706.35 338q-6.05 10.85-6.65 18.7m9.4-5.75q25.55-2.1 56.1-.9"></path></defs><g><use xlink:href="#face_15_outline_svg__a"></use><use xlink:href="#face_15_outline_svg__b"></use></g><use xlink:href="#face_15_outline_svg__c" transform="matrix(2.17896 0 0 2.17896 -1852.6 -927.4)"></use><use xlink:href="#face_15_outline_svg__d" transform="matrix(2.17896 0 0 2.17896 -1782.2 -927.4)"></use></svg>