<svg xmlns="http://www.w3.org/2000/svg" viewBox="0 0 1500 1500" fill="#fee8d3" xmlns:xlink="http://www.w3.org/1999/xlink" preserveAspectRatio="none"><defs><path fill="none" d="M792.85 270.85q0 11.65-8.2 19.85-8.2 8.2-19.85 8.2-11.65 0-19.85-8.2-8.2-8.2-8.2-19.85 0-11.65 8.2-19.85 8.2-8.2 19.85-8.2 11.65 0 19.85 8.2 8.2 8.2 8.2 19.85Zm-76.2-.7q0 11.65-8.2 19.85-8.2 8.2-19.85 8.2-11.65 0-19.85-8.2-8.2-8.2-8.2-19.85 0-11.65 8.2-19.85 8.2-8.2 19.85-8.2 11.65 0 19.85 8.2 8.2 8.2 8.2 19.85Zm17.3 19.75q1.5 5.95 6.6 7.75 5.05 1.75 6.95 3.1 1.85 1.2 2.5 4.65.5 3.45-1.05 5.9-1.6 2.55-4.95 3.25-3.45.75-10.05.3" id="face_14_outline_svg__b" stroke="#000" stroke-width="2" stroke-linejoin="round" stroke-linecap="round"></path><path d="M-13.8 3.45Q.793-3.362 17.1 4.65" id="face_14_outline_svg__c" fill="none" stroke="#000" stroke-width="1.5" stroke-linejoin="round" stroke-linecap="round"></path><g id="face_14_outline_svg__a" fill="#000"><path fill="#FFF" d="M668.75 250.3q-8.2 8.2-8.2 19.85 0 11.65 8.2 19.85 8.2 8.2 19.85 8.2 11.65 0 19.85-8.2 8.2-8.2 8.2-19.85 0-11.65-8.2-19.85-8.2-8.2-19.85-8.2-11.65 0-19.85 8.2m23.3 18.85q1.5-1.4 3.6-1.4t3.6 1.4q1.5 1.4 1.5 3.35 0 1.95-1.5 3.35-1.5 1.4-3.6 1.4t-3.6-1.4q-1.5-1.4-1.5-3.35 0-1.95 1.5-3.35m52.9-18.15q-8.2 8.2-8.2 19.85 0 11.65 8.2 19.85 8.2 8.2 19.85 8.2 11.65 0 19.85-8.2 8.2-8.2 8.2-19.85 0-11.65-8.2-19.85-8.2-8.2-19.85-8.2-11.65 0-19.85 8.2M758 270.05q1.5-1.4 3.6-1.4t3.6 1.4q1.5 1.4 1.5 3.35 0 1.95-1.5 3.35-1.5 1.4-3.6 1.4t-3.6-1.4q-1.5-1.4-1.5-3.35 0-1.95 1.5-3.35Z"></path><path d="M695.65 267.75q-2.1 0-3.6 1.4t-1.5 3.35q0 1.95 1.5 3.35 1.5 1.4 3.6 1.4t3.6-1.4q1.5-1.4 1.5-3.35 0-1.95-1.5-3.35-1.5-1.4-3.6-1.4m65.95.9q-2.1 0-3.6 1.4t-1.5 3.35q0 1.95 1.5 3.35 1.5 1.4 3.6 1.4t3.6-1.4q1.5-1.4 1.5-3.35 0-1.95-1.5-3.35-1.5-1.4-3.6-1.4Z"></path></g></defs><g><use xlink:href="#face_14_outline_svg__a"></use><use xlink:href="#face_14_outline_svg__b"></use></g><use xlink:href="#face_14_outline_svg__c" transform="matrix(-1.4116 -.37823 .37823 -1.4116 707.95 337.35)"></use></svg>