<svg xmlns="http://www.w3.org/2000/svg" viewBox="0 0 1500 1500" fill="#fee8d3" xmlns:xlink="http://www.w3.org/1999/xlink" preserveAspectRatio="none"><defs><path fill="none" d="M737.05 335.625q-3.942.299-7.8-.025-13.65-1.05-20.35-4.05" id="face_13_outline_svg__a" stroke="#000" stroke-width="1.5" stroke-linejoin="round" stroke-linecap="round"></path><path d="m751.15 256.8 6.5-3.05 6.475-1.5q1.209-.195 2.475-.3 11.4-.95 19.8 4.2 8.4 4.95 9.1 13.1.7 8.05-6.8 14.6-2.293 1.957-4.95 3.375l-5.525 2.375-6.2 1.375m-16.925-1.4q.045.132.1.275.95 2 1.25 3.95.3 1.95 0 4.1-.45 2.35-1.7 5.05-1.05 2-2.35 3.45-1.65 1.7-3.8 2.6-3.95 1.45-10.95.65-7-.6-10.9-3.35-2.35-1.65-3.25-4.4-.25-1.35-.25-2.4.2-1.25.6-2.55m17.35-38.9q.05 1.05 0 1.95 0 .6.1 1.15 0 1.65.15 3.15.315 1.157.55 2.35m9.15-9.85q-1.79 1.157-3.4 2.55-4.061 3.489-5.7 7.5.079.397.15.8.25.7.5 1.45.45 1.9 1.35 3.65 1.1 2.15 2.35 4.2 1.75 2.8 6.05 8.05 1.7 2.296 2.6 4.475 6.608 2.44 14.75 1.725 1.129-.094 2.225-.225M742 266.65q.03.095.05.2m13 22.625q.02.046.05.1" id="face_13_outline_svg__c" fill="none" stroke="#000" stroke-width="2" stroke-linejoin="round" stroke-linecap="round"></path><path d="M717.6 272.95q0 8.05-8.35 13.5-8.35 5.4-20.2 4.85-11.95-.55-20.3-6.7-8.4-6.15-8.4-14.2 0-8.15 8.4-13.6 8.3-5.3 20.25-4.75 11.85.5 20.25 6.6 8.35 6.1 8.35 14.3Z" id="face_13_outline_svg__d" stroke="#000" stroke-width="2" stroke-linejoin="round" stroke-linecap="round" fill="none"></path><g id="face_13_outline_svg__b" fill="#000"><path fill="#FFF" d="m686.15 251.95-16.9 4.5q-.121.095-.25.15-.12.117-.25.2l-7.9 9.7q-.55 1.856-.55 3.9 0 2.019.55 3.9l7.9 10.3q8.3 6.15 20.3 6.7l15.8-2.55q2.3-1 4.4-2.35 8.3-5.4 8.3-13.5 0-2.037-.5-3.95l-7.8-10.3q-3.56-2.57-7.75-4.15l-9.15-2.2q-1.638-.22-3.35-.3-1.447-.06-2.85-.05m13.55 13.75q2.7 0 4.65 1.95 2.1 2 2.1 4.8 0 2.7-2.1 4.75-1.95 2-4.65 2-2.8 0-4.8-2-1.95-2.05-1.95-4.75 0-2.8 1.95-4.8 2-1.95 4.8-1.95m55.35 23.75q.02.071.05.1 6.546 2.407 14.6 1.7 1.183-.099 2.3-.3-1.071.156-2.2.25-8.142.714-14.75-1.75M742 266.65q.03.095.05.2 1.639-4.011 5.7-7.5 1.61-1.393 3.4-2.55-1.882 1.156-3.55 2.6-3.93 3.377-5.6 7.25m15.65-12.9-6.5 3.05q-1.79 1.157-3.4 2.55-4.061 3.489-5.7 7.5.079.397.15.8.25.7.5 1.45.45 1.9 1.35 3.65 1.1 2.15 2.35 4.2 1.75 2.8 6.05 8.05 1.7 2.296 2.6 4.45 6.608 2.464 14.75 1.75 1.129-.094 2.2-.25l6.2-1.35 5.55-2.4q2.56-1.424 4.8-3.35 7.55-6.5 6.85-14.55-.7-8.15-9.1-13.1-8.45-5.15-19.85-4.2-1.186.099-2.35.25l-6.45 1.5m2.8 13.7q1.9-1.85 4.6-1.85 2.65 0 4.5 1.85 2 1.9 2 4.65 0 2.55-2 4.45-1.85 1.95-4.5 1.95-2.7 0-4.6-1.95-1.85-1.9-1.85-4.45 0-2.75 1.85-4.65Z"></path><path d="M704.35 267.65q-1.95-1.95-4.65-1.95-2.8 0-4.8 1.95-1.95 2-1.95 4.8 0 2.7 1.95 4.75 2 2 4.8 2 2.7 0 4.65-2 2.1-2.05 2.1-4.75 0-2.8-2.1-4.8m60.7-2.05q-2.7 0-4.6 1.85-1.85 1.9-1.85 4.65 0 2.55 1.85 4.45 1.9 1.95 4.6 1.95 2.65 0 4.5-1.95 2-1.9 2-4.45 0-2.75-2-4.65-1.85-1.85-4.5-1.85Z"></path></g></defs><use xlink:href="#face_13_outline_svg__a"></use><g><use xlink:href="#face_13_outline_svg__b"></use><use xlink:href="#face_13_outline_svg__c"></use></g><use xlink:href="#face_13_outline_svg__d"></use></svg>