<svg xmlns="http://www.w3.org/2000/svg" preserveAspectRatio="none" viewBox="0 0 1500 1500" fill="#fee8d3" xmlns:xlink="http://www.w3.org/1999/xlink"><defs><path d="M741.45 264.3q-.15-1.5-.15-3.15-9.65-.45-17.45 35.8-.4 1.3-.6 2.55 0 1.05.25 2.4.9 2.75 3.25 4.4 3.9 2.75 10.9 3.35 7 .8 10.95-.65 2.15-.9 3.8-2.6 1.3-1.45 2.35-3.45 1.25-2.7 1.7-5.05.3-2.15 0-4.1-.3-1.95-1.25-3.95-.055-.143-.1-.3-.03-.029-.05-.1-.9-2.154-2.6-4.45-4.3-5.25-6.05-8.05-1.25-2.05-2.35-4.2-.9-1.75-1.35-3.65-.25-.75-.5-1.45-.071-.403-.15-.8-.02-.105-.05-.2-.235-1.193-.55-2.35Z" id="face_13_fill_svg__a"></path></defs><use xlink:href="#face_13_fill_svg__a"></use></svg>