<svg xmlns="http://www.w3.org/2000/svg" preserveAspectRatio="none" viewBox="0 0 1500 1500" fill="#fee8d3" xmlns:xlink="http://www.w3.org/1999/xlink"><defs><g id="face_12_fill_svg__a"><path d="M739.7 316.25q4.25 0 8.2-2.2 3.85-2.05 6.2-5.6.3-.7.6-1.45.25-.85-.2-2.15-.5-1.3-6.4-6.85-5.95-5.55-6.2-10.75-10.2 12.7-2.2 29ZM658.2 265.5q-1.85 4.152-1.85 9 0 11 9.8 19.2 9.85 8.25 23.8 8.75 3.4.05 6.6-.2 2.9-.3 5.7-.95 3.15-.85 6.05-2.25t5.45-3.4q7.45-5.45 9.4-12.9 1.05-3.2 1.05-6.65 0-5.693-2.9-10.6h-.45q2.95 4.95 2.95 10.7-.2-5.748-3.2-10.7h-62.4m84.6 9q.031 1.787.3 3.65 1.5 10.9 10.2 17.8 8.75 7.15 19.25 6.1 10.75-.95 17.05-9.3 6.253-7.958 5.15-18.25H742.8Z"></path></g></defs><use xlink:href="#face_12_fill_svg__a"></use></svg>