<svg xmlns="http://www.w3.org/2000/svg" viewBox="0 0 1500 1500" fill="#fee8d3" xmlns:xlink="http://www.w3.org/1999/xlink" preserveAspectRatio="none"><defs><path fill="#000" d="M764.95 341.55q-2.3-3.6-6.65-5.75-11.4-5.1-23.7-1.85-11.75 2.9-22.6 8.35 12.6 4.05 25.3 4.05 12.65 0 18.95-2 6.3-1.95 8.7-2.8m-52.95.75q3.6 4.9 9 7.6 11.85 6 25 5.8 15.05-.9 18.95-14.15-2.4.85-8.7 2.8-6.3 2-18.95 2-12.7 0-25.3-4.05m0 0q.2-.75.35-1.1-.05.1-.15.1-.65.05-.2 1Z" id="face_10_outline_svg__b"></path><path id="face_10_outline_svg__d" fill="#FFF" d="M799.3 240.85q-9.4-5.75-21.75-3.7-9.25 1.3-16 6.75-2.3 1.85-4.35 4.3-6.6 7.2-7.15 16 0 1.4.1 3.25.95 10.45 10.45 16.3 9.3 6 21.8 3.95 12.4-2.2 20.25-11 6.85-7.6 7.25-16.4 0-1.55-.3-3.15-.9-10.1-10.3-16.3Z"></path><path fill="#000" d="M782 265.25q0-3.05-2.1-5.2-2.15-2.1-5.2-2.1-2.95 0-5.2 2.1-2 2.15-2 5.2 0 2.95 2 5.1 2.25 2.1 5.2 2.1 3.05 0 5.2-2.1 2.1-2.15 2.1-5.1Z" id="face_10_outline_svg__e"></path><path id="face_10_outline_svg__f" d="M777.6 237.2q12.3-2.05 21.75 3.7 9.35 6.2 10.3 16.3.25 1.55.25 3.1 1.5-1.65 2.6-3.1 3.6-4.65 5.45-9.85-1.3 1.1-2.95 2.4-.65.3-3.45 1.7-3.85-9.25-11.75-14.2-7.85-5-15.8-4.35-7.9 1.05-14.3 5-6.2 4-8.15 6.05 6.8-5.5 16.05-6.75Z"></path><path id="face_10_outline_svg__h" fill="#FFF" d="M729.65 268.35q.15-1.75.05-3.3-.05-3.8-1.65-7.45-.25-.6-.65-1.2-2.3-4.4-5.55-7.75-.35-.45-.9-.95-11.5-8.7-23.1-9.7-11.35-1.2-18.8 1.85-7.4 2.85-11.2 6.75-3.85 3.8-5.05 6.5-1.15 2.6-1.4 4.5-.3 1.5-.3 2.15.2 8.8 7.9 16.65 8.95 9.2 23.05 11.5 14.15 2.5 25.15-3.15 10.95-5.9 12.45-16.4Z"></path><path id="face_10_outline_svg__i" fill="#000" d="M711.7 265.7q0-3.05-2.1-5.2-2.15-2.1-5.2-2.1-2.95 0-5.2 2.1-2 2.15-2 5.2 0 2.95 2 5.1 2.25 2.1 5.2 2.1 3.05 0 5.2-2.1 2.1-2.15 2.1-5.1Z"></path><path id="face_10_outline_svg__j" fill="#000" d="M707.8 237.9q-7.35-4.15-15.95-4.9-8.8-.75-18.25 3.8-9.45 4.6-13.7 14.15-3.35-1.85-4.05-2.6-.75-.9-3.35-3.15 2.3 7.9 4.9 10.75.4.45.75.85.45.45.75.8 1.45 1.5 2.2 2.15 0-.65.3-2.15.25-1.9 1.4-4.5 1.2-2.7 5.05-6.5 3.8-3.9 11.2-6.75 7.45-3.05 18.8-1.85 11.6 1 23.1 9.7-5.95-5.9-13.15-9.8Z"></path><path id="face_10_outline_svg__a" stroke="#000" stroke-width="2" stroke-linejoin="round" stroke-linecap="round" fill="none" d="M743.35 267.55q.45 4 .35 8.25 0 3.7.85 6.65.8 2.95 3.3 6.3 2.45 3.25 6.15 7.2 3.6 4 5.9 7.25.55.75 1.1 1.55-.25 2.9-5.15 6.15-4.251 2.805-7.4 4.15-.43.19-.85.35-2.05.65-3.05 1.15"></path><path id="face_10_outline_svg__c" stroke="#000" stroke-width="2" stroke-linejoin="round" stroke-linecap="round" fill="none" d="M764.95 341.55q.85-.55 1.6-1m-57.05.8q1.3.5 2.5.95 12.6 4.05 25.3 4.05 12.65 0 18.95-2 6.3-1.95 8.7-2.8"></path><path id="face_10_outline_svg__g" stroke="#000" stroke-width="2" stroke-linejoin="round" stroke-linecap="round" fill="none" d="M809.9 260.3q0-1.55-.25-3.1-.95-10.1-10.3-16.3-9.45-5.75-21.75-3.7-9.25 1.25-16.05 6.75-2.3 1.85-4.35 4.25-6.55 7.2-7.1 16 0 1.4.1 3.25.9 10.45 10.45 16.3 9.25 6 21.75 4 12.4-2.25 20.3-11.05 6.85-7.6 7.2-16.4 1.5-1.65 2.6-3.1 3.6-4.65 5.45-9.85-1.3 1.1-2.95 2.4-.65.3-3.45 1.7-3.85-9.25-11.75-14.2-7.85-5-15.8-4.35-7.9 1.05-14.3 5-6.2 4-8.15 6.05"></path><path id="face_10_outline_svg__k" stroke="#000" stroke-width="2" stroke-linejoin="round" stroke-linecap="round" fill="none" d="M720.95 247.7q.55.5.9.95 3.25 3.35 5.55 7.75.4.6.65 1.2 1.6 3.65 1.65 7.45.1 1.55-.05 3.3-1.5 10.5-12.45 16.4-11 5.65-25.15 3.15-14.1-2.3-23.05-11.5-7.7-7.85-7.9-16.65-.75-.65-2.2-2.15-.3-.35-.75-.8-.35-.4-.75-.85-2.6-2.85-4.9-10.75 2.6 2.25 3.35 3.15.7.75 4.05 2.6 4.25-9.55 13.7-14.15 9.45-4.55 18.25-3.8 8.6.75 15.95 4.9 7.2 3.9 13.15 9.8-11.5-8.7-23.1-9.7-11.35-1.2-18.8 1.85-7.4 2.85-11.2 6.75-3.85 3.8-5.05 6.5-1.15 2.6-1.4 4.5-.3 1.5-.3 2.15"></path></defs><use xlink:href="#face_10_outline_svg__a"></use><g><use xlink:href="#face_10_outline_svg__b"></use><use xlink:href="#face_10_outline_svg__c"></use></g><use xlink:href="#face_10_outline_svg__d"></use><use xlink:href="#face_10_outline_svg__e"></use><g><use xlink:href="#face_10_outline_svg__f"></use><use xlink:href="#face_10_outline_svg__g"></use></g><use xlink:href="#face_10_outline_svg__h"></use><use xlink:href="#face_10_outline_svg__i"></use><g><use xlink:href="#face_10_outline_svg__j"></use><use xlink:href="#face_10_outline_svg__k"></use></g></svg>