<svg xmlns="http://www.w3.org/2000/svg" viewBox="0 0 1500 1500" fill="#fee8d3" xmlns:xlink="http://www.w3.org/1999/xlink" preserveAspectRatio="none"><defs><path fill="#FFF" d="M12-6.15v-.05q-1-1.75-2.55-3.25-4-3.85-9.55-3.8-5.65.05-9.5 3.95-3.95 3.9-3.9 9.35.05 5.55 4.05 9.45 3.9 3.8 9.55 3.75 5.55-.05 9.5-3.9.8-.75 1.45-1.55v-.05q2.5-3.45 2.45-7.9-.05-3.3-1.5-6Z" id="face_09_outline_svg__c"></path><path id="face_09_outline_svg__d" fill="#000" d="M3.85-.05q-.05-1.6-1.2-2.75-1.1-1.1-2.7-1.05-1.6 0-2.7 1.1Q-3.85-1.6-3.8 0q0 1.6 1.1 2.7T0 3.8q1.6-.05 2.7-1.15 1.15-1.1 1.15-2.7Z"></path><path fill="#FFF" d="M16.5-.15q-.1-5.55-4.9-9.45-4.9-3.95-11.7-3.85-6.85 0-11.6 4.05-4.85 4-4.8 9.5.05 5.6 4.95 9.55 4.8 3.85 11.65 3.8 6.8-.05 11.65-3.95Q16.5 5.4 16.5-.15Z" id="face_09_outline_svg__f"></path><path id="face_09_outline_svg__a" stroke="#000" stroke-width="2" stroke-linejoin="round" stroke-linecap="round" fill="none" d="M749.2 284.55q-.1 9.3 10.55 17.35t8.15 18.35q-2.5 10.2-16.7 10.8"></path><path id="face_09_outline_svg__b" stroke="#000" stroke-width="1.5" stroke-linejoin="round" stroke-linecap="round" fill="none" d="M-12 .4Q.7-.95 12-.1"></path><path id="face_09_outline_svg__e" stroke="#000" stroke-width="1.5" stroke-linejoin="round" stroke-linecap="round" fill="none" d="M12-6.2q1.45 2.75 1.5 6.05.05 4.45-2.45 7.95-.65.8-1.45 1.55-3.95 3.85-9.5 3.9-5.65.05-9.55-3.75-4-3.9-4.05-9.45-.05-5.45 3.9-9.35 3.85-3.9 9.5-3.95 5.55-.05 9.55 3.8Q11-7.95 12-6.2Z"></path><path id="face_09_outline_svg__g" stroke="#000" stroke-width="1.5" stroke-linejoin="round" stroke-linecap="round" fill="none" d="M16.5-.15q0 5.55-4.75 9.65Q6.9 13.4.1 13.45q-6.85.05-11.65-3.8Q-16.45 5.7-16.5.1q-.05-5.5 4.8-9.5 4.75-4.05 11.6-4.05 6.8-.1 11.7 3.85 4.8 3.9 4.9 9.45Z"></path></defs><use xlink:href="#face_09_outline_svg__a"></use><use xlink:href="#face_09_outline_svg__b" transform="translate(740.3 353.15) scale(1.6613)"></use><use xlink:href="#face_09_outline_svg__c" transform="translate(776.85 269.35) scale(1.6613)"></use><use xlink:href="#face_09_outline_svg__d" transform="translate(777.1 270.2) scale(1.6613)"></use><use xlink:href="#face_09_outline_svg__e" transform="translate(776.85 269.35) scale(1.6613)"></use><use xlink:href="#face_09_outline_svg__f" transform="translate(699.8 270.45) scale(1.6613)"></use><use xlink:href="#face_09_outline_svg__d" transform="translate(711.15 270.85) scale(1.6613)"></use><use xlink:href="#face_09_outline_svg__g" transform="translate(699.8 270.45) scale(1.6613)"></use></svg>