<svg xmlns:xlink="http://www.w3.org/1999/xlink"  xmlns="http://www.w3.org/2000/svg" viewBox="0 0 1500 1500" fill="#fee8d3" id="a_face_20_outline_svg__Layer_1" x="0" y="0" xml:space="preserve"><style>.a_face_20_outline_svg__st0{fill:none;stroke:#000;stroke-width:1.5;stroke-linecap:round;stroke-linejoin:round}.a_face_20_outline_svg__st1{fill:#fff}.a_face_20_outline_svg__st2{fill:none;stroke:#000;stroke-width:1.5;stroke-linecap:round;stroke-linejoin:round;stroke-miterlimit:3.9999}</style><g transform="translate(650.05 211)"><path id="a_face_20_outline_svg__Symbol_2_0_Layer0_0_1_STROKES" class="a_face_20_outline_svg__st0" d="M91.2 0c2.4 11.2 2.1 20.1-.8 26.8m15 45.3c3.4 4.6 6.9 7.6 10.4 8.9M12.1 54.5c-3.9 1-7.2 2.8-9.9 5.3m62.5 6.5c-6.4 8-13.1 12.9-20 14.7M10.6 49c-4.2-.1-7.8.6-10.6 2m47.7 67.7c-5.8 3.3-9.7 8.7-11.7 16.1m77.6-9.7c2.8 6.7 4.2 13.1 4.3 19.3m-28.6 36.5c-1.7 1.3-2.7 3.1-2.9 5.6m-35-55.9c18.6 12.5 36.8 15.7 54.8 9.5"></path></g><g transform="translate(650.05 211)"><path class="a_face_20_outline_svg__st1" d="M40.9 41.6c-.1 0-.3.1-.4.1-.1 0-.2.1-.3.1h-1.5c-.2 0-.4 0-.7.1-.3 0-.5.1-.8.2h-.8c-.1 0-.1.1-.1.1h-1c-.2 0-.3.1-.5.1s-.4.1-.6.2h-.5c-.1 0-.2.1-.2.1-.1 0-.1.1-.2.1h-1c-.1 0-.1.1-.2.1h-.8c-.1 0-.3.1-.4.1-.1 0-.1.1-.2.1H29.8c-.2.1-.4.1-.6.2-.2.1-.3.2-.5.3h-.3l-.4-.3c0 .1 0 .2-.1.3-.3 1.5-.5 3-.5 4.6 0 6.2 2.5 11.5 7.4 15.9 5 4.4 11.1 6.6 18.1 6.6 7.1 0 13.1-2.2 18-6.6 5-4.4 7.6-9.7 7.6-15.9 0-1.4-.1-2.8-.4-4.2-1.3-.2-2.5-.3-3.8-.3h-2v-.1c-.1 0-.1-.1-.2-.1h-.2c-.1 0-.1-.1-.2-.1H70.8c-.1 0-.1-.1-.2-.1h-.2c-.1 0-.1-.1-.2-.1H70s-.1 0-.2-.1c-.1 0-.1-.1-.2-.1h-.4c-.1 0-.1-.1-.2-.1h-.2c-.1 0-.2-.1-.2-.1-.1 0-.1-.1-.2-.1H68c-.2-.1-.3-.1-.5-.2h-.6c-.3 0-.5-.1-.8-.1h-.9c-.3 0-.7-.1-.9-.1h-.2c-.1 0-.3-.1-.4-.1h-.5c-.1 0-.3-.1-.4-.1h-1c-1.3-.2-2.5-.3-3.9-.3H42.6c-.1 0-.1 0-.2.1-.1 0-.1.1-.2.1h-1.1c.1-.3-.1-.3-.2-.3z" id="a_face_20_outline_svg__Symbol_2_0_Layer0_1_FILL"></path></g><g transform="matrix(1.7341 0 0 1.83862 -1410.25 -773.85)"><path d="M1226.1 563.2c.4-.5.7-1 .7-1.6 0-.6-.2-1.2-.7-1.6-.5-.4-1-.7-1.7-.7-.6 0-1.1.2-1.6.7-.4.5-.7 1-.7 1.6 0 .6.2 1.1.7 1.6.5.4 1 .6 1.6.6.7 0 1.2-.2 1.7-.6z" id="a_face_20_outline_svg__Symbol_2_0_Layer0_2_FILL" fill="#000"></path></g><g transform="matrix(.99999 0 0 1 650.035 210.917)"><path id="a_face_20_outline_svg__Symbol_2_0_Layer0_2_1_STROKES" class="a_face_20_outline_svg__st2" d="M1226.7 561.6c0 .6-.2 1.1-.7 1.6-.5.4-1 .6-1.6.6-.6 0-1.1-.2-1.6-.6-.4-.5-.6-1-.6-1.6 0-.6.2-1.2.6-1.6.5-.4 1-.7 1.6-.7.6 0 1.2.2 1.6.7.5.4.7.9.7 1.6z"></path></g><g transform="translate(650.05 211)"><path id="a_face_20_outline_svg__Symbol_2_0_Layer0_3_1_STROKES" class="a_face_20_outline_svg__st0" d="M52.5 25.5c7.1 0 13.1 2.2 18 6.7 3.7 3.3 6.1 7.1 7.1 11.4.3 1.5.4 3 .4 4.6 0 6.2-2.5 11.5-7.5 15.9-4.9 4.4-11 6.6-18 6.6-7.1 0-13.1-2.2-18.1-6.6-5-4.4-7.5-9.7-7.5-15.9 0-1.6.2-3.1.5-4.6 17.3-3.3 34-3.3 50.2 0"></path></g><g transform="translate(650.05 211)"><path id="a_face_20_outline_svg__Symbol_2_0_Layer0_4_1_STROKES" class="a_face_20_outline_svg__st0" d="M105 37.3c-1.4 2.9-2.4 5.7-2.8 8.2-.5 2.6-.5 5.4-.1 8.4 2.1 16.3 5.5 32.7 10.1 49.2 2.1 7.7-.3 12-7.3 12.9-4.9.6-9.7.4-14.4-.5-5.2-1-9.7-2.9-13.5-5.6"></path></g><g transform="translate(650.05 211)"><path class="a_face_20_outline_svg__st1" d="M153.1 48.2c0-1.6-.2-3.1-.5-4.6v-.2c-2.2.4-4.4.4-6.7 0-5.4-.9-10.9-1.6-16.5-2-1.3.1-2.7.2-4.1.3-5.8.2-11.6.9-17.2 2.1-.2 1.4-.3 2.9-.3 4.4 0 6.2 2.2 11.5 6.7 15.9 4.3 4.4 9.7 6.6 16 6.6 6.2 0 11.6-2.2 16-6.6 4.4-4.4 6.6-9.7 6.6-15.9z" id="a_face_20_outline_svg__Symbol_2_0_Layer0_5_FILL"></path></g><g transform="translate(650.05 211)"><path id="a_face_20_outline_svg__Symbol_2_0_Layer0_6_1_STROKES" class="a_face_20_outline_svg__st0" d="M107.8 43.6c-.2 1.5-.4 3-.4 4.6 0 6.2 2.2 11.5 6.7 15.9 4.3 4.4 9.7 6.6 16 6.6 6.3 0 11.6-2.2 16.1-6.6 4.4-4.4 6.6-9.7 6.6-15.9 0-1.6-.1-3.1-.4-4.6-15.5-3.3-30.3-3.3-44.6 0 .9-4.3 3-8.1 6.3-11.4 4.3-4.4 9.7-6.7 16-6.7m22.1 18.1c-.6-3.4-2.1-6.6-4.4-9.4"></path></g><g transform="matrix(1.7341 0 0 1.83862 -1339.7 -773.85)"><path d="M1226.1 563.2c.4-.5.7-1 .7-1.6 0-.6-.2-1.2-.7-1.6-.5-.4-1-.7-1.7-.7-.6 0-1.1.2-1.6.7-.4.5-.7 1-.7 1.6 0 .6.2 1.1.7 1.6.5.4 1 .6 1.6.6.7 0 1.2-.2 1.7-.6z" id="a_face_20_outline_svg__Symbol_2_0_Layer0_7_FILL" fill="#000"></path></g><g transform="matrix(.99999 0 0 1 650.007 210.917)"><path id="a_face_20_outline_svg__Symbol_2_0_Layer0_7_1_STROKES" class="a_face_20_outline_svg__st2" d="M1226.7 561.6c0 .6-.2 1.1-.7 1.6-.5.4-1 .6-1.6.6-.6 0-1.1-.2-1.6-.6-.4-.5-.7-1-.7-1.6 0-.6.2-1.2.7-1.6.5-.4 1-.7 1.6-.7.6 0 1.2.2 1.6.7.5.4.7.9.7 1.6z"></path></g></svg>