<svg xmlns="http://www.w3.org/2000/svg" preserveAspectRatio="none" viewBox="0 0 1500 1500" fill="#fee8d3" xmlns:xlink="http://www.w3.org/1999/xlink"><defs><path d="M733.65 267.15q.3.2.55.45.1.1.2.25.25.45.35 1v.1q2.6.25 2.5-3.2-.3-10.6-9.95-18.95-10-9.15-24.25-9.4-14.2-.25-24.45 8.2-5.9 5.1-8.35 11.4.25.1.4.2l2.7.7q.1.05.2.05.05 0 .15.1.75.15 1.55.3 3.7.85 7.15 1.2 3.5.25 10.3.7 7.45.4 19.7 2 9.5 1.3 14.8 2.8 5.35 1.5 6.45 2.1m63.95-20.45q-6.85-7.15-19.45-6.5-12.6.7-21.3 9.65-8.2 8.2-8.8 16.55-.4 2.55.45 2.7.75.1 1.85-.15.1-.35.25-.85 0-.05.05-.1.05-.2.15-.35 0-.15.15-.25.1-.15.25-.25.7-.65 2.8-1.4l2.85-.95q13.2-4.4 42.35-4.9l3.45-.15 2.05-1.35v-.15q-.45-4.55-7.1-11.55Z" id="face_02_fill_svg__a"></path></defs><use xlink:href="#face_02_fill_svg__a"></use></svg>