<svg xmlns="http://www.w3.org/2000/svg" xmlns:xlink="http://www.w3.org/1999/xlink" preserveAspectRatio="none" viewBox="0 0 1500 1500" fill="#fee8d3"><defs><path fill="none" d="M792.6 260.05q3.65 9.15 6.55 18.45 1.3 4.45 2.45 8.95.512 3.858.55 7.6.048-4.344-.55-8.85-1.15-4.5-2.45-8.95-2.785-8.932-6.25-17.725m9.25 35.525q.08 7.183-1.6 13.9-5.1 20.95-12.9 41.25l-1.2 3.1q-.95 2.9-2 6.15-2.05 6.4-3.8 11.6-3.5 10.35-6.2 15.9-1.85 4.75-5.1 9.1-5.05 6.85-13.4 8.9-.7.15-1.4.35-2.1.4-4.2.75-3.4.5-6.9.8-13.75.9-26.8-3-28.4-10.6-49.05-23.3-7-4.45-11.65-9.05-.15-.2-.45-.45-5.15-5.3-7.35-10.65-.45-1.55-.85-3-2.8-9.65-5.1-19.4-1.85-7.35-3.4-14.7-.3-1.1-.45-2.1-.173-.803-.35-1.6" id="a_head_17_outline_svg__a" stroke="#000" stroke-width="3" stroke-linejoin="round" stroke-linecap="round"></path><path id="a_head_17_outline_svg__b" stroke="#000" stroke-width="3" stroke-linejoin="round" stroke-linecap="round" fill="none" d="M625.05 260.05q-5.14-10.948-4.9-56.125.233-45.168 40.25-68.925 40.022-23.763 95.25-2.9 36.743 22.45 40.825 47.725 4.084 25.272 3.225 36.525l2.5 18.45q0 1.15-.05 3.35t-.6 4.15q-.55 1.95-4.1 8.7-.45.85-.8 1.75-.15.2-.3.35-.8 1.45-3.65 3.85"></path><path id="a_head_17_outline_svg__c" stroke="#000" stroke-width="3" stroke-linejoin="round" stroke-linecap="round" fill="none" d="M646.4 291.5q-.8-1.45-1.55-3.05-1-2.15-2.05-4.7-3.05-7.6-5-11.05-3.4-5.8-8.05-9.45-5.4-4.2-11.3-4.2h-.25q-4.9.1-9.1 3.25-4.1 3-6.2 7.7-3.7 8.1-1.4 19.8 3.5 15.6 13.45 23.05 7.1 5.3 18.05 6.65 1.5.2 3.25.35.95 0 2.2.1"></path><path id="a_head_17_outline_svg__d" stroke="#000" stroke-width="2" stroke-linejoin="round" stroke-linecap="round" fill="none" d="M617.6 270.6q9.8 7.25 15.05 17.25-2.9 4.4-2.9 9.05.2 3.3 1.85 6.2 1.85 3.1 4.75 4.55"></path><path id="a_head_17_outline_svg__e" stroke="#000" stroke-width="3" stroke-linejoin="round" stroke-linecap="round" fill="none" d="M625.05 260.05q-5.14-10.948-4.9-56.125.233-45.168 40.25-68.925 40.022-23.763 95.25-2.9 36.743 22.45 40.825 47.725 4.084 25.272 3.225 36.525l2.5 18.45q0 1.15-.05 3.35t-.6 4.15q-.55 1.95-4.1 8.7-.45.85-.8 1.75-.15.2-.3.35-.8 1.45-3.65 3.85"></path><path id="a_head_17_outline_svg__f" stroke="#000" stroke-width="3" stroke-linejoin="round" stroke-linecap="round" fill="none" d="M646.4 292.75q-.8-1.45-1.55-3.05-1-2.15-2.05-4.7-3.05-7.6-5-11.05-3.4-5.8-8.05-9.45-5.4-4.2-11.3-4.2h-.25q-4.9.1-9.1 3.25-4.1 3-6.2 7.7-3.7 8.1-1.4 19.8 3.5 15.6 13.45 23.05 7.1 5.3 18.05 6.65 1.5.2 3.25.35.95 0 2.2.1m-20.85-49.35q9.8 7.25 15.05 17.25-2.9 4.4-2.9 9.05.2 3.3 1.85 6.2 1.85 3.1 4.75 4.55"></path></defs><use xlink:href="#a_head_17_outline_svg__a"></use><use xlink:href="#a_head_17_outline_svg__b"></use><g><use xlink:href="#a_head_17_outline_svg__c"></use><use xlink:href="#a_head_17_outline_svg__d"></use></g><use xlink:href="#a_head_17_outline_svg__e" transform="translate(0 1.25)"></use><use xlink:href="#a_head_17_outline_svg__f"></use></svg>