<svg xmlns="http://www.w3.org/2000/svg" xmlns:xlink="http://www.w3.org/1999/xlink" preserveAspectRatio="none" viewBox="0 0 1500 1500" fill="#fee8d3"><defs><path fill="none" d="M603.05 278.2q13.6 1.55 20.55 10.3-1.098 6.884 1.15 11.825" id="a_head_21_outline_svg__a" stroke="#000" stroke-width="1.5" stroke-linejoin="round" stroke-linecap="round"></path><path id="a_head_21_outline_svg__b" stroke="#000" stroke-width="3" stroke-linejoin="round" stroke-linecap="round" fill="none" d="M624.475 269.225Q606.879 150.108 696 142.65q92.829-6.99 100.725 90.3.189 2.222.325 4.5-.187 4.89-.55 8-.133 1.02-.275 1.85-.575 3.367-4.25 13.85-3.68 10.475-.025 27.7.892 31.912-7.5 46.65-8.384 14.73-10.075 16.7-1.694 1.982-4.45 6.175-2.76 4.187-8.3 14.775-5.539 10.594-8.025 16.55-8.478 9.938-36.8 5.4-20.002-4.729-42.3-21.325-22.299-16.585-23.55-18.475-1.55-2-2.85-4.3-.45-.8-.8-1.55-.3-.45-.55-.9-1.85-3.4-3.6-7.4-.8-1.75-1.45-3.45-3-7.25-7.9-25.35-4.277 5.587-9.225 5.6-4.95.017-7.55-.75-2.587-.78-7.1-4.35-4.525-3.56-7.925-7.95-3.392-4.402-5.75-11.1-2.373-6.697-1.225-13.8 1.156-7.098 4.4-9.6 3.228-2.5 3.925-2.925.708-.436 3.075-1.3 2.36-.86 4.275-1.075h.1q2.9-.25 6.2.3.75.1 1.35.35 3.318.835 6.125 3.475 2.046 1.906 3.825 4.75"></path></defs><g><use xlink:href="#a_head_21_outline_svg__a"></use><use xlink:href="#a_head_21_outline_svg__b"></use></g></svg>