<svg xmlns="http://www.w3.org/2000/svg" xmlns:xlink="http://www.w3.org/1999/xlink" preserveAspectRatio="none" viewBox="0 0 1500 1500" fill="#fee8d3"><defs><path d="m691.7 139.45-3.2.4q-.85.1-1.6.25-14.6 2.3-26.7 7.55-5.2 2.35-9.7 5.15-9.9 6.05-16.95 14.4-4.45 5.4-7.85 11.75-4.75 8.9-7.3 19.9-.05.45-.15.95-.1.25-.15.55-3.45 15.95-1.95 34.35 1.1 14.25 5.65 35.25 1.5 7.15 2.75 12.85-1.25.65-2.45 1.6-5.35 4.2-7.6 10.65-2.1 5.85-1.45 12.75.65 6.3 3.5 12.6 6.75 14.35 18.9 19.3 6.3 2.7 13.2 2.25 3.15 11.85 9.4 22.6 1.25 2.15 2.6 4.25 1.35 2.05 2.75 3.95.395.206.8.55.414.383 2.4 2.6 1.982 2.223 6.35 4.85 2.745 3.017 6.75 5.05 4.055 2.033 13.85 4.75 2 .031 2.8.2.8.169 1.55 1.5 3.2 1.6 6.95 3.4.35.2.7.35 11.25 5.45 19.3 7.9 10.65 3.25 20.7 2.95 3.2-.2 6.15-.7 7.55-1.35 13.6-5 7.4-4.45 14.1-13.95 1.1-1.5 2-3 16.05-25.2 19.5-55 .9-7.3 1.4-15.2.6-10.25.5-23.05 1.6-14.3 2.45-23 .75-8.4 1-16.05.5-13.75-.65-25.1-2.05-22.15-10.85-40.5-1.45-3.15-3-6-9-16.2-22.75-26.25-17.65-12.85-43.05-15.55-.6-.05-1.2-.05-14.75-1.45-32.05.85-.5.05-1 .15Z" id="head_04_fill_svg__a"></path></defs><use xlink:href="#head_04_fill_svg__a"></use></svg>