<svg xmlns="http://www.w3.org/2000/svg" xmlns:xlink="http://www.w3.org/1999/xlink" preserveAspectRatio="none" viewBox="0 0 1500 1500" fill="#fee8d3"><defs><path fill="none" d="M609.1 291.65q12.75 1.4 17.7 7.75-1.3 15 8.7 19.95" id="head_02_outline_svg__a" stroke="#000" stroke-width="1.5" stroke-linejoin="round" stroke-linecap="round"></path><path id="head_02_outline_svg__b" stroke="#000" stroke-width="3" stroke-linejoin="round" stroke-linecap="round" fill="none" d="m644.95 307.3-.4-.85q-.4-.9-.7-1.7-1.15-2.75-2.35-5.1-.35-.65-.65-1.25-5.404-9.779-12.35-14.275-6.54-4.236-14.45-3.775-13.75.8-15.55 17-1.6 22.8 18.2 32.75 9.75 4.25 21.25 3.75 1.25-.1 2.75-.225 4.245 10.431 8.2 16.725 4.75 7.45 7.9 11.8 6 8.2 12.75 14.05 13.841 11.507 23.7 15.75 9.853 4.248 11.05 4.8 1.25.55 1.9.8 20.35 7.3 35.3 7.3 5.8-.05 13.8-5.5 3.7-2.85 10.35-8.05 25.95-20.5 31.1-52.25 2.1-14.55.1-44.05-.3-8.1.25-13.8.029-.2.05-.4l.05-.15-.025.025q.032-.26.075-.525.042-.292.075-.6.583-3.94 1.475-9.75 2.35-15.35 1.75-46.35-.05-2.15-.2-5.7-.1-3.6-.5-11.6-.35-8-1.3-20-1-11.95-11.8-21.2-19.1-14.85-68.85-19.1-29.95-.85-49.9 5.5-14.75 5.05-24.75 16.95-7.6 9.3-10.7 20.7-1.9 6.65-3 13.7-.3 1.75-.5 3.55-1.95 16.7-2.15 25.9-.25 9.1-.2 17.8 0 8.65.8 22.8.337 5.637 1 11.375m168.7-3.475q.021-.254.05-.5"></path></defs><g><use xlink:href="#head_02_outline_svg__a"></use><use xlink:href="#head_02_outline_svg__b"></use></g></svg>