<svg xmlns="http://www.w3.org/2000/svg" xmlns:xlink="http://www.w3.org/1999/xlink" preserveAspectRatio="none" viewBox="0 0 1500 1500" fill="#2f1b12"><defs><path id="hair_04_outline_svg__b" d="M788.15 121.05q2.503 8.146 2.7 16.475.19 8.334-4.675 21.475-4.861 13.136-21.075 21.75.909.03 1.8.05.25-.05.55 0 2.95 0 5.7-.2h1.1q8.057-.454 13.9-3 9.51-3.64 13-13.475 3.495-9.825 3.9-17.525.15-11.3-2.05-22.45-2.3-11.65-9.75-21.5-7.45-9.9-19.35-15.4-11.8-5.4-20.8-7.1-9.05-1.75-19.95-2.9-20.75-3.6-35.25-18.05-.45 3.8.1 8.9.6 5.1 3.35 10.05 2.7 4.95 8.7 9.1-6.15-2.15-14.05-2.6-7.8-.45-14.7 1.25-6.8 1.7-18.25 5.9-11.5 4.2-17.15 5.65-9.9 2.5-18.6 2-8.65-.6-13.75-4.15 3.4 9 11.3 12.6 6.1 2.8 10.35 3.1h.85q.85 0 1.6-.1m127.45 69.85q-5.348-.189-11.6-.825-3.832-.376-8-.925-2.355-.378-4.65-.725-2.894-.458-5.7-.875-11.4-1.805-19.175-2.85-7.774-1.035-18.35-1.625-10.576-.593-17.6.25-7.025.836-8.65 1.15.066.91.125 1.825 2.55 33.3-28.8 61.7 1.703 15.83 1.7 29.15v.05l1.6 8.55-14.8 2.4-8.6-19.2-6.6-.4-5.15-2.25q-8.9-64.3-9.45-79.95-.2-8.55-.15-11.85.25-18.5 6.35-27.4-4.9 4.4-7.65 7.6-2.8 3.05-4.35 4.55 2.7-13.95 8.95-21.4 3.3-3.95 6.05-6.15 2.7-2.2 8.9-5.5 2.4-1.35 5.3-2.45.65-.1 1.15-.3 3.4-1.25 7.25-2 .8-.15 1.5-.25.3-.05.5-.05m125.95-11.45q10.5 8.1 15.7 18.5 4.147 9.945 3.725 18.425-.42 8.493-5.45 23.225-5.029 14.72-21.625 20.225m34.65-2.325q12.585-3.087 15.8 4.55 4.913 13.635.1 27.55 11.45-19.25 9.9-39.85-1.7-15.95-8.9-23.25M691.7 129.45q30.55 7.25 49.15 48.825m30.8 44.325q6.55 2.3 18.55 1.25 9.05-.5 13.15 4.35.95 1.15 1.65 2.55.9 4-.7 9.25l-.05.05-.2-.1q-5.2-2.8-12.2-3.55-7.15-.75-19.75-.2-4.75.55-5.95-.15-1.9-1.05-2.05-4.4-.3-8.25.5-14.8.85 3.35 7.05 5.75Zm-43.45-5.05q-11.5 1.8-28.55 2.8-8.25.45-13.55 1.4-5.25.95-9 4.9-3.8 3.95-8.5 15.55 8.8-6.7 14.35-8.5 12.7-1.55 28.95-2 14.5.15 20.8-2.2 6.3-2.45 10.4-17-3.4 3.3-14.9 5.05Zm-83.95 53.8q.15-1.15.15-2.05.012-1.111 0-2.25" fill="none" stroke="#000" stroke-width="2" stroke-linejoin="round" stroke-linecap="round"></path><g id="hair_04_outline_svg__a"><path fill="#FCD0A8" d="m631.85 318.7-.15-1.15.1 1.15h.05m12.4-47.35q.15-1.15.15-2.05l-.3-.25.1 2q0 .1.05.3Z"></path><path fill="#A89275" d="M693.4 394.55q-.8-.15-1.6-.25-.1 0-.15-.05.9 1.7 1.75.3Z"></path></g></defs><g><use xlink:href="#hair_04_outline_svg__a"></use><use xlink:href="#hair_04_outline_svg__b"></use></g></svg>