<svg xmlns="http://www.w3.org/2000/svg" xmlns:xlink="http://www.w3.org/1999/xlink" preserveAspectRatio="none" viewBox="0 0 1500 1500" fill="#2f1b12"><defs><path d="m700.9 221.5-1.9-.6q-.25-.1-.45-.1-.75-.25-1.55-.45-1.1-.4-2.25-.65-7.7-2.1-12.35-2.6-.4-.1-.7-.1-.65-.1-1.3-.1-3.9.3-7.45 1.55-7.95 2.25-14.6 6.55-1.55 1.05-3.05 2.1-3.6 2.65-6.75 5.8 15-5.05 30.5-5.15Q687.15 229 699 233q5.35 1.8 11.4 4.1 6.3 2.4 11.9 4.1.45.2 1.05.35.35-.05.65-.15.5-.3.65-.85.2-.2.1-.6-.1-.55-.1-.65l-.45-3.05q-.65-2.75-1.05-3.9-.2-1.15-.85-2.3-.5-1.25-2.3-2.2l-.85-.55q-.85-.3-1.6-.6-4.75-1.6-9.05-2.95-.75-.15-1.4-.45-.75-.2-1.45-.4-2.45-.85-4.75-1.4m105.25-2.3q-.35-.2-.65-.3-2.65-1.25-5.7-1.55-.5 0-1.05.1-.2 0-.65.1-3.75.5-10.1 2.6-.95.25-1.9.65-.65.2-1.25.45-.15 0-.35.1-.85.3-1.6.6-1.95.55-4 1.4-.6.2-1.15.4-.6.3-1.25.45-3.6 1.35-7.6 2.95-.55.3-1.25.6l-.75.55q-1.5.95-2.1 2.2-.65 1.15-1.05 2.3-.35 1.15-1.2 3.9l-.75 3.05q0 .1-.1.65-.2.4 0 .6 0 .55.35.85.3.1.5.15.55-.15.95-.35 4.65-1.7 9.85-4.1 5.15-2.3 9.6-4.1 9.9-4 16.55-5.25 3.45 0 6.85.5.1-4.75-.2-9.5M695.2 119.05q-1.25.1-2.45.2-23.8 2.7-43.35 13.5-21.1 11.7-32.2 30.3-3.15 5.25-5.45 11.05-3.6 8.85-5.3 18.95-2.6 15.3-.95 32.25 1.2 14.1 5.7 31.8.45 1.9 1.2 4.55.3 1.25.65 2.6 1.1 3.6 2.4 8.3l23.95 16.5q-.55-2.3-.95-4.45-.65-2.75-1.15-5.5-1.75-8.7-3.2-17.45-2.05-11.6-3.35-23.4 12.1-30 20.75-59.8 1.3-2.3 3.15-4.35 10.15-12.1 32-18.55 15.85-4.7 32.5-5.9 16.55-1.3 32.9.9 12.35 1.75 21.55 5.55 6.65 2.6 12.1 7.6 3.2 2.95 5.95 6.55 1.25 1.85 2.35 3.85 1.75 3.15 3.35 6.65 1.05 2.4 2 4.85-1-5.95-3.05-11.5-3.3-9.05-9.2-17.55-10.45-14.95-26.2-24.25-14.85-8.85-33.2-12-15.6-2.8-32-1.3-.2 0-.5.05Z" id="a_hair_33_fill_svg__a"></path></defs><use xlink:href="#a_hair_33_fill_svg__a"></use></svg>