<svg xmlns="http://www.w3.org/2000/svg" xmlns:xlink="http://www.w3.org/1999/xlink" preserveAspectRatio="none" viewBox="0 0 1500 1500" fill="#2f1b12"><defs><path id="a_hair_32_outline_svg__a" d="M668.4 128.7q33.05 4.9 23.05 31.95 12.9-3.4 29.75-3.05h.2q3.9-8.4-.55-20.4-4.45-12-21.35-14.6M640 144.05q35.5 3.5 24.3 30.45 4.8-3.7 10.85-7.25 7.15-4.25 16.3-6.6m-2.4 224.95q-22.6-16.35-28.6-29.65-6.05-13.35-8.1-22.7-2.05-9.4-6.65-69.65-1.9-38.25-1.3-58.35.45-16.15 19.9-30.75m76.1-51.8q29.85 12.6 12.75 38.25 8.25 1.4 17.1 3.45l8.4 1.35m-57.25-8.15q14.4.3 31.75 3.35m4.25 73.9q-2.6 5.25-4 9.25l37.25-7.05q3.55-1.2 4.5-3.05m0-.25q.2-.45.3-.9-.05-.7-.1-1.3-.05-.15-.05-.3-.65-1.55-2.3-1.95-.7-.2-1.65-.1-14.9.8-33.7 5.65m-94.7 4.95q6.2-8.25 34.15-8.4 20.8.3 39 3.2-3.6 5.85-8.55 7.4-3.15.85-11.95.25l-52.65-2.45Z" fill="none" stroke="#000" stroke-width="1.5" stroke-linejoin="round" stroke-linecap="round"></path><path id="a_hair_32_outline_svg__b" stroke="#000" stroke-width="3" stroke-linejoin="round" stroke-linecap="round" fill="none" d="M778.65 165.75q2.55-2.8 4.55-6.55t3.3-11.05q1.25-7.35-3.75-15.5-8-13.35-29-20.85-18-6.6-37.1-7.5-15.6-.75-43.5 4.3-27.85 5-55.4 27.55-27.5 22.5-30.55 54.35-.35 4.95-.25 10.2.25 28.65 1.4 53.3 1.25 24.6 3.05 46.45 1.8 21.8 2.3 49.55.55 27.65-28.75 37.55 38.55 28.7 74.2 8.15 3.05-1.75 6.1-3.45-14.1 15.05-33.95 21.4 37.8 6.65 60.6-1.25 22.85-8 17.15-26.8"></path></defs><g><use xlink:href="#a_hair_32_outline_svg__a"></use><use xlink:href="#a_hair_32_outline_svg__b"></use></g></svg>