<svg xmlns="http://www.w3.org/2000/svg" xmlns:xlink="http://www.w3.org/1999/xlink" preserveAspectRatio="none" viewBox="0 0 1500 1500" fill="#fee8d3"><defs><path d="M689 133.3q-.15.05-.35.1-.2.05-.4.15-.15.05-.35.1l-.05.05h-.45q-.15 0-.35.05-.2.05-.35.05-.2.05-.35.1-.15.05-.35.15-.2.05-.35.15-.25 0-.45.05-.25 0-.5.05-.2.05-.45.1l-.4.1q-.25.1-.45.2h-1.95q-.45 0-.9.05-.4.05-.85.15-.4.1-.8.25-.15 0-.3.05h-.7q-.25 0-.45.05t-.45.1q-.2 0-.4.1l-.4.1q-.2.1-.35.15-.2.05-.4.05-.15 0-.35.05-.15.05-.35.1-.2.05-.45.1l-.4.2h-.4q-.2.05-.4.05l-.4.1q-.2.05-.35.15-.2.05-.4.15-.15.05-.35.15-.15.05-.35.1-.15 0-.3.05-.2.05-.35.1-.15.05-.35.15-.2 0-.4.05-.2 0-.4.05l-.4.1-.4.1q-.2.05-.4.15-.2.1-.35.2-.15.05-.35.05-.15.05-.3.15l-.3.1q-.15.05-.3.15l-.4.1-.4.1q-.2.05-.4.15l-.4.2q-.05.05-.1.05-.05.05-.1.05-.2.05-.35.1-.15.05-.3.15-.2.05-.35.15l-.3.1q-.15.05-.35.1-.15.05-.3.15-.15.05-.3.15-.1.05-.25.15l-.3.1q-.2.1-.35.2-.15.05-.3.15l-.3.2q-.15.1-.35.2-.2.15-.35.3-.05 0-.1.05-.15.05-.3.15-.2.05-.35.15-.15.1-.35.2l-.3.2-.3.2q-.15.1-.3.25-.2.1-.35.2-.2.1-.35.2-.2.15-.35.25-.2.1-.4.15-.15.1-.35.2-.1.1-.25.15-.1.1-.25.2-.1.1-.25.15-.2.05-.4.15-.2.05-.4.15-.25.1-.4.2-.1.05-.2.15l-.3.1q-.15.05-.3.15-.15.05-.25.15-.15.05-.3.15-.1.05-.2.15-.1.1-.2.15-.2.1-.35.2l-.4.2q-.15.1-.35.2-.2.1-.35.2-.2.1-.4.15-.2.1-.4.15-.2.05-.4.15-.2.05-.4.15-.2.1-.4.25l-.3.1q-.2.05-.35.15-.15.05-.35.15-.1.05-.2.15-.15.05-.25.1l-.3.1q-.15.1-.3.15l-.05.05q-.2.05-.35.15l-.4.2q-.15.05-.25.1l-.3.2q-.15.1-.35.2-.15.15-.35.25-.2.05-.35.15-.2.1-.35.15-.1.1-.2.15-.15.05-.3.15l-.3.1q-.15.05-.25.15l-.3.2q-.2.05-.35.15-.2.05-.35.15-.2.1-.35.25l-.3.2-.25.25q-.15.05-.3.15-.15.05-.35.15-.15.1-.3.25-.15.05-.25.2-.15.05-.25.2-.2.05-.4.15l-.4.2-.3.2q-.15.1-.25.2-.15.1-.3.25l-.2.2q-.15.1-.25.2l-.2.2q-.05.1-.15.2l-.2.2-.25.25q-.1.1-.15.2-.1.1-.2.15-.1.1-.2.15l-.5.3q-.3.2-.55.45l-.5.5q-.25.25-.5.55l-.4.6q-.1.15-.25.3l-.2.3q-.1.2-.25.4-.1.15-.25.35v.05q-.15.15-.25.35l-.2.3q-.05.05-.1.15-.05.05-.15.1-.1.15-.25.3-.1.1-.25.2-.1.15-.25.3-.1.1-.25.2-.15.2-.25.35-.15.2-.3.35-.1.2-.2.35-.1.15-.15.25-.05.15-.1.25-.15.1-.25.25l-.2.2-.2.3q-.15.1-.25.25-.15.2-.25.35l-.1.1-.5.6-.5.7q-.2.25-.4.55l-.3.6-.2.4q-.15.3-.25.6-.15.15-.3.35-.15.15-.25.3l-.3.4q-.1.2-.2.35-.15.2-.25.4-.15.1-.25.25-.15.1-.25.25l-.2.3-.2.3-.2.3q-.05.15-.15.3-.05.1-.15.2-.05.15-.15.25-.032.127-.1.25l-.25.05q-.6.15-1.1.5-.4.35-.85.55-.55.35-.95.85l-.7 1q-.1.1-.15.2-.35.35-.55.85-.15.35-.25.75l-.1.6q-.15.45-.15.9 0 .5.2.95l.1.2q-.2.05-.35.1-.2.05-.35.1-.15.05-.3.15-.2.05-.35.15l-.3.2q-.15.1-.25.2l-.3.2q-.15.1-.25.25l-.25.25q-.1.15-.2.25l-.2.3q-.1.2-.15.4l-.2.4-.1.4-.1.3q-.1.55-.1 1.15v2.45q-.029.772-.05 1.55l-.15.05q-.15 0-.3.05-.1.05-.25.1t-.25.1q-.1.1-.25.15l-.2.2-.2.2q-.05.1-.15.25-.05.15-.1.25l-.1.3q-.05.15-.05.3-.05.1-.05.2-.1.15-.15.3-.05.1-.1.25t-.05.25q-.05.15-.05.3-.05.2-.05.35 0 .2-.05.4v.35l-.1.3-.1.3q-.05.1-.1.25 0 .15-.05.3t-.05.35q-.05.2-.05.4-.05.15-.05.35-.05.15-.05.3-.1.3-.15.65-.1.3-.1.6-.1.35-.1.75-.05.35-.1.75-.1.55-.25 1.15l-.3 1q-.15.65-.25 1.3-.1.5-.1 1v.9q-.1.1-.2.25t-.15.3-.15.3l-.1.3-.1.3q-.2 1.6-.2 3.25 0 2.1.05 4.25v4.2q0 2.2-.05 4.4-.05 2.15.5 4.2v1.35q-.05.75 0 1.55.05.7.15 1.45.1.65.25 1.35.15.65.35 1.3v4.55q0 1.2.15 2.35.2 1.3.3 2.55.15 1.35.45 2.6v.4q0 .95.1 1.9.05.55.15 1.15.15.65.35 1.3.2.7.65 1.35.047.066.1.1-.248.52-.35 1.1-.1.8-.1 1.6 0 1.45.35 2.85.3 1.2.65 2.4 0 .25.05.5 0 .25.05.45l.1.5.1.4.1.4v1.35q0 .55.1 1.1t.35 1q.2.5.55.9.35.4.8.7l.2.3q.1.1.2.25t.25.25q.3.25.6.45.25.15.6.3.3.15.65.2.35.1.7.1h.25q.45.75 1.05 1.45.6.65 1.15 1.45.55.85 1.2 1.65.8 1 1.65 1.9.75.8 1.5 1.65.75.8 1.6 1.6v.4l.1.4q.1.2.15.35l.2.4q.1.15.15.3.1.15.2.25t.25.2q.1.05.25.1.15 0 .3.05.15-.05.3-.05.15-.05.25-.1l.05-.05q.293.33.55.6.02.132.05.25v.3q.05.2.05.35.05.15.05.35-.05.15-.05.3t-.05.3q.05.15.05.3t.05.35l.1.3q.05.1.15.25.1.15.15.25.1.15.25.25.1.1.2.15.1.1.25.2.15.05.25.1.15.1.3.15.15.05.25.1.1 0 .25.05H634.05q.152-.038.25-.1.16.21.3.4.6.7 1.15 1.4.6.7 1.25 1.4.2.45.45.9.2.4.4.75.25.4.45.8.25.4.45.75.25.45.5.85.25.45.45.85l.5.8q.1.2.25.35.3.4.75.8.4.35.9.6.45.3 1 .4.55.15 1.1.15.45 0 .85-.05.35-.05.7-.15.35-.05.75-.15.15-.1.35-.15.15-.1.35-.2l.6-.5q.25-.2.5-.5t.45-.6q.2-.35.3-.7.15-.4.2-.75.1-.4.15-.8-.05-.2-.05-.4t-.05-.4-.05-.4q-.05-.2-.1-.35l-.1-.4q-.1-.15-.15-.35l-.2-.3q-.1-.2-.2-.35-.1-.15-.25-.3-.1-.15-.25-.25l-.2-.2q-.15-.1-.25-.2-.053-.053-.1-.15v.05l-.05-.05v-.05l-.05-.05-.05-.1q-.1-.1-.15-.25-.05-.15-.15-.25-.027-.048-.05-.1.473.1.95.1.55 0 1.1-.15 1.05-.2 1.9-.85.85-.6 1.4-1.5.65-1 .75-2.2.1-1.5-.6-2.85-.5-.9-1.25-1.6-.1-.35-.25-.65l-.3-.6q-.078-.124-.15-.25v-.25q0-.45-.1-.9-.1-.5-.25-1-.15-.45-.4-.85-.15-.3-.35-.55l-.1-.15q-.048-.066-.1-.15h-.05q-.078-.153-.2-.3-.05-.15-.1-.25-.1-.15-.15-.25-.15-.2-.25-.35-.15-.15-.25-.35l-.3-.3q-.1-.2-.25-.35-.15-.15-.25-.3-.15-.2-.3-.35l-.2-.3q-.1-.05-.15-.15-.05-.15-.1-.35-.1-.15-.15-.35-.05-.05-.05-.15 0-.2-.05-.4v-.35q-.05-.2-.05-.4-.05-.2-.05-.4-.05-.2-.05-.4h-.05l.7-.9q.3-.45.55-.95.2-.5.3-1.05.1-.55.15-1.1.05-.55.05-1.15.05-.7 0-1.4l.55-.55q.55-.65.85-1.35.35-.8.45-1.6.15-.85.15-1.7.05-.9 0-1.75t-.2-1.7q.3-.8.6-1.65.4-1.05.65-2.15.2-1.1.35-2.2.1-1.1.25-2.25l.2-2.3q.55-1.7 1.15-3.35.8-2.25 1.65-4.55.8-2.2 1.9-4.25 1.1-2.2 1.35-4.65.15-2.2-.9-4.15l-.2-.3-.2-.3q-.1-.15-.2-.25l-.25-.25-.25-.25q-.15-.15-.3-.25t-.25-.2l-.3-.2q-.25-.1-.45-.15-.25-.1-.45-.2t-.45-.2l-.4-.1q-.2 0-.4-.05-.25 0-.45-.05h-.4q-.2.05-.45.05-.2.05-.4.05l-.4.1q-.2.05-.35.15-.15.05-.35.1-.15.05-.3.15-.15.05-.35.1l-.3.2q-.15.05-.3.15l-.3.2q-.15.1-.25.25-.3.3-.55.6-.3.35-.55.7-.3.35-.6.75-.25.35-.55.7-.3.35-.6.75-.15.15-.3.35.4-.75.75-1.55.4-.8.7-1.6.3-.85.55-1.7l.4-1.7.3-1.9.2-.4q.05-.2.15-.4.1-.2.15-.4l.2-.4q.15-.1.35-.25.15-.1.3-.25.2-.1.35-.25.15-.1.3-.25.2-.15.35-.3.2-.15.35-.3.4-.55.8-1.05.75-1 1.3-2.1.65-1.2 1.15-2.5.5-1.25.85-2.6.3-1.3.5-2.65.15-.15.3-.25t.3-.25.3-.25q.15-.15.25-.3.15-.1.3-.25.1-.15.25-.35l.2-.3q.15-.15.25-.3.05-.05.15-.1 2.2-.7 3.95-2.25 1.45-1.3 2.65-2.85 1.3-1.65 2.15-3.55.95-2.2 1.65-4.5.7-2.45.8-5 .2-.15.4-.25.15-.15.35-.3.2-.15.35-.3l.4-.3q.15-.15.35-.3.2-.05.35-.15 1.35-.5 2.75-.95l2.8-.9q1.55-.55 3-1.25 1.3-.65 2.65-1 1.35-.35 2.4-1.3.2 0 .35.05.2 0 .4.05.15.05.35.1.2 0 .4.05.2 0 .45.05h.45q.2-.05.45-.05.1-.05.25-.1.15-.1.25-.2l.2-.2q.05-.15.1-.25.05-.15.05-.3v-.3q0-.15-.05-.3-.05-.1-.1-.25l-.2-.2q-.1-.1-.25-.2-.15-.05-.25-.1H687.1q.05-.002.05-.05.2-.05.35-.1l.4-.1q.3-.05.65-.15.3-.1.6-.25t.55-.3q.25-.2.45-.45.25-.25.4-.5.2-.3.3-.6.114-.229.15-.45l.95-.3q1.2-.15 2.45-.25 1.025-.095 2.05-.2l.5.1q.15.05.3.05.2.05.35.05.05.2.15.45.05.2.15.4l.2.4.2.3q.1.15.25.3.25.3.5.55.4.4.85.65.25.1.45.2.2.05.4.15.2.1.4.15.15.05.35.1.2 0 .4.05.2 0 .35.05.2 0 .4.05.2-.05.45-.05.45-.05.85-.15l.8-.3.8-.3q.5-.2 1.05-.5.15-.1.25-.2.2-.1.35-.2.15-.15.3-.25t.3-.25l.3-.3q.25-.3.45-.6.2-.25.4-.55.808.099 1.6.2.784.201 1.55.45v.25l-.2.2-.2.2q-.1.1-.2.25-.1.1-.15.25l-.1.3q-.05.15-.05.3v.3q0 .15.05.3l.1.3q.05.15.15.25.1.15.2.25t.25.2q.1.1.25.15l.3.1q.15.05.3.05h.3q.15 0 .3-.05l.3-.1q.15-.05.25-.15.15-.1.25-.2.15-.15.35-.3.15-.2.3-.35.15-.15.3-.35.1-.2.2-.35.05-.2.15-.4l.1-.4.1-.4q0-.15.05-.35v-.1q1.523.18 3.05.35 4.8.55 9.6.85 5.1.35 10.15.55 1.5.1 2.95.25 4.2.55 7-2.35.1.05.2.15.15.05.25.15.1.1.25.2l.2.1.25.25.3.3q.15.15.35.25l.3.3q.2.15.35.25.1.15.25.3l.2.3.25.25.25.25q.15.15.3.25l.6.4 1 .7q.15.1.35.15.15.05.3.15l.3.1q.2.1.35.2.35.2.7.3.4.15.75.25.4.1.75.1.4.05.8.05.65 0 1.25-.1.15.05.35.1.2.05.4.05t.4.05q.15.05.35.1.15.1.3.15.126.031.25.05-.362.556-.6 1.15-.35 1-.3 2.05.05.85.3 1.65.2.55.55 1.05.35.55.75.95.15.15.3.25.45.4 1 .75t1.2.55q.6.15 1.2.25.5.1.95.2.45.05.95.1.45.1.9.15.6.05 1.2.05h.85q.4-.05.85-.05l.8-.1.8-.2q.35-.1.75-.25.073-.037.15-.1l.05.05.4.1q.05.15.15.25l.2.2q.1.05.25.15.05.05.1.05l.3.2.3.1.3.1h.6q.15-.05.3-.05.15-.1.3-.15.098-.033.2-.1.02.056.05.1.05.15.15.3l.2.3q.1.15.15.3.05.1.1.15l.2.6q.05.15.15.3.05.1.1.25.1.15.15.25l.1.3q.05.15.15.3.05.15.15.25v.05l.1.3q.1.15.15.3.05.15.15.3.05.1.1.15l.1.3.1.3q.05.15.15.3v1.6q.05.55.2 1.05.15.3.3.65v.3q0 .2.05.35.05.2.05.35.05.2.1.35.1.15.15.3.05.15.1.35 0 .1.05.25v.35q0 .2.05.35.05.15.05.3.15.5.4.95.05.15.15.3l.1.2q.15.2.35.45.1.15.2.25.1.15.25.3.05.05.05.1.05 0 .1.05l.2.2.3.2q.1.1.25.2.8.45 1.7.5 1.05.1 2.05-.35 1-.45 1.6-1.35.6-.9.7-1.95.1-1.25-.5-2.35l-.1-.7q0-.15-.05-.3 0-.2-.05-.35l-.1-.4q-.1-.2-.2-.35 0-.35-.05-.7-.05-.2-.05-.35-.05-.2-.1-.35l-.1-.4q-.1-.2-.2-.35v-.7q-.05-.35-.05-.75-.05-.2-.05-.4-.05-.2-.1-.45-.05-.15-.15-.35-.05-.2-.15-.35-.05-.2-.15-.4-.05-.05-.05-.1-.05-.2-.15-.4l-.1-.3q-.1-.15-.15-.35l-.2-.3q-.05-.15-.15-.3-.05-.2-.1-.35l-.2-.3-.2-.3-.1-.2q-.05-.15-.1-.25-.05-.05-.1-.15v-.1q-.15-.35-.25-.65-.05-.15-.15-.25-.1-.15-.15-.3-.1-.1-.2-.25-.05-.15-.1-.25l-.1-.2-.1-.4-.1-.3-.1-.3q-.05-.15-.15-.25-.05-.35-.1-.65-.05-.15-.1-.35-.05-.15-.15-.35-.05-.2-.15-.35l-.2-.3q-.05-.15-.15-.25-.05-.15-.15-.3-.05-.15-.1-.25-.1-.15-.15-.3l-.2-.4q-.05-.2-.15-.35v-.05q-.05-.15-.05-.3-.1-.15-.15-.35-.15-.35-.35-.75-.25-.5-.55-.9-.2-.3-.4-.55l-.2-.3q-.1-.2-.15-.35-.1-.2-.15-.4-.1-.15-.2-.35l-.2-.3q-.1-.2-.2-.35l-.1-.1q-.05-.15-.1-.35l-.1-.3q-.05-.15-.15-.3-.05-.15-.15-.3-.35-.55-.75-1.05-.2-.3-.45-.6-.4-.6-.9-1.1l-.5-.5q-.1-.2-.2-.35l-.4-.7q-.2-.25-.4-.55-.15-.15-.25-.3t-.25-.25q-.1-.1-.2-.25-.15-.05-.3-.15l-.5-.3-.3-.1q-.15-.1-.3-.15-.2-.05-.35-.1-.15 0-.3-.05-.2 0-.35-.05h-.35q-.05 0-.15-.05l-.05-.05-.2-.3q-.15-.15-.25-.3t-.25-.3l-.2-.2q-.15-.1-.3-.25-.1-.15-.25-.3-.1-.1-.2-.25-.1-.05-.15-.15-.15-.2-.25-.4-.05-.15-.15-.25-.1-.1-.15-.25l-.2-.2q-.1-.15-.15-.3-.1-.1-.2-.25-.25-.25-.55-.5-.1-.1-.25-.2-.1-.15-.25-.25l-.3-.2q-.05-.15-.15-.25-.1-.15-.2-.25-.15-.15-.25-.3-.1-.1-.2-.25-.1-.1-.2-.25-.15-.1-.25-.2-.15-.1-.25-.15-.15-.1-.3-.15-.15-.1-.3-.15-.15-.05-.35-.1-.1-.1-.25-.2t-.25-.2l-.3-.2q-.45-.35-.85-.65-.15-.1-.25-.2t-.25-.2l-.3-.2q-.15-.05-.3-.15-.1-.05-.25-.1-.15-.1-.3-.15-.2-.05-.4-.05-.136-.034-.3-.05-.111-.269-.25-.5-.15-.25-.35-.45-.3-.4-.6-.75-.1-.1-.2-.25-.1-.05-.2-.15l-.2-.2-.2-.2-.3-.3q-.05-.1-.15-.25-.05-.1-.15-.2l-.2-.2q-.1-.1-.15-.2l-.2-.1q-.05-.1-.15-.15-.15-.1-.25-.2t-.15-.2q-.05-.05-.15-.1l-.1-.1q-.1-.15-.2-.25t-.2-.25q-.1-.05-.2-.15-.1-.1-.2-.15-.1-.05-.2-.15-.1-.1-.25-.2-.1-.1-.2-.15-.15-.1-.35-.2l-.2-.2q-.1-.15-.2-.25t-.25-.2l-.2-.2q-.15-.1-.3-.15-.15-.1-.25-.15-.45-.2-.9-.3-.1-.05-.25-.1-.15-.1-.3-.15l-.3-.1q-.15-.05-.3-.05-.3-.1-.65-.15-.15-.05-.25-.1l-.3-.1q-.1-.05-.25-.1-.1-.1-.25-.2-.1-.05-.25-.1-.15-.1-.25-.15l-.3-.1q-.15 0-.3-.05-.15 0-.3-.05-.15 0-.3-.05-.1-.05-.25-.15l-.3-.1-.3-.1q-.15 0-.25-.05-.15-.1-.3-.15-.15-.1-.3-.15-.15-.05-.35-.1-.05-.1-.15-.15l-.2-.1q-.15-.05-.3-.15-.15-.05-.25-.1l-.3-.1q-.15 0-.25-.05l-.6-.1-.3-.1q-.2-.1-.35-.15-.15-.05-.35-.1-.1 0-.25-.05-.15 0-.25-.05h-.3q-.1-.1-.2-.15-.15-.05-.25-.1t-.25-.1q-.15-.05-.25-.05-.1-.1-.25-.15-.1-.05-.25-.1l-.2-.1-.3-.1q-.3-.05-.65-.1-.1-.05-.25-.15-.15-.05-.25-.1l-.3-.1q-.15-.05-.3-.05l-.3-.1q-.15-.05-.3-.15l-.3-.1q-.15-.1-.35-.15-.1-.05-.15-.05-.1-.05-.2-.05-.15-.1-.3-.15-.15-.1-.3-.15-.2-.05-.35-.1-.15 0-.3-.05t-.3-.05q-.25-.05-.55-.05-.1-.05-.25-.15-.15-.05-.25-.1l-.3-.1q-.15-.05-.35-.05-.15-.05-.3-.05-.2-.05-.35-.05-.15-.05-.35-.05h-.7l-.2-.1q-.1-.05-.25-.1-.1-.05-.25-.1t-.3-.05-.3-.05q-.1 0-.25-.05H731q-.15-.1-.25-.15-.1-.05-.25-.1-.1-.05-.25-.1-.1 0-.25-.05-.2 0-.35-.05-.2 0-.35-.05h-.35q-.15-.1-.3-.15-.15-.05-.25-.1l-.2-.1q-.1 0-.2-.05-.15 0-.35-.05-.15 0-.35-.05-.2 0-.35-.05-.15-.05-.25-.1-.15-.05-.25-.1-.15-.05-.25-.1-.15-.05-.3-.05-.2-.05-.35-.1h-.35q-.15-.05-.3-.05h-.25q-.3-.05-.55-.05l-.6-.2q-.3-.1-.65-.15l-.7-.1q-.3 0-.6-.05H720.1l-.3-.1q-.1-.05-.25-.1-.3-.05-.6-.15l-.7-.1h-.3q-.278-.03-.55-.05l-.2-.05q-.15-.05-.35-.05-.066-.017-.15-.05-.091-.014-.2-.05-.95-.25-2-.3h-2.55q-1.05 0-2.1.05-.52 0-1.05.1-1.582-.018-3.2-.05h-5.35q-2.45 0-4.85-.15-2.6-.1-5.05.65H689.75q-.15 0-.35.05-.2.05-.4.05m89.95 49.55q-.002-.05-.05-.05v-.05l.05.05v.05m9.15 6.5q0 .047.05.1l-.05-.05q-.044-.044-.05-.1.006.05.05.05Z" id="a_head_19_fill_svg__a"></path><path id="a_head_19_fill_svg__b" d="M788.25 274.5q-3.45-5.35-10.7-11.5-17-14.4-37.05-22.45-21-8.2-42.2-7.9-14.05.2-24.25 4.1-12.55 4.65-19.7 14.35-2.5 3.55-6.8 12.3l-17.65 37.7q.75 2.35 1.55 4.6 3.1 9.4 6.55 18.55.15.55.45 1.2 2.2 6.95 4.9 13.85 2.6 6.8 5.7 13.45.45 1 1 2.15 2.45 4.9 7 9.65 4.55 4.65 12.35 10.35 14.95 10.65 31.3 18.65 5.85 2.9 12.65 5 4.75 1.8 9.55 2.9 5.954 1.046 12 2.1 6.092 1.105 10.6 2.15 4.512 1.045 12.05-.6 7.585-1.644 12.15-21.8 4.557-20.165 9.9-25.55 5.399-5.386 7.2-8.95 1.8-3.505 2.3-4.35.55-1.15 1.2-2.15 9.2-17.7 8.2-34l-.1-1.2q-.1-1.3-.3-2.55-.45-3.8-1-7.7-1.8-8.95-3.45-14.1-1.65-5.15-1.95-5.95-.25-.8 1.05-5.85-1.7 4.85-2.1 4.85-.9-.4-1.65-.65-.3-.1-.45-.1-.1-.3-.3-.55Z"></path><path id="a_head_19_fill_svg__d" d="M649.1 318.25q1.2-1.5 1.75-2.85l.65-2q.55-1.45.55-1.65.1-.3-.15-1.6-2.35-11.1-5.3-17.4-.55-1.15-1.2-1.6-.3-.2-.6-.2-2-2.8-4.9-6.8-4.65-6.5-7.7-9.6-4.85-4.75-10.8-6.6-.555-.212-5.3-.2-4.699.023-15.2-8.6-10.45-8.632-7 7.6 3.501 16.285 4.45 23.4.952 7.155 6.8 16.85 5.75 9.7 15.5 14.45 9.7 4.65 21 3.05 1.05-.2 2.15-.55.2.1.55.1l.75-.4 1.2-1.65q.65-.75.5-1.05 1.1-1 2.3-2.7Z"></path><g id="a_head_19_fill_svg__c"><path d="M792 280.75q.215-1.161.45-1.55.277-.447.4-.9-.341.688-.9 1.65-.038.114-.1.2.063-.075.15.6ZM683 157.6q-1.5.55-2.95 1.05-1.95.7-4.05.95-1.35.15-2.7.15-2.35.05-3.9 1.85-1.5 1.75-.85 4 .65 2.45 3.05 3.2.2 0 .4.05.2 0 .4.05.2 0 .4.05h.25q1.55.15 3.15 0 1.85-.15 3.75-.5.084-.016.15-.05-15.906 5.83-24 15.45-1.7 1.95-2.9 4.1-8.1 27.9-19.4 55.95 1.25 11.05 3.1 21.95 1.35 8.2 3.05 16.3.4 2.6 1.05 5.2 9.05 4.95 20.65 8.8 9.95 3.2 25.5 6.6 17.1 3.75 28.55 5 15.65 1.7 28.65-.1 15.007-2.044 30.65-12.7 15.687-10.61 15.5-16.4-.18-5.79-3.65-10.1-3.468-4.315 1.15-12.15 4.658-7.84 7.8-18.1 3.201-10.25 2.2-18.3-1.002-8.002-3.05-15.2-1.5-5.1-3.4-10.1-.85-2.3-1.85-4.55-1.5-3.3-3.1-6.2-1.1-1.9-2.25-3.6-2.55-3.4-5.6-6.15-5.05-4.7-11.3-7.1-8.6-3.6-20.15-5.2-15.3-2.05-30.8-.9-5.729.424-11.4 1.3-.034-.034-.1-.05-.2-.05-.45-.1-.2-.05-.4-.05-.25-.05-.45-.05-.25-.05-.45-.05-.25-.05-.45-.05.1-.15.15-.35.1-.2.15-.35.05-.2.15-.4 0-.2.05-.4v-.75q-.05-.2-.05-.35-.05-.2-.1-.35-.05-.2-.15-.35-.05-.2-.15-.35l-.2-.3q-.2-.3-.45-.6-.15-.1-.3-.25l-.3-.2q-.15-.15-.35-.2-.15-.1-.35-.15-.15-.1-.35-.15l-.4-.1q-.25-.05-.45-.05-.2-.05-.45-.05h-.4q-.6.05-1.2.15-.6.05-1.25.2-.7.1-1.4.25-.7.1-1.35.3-.5.1-.95 0-.4-.35-.9-.65-.8-.5-1.7-.75-1-.25-2.05-.25-1 .05-2 .25-.9.2-1.75.7-.75.5-1.3 1.25Z"></path></g></defs><use xlink:href="#a_head_19_fill_svg__a"></use><use xlink:href="#a_head_19_fill_svg__b"></use><use xlink:href="#a_head_19_fill_svg__c"></use><use xlink:href="#a_head_19_fill_svg__d"></use></svg>