<svg xmlns:xlink="http://www.w3.org/1999/xlink"  xmlns="http://www.w3.org/2000/svg" viewBox="0 0 1500 1500" fill="#fee8d3" id="a_face_22_outline_svg__Layer_1" x="0" y="0" xml:space="preserve"><style>.a_face_22_outline_svg__st0{fill:none;stroke:#000;stroke-linecap:round;stroke-linejoin:round}.a_face_22_outline_svg__st1{fill:#fff}.a_face_22_outline_svg__st2{fill:none;stroke:#000;stroke-width:1.5;stroke-linecap:round;stroke-linejoin:round;stroke-miterlimit:4}</style><g transform="translate(4 -10)"><path id="a_face_22_outline_svg__Layer2_0_1_STROKES" class="a_face_22_outline_svg__st0" d="M743.5 294.1c.1.7.3 1.4.5 2.2 1.1 3.3 2.3 5.9 3.4 7.8 1.1 1.9 2.1 3.1 3 3.7.8.6 1.6 1.3 2.3 1.9 2.2 2 2.7 3.7 1.8 4.9-1 1.3-2.6 2.2-4.8 2.7-2.2.5-5.2.8-9 .8"></path></g><g transform="translate(4 -10)"><g id="a_face_22_outline_svg__Layer2_1_FILL" fill="#000"><path class="a_face_22_outline_svg__st1" d="M674.3 260c-1.6 1.2-2.9 2.4-4 3.8-2.9 3.4-4.5 7.3-4.6 11.6-.1.3-.1.6-.1 1 0 6.5 2.5 11.4 7.5 14.8 5 3.4 9.8 5.2 14.4 5.5 4.6.3 9.2 1.1 13.8 2.5 4.6 1.4 9.8-.2 15.6-4.7 5.8-4.5 8.7-10 8.8-16.5 0-5.6-2.2-10.5-6.6-14.8-2.6-3.2-6.8-5.8-12.7-7.7-3-1-6.3-1.5-9.7-1.7-.3-.1-.7-.1-1-.1-8.5-.2-15.5 1.9-21.4 6.3z"></path><path d="m675.3 255.3-.6.3c-3.6 1.8-6.9 4.2-9.8 7.2-.3.3 3.2-2.2 10.4-7.5m0 0c.1 0 .2-.1.2-.2-11.9 5.3-19.9 7.1-23.9 5.6.9 3.1 2.8 6 5.8 8.9 2.3 2.2 4.8 4 7.5 5.4.2.1.5.3.8.5.1-4.3 1.7-8.2 4.6-11.6 1.1-1.4 2.5-2.6 4-3.8 5.9-4.4 12.9-6.5 21.2-6.3.3 0 .7 0 1 .1 3.4.2 6.7.7 9.7 1.7-.3-.2-.6-.3-.9-.4-3-1.2-5.9-2.1-8.8-2.6-2.2-.4-4.3-.6-6.5-.6-5.1-.1-10 1.1-14.7 3.3-7.2 5.3-10.7 7.8-10.4 7.6 2.9-3 6.2-5.4 9.8-7.2.2-.2.4-.3.6-.4z"></path></g></g><g transform="translate(4 -10)"><path d="M665.7 275.5c-.3-.2-.5-.3-.8-.5-2.7-1.4-5.2-3.2-7.5-5.4-2.9-2.9-4.8-5.8-5.8-8.9 4 1.6 12-.3 23.9-5.6l-.2.2c4.6-2.2 9.5-3.4 14.6-3.4 2.2 0 4.3.2 6.5.6 2.9.5 5.8 1.4 8.8 2.6.3.1.6.2.9.4 5.9 1.9 10.1 4.5 12.7 7.7 4.4 4.3 6.6 9.2 6.6 14.8 0 6.5-2.9 12-8.8 16.5-5.8 4.5-11 6.1-15.6 4.7-4.6-1.4-9.2-2.2-13.8-2.5-4.6-.3-9.4-2.1-14.4-5.5s-7.5-8.3-7.5-14.8c.2-.3.3-.6.4-.9.1-4.3 1.7-8.2 4.6-11.6 1.1-1.4 2.5-2.6 4-3.8 5.9-4.4 12.9-6.5 21.2-6.3.3 0 .7 0 1 .1 3.4.2 6.7.7 9.7 1.7m-30.8-.3c-7.2 5.3-10.7 7.8-10.5 7.6 2.9-3 6.2-5.4 9.8-7.2.2-.2.5-.3.7-.4z" id="a_face_22_outline_svg__Layer2_1_1_STROKES" class="a_face_22_outline_svg__st0"></path></g><g transform="translate(4 -10)"><g id="a_face_22_outline_svg__Layer2_2_FILL" fill="#000"><path d="M795.3 255.6c-.5-.3-1-.5-1.5-.8l10.6 8c-2.8-2.9-5.8-5.3-9.1-7.2m-28.3-.5c-.3.1-.6.2-.8.4 2.8-1 5.8-1.5 9-1.7.3-.1.6-.1.9-.1 7.6-.2 14.2 1.9 19.6 6.3 1.5 1.2 2.7 2.4 3.8 3.8 2.7 3.4 4.1 7.3 4.3 11.6.2-.2.4-.3.6-.5 2.5-1.4 4.8-3.2 6.9-5.4 2.7-2.9 4.5-5.8 5.3-8.9-3.8 1.6-11.4-.4-22.9-5.9v.1c.5.3 1 .5 1.5.8 3.3 1.8 6.3 4.2 9 7.2l-10.6-8c-4-1.9-8.2-2.9-12.6-2.9-2 0-4 .2-6 .6-2.5.5-5.2 1.4-8 2.6z"></path><path class="a_face_22_outline_svg__st1" d="M766.2 255.5c-5 1.4-8.9 4-11.8 7.7-4 4.3-6 9.2-6 14.8 0 6.5 2.6 11.8 7.9 16 5.3 4.2 10.3 5.4 14.9 3.8 4.6-1.6 9-2 13.1-1.1 4.2.8 8.4-.7 12.9-4.6 4.4-3.9 6.7-9 6.6-15.5v-1c-.2-4.3-1.6-8.2-4.3-11.6-1-1.4-2.3-2.6-3.8-3.8-5.4-4.4-12-6.5-19.6-6.3-.3 0-.6 0-.9.1-3.2 0-6.2.5-9 1.5z"></path></g></g><g transform="translate(4 -10)"><path id="a_face_22_outline_svg__Layer2_2_1_STROKES" d="M766.2 255.5c-5 1.4-8.9 4-11.8 7.7-4 4.3-6 9.2-6 14.8 0 6.5 2.6 11.8 7.9 16 5.3 4.1 10.2 5.4 14.8 3.8 4.6-1.6 9-2 13.1-1.1 4.2.8 8.5-.7 12.9-4.6 4.4-3.9 6.6-9.1 6.6-15.5v-1c-.2-4.3-1.6-8.2-4.3-11.6-1-1.4-2.3-2.6-3.8-3.8-5.4-4.4-12-6.5-19.6-6.3-.3 0-.6 0-.9.1-3.1 0-6.1.5-8.9 1.5.2-.2.5-.3.8-.4 2.7-1.2 5.4-2.1 8.1-2.6 2-.4 4-.6 6-.6 4.4 0 8.6 1 12.6 2.9l-.1-.1c11.5 5.5 19.1 7.5 22.9 5.9-.9 3.1-2.6 6-5.3 8.9-2.1 2.2-4.4 4-6.9 5.4-.2.1-.4.3-.6.5m-9.9-20.5 10.6 8c-2.7-3-5.7-5.4-9-7.2-.6-.3-1.1-.6-1.6-.8z" class="a_face_22_outline_svg__st0"></path></g><g transform="matrix(1.30835 0 0 1.30835 275.35 -474.3)"><path id="a_face_22_outline_svg__Layer2_3_FILL" d="M335.4 568c.6-.6.9-1.3.9-2.2 0-.9-.3-1.6-.9-2.2-.6-.6-1.3-.9-2.2-.9s-1.6.3-2.2.9c-.6.6-.9 1.4-.9 2.2 0 .9.3 1.6.9 2.2.6.6 1.4 1 2.2 1s1.6-.3 2.2-1z" fill="#000"></path></g><g transform="matrix(.99999 0 0 .99999 .008 -.023)"><path class="a_face_22_outline_svg__st2" d="M336.4 565.8c0 .9-.3 1.6-.9 2.2-.6.6-1.3.9-2.2.9-.9 0-1.6-.3-2.2-.9-.6-.6-.9-1.3-.9-2.2 0-.9.3-1.6.9-2.2.6-.6 1.4-.9 2.2-.9.9 0 1.6.3 2.2.9.6.6.9 1.4.9 2.2z" id="a_face_22_outline_svg__Layer2_3_1_STROKES"></path></g><g transform="matrix(1.30835 0 0 1.30835 347.7 -474.3)"><path id="a_face_22_outline_svg__Layer2_4_FILL" d="M335.4 568c.6-.6.9-1.3.9-2.2 0-.9-.3-1.6-.9-2.2-.6-.6-1.3-.9-2.2-.9s-1.6.3-2.2.9c-.6.6-.9 1.4-.9 2.2 0 .9.3 1.6.9 2.2.6.6 1.4 1 2.2 1s1.6-.3 2.2-1z" fill="#000"></path></g><g transform="matrix(.99999 0 0 .99999 .006 -.023)"><path d="M336.4 565.8c0 .9-.3 1.6-.9 2.2-.6.6-1.3.9-2.2.9-.9 0-1.6-.3-2.2-.9-.6-.6-.9-1.3-.9-2.2 0-.9.3-1.6.9-2.2.6-.6 1.4-.9 2.2-.9.9 0 1.6.3 2.2.9.6.6.9 1.4.9 2.2z" id="a_face_22_outline_svg__Layer2_4_1_STROKES" class="a_face_22_outline_svg__st2"></path></g><g transform="translate(4 -10)"><g id="a_face_22_outline_svg__Layer2_5_FILL"><path d="M733.3 355.4c.9.1 1.7.1 2.6.1-.7 0-1.4-.1-2-.1-1.7-.1-3.4-.4-5.1-.7 1.5.3 3 .6 4.5.7m25-14.9c.1-.4.1-.8.2-1.2 0 .4-.1.8-.2 1.2m-29.5 14.2c-5.6-1.2-9.5-2.8-11.6-4.9l-2-1.9c-.8-1-1.6-2.2-2.2-3.5-.7-.9-.7 0 0 2.6 1.2 4.2 2.4 7 3.6 8.6 2.9 3.7 6.5 6.4 11 8.1 4.5 1.7 9 2.1 13.5 1.2 4.5-.9 8.4-3.1 11.8-6.5 2-2 3.8-8 5.5-17.9l-.1.1c-2.3 9.7-9.1 14.7-20.3 15h-2c-.9 0-1.7-.1-2.6-.1-1.6-.2-3.1-.5-4.6-.8z" style="fill: rgb(215, 168, 145);"></path><path d="M757 340.2c.1 0 .2-.1.2-.1 0-.1.4-.4 1.2-.9-.8.5-1.3.9-1.4 1m-46.7-4.1c.5.4 1.1.8 1.7 1.4.3 0 2.1.4 5.5 1.2 3.4.9 9.2 1.5 17.2 1.9 8.1.4 15.5.3 22.2-.3.1-.2.6-.5 1.5-1-3.6-1.9-7.7-3.5-12.2-4.9-7.4-1.9-14.8-2.5-22.2-1.6-4.2.4-8.8 1.5-13.7 3.3m0 0c0 .2.1.4.1.6 0 .1.1.1.1.1.1.1.3.2.5.3.2.1.5.2 1 .3-.6-.5-1.2-.9-1.7-1.3m5.2 2.2 2.2.4c-2.6-.5-4.5-1-5.6-1.2.4.1 1.5.4 3.4.8z" style="fill: rgb(179, 132, 109);"></path></g></g><g transform="translate(4 -10)"><path d="M712 337.5c1.1.3 3 .7 5.6 1.2l-2.2-.4m-4.9-1.4 2.2 2.9c2.1 2.2 4.5 3.8 7.5 4.7l4 1.4c3.5.9 7.4 1.4 11.5 1.4 4.9 0 8.5-.2 10.8-.5 2.3-.3 4.2-.8 5.8-1.6 2.1-1 4.1-2.5 6-4.6.1-.4.2-.9.3-1.3m-1.3.8c-.1 0-.2.1-.2.1-6.7.6-14.1.7-22.2.3-8.1-.4-13.8-1-17.2-1.9m-5.7-1.1c-.6-.5-1.2-1-1.7-1.4 0 .2.1.5.1.7.5 2.9 1.4 5.5 2.5 7.6.6 1.3 1.4 2.4 2.2 3.5l2 1.9c2.2 2.1 6.1 3.7 11.6 4.9m7.3.8h2c11.2-.4 18-5.4 20.3-15l.1-.1m.1-1.2c-.9.5-1.4.9-1.5 1.1m-21 15.2c-.9 0-1.7-.1-2.6-.1-1.5-.1-3-.4-4.5-.7" id="a_face_22_outline_svg__Layer2_5_1_STROKES" style="" class="a_face_22_outline_svg__st0"></path></g></svg>