<svg xmlns="http://www.w3.org/2000/svg" xmlns:xlink="http://www.w3.org/1999/xlink" preserveAspectRatio="none" viewBox="0 0 1500 1500" fill="#fee8d3"><defs><path d="M932.6 898.15q-.55-1.4-1-2.7-.8.05-1.7.15-4.55.65-8.05.5 1.6 6.35 4.75 13.95 1.05 2.4 2.3 4.05 1.35 1.75 3.15 2.2 2.15.3 5.3-1.1l3.45-1.3q-1.45-.85-2.5-2.2-2.4-2.5-3.8-6.4-1.3-4.75-1.9-7.15m8.55-11.3q-.2 1.05-.55 1.9 2.9 4.45 4.75 7.2.4-.05.85-.15 2.2-.2 2.6-2.35.5-1.4-.8-4.5-2.85-5.1-5.3-8.35-.65 3.1-1.55 6.25m-22.55-1.55q-.45-1.55-.4-2.65-.05-.8.1-1.4-2.75 1.15-4.1 2.8-.4.3-.65.85-.85 1.85-.4 6.05.7 7.3 4.45 17.15.6 1.7 1.3 2.75.25.6.5 1 1.2 1.9 3 2.55 1.85.95 5.35-.15.55-.05 1.15-.15-1.25-1.65-2.3-4.05-3.15-7.6-4.75-13.95-1.3-.05-2.25-.15-2.15-.35-3.6-1.55-1.7-1.25-2.25-2.95-.25-1.95.95-3.6 1.15-1.7 2.4-2 1.1-.45 1.5-.55m4.2-9.05q-.45.45-1.15.85-.6.5-1.05 1-1.7 1.6-2.3 3.15-.15.6-.1 1.4-.05 1.1.4 2.65 1.45-.5 3.35-1.05 1.95-.5 3.25-1-1-2.45-1.75-4.75-.35-1.15-.65-2.25m-13.95 10.5q-.45.9-.5 3.95.1 2.95 1.35 8.6 1.3 5.65 3.15 8.3 1.95 2.65 3.55 2.95 1.6.25 2.5.3-.7-1.05-1.3-2.75-3.75-9.85-4.45-17.15-.45-4.2.4-6.05.25-.55.65-.85-2.35.2-2.55.25l-.5.2q-1.65.55-2.3 2.25m-15.85-29-.75-1.2q.955 1.816 1.8 3.4.966 1.754 1.85 3.25h.6q-1.832-2.528-3.35-5.45H893m83.75 27.5q-.1-5.25-3.2-15.15-.87-2.694-2.4-6.9-.997-6.636-4.45-15.5-.068-.676-1.55-5.1-1.477-4.375-2.2-7.2-.732-2.819-2.6-6.9-1.806-4.044-4.15-8.95-20.05 2.55-37.3 11.95-17.6 9.45-28.35 21.7.494.975.95 1.9h-.1l.85 1.45.75 1.2h.15q1.518 2.922 3.35 5.45 1.42 1.885 3 3.55-.15-.35-.25-.65-.44-1.256-.5-2.9-.06-2.087.5-4.8-.56 2.713-.5 4.8.06 1.644.5 2.9.1.3.25.65 1.05 2.6 2.6 6.3 1.7 4.1 4.85 7.9 3.2 3.75 4.2 3.55l.5-.2q.2-.05 2.55-.25 1.35-1.65 4.1-2.8.6-1.55 2.3-3.15.45-.5 1.05-1 .7-.4 1.15-.85-.4-1.55-1.35-5.8-.615-3.524.15-7.25.165-.82.4-1.65-.235.83-.4 1.65-.765 3.726-.15 7.25.95 4.25 1.35 5.8.3 1.1.65 2.25.75 2.3 1.75 4.75-1.3.5-3.25 1-1.9.55-3.35 1.05-.4.1-1.5.55-1.25.3-2.4 2-1.2 1.65-.95 3.6.55 1.7 2.25 2.95 1.45 1.2 3.6 1.55.95.1 2.25.15 3.5.15 8.05-.5.9-.1 1.7-.15 4.9-.9 6.9-2.7 1.25-1.35 2.1-4 .35-.85.55-1.9.9-3.15 1.55-6.25.85-3.5 1.35-6.65.5-3.3.7-6.25-.2 2.95-.7 6.25-.5 3.15-1.35 6.65 2.45 3.25 5.3 8.35 1.3 3.1.8 4.5-.4 2.15-2.6 2.35-.45.1-.85.15 1.75 2.9 2.4 3.9.2.35.3.55-.1-.2-.3-.55-.65-1-2.4-3.9-1.85-2.75-4.75-7.2-.85 2.65-2.1 4-2 1.8-6.9 2.7.45 1.3 1 2.7.6 2.4 1.9 7.15 1.4 3.9 3.8 6.4 1.05 1.35 2.5 2.2 1.65 1 3.3 1.2 2.45.45 4.3-.25 1.9-.7 7.4-4.05 5.5-3.45 11.4-8.65 5.85-5.2 7.7-8.45 1.85-3.3 1.85-8.45m-458-68.05v.2l.05.05-.05-.25m.05.4q.008-.075 0-.15l-.05-.05.05.2m.1.65.1.55q.047.261.1.5l-.2-1.05m.1.55-.1-.55-.05-.5-.05-.15-.05-.2.25 1.4m-.95-4.25q-1.15-4.05-3.15-9.15-19.25-5.55-32.95 0-13.95 5.1-19.75 11.05-6 5.6-8.6 12.6.531 1.859 1.05 3.55h.05q2.85 17.65 8.8 31.65 2.15 7.2 5.7 9.75 3.65 2.45 5.9 3.95 2.4 1.8 5.55 3.65-.5-1.1-1.35-3.1-1-2.55-3.7-6.2 2.7 3.65 3.7 6.2.85 2 1.35 3.1l.1.4v.1q4.8 11.85 7.1 13.7 2.45 1.7 8.95 3.1 3.85.6 7.7 1.45-2.7-1.8-2.5-1.85-3.8-2.95-4.7-4.35-.85-1.4-1.5-2.8-.6-1.4-2.65-7.9-2-6.3-4.5-9.6 2.5 3.3 4.5 9.6 2.05 6.5 2.65 7.9.65 1.4 1.5 2.8.9 1.4 4.7 4.35-.2.05 2.5 1.85 1.8 1.15 4.35 2.7 1.9 1.15 3.9 2.8l2.75 2.7q2.7 2.35 7.15 6.25 5.6 4.95 7.55-1.1 1.55-4.65-1.05-8.6-.8-1.2-1.9-2.4-4.9-4.75-9.6-7.95-3.3-2.3-6.05-4.9-1.05-.95-2.1-2.15-3.5-3.7-3.7-11.9-1.05-.75-3.7-2.55 2.65 1.8 3.7 2.55 2.2 2.45 5.6 6.3 1.75 2.3 4.25 4.9 2.75 3.15 6.6 6.4 3.9 3.3 10.45 5.5 6.5 2.4 10.2 3.5 3.85 1.2 4.85.4 1.15-.75.9-3.3-.15-2.75-2.2-5.05-2.05-2.35-5.7-4.15-3.7-1.7-5.1-2.4-1.65-.75-2.7-1.3-1.15-.6-2.1-1.4-1.05-.85-2.1-1.75-.9-1.05-2.55-3.45-1.65-2.45-2.65-4.55-1.15-2.35-3.8-8.45-2.45-6-3.25-8.3-1.15-3.7-2.45-6.6 1.9.3 7.5.55 5.55.25 6.9.9 1.3.8 4.35 3.1 2.95 2.3 8.75 3.6 5.85 1.3 8.75-.15 2.85-1.3 4.15-3.05 1.35-1.8.7-3.7-.8-1.85-4.8-2.85-4.3-1.05-8.05-2.65-5.246-2.854-7.05-5.85-1.818-2.989-7.55-13-5.718-10.014-8.5-9.2-.125-.954-.35-2.05l.05.5.2 1.05q-.053-.239-.1-.5l-.25-1.4q-.285-1.35-.7-2.85m1.2 5.5.05.2h-.05V820q.01.04 0 .05m221.4-513.95q-4.266-6.566-52-19.95-47.68-13.332-45.4 15.25 2.283 28.574 7.85 87.2l67.2 21.75 27-13.35q1.668-39.066-4.65-90.9Z" id="style_04_fill_svg__a"></path><path d="m651.1 388.6 67.2 21.75 27-13.35" id="style_04_fill_svg__b" stroke="#000" stroke-opacity="0" stroke-width="1.5" stroke-linejoin="round" stroke-linecap="round" fill="none"></path><path d="M745.3 397q1.668-39.066-4.65-90.9-4.266-6.566-51.975-19.925-47.706-13.357-45.425 15.225 2.283 28.574 7.85 87.2m-196.425 444q-.544-1.691-1.075-3.55 2.6-7 8.6-12.6 5.8-5.95 19.75-11.05 13.7-5.55 32.95 0 2 5.1 3.15 9.15.415 1.5.725 2.85l-.025-.2.05.25q.008.075.025.15l.025.15q.225 1.096.375 2.075 2.757-.84 8.475 9.175 5.732 10.011 7.55 13 1.804 2.996 7.05 5.85 3.75 1.6 8.05 2.65 4 1 4.8 2.85.65 1.9-.7 3.7-1.3 1.75-4.15 3.05-2.9 1.45-8.75.15-5.8-1.3-8.75-3.6-3.05-2.3-4.35-3.1-1.35-.65-6.9-.9-5.6-.25-7.5-.55 1.3 2.9 2.45 6.6.8 2.3 3.25 8.3 2.65 6.1 3.8 8.45 1 2.1 2.65 4.55 1.65 2.4 2.55 3.45 1.05.9 2.1 1.75.95.8 2.1 1.4 1.05.55 2.7 1.3 1.4.7 5.1 2.4 3.65 1.8 5.7 4.15 2.05 2.3 2.2 5.05.25 2.55-.9 3.3-1 .8-4.85-.4-3.7-1.1-10.2-3.5-6.55-2.2-10.45-5.5-3.85-3.25-6.6-6.4-2.5-2.6-4.25-4.9-3.4-3.85-5.6-6.3.2 8.2 3.7 11.9 1.05 1.2 2.1 2.15 2.75 2.6 6.05 4.9 4.7 3.2 9.6 7.95 1.1 1.2 1.9 2.4 2.6 3.95 1.05 8.6-1.95 6.05-7.55 1.1-4.45-3.9-7.15-6.25l-2.75-2.7q-2-1.65-3.9-2.8-2.55-1.55-4.35-2.7-3.85-.85-7.7-1.45-6.5-1.4-8.95-3.1-2.3-1.85-7.1-13.7v-.1l-.1-.4q-3.15-1.85-5.55-3.65-2.25-1.5-5.9-3.95-3.55-2.55-5.7-9.75-5.95-14-8.8-31.65m64.125-15-.05-.175.225 1.375-.075-.525-.075-.525m.15 1.05q.047.261.1.525l-.175-1.05m-.15-.875v.025l.025.025m-30.15 56.4q2.5 3.3 4.5 9.6 2.05 6.5 2.65 7.9.65 1.4 1.5 2.8.9 1.4 4.7 4.35-.2.05 2.5 1.85m-2.4-27.1q2.65 1.8 3.7 2.55m-30.2-3.5q2.7 3.65 3.7 6.2.85 2 1.35 3.1m460.15 32.3q1.65 1 3.3 1.2 2.45.45 4.3-.25 1.9-.7 7.4-4.05 5.5-3.45 11.4-8.65 5.85-5.2 7.7-8.45 1.85-3.3 1.85-8.45-.1-5.25-3.2-15.15-.87-2.694-2.4-6.9-.997-6.636-4.45-15.5-.068-.676-1.55-5.075-1.477-4.4-2.2-7.225-.732-2.819-2.575-6.875-1.831-4.069-4.175-8.975-20.05 2.55-37.3 11.95-17.6 9.45-28.35 21.7.494.975.975 1.9m-.125 0q.453.772.875 1.475.374.614.725 1.175h.15q1.518 2.922 3.375 5.45 1.395 1.885 2.975 3.55-.15-.35-.25-.65-.44-1.256-.5-2.9-.06-2.087.5-4.8m11.9 26.1.5-.2q.2-.05 2.55-.25 1.35-1.65 4.1-2.8.6-1.55 2.3-3.15.45-.5 1.05-1 .7-.4 1.15-.85-.4-1.55-1.35-5.8-.615-3.524.15-7.25.165-.82.4-1.65m-26.1 1.65q-.884-1.496-1.85-3.25-.845-1.584-1.775-3.375M911.15 884.5q-1.65.55-2.3 2.25-.45.9-.5 3.95.1 2.95 1.35 8.6 1.3 5.65 3.15 8.3 1.95 2.65 3.55 2.95 1.6.25 2.5.3-.7-1.05-1.3-2.75-3.75-9.85-4.45-17.15-.45-4.2.4-6.05.25-.55.65-.85m-14.7-17.3q1.05 2.6 2.6 6.3 1.7 4.1 4.85 7.9 3.2 3.75 4.2 3.55m7.15-3.25q-.15.6-.1 1.4-.05 1.1.4 2.65 1.45-.5 3.35-1.05 1.95-.5 3.25-1-1-2.45-1.75-4.75-.35-1.15-.65-2.25m6.1 37.85q-1.25-1.65-2.3-4.05-3.15-7.6-4.75-13.95-1.3-.05-2.25-.15-2.15-.35-3.6-1.55-1.7-1.25-2.25-2.95-.25-1.95.95-3.6 1.15-1.7 2.4-2 1.1-.45 1.5-.55m26.15-17.6q-.2 2.95-.7 6.25-.5 3.15-1.35 6.65 2.45 3.25 5.3 8.35 1.3 3.1.8 4.5-.4 2.15-2.6 2.35-.45.1-.85.15 1.75 2.9 2.4 3.9.2.35.3.55m-5.35-19.8q-.65 3.1-1.55 6.25-.2 1.05-.55 1.9 2.9 4.45 4.75 7.2m-4.75-7.2q-.85 2.65-2.1 4-2 1.8-6.9 2.7.45 1.3 1 2.7.6 2.4 1.9 7.15 1.4 3.9 3.8 6.4 1.05 1.35 2.5 2.2l-3.45 1.3q-3.15 1.4-5.3 1.1-1.8-.45-3.15-2.2-.6.1-1.15.15-3.5 1.1-5.35.15-1.8-.65-3-2.55-.25-.4-.5-1m12.7-15.4q-.8.05-1.7.15-4.55.65-8.05.5" id="style_04_fill_svg__c" stroke="#000" stroke-opacity="0" stroke-width="2" stroke-linejoin="round" stroke-linecap="round" fill="none"></path></defs><g><use xlink:href="#style_04_fill_svg__a"></use><use xlink:href="#style_04_fill_svg__b"></use><use xlink:href="#style_04_fill_svg__c"></use></g></svg>