<svg xmlns="http://www.w3.org/2000/svg" xmlns:xlink="http://www.w3.org/1999/xlink" preserveAspectRatio="none" viewBox="0 0 1500 1500" fill="#fee8d3"><defs><path d="M710.35 122.85q-24.85.35-42.2 7.6-17.35 7.3-29.1 21.9-11.7 14.5-14.8 32-3 17.5-2.65 35.3.2 17.7 1.8 33 1.089 9.672 2.2 18.5-6.34-2.455-13.9.05-9.25 3.05-13.15 11.95-3.9 8.85-1.85 18.7 2 9.25 8.3 16.2 6.35 6.95 15.2 9.8 8.662 2.691 16.5 2.05 10.61 41.433 41.4 57.4l16.75 5.35q5.3 1 7.75 1.5h.1q.042-.225.05-.45.066.15.1.3.75.1 1.3.2.8.1.5-.1 9.25 3.1 19.4 3.1 9.65.65 25-3 20-4.8 30.15-14.5 10.25-9.75 13.8-21.05 2.55-8.55 2.85-18.55 0-1.5-.1-6.6-.07-2.341-.05-6.05.04-4.286.2-10.4 0-.45.05-.85.143-13.656.5-25.4.6-22.25 2.2-47.75 2.85-31.35 2.4-42.4-.5-11.05-1.15-15.15-1.55-15.55-14.4-31.2-12.95-15.7-32.25-24.05-18.15-7.8-42.9-7.4Z" id="head_01_fill_svg__a"></path></defs><use xlink:href="#head_01_fill_svg__a"></use></svg>