<svg xmlns="http://www.w3.org/2000/svg" xmlns:xlink="http://www.w3.org/1999/xlink" preserveAspectRatio="none" viewBox="0 0 1500 1500" fill="#7f91bf"><defs><path fill="#C7D4C9" d="M1.6 6.05q2.627.029 7.4 5.25Q7.494-3.855.15-15.15-7.256-1.972-9.05 15.2-1.038 6.077 1.6 6.05Z" id="style_06_color_b_svg__f"></path><path fill="#3F4348" d="M-.1-2.7q-1 0-1.8.8-.7.9-.7 1.9 0 1.1.8 2 .8.7 1.8.7 1.05 0 1.85-.7.7-.9.7-1.95 0-1.05-.8-1.95-.8-.8-1.85-.8Z" id="style_06_color_b_svg__h"></path><path id="style_06_color_b_svg__j" fill="#414448" d="M37.3 17q-10.2-4.7-27-12.05Q4.403 2.116-.45-.35q-18.904 14.399 6.3 29.15 25.203 14.749 38.7-6.6-2.943-3.132-7.25-5.2Z"></path><path id="style_06_color_b_svg__b" fill="none" d="m848.45 510.35 1.9 5.775m-3.525-10.5.275.775m-89.175-75.875q6.842 2.377 15.925 5.475 22.098 7.605 32.5 11.35 10.408 3.739 16 7.85 9.668 8.643 12.15 15.975 2.494 7.327 8.8 24.425 1.68 4.688 3.525 10.025m.7 2.05q.461 1.317.925 2.675m-38.5 0q-.35 5.9 0 11.15.25 5.3 1.55 12.1 1.25 6.7 9.95 24.45t4.2 33.55q-2.563 8.97-10.75 16.55 10.431 21.288 22.95 46.825m-.45.275q13.1 38.35 30.35 80.85 17.3 42.45 27.5 76.8 2.2.9 4.95 1.15m31.35-8.7q3.2-2.2 4.2-4.15l-46.2-160.45q-.027-.148-.05-.3-.45-2.05-1.1-4.05l-2.25-7.45q-13.85-42.85-24-75.25-6.391-21.248-11.8-37.575M741.55 407.6q-.1 13 7.35 18.35 3.4 2.25 9.05 4.55m-16.5-31.85.1 8.95m-75.05-3.8-.8 9.55q-2 10-13.9 14.15m-33.675 25.2q-4.81-1.435-9.575-1.5-16.95-.4-27.45 11.55-2.6 3.05-5.5 7.1m-8.25 13.4-11.55 20.3q-40.25 71.65-61.4 117.2l-3.95 8.7q-.05.15-.15.3-.25.95-.6 1.85-.71 1.9-1.1 3.8m-.325 2.2q-.125 1.152-.125 2.3m-.55 1.55q-9.947 58.736-15.4 166.95m48.7 4.15q2.95-23.2 4.55-39.95 1.65-16.8 5.55-49 3.9-32.25 4.9-40.1 1.04-7.428 3.3-22.475M667.35 394.1l-.85 9.7m148.4 204.35q-6.167 5.721-15.55 10.65-1.05 5.1-2.65 15.2-1.8 9.95-3.5 18.05m29.05 57.6q-12.976-33.133-29.275-57.55m29.175 57.55q5.3 11.3 9.3 25.45 8.604 30.597 10.35 60.175.394 1.69.7 3.375 6 27 10 55.3.75 5.4 1.45 10.85.85 8.15 1.55 18.45 3.173 48.523 4.2 145.35v.25l1.4 51.975m-89.625-34.025q-3.114-14.379-7.725-35.75-11.05-55.15-20.6-110.65-8.15-50.95-8.95-56.9-1.125-5.198-1.9-10.15m-5.7 2.4q-.033.168-.05.35-.2 1.45-.5 3.2-17.9 104.95-34.5 183.95l-6.6 30.55q-2.744 12.549-3.475 15.975m.025.025-3.7 23.05q-11.55 71.6-32.45 203.1-1.2 9-2.35 17.65l-2.05 16m-.05.4-1.65 11-.35 3.2q-.6 4.1-1.05 8-4 30.9-5.15 45.75-1.62 16.157 2.15 26.725m-67.7-97.175q.203-4.872.75-9.15 2.3-55.35 6.7-141.55 2.962-58.026 19.7-111.05l-.5-24.95q-2.15-134.4-1.15-168.75.7-26.4.8-38.6.103-4.998.275-9.25l.025-.575q-.504-48.546 7.35-86.225 3.95-19.35 11.05-31.95m-.1-.1q17.998-37.764 31.225-54.675-1.703-6.594-5.925-24.425-2.977-12.437-20.15-81.125m-.15-.575q-34.857 50.077-68.95 103.15l-6.75 10.5m34.25-188.35q-1.7 2.4-3.55 5.3-2.9 5-4.7 8.1m49.85 61.875 6-7.775m238.15 602.05-.25-58.575" stroke="#000" stroke-width="2" stroke-linejoin="round" stroke-linecap="round"></path><path id="style_06_color_b_svg__c" fill="none" d="m847.525 507.675-.025-.05v.025q-.164-.5-.325-1-.042-.125-.075-.25M488.7 635.2q-.217 1.19-.425 2.4m-.125 2.3q.15.3.05.45.026.677.1 1.35m-16.1 166.7q1.55 2.15 4.75 3.7m39.3 3.1q3.1-.9 4.65-2.65m18.55-153.25q-.132.88-.25 1.725M715.55 406.05l2.05-.575-50.25-11.375m50.25 11.375 23.85-6.825m80.7 311h.1m-95 125.85q2.372-1.049 5.05-2.15m-91.35 496.25-.05.35v.05m-6.05 94.675q7.948 7.628 15.95 12.875 16 10.3 19.55 15.6 3.3 4.2 3.85 8.55.85 7.05-5.55 14.25-.05.1-.1.15-9.7 9.9-47 10.5-30.75 1-54.5-7.4-12.2-5-17.85-11.2-.65-.6-1.15-1.4-3.393-4.368-1.15-11.25-.231-1.596.225-3.625 2.327-10.371 4.325-18.725 5.8-23.95 8.05-34.75 2.4-11.95 3.95-22.25 1.6-10.45 2.35-25.7.746-15.221 1.1-20.05v-.05q.05-.623.05-1.2v-.1q.025-.073.075-.4l.125-.95v-.05m44.9-622.15.1.1m4.9-160.9q.072.288.15.575m-78 115.9q1.19-1.28 2.15-2.825m70.8 47.25q58.65 24.9 136.15 45.05 40.45-17.4 73.85-40.85m-334.55-68.2q.34-1.957.675-3.85.112-1.101.325-2.2m27.65 180.05v-.25m78.6 253.6q-.45-1.5-.55-3v-.05m-26.4 252.6q.094.066.2.125.095.066.2.125.107.074.225.15.223.153.45.3.093.062.175.125.2.133.4.275 1.058.693 2.15 1.35.137.082.275.175.092.054.175.1l.3.175q.194.113.4.225.099.057.2.125.414.235.825.475.2.11.4.225.127.068.25.125l.325.175q.2.106.4.2l19.3 6.975q4.796 1.086 10 1.775 2.16.24 4.275.425l28.125-1.425q1.95-.4 3.8-.9.1-.05.2-.05m-.05.35q-.015-.022-.025-.05-.038-.094-.1-.15-.01-.055-.025-.1m-14.05 74.15q.75 8.4 2.95 12.6 2.15 4.3 4.85 8.55m-86.6 27.85q-.585 1.314-1 2.55M842.05 800.4q-.1-2.557-.25-5.125M732.3 833.35q5.624-2.326 12.6-4.9 10.15-3.65 20.1-6.9 9.85-3.2 22-7.45m-15.525 232.7q.363 1.662.7 3.225 1.32-6.8 3.225-12.725m-3.225 12.725q-6.856 35.532 2.375 95.075 11.85 77.3 19.8 151.4l.4 4.1 3.4 1.05q4.243 1.285 8.475 2.175l25.575 1 .525-.05m.575-.075q.96-.128 1.9-.25l4.45-.675q14.119-2.422 24.675-7.075.673-.297 1.325-.6-3.2-78.05-4.3-156.7m4.3 156.7q.026.139.05.575l.55 11.025v.05q.948 9.583 1.25 23.7v.05q.35 13.977.8 29.05v.05m.1 1.25q.15.3.15.7v.05m.475 3.55 1.5 5.075 1.9 3.425q.656.906 1.425 1.7.85.887 1.825 1.775l10.725 7.025m31.35 68.3q-29.137.309-56.7-6.075-.498-.104-1-.225l-.875-.225-12.475-3.325q-34.955-9.569-41.15-15-.026-.024-.05-.05-.144-.131-.275-.275l-3.375-6.075q-1.278-3.987-1.45-9.8m.175-3.5-.175-4.775q-.253-6.972-.675-16.575-.01-.32-.025-.65v-.05q-.002-1.224-.1-2.4-.009-1.133-.025-2.275-.015-1.41-.025-2.825-.004-.279 0-.55l-3.525-64.975q-.119-1.185-.225-2.375v-.25q-.35-3-.55-5.95l-.15-1.55m-.325-2.975-.025-.125m73.65 61.775q.015.096.025.2m.125.025q.157 1.862.475 3.55m17.375 19q.162.081.325.175.139.06.275.125 51.438 22.556 56.5 24.85 18.25 8.25 21.25 16.8l.05.125m-96.5-66.625q.025.78.075 1.55M795.1 1303.7l-.325-2.975m6 112.55v-.175q-.079-1.901-.2-4.2m164.225 18.325q1.43 3.658.2 8.975-1.25 4-5.8 7.1-11.45 7.55-41.45 10.15" stroke="#000" stroke-width="1.5" stroke-linejoin="round" stroke-linecap="round"></path><path id="style_06_color_b_svg__d" fill="none" d="m794.7 1300.7.075.025" stroke="#1A2414" stroke-width="1.5" stroke-linejoin="round" stroke-linecap="round"></path><path id="style_06_color_b_svg__e" fill="none" d="M-118.2.05-.55-.05" stroke="#FFF" stroke-width="5" stroke-linejoin="round" stroke-linecap="round"></path><path id="style_06_color_b_svg__g" fill="none" d="M.15-15.15Q7.494-3.855 9 11.3 4.227 6.079 1.6 6.075q-2.638.002-10.65 9.125Q-7.256-1.972.15-15.15Z" stroke="#000" stroke-width="1.5" stroke-linejoin="round" stroke-linecap="round"></path><path id="style_06_color_b_svg__k" fill="none" d="M-.425-.35Q4.403 2.116 10.3 4.95 27.1 12.3 37.3 17q4.307 2.068 7.275 5.2" stroke="#000" stroke-width="1.5" stroke-linejoin="round" stroke-linecap="round"></path><path id="style_06_color_b_svg__n" fill="none" d="M-3.304-1.972q0 1.05-.58 1.83-.58.781-1.429.826Q-6.16.728-6.74.008q-.58-.72-.58-1.77t.58-1.83q.58-.78 1.428-.824.848-.045 1.428.675.58.72.58 1.77Z" stroke="#EFD16A" stroke-width="0.5" stroke-linejoin="round" stroke-linecap="round"></path><g id="style_06_color_b_svg__a"><path fill="#1A2414" d="M964.85 1427.1q-.027.058-.05.1 1.43 3.683.2 9-1.25 4-5.8 7.1-11.45 7.55-41.45 10.15.075.003.15 0 29.9-2.6 41.4-10.15 4.55-3.1 5.8-7.1 1.25-5.4-.25-9.1m-164.35-14.7q.004.134 0 .25.13.331.25.6.026-.058 0-.15-.019-.08-.05-.15-.1-.3-.2-.55m-5.75-111.7h-.05l.4 3-.35-3Z"></path><path fill="#26321E" d="M800.7 1412.95q.031.07.05.15-.054-1.901-.2-4.2.098 2.199.15 4.05m85.7-27.8.3.15q.164.086.3.15 51.438 22.556 56.5 24.85 18.25 8.25 21.25 16.8.023.057.05.1.023-.042.05-.1-3.05-8.55-21.25-16.8-5.1-2.25-56.45-24.85l-.75-.3m-17.8-22.55h-.05q.157 1.862.45 3.55-.256-1.692-.4-3.55m-.2-.25q.015.12 0 .2h.05q-.029-.08-.05-.2m0-.45q-.002-.021 0-.05-.052-.621-.1-1.25l.05 1.55q.035-.126.05-.25Z"></path><path fill="#369CEB" d="M800.5 1412.65q-.048-.116-.1-.25.172 5.813 1.45 9.8l3.35 6.05q.156.169.3.3.024.026.05.05 6.195 5.431 41.15 15l12.45 3.3q.455.135.9.25.502.121 1 .2 27.563 6.409 56.7 6.1 30-2.6 41.45-10.15 4.55-3.1 5.8-7.1 1.23-5.317-.2-9-.027-.043-.05-.1-2.05 4.25-7.05 7.35-9.65 5.8-32.8 9.05-27.55 3-58.75-4.9-22.464-5.16-38.45-10.4-9.889-3.234-17.3-6.5-.45-.3-.9-.5-6.484-3.379-8.75-7.95-.12-.269-.25-.6m65.15-116.55q-.652.303-1.35.6-10.531 4.653-24.65 7.05l-4.45.7q-.94.122-1.9.25h-.05q-.264.035-.55.05l-.5.05-25.6-1q-4.207-.865-8.45-2.15l-3.4-1.05v.1l.35 3 .15 1.55q.2 2.95.55 5.95v.25h.05q.157.013.2.1 16.15 6.85 37.95 4.35 19.7-2.75 32.25-8.2l-.55-11.05q-.024-.411-.05-.55m-238 179.7q-15.35 1.5-30.1.45-25.77-1.942-41.6-15.15-.854-.732-1.7-1.5-3.5-3.1-6.35-6.8-.585 1.314-1 2.55-2.243 6.882 1.15 11.25.5.8 1.15 1.4 5.65 6.2 17.85 11.2 23.75 8.4 54.5 7.4 37.3-.6 47-10.5.05-.05.1-.15 6.4-7.2 5.55-14.25-3.2 9-24.15 11.75-10.95 1.3-22.4 2.35m-60.7-146.8q0 .577-.05 1.2.22.145.45.3.34.193.65.4.993.64 1.95 1.2l12.65 6 14.65 3.8q2.534.473 5.15.75 2.053.277 4.1.45l27.7-1.1.75-.1q.378-.077.75-.15.85-.15 1.75-.35l1.8-.4 1.65-11v-.05q-.015-.022-.05-.05-.013-.094-.1-.15.015-.055 0-.1-1.85.5-3.8.9l-28.15 1.4q-2.09-.16-4.25-.4-5.204-.69-10-1.8l-19.3-6.95q-.2-.094-.4-.2-.157-.085-.35-.2-.098-.032-.25-.1-.175-.115-.4-.25-.386-.215-.8-.45-.101-.068-.2-.15-.206-.087-.4-.2-.146-.084-.3-.2-.083-.02-.2-.1l-.25-.15q-1.092-.657-2.15-1.35-.2-.142-.4-.3-.082-.038-.2-.1-.202-.147-.45-.3-.093-.076-.2-.15-.105-.06-.2-.15-.106-.034-.2-.1-.547 4.278-.75 9.15v.05l-.15.95q-.025.327-.05.4v.1m174.6-921.4-.1-8.95-23.85 6.8-2.05.6 2.05-.6-50.25-11.35-.85 9.7 49.05 11.2v.95l26-8.35m82.6 86.2-1.4-.9q-.352 1.225-.8 2.5h-9.7l-22.05-2.6q-93.255 6.158-118.1 6.45-24.792.283-42-2.45-17.157-2.73-23.75 4.95-14.577 4.37-30.55 10.65-.2 2.15-.75 3.35-.85 1.5-3.45 3.8-2.5 2.3-2.85 3.1l-1.4-39.4-11.55 20.3q-40.25 71.65-61.4 117.2l-3.95 8.7q-.05.15-.15.3-.25.95-.6 1.85-.71 1.9-1.1 3.8.054-.1.1-.2-.217 1.19-.45 2.4-.1 1.152-.1 2.3.15.3.05.45.026.677.1 1.35-.421-.045-.7-.25-9.947 58.736-15.4 166.95 1.55 2.15 4.75 3.7.1-1.4.1-3l.2-1.2q19.65-5.3 39.4 2.6-.25 3.5-.4 4.7 3.1-.9 4.65-2.65 2.95-23.2 4.55-39.95 1.65-16.8 5.55-49 3.9-32.25 4.9-40.1 1.04-7.428 3.3-22.5.118-.82.25-1.7-.132.88-.25 1.7 1.19-1.255 2.15-2.8l6.75-10.5q34.093-53.073 68.95-103.15.072.288.15.55l6-7.75-6 7.75q17.173 68.713 20.15 81.15 4.222 17.831 5.9 24.4-13.202 16.936-31.2 54.7l.1.1q58.65 24.9 136.15 45.05 40.45-17.4 73.85-40.85h.1q-12.976-33.133-29.3-57.55.135-.02.25-.05 1.7-8.1 3.5-18.05 1.6-10.1 2.65-15.2 9.383-4.929 15.55-10.65 8.187-7.58 10.75-16.55 4.5-15.8-4.2-33.55-8.7-17.75-9.95-24.45-1.3-6.8-1.55-12.1-.35-5.25 0-11.15-.35 5.9 0 11.15.25 5.3 1.55 12.1 1.25 6.7 9.95 24.45t4.2 33.55q-2.563 8.97-10.75 16.55 10.431 21.288 22.95 46.8-.22.16-.45.3 13.1 38.35 30.35 80.85 17.3 42.45 27.5 76.8 2.2.9 4.95 1.15-.45-1.5-.95-3.5 13-9.9 30.6-9.7 1 2.6 1.7 4.5 3.2-2.2 4.2-4.15l-46.2-160.45q-.027-.148-.05-.3-.45-2.05-1.1-4.05l-2.25-7.45q-13.85-42.85-24-75.25-6.391-21.248-11.8-37.6v.05L821.8 499.7q1.963-2.887 2.35-5.9Z"></path><path d="M868.4 1361.85q-.002.029 0 .05-.015.124-.05.25.033.108.05.2.021.12.05.2.054.012.1 0 0-.4-.15-.7M772.15 1050q-.312-1.538-.7-3.2-7.93 36.162 1.7 98.5 11.9 77.25 19.85 151.45l.95 8.75q.2 2.85.55 5.85v.35q3.55 39.7 3.7 72.85l.05.05q.1 1.15.1 2.35v.05q.7 16.6 1.05 25.4-.05.25 0 .6v.05q.25 11.95 5.25 16.4 7.35 6.55 55.1 18.85 30.85 7.5 58.15 6.4l.1-.05q30.35-2.65 42.1-10.35 5-3.4 6.3-7.7 0-.1.1-.2 1.3-5.8-.35-9.75-3.15-8.95-21.9-17.35-5.1-2.35-56.5-24.95-.5-.15-.65-.25-7.85-4-12.2-8.4v-.1q-4.2-4.45-4.95-12.8 0-.2-.05-.4 0-.4-.15-.7l-.1-1.1q-.45-15.15-.8-29.15-.35-14.1-1.25-23.75-.45-9.8-.6-11.5v-.25q-1-23.55-1.75-47.05-1.8-54.6-2.55-109.55l-1.6-58.55.25 58.6q1.1 78.65 4.3 156.7.026.139.05.55l.55 11.05v.05q.948 9.583 1.25 23.7v.05q.35 13.977.8 29.05v.05q.048.629.1 1.25.15.3.15.7v.05h.05q.144 1.858.4 3.55l1.5 5.05 1.9 3.45q.681.906 1.45 1.7.85.887 1.8 1.75l10.75 7.05.75.3q51.35 22.6 56.45 24.85 18.2 8.25 21.25 16.8 1.5 3.7.25 9.1-1.25 4-5.8 7.1-11.5 7.55-41.4 10.15-.075.003-.15 0-29.137.309-56.7-6.1-.498-.079-1-.2-.445-.115-.9-.25l-12.45-3.3q-34.955-9.569-41.15-15-.026-.024-.05-.05-.144-.131-.3-.3l-3.35-6.05q-1.278-3.987-1.45-9.8.052.134.1.25.004-.116 0-.25.1.25.2.55-.052-1.851-.15-4.05l-.15-4.8q-.253-6.947-.7-16.55.014-.32 0-.65v-.05q-.002-1.224-.1-2.4-.009-1.133-.05-2.3.01-1.386 0-2.8-.004-.279 0-.55l-3.55-65q-.094-1.16-.2-2.35v-.25q-.35-3-.55-5.95l-.15-1.55-.4-3h.05v-.1l-.4-4.1q-7.95-74.1-19.8-151.4-9.231-59.543-2.4-95.1Z"></path><path fill="#FFF" d="M866.25 1307.75v-.05q-12.55 5.45-32.25 8.2-21.8 2.5-37.95-4.35-.043-.087-.2-.1h-.05q.106 1.19.2 2.35l3.55 65q-.004.271 0 .55.01 1.414 0 2.8.041 1.167.05 2.3.098 1.176.1 2.4v.05q.014.33 0 .65.447 9.603.7 16.55l.15 4.8q.146 2.299.2 4.2.026.092 0 .15 2.266 4.571 8.75 7.95.45.2.9.5 7.411 3.266 17.3 6.5 15.986 5.24 38.45 10.4 31.2 7.9 58.75 4.9 23.15-3.25 32.8-9.05 5-3.1 7.05-7.35-3-8.55-21.25-16.8-5.063-2.294-56.5-24.85-.136-.064-.3-.15l-.3-.15-10.75-7.05q-.95-.863-1.8-1.75-.769-.794-1.45-1.7l-1.9-3.45-1.5-5.05q-.293-1.688-.45-3.55v-.05q-.046.012-.1 0h-.05q.015-.08 0-.2-.017-.092-.05-.2l-.05-1.55v-.05q-.45-15.073-.8-29.05v-.05q-.302-14.117-1.25-23.7M566.9 1330.2v.05q-.354 4.829-1.1 20.05-.75 15.25-2.35 25.7-1.55 10.3-3.95 22.25-2.25 10.8-8.05 34.75-1.998 8.354-4.35 18.7-.431 2.054-.2 3.65.415-1.236 1-2.55 2.85 3.7 6.35 6.8.846.768 1.7 1.5 15.83 13.208 41.6 15.15 14.75 1.05 30.1-.45 11.45-1.05 22.4-2.35 20.95-2.75 24.15-11.75-.55-4.35-3.85-8.55-3.55-5.3-19.55-15.6-8.002-5.247-15.95-12.9-3.77-10.543-2.15-26.7 1.15-14.85 5.15-45.75.45-3.9 1.05-8l.35-3.2-1.8.4q-.9.2-1.75.35-.372.073-.75.15l-.75.1-27.7 1.1q-2.047-.173-4.1-.45-2.616-.277-5.15-.75l-14.65-3.8-12.65-6q-.957-.56-1.95-1.2-.31-.207-.65-.4-.23-.155-.45-.3m62.75 86.2q2.15 4.3 4.85 8.55-2.7-4.25-4.85-8.55-2.2-4.2-2.95-12.6.75 8.4 2.95 12.6m-57.6-941.25q-2.9 5-4.7 8.1l1.4 39.4q.35-.8 2.85-3.1 2.6-2.3 3.45-3.8.55-1.2.75-3.35.15-.75.1-1.6.05-.1 0-.1l-.3-40.85q-1.7 2.4-3.55 5.3m275.45 32.5h.05q-.023-.018-.05-.05v.05m-.4-1.25-.25-.75-.05-.05.3.8m-22.75-14.35q-.08.87-.2 1.75-.387 3.013-2.35 5.9l28.55 16.45v-.05l-1.9-5.75q-1.871-1.733-.95-2.7v-.05.05q-.164-.5-.35-1-.017-.125-.05-.25l-.3-.8-22.45-13.55Z"></path><path fill="#414448" d="M831.45 735.1q-4-14.15-9.3-25.45-33.4 23.45-73.85 40.85-77.5-20.15-136.15-45.05-7.1 12.6-11.05 31.95-7.854 37.679-7.35 86.2-.012.31-.05.6-.147 4.252-.25 9.25-.1 12.2-.8 38.6-1 34.35 1.15 168.75l.5 24.95v.05q.1 1.5.55 3-.45-1.5-.55-3v-.05q-16.738 53.024-19.7 111.05-4.4 86.2-6.7 141.55.094.066.2.1.095.09.2.15.107.074.2.15.248.153.45.3.118.062.2.1.2.158.4.3 1.058.693 2.15 1.35l.25.15q.117.08.2.1.154.116.3.2.194.113.4.2.099.082.2.15.414.235.8.45.225.135.4.25.152.068.25.1.193.115.35.2.2.106.4.2l19.3 6.95q4.796 1.11 10 1.8 2.16.24 4.25.4l28.15-1.4q1.95-.4 3.8-.9.1-.05.2-.05l2.05-16q1.15-8.65 2.35-17.65 20.9-131.5 32.45-203.1l3.7-23.05-.05-.05q.756-3.401 3.5-15.95l6.6-30.55q16.6-79 34.5-183.95.3-1.75.5-3.2.017-.182.05-.35.32-.108.65-.25 2.372-1.049 5.05-2.15 5.624-2.326 12.6-4.9 10.15-3.65 20.1-6.9 9.85-3.2 22-7.45-12.15 4.25-22 7.45-9.95 3.25-20.1 6.9-6.976 2.574-12.6 4.9.775 4.952 1.9 10.15.8 5.95 8.95 56.9 9.55 55.5 20.6 110.65 4.61 21.371 7.7 35.75.388 1.662.7 3.2 1.345-6.775 3.25-12.7-1.905 5.925-3.25 12.7-6.831 35.557 2.4 95.1 11.85 77.3 19.8 151.4l.4 4.1 3.4 1.05q4.243 1.285 8.45 2.15l25.6 1 .5-.05q.286-.015.55-.05h.05q.96-.128 1.9-.25l4.45-.7q14.119-2.397 24.65-7.05.698-.297 1.35-.6-3.2-78.05-4.3-156.7l-.25-58.6-1.4-51.95v-.25q-1.027-96.827-4.2-145.35-.7-10.3-1.55-18.45-.7-5.45-1.45-10.85-4-28.3-10-55.3-.306-1.686-.7-3.4.15 2.593.25 5.15-.1-2.557-.25-5.15-1.746-29.553-10.35-60.15m16.05-227.45q-.921.967.95 2.7-.464-1.358-.95-2.7m-13-36.5q-2.482-7.307-12.15-15.95-5.592-4.111-16-7.85-10.402-3.745-32.5-11.35-9.083-3.098-15.95-5.5h.05q-5.65-2.3-9.05-4.55-7.45-5.35-7.35-18.35l-26 8.35V415l-49.05-11.2-.8 9.55q-2 10-13.9 14.15 4.6 6.789 11.4 12.15-4.123.493-8.35 1.1-24.374 3.516-36.75 11.95-4.784-1.435-9.55-1.5-16.95-.4-27.45 11.55-2.6 3.05-5.5 7.1l.3 40.85q.05 0 0 .1.05.85-.1 1.6 15.973-6.28 30.55-10.65 6.593-7.68 23.75-4.95 17.208 2.733 42 2.45 24.845-.292 118.1-6.45l22.05 2.6h9.7q.448-1.275.8-2.5.328-1.019 1.6-.9v.05l22.45 13.55q-1.82-5.312-3.5-10-6.306-17.098-8.8-24.45Z"></path></g><g id="style_06_color_b_svg__i"><path fill="#414448" d="M.2-.95h.05Q-1.38-2.927-7.4-2.4q-3.34.39-5.65 5.05-.359.743-.75 1.45-3.1 6.255-1.45 14.05L-1.85.55-1.8.5l.35-.5Q-.796-.79.2-.95Z"></path><path fill="#FFF" d="M.25-.95H.2q-.996.16-1.65.95l-.35.5-.05.05-13.4 17.6-2.55 2.8q-1.78 1.63.2 7.9L2.5 3.05q.658-.803.5-1.85.018-.033 0-.1-.153-.932-.95-1.55-.126-.091-.3-.2-.67-.374-1.5-.3Z"></path></g><g id="style_06_color_b_svg__l"><path d="M718 407.7h.05v-2h-2.15l-.45.4.15 43.25-60.35 20.45 27.25 171.7-3.85 89.05.55.45 1 .4 1.05-.3 1.3-30.85 2.5-59-26.9-169.9 60-20.4-.15-43.25Z"></path><path fill="#369CEB" d="m724.35 408.5-6.3-.8H718l.15 43.25-60 20.4 26.9 169.9-2.5 59 6.3.25 2.5-59.3.1-.35-.1-.3L665.15 475l59.4-20.15-.2-46.35Z"></path></g><g id="style_06_color_b_svg__m"><path fill="#202020" d="M-6.6-3.5q-.65.75-.65 1.8T-6.6.1q.65.75 1.6.75.95 0 1.6-.75.65-.75.65-1.8t-.65-1.8q-.65-.75-1.6-.75-.95 0-1.6.75Z"></path><path fill="#EFD16A" d="M2.5-1.45Q1.75-2.3.7-2.3t-1.75.85Q-1.8-.65-1.8.5t.75 2q.7.8 1.75.8t1.8-.8q.7-.85.7-2t-.7-1.95Z"></path></g></defs><g><use xlink:href="#style_06_color_b_svg__a"></use><use xlink:href="#style_06_color_b_svg__b"></use><use xlink:href="#style_06_color_b_svg__c"></use><use xlink:href="#style_06_color_b_svg__d"></use></g><use xlink:href="#style_06_color_b_svg__e" transform="matrix(1.79407 0 0 1.59856 822.95 495.5)"></use><g transform="matrix(1.78325 -.17511 .19653 1.58887 780.35 500.75)"><use xlink:href="#style_06_color_b_svg__f"></use><use xlink:href="#style_06_color_b_svg__g"></use></g><use xlink:href="#style_06_color_b_svg__h" transform="matrix(1.79407 0 0 1.54196 708.5 422.4)"></use><use xlink:href="#style_06_color_b_svg__i" transform="matrix(1.6424 .72197 -.64328 1.46338 616.6 492.95)"></use><g transform="matrix(-1.79245 .0764 .06602 1.59717 662.95 421.05)"><use xlink:href="#style_06_color_b_svg__j"></use><use xlink:href="#style_06_color_b_svg__k"></use></g><use xlink:href="#style_06_color_b_svg__l"></use><g transform="matrix(1.47311 -.07733 0 1.65515 707.247 421.738)"><use xlink:href="#style_06_color_b_svg__m"></use><use xlink:href="#style_06_color_b_svg__n" transform="matrix(1.12042 .05234 0 1 .95 .4)"></use></g></svg>