<svg xmlns="http://www.w3.org/2000/svg" xmlns:xlink="http://www.w3.org/1999/xlink" preserveAspectRatio="none" viewBox="0 0 1500 1500" fill="#fee8d3"><defs><path d="M741.15 371.25q3.5-29.35 3.6-29.75.1-1.65.2-3.4 1.2-17.15-29.55-23.6-57.65-7.7-51.45 9.7 3.45 9.555 3.825 13.425.373 3.859.775 18.15.402 14.3.575 18.85.174 4.544.25 11.7.08 7.145-.075 7.675 16.75 4.6 30.85 7.2 14.1 2.55 15.5 3.85-.8 1.3 23.8-6.6.45-6.4.65-10.25.156-3.045.85-14.2.088-1.318.175-2.75M477.35 823.05q-.05-.3-.05-.65l-1.05-15q8.05-3.85 18.35-3.55 12.2.45 21.65 6.8l-3.6 12.55q.1 1.2.05 2.25.35 1.05 1.5 2.05 2.25 2.05 4.15 2.95 1.95.95 5.55 2.2 3.5 1.25 6.1 4.4 2.65 3.1 3.5 7.45.9 4.25 1.5 6.7.7 2.6 1.1 3.9.9 3.05 1.45 4.45.3 1.65 2.2 4.7 1.9 3.2 4.5 5.8 2.55 2.5 1.6 4.2-1.15 1.65-3.5 1.9-2.4.2-4.35-.55-2.05-.75-5.15-2.7-3.2-2-4.9-6.25-1.6-4.3-2.5-5.25-1.05-1.05-3.45-2.6-2.45-1.6-4.25-1.35-1.95.15-2.75 3.4-.9 3.15-1.05 5.6-.2 2.4-.4 5.1-.35 2.6-.55 3.55-.15 3.9-.1 5.8.15 1.95.35 3.4.35 1.4 1.45 3.35 1.5 2.4 3.3 5.5 1.95 3.2 2.9 6.75 1 3.55-.7 5.45-1.75 1.9-3 1.7-1.35-.2-4.55-4.8-3.3-4.65-5.45-7.95-.3-.55-1.6-2.4-1.25-2.1-2.15-5.15-.9-3.3-1.55-6.7-.7-3.65-1.15-7.15-.45-4.55-.5-5.95-1.8 6.65-2.85 9.8-1.15 3.15-.8 4.6.25 1.4.5 2.5l2 7.7q.3 1.1.7 3.1.45 1.8.55 2.35-.05.45.15 3.35.2 2.95-1.1 4.7-1.35 1.75-2.4 1.9-1.05.15-2.1-.35-1.15-.6-2.8-4.3-1.7-3.8-2.4-7.25-.6-3.15-1.7-6.1-9.1-1.9-11.05-7.8l-.05-4.85q-7.7-8.55-6.4-14.95 1.2-6.65 2.4-10.65 1.15-4.05 2.35-9.6l2.05-18.05m35.35.15q-.4 1.15.05 2.25m-25.8 38.65q-.85 6.6-1.05 9.5-.1 1.15-.15 2.05.15 3.5.5 6.6.1 1.1.3 2.25.55 1.7 1.2 3.75.2.4.3.7m12.15-26.55.1 4.55m-23.2-3.6-.15 12.95m434-32.5q-3.05-3.6-5.55-6.8-2.5-3.3-2.5-7.5.05-2.4.8-4.7-.8-1.2-1.45-2.6l-4.3-13.65q5.15-6.35 13.55-9.25 9.95-3.3 19.85.05l1.65 8.75q9 17.4 13.5 25.65t6.4 11.5q1.85 3.25.95 6-.9 2.7-4.9 6-3.9 3.15-7.75 5.4-3.85 2.25-4.75 2.55-.8.25-2.55.85-1.65.4-4.4-.45l-2.75.9q-1.8.3-3.7.35-1.95.1-2.55-1.2-.55 0-2.05.2-1.5.1-2.3-.05-.7-.35-1.3-1.3-.6-.95-1.05-2.35-2.2.65-3.5-.9-1.35-1.65-2.2-5.9-.85-4.2-.85-7.45.05-3.3 3.85-2.8.2-.35.3-.55m22.3-8.9q-.2 2.6-.7 5.3-.4 2.55-.95 4.6-.15.95-.55 1.9l5.85.7m-32.1-26.75q-1 1.65-1.55 3.4m10.1 37.35q.1-.3-1.15-5.75-.75-3.7-1-5.9-.75-.75-.7-1.55-.05-.9.6-1.75.25-.35.6-.65 1.25-1.1 2.65-1.55.1-.05.35-.1.85-.25 2.2-.4 1.35-.25 2.4-.55-.85-2.6-1.6-4.65-.75-2.05-.75-4.5.05-1.35 1-3.35.85-1.9 2.45-4.3m14.9 27.55-4.75-5.25q-.9 1.6-2.2 3.2-1.2 1.55-11.05.3 6.25.95 6.45 1.85.35 1.85 1 4.05.6 2.25 1.8 3.85 1.2 1.5 2.5 2.9m2-18.15q-.2.95-.5 2m-19.6-4.9q.45.25 1 .55-.45-.35-.85-.75-.1.1-.15.2Zm9.1 21.1q-.45-.95-1-2.65-1.85-5.6-2.6-10.2-.85-.15-1.65-.3-1.4-.35-2.85-1.35-.45-.3-.75-.65m6.1 2.45q-.4-.15-.85-.15m-4.5-7.7h-1.3" id="style_06_outline_svg__b" fill="none" stroke="#000" stroke-width="2" stroke-linejoin="round" stroke-linecap="round"></path><g id="style_06_outline_svg__a"><path fill="#F1C19F" fill-opacity="0" d="M663.95 324.2q3.45 9.555 3.8 13.4.398 3.884.8 18.15.402 14.325.55 18.85.199 4.569.25 11.7.106 7.17-.05 7.7 16.75 4.6 30.85 7.2 14.1 2.55 15.5 3.85-.8 1.3 23.8-6.6.45-6.4.65-10.25.156-3.045.85-14.2.088-1.318.15-2.75h.05q3.5-29.35 3.6-29.75.1-1.65.2-3.4 1.2-17.15-29.55-23.6-57.65-7.7-51.45 9.7Z"></path><path fill="#A5795B" d="M713.25 413.55q1.35.2-.75-1.85-.35 1.65.75 1.85Z"></path><path fill="#F1C29F" fill-opacity="0" d="M917.7 852.95q-.4-.15-.85-.15.75 4.6 2.6 10.2.55 1.7 1 2.65.6 1.3 2.55 1.2 1.9-.05 3.7-.35l2.75-.9q-1.3-1.4-2.5-2.9-1.2-1.6-1.8-3.85-.65-2.2-1-4.05-.2-.9-6.45-1.85m-5.35-1.8q-.45-.3-.75-.65.25 2.2 1 5.9 1.25 5.45 1.15 5.75.45 1.4 1.05 2.35.6.95 1.3 1.3.8.15 2.3.05 1.5-.2 2.05-.2-.45-.95-1-2.65-1.85-5.6-2.6-10.2-.85-.15-1.65-.3-1.4-.35-2.85-1.35m0-6.05q-.55-.3-1-.55-.1.2-.3.55h1.3m-1-.55q.45.25 1 .55-.45-.35-.85-.75-.1.1-.15.2m35.1-10.8q-4.5-8.25-13.5-25.65l-1.65-8.75q-9.9-3.35-19.85-.05-8.4 2.9-13.55 9.25l4.3 13.65q.65 1.4 1.45 2.6.55-1.75 1.55-3.4-1 1.65-1.55 3.4-.75 2.3-.8 4.7 0 4.2 2.5 7.5 2.5 3.2 5.55 6.8-.4.05-.5.05-.05.05.95.7.05-.1.15-.2.4.4.85.75h-1.3q-3.8-.5-3.85 2.8 0 3.25.85 7.45.85 4.25 2.2 5.9 1.3 1.55 3.5.9.1-.3-1.15-5.75-.75-3.7-1-5.9-.75-.75-.7-1.55-.05-.9.6-1.75.25-.35.6-.65 1.25-1.1 2.65-1.55.1-.05.35-.1.85-.25 2.2-.4 1.35-.25 2.4-.55-.85-2.6-1.6-4.65-.75-2.05-.75-4.5.05-1.35 1-3.35.85-1.9 2.45-4.3-1.6 2.4-2.45 4.3-.95 2-1 3.35 0 2.45.75 4.5t1.6 4.65q-1.05.3-2.4.55-1.35.15-2.2.4-.25.05-.35.1-1.4.45-2.65 1.55-.35.3-.6.65-.65.85-.6 1.75-.05.8.7 1.55.3.35.75.65 1.45 1 2.85 1.35.8.15 1.65.3.45 0 .85.15 9.85 1.25 11.05-.3 1.3-1.6 2.2-3.2.3-1.05.5-2 .4-.95.55-1.9.55-2.05.95-4.6.5-2.7.7-5.3-.2 2.6-.7 5.3-.4 2.55-.95 4.6-.15.95-.55 1.9l5.85.7-5.85-.7q-.2.95-.5 2l4.75 5.25-4.75-5.25q-.9 1.6-2.2 3.2-1.2 1.55-11.05.3 6.25.95 6.45 1.85.35 1.85 1 4.05.6 2.25 1.8 3.85 1.2 1.5 2.5 2.9 2.75.85 4.4.45 1.75-.6 2.55-.85.9-.3 4.75-2.55t7.75-5.4q4-3.3 4.9-6 .9-2.75-.95-6-1.9-3.25-6.4-11.5m-433.8-10.55q-.4 1.15.05 2.25.05-1.05-.05-2.25m0 0 3.6-12.55q-9.45-6.35-21.65-6.8-10.3-.3-18.35 3.55l1.05 15q0 .35.05.65h-.05l-2.05 18.05q-1.2 5.55-2.35 9.6-1.2 4-2.4 10.65-1.3 6.4 6.4 14.95l.15-12.95-.15 12.95.05 4.85q1.95 5.9 11.05 7.8-.1-.3-.3-.7-.65-2.05-1.2-3.75-.2-1.15-.3-2.25-.35-3.1-.5-6.6.05-.9.15-2.05.2-2.9 1.05-9.5-.85 6.6-1.05 9.5-.1 1.15-.15 2.05.15 3.5.5 6.6.1 1.1.3 2.25.55 1.7 1.2 3.75.2.4.3.7 1.1 2.95 1.7 6.1.7 3.45 2.4 7.25 1.65 3.7 2.8 4.3 1.05.5 2.1.35 1.05-.15 2.4-1.9 1.3-1.75 1.1-4.7-.2-2.9-.15-3.35-.1-.55-.55-2.35-.4-2-.7-3.1l-2-7.7q-.25-1.1-.5-2.5-.35-1.45.8-4.6 1.05-3.15 2.85-9.8l-.1-4.55.1 4.55q.05 1.4.5 5.95.45 3.5 1.15 7.15.65 3.4 1.55 6.7.9 3.05 2.15 5.15 1.3 1.85 1.6 2.4 2.15 3.3 5.45 7.95 3.2 4.6 4.55 4.8 1.25.2 3-1.7 1.7-1.9.7-5.45-.95-3.55-2.9-6.75-1.8-3.1-3.3-5.5-1.1-1.95-1.45-3.35-.2-1.45-.35-3.4-.05-1.9.1-5.8.2-.95.55-3.55.2-2.7.4-5.1.15-2.45 1.05-5.6.8-3.25 2.75-3.4 1.8-.25 4.25 1.35 2.4 1.55 3.45 2.6.9.95 2.5 5.25 1.7 4.25 4.9 6.25 3.1 1.95 5.15 2.7 1.95.75 4.35.55 2.35-.25 3.5-1.9.95-1.7-1.6-4.2-2.6-2.6-4.5-5.8-1.9-3.05-2.2-4.7-.55-1.4-1.45-4.45-.4-1.3-1.1-3.9-.6-2.45-1.5-6.7-.85-4.35-3.5-7.45-2.6-3.15-6.1-4.4-3.6-1.25-5.55-2.2-1.9-.9-4.15-2.95-1.15-1-1.5-2.05-.45-1.1-.05-2.25Z"></path></g></defs><g><use xlink:href="#style_06_outline_svg__a"></use><use xlink:href="#style_06_outline_svg__b"></use></g></svg>