<svg xmlns="http://www.w3.org/2000/svg" xmlns:xlink="http://www.w3.org/1999/xlink" preserveAspectRatio="none" viewBox="0 0 1500 1500" fill="#2f1b12"><defs><path id="a_hair_35_outline_svg__b" d="M800.6 221.4q-.76 3.673-1.3 6.15-.859 3.91-1.15 4.75-.158.453-.15 0 .02-1.237.15-4.575.071-1.82.175-4.275.047-1.13.075-2.4.099-6.51-.5-16.65-.722-12.123-8.3-27.2-6.3 4-13.25 6.8-2.6 1-5.35 1.9-1.95.65-4 1.15-5.2 1.2-10.75 1.45-.35 0-.65.1-3.05.1-6.3 0-11.85-.35-27.5-4.05-3.5-.95-6.85-1.7-12.65-3.15-19.8-4.7-2.95-.65-5.75-1.25-12.2-2.1-21.65-2.1-2.05 0-3.65.75-1.1.55-1.65 1.2v1.2q-.2 3.35-.2 6.6-.05 16.2 1.15 32.45.05 1.6.25 3.1-.55 2.2-1.85 4.8-.45.95-2.6 4.35-4.6 7.45-9.9 15.25-1.2 14.85-.9 30.15.15 8.35.9 16.9.2 2.7.45 5.4.2 2.75.55 5.65-13.6-10.85-38.8-20.05m144.1-93.95q-3.05-.55-6.1-2.2-5.2-2.9-9.35-8.2-2.5-2.75-6.65-9.8-4.1-6.7-6.8-9.65-5.35-6.25-13.2-9.95-5.5-2.4-11.2-3.45-1.95-.25-4-.45m-60.2 19.95q9.9-3.5 20.55-3.5 10.55-.1 20.4 3.25 6.45 2.3 15.7 7.4 14.3 8 15.5 8.55 2.4 1.2 4.7 2.3M771 185.9q1.85-5.35 2.1-11.2.4-8.25-2.55-15.8-3.1-7.5-8.9-13.45-5.3-5.3-11.75-8.15m39.7 39.9q.75-.55 1.65-1m9.375 45.1.05-.25q.104-.561-1.525 3.95" stroke="#000" stroke-width="1.5" stroke-linejoin="round" stroke-linecap="round" fill="none"></path><path id="a_hair_35_outline_svg__c" stroke="#000" stroke-width="3" stroke-linejoin="round" stroke-linecap="round" fill="none" d="M607.925 256.65q-1.189-9.166-2.325-18.1-2.15-16.6-4.15-32.6-.95-7.3-.5-14.55.3-2.8 1.05-5.55 1.75-6.8 3.85-21 3.35-8.5 8.55-16.6 5.1-7.9 11.4-14.4l.35-.35q2.5-2.3 5.3-4.35 4.8-3.7 10.15-5.95 7.7-3.15 15.85-2.6 28.05-.65 43.45-3.45 2.95-.55 5.8-.9 14.4-2.6 28.75-3.55 2.95-.1 6-.15 14.45-.65 27.05 7.05 4.15 2.4 7.85 5.25 5.65 4.2 10.65 9.2 4.35 4.1 8.15 9.2.85 1.3 1.5 2.8 1.55 3.8 1.65 8.25.1 1.75.1 3.6t-.35 5q-.1.6-.1 1.15 0 .1.1.15 2 2.6 3.8 5.4.05.2.25.45 5.1 6.6 4.4 19.2-.698 11.123-5.875 32.05-.01.046-.025.1m-191.5 44.575q-.42-3.28-.825-6.525-.57-1.106-.35-2.8M800.6 221.4q-.682 1.775-1.45 3.6M611.5 282.55q-.9-5.5-1.9-13.35-.1-.5-.2-.95-.146-1.136-.3-2.275"></path><path id="a_hair_35_outline_svg__d" stroke="#000" stroke-width="1.5" stroke-linejoin="round" stroke-linecap="round" fill="none" d="M750.65 243.55q-.25-1.3-.35-2.8l-.05-1.35.55 1.4q1 1.5 4.15 1.9 1.45.1 3.15 0 3.95 0 9-.6 3.4-.4 5.9-.7 6.5-.7 6.6-.7 6.3-.5 11.45.25.35-.1.7 0 2.95.55 5.5 1.4.8.25 1.5.7 1.25 1.2 2.4 3.55.5 1 1 2.05.45 1.25 1 2.45.25.5.5 1.15l-.15.45q-.2.65-.4 1.25-.6 1.7-1.35 3.2-.15.35-.4.85-3.9-2.95-8.15-5.2-6.1-1.9-14.85-2.1-19.45-.75-22.05-1.3-3.25-.55-4.55-2.15-.45-1.05-.8-2.05-.2-.8-.3-1.65Z"></path><path id="a_hair_35_outline_svg__e" stroke="#000" stroke-width="1.5" stroke-linejoin="round" stroke-linecap="round" fill="none" d="M735.65 253.65q.8-1.25 1.45-2.65l.65-1.35-1.2 1.25q-1.85 1.2-5.9.9-1.85-.45-3.95-.85-4.85-1-10.95-2.85-4.05-1.25-6.95-2.1-7.7-2.3-7.9-2.4-7.65-1.9-14.25-2.55-.4-.1-.85-.1-3.95-.15-7.5.05-1.05.05-2 .2-2.1.85-4.45 2.85-.95.85-2.05 1.85-1.1 1-2.15 2.05-4.5 4.3-8.9 10.05 10.15-4.05 20.5-5.9 8.35-.35 19.2 1.6 24.45 4 27.9 4.15 4.2.35 6.5-.9.9-.9 1.75-1.85.5-.65 1.05-1.45Z"></path><g id="a_hair_35_outline_svg__a"><path d="M800.6 221.3q.049-.124.05-.25.13-.561-1.5 3.95.768-1.825 1.45-3.6.016-.054 0-.1ZM609.6 269.2q-.1-.5-.2-.95-.146-1.136-.3-2.3-1.475 2.509 2.4 16.6-.9-5.5-1.9-13.35m52.65-84.65q-7 2.5-13.85 6.85-2.45 1.5-4.65 3.15-10.1 7.45-16.85 17.2 9.9-3.9 20.65-5.85 1.55-.3 3.25-.6-1.85 1.05-3.7 2.15-8.7 5.3-15.95 12.9-1.2 1.3-2.4 2.7-6.4 7.15-10.65 15.5-9.486 12.39-10.2 18.1-.194 1.694.35 2.8.138.236.3.45 3.386 4.463 1 5.65-.26.13-.45.4.154 1.164.3 2.3.1.45.2.95 1 7.85 1.9 13.35 25.2 9.2 38.8 20.05-.35-2.9-.55-5.65-.25-2.7-.45-5.4-.75-8.55-.9-16.9-.3-15.3.9-30.15 5.3-7.8 9.9-15.25 2.15-3.4 2.6-4.35 1.3-2.6 1.85-4.8-.2-1.5-.25-3.1-1.2-16.25-1.15-32.45Z"></path></g></defs><g><use xlink:href="#a_hair_35_outline_svg__a"></use><use xlink:href="#a_hair_35_outline_svg__b"></use><use xlink:href="#a_hair_35_outline_svg__c"></use></g><use xlink:href="#a_hair_35_outline_svg__d" transform="translate(0 -10)"></use><use xlink:href="#a_hair_35_outline_svg__e" transform="translate(0 -10)"></use></svg>