<svg xmlns="http://www.w3.org/2000/svg" xmlns:xlink="http://www.w3.org/1999/xlink" preserveAspectRatio="none" viewBox="0 0 1500 1500" fill="#2f1b12"><defs><g id="a_hair_35_fill_svg__a"><path d="M734.6 245.1q.5-.65 1.05-1.45.8-1.25 1.45-2.65l.65-1.35-1.2 1.25q-1.85 1.2-5.9.9-1.85-.45-3.95-.85-4.85-1-10.95-2.85-4.05-1.25-6.95-2.1-7.7-2.3-7.9-2.4-7.65-1.9-14.25-2.55-.4-.1-.85-.1-3.95-.15-7.5.05-1.05.05-2 .2-2.1.85-4.45 2.85-.95.85-2.05 1.85-1.1 1-2.15 2.05-4.5 4.3-8.9 10.05 10.15-4.05 20.5-5.9 8.35-.35 19.2 1.6 24.45 4 27.9 4.15 4.2.35 6.5-.9.9-.9 1.75-1.85m45-14.4q-.1 0-6.6.7-2.5.3-5.9.7-5.05.6-9 .6-1.7.1-3.15 0-3.15-.4-4.15-1.9l-.55-1.4.05 1.35q.1 1.5.35 2.8.1.85.3 1.65.35 1 .8 2.05 1.3 1.6 4.55 2.15 2.6.55 22.05 1.3 8.75.2 14.85 2.1 4.25 2.25 8.15 5.2.25-.5.4-.85.75-1.5 1.35-3.2.2-.6.4-1.25l.15-.45q-.25-.65-.5-1.15-.55-1.2-1-2.45-.5-1.05-1-2.05-1.15-2.35-2.4-3.55-.7-.45-1.5-.7-2.55-.85-5.5-1.4-.35-.1-.7 0-5.15-.75-11.45-.25Z"></path><path d="m798.2 222.3.05-.05h-.2v.05q0 .45.15 0m-78.5-108q-5.28 1.187-9.5.7-4.165-.438-20.3 2.5-16.145 2.937-21.55 3.65-5.34.756-16.25-.15-10.912-.864-17 5.35-6.096 6.226-12.65 12.75-6.548 6.513-11.35 15.7-4.807 9.246-5.95 20-4.98 16.514-4.5 20.4.537 3.898.9 16.4.364 12.548 4.35 33.95 4.025 21.446 12.25-7 4.25-8.35 10.65-15.5 1.2-1.4 2.4-2.7 7.25-7.6 15.95-12.9 1.85-1.1 3.7-2.15-1.7.3-3.25.6-10.75 1.95-20.65 5.85 6.75-9.75 16.85-17.2 2.2-1.65 4.65-3.15 6.85-4.35 13.85-6.85 0-3.25.2-6.6v-1.2q.55-.65 1.65-1.2 1.6-.75 3.65-.75 9.45 0 21.65 2.1 2.8.6 5.75 1.25 7.15 1.55 19.8 4.7 3.35.75 6.85 1.7 15.65 3.7 27.5 4.05 3.25.1 6.3 0 .3-.1.65-.1 5.55-.25 10.75-1.45 2.05-.5 4-1.15 2.75-.9 5.35-1.9 6.95-2.8 13.25-6.8 7.6 15.1 8.3 27.2.6 10.15.5 16.65-.05 1.25-.05 2.4-.15 2.45-.2 4.3-.147 3.235-.15 4.5h.15q.324-.909 1.15-4.7.55-2.5 1.3-6.15-.7 1.75-1.45 3.6 1.65-4.5 1.55-3.95-.042.125-.05.2 5.159-13.41 6.15-25.4 1.034-11.928-.6-15.5-1.588-3.576-2.3-4.1-.664-.471-3.1-6.15-2.381-5.632-3.25-5.35-.865.32-.4-6.9.465-7.209.05-9.95-1.82-2.922-4.2-6.7-2.378-3.775-7.05-7.5-4.628-3.68-10.45-8.55-5.826-4.871-10.35-7.65-4.515-2.718-12.15-4.6-7.599-1.837-33.35 1.4Z"></path></g></defs><use xlink:href="#a_hair_35_fill_svg__a"></use></svg>