<svg xmlns="http://www.w3.org/2000/svg" xmlns:xlink="http://www.w3.org/1999/xlink" preserveAspectRatio="none" viewBox="0 0 1500 1500" fill="#fee8d3"><defs><path fill="#FEE7D3" d="M795.7 327.45h.15q.029-5.778.1-11.25-.05.4-.05.85-.16 6.114-.2 10.4Z" id="head_01_outline_svg__a"></path><path id="head_01_outline_svg__b" stroke="#000" stroke-width="1.3" stroke-linejoin="round" stroke-linecap="round" fill="none" d="M607.35 283.55q7.25 1.1 12.3 4.05 5.1 3 6.2 5.2-.95 8.95 2.4 15.05 1.746 3.144 3.95 5.225.629.61 1.3 1.125"></path><path id="head_01_outline_svg__c" stroke="#000" stroke-width="3" stroke-linejoin="round" stroke-linecap="round" fill="none" d="M795.95 316.2q.143-13.656.5-25.4.6-22.25 2.2-47.75 2.85-31.35 2.4-42.4-.5-11.05-1.15-15.15-1.55-15.55-14.4-31.2-12.95-15.7-32.25-24.05-18.15-7.8-42.9-7.4-24.85.35-42.2 7.6-17.35 7.3-29.1 21.9-11.7 14.5-14.8 32-3 17.5-2.65 35.3.2 17.7 1.8 33 1.089 9.672 2.225 18.5.743.292 1.475.65l1.3.95m8.2 56.75q.054.215.1.425 10.61 41.408 41.4 57.375l1 .35q23.622 10.348 44.95 9.55 9.65.65 25-3 20-4.8 30.15-14.5 10.25-9.75 13.8-21.05 2.55-8.55 2.85-18.55 0-1.5-.1-6.6-.07-2.341-.05-6.05.04-4.286.2-10.4 0-.45.05-.85-.071 5.472-.1 11.25m-170.225-56.3q-6.365-2.455-13.925.05-9.25 3.05-13.15 11.95-3.9 8.85-1.85 18.7 2 9.25 8.3 16.2 6.35 6.95 15.2 9.8 8.662 2.691 16.5 2.075"></path></defs><g><use xlink:href="#head_01_outline_svg__a"></use><use xlink:href="#head_01_outline_svg__b"></use><use xlink:href="#head_01_outline_svg__c"></use></g></svg>