<svg xmlns="http://www.w3.org/2000/svg" xmlns:xlink="http://www.w3.org/1999/xlink" preserveAspectRatio="none" viewBox="0 0 1500 1500" fill="#fee8d3"><defs><path d="M917.95 840.4q-.4-.15-.85-.15.75 4.6 2.6 10.2.55 1.7 1 2.65.6 1.3 2.55 1.2 1.9-.05 3.7-.35l2.75-.9q-1.3-1.4-2.5-2.9-1.2-1.6-1.8-3.85-.65-2.2-1-4.05-.2-.9-6.45-1.85m-5.35-1.8q-.45-.3-.75-.65.25 2.2 1 5.9 1.25 5.45 1.15 5.75.45 1.4 1.05 2.35.6.95 1.3 1.3.8.15 2.3.05 1.5-.2 2.05-.2-.45-.95-1-2.65-1.85-5.6-2.6-10.2-.85-.15-1.65-.3-1.4-.35-2.85-1.35m0-6.05q-.55-.3-1-.55-.1.2-.3.55h1.3m-1-.55q.45.25 1 .55-.45-.35-.85-.75-.1.1-.15.2m20.65 1q-.15.95-.55 1.9l5.85.7-5.85-.7q-.2.95-.5 2l4.75 5.25-4.75-5.25q-.9 1.6-2.2 3.2-1.2 1.55-11.05.3 6.25.95 6.45 1.85.35 1.85 1 4.05.6 2.25 1.8 3.85 1.2 1.5 2.5 2.9 2.75.85 4.4.45 1.75-.6 2.55-.85.9-.3 4.75-2.55t7.75-5.4q4-3.3 4.9-6 .9-2.75-.95-6-1.9-3.25-6.4-11.5t-13.55-25.7l-27.7 13.35q-2.3 3.85-2.35 8.1 0 4.2 2.5 7.5 2.5 3.2 5.55 6.8-.4.05-.5.05-.05.05.95.7.05-.1.15-.2.4.4.85.75h-1.3q-3.8-.5-3.85 2.8 0 3.25.85 7.45.85 4.25 2.2 5.9 1.3 1.55 3.5.9.1-.3-1.15-5.75-.75-3.7-1-5.9-.75-.75-.7-1.55-.05-.9.6-1.75.25-.35.6-.65 1.25-1.1 2.65-1.55.1-.05.35-.1.85-.25 2.2-.4 1.35-.25 2.4-.55-.85-2.6-1.6-4.65-.75-2.05-.75-4.5.1-2.6 3.45-7.65-3.35 5.05-3.45 7.65 0 2.45.75 4.5t1.6 4.65q-1.05.3-2.4.55-1.35.15-2.2.4-.25.05-.35.1-1.4.45-2.65 1.55-.35.3-.6.65-.65.85-.6 1.75-.05.8.7 1.55.3.35.75.65 1.45 1 2.85 1.35.8.15 1.65.3.45 0 .85.15 9.85 1.25 11.05-.3 1.3-1.6 2.2-3.2.3-1.05.5-2 .4-.95.55-1.9.55-2.05.95-4.6.5-2.7.7-5.3-.2 2.6-.7 5.3-.4 2.55-.95 4.6m-397 5.65q-.6-2.45-1.5-6.7-.85-4.35-3.5-7.45-2.6-3.15-6.1-4.4-3.6-1.25-5.55-2.2-1.895-.903-4.2-2.95-2.265-2.043-1.5-4.3l-35.35-.15-2.05 18.05q-1.2 5.55-2.35 9.6-1.2 4-2.4 10.65-1.3 6.4 6.4 14.95l.15-12.95-.15 12.95.05 4.85q1.95 5.9 11.05 7.8-.1-.3-.3-.7-.65-2.05-1.2-3.75-.2-1.15-.3-2.25-.35-3.1-.5-6.6.05-.9.15-2.05.2-2.9 1.05-9.5-.85 6.6-1.05 9.5-.1 1.15-.15 2.05.15 3.5.5 6.6.1 1.1.3 2.25.55 1.7 1.2 3.75.2.4.3.7 1.1 2.95 1.7 6.1.7 3.45 2.4 7.25 1.65 3.7 2.8 4.3 1.05.5 2.1.35 1.05-.15 2.4-1.9 1.3-1.75 1.1-4.7-.2-2.9-.15-3.35-.1-.55-.55-2.35-.4-2-.7-3.1l-2-7.7q-.25-1.1-.5-2.5-.35-1.45.8-4.6 1.05-3.15 2.85-9.8l-.1-4.55.1 4.55q.05 1.4.5 5.95.45 3.5 1.15 7.15.65 3.4 1.55 6.7.9 3.05 2.15 5.15 1.3 1.85 1.6 2.4 2.15 3.3 5.45 7.95 3.2 4.6 4.55 4.8 1.25.2 3-1.7 1.7-1.9.7-5.45-.95-3.55-2.9-6.75-1.8-3.1-3.3-5.5-1.1-1.95-1.45-3.35-.2-1.45-.35-3.4-.05-1.9.1-5.8.2-.95.55-3.55.2-2.7.4-5.1.15-2.45 1.05-5.6.8-3.25 2.75-3.4 1.8-.25 4.25 1.35 2.4 1.55 3.45 2.6.9.95 2.5 5.25 1.7 4.25 4.9 6.25 3.1 1.95 5.15 2.7 1.95.75 4.35.55 2.35-.25 3.5-1.9.95-1.7-1.6-4.2-2.6-2.6-4.5-5.8-1.9-3.05-2.2-4.7-.55-1.4-1.45-4.45-.4-1.3-1.1-3.9Z" id="style_06_fill_svg__c"></path><path d="M739.025 390.3q.768 3.23.425 8.15-24.6 7.9-23.8 6.6-1.4-1.3-15.5-3.85-14.1-2.6-30.85-7.2m6.9-80.375q10.194-4.844 33.3.125 9.66 1.363 16.525 4.525M516.25 810.65l-3.6 12.55q1.05 12.45-18.65 12.2-16.7-1.85-16.7-13l-1.05-15q8.05-3.85 18.35-3.55 12.2.45 21.65 6.8Zm415.05-11.3 3.25 17.45q3.35 8.15-12.65 14-14.05 3.35-19.7-8.6l-4.3-13.65q5.15-6.35 13.55-9.25 9.95-3.3 19.85.05Z" id="style_06_fill_svg__b" stroke="#000" stroke-opacity="0" stroke-width="2" stroke-linejoin="round" stroke-linecap="round" fill="none"></path><path id="style_06_fill_svg__d" stroke="#000" stroke-opacity="0" stroke-width="2" stroke-linejoin="round" stroke-linecap="round" fill="none" d="M512.9 810.65q-.765 2.257 1.525 4.3 2.28 2.047 4.175 2.95 1.95.95 5.55 2.2 3.5 1.25 6.1 4.4 2.65 3.1 3.5 7.45.9 4.25 1.5 6.7.7 2.6 1.1 3.9.9 3.05 1.45 4.45.3 1.65 2.2 4.7 1.9 3.2 4.5 5.8 2.55 2.5 1.6 4.2-1.15 1.65-3.5 1.9-2.4.2-4.35-.55-2.05-.75-5.15-2.7-3.2-2-4.9-6.25-1.6-4.3-2.5-5.25-1.05-1.05-3.45-2.6-2.45-1.6-4.25-1.35-1.95.15-2.75 3.4-.9 3.15-1.05 5.6-.2 2.4-.4 5.1-.35 2.6-.55 3.55-.15 3.9-.1 5.8.15 1.95.35 3.4.35 1.4 1.45 3.35 1.5 2.4 3.3 5.5 1.95 3.2 2.9 6.75 1 3.55-.7 5.45-1.75 1.9-3 1.7-1.35-.2-4.55-4.8-3.3-4.65-5.45-7.95-.3-.55-1.6-2.4-1.25-2.1-2.15-5.15-.9-3.3-1.55-6.7-.7-3.65-1.15-7.15-.45-4.55-.5-5.95-1.8 6.65-2.85 9.8-1.15 3.15-.8 4.6.25 1.4.5 2.5l2 7.7q.3 1.1.7 3.1.45 1.8.55 2.35-.05.45.15 3.35.2 2.95-1.1 4.7-1.35 1.75-2.4 1.9-1.05.15-2.1-.35-1.15-.6-2.8-4.3-1.7-3.8-2.4-7.25-.6-3.15-1.7-6.1-9.1-1.9-11.05-7.8l-.05-4.85q-7.7-8.55-6.4-14.95 1.2-6.65 2.4-10.65 1.15-4.05 2.35-9.6l2.05-18.05m9.6 41.05q-.85 6.6-1.05 9.5-.1 1.15-.15 2.05.15 3.5.5 6.6.1 1.1.3 2.25.55 1.7 1.2 3.75.2.4.3.7m12.15-26.55.1 4.55m-23.2-3.6-.15 12.95M933.9 823.1q-.2 2.6-.7 5.3-.4 2.55-.95 4.6-.15.95-.55 1.9l5.85.7m-7.85 17.45q2.75.85 4.4.45 1.75-.6 2.55-.85.9-.3 4.75-2.55t7.75-5.4q4-3.3 4.9-6 .9-2.75-.95-6-1.9-3.25-6.4-11.5t-13.55-25.7m-27.7 13.35q-2.3 3.85-2.35 8.1 0 4.2 2.5 7.5 2.5 3.2 5.55 6.8m.45.75q.05-.1.15-.2.4.4.85.75h-1.3q-3.8-.5-3.85 2.8 0 3.25.85 7.45.85 4.25 2.2 5.9 1.3 1.55 3.5.9.1-.3-1.15-5.75-.75-3.7-1-5.9-.75-.75-.7-1.55-.05-.9.6-1.75.25-.35.6-.65 1.25-1.1 2.65-1.55.1-.05.35-.1.85-.25 2.2-.4 1.35-.25 2.4-.55-.85-2.6-1.6-4.65-.75-2.05-.75-4.5.1-2.6 3.45-7.65m-8.45 17.95q-.55-.3-1-.55-.1.2-.3.55m9.4 20.55q-.45-.95-1-2.65-1.85-5.6-2.6-10.2-.85-.15-1.65-.3-1.4-.35-2.85-1.35-.45-.3-.75-.65m17.85 15.1q-1.3-1.4-2.5-2.9-1.2-1.6-1.8-3.85-.65-2.2-1-4.05-.2-.9-6.45-1.85-.4-.15-.85-.15m18.85 1.9-4.75-5.25q-.9 1.6-2.2 3.2-1.2 1.55-11.05.3m-3.95 9.2q.45 1.4 1.05 2.35.6.95 1.3 1.3.8.15 2.3.05 1.5-.2 2.05-.2.6 1.3 2.55 1.2 1.9-.05 3.7-.35l2.75-.9m2-18.15q-.2.95-.5 2"></path><g id="style_06_fill_svg__a"><path d="M931.3 799.35q-9.9-3.35-19.85-.05-8.4 2.9-13.55 9.25l4.3 13.65q5.65 11.95 19.7 8.6 16-5.85 12.65-14l-3.25-17.45m-415.05 11.3q-9.45-6.35-21.65-6.8-10.3-.3-18.35 3.55l1.05 15q0 11.15 16.7 13 19.7.25 18.65-12.2l3.6-12.55Z"></path><path fill="#A5795B" d="M712.5 411.7q-.35 1.65.75 1.85 1.35.2-.75-1.85Z"></path><path d="M726.95 318.15q-.485 0-.95.1-6.84-3.137-16.5-4.5-23.106-4.97-33.3-.15-.878-.182-1.35-.3l-2.15-.25q-.9 0-1.35.1-1.1.2-2.25.95-2.094 1.298-2.85 2.7-2.165 1.271-2.6 3.3-.25 1.1.2 2.55.15.6.9 2.45 2.15 5.15 3.5 13.05 1.195 6.945 1.3 13.1.164 6.164-.15 8.5-.32 2.388-.15 3.4.23 1-.35 3.4-.535 2.398.45 4.2 1.045 1.853.5 2.55-.505.698-.65 2.4-.138 1.75.45 5.45.64 3.748.75 5.65.103 1.904-1.1 7.2 16.75 4.6 30.85 7.2 14.1 2.55 15.5 3.85-.8 1.3 23.8-6.6.343-4.92-.45-8.15.448-3.26 1.35-9.65.913-6.386 1.4-8.3.481-1.866-.6-5.65l.85-6.7q.384-3.12.3-4.85.778-.99 1.35-2.5 1-2.75 1-5.55 0-1-.2-2.75-.2-1.9-.2-2.7 0-.8.15-3.3.1-2.1-.05-3.35-.4-3.7-2.9-7.25-2.5-3.7-5.75-5.6-.75-.45-2.35-1.15-1.65-.75-2.4-1.2-1.3-.75-1.95-1.1-1.15-.55-2.05-.55Z"></path></g></defs><g><use xlink:href="#style_06_fill_svg__a"></use><use xlink:href="#style_06_fill_svg__b"></use></g><g transform="translate(-.25 12.55)"><use xlink:href="#style_06_fill_svg__c"></use><use xlink:href="#style_06_fill_svg__d"></use></g></svg>