<svg 
 xmlns="http://www.w3.org/2000/svg"
 xmlns:xlink="http://www.w3.org/1999/xlink"
 width="117px" height="117px">
<path fill-rule="evenodd"  fill="rgb(255, 234, 0)"
 d="M58.500,116.1000 C26.191,116.1000 0.000,90.809 0.000,58.500 C0.000,26.191 26.191,0.000 58.500,0.000 C90.809,0.000 116.1000,26.191 116.1000,58.500 C116.1000,90.809 90.809,116.1000 58.500,116.1000 ZM58.000,102.1000 C62.971,102.1000 66.1000,98.971 66.1000,94.000 C66.1000,89.029 62.971,84.1000 58.000,84.1000 C53.029,84.1000 48.1000,89.029 48.1000,94.000 C48.1000,98.971 53.029,102.1000 58.000,102.1000 ZM59.1000,14.000 C41.345,14.000 33.000,25.068 33.000,36.1000 C38.996,37.078 47.000,36.1000 47.000,36.1000 C47.000,36.1000 48.729,26.1000 57.000,26.1000 C65.271,26.1000 69.1000,31.112 69.1000,37.1000 C69.1000,44.888 51.1000,51.042 51.1000,66.1000 C51.1000,71.007 51.1000,73.504 51.1000,75.000 L65.000,75.000 C65.000,75.000 62.721,66.279 69.1000,58.1000 C77.279,51.721 83.1000,46.823 83.1000,36.1000 C83.1000,27.177 78.655,14.000 59.1000,14.000 Z"/>
</svg>