<svg xmlns="http://www.w3.org/2000/svg" xmlns:xlink="http://www.w3.org/1999/xlink" preserveAspectRatio="none" viewBox="0 0 1500 1500" fill="#fee8d3"><defs><path d="M875.55 855.1q-1.7.55-2.9.95-1.5.65-1.7.75-.95.6-1.25 1.5-.3.5-.3 2.85l.25 2.1q1.05-.75 2.8-1.35 2.2-.3 4-.5-.6-1.2-.8-2.25-.35-1.65-.1-4.05m43.05-19.7q-.1-.05-.25-.1l1.75-6.2q-19.85-12.1-43.85-7.9-.65 3.45-1.15 6.45-1.2 6.15-1.35 9.85-.05.4-.05.85 2.5-3.8 3.8-6.7-1.3 2.9-3.8 6.7-1 1.4-2.1 2.95-4.3 5.75-5.2 8.45-1 2.85-1.75 9.05-.9 6.25-.45 7.95.45 1.5 1.65 2.45.25.25.6.35-.1-2.1.4-3.25.85-1.8 2.8-3.05l-.25-2.1q0-2.35.3-2.85.3-.9 1.25-1.5.2-.1 1.7-.75 1.2-.4 2.9-.95.1-1.9.6-4.5-.5 2.6-.6 4.5-.25 2.4.1 4.05.2 1.05.8 2.25.3.85.85 1.75 1.55 3.15 1.9 3.85 3.25 6.75 2.75 13.95-.1 1.3-.45 2.85.35-1.55.45-2.85-1.45.05-2.6-.45-2.3-1-3.55-4.65-.8-4-1.45-6 .65 2 1.45 6 1.25 3.65 3.55 4.65 1.15.5 2.6.45.5-7.2-2.75-13.95-.35-.7-1.9-3.85-.55-.9-.85-1.75-1.8.2-4 .5-1.75.6-2.8 1.35-1.95 1.25-2.8 3.05-.5 1.15-.4 3.25.05 1.05.25 2.55.1 1.65 1.6 14.35.2 3.3 1.35 4.2.95.8 3.35 1.25 11.45 1.2 16.95 1.3 2.3 0 3.65-.95.3-.05.45-.2 1.3-1.2 1.7-3.85l.85-5.3-.85 5.3q-.4 2.65-1.7 3.85 3.35.35 6.35-.6 1.15-.15 1.65-.5.8-.6.95-2.5-.1-.2 0-.4.5-5.95.35-8 .15 2.05-.35 8-.1.2 0 .4l.1.05q3.6-1.05 5.05-2.2 1.1-.85 1.45-1.85.15-.6.05-1.05.05-5.2.2-7.85-.15 2.65-.2 7.85.6-.4 1.2-1 2.4-1.85 3.35-4.75.55-2.35.7-5.6 0-1.25.75-9.15.5-7.95 2.95-27.5m0 0q.15-.2.2-.45-.05 0-.1-.05 0 .25-.1.5m-388.5-23.2v-1.05q-.304.328-.6.6l.6.45m-45.25-7.65q-1.368 1.246-2.55 2.6l-1.55 2q2.468-3.007 4.1-4.6m38.7 3.55q-.18-.481-.35-.95h-.1q.335.64.45.95m-6.2-13.15.5 1q-.217-.447-.45-.95-.95-2.15-2.2-4.55l2.15 4.5m-2.15-4.5q-.196.044-.4.1-.386.088-.8.15-.352.113-.75.2-.159.044-.35.1-.181.044-.35.1-14.585 4.134-26.75 12.55-.294.258-.6.5-.166.2-.35.4-1.632 1.593-4.1 4.6l-.1.15-.55.7.05-.35-.1.3q-.86 1.269-1.65 2.6-.1.1-.15.25.4.8.85 1.55l3.4 5.75q.75 21.65 1.5 24.35.95 2.45 2.4 4.4 1.6 2 3.65 4.5.05.2.1.35l-.05.05q1.1 11.75 2.5 13.8 1.55 2.05 6.55 4.95 3.05 1.35 5.95 3.15 1.2 1.45 2.9 3.4 1.35 1.4 2.5 3.4l1.7 2.95q1.55 2.8 4.35 7.25 3.4 5.7 6.35.75 2.35-3.75 1.2-7.8-.4-1.25-1-2.45-2.95-5.45-5.95-9.4-2.15-2.8-3.65-5.7-.7-1.3-1.35-2.45-1.95-4.1-.25-11.5 1.35 2.7 3.2 6.85.8 2.55 2.35 5.4 1.4 3.45 3.75 7.3 2.4 3.8 7.15 7.3 4.8 3.65 7.55 5.5 2.8 1.9 3.85 1.45 1.15-.3 1.6-2.65.45-2.4-.65-5.05-1.1-2.5-3.6-4.85-2.65-2.5-3.7-3.4-1.15-1.05-1.85-1.8-.85-.9-1.4-1.8-.7-.85-1.2-2-.65-1.2-1.3-3.6-.7-2.5-1.05-4.75-.45-2.3-1.15-8.3-.6-6-.65-8.15-.2-3.5-.5-6.35 1.5.7 6 2.1 4.55 1.55 5.35 2.55.95 1 2.9 3.8 1.75 2.65 6.3 5.2 4.3 2.55 7.05 2 2.75-.55 4.25-1.75 1.5-1.3 1.45-3.1-.2-1.85-3.35-3.75-3.25-1.85-5.9-4.2-3.75-3.9-7.05-8.65-2.95-4.15-6.25-7.75-1.65-1.8-3.4-3.5-.4-.25-.65-.6-1.4-1.05-2.55-1.9-1.05-.75-1.95-1.45-.65-.4-2.8-5.85l-.15-.25q-.115-.31-.45-.95h-1.55q-.027-.188-.05-.4-.103-.735-.25-1.5-.38-1.794-1.05-3.6-.05-.35-.2-.7-.718-1.794-1.75-4.1-.438-.902-.9-1.9l-2.15-4.5M703.4 277.1q-45.05-4.8-44.4 19.75-1.73 45.05 0 90.1l57.1 15.75 33.5-10.35q1.316-39.608-1.3-77.25.1-33.2-44.9-38Z" id="style_05_outline_svg__a" fill="#855F48" fill-opacity="0"></path><path id="style_05_outline_svg__b" stroke="#000" stroke-width="2" stroke-linejoin="round" stroke-linecap="round" fill="none" d="M749.6 392.35q1.316-39.608-1.3-77.25.1-33.2-44.9-38-45.05-4.8-44.4 19.75-1.73 45.05 0 90.1l57.1 15.75 33.5-10.35Zm-264.75 412.2q.184-.2.375-.375.281-.267.575-.525 12.165-8.416 26.75-12.55.169-.056.35-.1.191-.056.375-.1l.75-.175.775-.175q.204-.056.4-.1m2.15 4.5q.462.998.9 1.925 3.697 7.762 4.875 10.275m.075 0q.17.469.375.95l.125.25q2.15 5.45 2.8 5.85.9.7 1.95 1.45 1.15.85 2.55 1.9.25.35.65.6 1.75 1.7 3.4 3.5 3.3 3.6 6.25 7.75 3.3 4.75 7.05 8.65 2.65 2.35 5.9 4.2 3.15 1.9 3.35 3.75.05 1.8-1.45 3.1-1.5 1.2-4.25 1.75t-7.05-2q-4.55-2.55-6.3-5.2-1.95-2.8-2.9-3.8-.8-1-5.35-2.55-4.5-1.4-6-2.1.3 2.85.5 6.35.05 2.15.65 8.15.7 6 1.15 8.3.35 2.25 1.05 4.75.65 2.4 1.3 3.6.5 1.15 1.2 2 .55.9 1.4 1.8.7.75 1.85 1.8 1.05.9 3.7 3.4 2.5 2.35 3.6 4.85 1.1 2.65.65 5.05-.45 2.35-1.6 2.65-1.05.45-3.85-1.45-2.75-1.85-7.55-5.5-4.75-3.5-7.15-7.3-2.35-3.85-3.75-7.3-1.55-2.85-2.35-5.4-1.85-4.15-3.2-6.85-1.7 7.4.25 11.5.65 1.15 1.35 2.45 1.5 2.9 3.65 5.7 3 3.95 5.95 9.4.6 1.2 1 2.45 1.15 4.05-1.2 7.8-2.95 4.95-6.35-.75-2.8-4.45-4.35-7.25l-1.7-2.95q-1.15-2-2.5-3.4-1.7-1.95-2.9-3.4-2.9-1.8-5.95-3.15-5-2.9-6.55-4.95-1.4-2.05-2.5-13.8l.05-.05q-.05-.15-.1-.35-2.05-2.5-3.65-4.5-1.45-1.95-2.4-4.4-.75-2.7-1.5-24.35l-3.4-5.75q-.45-.75-.85-1.55.05-.15.15-.25.79-1.331 1.675-2.575m.075-.325.025-.025q.204-.286.575-.45 2.468-3.032 4.1-4.625M480.1 810l.55-.7m42.475-2.15q.31.64.45.95M918.6 835.4q-2.45 19.55-2.95 27.5-.75 7.9-.75 9.15-.15 3.25-.7 5.6-.95 2.9-3.35 4.75-.6.6-1.2 1 .1.45-.05 1.05-.35 1-1.45 1.85-1.45 1.15-5.05 2.2l-.1-.05q-.15 1.9-.95 2.5-.5.35-1.65.5-3 .95-6.35.6-.15.15-.45.2-1.35.95-3.65.95-5.5-.1-16.95-1.3-2.4-.45-3.35-1.25-1.15-.9-1.35-4.2-1.5-12.7-1.6-14.35-.2-1.5-.25-2.55-.35-.1-.6-.35-1.2-.95-1.65-2.45-.45-1.7.45-7.95.75-6.2 1.75-9.05.9-2.7 5.2-8.45 1.1-1.55 2.1-2.95 0-.45.05-.85.15-3.7 1.35-9.85.5-3 1.15-6.45 24-4.2 43.85 7.9l-1.75 6.2m-24.3 56.75q1.3-1.2 1.7-3.85l.85-5.3m6.4 5.55q-.1-.2 0-.4.5-5.95.35-8m6.3 3.35q.05-5.2.2-7.85m-36.15-37.2q2.5-3.8 3.8-6.7m-11.05 37.9q-.1-2.1.4-3.25.85-1.8 2.8-3.05l-.25-2.1q0-2.35.3-2.85.3-.9 1.25-1.5.2-.1 1.7-.75 1.2-.4 2.9-.95.1-1.9.6-4.5m-.6 4.5q-.25 2.4.1 4.05.2 1.05.8 2.25.3.85.85 1.75 1.55 3.15 1.9 3.85 3.25 6.75 2.75 13.95-.1 1.3-.45 2.85m-5.05-22.4q-1.8.2-4 .5-1.75.6-2.8 1.35m12.3 17.7q-1.45.05-2.6-.45-2.3-1-3.55-4.65-.8-4-1.45-6m-359.15-79.4 2.15 4.5"></path></defs><g><use xlink:href="#style_05_outline_svg__a"></use><use xlink:href="#style_05_outline_svg__b"></use></g></svg>